<svg width="250" height="170" viewBox="0 0 250 170" fill="none" xmlns="http://www.w3.org/2000/svg">
<g clip-path="url(#clip0)">
<path d="M172.871 27.7452C172.028 29.7498 171.189 31.7247 170.353 33.6735C174.656 28.5379 182.276 23.3099 194.815 25.6899C185.319 36.848 181.023 41.6518 166.791 41.8771C165.974 43.7367 165.159 45.5702 164.351 47.3758C169.888 43.6564 180.972 38.9749 193.911 48.523C180.863 54.3256 174.899 56.8157 162.559 51.3501C160.351 56.2185 158.183 60.8826 156.064 65.3423C162.323 60.0915 174.706 53.4159 191.222 62.6706C176.27 71.7019 169.495 75.5767 153.519 70.6525C151.864 74.0785 150.241 77.3718 148.656 80.5359C154.811 77.1081 169.981 71.8154 188.627 88.0148C171.634 92.1602 164.062 93.7947 147.2 83.4311C143.547 90.6515 140.112 97.1561 136.955 102.943H133.64C136.228 98.2282 139.012 93.0124 141.959 87.2989C123.347 80.4032 119.932 73.4097 112.62 57.4041C137.278 62.1677 142.282 77.9218 143.287 84.711C144.712 81.9224 146.172 79.0202 147.663 76.0063C132.968 66.1264 131.789 58.4274 129.517 40.6093C149.635 49.0294 149.847 66.2311 148.982 73.3311C151.41 68.3772 153.919 63.1351 156.491 57.5997C144.337 51.1965 142.582 44.9626 138.996 30.9547C154.665 35.3096 157.762 47.2117 158.227 53.8384C159.26 51.5911 160.301 49.2984 161.351 46.9585C152.52 35.4406 153.599 29.0827 156.436 14.5737C165.312 22.3407 166.553 30.815 165.642 37.2479C167.232 33.5931 168.838 29.8406 170.459 25.985C170.049 19.8786 171.117 6.13436 187.665 -0.0017395C185.282 14.0778 184.053 20.4636 172.871 27.7452Z" fill="#D8DFFF"/>
<path fill-rule="evenodd" clip-rule="evenodd" d="M118.511 157.805C183.706 157.805 236.558 160.534 236.558 163.902C236.558 167.271 183.706 170 118.511 170C53.3156 170 0.463409 167.271 0.463409 163.902C0.463409 160.536 53.3156 157.805 118.511 157.805Z" fill="#D8DFFF"/>
<path d="M85.8786 163.598C85.8786 163.598 100.728 156.802 98.5236 146.278C96.3209 135.75 84.2469 136.859 85.8786 128.551C87.5102 120.241 95.4391 107.301 87.7289 97.8825C80.0186 88.4653 67.1966 94.1107 65.5892 79.5056C64.2926 67.7363 58.8875 59.4018 48.4139 61.8447C38.7179 64.1077 31.4885 71.6583 31.3097 89.6213C31.1135 108.746 17.7273 103.372 17.5607 117.461C17.3941 131.65 28.6279 131.65 33.0177 141.17C35.0902 145.667 29.685 161.47 45.6592 163.598H85.8786Z" fill="#C1CCFF"/>
<path d="M50.0386 69.4982C50.0386 69.5 50.0004 69.8195 49.9466 70.4464C49.7782 72.3288 49.4363 76.9178 49.4363 83.3106C49.4311 102.016 52.3645 136.183 70.8729 163.454C70.9042 163.501 70.9319 163.55 70.9528 163.6H69.0139C50.6756 135.99 47.8203 102.005 47.8151 83.3106C47.8151 74.7071 48.4243 69.3393 48.4278 69.3131C48.4781 68.8661 48.8791 68.5448 49.3252 68.5954C49.7695 68.6443 50.0889 69.0512 50.0386 69.4982Z" fill="white"/>
<path fill-rule="evenodd" clip-rule="evenodd" d="M68.0315 163.598C68.0315 163.598 70.3678 150.61 61.604 145.321C52.8436 140.032 43.8922 135.918 44.8643 127.397C45.8363 118.875 43.4461 108.819 29.4056 108.63C20.7268 108.517 23.9848 99.3091 15.1671 97.4739C9.80709 96.3581 6.27134 101.986 5.58745 107.514C4.80636 113.809 8.34905 119.998 4.28563 125.125C-0.987613 131.767 -3.12781 144.156 8.20324 147.682C19.536 151.209 9.43564 162.001 24.8683 163.597H29.6121H68.0315V163.598Z" fill="#D8DFFF"/>
<path d="M15.7555 103.645C16.0506 111.918 19.6991 123.696 25.9427 134.933C32.1793 146.179 41.0056 156.897 51.5469 163.214C51.7031 163.307 51.8159 163.443 51.8802 163.599H49.096C38.9383 156.986 30.5528 146.582 24.528 135.729C18.189 124.295 14.4606 112.379 14.136 103.706C14.1204 103.257 14.4675 102.877 14.9171 102.861C15.3615 102.845 15.7398 103.196 15.7555 103.645Z" fill="white"/>
<path d="M234.218 105.297C233.613 106.737 233.009 108.159 232.408 109.561C235.503 105.868 240.983 102.107 250.002 103.82C243.171 111.845 240.082 115.301 229.846 115.461C229.258 116.799 228.673 118.117 228.091 119.417C232.073 116.741 240.047 113.375 249.353 120.242C239.969 124.416 235.678 126.207 226.803 122.275C225.215 125.776 223.656 129.131 222.132 132.34C226.633 128.563 235.539 123.763 247.421 130.417C236.666 136.913 231.795 139.7 220.303 136.159C219.11 138.623 217.946 140.992 216.805 143.268C221.231 140.802 232.142 136.995 245.553 148.646C233.331 151.628 227.885 152.804 215.757 145.349C213.129 150.542 210.659 155.22 208.389 159.383H206.004C207.864 155.992 209.867 152.241 211.987 148.131C198.601 143.172 196.144 138.141 190.885 126.63C208.619 130.056 212.219 141.387 212.943 146.269C213.967 144.263 215.017 142.176 216.09 140.008C205.521 132.901 204.674 127.363 203.039 114.55C217.508 120.606 217.659 132.977 217.038 138.085C218.784 134.523 220.589 130.751 222.438 126.77C213.697 122.165 212.435 117.681 209.855 107.605C221.126 110.736 223.353 119.298 223.688 124.065C224.429 122.448 225.179 120.799 225.934 119.116C219.581 110.832 220.358 106.259 222.398 95.8238C228.782 101.41 229.674 107.506 229.02 112.131C230.164 109.503 231.318 106.804 232.484 104.031C232.189 99.6392 232.958 89.7523 244.86 85.3397C243.144 95.4675 242.26 100.06 234.218 105.297Z" fill="#D8DFFF"/>
<path fill-rule="evenodd" clip-rule="evenodd" d="M128.011 90.9886H217.416C218.874 90.9886 220.067 92.1882 220.067 93.6567V153.008C220.067 154.719 218.675 156.12 216.974 156.12H125.938V93.0753C125.938 91.9263 126.87 90.9886 128.011 90.9886Z" fill="#0043EC"/>
<path fill-rule="evenodd" clip-rule="evenodd" d="M129.17 93.6096V153.499H216.932C217.218 153.499 217.463 153.273 217.463 153.008V93.655C217.463 93.634 217.435 93.6078 217.413 93.6078H129.17V93.6096Z" fill="#2046A7"/>
<path d="M159.825 44.2709L124.438 132.08L169.187 150.331L204.574 62.522L159.825 44.2709Z" fill="#8AC80C"/>
<path fill-rule="evenodd" clip-rule="evenodd" d="M188.137 64.7067C187.487 68.5903 189.243 72.5104 192.562 74.5954L168.992 133.075C165.168 132.247 161.193 133.83 158.971 137.072L140.954 129.724C141.605 125.841 139.849 121.921 136.53 119.836L160.098 61.3558C163.922 62.1835 167.897 60.6014 170.119 57.3588L188.137 64.7067ZM197.04 63.7131L164.417 50.4072C162.28 49.5359 159.845 50.5731 158.978 52.7226L129.748 125.249C128.882 127.398 129.911 129.848 132.048 130.72L164.672 144.026C166.808 144.897 169.244 143.86 170.11 141.712L199.34 69.184C200.208 67.0344 199.177 64.5845 197.04 63.7131Z" fill="#3C9B14"/>
<path fill-rule="evenodd" clip-rule="evenodd" d="M176.65 103.608C179.407 96.7702 176.129 88.9787 169.332 86.2058C162.535 83.4328 154.79 86.7296 152.034 93.5677C149.277 100.406 152.554 108.197 159.352 110.97C166.149 113.743 173.894 110.446 176.65 103.608Z" fill="#3C9B14"/>
<path fill-rule="evenodd" clip-rule="evenodd" d="M171.934 100.556L174.625 101.326L173.458 104.085L171.115 102.554C169.907 104.659 168.227 105.643 166.085 105.505L166.486 101.843C167.494 101.893 168.218 101.415 168.659 100.404C169.028 99.5553 168.942 99.0105 168.397 98.7713C168.197 98.684 167.999 98.684 167.796 98.7661C167.595 98.8481 167.282 99.1834 166.855 99.7736C165.89 101.122 165.14 102.063 164.604 102.595C164.064 103.128 163.398 103.474 162.601 103.633C161.804 103.792 160.992 103.689 160.159 103.322C158.994 102.808 158.199 101.962 157.774 100.783C157.349 99.6007 157.375 98.244 157.847 96.7091L155.099 96.0158L156.309 93.0979L158.709 94.7306C160.081 92.382 162.061 91.3989 164.64 91.7743L163.74 95.6683C162.559 95.5164 161.698 96.0612 161.155 97.3062C160.732 98.2771 160.784 98.883 161.315 99.1153C161.594 99.2393 161.863 99.2236 162.115 99.0629C162.37 98.9075 162.681 98.5635 163.05 98.0414C164.489 95.9774 165.698 94.8005 166.67 94.5054C167.642 94.2103 168.589 94.2679 169.508 94.673C170.523 95.12 171.276 95.8499 171.776 96.861C172.267 97.8685 172.323 99.1013 171.934 100.556Z" fill="#8AC80C"/>
<path fill-rule="evenodd" clip-rule="evenodd" d="M176.091 79.8968C177.049 77.4748 175.874 74.7298 173.467 73.7677C171.059 72.8038 168.332 73.986 167.374 76.4079C166.416 78.8299 167.591 81.5732 169.999 82.537C172.406 83.5009 175.133 82.3188 176.091 79.8968Z" fill="#3C9B14"/>
<path fill-rule="evenodd" clip-rule="evenodd" d="M177.721 70.2665C178.268 68.8853 177.596 67.319 176.223 66.7689C174.85 66.2189 173.293 66.8929 172.746 68.2759C172.2 69.6571 172.871 71.2234 174.244 71.7735C175.617 72.3235 177.174 71.6495 177.721 70.2665Z" fill="#3C9B14"/>
<path fill-rule="evenodd" clip-rule="evenodd" d="M160.561 120.529C159.577 122.939 156.836 124.091 154.439 123.099C152.042 122.109 150.898 119.352 151.884 116.94C152.869 114.529 155.609 113.378 158.006 114.368C160.402 115.36 161.546 118.117 160.561 120.529Z" fill="#3C9B14"/>
<path fill-rule="evenodd" clip-rule="evenodd" d="M155.078 128.591C154.516 129.967 152.952 130.624 151.584 130.058C150.216 129.494 149.564 127.919 150.126 126.544C150.688 125.168 152.252 124.512 153.618 125.078C154.988 125.643 155.641 127.215 155.078 128.591Z" fill="#3C9B14"/>
<path d="M182.802 39.9921L132.336 120.003L173.111 146.032L223.577 66.0206L182.802 39.9921Z" fill="#8AC80C"/>
<path fill-rule="evenodd" clip-rule="evenodd" d="M206.998 65.2131C205.665 68.9167 206.696 73.0901 209.588 75.7391L175.98 129.02C172.365 127.517 168.173 128.357 165.409 131.146L148.993 120.667C150.326 116.963 149.295 112.79 146.403 110.141L180.011 56.8593C183.626 58.3628 187.818 57.5229 190.581 54.7342L206.998 65.2131ZM215.934 65.8382L186.211 46.8641C184.265 45.6209 181.684 46.2023 180.448 48.1616L138.769 114.242C137.533 116.2 138.111 118.797 140.057 120.04L169.78 139.014C171.726 140.257 174.309 139.676 175.543 137.716L217.224 71.6355C218.458 69.6781 217.881 67.0815 215.934 65.8382Z" fill="#3C9B14"/>
<path fill-rule="evenodd" clip-rule="evenodd" d="M188.766 101.41C192.696 95.1794 190.861 86.9234 184.668 82.9683C178.475 79.015 170.268 80.8607 166.336 87.0911C162.407 93.3215 164.241 101.577 170.434 105.533C176.628 109.488 184.836 107.642 188.766 101.41Z" fill="#3C9B14"/>
<path fill-rule="evenodd" clip-rule="evenodd" d="M184.669 97.5577L187.179 98.801L185.539 101.305L183.506 99.3755C181.943 101.23 180.115 101.893 178.03 101.371L179.079 97.8406C180.061 98.0728 180.859 97.7323 181.472 96.8173C181.988 96.049 181.998 95.4972 181.505 95.1619C181.325 95.0397 181.128 95.0048 180.915 95.0484C180.701 95.0921 180.335 95.3662 179.809 95.8691C178.62 97.0216 177.714 97.8109 177.091 98.2387C176.466 98.6648 175.749 98.8848 174.937 98.8988C174.125 98.911 173.345 98.6648 172.59 98.1531C171.535 97.4372 170.905 96.4611 170.697 95.2231C170.49 93.9833 170.756 92.6527 171.495 91.2278L168.916 90.0491L170.625 87.3967L172.696 89.4362C174.463 87.374 176.588 86.7628 179.058 87.5975L177.476 91.2645C176.341 90.9013 175.399 91.2819 174.642 92.41C174.052 93.29 173.996 93.8942 174.477 94.219C174.729 94.3901 174.996 94.4233 175.274 94.3115C175.553 94.205 175.919 93.9239 176.376 93.4751C178.159 91.7045 179.558 90.7633 180.566 90.6481C181.575 90.5328 182.498 90.7616 183.328 91.3238C184.246 91.9472 184.859 92.8011 185.171 93.8855C185.477 94.9751 185.31 96.1957 184.669 97.5577Z" fill="#8AC80C"/>
<path fill-rule="evenodd" clip-rule="evenodd" d="M192.44 77.9847C193.813 75.7757 193.147 72.8631 190.951 71.4801C188.755 70.0989 185.86 70.7694 184.487 72.9784C183.112 75.1873 183.781 78.0999 185.976 79.4811C188.172 80.8641 191.066 80.1936 192.44 77.9847Z" fill="#3C9B14"/>
<path fill-rule="evenodd" clip-rule="evenodd" d="M195.759 68.8032C196.544 67.5425 196.162 65.8801 194.909 65.0926C193.655 64.3033 192.003 64.6875 191.22 65.9482C190.436 67.2089 190.817 68.8713 192.071 69.6588C193.324 70.4464 194.976 70.064 195.759 68.8032Z" fill="#3C9B14"/>
<path fill-rule="evenodd" clip-rule="evenodd" d="M169.922 115.156C168.523 117.349 165.623 117.988 163.441 116.581C161.259 115.173 160.626 112.255 162.025 110.06C163.424 107.865 166.324 107.228 168.506 108.634C170.686 110.043 171.32 112.963 169.922 115.156Z" fill="#3C9B14"/>
<path fill-rule="evenodd" clip-rule="evenodd" d="M163.09 122.1C162.292 123.352 160.636 123.716 159.391 122.914C158.147 122.111 157.784 120.447 158.583 119.195C159.381 117.943 161.037 117.579 162.282 118.381C163.526 119.182 163.889 120.848 163.09 122.1Z" fill="#3C9B14"/>
<path d="M204.197 43.114L142.248 114.493L178.624 146.443L240.573 75.0644L204.197 43.114Z" fill="#8AC80C"/>
<path fill-rule="evenodd" clip-rule="evenodd" d="M224.309 71.7229C222.434 75.1803 222.821 79.462 225.281 82.5231L184.027 130.06C180.681 128.022 176.411 128.212 173.258 130.548L158.612 117.684C160.487 114.227 160.098 109.945 157.64 106.884L198.894 59.3477C202.24 61.3855 206.51 61.1951 209.663 58.8605L224.309 71.7229ZM233.047 73.7083L206.528 50.4177C204.792 48.8915 202.152 49.0731 200.637 50.8193L149.475 109.774C147.96 111.52 148.137 114.176 149.874 115.701L176.393 138.991C178.129 140.516 180.769 140.336 182.284 138.59L233.448 79.6349C234.963 77.8869 234.784 75.2327 233.047 73.7083Z" fill="#3C9B14"/>
<path fill-rule="evenodd" clip-rule="evenodd" d="M200.829 104.721C205.653 99.1607 205.085 90.7214 199.559 85.867C194.034 81.0143 185.643 81.5853 180.818 87.1452C175.994 92.705 176.562 101.144 182.088 105.999C187.615 110.851 196.004 110.28 200.829 104.721Z" fill="#3C9B14"/>
<path fill-rule="evenodd" clip-rule="evenodd" d="M185.235 91.9856L182.942 90.3739L184.94 88.1493L186.659 90.3669C188.485 88.7727 190.39 88.3955 192.373 89.2284L190.805 92.5584C189.868 92.1795 189.028 92.3942 188.285 93.2045C187.66 93.8855 187.565 94.4286 188.002 94.8337C188.162 94.9821 188.349 95.0467 188.568 95.0362C188.787 95.0257 189.189 94.811 189.785 94.3936C191.133 93.4367 192.149 92.7941 192.827 92.4658C193.51 92.1393 194.253 92.031 195.056 92.1428C195.86 92.2545 196.594 92.6178 197.262 93.2394C198.198 94.1073 198.674 95.1689 198.693 96.4244C198.71 97.6817 198.247 98.9547 197.301 100.25L199.673 101.808L197.583 104.169L195.844 101.838C193.786 103.607 191.595 103.888 189.28 102.685L191.394 99.3004C192.461 99.833 193.451 99.599 194.369 98.6002C195.084 97.8214 195.23 97.2329 194.805 96.8365C194.581 96.6287 194.322 96.5554 194.03 96.6235C193.739 96.6864 193.333 96.9081 192.815 97.2818C190.786 98.7591 189.262 99.4768 188.247 99.4366C187.231 99.3965 186.355 99.0298 185.619 98.347C184.805 97.5909 184.327 96.6532 184.183 95.5339C184.046 94.4163 184.395 93.2342 185.235 91.9856Z" fill="#8AC80C"/>
<path fill-rule="evenodd" clip-rule="evenodd" d="M207.995 82.1267C209.685 80.1517 209.465 77.1727 207.502 75.4719C205.538 73.7711 202.577 73.9912 200.887 75.9661C199.196 77.9411 199.415 80.92 201.378 82.6208C203.341 84.3216 206.302 84.0999 207.995 82.1267Z" fill="#3C9B14"/>
<path fill-rule="evenodd" clip-rule="evenodd" d="M212.659 73.5582C213.624 72.4319 213.497 70.7311 212.377 69.7602C211.258 68.7893 209.567 68.9168 208.602 70.0431C207.637 71.1694 207.764 72.8702 208.883 73.841C210.003 74.8119 211.694 74.6844 212.659 73.5582Z" fill="#3C9B14"/>
<path fill-rule="evenodd" clip-rule="evenodd" d="M180.13 115.432C178.417 117.387 175.452 117.574 173.508 115.852C171.564 114.129 171.379 111.147 173.09 109.191C174.803 107.235 177.768 107.046 179.712 108.77C181.656 110.493 181.843 113.476 180.13 115.432Z" fill="#3C9B14"/>
<path fill-rule="evenodd" clip-rule="evenodd" d="M172.332 121.252C171.354 122.368 169.662 122.474 168.553 121.491C167.444 120.508 167.338 118.805 168.315 117.69C169.292 116.574 170.985 116.467 172.094 117.45C173.203 118.435 173.309 120.136 172.332 121.252Z" fill="#3C9B14"/>
<path fill-rule="evenodd" clip-rule="evenodd" d="M182.83 120.89C186.072 120.89 188.7 123.606 188.7 126.956C188.7 130.307 186.072 133.023 182.83 133.023C179.587 133.023 176.959 130.307 176.959 126.956C176.959 123.606 179.587 120.89 182.83 120.89Z" fill="#4F3207"/>
<path fill-rule="evenodd" clip-rule="evenodd" d="M222.212 114.024H220.067V119.75H224.356V116.183C224.358 114.995 223.393 114.024 222.212 114.024Z" fill="#2046A7"/>
<path d="M145.46 98.1933C143.917 88.9822 150.086 80.2582 159.242 78.7041C168.398 77.1518 177.07 83.3594 178.615 92.5688C180.16 101.78 173.987 110.506 164.833 112.058C155.677 113.612 147.003 107.404 145.46 98.1933Z" fill="#E58927"/>
<path d="M144.278 97.1788C142.735 87.9677 148.906 79.2437 158.06 77.6896C167.216 76.1355 175.888 82.3449 177.433 91.5543C178.978 100.765 172.807 109.491 163.651 111.043C154.497 112.596 145.823 106.388 144.278 97.1788Z" fill="#FFEF95"/>
<path d="M144.898 97.6468C143.355 88.4356 149.525 79.7117 158.68 78.1576C167.836 76.6052 176.508 82.8129 178.053 92.0223C179.596 101.233 173.425 109.957 164.271 111.512C155.115 113.066 146.441 106.858 144.898 97.6468Z" fill="#FBCA0D"/>
<path d="M144.898 97.6468C144.889 97.5979 144.882 97.5507 144.875 97.5018L178.027 91.8791C178.035 91.928 178.044 91.9751 178.053 92.024C179.596 101.235 173.425 109.959 164.271 111.513C155.115 113.066 146.441 106.858 144.898 97.6468Z" fill="#FFD915"/>
<path d="M147.406 97.2224C146.096 89.4065 151.332 82.0009 159.103 80.6825C166.873 79.3642 174.234 84.6324 175.544 92.4501C176.855 100.266 171.618 107.672 163.847 108.99C156.078 110.307 148.717 105.038 147.406 97.2224Z" fill="#FCA700"/>
<path d="M166.812 81.5067C170.158 84.2291 171.995 87.6341 172.465 90.4402C174.732 103.963 162.453 109.158 150.895 104.453C154.054 107.956 158.866 109.818 163.845 108.973C171.615 107.654 176.852 100.249 175.541 92.4327C174.687 87.3303 171.254 83.314 166.812 81.5067Z" fill="#EC830E"/>
<path d="M150.088 98.099C148.932 91.1981 153.554 84.6621 160.414 83.4991C164.423 82.8199 168.308 84.126 171.077 86.7069C168.305 83.3245 163.863 81.4858 159.258 82.2663C152.398 83.4293 147.776 89.967 148.932 96.868C149.413 99.7352 150.815 102.213 152.783 104.048C151.424 102.391 150.468 100.366 150.088 98.099Z" fill="#FFD915"/>
<path fill-rule="evenodd" clip-rule="evenodd" d="M159.907 89.2965L159.661 87.7633L161.367 87.4874L161.606 88.9839C163.549 88.8878 164.943 89.6003 165.784 91.1195L163.148 92.4431C162.742 91.7341 162.105 91.4513 161.233 91.5927C160.501 91.7114 160.173 92.0083 160.249 92.4832C160.277 92.6561 160.364 92.7923 160.508 92.8936C160.652 92.9949 161.013 93.0612 161.594 93.0944C162.92 93.1625 163.88 93.2638 164.472 93.3948C165.066 93.5292 165.588 93.8313 166.043 94.3045C166.498 94.7777 166.782 95.3732 166.899 96.1014C167.062 97.1176 166.838 98.0274 166.232 98.8324C165.623 99.6374 164.7 100.212 163.462 100.559L163.708 102.093L162.002 102.37L161.756 100.837C159.579 100.928 158.055 100.011 157.182 98.092L160.192 97.0076C160.605 97.8772 161.346 98.2247 162.42 98.0501C163.257 97.9139 163.641 97.6153 163.568 97.1526C163.528 96.9098 163.401 96.7335 163.182 96.6305C162.967 96.5257 162.601 96.4628 162.087 96.4401C160.072 96.3615 158.755 96.0542 158.131 95.5216C157.51 94.989 157.135 94.3185 157.007 93.5187C156.864 92.6334 157.026 91.8022 157.487 91.0217C157.954 90.2411 158.76 89.6666 159.907 89.2965Z" fill="#FFD915"/>
<path d="M166.817 92.2807C169.291 83.2774 178.551 77.997 187.5 80.4853C196.45 82.9736 201.699 92.2895 199.226 101.293C196.752 110.296 187.492 115.577 178.542 113.088C169.593 110.598 164.342 101.284 166.817 92.2807Z" fill="#E58927"/>
<path d="M166.173 90.8576C168.647 81.8543 177.907 76.5738 186.856 79.0621C195.806 81.5504 201.055 90.8663 198.581 99.8697C196.108 108.873 186.848 114.153 177.898 111.665C168.949 109.177 163.7 99.8609 166.173 90.8576Z" fill="#FFEF95"/>
<path d="M166.538 91.5473C169.011 82.544 178.271 77.2635 187.221 79.7518C196.171 82.2401 201.42 91.556 198.946 100.559C196.473 109.563 187.212 114.843 178.263 112.355C169.313 109.865 164.064 100.551 166.538 91.5473Z" fill="#FBCA0D"/>
<path d="M166.538 91.5473C166.55 91.5002 166.565 91.453 166.578 91.4059L198.981 100.416C198.969 100.463 198.956 100.51 198.944 100.558C196.471 109.561 187.211 114.841 178.261 112.353C169.313 109.865 164.064 100.551 166.538 91.5473Z" fill="#FFD915"/>
<path d="M168.989 92.2284C171.087 84.5888 178.947 80.1063 186.542 82.2175C194.136 84.3286 198.592 92.2354 196.493 99.8767C194.395 107.518 186.535 111.999 178.94 109.888C171.346 107.775 166.89 99.8697 168.989 92.2284Z" fill="#FCA700"/>
<path d="M193.18 86.2459C195.068 90.1364 195.299 94.0025 194.546 96.7475C190.915 109.966 177.605 109.447 169.108 100.266C170.497 104.783 174.076 108.517 178.943 109.87C186.539 111.983 194.397 107.5 196.497 99.8592C197.868 94.8738 196.445 89.7732 193.18 86.2459Z" fill="#EC830E"/>
<path d="M171.051 94.1649C172.904 87.4211 179.841 83.4642 186.546 85.3274C190.465 86.417 193.435 89.2546 194.858 92.7714C193.768 88.5282 190.515 84.9694 186.015 83.7192C179.311 81.8543 172.373 85.8111 170.519 92.5566C169.749 95.3593 169.98 98.2021 170.992 100.701C170.457 98.6229 170.441 96.3808 171.051 94.1649Z" fill="#FFD915"/>
<path fill-rule="evenodd" clip-rule="evenodd" d="M183.649 90.3669L184.071 88.8722L185.733 89.3472L185.322 90.8052C187.124 91.5439 188.085 92.7837 188.21 94.5176L185.265 94.5962C185.195 93.7807 184.737 93.2534 183.887 93.0107C183.173 92.8064 182.751 92.9356 182.621 93.3983C182.574 93.5677 182.595 93.7283 182.682 93.8803C182.769 94.0339 183.069 94.247 183.583 94.5246C184.756 95.1515 185.584 95.6509 186.065 96.0228C186.546 96.3965 186.893 96.8942 187.106 97.5158C187.32 98.1375 187.327 98.7993 187.127 99.5082C186.848 100.498 186.263 101.228 185.374 101.698C184.484 102.168 183.406 102.295 182.137 102.084L181.715 103.579L180.052 103.104L180.474 101.609C178.464 100.765 177.468 99.2847 177.483 97.1753L180.667 97.4739C180.675 98.4378 181.201 99.0682 182.246 99.3668C183.062 99.599 183.536 99.4925 183.663 99.042C183.73 98.8045 183.689 98.5915 183.532 98.4064C183.381 98.2195 183.076 98.0065 182.621 97.7673C180.828 96.8383 179.764 96.0001 179.424 95.251C179.084 94.5036 179.026 93.7371 179.247 92.9583C179.49 92.0956 179.986 91.4094 180.733 90.8995C181.483 90.3914 182.453 90.2133 183.649 90.3669Z" fill="#FFD915"/>
<path fill-rule="evenodd" clip-rule="evenodd" d="M125.938 96.4436H209.31C210.768 96.4436 211.963 97.6433 211.963 99.1101V158.463C211.963 160.174 210.57 161.575 208.869 161.575H125.938V96.4436Z" fill="#2952B9"/>
<path d="M212.336 97.5455H125.938V162.676H212.336V97.5455Z" fill="url(#paint0_linear)"/>
<path d="M129.172 97.5455H125.938V162.676H129.172V97.5455Z" fill="#0043EC"/>
<path fill-rule="evenodd" clip-rule="evenodd" d="M128.49 159.72V160.392H127.452V159.72H128.49ZM130.344 159.72V160.392H129.306V159.72H130.344ZM132.197 159.72V160.392H131.159V159.72H132.197ZM134.051 159.72V160.392H133.013V159.72H134.051ZM135.907 159.72V160.392H134.869V159.72H135.907ZM137.76 159.72V160.392H136.722V159.72H137.76ZM139.614 159.72V160.392H138.576V159.72H139.614ZM141.47 159.72V160.392H140.432V159.72H141.47ZM143.324 159.72V160.392H142.286V159.72H143.324ZM145.177 159.72V160.392H144.139V159.72H145.177ZM147.033 159.72V160.392H145.995V159.72H147.033ZM148.887 159.72V160.392H147.849V159.72H148.887ZM150.74 159.72V160.392H149.702V159.72H150.74ZM152.594 159.72V160.392H151.556V159.72H152.594ZM154.45 159.72V160.392H153.412V159.72H154.45ZM156.304 159.72V160.392H155.266V159.72H156.304ZM158.157 159.72V160.392H157.119V159.72H158.157ZM160.013 159.72V160.392H158.975V159.72H160.013ZM161.867 159.72V160.392H160.829V159.72H161.867ZM163.72 159.72V160.392H162.683V159.72H163.72ZM165.576 159.72V160.392H164.538V159.72H165.576ZM167.43 159.72V160.392H166.392V159.72H167.43ZM169.284 159.72V160.392H168.246V159.72H169.284ZM171.139 159.72V160.392H170.101V159.72H171.139ZM172.993 159.72V160.392H171.955V159.72H172.993ZM174.847 159.72V160.392H173.809V159.72H174.847ZM176.701 159.72V160.392H175.663V159.72H176.701ZM178.556 159.72V160.392H177.518V159.72H178.556ZM180.41 159.72V160.392H179.372V159.72H180.41ZM182.265 159.72V160.392H181.227V159.72H182.265ZM184.119 159.72V160.392H183.081V159.72H184.119ZM185.973 159.72V160.392H184.935V159.72H185.973ZM187.827 159.72V160.392H186.789V159.72H187.827ZM189.682 159.72V160.392H188.644V159.72H189.682ZM191.536 159.72V160.392H190.498V159.72H191.536ZM193.39 159.72V160.392H192.352V159.72H193.39ZM195.245 159.72V160.392H194.207V159.72H195.245ZM197.099 159.72V160.392H196.061V159.72H197.099ZM198.953 159.72V160.392H197.915V159.72H198.953ZM200.809 159.72V160.392H199.771V159.72H200.809ZM202.662 159.72V160.392H201.624V159.72H202.662ZM204.516 159.72V160.392H203.478V159.72H204.516ZM206.37 159.72V160.392H205.332V159.72H206.37ZM208.225 159.72V160.392H207.187V159.72H208.225ZM209.258 159.718L209.274 159.715L209.289 159.71L209.302 159.704L209.324 159.69L209.34 159.678L209.352 159.666L209.366 159.649L209.373 159.64L209.374 159.635L209.383 159.617V159.614L209.385 159.612L209.39 159.598L209.392 159.586L209.413 159.434L210.071 159.549L210.044 159.722L210.029 159.79L210.008 159.849L209.987 159.9L209.958 159.959L209.913 160.031L209.873 160.083L209.831 160.131L209.789 160.172L209.713 160.235L209.668 160.265L209.611 160.298L209.569 160.319L209.496 160.349L209.411 160.373L209.329 160.387L209.251 160.392H209.04V159.72H209.243L209.258 159.718ZM209.395 157.625H210.064V158.669H209.395V157.625ZM209.395 155.76H210.064V156.804H209.395V155.76ZM209.395 153.895H210.064V154.939H209.395V153.895ZM209.395 152.028H210.064V153.072H209.395V152.028ZM209.395 150.163H210.064V151.208H209.395V150.163ZM209.395 148.298H210.064V149.343H209.395V148.298ZM209.395 146.433H210.064V147.478H209.395V146.433ZM209.395 144.567H210.064V145.611H209.395V144.567ZM209.395 142.702H210.064V143.746H209.395V142.702ZM209.395 140.837H210.064V141.881H209.395V140.837ZM209.395 138.97H210.064V140.014H209.395V138.97ZM209.395 137.105H210.064V138.15H209.395V137.105ZM209.395 135.24H210.064V136.285H209.395V135.24ZM209.395 133.374H210.064V134.418H209.395V133.374ZM209.395 131.509H210.064V132.553H209.395V131.509ZM209.395 129.644H210.064V130.688H209.395V129.644ZM209.395 127.777H210.064V128.821H209.395V127.777ZM209.395 125.912H210.064V126.956H209.395V125.912ZM209.395 124.047H210.064V125.092H209.395V124.047ZM209.395 122.181H210.064V123.225H209.395V122.181ZM209.395 120.316H210.064V121.36H209.395V120.316ZM209.395 118.451H210.064V119.495H209.395V118.451ZM209.395 116.586H210.064V117.63H209.395V116.586ZM209.395 114.719H210.064V115.763H209.395V114.719ZM209.395 112.854H210.064V113.899H209.395V112.854ZM209.395 110.989H210.064V112.034H209.395V110.989ZM209.395 109.123H210.064V110.167H209.395V109.123ZM209.395 107.258H210.064V108.302H209.395V107.258ZM209.395 105.393H210.064V106.437H209.395V105.393ZM209.395 103.526H210.064V104.57H209.395V103.526ZM209.395 101.661H210.064V102.705H209.395V101.661ZM207.486 100.504V99.8313H208.524V100.504H207.486ZM205.63 100.504V99.8313H206.668V100.504H205.63ZM203.777 100.504V99.8313H204.815V100.504H203.777ZM201.923 100.504V99.8313H202.961V100.504H201.923ZM200.069 100.504V99.8313H201.107V100.504H200.069ZM198.214 100.504V99.8313H199.252V100.504H198.214ZM196.36 100.504V99.8313H197.398V100.504H196.36ZM194.506 100.504V99.8313H195.544V100.504H194.506ZM192.65 100.504V99.8313H193.688V100.504H192.65ZM190.797 100.504V99.8313H191.835V100.504H190.797ZM188.943 100.504V99.8313H189.981V100.504H188.943ZM187.087 100.504V99.8313H188.125V100.504H187.087ZM185.234 100.504V99.8313H186.272V100.504H185.234ZM183.38 100.504V99.8313H184.418V100.504H183.38ZM181.524 100.504V99.8313H182.562V100.504H181.524ZM179.67 100.504V99.8313H180.708V100.504H179.67ZM177.817 100.504V99.8313H178.855V100.504H177.817ZM175.961 100.504V99.8313H176.999V100.504H175.961ZM174.107 100.504V99.8313H175.145V100.504H174.107ZM172.253 100.504V99.8313H173.291V100.504H172.253ZM170.4 100.504V99.8313H171.438V100.504H170.4ZM168.544 100.504V99.8313H169.584V100.504H168.544ZM166.69 100.504V99.8313H167.728V100.504H166.69ZM164.837 100.504V99.8313H165.875V100.504H164.837ZM162.981 100.504V99.8313H164.019V100.504H162.981ZM161.127 100.504V99.8313H162.165V100.504H161.127ZM159.273 100.504V99.8313H160.311V100.504H159.273ZM157.418 100.504V99.8313H158.456V100.504H157.418ZM155.564 100.504V99.8313H156.602V100.504H155.564ZM153.71 100.504V99.8313H154.748V100.504H153.71ZM151.855 100.504V99.8313H152.893V100.504H151.855ZM150.001 100.504V99.8313H151.039V100.504H150.001ZM148.147 100.504V99.8313H149.185V100.504H148.147ZM146.293 100.504V99.8313H147.331V100.504H146.293ZM144.438 100.504V99.8313H145.476V100.504H144.438ZM142.584 100.504V99.8313H143.622V100.504H142.584ZM140.73 100.504V99.8313H141.768V100.504H140.73ZM138.875 100.504V99.8313H139.913V100.504H138.875ZM137.021 100.504V99.8313H138.059V100.504H137.021ZM135.167 100.504V99.8313H136.205V100.504H135.167ZM133.313 100.504V99.8313H134.351V100.504H133.313ZM131.458 100.504V99.8313H132.496V100.504H131.458ZM129.604 100.504V99.8313H130.642V100.504H129.604ZM127.75 100.504V99.8313H128.788V100.504H127.75ZM210.064 100.841H209.395V100.504H209.34V99.8313C209.991 99.8313 210.064 99.6654 210.064 100.841Z" fill="#F6FBFF"/>
<path fill-rule="evenodd" clip-rule="evenodd" d="M187.712 116.471H222.434C223.512 116.471 224.392 117.382 224.392 118.494V133.547C224.392 134.659 223.511 135.57 222.434 135.57H187.712C182.63 135.57 178.471 131.273 178.471 126.021C178.471 120.77 182.63 116.471 187.712 116.471Z" fill="#2046A7"/>
<path fill-rule="evenodd" clip-rule="evenodd" d="M187.36 117.581H221.688C222.755 117.581 223.627 118.484 223.627 119.586V134.49C223.627 135.591 222.754 136.494 221.688 136.494H187.36C182.328 136.494 178.209 132.239 178.209 127.039C178.209 121.835 182.326 117.581 187.36 117.581Z" fill="#0043EC"/>
<path d="M193.6 120.836H181.859V132.969H193.6V120.836Z" fill="url(#paint1_linear)"/>
<path fill-rule="evenodd" clip-rule="evenodd" d="M186.424 122.76C187.861 122.76 189.024 123.964 189.024 125.448C189.024 126.932 187.86 128.135 186.424 128.135C184.987 128.135 183.824 126.932 183.824 125.448C183.824 123.964 184.989 122.76 186.424 122.76Z" fill="#EEF4F8"/>
<path d="M191.734 151.487H152.136V156.596H191.734V151.487Z" fill="#FDA600"/>
<path d="M191.734 151.487H186.716V156.596H191.734V151.487Z" fill="#FDA600"/>
<path d="M186.714 151.487H181.637V156.596H186.714V151.487Z" fill="#FFD115"/>
<path d="M181.637 151.487H163.38V156.596H181.637V151.487Z" fill="#FCA700"/>
<path d="M163.38 151.487H155.703V156.596H163.38V151.487Z" fill="#EC830E"/>
<path d="M189.8 156.595H154.011V157.082H189.8V156.595Z" fill="#DF641E"/>
<path d="M197.851 157.082H156.734V162.191H197.851V157.082Z" fill="#FDA600"/>
<path d="M197.851 157.082H192.64V162.191H197.851V157.082Z" fill="#FDA600"/>
<path d="M192.64 157.082H187.367V162.191H192.64V157.082Z" fill="#FFD115"/>
<path d="M187.367 157.082H168.409V162.191H187.367V157.082Z" fill="#FCA700"/>
<path d="M168.409 157.082H160.436V162.191H168.409V157.082Z" fill="#EC830E"/>
<path d="M195.842 162.191H158.682V162.678H195.842V162.191Z" fill="#DF641E"/>
<path fill-rule="evenodd" clip-rule="evenodd" d="M72.0133 12.3665L136.131 10.6622C141.836 10.6622 146.502 15.4066 146.502 21.2057V152.133C146.502 157.932 141.834 162.677 136.131 162.677H73.8966C68.1912 162.677 63.5254 157.932 63.5254 152.133V21.2057C63.5254 15.4066 66.3096 12.3665 72.0133 12.3665Z" fill="#092978"/>
<path d="M139.027 10.6622H56.0494V162.677H139.027V10.6622Z" fill="url(#paint2_linear)"/>
<path d="M134.081 20.8215H60.9946V140.961H134.081V20.8215Z" fill="url(#paint3_linear)"/>
<path fill-rule="evenodd" clip-rule="evenodd" d="M60.9946 63.6136V135.502C60.9946 138.495 63.4455 140.961 66.4206 140.961H128.655C131.63 140.961 134.081 138.495 134.081 135.502V63.6136H60.9946Z" fill="#A5DBFD"/>
<path fill-rule="evenodd" clip-rule="evenodd" d="M102.011 146.975H93.0628C90.7404 146.975 88.8397 148.887 88.8397 151.223C88.8397 153.56 90.7404 155.472 93.0628 155.472H102.011C104.333 155.472 106.234 153.56 106.234 151.223C106.234 148.885 104.335 146.975 102.011 146.975Z" fill="#E4F7FF"/>
<path fill-rule="evenodd" clip-rule="evenodd" d="M142.562 30.911C142.206 30.911 141.914 31.2043 141.914 31.5623V58.3209C141.914 58.6789 142.206 58.9722 142.562 58.9722C142.917 58.9722 143.209 58.6806 143.209 58.3209V31.5623C143.209 31.2026 142.917 30.911 142.562 30.911Z" fill="white"/>
<path fill-rule="evenodd" clip-rule="evenodd" d="M142.562 63.1142C142.206 63.1142 141.914 63.4075 141.914 63.7655V73.7118C141.914 74.0697 142.206 74.3631 142.562 74.3631C142.917 74.3631 143.209 74.0697 143.209 73.7118V63.7655C143.209 63.4075 142.917 63.1142 142.562 63.1142Z" fill="white"/>
<path fill-rule="evenodd" clip-rule="evenodd" d="M151.169 166.509H159.199C159.579 166.509 159.888 166.225 159.937 165.862C159.944 165.811 159.945 165.757 159.942 165.704L159.615 161.461C159.615 161.461 159.28 161.306 158.814 161.196C158.536 161.129 158.302 160.927 158.218 160.653C158.213 160.632 158.206 160.613 158.203 160.592C158.019 159.774 156.849 159.516 156.632 160.314C156.604 160.417 156.58 160.518 156.559 160.614C156.554 160.639 156.548 160.663 156.545 160.686C156.51 160.857 156.486 161.016 156.467 161.154L156.465 161.163C156.422 161.514 156.425 161.739 156.425 161.739C156.319 161.875 156.217 162.008 156.116 162.14C156.066 162.207 156.016 162.271 155.967 162.334C155.861 162.472 155.759 162.607 155.658 162.736C155.611 162.797 155.564 162.855 155.519 162.914C155.408 163.054 155.299 163.186 155.188 163.31C155.137 163.366 155.089 163.422 155.038 163.475C154.623 163.913 154.207 164.211 153.714 164.281C152.843 164.402 151.421 164.498 150.734 165.783C150.718 165.809 150.708 165.837 150.699 165.865C150.595 166.171 150.827 166.509 151.169 166.509Z" fill="#9D1F39"/>
<path d="M151.169 166.509H159.199C159.579 166.509 159.888 166.225 159.937 165.862H150.697C150.595 166.171 150.827 166.509 151.169 166.509Z" fill="#343851"/>
<path fill-rule="evenodd" clip-rule="evenodd" d="M168.805 133.129V138.101C168.805 143.612 167.838 155.714 167.487 162.402L163.811 162.331L160.794 138.209L155.109 139.028L154.946 132.433C155.203 109.629 166.909 114.911 165.895 127.814C165.784 129.234 169.344 131.572 168.805 133.129Z" fill="#000446"/>
<path fill-rule="evenodd" clip-rule="evenodd" d="M154.997 134.469H162.134L159.688 162.43L155.812 162.532L154.997 134.469Z" fill="#000446"/>
<path fill-rule="evenodd" clip-rule="evenodd" d="M162.526 166.111C162.592 167.29 166.746 166.883 167.409 166.53C167.666 166.394 167.773 166.13 167.793 165.811C167.826 165.303 167.636 164.651 167.473 164.142C167.208 163.312 167.244 163.326 167.06 162.759C167.06 162.759 167.107 161.837 165.746 161.484C164.385 161.131 163.887 163.429 163.655 163.871C163.443 164.276 162.615 164.83 162.53 165.827C162.523 165.919 162.521 166.013 162.526 166.111Z" fill="#9D1F39"/>
<path d="M162.526 166.111C162.592 167.29 166.746 166.883 167.409 166.53C167.666 166.394 167.773 166.13 167.793 165.811C167.357 166.033 166.586 166.307 165.439 166.326C164.029 166.349 163.014 166.095 162.53 165.827C162.523 165.919 162.521 166.013 162.526 166.111Z" fill="#343851"/>
<path fill-rule="evenodd" clip-rule="evenodd" d="M160.792 138.209L159.102 162.181L159.666 162.137L161.389 142.978L160.792 138.209Z" fill="black"/>
<path fill-rule="evenodd" clip-rule="evenodd" d="M159.322 118.267C158.062 121.053 156.498 124.243 152.888 124.782C149.959 125.221 145.676 119.677 145.254 118.774C144.834 117.869 146.432 115.507 146.95 115.781C147.465 116.055 151.709 119.35 152.096 119.326C152.549 119.296 154.094 114.352 156.897 112.725C157.336 112.472 159.864 117.07 159.322 118.267Z" fill="#F8BB3B"/>
<path fill-rule="evenodd" clip-rule="evenodd" d="M166.31 111.402C168.091 111.402 169.881 112.311 170.66 113.479C171.861 115.283 168.306 126.459 169.308 135.618C164.245 135.618 159.388 135.618 154.325 135.618C154.233 131.827 154.703 120.339 155.554 113.913C157.421 110.958 163.443 111.402 166.31 111.402Z" fill="#F4A400"/>
<path fill-rule="evenodd" clip-rule="evenodd" d="M160.671 111.536C158.465 112.735 157.956 121.94 157.349 135.623H162.95C163.191 122.186 165.354 113.696 166.19 111.401C164.392 111.281 162.873 111.19 160.671 111.536Z" fill="#F4A400"/>
<path fill-rule="evenodd" clip-rule="evenodd" d="M160.671 111.536C158.465 112.735 158.012 119.939 157.404 133.622H158.05C157.84 129.263 158.515 113.212 160.896 111.503C160.822 111.511 160.747 111.524 160.671 111.536Z" fill="#F4A400"/>
<path fill-rule="evenodd" clip-rule="evenodd" d="M159.568 109.404C160.133 110.085 160.784 110.635 161.452 110.783V111.517L161.322 111.693C160.846 112.526 161.105 114.201 161.893 114.607C163.127 114.162 164.795 113.064 165.13 111.522L164.909 111.318L164.609 111.106L164.462 109.28C164.555 109.252 165.149 108.698 165.34 108.588C165.529 108.477 165.737 108.01 165.661 107.588C165.585 107.165 164.974 107.452 164.974 107.452C165.503 106.198 166.182 105.117 164.816 104.42C163.45 103.723 160.697 103.776 160.697 103.776L158.99 103.594C159.319 104.095 159.263 105.763 159.121 106.999C158.996 108.108 158.812 108.491 159.568 109.404Z" fill="#F7CCCF"/>
<path fill-rule="evenodd" clip-rule="evenodd" d="M163.769 109.673C163.769 109.673 163.233 111.422 162.532 111.735C161.83 112.046 161.731 112.006 161.452 112.037V110.783C161.976 110.747 162.67 110.568 163.769 109.673Z" fill="#E98385"/>
<path fill-rule="evenodd" clip-rule="evenodd" d="M167.426 116.108C166.775 114.761 166.9 113.555 168.148 112.72C169.395 111.883 170.459 112.903 171.11 114.25C172.385 116.892 173.321 122.781 171.969 124.458C170.865 125.829 164.16 125.766 163.233 125.514C163.016 125.455 161.471 123.969 161.901 122.699C161.948 122.563 162.224 122.509 162.441 122.507C163.705 122.5 167.76 121.989 168.322 121.685C169.204 121.206 167.881 117.052 167.426 116.108Z" fill="#F8BB3B"/>
<path fill-rule="evenodd" clip-rule="evenodd" d="M162.377 122.811C162.88 123.113 163.306 123.782 163.533 124.456C163.788 125.216 163.889 125.596 163.038 125.324C162.443 125.133 161.676 124.877 161.676 124.877C161.042 124.152 160.83 123.22 160.995 122.622L162.377 122.811Z" fill="#FBCA0D"/>
<path fill-rule="evenodd" clip-rule="evenodd" d="M146.804 116.101C146.939 116.954 146.148 118.334 145.545 118.578C145.478 118.458 145.077 117.936 144.809 117.536C144.237 116.675 145.589 114.876 145.984 115.275L146.804 116.101Z" fill="#FBCA0D"/>
<path fill-rule="evenodd" clip-rule="evenodd" d="M145.21 114.749C145.125 114.356 144.771 112.804 144.483 112.544C144.335 112.411 144.301 112.47 144.237 112.556C144.179 112.629 144.131 112.832 144.146 112.968C144.181 113.256 144.202 113.518 144.245 113.673C143.376 113.216 142.541 112.14 141.905 111.405C141.647 111.106 141.235 111.138 141.484 111.672C141.687 112.109 142.492 113.087 142.492 113.087L141.393 112.374C141.09 112.208 141.09 112.585 141.235 112.744C141.475 113.005 142.207 113.699 142.207 113.699L141.407 113.406C141.1 113.294 141.261 113.673 141.341 113.74C141.529 113.893 142.194 114.319 142.194 114.319L141.826 114.197C141.409 114.059 141.714 114.597 141.834 114.635C141.86 114.644 143.298 115.559 143.547 115.711C144.172 116.088 144.469 116.712 144.912 117.234C145.151 117.049 145.755 116.343 145.84 115.474L145.21 114.749Z" fill="#F7CCCF"/>
<path fill-rule="evenodd" clip-rule="evenodd" d="M150.643 118.29H157.486L160.068 126.997H153.226L150.643 118.29Z" fill="#3C9B14"/>
<path fill-rule="evenodd" clip-rule="evenodd" d="M161.07 122.755L160.112 122.596L159.017 121.866C159.017 121.866 158.583 121.383 158.423 121.451C158.393 121.465 158.68 122.366 158.645 122.39C158.359 122.612 156.527 122.327 156.536 122.36C157.413 125.312 159.336 123.883 161.429 124.554C161.738 124.653 161.797 124.617 161.778 124.349C161.75 123.929 161.507 123.242 161.07 122.755Z" fill="#F7CCCF"/>
<path fill-rule="evenodd" clip-rule="evenodd" d="M152.405 118.044H153.171C153.169 118.039 153.169 118.032 153.169 118.026C153.169 117.915 153.4 117.824 153.683 117.824C153.967 117.824 154.196 117.915 154.196 118.026C154.196 118.032 154.196 118.039 154.195 118.044H155.096L155.285 118.683H152.645L152.405 118.044Z" fill="#092978"/>
<path fill-rule="evenodd" clip-rule="evenodd" d="M157.895 101.895C157.592 103.453 158.213 104.843 159.735 105.1C160.869 105.29 162.806 104.927 163.691 105.761C164.128 106.175 164.165 106.839 163.847 107.907C163.753 108.222 163.608 108.463 164.087 108.171C164.305 108.037 164.67 107.843 164.812 107.934C165.128 108.136 165.038 108.648 164.824 108.833C164.729 108.917 164.545 109.044 164.545 109.044C164.545 109.044 165.154 109.203 165.711 108.749C166.27 108.297 167.898 106.926 167.577 104.958C167.11 102.091 165.93 102.18 163.42 101.321C161.971 100.825 161.851 100.437 160.924 100.011C159.732 99.461 158.137 100.664 157.895 101.895Z" fill="black"/>
<path fill-rule="evenodd" clip-rule="evenodd" d="M71.2703 72.8492H123.413C125.914 72.8492 127.959 74.9079 127.959 77.4242V95.5793C127.959 98.0955 125.912 100.153 123.413 100.153H71.2703C68.7691 100.153 66.7244 98.0938 66.7244 95.5793V77.4224C66.7226 74.9079 68.7691 72.8492 71.2703 72.8492Z" fill="white"/>
<path fill-rule="evenodd" clip-rule="evenodd" d="M71.2703 105.924H123.413C125.914 105.924 127.959 107.982 127.959 110.497V128.652C127.959 131.168 125.912 133.227 123.413 133.227H71.2703C68.7691 133.227 66.7244 131.168 66.7244 128.652V110.497C66.7226 107.982 68.7691 105.924 71.2703 105.924Z" fill="white"/>
<path d="M71.8674 86.7873C71.89 81.7041 76.0055 77.6023 81.0583 77.625C86.1111 77.6477 90.1884 81.7879 90.1658 86.8711C90.1433 91.9542 86.0278 96.056 80.975 96.0333C75.9222 96.0106 71.8431 91.8704 71.8674 86.7873Z" fill="#E58927"/>
<path d="M71.3276 86.1307C71.3502 81.0475 75.4657 76.9457 80.5185 76.9684C85.5713 76.9911 89.6486 81.1313 89.626 86.2145C89.6034 91.2976 85.488 95.3994 80.4352 95.3767C75.3824 95.354 71.3051 91.2156 71.3276 86.1307Z" fill="#FFEF95"/>
<path d="M71.6157 86.4415C71.6383 81.3583 75.7538 77.2565 80.8066 77.2792C85.8594 77.3019 89.9367 81.4422 89.9142 86.5253C89.8916 91.6085 85.7761 95.7103 80.7233 95.6876C75.6705 95.6649 71.5932 91.5247 71.6157 86.4415Z" fill="#FBCA0D"/>
<path d="M71.6157 86.4415C71.6157 86.4153 71.6175 86.3891 71.6175 86.3611L89.9142 86.4449C89.9142 86.4711 89.9159 86.4973 89.9142 86.5253C89.8916 91.6084 85.7761 95.7102 80.7233 95.6875C75.6705 95.6648 71.5932 91.5246 71.6157 86.4415Z" fill="#FFD915"/>
<path d="M73.0009 86.4467C73.02 82.1319 76.5124 78.6517 80.8014 78.6709C85.0905 78.6902 88.5499 82.2035 88.5308 86.5183C88.5117 90.8332 85.0193 94.3133 80.7303 94.2941C76.4412 94.2749 72.9801 90.7616 73.0009 86.4467Z" fill="#FCA700"/>
<path d="M73.0009 86.4467C73.02 82.1319 76.5124 78.6517 80.8014 78.6709C85.0905 78.6902 88.5499 82.2035 88.5308 86.5183C88.5117 90.8332 85.0193 94.3133 80.7303 94.2941C76.4412 94.2749 72.9801 90.7616 73.0009 86.4467Z" stroke="#FCA700" stroke-width="0.216" stroke-miterlimit="10"/>
<path d="M84.8579 79.8339C86.401 81.6063 87.071 83.6039 87.0641 85.1528C87.0311 92.616 79.9665 94.2539 74.2021 90.6498C75.5716 92.8238 77.9808 94.2714 80.7285 94.2836C85.0176 94.3028 88.51 90.8209 88.529 86.5078C88.5429 83.693 87.0727 81.2186 84.8579 79.8339Z" fill="#EC830E"/>
<path d="M74.3583 87.1679C74.3757 83.3594 77.4584 80.2861 81.2441 80.3036C83.4572 80.3141 85.4186 81.3775 86.6648 83.0207C85.4897 80.9479 83.2784 79.5458 80.7372 79.5335C76.9515 79.5161 73.8688 82.5894 73.8514 86.3978C73.8445 87.9798 74.3687 89.4396 75.2539 90.6078C74.6777 89.5951 74.3513 88.4199 74.3583 87.1679Z" fill="#FFD915"/>
<path fill-rule="evenodd" clip-rule="evenodd" d="M80.305 83.0836L80.3154 82.1581L81.3447 82.1703L81.3343 83.0731C82.4834 83.2145 83.2298 83.7768 83.57 84.7547L81.888 85.2628C81.7214 84.8053 81.376 84.5731 80.85 84.5678C80.4091 84.5626 80.1852 84.704 80.1818 84.9904C80.18 85.0952 80.2182 85.1842 80.2928 85.2576C80.3657 85.3326 80.5723 85.4077 80.9108 85.4863C81.6832 85.6627 82.2352 85.8198 82.5702 85.9578C82.9034 86.0975 83.1812 86.328 83.3999 86.6528C83.6186 86.9776 83.7262 87.3565 83.721 87.7948C83.714 88.4077 83.4901 88.9193 83.0527 89.3297C82.6136 89.74 82.013 89.9827 81.251 90.0596L81.2406 90.9851L80.2113 90.9728L80.2217 90.0474C78.9337 89.878 78.1318 89.183 77.8142 87.9676L79.6905 87.6394C79.845 88.1929 80.246 88.4723 80.8934 88.4793C81.3985 88.4845 81.6537 88.3483 81.6572 88.0689C81.6589 87.9222 81.6016 87.8052 81.4836 87.7232C81.3673 87.6394 81.159 87.5643 80.8604 87.4997C79.6853 87.2465 78.9424 86.9322 78.6317 86.555C78.321 86.1778 78.1683 85.7465 78.1735 85.2645C78.1804 84.7302 78.3592 84.2587 78.7081 83.8466C79.0639 83.438 79.5933 83.1831 80.305 83.0836Z" fill="#FFD915"/>
<path fill-rule="evenodd" clip-rule="evenodd" d="M95.1701 79.0464H121.564C122.177 79.0464 122.677 79.551 122.677 80.1657C122.677 80.7821 122.175 81.285 121.564 81.285H95.1701C94.5573 81.285 94.0574 80.7804 94.0574 80.1657C94.0574 79.5493 94.5573 79.0464 95.1701 79.0464Z" fill="#90D4FF"/>
<path fill-rule="evenodd" clip-rule="evenodd" d="M95.1701 85.338H121.564C122.177 85.338 122.677 85.8408 122.677 86.4572C122.677 87.0736 122.175 87.5765 121.564 87.5765H95.1701C94.5573 87.5765 94.0574 87.0736 94.0574 86.4572C94.0574 85.8408 94.5573 85.338 95.1701 85.338Z" fill="#90D4FF"/>
<path fill-rule="evenodd" clip-rule="evenodd" d="M95.1701 91.6277H121.564C122.177 91.6277 122.677 92.1323 122.677 92.747C122.677 93.3616 122.175 93.8663 121.564 93.8663H95.1701C94.5573 93.8663 94.0574 93.3616 94.0574 92.747C94.0574 92.1323 94.5573 91.6277 95.1701 91.6277Z" fill="#90D4FF"/>
<path d="M71.8674 119.86C71.89 114.777 76.0055 110.673 81.0583 110.698C86.1111 110.72 90.1884 114.861 90.1658 119.944C90.1433 125.027 86.0278 129.129 80.975 129.106C75.9222 129.083 71.8431 124.945 71.8674 119.86Z" fill="#E58927"/>
<path d="M71.3276 119.205C71.3502 114.122 75.4657 110.02 80.5185 110.043C85.5713 110.066 89.6486 114.206 89.626 119.289C89.6034 124.372 85.488 128.474 80.4352 128.451C75.3824 128.429 71.3051 124.288 71.3276 119.205Z" fill="#FFEF95"/>
<path d="M71.6157 119.516C71.6383 114.433 75.7538 110.329 80.8066 110.354C85.8594 110.376 89.9367 114.517 89.9142 119.6C89.8916 124.683 85.7761 128.785 80.7233 128.762C75.6705 128.738 71.5932 124.599 71.6157 119.516Z" fill="#FBCA0D"/>
<path d="M71.6157 119.516C71.6157 119.49 71.6175 119.462 71.6175 119.436L89.9142 119.519C89.9142 119.546 89.9159 119.572 89.9142 119.6C89.8916 124.683 85.7761 128.785 80.7233 128.762C75.6705 128.738 71.5932 124.599 71.6157 119.516Z" fill="#FFD915"/>
<path d="M73.0009 119.521C73.02 115.206 76.5124 111.726 80.8014 111.745C85.0905 111.765 88.5499 115.278 88.5308 119.593C88.5117 123.908 85.0193 127.388 80.7303 127.369C76.4412 127.349 72.9801 123.836 73.0009 119.521Z" fill="#FCA700"/>
<path d="M73.0009 119.521C73.02 115.206 76.5124 111.726 80.8014 111.745C85.0905 111.765 88.5499 115.278 88.5308 119.593C88.5117 123.908 85.0193 127.388 80.7303 127.369C76.4412 127.349 72.9801 123.836 73.0009 119.521Z" stroke="#FCA700" stroke-width="0.216" stroke-miterlimit="10"/>
<path d="M84.8579 112.908C86.401 114.681 87.071 116.678 87.0641 118.227C87.0311 125.69 79.9665 127.328 74.2021 123.724C75.5716 125.898 77.9808 127.346 80.7285 127.358C85.0176 127.377 88.51 123.897 88.529 119.582C88.5429 116.767 87.0727 114.293 84.8579 112.908Z" fill="#EC830E"/>
<path d="M74.3583 120.242C74.3757 116.434 77.4584 113.361 81.2441 113.378C83.4572 113.389 85.4186 114.452 86.6648 116.095C85.4897 114.022 83.2784 112.62 80.7372 112.608C76.9515 112.591 73.8688 115.664 73.8514 119.472C73.8445 121.054 74.3687 122.514 75.2539 123.682C74.6777 122.67 74.3513 121.494 74.3583 120.242Z" fill="#FFD915"/>
<path fill-rule="evenodd" clip-rule="evenodd" d="M80.305 116.158L80.3154 115.233L81.3447 115.245L81.3343 116.148C82.4834 116.289 83.2298 116.851 83.57 117.829L81.888 118.337C81.7214 117.88 81.376 117.648 80.85 117.642C80.4091 117.637 80.1852 117.779 80.1818 118.065C80.18 118.17 80.2182 118.259 80.2928 118.332C80.3657 118.407 80.5723 118.482 80.9108 118.563C81.6832 118.739 82.2352 118.896 82.5702 119.034C82.9034 119.174 83.1812 119.404 83.3999 119.729C83.6186 120.052 83.7262 120.433 83.721 120.871C83.714 121.484 83.4901 121.996 83.0527 122.406C82.6136 122.816 82.013 123.059 81.251 123.136L81.2406 124.061L80.2113 124.049L80.2217 123.124C78.9337 122.954 78.1318 122.259 77.8142 121.044L79.6905 120.716C79.845 121.269 80.246 121.549 80.8934 121.556C81.3985 121.563 81.6537 121.425 81.6572 121.147C81.6589 121 81.6016 120.883 81.4836 120.801C81.3673 120.717 81.159 120.642 80.8604 120.578C79.6853 120.325 78.9424 120.01 78.6317 119.633C78.321 119.256 78.1683 118.825 78.1735 118.343C78.1804 117.808 78.3592 117.337 78.7081 116.925C79.0639 116.513 79.5933 116.258 80.305 116.158Z" fill="#FFD915"/>
<path fill-rule="evenodd" clip-rule="evenodd" d="M95.1701 112.121H121.564C122.177 112.121 122.677 112.625 122.677 113.24C122.677 113.857 122.175 114.359 121.564 114.359H95.1701C94.5573 114.359 94.0574 113.855 94.0574 113.24C94.0574 112.624 94.5573 112.121 95.1701 112.121Z" fill="#90D4FF"/>
<path fill-rule="evenodd" clip-rule="evenodd" d="M95.1701 118.411H121.564C122.177 118.411 122.677 118.915 122.677 119.53C122.677 120.146 122.175 120.649 121.564 120.649H95.1701C94.5573 120.649 94.0574 120.145 94.0574 119.53C94.0574 118.915 94.5573 118.411 95.1701 118.411Z" fill="#90D4FF"/>
<path fill-rule="evenodd" clip-rule="evenodd" d="M95.1701 124.702H121.564C122.177 124.702 122.677 125.207 122.677 125.821C122.677 126.438 122.175 126.941 121.564 126.941H95.1701C94.5573 126.941 94.0574 126.438 94.0574 125.821C94.0574 125.207 94.5573 124.702 95.1701 124.702Z" fill="#90D4FF"/>
<path fill-rule="evenodd" clip-rule="evenodd" d="M47.27 166.08H39.1362C38.7509 166.08 38.4384 165.792 38.3898 165.423C38.3829 165.371 38.3812 165.318 38.3846 165.264L38.7144 160.967C38.7144 160.967 39.0529 160.81 39.5268 160.698C39.808 160.632 40.0458 160.426 40.1308 160.148C40.136 160.127 40.1412 160.106 40.1464 160.085C40.3339 159.257 41.5194 158.996 41.7381 159.802C41.7659 159.907 41.7919 160.008 41.8128 160.106C41.818 160.131 41.8232 160.155 41.8284 160.178C41.8631 160.352 41.8891 160.511 41.9065 160.651L41.9082 160.66C41.9516 161.016 41.9482 161.245 41.9482 161.245C42.0558 161.383 42.1599 161.517 42.2606 161.65C42.3127 161.716 42.3613 161.782 42.4116 161.847C42.5192 161.987 42.6216 162.123 42.7241 162.254C42.7709 162.315 42.8178 162.374 42.8646 162.434C42.9775 162.575 43.0886 162.711 43.1997 162.835C43.25 162.893 43.3003 162.947 43.3507 163.001C43.7707 163.445 44.1925 163.749 44.6924 163.819C45.5742 163.941 47.0149 164.039 47.7109 165.339C47.7265 165.367 47.7369 165.395 47.7456 165.423C47.8515 165.738 47.6172 166.08 47.27 166.08Z" fill="#9D1F39"/>
<path fill-rule="evenodd" clip-rule="evenodd" d="M24.7363 132.267V137.303C24.7363 142.885 25.7153 155.145 26.0694 161.92L29.7944 161.847L32.851 137.413L38.0739 138.165L38.3308 131.497C38.3916 108.445 26.6544 113.813 27.6819 126.883C27.7965 128.32 24.1878 130.688 24.7363 132.267Z" fill="#000446"/>
<path fill-rule="evenodd" clip-rule="evenodd" d="M38.7388 132.651L29.8916 134.565L36.2723 149.14L38.6659 161.549L42.5922 161.65C42.4898 155.634 42.0159 149.584 41.7295 146.121C41.582 144.305 39.7872 137.881 38.7388 132.651Z" fill="#000446"/>
<path fill-rule="evenodd" clip-rule="evenodd" d="M34.7135 114.955C35.991 117.775 36.8242 118.671 40.4797 119.219C43.4444 119.663 49.0891 112.954 49.5161 112.039C49.9431 111.122 48.3219 108.73 47.7994 109.007C47.277 109.283 41.1931 113.961 40.7765 113.932C40.353 113.9 38.9193 113.242 35.6664 111.115C35.3575 110.916 33.8144 113.593 34.7135 114.955Z" fill="#76C5FB"/>
<path fill-rule="evenodd" clip-rule="evenodd" d="M22.8565 112.362C21.6397 114.188 25.3074 124.838 24.2902 134.116C29.9852 135.099 35.9736 134.388 39.374 133.299C39.367 126.279 38.7248 117.91 37.2789 112.668C36.9387 111.817 36.267 111.211 34.6024 110.743C30.5528 109.599 24.5245 109.86 22.8565 112.362Z" fill="#0097D6"/>
<path fill-rule="evenodd" clip-rule="evenodd" d="M33.3596 107.329C32.9587 108.131 32.2314 108.85 31.6048 109.152L31.6256 110.317L31.794 110.462C32.4536 111.173 31.8061 112.86 31.1222 113.444C30.0044 113.314 27.6281 111.117 28.1992 110.265L28.4474 109.987L28.503 108.339C28.404 108.333 27.6906 107.925 27.4789 107.858C27.2671 107.792 26.9547 107.382 26.9338 106.947C26.913 106.512 27.5813 106.654 27.5813 106.654C26.7724 105.54 25.8559 104.63 27.0432 103.627C28.2305 102.625 30.9591 102.04 30.9591 102.04L32.6011 101.467C32.3928 102.038 32.8285 103.669 33.2503 104.857C33.6287 105.92 33.8977 106.254 33.3596 107.329Z" fill="#F7CCCF"/>
<path fill-rule="evenodd" clip-rule="evenodd" d="M26.6821 113.249C26.6092 111.676 25.3369 110.998 24.0872 111.197C20.9506 112.002 20.843 121.547 21.6692 124.042C22.2473 125.729 31.2021 127.741 32.3407 127.384C32.818 127.234 33.62 126.742 33.8595 126.197C34.0001 125.876 34.1459 125.373 33.4551 125.065C31.6204 124.248 26.184 122.415 26.0798 121.912C25.205 117.726 26.7984 115.739 26.6821 113.249Z" fill="#76C5FB"/>
<path fill-rule="evenodd" clip-rule="evenodd" d="M47.947 109.331C47.8099 110.197 48.6118 111.592 49.2228 111.84C49.2905 111.718 49.6984 111.19 49.9691 110.783C50.5489 109.912 49.1794 108.089 48.7784 108.494L47.947 109.331Z" fill="#76C5FB"/>
<path fill-rule="evenodd" clip-rule="evenodd" d="M49.6115 108.028C49.6966 107.63 50.0559 106.058 50.3475 105.794C50.4968 105.66 50.5315 105.721 50.5974 105.807C50.6547 105.882 50.7051 106.084 50.6877 106.224C50.653 106.516 50.6304 106.781 50.587 106.938C51.4688 106.474 52.3124 105.386 52.9581 104.64C53.2202 104.338 53.6367 104.37 53.3851 104.911C53.1785 105.353 52.3644 106.343 52.3644 106.343L53.4771 105.622C53.786 105.454 53.7843 105.836 53.6367 105.995C53.3955 106.259 52.6508 106.963 52.6508 106.963L53.4614 106.666C53.7721 106.552 53.6107 106.936 53.5274 107.005C53.3365 107.16 52.663 107.591 52.663 107.591L53.0362 107.467C53.458 107.328 53.149 107.872 53.0275 107.911C53.0015 107.92 51.5452 108.847 51.2917 109C50.6582 109.383 50.3579 110.013 49.9101 110.544C49.6671 110.357 49.0561 109.641 48.9693 108.761L49.6115 108.028Z" fill="#F4B1B1"/>
<path fill-rule="evenodd" clip-rule="evenodd" d="M32.0231 103.565C30.9035 103.886 29.3761 103.799 28.5811 104.742C28.1871 105.208 28.227 105.882 28.6679 106.919C28.798 107.225 28.9716 107.45 28.4578 107.211C28.2218 107.101 27.833 106.947 27.701 107.055C27.406 107.296 27.5552 107.801 27.7896 107.963C27.8954 108.037 28.0933 108.145 28.0933 108.145C25.9722 108.436 24.0646 105.133 25.9479 102.196C28.0256 98.9564 33.8109 100.643 33.1114 103.042C33.0316 103.313 32.5508 103.413 32.0231 103.565Z" fill="#000446"/>
<path d="M34.4028 121.957C33.0957 114.162 38.3186 106.776 46.0671 105.463C53.8155 104.148 61.1561 109.402 62.4631 117.197C63.7701 124.992 58.5472 132.378 50.7988 133.692C43.0503 135.006 35.7098 129.752 34.4028 121.957Z" fill="#E58927"/>
<path d="M33.4047 121.098C32.0977 113.303 37.3206 105.917 45.069 104.604C52.8175 103.289 60.158 108.543 61.465 116.338C62.7721 124.133 57.5492 131.518 49.8007 132.832C42.0523 134.147 34.71 128.893 33.4047 121.098Z" fill="#FFEF95"/>
<path d="M33.929 121.496C32.6219 113.701 37.8448 106.317 45.5933 105.002C53.3417 103.687 60.6823 108.941 61.9893 116.736C63.2963 124.531 58.0734 131.916 50.325 133.231C42.5765 134.544 35.2343 129.291 33.929 121.496Z" fill="#FBCA0D"/>
<path d="M33.9289 121.496C33.922 121.456 33.9168 121.414 33.9099 121.374L61.9667 116.614C61.9736 116.654 61.9823 116.694 61.9892 116.736C63.2963 124.531 58.0734 131.916 50.3249 133.231C42.5765 134.544 35.2342 129.291 33.9289 121.496Z" fill="#FFD915"/>
<path d="M36.0517 121.135C34.9426 114.518 39.3757 108.251 45.9508 107.136C52.5276 106.02 58.7572 110.479 59.8664 117.094C60.9755 123.71 56.5424 129.977 49.9673 131.093C43.3905 132.211 37.1609 127.751 36.0517 121.135Z" fill="#FCA700"/>
<path d="M36.0517 121.135C34.9426 114.518 39.3757 108.251 45.9508 107.136C52.5276 106.02 58.7572 110.479 59.8664 117.094C60.9755 123.71 56.5424 129.977 49.9673 131.093C43.3905 132.211 37.1609 127.751 36.0517 121.135Z" stroke="#FCA700" stroke-width="0.216" stroke-miterlimit="10"/>
<path d="M52.4755 107.834C55.3083 110.137 56.8618 113.02 57.261 115.395C59.179 126.839 48.787 131.236 39.0043 127.255C41.6773 130.22 45.7494 131.795 49.9639 131.079C56.5407 129.963 60.9721 123.696 59.8629 117.08C59.1409 112.763 56.2335 109.365 52.4755 107.834Z" fill="#EC830E"/>
<path d="M38.3204 121.877C37.3415 116.038 41.2539 110.504 47.06 109.519C50.4534 108.943 53.7409 110.05 56.0842 112.234C53.7375 109.372 49.9778 107.815 46.081 108.477C40.2766 109.461 36.3642 114.993 37.3415 120.834C37.7476 123.262 38.9366 125.359 40.6012 126.911C39.4521 125.511 38.6433 123.796 38.3204 121.877Z" fill="#FFD915"/>
<path fill-rule="evenodd" clip-rule="evenodd" d="M46.291 114.52L46.0723 113.151L47.5946 112.903L47.8081 114.239C49.5421 114.153 50.7849 114.789 51.5365 116.144L49.1828 117.326C48.8218 116.694 48.2507 116.441 47.4748 116.567C46.8222 116.673 46.5288 116.937 46.5965 117.361C46.6208 117.517 46.6989 117.637 46.8274 117.728C46.9558 117.819 47.2769 117.878 47.7977 117.908C48.9814 117.969 49.8389 118.06 50.3666 118.177C50.896 118.297 51.3629 118.566 51.7673 118.989C52.1735 119.411 52.4269 119.944 52.5311 120.592C52.6769 121.498 52.4773 122.312 51.9357 123.029C51.3924 123.747 50.5679 124.26 49.4622 124.571L49.6827 125.94L48.1604 126.188L47.9417 124.819C45.9994 124.901 44.6386 124.082 43.8592 122.369L46.5462 121.402C46.9142 122.177 47.5772 122.488 48.5354 122.333C49.2835 122.21 49.6254 121.945 49.5594 121.531C49.5247 121.313 49.4102 121.156 49.2158 121.065C49.0231 120.971 48.6968 120.915 48.2385 120.895C46.4403 120.826 45.2634 120.551 44.708 120.075C44.1526 119.6 43.8193 119.001 43.7047 118.287C43.578 117.496 43.7221 116.753 44.1335 116.057C44.5483 115.364 45.2669 114.85 46.291 114.52Z" fill="#FFD915"/>
<path fill-rule="evenodd" clip-rule="evenodd" d="M33.3474 125.31L34.132 125.567L35.8869 125.257C36.083 125.168 37.3588 124.87 37.0186 125.292C36.7808 125.589 36.0466 126.08 36.0639 126.113C36.2982 126.543 38.6745 127.189 38.6988 127.227C39.0286 127.772 37.4959 127.451 37.2338 127.409C37.1644 127.398 38.2388 127.866 38.1902 127.912C38.1312 127.966 37.9802 128.116 37.692 128.062C37.338 127.995 36.753 127.784 36.6818 127.835C36.6089 127.887 37.6539 128.334 37.5827 128.38C37.5272 128.415 37.4161 128.488 37.1956 128.439C36.8311 128.36 36.3017 128.13 36.2114 128.165C36.1195 128.201 36.8867 128.477 36.7999 128.504C36.7322 128.525 36.7148 128.648 36.6454 128.638C34.8107 128.394 34.8402 127.445 32.7313 127.224C31.5596 127.1 32.9448 125.493 33.3474 125.31Z" fill="#F7CCCF"/>
<path d="M78.736 44.908C78.7827 45.0293 78.806 45.1413 78.806 45.244C78.806 45.4867 78.7267 45.6873 78.568 45.846C78.4093 45.9953 78.2273 46.07 78.022 46.07C77.854 46.07 77.7 46.0187 77.56 45.916C77.4293 45.8133 77.3267 45.6733 77.252 45.496L76.524 43.802H72.352L71.624 45.51C71.5587 45.6873 71.456 45.8273 71.316 45.93C71.1853 46.0233 71.0407 46.07 70.882 46.07C70.6393 46.07 70.4527 46.0047 70.322 45.874C70.2007 45.7433 70.14 45.566 70.14 45.342C70.14 45.258 70.154 45.1693 70.182 45.076L73.668 36.704C73.7427 36.5173 73.8547 36.3727 74.004 36.27C74.1533 36.1673 74.3213 36.1253 74.508 36.144C74.676 36.144 74.83 36.1953 74.97 36.298C75.1193 36.3913 75.2267 36.5267 75.292 36.704L78.736 44.908ZM75.838 42.192L74.424 38.916L73.038 42.192H75.838ZM88.4894 36.186C88.7227 36.186 88.9234 36.27 89.0914 36.438C89.2687 36.5967 89.3574 36.7973 89.3574 37.04V45.146C89.3574 45.3887 89.2781 45.594 89.1194 45.762C88.9607 45.9207 88.7507 46 88.4894 46C88.2281 46 88.0134 45.9207 87.8454 45.762C87.6867 45.6033 87.6074 45.398 87.6074 45.146V39.504L85.2974 43.032C85.2041 43.144 85.0967 43.2373 84.9754 43.312C84.8541 43.3773 84.7281 43.4053 84.5974 43.396C84.4761 43.4053 84.3547 43.3773 84.2334 43.312C84.1121 43.2373 84.0047 43.144 83.9114 43.032L81.6014 39.378V45.146C81.6014 45.398 81.5267 45.6033 81.3774 45.762C81.2281 45.9207 81.0321 46 80.7894 46C80.5561 46 80.3647 45.9207 80.2154 45.762C80.0661 45.594 79.9914 45.3887 79.9914 45.146V37.04C79.9914 36.8067 80.0754 36.606 80.2434 36.438C80.4207 36.27 80.6307 36.186 80.8734 36.186C81.0134 36.186 81.1534 36.2233 81.2934 36.298C81.4334 36.3633 81.5407 36.452 81.6154 36.564L84.6674 41.254L87.8034 36.564C87.8781 36.452 87.9761 36.3633 88.0974 36.298C88.2281 36.2233 88.3587 36.186 88.4894 36.186ZM100.478 41.1C100.478 42.024 100.273 42.8733 99.8621 43.648C99.4514 44.4133 98.8821 45.02 98.1541 45.468C97.4354 45.916 96.6234 46.14 95.7181 46.14C94.8128 46.14 93.9961 45.916 93.2681 45.468C92.5494 45.02 91.9848 44.4133 91.5741 43.648C91.1728 42.8733 90.9721 42.024 90.9721 41.1C90.9721 40.176 91.1728 39.3313 91.5741 38.566C91.9848 37.7913 92.5494 37.18 93.2681 36.732C93.9961 36.284 94.8128 36.06 95.7181 36.06C96.6234 36.06 97.4354 36.284 98.1541 36.732C98.8821 37.18 99.4514 37.7913 99.8621 38.566C100.273 39.3313 100.478 40.176 100.478 41.1ZM98.6581 41.1C98.6581 40.4747 98.5321 39.91 98.2801 39.406C98.0281 38.8927 97.6781 38.4867 97.2301 38.188C96.7821 37.8893 96.2781 37.74 95.7181 37.74C95.1488 37.74 94.6401 37.8893 94.1921 38.188C93.7534 38.4773 93.4081 38.8787 93.1561 39.392C92.9134 39.9053 92.7921 40.4747 92.7921 41.1C92.7921 41.7253 92.9134 42.2947 93.1561 42.808C93.4081 43.3213 93.7534 43.7273 94.1921 44.026C94.6401 44.3153 95.1488 44.46 95.7181 44.46C96.2781 44.46 96.7821 44.3107 97.2301 44.012C97.6781 43.7133 98.0281 43.312 98.2801 42.808C98.5321 42.2947 98.6581 41.7253 98.6581 41.1ZM106.131 36.2C106.607 36.2 107.06 36.3447 107.489 36.634C107.918 36.914 108.264 37.2967 108.525 37.782C108.786 38.258 108.917 38.7807 108.917 39.35C108.917 39.91 108.786 40.4327 108.525 40.918C108.264 41.4033 107.918 41.7907 107.489 42.08C107.06 42.36 106.607 42.5 106.131 42.5H103.695V45.146C103.695 45.398 103.62 45.6033 103.471 45.762C103.322 45.9207 103.126 46 102.883 46C102.65 46 102.458 45.9207 102.309 45.762C102.16 45.594 102.085 45.3887 102.085 45.146V37.054C102.085 36.8113 102.164 36.6107 102.323 36.452C102.491 36.284 102.696 36.2 102.939 36.2H106.131ZM106.131 40.904C106.308 40.904 106.481 40.8293 106.649 40.68C106.826 40.5307 106.966 40.3393 107.069 40.106C107.181 39.8633 107.237 39.6113 107.237 39.35C107.237 39.0887 107.181 38.8413 107.069 38.608C106.966 38.3653 106.826 38.174 106.649 38.034C106.481 37.8847 106.308 37.81 106.131 37.81H103.695V40.904H106.131ZM117.646 44.908C117.693 45.0293 117.716 45.1413 117.716 45.244C117.716 45.4867 117.637 45.6873 117.478 45.846C117.319 45.9953 117.137 46.07 116.932 46.07C116.764 46.07 116.61 46.0187 116.47 45.916C116.339 45.8133 116.237 45.6733 116.162 45.496L115.434 43.802H111.262L110.534 45.51C110.469 45.6873 110.366 45.8273 110.226 45.93C110.095 46.0233 109.951 46.07 109.792 46.07C109.549 46.07 109.363 46.0047 109.232 45.874C109.111 45.7433 109.05 45.566 109.05 45.342C109.05 45.258 109.064 45.1693 109.092 45.076L112.578 36.704C112.653 36.5173 112.765 36.3727 112.914 36.27C113.063 36.1673 113.231 36.1253 113.418 36.144C113.586 36.144 113.74 36.1953 113.88 36.298C114.029 36.3913 114.137 36.5267 114.202 36.704L117.646 44.908ZM114.748 42.192L113.334 38.916L111.948 42.192H114.748ZM125.384 37.026C125.384 37.2127 125.333 37.3853 125.23 37.544L122.304 41.73V45.146C122.304 45.3887 122.225 45.594 122.066 45.762C121.907 45.9207 121.716 46 121.492 46C121.259 46 121.058 45.9207 120.89 45.762C120.731 45.594 120.652 45.3887 120.652 45.146V41.534L117.74 37.67C117.572 37.446 117.488 37.2267 117.488 37.012C117.488 36.7693 117.581 36.5687 117.768 36.41C117.964 36.242 118.169 36.158 118.384 36.158C118.645 36.158 118.874 36.2887 119.07 36.55L121.534 39.952L123.844 36.578C124.04 36.298 124.273 36.158 124.544 36.158C124.768 36.158 124.964 36.242 125.132 36.41C125.3 36.578 125.384 36.7833 125.384 37.026Z" fill="url(#paint4_linear)"/>
</g>
<defs>
<linearGradient id="paint0_linear" x1="169.138" y1="161.467" x2="169.134" y2="93.7247" gradientUnits="userSpaceOnUse">
<stop stop-color="#0048FF"/>
<stop offset="0.2376" stop-color="#135FFF"/>
<stop offset="0.7335" stop-color="#449AFF"/>
<stop offset="1" stop-color="#61BCFF"/>
</linearGradient>
<linearGradient id="paint1_linear" x1="187.729" y1="132.173" x2="187.729" y2="120.837" gradientUnits="userSpaceOnUse">
<stop stop-color="#57AAFF"/>
<stop offset="1" stop-color="#E8F4FB"/>
</linearGradient>
<linearGradient id="paint2_linear" x1="97.5378" y1="67.7204" x2="97.5345" y2="275.908" gradientUnits="userSpaceOnUse">
<stop stop-color="#0048FF"/>
<stop offset="0.1305" stop-color="#0242E7"/>
<stop offset="0.4122" stop-color="#0537B7"/>
<stop offset="0.6611" stop-color="#073095"/>
<stop offset="0.8656" stop-color="#082B80"/>
<stop offset="1" stop-color="#092978"/>
</linearGradient>
<linearGradient id="paint3_linear" x1="97.5376" y1="130.798" x2="97.5376" y2="20.8203" gradientUnits="userSpaceOnUse">
<stop stop-color="#54D0FF"/>
<stop offset="0.2603" stop-color="#90E0FF"/>
<stop offset="0.5013" stop-color="#C0EEFF"/>
<stop offset="0.7126" stop-color="#E2F7FF"/>
<stop offset="0.886" stop-color="#F7FDFF"/>
<stop offset="1" stop-color="white"/>
</linearGradient>
<linearGradient id="paint4_linear" x1="98" y1="32" x2="98" y2="50" gradientUnits="userSpaceOnUse">
<stop stop-color="#EA7A6E"/>
<stop offset="1" stop-color="#E23A28"/>
</linearGradient>
<clipPath id="clip0">
<rect width="250" height="170" fill="white"/>
</clipPath>
</defs>
</svg>
