<svg width="40" height="40" viewBox="0 0 40 40" fill="none" xmlns="http://www.w3.org/2000/svg">
<path d="M40 20C40 31.0458 31.0458 40 20 40C8.95416 40 0 31.0458 0 20C0 8.95416 8.95416 0 20 0C31.0458 0 40 8.95416 40 20Z" fill="#00B1FF"/>
<path d="M3.9668 31.9578C7.61365 36.8397 13.4376 40.0001 19.9998 40.0001C26.562 40.0001 32.386 36.8397 36.0328 31.9578H3.9668Z" fill="#0693F4"/>
<path d="M25.9456 31.9578H3.9668C7.61365 36.8397 13.4376 40.0001 19.9998 40.0001C21.3954 40.0001 22.7577 39.8566 24.0727 39.5844C20.652 37.9627 21.3676 31.9578 25.9456 31.9578Z" fill="#0780E2"/>
<path d="M30.244 18.1881C29.6535 17.0162 28.5854 16.1251 27.2911 15.7137C27.2856 15.7119 27.2802 15.7101 27.2747 15.7086C26.0469 15.3192 24.7173 15.3192 23.4893 15.7086C23.4838 15.7101 23.4783 15.7119 23.4728 15.7137C22.1785 16.1251 21.1104 17.0162 20.5199 18.1881C18.8753 21.4514 18.0828 25.6045 18.3974 30.3106C18.7694 35.873 25.382 35.6921 25.382 35.6921C25.382 35.6921 31.9948 35.873 32.3668 30.3106C32.6815 25.6045 31.8889 21.4514 30.244 18.1881Z" fill="#F0F0F0"/>
<path d="M22.6823 30.3107C22.4635 25.6046 23.014 21.4514 24.1566 18.1882C24.5671 17.0163 25.3089 16.1252 26.208 15.7138C26.212 15.712 26.2156 15.7102 26.2196 15.7083C26.3621 15.6436 26.5065 15.5905 26.652 15.5472C25.6056 15.3311 24.5118 15.3842 23.4889 15.7083C23.4834 15.7102 23.4779 15.712 23.4724 15.7138C22.1781 16.1252 21.11 17.0163 20.5195 18.1882C18.8749 21.4514 18.0821 25.6046 18.397 30.3107C18.6909 34.7058 23.1694 36.073 26.652 35.6049C25.3041 35.344 22.8684 34.3176 22.6823 30.3107Z" fill="#EAE1DC"/>
<path d="M29.1378 26.7808C27.286 26.7808 27.499 25.7102 25.3817 25.7102C23.2644 25.7102 23.4774 26.7808 21.6259 26.7808C20.3344 26.7808 19.128 25.7398 18.5158 25.1096C18.3202 26.7475 18.2754 28.4873 18.3971 30.3107C18.7691 35.8732 25.382 35.6922 25.382 35.6922C25.382 35.6922 31.9945 35.8732 32.3665 30.3107C32.4886 28.4873 32.4434 26.7475 32.2478 25.1096C31.6353 25.7398 30.4293 26.7808 29.1378 26.7808Z" fill="#ED5555"/>
<path d="M25.382 35.6922C25.7552 35.6925 26.1507 35.6718 26.6525 35.6049C25.3045 35.344 22.8689 34.3177 22.6827 30.3107C22.6235 29.0385 22.6211 27.8071 22.6708 26.6221C22.402 26.7176 22.0748 26.7808 21.6259 26.7808C20.3344 26.7808 19.1283 25.7398 18.5162 25.1096V25.1099C18.4673 25.5179 18.428 25.9321 18.3981 26.3526C18.3981 26.3547 18.3978 26.3572 18.3978 26.3593C18.3062 27.6557 18.2552 30.2622 18.5928 31.5119C19.7622 35.8454 25.3741 35.6882 25.382 35.6922Z" fill="#DB4848"/>
<path d="M27.5662 21.8738C27.5662 23.0801 26.5881 24.0582 25.3817 24.0582C24.1754 24.0582 23.1973 23.0801 23.1973 21.8738C23.1973 20.6671 24.1754 19.6893 25.3817 19.6893C26.5881 19.6893 27.5662 20.6671 27.5662 21.8738Z" fill="#194189"/>
<path d="M14.2915 34.0772V14.2869C14.2595 14.2899 14.2271 14.2921 14.1945 14.2921H12.0448C12.0121 14.2921 11.9798 14.2899 11.9478 14.2869V34.0772H14.2915Z" fill="#F0F0F0"/>
<path d="M13.1196 29.895C12.4724 29.895 11.9478 29.3704 11.9478 28.7234V34.0771H14.2915V28.7234C14.2915 29.3704 13.7666 29.895 13.1196 29.895Z" fill="#EAE1DC"/>
<path d="M14.1827 33.5614H12.0562C11.4831 33.5614 11.0146 34.0302 11.0146 34.603V37.1918H15.2242V34.603C15.2242 34.0302 14.7555 33.5614 14.1827 33.5614Z" fill="#EAE1DC"/>
<path d="M14.1613 33.5614H12.0562C11.4834 33.5614 11.0146 34.0302 11.0146 34.603V37.1918H13.1198V34.603C13.1198 34.0302 13.5885 33.5614 14.1613 33.5614Z" fill="#D6CEC9"/>
<path d="M14.4926 0.768433C12.9023 2.75177 11.9478 5.27405 11.9478 8.01422V13.2117H14.2915V8.01422C14.2915 4.60632 16.1384 1.62079 18.8722 0.0323486C17.3616 0.116272 15.8955 0.367432 14.4926 0.768433Z" fill="#3169AD"/>
<path d="M34.7135 6.45477C33.7031 5.35797 32.5718 4.37469 31.3404 3.52539C32.0713 4.85077 32.4604 6.34644 32.4604 7.90283C32.4604 10.8762 31.0007 13.1454 28.556 14.8459C25.8347 16.7386 24.21 19.8285 24.21 23.111V23.7167C24.5487 23.9325 24.9503 24.0579 25.3815 24.0579C25.813 24.0579 26.2147 23.9325 26.5534 23.7167V23.111C26.5534 20.5951 27.8022 18.2248 29.8942 16.77C32.9685 14.6317 34.8038 11.6428 34.8038 7.90283C34.8038 7.41486 34.7733 6.93146 34.7135 6.45477Z" fill="#3169AD"/>
<path d="M19.8888 39.349H6.35059V38.1173C6.35059 37.4624 6.88159 36.9314 7.5365 36.9314H18.6818C19.3483 36.9314 19.8885 37.4716 19.8885 38.1381V39.349H19.8888Z" fill="#D6CEC9"/>
<path d="M12.9467 36.9314H7.5365C6.88159 36.9314 6.35059 37.4624 6.35059 38.1173V39.349H11.7607V38.1173C11.7607 37.4624 12.2917 36.9314 12.9467 36.9314Z" fill="#C4BEBB"/>
<path d="M20.3917 40H5.84674C5.48724 40 5.1958 39.7086 5.1958 39.3491C5.1958 38.9893 5.48724 38.6981 5.84674 38.6981H20.3917C20.7512 38.6981 21.043 38.9893 21.043 39.3491C21.043 39.7086 20.7512 40 20.3917 40Z" fill="#EAE1DC"/>
<path d="M11.0143 39.3491C11.0143 38.9893 11.306 38.6981 11.6655 38.6981H5.84674C5.48724 38.6981 5.1958 38.9893 5.1958 39.3491C5.1958 39.7086 5.48724 40 5.84674 40H11.6655C11.306 40 11.0143 39.7086 11.0143 39.3491Z" fill="#D6CEC9"/>
<path d="M25.6539 28.8733H25.1094C24.7499 28.8733 24.4585 28.5818 24.4585 28.2224C24.4585 27.8629 24.7499 27.5714 25.1094 27.5714H25.6539C26.0134 27.5714 26.3048 27.8629 26.3048 28.2224C26.3048 28.5818 26.0134 28.8733 25.6539 28.8733Z" fill="#DB4848"/>
<path d="M18.3347 27.7952C18.32 28.614 18.3402 29.4529 18.3975 30.3107C18.7696 35.8732 25.3821 35.6922 25.3821 35.6922C25.3821 35.6922 31.9946 35.8732 32.3667 30.3107C32.424 29.4529 32.4442 28.614 32.4295 27.7952C29.1562 31.1964 21.611 31.1994 18.3347 27.7952Z" fill="#DB4848"/>
<path d="M18.5921 31.5121C19.4744 34.7809 23.2607 36.0556 26.6518 35.6049C25.3038 35.3439 22.8682 34.3173 22.6821 30.3104C22.6778 30.2225 22.6747 30.1352 22.6711 30.0476C21.2624 29.7302 19.5799 29.0891 18.3351 27.796C18.2833 30.7437 18.6128 31.5887 18.5921 31.5121Z" fill="#D12F2F"/>
<path d="M27.7776 33.0405H22.986C22.4544 33.0405 22.0195 33.4754 22.0195 34.007V35.0837C24.1286 35.8933 26.6329 35.8942 28.7438 35.0837V34.007C28.7438 33.4754 28.3089 33.0405 27.7776 33.0405Z" fill="#D12F2F"/>
<path d="M27.7777 33.0405H25.7178C26.0623 33.1888 26.3049 33.5319 26.3049 33.9289V35.6458C26.9431 35.5817 27.8372 35.4319 28.7439 35.0837V34.007C28.7439 33.4754 28.309 33.0405 27.7777 33.0405Z" fill="#BA2B2B"/>
<path d="M32.9985 35.6928C32.4193 35.6928 31.9453 35.2189 31.9453 34.6396V29.2756C31.9453 28.6964 32.4193 28.2224 32.9985 28.2224C33.5777 28.2224 34.0516 28.6964 34.0516 29.2756V34.6396C34.0516 35.2189 33.578 35.6928 32.9985 35.6928Z" fill="#25569E"/>
<path d="M17.7651 35.6928C17.1859 35.6928 16.7119 35.2189 16.7119 34.6396V29.2756C16.7119 28.6964 17.1859 28.2224 17.7651 28.2224C18.3443 28.2224 18.8182 28.6964 18.8182 29.2756V34.6396C18.8182 35.2189 18.3443 35.6928 17.7651 35.6928Z" fill="#25569E"/>
<path d="M32.9985 32.4584C32.4193 32.4584 31.9453 31.9845 31.9453 31.4053V34.6395C31.9453 35.2188 32.4193 35.6927 32.9985 35.6927C33.5777 35.6927 34.0516 35.2188 34.0516 34.6395V31.4053C34.0516 31.9845 33.578 32.4584 32.9985 32.4584Z" fill="#194189"/>
<path d="M17.7651 32.4584C17.1859 32.4584 16.7119 31.9845 16.7119 31.4053V34.6395C16.7119 35.2188 17.1859 35.6927 17.7651 35.6927C18.3443 35.6927 18.8182 35.2188 18.8182 34.6395V31.4053C18.8182 31.9845 18.3443 32.4584 17.7651 32.4584Z" fill="#194189"/>
<path d="M30.8283 12.7332C30.2195 13.5187 29.4547 14.2209 28.556 14.8462C25.8347 16.7389 24.21 19.8285 24.21 23.111V23.717C24.5487 23.9328 24.9503 24.0582 25.3815 24.0582C25.813 24.0582 26.2147 23.9328 26.5534 23.7167V23.111C26.5534 20.5954 27.8022 18.2248 29.8942 16.77C30.9788 16.0156 31.9083 15.155 32.6581 14.1934C31.6981 14.5685 30.6745 13.7723 30.8283 12.7332Z" fill="#25569E"/>
<path d="M14.6299 4.05243C13.882 4.05243 13.2759 3.44635 13.2759 2.69836C13.2759 2.6712 13.2783 2.64465 13.2798 2.6178C12.4302 4.22974 11.9478 6.06689 11.9478 8.01422V13.2117H14.2912V8.01422C14.2912 6.53625 14.6391 5.13824 15.2556 3.89862C15.0682 3.99658 14.8558 4.05243 14.6299 4.05243Z" fill="#25569E"/>
<path d="M15.2477 13.8309C15.2477 13.2516 14.7737 12.7777 14.1945 12.7777H12.0449C11.4656 12.7777 10.9917 13.2516 10.9917 13.8309C10.9917 14.4101 11.4656 14.884 12.0449 14.884H14.1945C14.7737 14.884 15.2477 14.4101 15.2477 13.8309Z" fill="#194189"/>
<path d="M13.1197 13.8309C13.1197 13.2516 13.5933 12.7777 14.1729 12.7777H12.0449C11.4656 12.7777 10.9917 13.2516 10.9917 13.8309C10.9917 14.4101 11.4656 14.884 12.0449 14.884H14.1729C13.5936 14.884 13.1197 14.4101 13.1197 13.8309Z" fill="#0E2766"/>
</svg>
