<svg width="40" height="40" viewBox="0 0 40 40" fill="none" xmlns="http://www.w3.org/2000/svg">
<path d="M40 20C40 25.1902 38.0229 29.92 34.7796 33.4743C31.1224 37.4841 25.8547 40 20 40C17.7241 40 15.5371 39.6204 13.4996 38.92C13.4923 38.9176 13.4841 38.9151 13.4767 38.9119C6.28977 36.4334 0.958359 29.9739 0.116719 22.169C0.0392187 21.4563 0 20.733 0 20C0 17.9029 0.323281 15.8808 0.921641 13.9813C1.38453 12.5127 2.01227 11.1176 2.78289 9.81797C3.67102 8.32 4.74859 6.94773 5.98367 5.73391C8.02531 3.72734 10.4955 2.15594 13.2441 1.16984C15.3543 0.412266 17.6286 0 20 0C20.671 0 21.3339 0.0326562 21.987 0.0979687C23.3045 0.227734 24.5845 0.484922 25.8139 0.85875C27.3119 1.31266 28.7347 1.93711 30.0596 2.71102C32.7943 4.30445 35.1159 6.52977 36.8262 9.18531C36.9364 9.35594 37.0441 9.52898 37.1486 9.70289C38.7862 12.4237 39.7943 15.5673 39.9715 18.9298C39.9902 19.2841 40 19.6408 40 20Z" fill="#5C5E70"/>
<path d="M23.1836 38.0629L13.4767 38.9119C6.28974 36.4334 0.958339 29.9739 0.116699 22.169L2.12646 16.538L14.0408 13.2466C12.8636 13.6858 26.6938 22.6605 26.6938 22.6605C26.6938 22.6605 23.5934 39.3029 23.1836 38.0629Z" fill="#4BC999"/>
<path d="M36.4514 28.7902L34.7796 33.4743C31.1225 37.4841 25.8547 40 20 40C17.7241 40 15.5371 39.6204 13.4996 38.92L15.2849 33.9176C15.7242 35.0947 16.6596 36.0776 17.9356 36.5331C17.9511 36.5388 17.9658 36.5437 17.9813 36.5487C17.9829 36.5494 17.9853 36.5503 17.987 36.5511C20.3241 37.3535 22.8841 36.0784 23.6303 33.6891C24.3013 31.5405 23.2196 29.1993 21.147 28.3201C21.076 28.2898 21.005 28.2621 20.9331 28.236C19.6482 27.7658 18.289 27.9316 17.1943 28.5699L19.3004 22.6687C19.3004 22.6687 21.0331 18.958 21.4788 17.6454C21.4796 17.643 30.3959 12.9731 32.5714 13.6548C34.9747 14.4081 36.4514 28.7902 36.4514 28.7902Z" fill="#34ABE0"/>
<path d="M39.9714 18.9298L36.4514 28.7902L30.5493 26.6832C31.7265 26.2448 32.7093 25.3093 33.1649 24.0334C33.169 24.022 33.1731 24.0098 33.1772 23.9984C33.1772 23.9976 33.1779 23.9967 33.1779 23.9959C33.9902 21.6547 32.715 19.0866 30.3216 18.3388C28.173 17.667 25.831 18.7486 24.9526 20.8213C24.9249 20.8873 24.8987 20.9527 24.8743 21.0196C24.8718 21.0245 24.8702 21.0294 24.8686 21.0352C24.3983 22.3201 24.5641 23.6809 25.2025 24.7748L19.3004 22.6687L21.4515 16.6434C20.3551 17.3405 18.9641 17.5478 17.6449 17.0923C17.5706 17.067 17.4963 17.0393 17.422 17.0091C15.3093 16.1527 14.191 13.783 14.8734 11.6074C15.6253 9.20907 18.2057 7.93555 20.551 8.76336C20.5616 8.76664 20.5722 8.77071 20.582 8.77399C21.9069 9.25235 22.862 10.2997 23.2718 11.5421L25.4228 5.5168L37.1485 9.70289C38.7861 12.4237 39.7943 15.5673 39.9714 18.9298Z" fill="#FFD15C"/>
<path d="M13.6186 24.5385C14.1798 23.1543 13.9889 21.6677 13.2532 20.5096L19.2779 22.6601L21.3846 16.7582C20.2295 17.4322 18.7783 17.5795 17.4313 17.0083C15.3587 16.1295 14.277 13.7877 14.9483 11.6389C15.7 9.23289 18.2921 7.95641 20.6431 8.79555C21.9189 9.25094 22.8543 10.2338 23.2934 11.4109L25.4001 5.50907L10.3282 0.129145C9.1798 -0.280699 7.9166 0.317895 7.50667 1.46618L2.12683 16.5381L8.15152 18.6885C6.90472 19.1006 5.85363 20.0614 5.37808 21.3939C4.53941 23.7435 5.81394 26.3339 8.2173 27.0873C10.3925 27.7693 12.7622 26.6511 13.6186 24.5385Z" fill="#FF525D"/>
</svg>
