<svg width="40" height="40" viewBox="0 0 40 40" fill="none" xmlns="http://www.w3.org/2000/svg">
<g clip-path="url(#clip0)">
<path d="M36.9728 26.9682C37.8173 24.8088 38.2814 22.4586 38.2814 20C38.2814 9.42891 29.7118 0.859375 19.1407 0.859375C11.4166 0.859375 4.76191 5.43523 1.7373 12.0236L1.82754 26.9682H36.9728Z" fill="#319DF5"/>
<path d="M1.82733 26.9682L1.83468 28.1854C4.90311 34.6613 11.4983 39.1406 19.1405 39.1406C27.253 39.1406 34.1862 34.0935 36.9726 26.9682H1.82733Z" fill="#74727F"/>
<path d="M15.7861 26.9682H1.82733L1.83468 28.1854C3.9521 32.6541 7.74905 36.1719 12.4104 37.9233C7.88421 35.0381 9.44967 26.9682 15.7861 26.9682Z" fill="#5F5E6A"/>
<path d="M9.7029 7.26109C9.62353 6.99984 9.38251 6.82117 9.10947 6.82117H6.69681C6.42368 6.82117 6.18274 6.99976 6.10337 7.26109L5.17157 10.327H10.6346L9.7029 7.26109Z" fill="#EEEFEB"/>
<path d="M8.53923 6.82117H6.6968C6.42368 6.82117 6.18274 6.99976 6.10337 7.26109L5.17157 10.3271H7.72766L8.22345 7.26109C8.26571 6.99976 8.39391 6.82117 8.53923 6.82117Z" fill="#D6D6D0"/>
<path d="M10.6349 10.1533H5.17182C4.91971 10.1533 4.71533 10.3577 4.71533 10.6098V11.8408C5.55807 11.7647 6.40307 11.7082 7.24986 11.6749C7.98486 11.6461 8.71807 11.6293 9.42971 11.6293C9.94775 11.6293 10.5063 11.6937 11.0913 11.8086V10.6097C11.0913 10.3577 10.887 10.1533 10.6349 10.1533Z" fill="#363540"/>
<path d="M7.75595 10.1533H5.17182C4.91971 10.1533 4.71533 10.3577 4.71533 10.6098V11.8408C5.55807 11.7647 6.40306 11.7082 7.24986 11.6749C7.51791 11.6644 7.78533 11.6561 8.05189 11.649C8.01424 11.5897 7.96611 11.5326 7.90291 11.4792C7.08845 10.792 7.75595 10.1533 7.75595 10.1533Z" fill="#21212B"/>
<path d="M39.377 20.5991C38.143 19.6169 34.9763 17.7087 28.9994 17.7087H25.3781C24.2587 17.7087 23.162 17.392 22.2163 16.7931C19.4736 15.0565 13.318 11.4556 9.42969 11.4556C8.71805 11.4556 7.98484 11.4724 7.24984 11.5012C5.40172 11.5737 3.5618 11.7498 1.73719 12.0236C1.51078 12.5168 1.30586 13.0217 1.12117 13.5363L0.0532812 18.5837C0.0189844 19.0515 0 19.5234 0 20C0 22.1493 0.354297 24.2159 1.00766 26.1445H24.7781C24.776 26.0868 24.7738 26.0291 24.7738 25.9709C24.7738 23.3946 26.8697 21.2987 29.4459 21.2987C32.0222 21.2987 34.118 23.3946 34.118 25.9709C34.118 26.5472 34.0125 27.0991 33.8208 27.6092H34.1961C35.11 27.6092 36.0212 27.512 36.9146 27.3194L38.6966 26.935C39.4571 26.771 40.0001 26.0984 40.0001 25.3205V21.8914C40 21.388 39.7709 20.9126 39.377 20.5991Z" fill="#FFC743"/>
<path d="M11.535 25.8709C9.67742 25.3407 9.51172 23.2597 9.51172 23.2597L8.85133 18.9418L7.92633 12.8702C7.16781 12.1117 7.89422 11.4866 7.90297 11.4792C7.6857 11.4855 7.46797 11.4926 7.24992 11.5012C5.4018 11.5737 3.56187 11.7498 1.73727 12.0236C1.51086 12.5168 1.30594 13.0217 1.12125 13.5363L0.0532812 18.5837C0.0189844 19.0515 0 19.5234 0 20C0 22.1493 0.354297 24.2158 1.00766 26.1445H11.7375C11.7392 26.0249 11.6641 25.9078 11.535 25.8709Z" fill="#FBB031"/>
<path d="M39.377 20.5991C38.7319 20.0856 37.5573 19.3195 35.7305 18.7048L35.1852 19.3288C34.6579 19.9323 34.6885 20.8411 35.2551 21.4077L35.7446 21.8972C36.0301 22.1827 36.4175 22.3432 36.8214 22.3432H40V21.8916C40 21.388 39.7709 20.9126 39.377 20.5991Z" fill="#D6D6D0"/>
<path d="M40.0002 21.8915C40.0002 21.388 39.771 20.9126 39.3771 20.5991C39.0472 20.3365 38.5778 20.0077 37.9544 19.667C37.2952 19.9365 36.8303 20.5834 36.8303 21.3395C36.8303 21.7109 36.9426 22.056 37.1348 22.3431H40.0002V21.8915Z" fill="#EEEFEB"/>
<path d="M37.8725 24.4827C37.2992 24.4827 36.8303 24.9517 36.8303 25.5249V26.0026C36.8303 26.5758 37.2992 27.0448 37.8725 27.0448H38.1882L38.6967 26.9351C39.4572 26.7711 40.0002 26.0985 40.0002 25.3205V24.4827H37.8725Z" fill="#FBB031"/>
<path d="M38.4152 26.0026V25.5249C38.4152 24.9517 38.8842 24.4827 39.4574 24.4827H37.8724C37.2992 24.4827 36.8302 24.9517 36.8302 25.5249V26.0026C36.8302 26.5758 37.2992 27.0448 37.8724 27.0448H38.1882L38.6968 26.9351C38.7648 26.9204 38.8304 26.9003 38.8948 26.8777C38.6071 26.6917 38.4152 26.3688 38.4152 26.0026Z" fill="#F7991E"/>
<path d="M21.8078 18.5371C21.0444 19.0481 20.1385 19.3038 19.2205 19.267L0.0580469 18.5021C0.0197656 18.9964 0 19.4959 0 20C0 22.1493 0.354297 24.2159 1.00766 26.1445H22.7173V20.0067C22.7173 19.8491 22.6667 19.6957 22.5728 19.5691L21.8078 18.5371Z" fill="#FBB031"/>
<path d="M11.535 25.8709C9.67742 25.3407 9.51172 23.2598 9.51172 23.2598L8.85133 18.9418L8.83773 18.8526L0.0580469 18.5021C0.0197656 18.9964 0 19.4959 0 20C0 22.1493 0.354297 24.2159 1.00766 26.1445H11.7375C11.7392 26.0249 11.6641 25.9078 11.535 25.8709Z" fill="#F7991E"/>
<path d="M20.5367 21.536H0.0612793C0.096123 21.9746 0.145811 22.409 0.209717 22.8388H20.5366C20.8964 22.8388 21.1879 22.5471 21.1879 22.1874C21.188 21.8277 20.8964 21.536 20.5367 21.536Z" fill="#363540"/>
<path d="M8.80667 22.1874C8.80667 21.8277 9.09823 21.5361 9.458 21.5361H0.0612793C0.096123 21.9747 0.145811 22.4091 0.209717 22.8388H9.458C9.09823 22.8388 8.80667 22.5471 8.80667 22.1874Z" fill="#21212B"/>
<path d="M21.7914 18.1463C21.6997 18.0938 21.6089 18.0391 21.5192 17.9824C16.4408 14.7667 11.9213 12.847 9.42959 12.847C8.95576 12.847 8.45193 12.8549 7.92623 12.8702L7.90326 15.7993L8.83763 18.8527L8.72271 18.9367L19.2204 19.3558C20.1384 19.3924 21.0443 19.1368 21.8077 18.6258C21.9817 18.5092 21.9732 18.2504 21.7914 18.1463Z" fill="#363540"/>
<path d="M4.38162 18.7634L4.45146 16.103L3.53217 13.1873C2.72787 13.2815 1.92451 13.3949 1.12271 13.5286C0.548103 15.1281 0.180134 16.8259 0.0516968 18.5905L4.38162 18.7634Z" fill="#21212B"/>
<path d="M5.68536 12.9833L6.57935 18.8511L8.85138 18.9418L7.92638 12.8702C7.72107 12.8762 7.51271 12.8833 7.30107 12.8915C6.76247 12.9127 6.2238 12.9442 5.68536 12.9833Z" fill="#5F5E6A"/>
<path d="M4.38177 18.7634L6.57927 18.8511L5.68529 12.9833C4.96717 13.0354 4.24927 13.1032 3.53217 13.187L4.38177 18.7634Z" fill="#4B4A55"/>
<path d="M21.7916 18.1463C21.6999 18.0937 21.6091 18.0391 21.5194 17.9823C20.433 17.2944 19.3725 16.6663 18.3516 16.1031C18.3524 16.1055 19.0252 18.2784 17.2025 19.2751L19.2206 19.3556C20.1385 19.3923 21.0444 19.1366 21.8078 18.6256C21.9819 18.5092 21.9734 18.2504 21.7916 18.1463Z" fill="#21212B"/>
<path d="M18.5984 17.706H17.1354C16.7346 17.706 16.4066 18.034 16.4066 18.4348V20.8072C16.4066 21.208 16.7346 21.5359 17.1354 21.5359H18.5984C19.5036 21.5359 20.2441 20.7954 20.2441 19.8902V19.3516C20.2441 18.4466 19.5036 17.706 18.5984 17.706Z" fill="#EEEFEB"/>
<path d="M17.6492 19.8904V19.3517C17.6492 18.5661 18.2074 17.9052 18.9466 17.7442C18.8342 17.7197 18.7179 17.706 18.5984 17.706H17.1353C16.7345 17.706 16.4066 18.034 16.4066 18.4348V20.8072C16.4066 21.208 16.7345 21.5359 17.1353 21.5359H18.5984C18.7179 21.5359 18.8342 21.5223 18.9466 21.4978C18.2074 21.3369 17.6492 20.676 17.6492 19.8904Z" fill="#D6D6D0"/>
<path d="M29.446 20.1629C26.2435 20.1629 23.6381 22.7684 23.6381 25.9708C23.6381 26.029 23.6408 26.0866 23.6424 26.1444H24.7782C24.7761 26.0867 24.7738 26.0291 24.7738 25.9708C24.7738 23.3945 26.8698 21.2986 29.446 21.2986C32.0223 21.2986 34.1181 23.3945 34.1181 25.9708C34.1181 26.5471 34.0126 27.0991 33.821 27.6092H34.1962C34.4728 27.6092 34.7492 27.5992 35.0249 27.5815C35.173 27.0696 35.2539 26.5297 35.2539 25.9708C35.2539 22.7684 32.6485 20.1629 29.446 20.1629Z" fill="#F7991E"/>
<path d="M0.951233 25.9709C1.20069 26.7312 1.49615 27.4705 1.8349 28.1854H25.3332C24.9766 27.5259 24.7739 26.7717 24.7739 25.9709H0.951233Z" fill="#F7991E"/>
<path d="M11.671 26.3202C11.7615 26.2151 11.7561 26.07 11.6812 25.9708H0.951233C1.20069 26.7311 1.49615 27.4704 1.8349 28.1853H12.0509C10.9726 27.4686 11.3118 26.7373 11.671 26.3202Z" fill="#ED8718"/>
<path d="M29.4459 30.7732C26.7978 30.7732 24.6434 28.6188 24.6434 25.9708C24.6434 23.3227 26.7978 21.1684 29.4459 21.1684C32.0939 21.1684 34.2483 23.3227 34.2483 25.9708C34.2483 28.6188 32.0939 30.7732 29.4459 30.7732Z" fill="#21212B"/>
<path d="M32.565 29.618C31.7045 29.4937 31.6177 28.9729 31.6558 28.639C31.6735 28.4843 31.583 28.3372 31.4366 28.2841C31.0845 28.1563 30.9819 27.9082 30.9564 27.7289C30.9377 27.5977 30.8425 27.4925 30.7151 27.4559C28.5261 26.8277 28.5914 24.9252 28.7007 24.2048C28.7231 24.057 28.6485 23.9077 28.5128 23.8451C28.1544 23.6798 28.1427 23.3873 28.1948 23.1732C28.2311 23.024 28.1618 22.8689 28.0263 22.7967C27.5347 22.5348 27.5176 22.1061 27.5726 21.8238C27.5901 21.7336 27.57 21.6445 27.5222 21.5718C25.8293 22.315 24.6435 24.0066 24.6435 25.9708C24.6435 28.6188 26.7979 30.7732 29.4459 30.7732C30.6358 30.7732 31.7251 30.3373 32.565 29.618Z" fill="black"/>
<path d="M29.4458 28.6818C30.9431 28.6818 32.1568 27.468 32.1568 25.9708C32.1568 24.4735 30.9431 23.2598 29.4458 23.2598C27.9486 23.2598 26.7348 24.4735 26.7348 25.9708C26.7348 27.468 27.9486 28.6818 29.4458 28.6818Z" fill="#D6D6D0"/>
<path d="M31.1302 28.0927C31.0169 27.9746 30.9719 27.8388 30.9562 27.7289C30.9376 27.5977 30.8423 27.4925 30.715 27.4559C28.5259 26.8277 28.5912 24.9252 28.7005 24.2048C28.723 24.057 28.6484 23.9077 28.5127 23.8451C28.3487 23.7695 28.2578 23.6671 28.2119 23.558C27.3359 24.0078 26.7347 24.9201 26.7347 25.9707C26.7347 27.4655 27.9509 28.6817 29.4457 28.6817C30.082 28.6819 30.6673 28.461 31.1302 28.0927Z" fill="#C6C6C1"/>
<path d="M29.4459 29.2494C27.6381 29.2494 26.1674 27.7786 26.1674 25.9709C26.1674 24.163 27.6382 22.6923 29.4459 22.6923C31.2538 22.6923 32.7245 24.163 32.7245 25.9709C32.7245 27.7786 31.2538 29.2494 29.4459 29.2494ZM29.4459 23.8273C28.264 23.8273 27.3023 24.7888 27.3023 25.9709C27.3023 27.1528 28.2639 28.1145 29.4459 28.1145C30.6279 28.1145 31.5895 27.1529 31.5895 25.9709C31.5895 24.7888 30.628 23.8273 29.4459 23.8273Z" fill="#EEEFEB"/>
<path d="M31.611 28.4298C31.5724 28.3641 31.5123 28.3115 31.4366 28.2841C31.0845 28.1563 30.982 27.9082 30.9564 27.7289C30.9473 27.6655 30.9202 27.6084 30.8805 27.562C30.5003 27.9051 29.9971 28.1143 29.4459 28.1143C28.264 28.1143 27.3023 27.1527 27.3023 25.9707C27.3023 25.0673 27.8644 24.2932 28.657 23.9783C28.6239 23.9215 28.5752 23.8739 28.5128 23.8452C28.1544 23.6798 28.1427 23.3874 28.1948 23.1733C28.2136 23.0963 28.2037 23.018 28.1716 22.9501C26.995 23.4484 26.1674 24.6147 26.1674 25.9708C26.1674 27.7786 27.6382 29.2493 29.4459 29.2493C30.2752 29.2494 31.033 28.9392 31.611 28.4298Z" fill="#D6D6D0"/>
</g>
<defs>
<clipPath id="clip0">
<rect width="40" height="40" fill="white"/>
</clipPath>
</defs>
</svg>
