<svg width="40" height="40" viewBox="0 0 40 40" fill="none" xmlns="http://www.w3.org/2000/svg">
<path d="M40 20C40 25.4776 37.7984 30.4416 34.2302 34.053C32.2131 36.0963 29.7592 37.707 27.0196 38.733C26.1943 39.0433 25.342 39.2996 24.4686 39.4988C23.0318 39.827 21.5363 40 20 40C18.2359 40 16.5257 39.7714 14.8971 39.3429C11.7518 38.5159 8.90938 36.9412 6.57055 34.8205C2.53469 31.1616 0 25.8767 0 20C0 8.9543 8.9543 0 20 0C31.0457 0 40 8.9543 40 20Z" fill="#FCC72E"/>
<path d="M35.6029 15.6029C35.6029 19.8762 33.8853 23.7488 31.1016 26.5663C29.528 28.1604 27.6136 29.4169 25.4763 30.2174C24.8325 30.4595 24.1676 30.6594 23.4861 30.8148C22.3654 31.0709 21.1986 31.2059 20.0001 31.2059C18.6238 31.2059 17.2896 31.0276 16.019 30.6932C13.5652 30.048 11.3478 28.8195 9.52311 27.1651C6.37452 24.3107 4.39709 20.1877 4.39709 15.603C4.39709 6.98562 11.3828 0 20 0C28.6172 0 35.6029 6.98562 35.6029 15.6029Z" fill="#FFD367"/>
<path d="M14.8971 18.5127V39.3429C11.7518 38.5159 8.90938 36.9412 6.57056 34.8205V18.5127H14.8971Z" fill="#535E8A"/>
<path d="M14.5297 1.3886V7.37016C14.5297 9.46649 12.8302 11.1659 10.7339 11.1659C8.63758 11.1659 6.93813 9.46649 6.93813 7.37016V1.3886C3.3443 2.87875 0.816101 6.42063 0.816101 10.5535C0.816101 16.031 5.25649 20.4714 10.734 20.4714C16.2115 20.4714 20.6519 16.031 20.6519 10.5535C20.6519 6.42063 18.1237 2.87875 14.5297 1.3886Z" fill="#535E8A"/>
<path d="M7.80874 35.8588V19.5739L6.57062 19.5424V34.8204" fill="#323B5B"/>
<path d="M7.82493 19.5645C4.41868 17.9945 2.05423 14.5503 2.05423 10.5535C2.05423 6.91383 4.01555 3.73328 6.93829 2.00805V1.38852C3.3443 2.87875 0.816101 6.42063 0.816101 10.5535C0.816101 15.0128 3.75907 18.7847 7.80868 20.033L7.82493 19.5645Z" fill="#323B5B"/>
<path d="M31.6316 13.8767H28.3257V31.631H31.6316V13.8767Z" fill="#EDEDED"/>
<path d="M29.5378 13.8767H28.3257V31.631H29.5378V13.8767Z" fill="#BDBDBD"/>
<path d="M33.5911 9.99922L31.183 1.91805H28.775L26.3669 9.99922L28.326 14.1213H31.632L33.5911 9.99922Z" fill="#EDEDED"/>
<path d="M34.2302 34.053C31.6049 36.7118 28.24 38.6384 24.4686 39.4988V36.9388C24.4686 34.7641 26.2318 33.0016 28.4057 33.0016H31.5518C32.5861 33.0016 33.5273 33.4008 34.2302 34.053Z" fill="#FF4F6F"/>
<path d="M30.9567 33.0016C28.782 33.0016 27.0196 34.7641 27.0196 36.9388V38.733C26.1943 39.0433 25.342 39.2996 24.4686 39.4988V36.9388C24.4686 34.7641 26.2318 33.0016 28.4057 33.0016H30.9567Z" fill="#E33958"/>
<path d="M29.5381 14.1213L27.1292 9.89962L29.0612 2.6343H31.3965L31.183 1.91805H28.775L26.3669 9.99922L28.326 14.1213L29.0704 14.589L29.5381 14.1213Z" fill="#BDBDBD"/>
<path d="M34.2647 33.4098H25.6933C25.017 33.4098 24.4688 32.8615 24.4688 32.1853C24.4688 31.5091 25.0171 30.9609 25.6933 30.9609H34.2647C34.9409 30.9609 35.4891 31.5091 35.4891 32.1853C35.4892 32.8616 34.941 33.4098 34.2647 33.4098Z" fill="#FF4F6F"/>
<path d="M27.0813 32.1853C27.0813 31.5091 27.6296 30.9609 28.3058 30.9609H25.6933C25.017 30.9609 24.4688 31.5091 24.4688 32.1853C24.4688 32.8616 25.0171 33.4098 25.6933 33.4098H28.3058C27.6295 33.4098 27.0813 32.8616 27.0813 32.1853Z" fill="#E33958"/>
</svg>
