<svg width="40" height="40" viewBox="0 0 40 40" fill="none" xmlns="http://www.w3.org/2000/svg">
<g clip-path="url(#clip0)">
<path d="M20 40C30.8031 40 39.5608 31.2423 39.5608 20.4391C39.5608 9.63595 30.8031 0.878242 20 0.878242C9.19679 0.878242 0.439087 9.63595 0.439087 20.4391C0.439087 31.2423 9.19679 40 20 40Z" fill="#FE5D6D"/>
<path d="M32.8969 0H6.77874C5.12804 0 3.78992 1.33812 3.78992 2.98882V9.4875V31.39C7.30353 36.5809 13.2448 39.9949 19.9852 40C26.5333 40.0049 32.3316 36.7913 35.8857 31.8537V9.02491V2.98882C35.8857 1.33812 34.5476 0 32.8969 0V0Z" fill="#35528C"/>
<path d="M19.8378 7.82435C15.4314 7.82435 11.5308 9.98818 9.13922 13.3108V9.48759V2.98882C9.13922 1.33812 10.4773 0 12.128 0H6.77874C5.12804 0 3.78992 1.33812 3.78992 2.98882V9.4875V31.39C5.21155 33.4902 7.03064 35.2994 9.13922 36.7098V28.6852C11.5308 32.0078 15.4314 34.1717 19.8378 34.1717C27.1134 34.1717 33.0115 28.2736 33.0115 20.998C33.0115 13.7224 27.1134 7.82435 19.8378 7.82435Z" fill="#1F3A60"/>
<path d="M19.8379 33.0539C26.4962 33.0539 31.8938 27.6563 31.8938 20.998C31.8938 14.3397 26.4962 8.94212 19.8379 8.94212C13.1796 8.94212 7.78198 14.3397 7.78198 20.998C7.78198 27.6563 13.1796 33.0539 19.8379 33.0539Z" fill="white"/>
<path d="M10.8159 20.998C10.8159 14.8536 15.4126 9.78291 21.3549 9.03689C20.8579 8.97453 20.3517 8.94212 19.8379 8.94212C13.1796 8.94212 7.78198 14.3397 7.78198 20.998C7.78198 27.6563 13.1796 33.0539 19.8379 33.0539C20.3517 33.0539 20.8579 33.0216 21.3549 32.9591C15.4126 32.2131 10.8159 27.1424 10.8159 20.998Z" fill="#CECECE"/>
<path d="M19.8379 30.2595C24.9529 30.2595 29.0994 26.113 29.0994 20.998C29.0994 15.883 24.9529 11.7365 19.8379 11.7365C14.7229 11.7365 10.5764 15.883 10.5764 20.998C10.5764 26.113 14.7229 30.2595 19.8379 30.2595Z" fill="#99D3FF"/>
<path d="M14.5684 20.998C14.5684 16.5684 17.6784 12.8658 21.8339 11.9529C21.1909 11.8117 20.5232 11.7365 19.8379 11.7365C14.7229 11.7365 10.5764 15.883 10.5764 20.998C10.5764 26.113 14.7229 30.2595 19.8379 30.2595C20.5232 30.2595 21.1909 30.1844 21.8339 30.0431C17.6784 29.1302 14.5684 25.4276 14.5684 20.998Z" fill="#5BB3CE"/>
<path d="M32.8969 0H6.77874C5.12804 0 3.78992 1.33812 3.78992 2.98882V6.46707H35.8857V2.98882C35.8857 1.33812 34.5476 0 32.8969 0Z" fill="#FEC753"/>
<path d="M12.128 0H6.77874C5.12804 0 3.78992 1.33812 3.78992 2.98882V6.46707H9.13921V2.98882C9.13921 1.33812 10.4773 0 12.128 0Z" fill="#E0A336"/>
<path d="M24.8678 20.5988C25.882 20.5988 26.7041 19.7767 26.7041 18.7625C26.7041 17.7483 25.882 16.9261 24.8678 16.9261C23.8536 16.9261 23.0315 17.7483 23.0315 18.7625C23.0315 19.7767 23.8536 20.5988 24.8678 20.5988Z" fill="#C5E9FF"/>
<path d="M22.1132 22.4351C22.6203 22.4351 23.0314 22.024 23.0314 21.517C23.0314 21.0099 22.6203 20.5988 22.1132 20.5988C21.6061 20.5988 21.1951 21.0099 21.1951 21.517C21.1951 22.024 21.6061 22.4351 22.1132 22.4351Z" fill="#C5E9FF"/>
<path d="M32.0534 4.31138H31.8139C31.287 4.31138 30.8558 3.88024 30.8558 3.35329V3.11377C30.8558 2.58682 31.287 2.15569 31.8139 2.15569H32.0534C32.5804 2.15569 33.0115 2.58682 33.0115 3.11377V3.35329C33.0115 3.88024 32.5804 4.31138 32.0534 4.31138Z" fill="white"/>
<path d="M28.5404 4.31138H28.3009C27.7739 4.31138 27.3428 3.88024 27.3428 3.35329V3.11377C27.3428 2.58682 27.7739 2.15569 28.3009 2.15569H28.5404C29.0673 2.15569 29.4985 2.58682 29.4985 3.11377V3.35329C29.4985 3.88024 29.0673 4.31138 28.5404 4.31138Z" fill="white"/>
<path d="M25.0274 4.31138H24.7879C24.261 4.31138 23.8298 3.88024 23.8298 3.35329V3.11377C23.8298 2.58682 24.261 2.15569 24.7879 2.15569H25.0274C25.5544 2.15569 25.9855 2.58682 25.9855 3.11377V3.35329C25.9855 3.88024 25.5544 4.31138 25.0274 4.31138Z" fill="white"/>
</g>
<defs>
<clipPath id="clip0">
<rect width="40" height="40" fill="white"/>
</clipPath>
</defs>
</svg>
