<svg width="20" height="20" viewBox="0 0 20 20" fill="none" xmlns="http://www.w3.org/2000/svg">
<path fill-rule="evenodd" clip-rule="evenodd" d="M5.31155 1.0625C4.8341 1.0625 4.44713 1.44963 4.44713 1.92708C4.44713 2.40454 4.8341 2.79167 5.31155 2.79167H14.7885C15.2659 2.79167 15.6529 2.40454 15.6529 1.92708C15.6529 1.44963 15.2659 1.0625 14.7885 1.0625H5.31155ZM3.14835 6.375C1.99632 6.375 1.0625 7.30911 1.0625 8.4613V16.8512C1.0625 18.0034 1.99632 18.9375 3.14835 18.9375H16.9517C18.1037 18.9375 19.0375 18.0034 19.0375 16.8512V8.4613C19.0375 7.30911 18.1037 6.375 16.9517 6.375H3.14835ZM2.79135 8.4613C2.79135 8.26402 2.95122 8.10417 3.14835 8.10417H16.9517C17.1488 8.10417 17.3087 8.26402 17.3087 8.4613V16.8512C17.3087 17.0485 17.1488 17.2083 16.9517 17.2083H3.14835C2.95122 17.2083 2.79135 17.0485 2.79135 16.8512V8.4613ZM3.95768 3.7705C3.48024 3.7705 3.09326 4.15763 3.09326 4.63508C3.09326 5.11253 3.48024 5.49966 3.95768 5.49966H16.1423C16.6197 5.49966 17.0067 5.11253 17.0067 4.63508C17.0067 4.15763 16.6197 3.7705 16.1423 3.7705H3.95768Z" fill="#333333"/>
</svg>
