<svg width="14" height="14" viewBox="0 0 14 14" fill="none" xmlns="http://www.w3.org/2000/svg">
<path d="M6.34025 9.70145C6.30642 9.66849 6.16175 9.54404 6.04275 9.42811C5.29433 8.74846 4.06933 6.97544 3.69542 6.04745C3.63533 5.90652 3.50817 5.55021 3.5 5.35984C3.5 5.17742 3.542 5.00353 3.62717 4.8376C3.74617 4.63074 3.93342 4.46481 4.1545 4.37388C4.30792 4.31535 4.767 4.22443 4.77517 4.22443C5.27742 4.1335 6.0935 4.0835 6.99533 4.0835C7.85458 4.0835 8.63742 4.1335 9.14725 4.20795C9.15542 4.21647 9.72592 4.3074 9.92133 4.40684C10.2783 4.58926 10.5 4.94557 10.5 5.32688V5.35984C10.4912 5.60818 10.2696 6.13042 10.2614 6.13042C9.88692 7.0084 8.722 8.7405 7.94792 9.43664C7.94792 9.43664 7.749 9.63269 7.62475 9.71793C7.44625 9.85091 7.22517 9.91683 7.00408 9.91683C6.75733 9.91683 6.5275 9.84239 6.34025 9.70145Z" fill="#666666"/>
</svg>
