<svg width="24" height="24" viewBox="0 0 24 24" fill="none" xmlns="http://www.w3.org/2000/svg">
<path fill-rule="evenodd" clip-rule="evenodd" d="M7.33 2.0001H16.66C20.06 2.0001 22 3.9201 22 7.3301V16.6701C22 20.0601 20.07 22.0001 16.67 22.0001H7.33C3.92 22.0001 2 20.0601 2 16.6701V7.3301C2 3.9201 3.92 2.0001 7.33 2.0001ZM12.82 12.8301H15.66C16.12 12.8201 16.49 12.4501 16.49 11.9901C16.49 11.5301 16.12 11.1601 15.66 11.1601H12.82V8.3401C12.82 7.8801 12.45 7.5101 11.99 7.5101C11.53 7.5101 11.16 7.8801 11.16 8.3401V11.1601H8.33C8.11 11.1601 7.9 11.2501 7.74 11.4001C7.59 11.5601 7.5 11.7691 7.5 11.9901C7.5 12.4501 7.87 12.8201 8.33 12.8301H11.16V15.6601C11.16 16.1201 11.53 16.4901 11.99 16.4901C12.45 16.4901 12.82 16.1201 12.82 15.6601V12.8301Z" fill="url(#paint0_linear)"/>
<defs>
<linearGradient id="paint0_linear" x1="12" y1="2.0001" x2="12" y2="22.0001" gradientUnits="userSpaceOnUse">
<stop stop-color="#EA7A6E"/>
<stop offset="1" stop-color="#E23A28"/>
</linearGradient>
</defs>
</svg>
