<svg width="18" height="18" viewBox="0 0 18 18" fill="none" xmlns="http://www.w3.org/2000/svg">
<path fill-rule="evenodd" clip-rule="evenodd" d="M0.666748 9.01248C0.666748 4.62256 4.17508 0.666626 9.01675 0.666626C13.7501 0.666626 17.3334 4.54745 17.3334 8.98744C17.3334 14.1368 13.1334 17.3333 9.00008 17.3333C7.63342 17.3333 6.11675 16.9661 4.90008 16.2483C4.47508 15.9896 4.11675 15.7977 3.65841 15.9479L1.97508 16.4486C1.55008 16.5822 1.16675 16.2483 1.29175 15.7977L1.85008 13.9282C1.94175 13.6695 1.92508 13.3941 1.79175 13.1771C1.07508 11.8584 0.666748 10.4146 0.666748 9.01248ZM7.91676 9.01248C7.91676 9.60503 8.39176 10.0807 8.98342 10.0891C9.57509 10.0891 10.0501 9.60503 10.0501 9.02083C10.0501 8.42827 9.57509 7.95256 8.98342 7.95256C8.40009 7.94421 7.91676 8.42827 7.91676 9.01248ZM11.7584 9.02083C11.7584 9.60504 12.2334 10.0891 12.8251 10.0891C13.4167 10.0891 13.8917 9.60504 13.8917 9.02083C13.8917 8.42827 13.4167 7.95256 12.8251 7.95256C12.2334 7.95256 11.7584 8.42827 11.7584 9.02083ZM5.14173 10.0891C4.5584 10.0891 4.07507 9.60503 4.07507 9.02083C4.07507 8.42827 4.55007 7.95256 5.14173 7.95256C5.7334 7.95256 6.2084 8.42827 6.2084 9.02083C6.2084 9.60503 5.7334 10.0807 5.14173 10.0891Z" fill="url(#paint0_linear)"/>
<defs>
<linearGradient id="paint0_linear" x1="9.00008" y1="0.666626" x2="9.00008" y2="17.3333" gradientUnits="userSpaceOnUse">
<stop stop-color="#807c7c"/>
<stop offset="1" stop-color="#c7c3c3"/>
</linearGradient>
</defs>
</svg>
