<svg width="24" height="24" viewBox="0 0 24 24" fill="none" xmlns="http://www.w3.org/2000/svg">
<path d="M11.9943 6.54546C13.1998 6.54546 14.1762 5.56911 14.1762 4.36362C14.1762 3.95453 14.0616 3.56728 13.8653 3.24L11.9943 0L10.1234 3.24C9.92705 3.56728 9.8125 3.95453 9.8125 4.36362C9.8125 5.56911 10.7889 6.54546 11.9943 6.54546Z" fill="url(#paint0_linear)"/>
<path d="M18.5394 9.8182H13.0849V7.63637H10.903V9.8182H5.44851C3.64304 9.8182 2.17578 11.2855 2.17578 13.0909V14.7709C2.17578 15.9491 3.13576 16.9091 4.31395 16.9091C4.88668 16.9091 5.4212 16.6854 5.82487 16.2818L8.1594 13.9527L10.4885 16.2763C11.2958 17.0836 12.7031 17.0836 13.5103 16.2763L15.8448 13.9527L18.174 16.2763C18.5776 16.6799 19.1122 16.9036 19.6849 16.9036C20.8631 16.9036 21.8231 15.9436 21.8231 14.7654V13.0909C21.8122 11.2855 20.3449 9.8182 18.5394 9.8182Z" fill="url(#paint1_linear)"/>
<path d="M17.0067 17.4383L15.834 16.2656L14.6558 17.4383C13.2322 18.8619 10.7449 18.8619 9.32128 17.4383L8.14851 16.2656L6.97033 17.4383C6.26669 18.1528 5.32307 18.5455 4.31395 18.5455C3.52302 18.5455 2.78666 18.2946 2.17578 17.8746V22.9092C2.17578 23.5092 2.66669 24.0001 3.26667 24.0001H20.7212C21.3212 24.0001 21.8121 23.5092 21.8121 22.9092V17.8747C21.2012 18.2947 20.4703 18.5456 19.6739 18.5456C18.6649 18.5456 17.7212 18.1529 17.0067 17.4383Z" fill="url(#paint2_linear)"/>
<defs>
<linearGradient id="paint0_linear" x1="11.9943" y1="0" x2="11.9943" y2="6.54546" gradientUnits="userSpaceOnUse">
<stop stop-color="#807c7c"/>
<stop offset="1" stop-color="#c7c3c3"/>
</linearGradient>
<linearGradient id="paint1_linear" x1="11.9994" y1="7.63637" x2="11.9994" y2="16.9091" gradientUnits="userSpaceOnUse">
<stop stop-color="#807c7c"/>
<stop offset="1" stop-color="#c7c3c3"/>
</linearGradient>
<linearGradient id="paint2_linear" x1="11.9939" y1="16.2656" x2="11.9939" y2="24.0001" gradientUnits="userSpaceOnUse">
<stop stop-color="#807c7c"/>
<stop offset="1" stop-color="#c7c3c3"/>
</linearGradient>
</defs>
</svg>
