<svg width="24" height="24" viewBox="0 0 24 24" fill="none" xmlns="http://www.w3.org/2000/svg">
<path d="M17.9189 14.3201C17.6599 14.5711 17.5409 14.9341 17.5999 15.2901L18.4889 20.2101C18.5639 20.6271 18.3879 21.0491 18.0389 21.2901C17.6969 21.5401 17.2419 21.5701 16.8689 21.3701L12.4399 19.0601C12.2859 18.9781 12.1149 18.9341 11.9399 18.9291H11.6689C11.5749 18.9431 11.4829 18.9731 11.3989 19.0191L6.96888 21.3401C6.74988 21.4501 6.50188 21.4891 6.25888 21.4501C5.66688 21.3381 5.27188 20.7741 5.36888 20.1791L6.25888 15.2591C6.31788 14.9001 6.19888 14.5351 5.93988 14.2801L2.32888 10.7801C2.02688 10.4871 1.92188 10.0471 2.05988 9.6501C2.19388 9.2541 2.53588 8.9651 2.94888 8.9001L7.91888 8.1791C8.29688 8.1401 8.62888 7.9101 8.79888 7.5701L10.9889 3.0801C11.0409 2.9801 11.1079 2.8881 11.1889 2.8101L11.2789 2.7401C11.3259 2.6881 11.3799 2.6451 11.4399 2.6101L11.5489 2.5701L11.7189 2.5001H12.1399C12.5159 2.5391 12.8469 2.7641 13.0199 3.1001L15.2389 7.5701C15.3989 7.8971 15.7099 8.1241 16.0689 8.1791L21.0389 8.9001C21.4589 8.9601 21.8099 9.2501 21.9489 9.6501C22.0799 10.0511 21.9669 10.4911 21.6589 10.7801L17.9189 14.3201Z" fill="url(#paint0_linear)"/>
<defs>
<linearGradient id="paint0_linear" x1="12.0013" y1="2.5001" x2="12.0013" y2="21.5014" gradientUnits="userSpaceOnUse">
<stop stop-color="#EA7A6E"/>
<stop offset="1" stop-color="#E23A28"/>
</linearGradient>
</defs>
</svg>
