<svg width="36" height="36" viewBox="0 0 36 36" fill="none" xmlns="http://www.w3.org/2000/svg">
<path d="M26.758 24.0784C21.6538 24.0784 17.516 19.9406 17.516 14.8364C17.516 9.73223 21.6538 5.59445 26.758 5.59445C31.8622 5.59445 36 9.73223 36 14.8364C36 19.9406 31.8622 24.0784 26.758 24.0784Z" fill="#FFCA5D"/>
<path d="M14.8752 21.4376C9.77099 21.4376 5.63322 17.2998 5.63322 12.1956C5.63322 7.09139 9.77099 2.95361 14.8752 2.95361C19.9794 2.95361 24.1172 7.09139 24.1172 12.1956C24.1172 17.2998 19.9794 21.4376 14.8752 21.4376Z" fill="#F6B545"/>
<path d="M14.8752 2.95361C20.0243 2.95361 24.1172 7.0465 24.1172 12.1956C24.1172 17.3447 20.0243 21.4376 14.8752 21.4376C9.7261 21.4376 5.63322 17.3447 5.63322 12.1956C5.63322 7.0465 9.7261 2.95361 14.8752 2.95361ZM14.8752 18.797C18.572 18.797 21.4766 15.8924 21.4766 12.1956C21.4766 8.49881 18.572 5.5942 14.8752 5.5942C11.1784 5.5942 8.2738 8.49881 8.2738 12.1956C8.2738 15.8924 11.1784 18.797 14.8752 18.797Z" fill="#FFCB5B"/>
<path d="M14.876 21.3049C9.72688 21.437 5.63399 17.212 5.63399 12.195H5.76606C6.42618 12.195 6.95434 12.7231 7.08629 13.3833C7.35032 15.2317 8.27457 16.948 9.59481 18.1363C10.651 19.1925 12.1033 19.8526 13.6877 20.1166C14.3479 20.1166 14.876 20.6448 14.876 21.3049Z" fill="#F6B545"/>
<path d="M14.8752 3.08563C20.0243 2.95356 24.1172 7.17852 24.1172 12.1956H23.9851C23.325 12.1956 22.7968 11.6674 22.6649 11.0073C22.4009 9.15887 21.4766 7.44254 20.1564 6.25426C19.1002 5.19805 17.6479 4.53793 16.0635 4.27379C15.4034 4.27391 14.8752 3.74574 14.8752 3.08563Z" fill="#FFE27A"/>
<path d="M20.5524 13.12C20.5524 9.4232 17.6478 6.51859 13.951 6.51859C12.3666 6.51859 10.9143 7.04676 9.72618 8.10297C11.0464 6.51859 12.7627 5.59445 14.8752 5.59445C18.572 5.59445 21.4766 8.49906 21.4766 12.1959C21.4766 14.3083 20.5524 16.0246 19.1001 17.2129C20.0243 16.1567 20.5524 14.7044 20.5524 13.12Z" fill="#F19920"/>
<path d="M10.9147 16.2883C11.0467 16.2883 11.1787 16.2883 11.3108 16.1562C11.5748 15.8922 11.5748 15.4961 11.3108 15.2321C10.5186 14.4399 10.1225 13.2516 10.1225 12.1954C10.1225 11.7993 9.85847 11.5353 9.46237 11.5353C9.06628 11.5353 8.80226 11.7993 8.80226 12.1954C8.80226 13.6477 9.33042 15.1 10.2546 16.1562C10.5186 16.2883 10.7827 16.2883 10.9147 16.2883Z" fill="#FFCB5B"/>
<path d="M14.877 16.1555C15.6692 16.1555 16.1973 15.6273 16.1973 14.8352V9.55418C16.1973 8.76199 15.6691 8.23394 14.877 8.23394C14.085 8.23394 13.5568 8.7621 13.5568 9.55418V14.8352C13.5568 15.6273 14.0848 16.1555 14.877 16.1555Z" fill="#F19920"/>
<path d="M9.99037 19.9854C10.9145 16.6847 13.2911 14.0441 16.3277 12.856C16.8559 9.8193 18.8363 7.17882 21.3448 5.59445C22.9291 7.31078 23.9854 9.55527 23.9854 12.0638C23.9854 17.2129 19.8925 21.3058 14.7434 21.3058C13.0269 21.4377 11.4427 20.9097 9.99037 19.9854Z" fill="#F19920"/>
<path d="M19.1 17.2122C20.0241 16.024 20.6844 14.5717 20.6844 12.9874C20.6844 11.139 19.8922 9.42269 18.5719 8.23441C18.836 7.83831 19.1001 7.57429 19.3641 7.31026C20.6844 8.49854 21.4766 10.2149 21.4766 12.1953C21.4764 14.3076 20.5523 16.024 19.1 17.2122Z" fill="#E78825"/>
<path d="M16.1953 12.9875V14.8359C16.1953 15.6281 15.6671 16.1562 14.8751 16.1562C14.083 16.1562 13.5548 15.628 13.5548 14.8359V14.5719C14.3469 13.9117 15.2711 13.3836 16.1953 12.9875Z" fill="#E78825"/>
<path d="M9.99024 19.9852C10.2543 19.0611 10.5184 18.2689 11.0464 17.4767C12.1027 18.2689 13.4229 18.7969 14.8752 18.7969C18.572 18.7969 21.4766 15.8923 21.4766 12.1955C21.4766 10.2151 20.6844 8.49873 19.3642 7.31045C20.0243 6.65033 20.6844 6.12217 21.4766 5.72607C23.061 7.4424 24.1172 9.68689 24.1172 12.1954C24.1172 17.3445 20.0243 21.4374 14.8752 21.4374C13.0268 21.4375 11.4425 20.9095 9.99024 19.9852Z" fill="#F6B545"/>
<path d="M10.387 18.7971C11.3111 19.4572 12.4994 19.8533 13.6877 20.1173C14.3478 20.2494 14.876 20.7774 14.876 21.4376C13.0276 21.4376 11.4432 20.9094 9.9909 19.9853C10.1229 19.5892 10.2549 19.1932 10.387 18.7971Z" fill="#F19920"/>
<path d="M21.4766 5.72607C23.061 7.4424 24.1172 9.68689 24.1172 12.1954H23.9851C23.325 12.1954 22.7968 11.6672 22.6649 11.0071C22.4009 9.15873 21.4766 7.57436 20.2884 6.38619C20.6844 6.25412 21.0805 5.9901 21.4766 5.72607Z" fill="#FFCB5B"/>
<path d="M26.758 24.0784C21.6538 24.0784 17.516 19.9406 17.516 14.8364C17.516 9.73223 21.6538 5.59445 26.758 5.59445C31.8622 5.59445 36 9.73223 36 14.8364C36 19.9406 31.8622 24.0784 26.758 24.0784Z" fill="#F6B545"/>
<path d="M28.0781 21.437C28.0781 22.3611 27.9461 23.1533 27.682 24.0776C27.418 24.0776 27.0219 24.0776 26.7579 24.0776C21.6088 24.0776 17.5159 19.9847 17.5159 14.8356C17.5159 13.9114 17.648 13.1192 17.912 12.195C18.176 12.195 18.5721 12.195 18.8361 12.195C23.9852 12.1951 28.0781 16.288 28.0781 21.437Z" fill="#F19920"/>
<path d="M26.758 5.59445C31.9071 5.59445 36 9.68734 36 14.8364C36 19.9855 31.9071 24.0784 26.758 24.0784C21.6089 24.0784 17.516 19.9854 17.516 14.8364C17.516 9.68745 21.6089 5.59445 26.758 5.59445ZM26.758 21.4377C30.4548 21.4377 33.3594 18.5331 33.3594 14.8363C33.3594 11.1395 30.4548 8.23492 26.758 8.23492C23.0612 8.23492 20.1566 11.1395 20.1566 14.8363C20.1566 18.5331 23.0612 21.4377 26.758 21.4377Z" fill="#FFCB5B"/>
<path d="M26.7588 23.9446C21.6097 24.0767 17.5168 19.8518 17.5168 14.8348H17.6489C18.309 14.8348 18.8371 15.3629 18.9691 16.0231C19.2331 17.8715 20.1574 19.5878 21.4776 20.7761C22.5338 21.8323 23.9861 22.4924 25.5705 22.7565C26.2306 22.7564 26.7588 23.2845 26.7588 23.9446Z" fill="#F6B545"/>
<path d="M26.758 5.72647C31.9071 5.5944 36 9.81936 36 14.8364H35.8679C35.2078 14.8364 34.6797 14.3082 34.5477 13.6481C34.2837 11.7997 33.3594 10.0834 32.0392 8.8951C30.983 7.83889 29.5307 7.17877 27.9463 6.91464C27.2861 6.91464 26.758 6.38659 26.758 5.72647Z" fill="#FFE27A"/>
<path d="M32.4351 15.7598C32.4351 12.063 29.5305 9.15839 25.8337 9.15839C24.2493 9.15839 22.797 9.68655 21.6089 10.7428C22.9291 9.15838 24.6456 8.23425 26.758 8.23425C30.4548 8.23425 33.3594 11.1388 33.3594 14.8356C33.3594 16.9481 32.4352 18.6644 30.9829 19.8527C31.907 18.7965 32.4351 17.3442 32.4351 15.7598Z" fill="#F19920"/>
<path d="M22.7965 18.9276C22.9286 18.9276 23.0605 18.9276 23.1926 18.7955C23.4566 18.5315 23.4566 18.1354 23.1926 17.8714C22.4004 17.0792 22.0043 15.8909 22.0043 14.8347C22.0043 14.4386 21.7403 14.1746 21.3442 14.1746C20.9481 14.1746 20.6841 14.4386 20.6841 14.8347C20.6841 16.287 21.2122 17.7393 22.1364 18.7955C22.4005 18.9276 22.6646 18.9276 22.7965 18.9276Z" fill="#FFCB5B"/>
<path d="M26.7579 18.7977C27.5501 18.7977 28.0781 18.2695 28.0781 17.4774V12.1964C28.0781 11.4042 27.55 10.8761 26.7579 10.8761C25.9657 10.8761 25.4376 11.4043 25.4376 12.1964V17.4774C25.4375 18.2695 25.9657 18.7977 26.7579 18.7977Z" fill="#F19920"/>
<path d="M20.6847 12.3267C20.4206 13.1188 20.1565 13.911 20.1565 14.8352C20.1565 18.532 23.0611 21.4366 26.7579 21.4366C27.154 21.4366 27.682 21.4366 28.0781 21.3045V21.4366C28.0781 22.3607 27.9461 23.1529 27.682 24.0772C27.418 24.0772 27.0219 24.0772 26.7579 24.0772C21.6088 24.0772 17.5159 19.9843 17.5159 14.8352C17.5159 13.911 17.648 13.1188 17.912 12.1946C18.176 12.1946 18.5721 12.1946 18.8361 12.1946C19.4965 12.1947 20.0245 12.1947 20.6847 12.3267Z" fill="#F6B545"/>
<path d="M20.1565 31.9995C15.0522 31.9995 10.9145 27.8617 10.9145 22.7575C10.9145 17.6533 15.0522 13.5155 20.1565 13.5155C25.2607 13.5155 29.3984 17.6533 29.3984 22.7575C29.3984 27.8617 25.2607 31.9995 20.1565 31.9995Z" fill="#F6B545"/>
<path d="M20.1565 13.5159C25.3056 13.5159 29.3984 17.6088 29.3984 22.7579C29.3984 27.907 25.3056 31.9999 20.1565 31.9999C15.0074 31.9999 10.9145 27.907 10.9145 22.7579C10.9145 17.6088 15.0074 13.5159 20.1565 13.5159ZM20.1565 29.3593C23.8532 29.3593 26.7579 26.4547 26.7579 22.7579C26.7579 19.0611 23.8532 16.1565 20.1565 16.1565C16.4597 16.1565 13.5551 19.0611 13.5551 22.7579C13.5551 26.4547 16.4597 29.3593 20.1565 29.3593Z" fill="#FFCB5B"/>
<path d="M20.1562 31.8677C15.0071 31.9998 10.9143 27.7749 10.9143 22.7578H11.0463C11.7064 22.7578 12.2346 23.286 12.3666 23.9461C12.6306 25.7945 13.5548 27.5108 14.8751 28.6991C15.9313 29.7553 17.3836 30.4154 18.968 30.6796C19.6281 30.6795 20.1562 31.2075 20.1562 31.8677Z" fill="#F6B545"/>
<path d="M20.1565 13.6474C25.3056 13.5154 29.3984 17.7403 29.3984 22.7573H29.2664C28.6063 22.7573 28.0781 22.2292 27.9461 21.5691C27.6821 19.7207 26.7579 18.0043 25.4376 16.8161C24.3814 15.7598 22.9291 15.0997 21.3447 14.8356C20.6845 14.8357 20.1565 14.3075 20.1565 13.6474Z" fill="#FFE27A"/>
<path d="M25.8345 23.6818C25.8345 19.985 22.9299 17.0804 19.2331 17.0804C17.6488 17.0804 16.1965 17.6086 15.0083 18.6648C16.3285 17.0804 18.045 16.1562 20.1574 16.1562C23.8542 16.1562 26.7588 19.0609 26.7588 22.7577C26.7588 24.8701 25.8347 26.5864 24.3823 27.7747C25.3065 26.7185 25.8345 25.2662 25.8345 23.6818Z" fill="#F19920"/>
<path d="M16.1959 26.8496C16.328 26.8496 16.46 26.8496 16.592 26.7175C16.856 26.4535 16.856 26.0574 16.592 25.7934C15.7998 25.0012 15.4037 23.8129 15.4037 22.7567C15.4037 22.3606 15.1397 22.0966 14.7436 22.0966C14.3475 22.0966 14.0835 22.3606 14.0835 22.7567C14.0835 24.209 14.6117 25.6613 15.5358 26.7175C15.7998 26.8496 16.0639 26.8496 16.1959 26.8496Z" fill="#FFCB5B"/>
<path d="M20.1563 26.7187C20.9485 26.7187 21.4766 26.1906 21.4766 25.3985V20.1173C21.4766 19.3251 20.9484 18.7971 20.1563 18.7971C19.3641 18.7971 18.8361 19.3252 18.8361 20.1173V25.3984C18.836 26.1906 19.3641 26.7187 20.1563 26.7187Z" fill="#F19920"/>
<rect y="26" width="8" height="1" rx="0.5" fill="#21313F"/>
<rect x="2" y="23" width="7" height="1" rx="0.5" fill="#21313F"/>
<rect y="20" width="6" height="1" rx="0.5" fill="#21313F"/>
</svg>
