<svg width="36" height="36" viewBox="0 0 36 36" fill="none" xmlns="http://www.w3.org/2000/svg">
<path d="M30.5454 24.5453H1.45456C0.654561 24.5453 0 23.8908 0 23.0908V7.09079C0 6.29079 0.654561 5.63623 1.45456 5.63623H30.5454C31.3454 5.63623 32 6.29079 32 7.09079V23.0908C31.9999 23.8908 31.3454 24.5453 30.5454 24.5453Z" fill="#0E9347"/>
<path d="M27.6359 23.0909H4.36316C4.36316 21.4909 3.0541 20.1818 1.4541 20.1818V10.0001C3.0541 10.0001 4.36316 8.69099 4.36316 7.091H27.6359C27.6359 8.69099 28.9449 10.0001 30.5449 10.0001V20.1818C28.9449 20.1818 27.6359 21.4909 27.6359 23.0909Z" fill="#3BB54A"/>
<path d="M16.0008 21.6365C19.2141 21.6365 21.819 18.706 21.819 15.091C21.819 11.4761 19.2141 8.54562 16.0008 8.54562C12.7875 8.54562 10.1826 11.4761 10.1826 15.091C10.1826 18.706 12.7875 21.6365 16.0008 21.6365Z" fill="#0E9347"/>
<path d="M7.27292 16.5452C8.07625 16.5452 8.72748 15.894 8.72748 15.0907C8.72748 14.2873 8.07625 13.6361 7.27292 13.6361C6.46959 13.6361 5.81836 14.2873 5.81836 15.0907C5.81836 15.894 6.46959 16.5452 7.27292 16.5452Z" fill="#0E9347"/>
<path d="M24.727 16.5452C25.5304 16.5452 26.1816 15.894 26.1816 15.0907C26.1816 14.2873 25.5304 13.6361 24.727 13.6361C23.9237 13.6361 23.2725 14.2873 23.2725 15.0907C23.2725 15.894 23.9237 16.5452 24.727 16.5452Z" fill="#0E9347"/>
<path d="M16.7271 14.3634H15.2726C14.8362 14.3634 14.5453 14.0725 14.5453 13.6362C14.5453 13.1998 14.8363 12.9089 15.2726 12.9089H17.4544C17.8907 12.9089 18.1816 12.618 18.1816 12.1817C18.1816 11.7453 17.8907 11.4544 17.4544 11.4544H16.7271C16.7271 11.0181 16.4362 10.7272 15.9999 10.7272C15.5635 10.7272 15.2726 11.0181 15.2726 11.4544C14.0363 11.4544 13.0908 12.3999 13.0908 13.6363C13.0908 14.8726 14.0363 15.8181 15.2726 15.8181H16.7272C17.1636 15.8181 17.4544 16.109 17.4544 16.5453C17.4544 16.9817 17.1635 17.2726 16.7272 17.2726H14.5454C14.109 17.2726 13.8181 17.5635 13.8181 17.9998C13.8181 18.4362 14.1091 18.7271 14.5454 18.7271H15.2726C15.2726 19.1634 15.5636 19.4543 15.9999 19.4543C16.4362 19.4543 16.7271 19.1634 16.7271 18.7271C17.9635 18.7271 18.9089 17.7816 18.9089 16.5452C18.9089 15.3089 17.9635 14.3634 16.7271 14.3634Z" fill="#89C763"/>
<path d="M34.909 30.1818H13.0909C12.4909 30.1818 12 29.6909 12 29.0909V17.0909C12 16.4909 12.4909 16 13.0909 16H34.9091C35.5091 16 36 16.4909 36 17.0909V29.0909C36 29.6909 35.509 30.1818 34.909 30.1818Z" fill="#0E9347"/>
<path d="M32.7271 29.0911H15.2726C15.2726 27.8911 14.2908 26.9093 13.0908 26.9093V19.2729C14.2908 19.2729 15.2726 18.2911 15.2726 17.0911H32.7271C32.7271 18.2911 33.7089 19.2729 34.9089 19.2729V26.9093C33.7089 26.9093 32.7271 27.8911 32.7271 29.0911Z" fill="#3BB54A"/>
<path d="M23.9994 28.0006C26.4093 28.0006 28.363 25.8027 28.363 23.0915C28.363 20.3803 26.4093 18.1824 23.9994 18.1824C21.5894 18.1824 19.6357 20.3803 19.6357 23.0915C19.6357 25.8027 21.5894 28.0006 23.9994 28.0006Z" fill="#0E9347"/>
<path d="M17.4542 24.1823C18.0567 24.1823 18.5451 23.6938 18.5451 23.0913C18.5451 22.4888 18.0567 22.0004 17.4542 22.0004C16.8517 22.0004 16.3633 22.4888 16.3633 23.0913C16.3633 23.6938 16.8517 24.1823 17.4542 24.1823Z" fill="#0E9347"/>
<path d="M30.545 24.1823C31.1475 24.1823 31.6359 23.6938 31.6359 23.0913C31.6359 22.4888 31.1475 22.0004 30.545 22.0004C29.9425 22.0004 29.4541 22.4888 29.4541 23.0913C29.4541 23.6938 29.9425 24.1823 30.545 24.1823Z" fill="#0E9347"/>
<path d="M24.5456 22.5452H23.4547C23.1274 22.5452 22.9092 22.327 22.9092 21.9997C22.9092 21.6725 23.1274 21.4543 23.4547 21.4543H25.091C25.4183 21.4543 25.6365 21.2361 25.6365 20.9089C25.6365 20.5816 25.4183 20.3634 25.091 20.3634H24.5456C24.5456 20.0361 24.3274 19.818 24.0001 19.818C23.6729 19.818 23.4547 20.0362 23.4547 20.3634C22.5274 20.3634 21.8184 21.0725 21.8184 21.9998C21.8184 22.9271 22.5274 23.6361 23.4547 23.6361H24.5456C24.8729 23.6361 25.0911 23.8543 25.0911 24.1816C25.0911 24.5089 24.8729 24.727 24.5456 24.727H22.9093C22.582 24.727 22.3638 24.9452 22.3638 25.2725C22.3638 25.5997 22.582 25.8179 22.9093 25.8179H23.4547C23.4547 26.1452 23.6729 26.3633 24.0001 26.3633C24.3274 26.3633 24.5456 26.1451 24.5456 25.8179C25.4729 25.8179 26.1819 25.1088 26.1819 24.1815C26.1819 23.2543 25.4729 22.5452 24.5456 22.5452Z" fill="#89C763"/>
</svg>
