<svg width="194" height="180" viewBox="0 0 194 180" fill="none" xmlns="http://www.w3.org/2000/svg">
<g clip-path="url(#clip0)">
<path d="M43.5621 99.0548C43.5621 99.0548 38.8524 100.374 42.9815 110.519C47.1106 120.659 50.1386 125.766 50.1386 125.766C50.1386 125.766 50.8268 128.096 48.8956 128.285C46.9644 128.474 42.8395 127.446 41.7944 129.699C40.7105 132.033 42.2675 134.457 45.6482 136.757C49.0289 139.057 56.2506 144.361 56.9044 144.843C57.5452 145.315 58.1302 146.424 56.8356 146.764C55.5409 147.104 46.0439 147.28 46.4009 151.776C46.7536 156.272 57.227 161.13 58.3625 161.68C59.498 162.234 59.7345 162.754 59.584 163.391C59.4335 164.027 56.2377 163.786 53.5366 163.945C50.8397 164.104 47.7386 164.766 48.1601 167.345C48.5816 169.924 54.5301 175.77 69.9455 178.624L77.1758 179.48L81.6447 173.694C90.4535 160.734 90.475 152.395 88.9352 150.28C87.3954 148.17 84.7458 149.906 82.7372 151.712C80.7243 153.517 78.6468 155.958 78.0919 155.619C77.5328 155.279 77.3306 154.742 77.7349 153.547C78.1392 152.352 82.0447 141.498 79.0941 138.081C76.1435 134.668 69.3391 141.292 68.1906 141.971C67.0379 142.655 66.6637 141.455 66.7756 140.669C66.8917 139.865 68.1906 131.001 68.9347 126.982C69.6745 122.963 69.0466 120.152 66.625 119.284C64.2895 118.445 62.1131 122.099 60.6249 123.337C59.1324 124.575 57.9582 122.447 57.9582 122.447C57.9582 122.447 56.4528 116.709 52.1387 106.642C47.8246 96.5746 43.4804 99.0763 43.4804 99.0763" fill="#EBEBEB"/>
<path d="M76.2856 178.229C73.1458 170.827 68.8919 160.558 64.2338 149.205C59.5756 137.853 55.3518 127.58 52.2507 120.16C50.7023 116.459 49.4463 113.459 48.5732 111.374C48.1431 110.347 47.8076 109.543 47.5753 108.984C47.4678 108.718 47.3818 108.512 47.3216 108.361C47.2656 108.219 47.2441 108.146 47.2441 108.146C47.2441 108.146 47.2829 108.215 47.3474 108.352C47.4119 108.499 47.5065 108.705 47.6226 108.967C47.8635 109.522 48.2162 110.317 48.6635 111.34C49.5625 113.399 50.8442 116.391 52.4141 120.096C55.554 127.498 59.8079 137.763 64.4617 149.115C69.1199 160.472 73.3479 170.745 76.4448 178.165" fill="#E0E0E0"/>
<path d="M47.5064 131.367C47.515 131.349 47.6914 131.414 48.0011 131.547C48.315 131.676 48.7624 131.878 49.3086 132.132C50.4054 132.643 51.9022 133.387 53.5367 134.238C55.141 135.085 56.5905 135.846 57.7131 136.439C58.212 136.697 58.6336 136.92 58.9819 137.101C59.283 137.256 59.4465 137.35 59.4379 137.363C59.4293 137.38 59.2529 137.316 58.9389 137.187C58.6249 137.058 58.1776 136.856 57.6314 136.598C56.5389 136.078 55.0507 135.313 53.4162 134.462C51.8076 133.628 50.3495 132.875 49.2226 132.295C48.7237 132.037 48.2978 131.818 47.9494 131.642C47.6613 131.478 47.4978 131.384 47.5064 131.367Z" fill="#E0E0E0"/>
<path d="M59.9753 136.938C59.9108 136.907 61.3087 133.757 63.0936 129.897C64.8786 126.037 66.3754 122.933 66.4399 122.963C66.5045 122.993 65.1066 126.144 63.3216 130.004C61.5366 133.864 60.0398 136.968 59.9753 136.938Z" fill="#E0E0E0"/>
<path d="M66.3413 154.695C66.3284 154.682 66.4488 154.531 66.6725 154.269C66.9348 153.968 67.2531 153.599 67.6273 153.164C68.4359 152.232 69.5456 150.942 70.7199 149.472C71.8984 148.006 72.9178 146.644 73.649 145.651C73.9888 145.191 74.2812 144.795 74.5178 144.477C74.7243 144.202 74.8447 144.052 74.8619 144.064C74.8748 144.073 74.7802 144.241 74.5995 144.533C74.4146 144.825 74.1436 145.247 73.7952 145.754C73.0984 146.773 72.0962 148.157 70.9177 149.627C69.7392 151.101 68.6037 152.378 67.765 153.28C67.3434 153.732 66.995 154.089 66.7499 154.334C66.4961 154.579 66.3542 154.708 66.3413 154.695Z" fill="#E0E0E0"/>
<path d="M53.9537 152.137C53.958 152.12 54.1343 152.137 54.4483 152.184C54.7623 152.232 55.2182 152.305 55.7817 152.404C56.9043 152.597 58.4527 152.885 60.1646 153.212C61.8722 153.543 63.4163 153.856 64.5346 154.093C65.0937 154.213 65.5411 154.312 65.8507 154.39C66.1604 154.463 66.3325 154.514 66.3282 154.531C66.3239 154.549 66.1475 154.531 65.8335 154.484C65.5195 154.437 65.0636 154.364 64.5002 154.265C63.3776 154.071 61.8291 153.783 60.1173 153.457C58.4097 153.126 56.8656 152.812 55.7516 152.576C55.1924 152.455 54.7451 152.356 54.4311 152.279C54.1214 152.202 53.9494 152.154 53.9537 152.137Z" fill="#E0E0E0"/>
<path d="M57.5797 168.527C57.584 168.51 57.8076 168.536 58.2119 168.596C58.6635 168.669 59.2356 168.759 59.9195 168.871C61.3604 169.112 63.3475 169.464 65.5411 169.864C67.7347 170.268 69.7176 170.646 71.1499 170.93C71.8294 171.072 72.3972 171.188 72.8445 171.283C73.2445 171.373 73.4639 171.429 73.4596 171.446C73.4553 171.463 73.2316 171.437 72.8273 171.377C72.3757 171.304 71.8036 171.214 71.1197 171.102C69.6789 170.861 67.6917 170.509 65.4938 170.109C63.3002 169.705 61.3174 169.331 59.8851 169.043C59.2055 168.901 58.6377 168.785 58.1904 168.691C57.7947 168.6 57.5754 168.544 57.5797 168.527Z" fill="#E0E0E0"/>
<path d="M73.1067 171.265C73.0938 171.253 73.2401 171.059 73.5111 170.715C73.8164 170.337 74.2078 169.856 74.6724 169.271C75.653 168.054 77.0036 166.365 78.4445 164.465C79.8854 162.565 81.1499 160.811 82.0532 159.535C82.4876 158.929 82.8446 158.421 83.1285 158.026C83.3822 157.669 83.5328 157.48 83.5457 157.489C83.5586 157.497 83.4382 157.708 83.2102 158.082C82.9779 158.456 82.6338 158.989 82.1994 159.638C81.3306 160.94 80.0875 162.716 78.6467 164.62C77.2058 166.524 75.8294 168.196 74.8143 169.387C74.3025 169.98 73.8853 170.457 73.5885 170.78C73.2874 171.102 73.1196 171.274 73.1067 171.265Z" fill="#E0E0E0"/>
<path d="M133.977 178.19C123.71 171.605 120.936 158.748 120.871 147.091C120.863 145.143 120.566 143.106 121.426 141.365C122.287 139.624 124.398 138.373 126.171 139.125C127.642 139.749 128.338 141.404 129.199 142.758C130.347 144.563 132.007 146.029 133.93 146.932C135.194 147.525 136.739 147.856 137.934 147.134C139.573 146.145 139.681 143.819 139.594 141.889C139.431 138.287 139.268 134.689 139.1 131.087C139.014 129.157 138.928 127.184 139.457 125.323C139.986 123.466 141.246 121.708 143.066 121.123C144.885 120.534 147.203 121.506 147.663 123.384C147.857 124.167 147.728 124.988 147.814 125.787C147.9 126.587 148.309 127.459 149.079 127.653C149.861 127.851 150.61 127.27 151.169 126.681C153.087 124.652 154.343 122.086 155.509 119.537C156.674 116.988 157.806 114.379 159.53 112.182C161.259 109.982 163.698 108.198 166.46 107.931C169.221 107.665 172.24 109.259 173.049 111.946C173.858 114.641 172.378 117.47 170.731 119.744C168.292 123.118 165.367 126.131 162.081 128.659C161.487 129.114 160.847 129.609 160.64 130.335C160.27 131.642 161.543 132.871 162.834 133.245C164.292 133.666 165.853 133.456 167.367 133.576C168.881 133.692 170.541 134.294 171.169 135.695C172.038 137.638 170.468 139.775 168.894 141.193C165.746 144.039 162.111 146.33 158.201 147.937C156.799 148.513 155.32 149.029 154.214 150.074C153.104 151.118 152.481 152.881 153.229 154.218C153.978 155.554 155.771 155.92 157.251 155.584C158.73 155.249 160.029 154.389 161.432 153.796C164.051 152.687 167.488 152.739 169.281 154.965C170.46 156.431 170.64 158.529 170.146 160.347C169.651 162.17 168.563 163.76 167.402 165.239C163.337 170.401 158.047 174.635 151.965 177.013C145.879 179.385 140.188 180.185 133.977 178.19Z" fill="#F5F5F5"/>
<path d="M136.696 170.775C138.179 164.835 140.343 158.456 142.838 151.862C143.466 150.216 144.089 148.591 144.704 146.987C145.319 145.388 145.93 143.802 146.623 142.289C147.995 139.254 149.547 136.443 151.104 133.821C152.661 131.195 154.231 128.762 155.72 126.496C157.212 124.231 158.644 122.151 160.029 120.307C162.791 116.61 165.363 113.893 167.208 112.101C168.129 111.202 168.864 110.528 169.372 110.076C169.617 109.861 169.806 109.694 169.948 109.569C170.081 109.457 170.15 109.401 170.154 109.406C170.159 109.41 170.098 109.474 169.974 109.595C169.836 109.728 169.651 109.904 169.419 110.128C168.929 110.596 168.21 111.284 167.307 112.195C165.496 114.014 162.958 116.747 160.236 120.453C158.868 122.301 157.453 124.386 155.973 126.656C154.498 128.925 152.937 131.362 151.393 133.984C149.849 136.607 148.309 139.414 146.945 142.431C146.257 143.936 145.655 145.509 145.04 147.112C144.429 148.715 143.805 150.34 143.177 151.987C140.683 158.576 138.515 164.934 137.018 170.853" fill="#E0E0E0"/>
<path d="M146.726 142.268C146.7 142.272 146.623 141.98 146.506 141.451C146.382 140.922 146.231 140.149 146.059 139.19C145.711 137.277 145.319 134.616 144.898 131.685C144.476 128.749 144.046 126.105 143.672 124.201C143.487 123.251 143.328 122.482 143.212 121.949C143.1 121.416 143.048 121.119 143.07 121.115C143.096 121.11 143.19 121.394 143.345 121.914C143.504 122.434 143.698 123.2 143.917 124.145C144.36 126.041 144.829 128.693 145.25 131.629C145.659 134.526 146.029 137.144 146.309 139.143C146.442 140.045 146.554 140.806 146.644 141.417C146.717 141.963 146.752 142.263 146.726 142.268Z" fill="#E0E0E0"/>
<path d="M171.402 136.65C171.402 136.675 171.053 136.731 170.417 136.809C169.78 136.89 168.86 137.002 167.728 137.183C165.462 137.518 162.343 138.09 158.937 138.872C155.526 139.658 152.472 140.505 150.279 141.18C149.177 141.511 148.296 141.799 147.685 141.997C147.074 142.195 146.734 142.298 146.726 142.272C146.717 142.25 147.044 142.104 147.642 141.864C148.24 141.627 149.113 141.296 150.205 140.935C152.386 140.196 155.44 139.31 158.859 138.519C162.279 137.737 165.414 137.2 167.698 136.929C168.838 136.783 169.767 136.71 170.408 136.671C171.045 136.632 171.402 136.624 171.402 136.65Z" fill="#E0E0E0"/>
<path d="M136.984 170.303C136.971 170.307 136.911 170.208 136.803 170.006C136.678 169.765 136.528 169.477 136.343 169.125C135.947 168.355 135.401 167.229 134.747 165.832C133.435 163.034 131.745 159.109 129.938 154.755C128.132 150.4 126.48 146.463 125.229 143.643C124.618 142.272 124.11 141.141 123.736 140.303C123.577 139.938 123.444 139.637 123.336 139.392C123.25 139.181 123.207 139.07 123.22 139.065C123.233 139.061 123.293 139.164 123.401 139.362C123.525 139.598 123.676 139.891 123.861 140.243C124.257 141.013 124.803 142.139 125.457 143.536C126.768 146.334 128.459 150.259 130.265 154.613C132.072 158.967 133.723 162.901 134.975 165.725C135.59 167.096 136.093 168.226 136.468 169.065C136.627 169.43 136.76 169.731 136.868 169.976C136.954 170.187 136.992 170.298 136.984 170.303Z" fill="#E0E0E0"/>
<path d="M169.599 158.366C169.604 158.379 169.492 158.43 169.277 158.512C169.023 158.606 168.709 158.727 168.33 158.873C167.457 159.195 166.274 159.629 164.838 160.158C161.887 161.246 157.831 162.789 153.354 164.504C148.872 166.219 144.799 167.728 141.827 168.755C140.343 169.267 139.134 169.671 138.295 169.933C137.908 170.053 137.586 170.148 137.328 170.23C137.104 170.294 136.988 170.32 136.984 170.307C136.979 170.294 137.091 170.242 137.306 170.156C137.56 170.062 137.874 169.942 138.252 169.8C139.125 169.477 140.308 169.043 141.745 168.514C144.696 167.431 148.752 165.884 153.229 164.169C157.707 162.454 161.78 160.945 164.752 159.917C166.236 159.406 167.444 159.002 168.283 158.74C168.67 158.619 168.993 158.525 169.251 158.443C169.479 158.379 169.595 158.353 169.599 158.366Z" fill="#E0E0E0"/>
<path d="M158.567 16.9361L151.117 39.0605C150.506 40.8702 151.345 42.8475 153.066 43.6728C154.881 44.5454 157.061 43.8405 158.025 42.0695L169.281 21.3722C170.133 19.8032 169.419 17.8474 167.758 17.194L162.464 15.1178C160.885 14.4989 159.109 15.3285 158.567 16.9361Z" fill="#E0E0E0"/>
<path d="M153.823 58.1416C151.78 60.5273 148.188 60.8024 145.801 58.7606C143.414 56.7188 143.138 53.1252 145.182 50.7439C147.225 48.3582 150.82 48.0831 153.203 50.1249C155.59 52.1667 155.87 55.7602 153.823 58.1416Z" fill="#E0E0E0"/>
<path d="M170.782 56.1213L173.479 64.1122C173.699 64.7656 174.374 65.1525 175.049 65.0149C175.763 64.8688 176.236 64.1896 176.124 63.4718L174.834 55.0596C174.735 54.4234 174.103 54.015 173.483 54.1913L171.505 54.7501C170.916 54.9134 170.589 55.541 170.782 56.1213Z" fill="#E0E0E0"/>
<path d="M178.43 69.0082C178.365 70.1387 177.389 71.007 176.258 70.9383C175.127 70.8738 174.258 69.898 174.327 68.7675C174.391 67.637 175.367 66.7687 176.499 66.8375C177.634 66.902 178.499 67.8777 178.43 69.0082Z" fill="#E0E0E0"/>
<path d="M194 179.858C194 179.918 150.567 179.97 97.0043 179.97C43.4203 179.97 0 179.918 0 179.858C0 179.798 43.4203 179.746 97.0043 179.746C150.567 179.746 194 179.798 194 179.858Z" fill="#263238"/>
<path d="M120.119 45.2676C119.551 47.3309 118.979 49.4371 119.121 51.5735C119.263 53.7056 120.252 55.9064 122.128 56.938C124.278 58.1201 127.564 57.9052 128.463 60.192C129.078 61.7524 128.08 63.6996 128.954 65.131C130.192 67.1642 133.543 66.0079 135.513 67.3447C137.035 68.3807 137.229 70.5342 137.057 72.3697C136.889 74.2051 136.541 76.1867 137.461 77.7815C138.524 79.6256 140.971 80.3434 141.982 82.2176C143.225 84.5216 141.745 87.3285 140.085 89.3531C138.429 91.3777 136.425 93.5398 136.567 96.1533L105.689 97.099L103.757 47.9885L120.119 45.2676Z" fill="#263238"/>
<path d="M122.885 66.8504C122.863 66.8547 122.829 66.614 122.661 66.2185C122.489 65.8273 122.149 65.2943 121.568 64.7914C120.988 64.2885 120.192 63.8199 119.25 63.4288C118.312 63.0247 117.229 62.6679 116.201 62.0318C115.689 61.7137 115.229 61.3311 114.867 60.8841C114.506 60.4413 114.244 59.9427 114.071 59.4526C113.732 58.4597 113.693 57.5054 113.723 56.7274C113.758 55.9451 113.856 55.3218 113.938 54.8919C113.977 54.677 114.016 54.5137 114.041 54.4019C114.067 54.2901 114.089 54.2343 114.093 54.2343C114.11 54.2386 114.076 54.475 114.02 54.9048C113.968 55.3347 113.891 55.958 113.878 56.7274C113.865 57.4968 113.925 58.4253 114.261 59.3796C114.433 59.8524 114.687 60.3209 115.035 60.7422C115.379 61.1635 115.822 61.5288 116.317 61.8383C117.31 62.453 118.39 62.8184 119.332 63.2353C120.282 63.6394 121.091 64.138 121.676 64.671C122.261 65.2041 122.596 65.7715 122.743 66.1841C122.816 66.3904 122.859 66.5581 122.872 66.6742C122.889 66.7859 122.893 66.8461 122.885 66.8504Z" fill="#455A64"/>
<path d="M75.4857 160.631L71.9028 179.854H142.425C142.425 179.854 140.008 168.48 129.969 155.885L75.4857 160.631Z" fill="#263238"/>
<path d="M74.4704 142.229L71.9413 105.464L76.1306 67.8305L99.0301 64.6367L115.783 66.4893L127.211 105.116L130.291 139.538C130.291 139.538 131.925 144.967 133.818 151.312C134.872 154.837 133.439 158.649 130.291 160.562C127.568 162.217 123.499 163.502 117.615 162.892C104.045 161.478 88.66 159.002 81.2318 160.24C73.8037 161.478 72.7413 159.711 72.7413 159.711C72.7413 159.711 70.3972 157.411 71.1284 154.763C71.8553 152.107 74.4704 142.229 74.4704 142.229Z" fill="#E8505B"/>
<path d="M129.534 139.315C129.539 139.319 129.474 139.375 129.341 139.478C129.19 139.59 128.997 139.732 128.764 139.904C128.24 140.29 127.521 140.819 126.644 141.468C124.855 142.796 122.42 144.675 119.753 146.781C117.087 148.887 114.674 150.8 112.906 152.154C112.024 152.833 111.302 153.375 110.798 153.745C110.562 153.917 110.368 154.054 110.218 154.166C110.084 154.261 110.011 154.308 110.007 154.299C110.003 154.295 110.067 154.235 110.192 154.127C110.338 154.007 110.523 153.856 110.747 153.676C111.259 153.268 111.955 152.713 112.807 152.03C114.571 150.624 116.966 148.715 119.616 146.605C122.283 144.499 124.739 142.637 126.549 141.339C127.457 140.69 128.197 140.174 128.717 139.83C128.962 139.671 129.16 139.542 129.319 139.435C129.457 139.353 129.53 139.31 129.534 139.315Z" fill="white"/>
<path d="M111.052 78.0351C111 78.0738 110.476 77.4505 109.869 76.6467C109.267 75.8428 108.82 75.1637 108.867 75.125C108.919 75.0863 109.443 75.7096 110.05 76.5134C110.652 77.3172 111.104 77.9964 111.052 78.0351Z" fill="#263238"/>
<path d="M113.809 72.3697C113.753 72.4084 113.267 71.6303 112.372 70.9769C111.491 70.3107 110.605 70.07 110.626 70.0012C110.63 69.9453 111.581 70.1 112.51 70.7964C113.443 71.4799 113.861 72.3482 113.809 72.3697Z" fill="#263238"/>
<path d="M92.1353 77.3086C92.187 77.3516 91.5848 78.0179 91.2493 79.0366C90.8966 80.0511 90.974 80.9452 90.9052 80.9495C90.8536 80.9667 90.6686 80.0382 91.0385 78.9679C91.3955 77.8889 92.1052 77.2614 92.1353 77.3086Z" fill="#263238"/>
<path d="M83.4083 69.7863C83.4083 69.8507 82.4147 69.8722 81.2103 70.0485C80.006 70.2204 79.0512 70.4826 79.0297 70.4181C79.0082 70.3623 79.9501 70.0012 81.1802 69.8249C82.4061 69.6487 83.4126 69.7304 83.4083 69.7863Z" fill="#263238"/>
<g opacity="0.3">
<path opacity="0.3" d="M74.6899 138.984C80.5997 136.555 84.574 130.859 86.9612 124.936C89.3483 119.013 90.4752 112.655 92.643 106.646C93.2753 104.892 94.385 102.88 96.2517 102.825C97.7786 102.777 98.9614 104.106 99.8389 105.361C103.985 111.28 106.605 118.097 109.792 124.584C112.979 131.066 116.945 137.458 122.928 141.515C124.033 142.263 125.254 142.943 126.584 143.02C127.917 143.097 129.375 142.405 129.801 141.141C129.977 140.626 129.969 140.067 129.956 139.521C129.895 136.28 129.835 133.034 129.779 129.793C129.715 126.29 129.633 122.692 128.308 119.447C126.373 114.71 122.106 111.413 118.183 108.125C113.026 103.8 108.144 99.0763 104.239 93.5957C102.85 91.6485 101.555 89.5723 99.6711 88.0979C97.7872 86.6235 95.1162 85.8627 92.9699 86.9201C90.5785 88.0979 89.6709 90.9779 88.9827 93.5484C85.073 108.181 80.6729 122.684 75.7996 137.028" fill="black"/>
</g>
<path d="M74.105 136.916C78.4277 136.546 81.7439 131.771 82.9267 127.597L92.4237 94.1115L77.9244 84.3969L72.1437 103.65L76.1308 67.8218C76.1308 67.8218 62.8187 71.1919 59.7004 87.3113C57.0552 100.985 56.1433 113.708 56.767 118.686C56.7627 118.69 56.8573 138.395 74.105 136.916Z" fill="#E8505B"/>
<path d="M98.8496 96.927C98.8496 96.927 105.443 113.605 111.955 123.281C118.179 132.532 128.704 141.846 135.457 140.746C142.214 139.641 145.741 122.434 145.741 116.004C145.741 109.578 137.478 83.1331 137.478 83.1331C137.478 83.1331 135.822 68.2689 121.439 66.4893L111.314 65.995L126.691 104.02L120.226 96.3081C120.226 96.3081 121.057 94.2362 120.02 91.9537C118.983 89.6712 112.136 83.8682 112.136 83.8682L98.8496 96.927Z" fill="#E8505B"/>
<path d="M72.4963 98.8872C72.4791 98.8914 72.4232 98.7023 72.3371 98.3584C72.2511 98.0146 72.1178 97.5159 71.9414 96.9098C71.5887 95.6934 71.0124 94.0341 70.178 92.2889C69.3435 90.5438 68.4145 89.0565 67.6919 88.0162C67.3306 87.4961 67.0295 87.0792 66.8144 86.7955C66.6037 86.5118 66.4919 86.3484 66.5005 86.3398C66.5134 86.3312 66.6467 86.4731 66.8833 86.7439C67.1198 87.0104 67.4424 87.4144 67.8209 87.926C68.5822 88.949 69.5414 90.4363 70.3801 92.1944C71.2188 93.9525 71.7737 95.6332 72.092 96.8669C72.2511 97.4858 72.363 97.9888 72.4189 98.3412C72.4834 98.6894 72.5135 98.8829 72.4963 98.8872Z" fill="#263238"/>
<path d="M119.569 119.352C119.56 119.357 119.526 119.279 119.47 119.133C119.405 118.961 119.323 118.751 119.225 118.493C119.117 118.213 118.997 117.869 118.876 117.465C118.756 117.061 118.601 116.601 118.48 116.081C118.347 115.565 118.205 114.998 118.093 114.383C117.96 113.769 117.87 113.107 117.766 112.41C117.594 111.009 117.487 109.461 117.508 107.832C117.543 106.203 117.706 104.66 117.93 103.267C118.059 102.575 118.171 101.913 118.33 101.307C118.463 100.693 118.627 100.134 118.777 99.6222C118.915 99.1064 119.087 98.655 119.225 98.2553C119.358 97.8555 119.491 97.5159 119.612 97.2408C119.719 96.9872 119.809 96.7766 119.878 96.6089C119.943 96.4671 119.977 96.3897 119.986 96.394C119.994 96.3983 119.969 96.4757 119.921 96.6261C119.861 96.7981 119.784 97.0087 119.693 97.2709C119.59 97.5503 119.465 97.8899 119.345 98.294C119.22 98.698 119.061 99.1494 118.932 99.6652C118.79 100.177 118.64 100.736 118.511 101.346C118.36 101.952 118.257 102.61 118.132 103.297C117.921 104.682 117.766 106.216 117.728 107.837C117.706 109.453 117.805 110.992 117.964 112.384C118.063 113.077 118.145 113.738 118.27 114.349C118.373 114.964 118.506 115.531 118.627 116.047C118.734 116.567 118.88 117.023 118.988 117.431C119.095 117.839 119.203 118.183 119.298 118.467C119.379 118.729 119.448 118.948 119.5 119.12C119.556 119.266 119.577 119.348 119.569 119.352Z" fill="#263238"/>
<path d="M137.311 123.281C137.302 123.281 137.302 123.208 137.311 123.075C137.319 122.916 137.332 122.727 137.349 122.495C137.375 122.245 137.397 121.936 137.392 121.579C137.392 121.222 137.418 120.814 137.379 120.367C137.367 120.143 137.354 119.907 137.341 119.662C137.324 119.417 137.281 119.163 137.255 118.901C137.207 118.377 137.083 117.822 136.971 117.242C136.704 116.086 136.313 114.835 135.758 113.584C135.186 112.337 134.506 111.22 133.818 110.252C133.457 109.784 133.121 109.328 132.76 108.941C132.584 108.744 132.42 108.546 132.248 108.374C132.076 108.202 131.908 108.039 131.745 107.88C131.435 107.553 131.113 107.304 130.846 107.067C130.579 106.827 130.334 106.642 130.132 106.491C129.951 106.349 129.797 106.233 129.672 106.139C129.569 106.057 129.517 106.01 129.521 106.001C129.526 105.993 129.586 106.027 129.698 106.1C129.831 106.186 129.99 106.293 130.184 106.422C130.394 106.56 130.652 106.736 130.928 106.973C131.203 107.2 131.538 107.446 131.857 107.768C132.02 107.923 132.197 108.086 132.373 108.258C132.549 108.43 132.717 108.628 132.898 108.821C133.272 109.204 133.612 109.664 133.986 110.132C134.691 111.104 135.388 112.234 135.964 113.494C136.528 114.762 136.915 116.03 137.177 117.199C137.285 117.788 137.401 118.347 137.444 118.88C137.47 119.146 137.508 119.4 137.521 119.649C137.53 119.894 137.539 120.135 137.547 120.363C137.577 120.814 137.539 121.227 137.53 121.588C137.521 121.949 137.487 122.254 137.453 122.507C137.422 122.735 137.392 122.929 137.371 123.083C137.332 123.212 137.319 123.281 137.311 123.281Z" fill="#263238"/>
<path d="M137.724 111.542C137.698 111.563 137.354 111.146 136.786 110.485C136.214 109.831 135.427 108.916 134.412 108.069C133.405 107.213 132.326 106.65 131.483 106.496C130.64 106.324 130.098 106.453 130.093 106.401C130.089 106.384 130.222 106.358 130.468 106.319C130.588 106.293 130.739 106.285 130.915 106.293C131.005 106.293 131.1 106.298 131.199 106.298C131.302 106.315 131.405 106.328 131.513 106.345C132.399 106.465 133.534 107.033 134.558 107.901C135.59 108.765 136.369 109.706 136.911 110.39C137.182 110.734 137.388 111.022 137.526 111.224C137.663 111.417 137.732 111.533 137.724 111.542Z" fill="#263238"/>
<path d="M140.743 108.481C140.709 108.559 139.156 107.622 137.014 107.183C134.868 106.741 133.079 107.076 133.074 106.994C133.07 106.968 133.504 106.857 134.231 106.796C134.954 106.732 135.969 106.745 137.057 106.964C138.145 107.188 139.087 107.562 139.737 107.884C140.386 108.206 140.756 108.46 140.743 108.481Z" fill="#263238"/>
<path d="M131.358 71.5358C131.362 71.5443 131.289 71.5873 131.147 71.6604C130.984 71.7421 130.777 71.8495 130.523 71.9785C130.386 72.0473 130.235 72.1204 130.072 72.202C129.913 72.2923 129.745 72.404 129.564 72.5158C129.203 72.7479 128.773 72.9844 128.36 73.3325C128.145 73.4959 127.921 73.6721 127.689 73.8484C127.465 74.0418 127.25 74.2567 127.014 74.4716C126.532 74.8843 126.11 75.4216 125.629 75.946C124.738 77.0593 123.878 78.3833 123.143 79.8577C121.68 82.8236 120.958 85.7552 120.549 87.8744C120.433 88.4031 120.373 88.8888 120.3 89.3144C120.226 89.7399 120.175 90.1053 120.14 90.4062C120.102 90.6856 120.067 90.9134 120.042 91.0982C120.016 91.2573 119.998 91.339 119.994 91.339C119.986 91.339 119.99 91.253 119.998 91.0939C120.011 90.9091 120.033 90.677 120.054 90.3976C120.08 90.0967 120.115 89.7227 120.179 89.2972C120.239 88.8716 120.291 88.3816 120.399 87.8486C120.773 85.7122 121.474 82.7549 122.949 79.7588C123.693 78.2715 124.566 76.939 125.478 75.8171C125.973 75.2884 126.403 74.751 126.898 74.3384C127.138 74.1235 127.358 73.9085 127.59 73.7151C127.827 73.5389 128.059 73.3669 128.278 73.2036C128.704 72.8597 129.143 72.6319 129.513 72.4041C129.702 72.2966 129.87 72.1848 130.037 72.1032C130.205 72.0301 130.36 71.957 130.502 71.8968C130.764 71.7851 130.975 71.6905 131.143 71.6174C131.276 71.5572 131.354 71.5315 131.358 71.5358Z" fill="#263238"/>
<path d="M68.4276 109.973C68.4233 109.973 68.4362 109.93 68.462 109.853C68.4921 109.767 68.5308 109.646 68.5824 109.496C68.6942 109.173 68.8534 108.714 69.0598 108.116C69.4857 106.904 70.105 105.146 70.8835 102.923C72.4664 98.4659 74.7073 92.1514 77.3568 84.6892L77.3955 84.5731L77.503 84.6333C79.8472 85.9873 82.1268 87.7067 84.6258 89.2671C87.1549 90.7974 89.7829 92.3878 92.4797 94.0212L92.5528 94.0642L92.5313 94.1459C92.3808 94.6789 92.2131 95.2506 92.0496 95.8266C88.1786 109.259 84.7075 121.295 82.4021 129.308V129.312V129.316C80.9311 132.587 79.1375 134.93 77.503 136.043C76.6944 136.602 75.946 136.839 75.4385 136.899C75.1847 136.925 74.9912 136.933 74.8578 136.92C74.7288 136.916 74.66 136.907 74.66 136.907C74.66 136.907 74.7288 136.903 74.8578 136.899C74.9869 136.903 75.1804 136.89 75.4299 136.856C75.9288 136.783 76.66 136.542 77.4557 135.975C79.0558 134.857 80.8193 132.51 82.2644 129.256L82.2601 129.265C84.5527 121.248 87.9936 109.204 91.8346 95.7621C91.998 95.1861 92.1657 94.6144 92.3163 94.0814L92.3636 94.2061C89.6668 92.5726 87.0431 90.9822 84.514 89.4476C82.0021 87.8744 79.7311 86.155 77.4041 84.8052L77.5504 84.7537C74.8707 92.203 72.5997 98.5089 70.9997 102.962C70.1954 105.176 69.5588 106.925 69.1201 108.133C68.9007 108.726 68.733 109.182 68.6125 109.5C68.5566 109.651 68.5136 109.767 68.4792 109.853C68.4491 109.934 68.4319 109.973 68.4276 109.973Z" fill="#263238"/>
<path d="M68.7716 109.685C68.7888 109.724 68.1996 109.96 67.3221 110.463C66.4447 110.966 65.292 111.774 64.2124 112.883C63.1371 113.992 62.3586 115.17 61.8855 116.06C61.408 116.954 61.1887 117.547 61.15 117.53C61.137 117.525 61.1801 117.375 61.2704 117.1C61.3607 116.829 61.5199 116.447 61.7435 115.982C62.1908 115.062 62.9607 113.85 64.0532 112.72C65.15 111.594 66.3372 110.79 67.249 110.317C67.7049 110.08 68.0834 109.909 68.3501 109.814C68.6168 109.719 68.7673 109.668 68.7716 109.685Z" fill="#263238"/>
<path d="M68.935 108.417C68.9307 108.451 68.492 108.43 67.7823 108.443C67.0726 108.456 66.0962 108.524 65.0381 108.731C63.98 108.941 63.0467 109.247 62.3886 109.504C61.7262 109.762 61.3305 109.952 61.3133 109.917C61.3004 109.896 61.6746 109.655 62.3284 109.358C62.9779 109.062 63.9198 108.726 64.9951 108.512C66.0704 108.301 67.0683 108.254 67.7823 108.284C68.5006 108.31 68.9393 108.387 68.935 108.417Z" fill="#263238"/>
<path d="M130.949 140.114C130.949 140.114 130.863 140.084 130.696 140.02C130.519 139.951 130.274 139.848 129.951 139.719C129.629 139.577 129.212 139.444 128.756 139.199C128.295 138.962 127.766 138.691 127.169 138.39C124.829 137.092 121.642 134.81 118.334 131.341C115.001 127.902 111.59 123.286 108.377 117.839C105.172 112.384 102.144 106.1 99.5636 99.2697C99.2755 98.5003 98.9959 97.7309 98.7378 96.9614L98.7163 96.897L98.7679 96.8497C104.05 91.7215 109.048 86.8728 113.525 82.5313L113.598 82.4583L113.667 82.5313C115.878 84.9342 117.822 87.3242 119.293 89.7485C119.654 90.3589 119.981 90.9736 120.244 91.6012C120.497 92.2288 120.704 92.8778 120.7 93.5441C120.7 93.8794 120.588 94.2061 120.497 94.4941C120.403 94.7907 120.338 95.0873 120.291 95.3839C120.252 95.6805 120.239 95.9771 120.3 96.2522C120.347 96.523 120.519 96.7895 120.751 96.8497L120.777 96.8583L120.79 96.8712C123.616 99.8027 125.865 102.137 127.414 103.744C128.179 104.544 128.769 105.163 129.177 105.589C129.371 105.795 129.521 105.954 129.629 106.066C129.728 106.173 129.775 106.233 129.775 106.233C129.775 106.233 129.719 106.186 129.612 106.079C129.5 105.967 129.349 105.816 129.147 105.614C128.734 105.197 128.132 104.587 127.358 103.796C125.796 102.197 123.53 99.8801 120.687 96.97L120.725 96.9915C120.381 96.897 120.214 96.5789 120.149 96.2823C120.085 95.9771 120.097 95.6676 120.136 95.3581C120.183 95.0529 120.252 94.7434 120.343 94.4425C120.437 94.133 120.532 93.8493 120.532 93.5355C120.536 92.9079 120.334 92.2761 120.08 91.6571C119.822 91.0381 119.495 90.432 119.138 89.8302C117.672 87.4273 115.723 85.046 113.517 82.6603L113.659 82.6646C109.19 87.0147 104.196 91.8677 98.9185 97.0001L98.9486 96.8841C99.2066 97.6449 99.4862 98.4143 99.7701 99.1838C102.342 106.001 105.362 112.281 108.553 117.728C111.753 123.169 115.138 127.782 118.446 131.225C121.732 134.694 124.889 136.989 127.207 138.304C127.797 138.614 128.321 138.889 128.777 139.13C129.229 139.379 129.642 139.517 129.96 139.667C130.278 139.805 130.519 139.912 130.696 139.99C130.868 140.071 130.949 140.114 130.949 140.114Z" fill="#263238"/>
<path d="M106.57 120.698C106.57 120.711 106.359 120.711 105.985 120.676C105.611 120.642 105.069 120.556 104.411 120.38C103.108 120.04 101.344 119.258 99.8174 117.839C98.2905 116.425 97.3744 114.723 96.9399 113.45C96.7163 112.81 96.5915 112.277 96.527 111.907C96.4625 111.533 96.4496 111.327 96.4625 111.327C96.5055 111.318 96.613 112.152 97.0905 113.399C97.5593 114.641 98.4797 116.292 99.9723 117.676C101.469 119.06 103.185 119.851 104.458 120.225C105.736 120.612 106.575 120.655 106.57 120.698Z" fill="#263238"/>
<path d="M119.981 149.399C119.985 149.403 119.951 149.425 119.891 149.468C119.818 149.515 119.723 149.579 119.611 149.653C119.349 149.82 118.983 150.057 118.519 150.353C118.278 150.504 118.015 150.671 117.727 150.856C117.435 151.032 117.099 151.2 116.751 151.393C116.046 151.767 115.258 152.232 114.334 152.627C113.873 152.838 113.396 153.057 112.897 153.285C112.394 153.508 111.852 153.693 111.301 153.912C110.205 154.368 108.987 154.716 107.718 155.116C105.151 155.825 102.273 156.41 99.2108 156.702C96.144 156.96 93.2063 156.891 90.5568 156.65C89.2364 156.483 87.9761 156.354 86.8148 156.1C86.2341 155.984 85.6664 155.898 85.133 155.765C84.5997 155.627 84.0922 155.498 83.6018 155.374C82.6212 155.15 81.7652 154.828 81.0039 154.587C80.6254 154.458 80.2684 154.351 79.9501 154.23C79.6361 154.101 79.3437 153.985 79.0813 153.878C78.5738 153.667 78.1737 153.504 77.8856 153.384C77.7608 153.328 77.6576 153.285 77.5759 153.25C77.5071 153.22 77.4727 153.203 77.4727 153.199C77.4727 153.194 77.5114 153.207 77.5845 153.229C77.6662 153.259 77.7737 153.298 77.9028 153.341C78.1953 153.452 78.5996 153.603 79.1157 153.796C79.3781 153.895 79.6706 154.007 79.9888 154.132C80.3114 154.243 80.6684 154.346 81.0469 154.467C81.8082 154.695 82.6642 155.004 83.6491 155.219C84.1352 155.339 84.647 155.464 85.1761 155.597C85.7094 155.726 86.2728 155.804 86.8535 155.915C88.0105 156.16 89.2622 156.281 90.5783 156.444C93.2192 156.676 96.144 156.736 99.1936 156.479C102.243 156.191 105.108 155.615 107.663 154.918C108.927 154.527 110.144 154.183 111.237 153.74C111.787 153.525 112.329 153.349 112.828 153.13C113.327 152.906 113.809 152.692 114.265 152.49C115.194 152.107 115.981 151.651 116.691 151.29C117.043 151.105 117.375 150.942 117.671 150.77C117.964 150.594 118.231 150.435 118.471 150.289C118.94 150.009 119.314 149.786 119.581 149.627C119.702 149.558 119.796 149.502 119.874 149.459C119.947 149.412 119.981 149.395 119.981 149.399Z" fill="#263238"/>
<path d="M114.08 138.365C114.089 138.369 114.054 138.442 113.985 138.575C113.904 138.73 113.796 138.923 113.671 139.156C113.538 139.409 113.362 139.714 113.138 140.054C112.914 140.394 112.678 140.793 112.364 141.202C112.213 141.408 112.054 141.627 111.886 141.851C111.719 142.074 111.525 142.294 111.336 142.526C110.962 142.998 110.514 143.463 110.05 143.961C109.095 144.924 107.977 145.921 106.712 146.846C105.435 147.757 104.14 148.505 102.923 149.102C102.303 149.386 101.723 149.665 101.155 149.867C100.596 150.1 100.063 150.272 99.5722 150.426C99.0862 150.594 98.6346 150.693 98.2389 150.8C97.8474 150.908 97.5034 150.976 97.2195 151.024C96.9571 151.071 96.742 151.11 96.57 151.14C96.4195 151.166 96.342 151.174 96.342 151.166C96.342 151.157 96.4152 151.136 96.5614 151.097C96.7334 151.054 96.9442 151.002 97.2023 150.942C97.4819 150.882 97.8216 150.8 98.2087 150.68C98.5959 150.564 99.0475 150.456 99.5249 150.276C100.007 150.112 100.536 149.932 101.086 149.696C101.645 149.485 102.222 149.201 102.833 148.917C104.037 148.311 105.319 147.563 106.583 146.661C107.839 145.745 108.953 144.765 109.908 143.815C110.372 143.325 110.82 142.87 111.198 142.405C111.392 142.177 111.585 141.963 111.757 141.743C111.925 141.524 112.089 141.309 112.243 141.107C112.562 140.707 112.807 140.316 113.039 139.985C113.276 139.654 113.456 139.358 113.603 139.113C113.745 138.889 113.856 138.704 113.951 138.554C114.024 138.425 114.071 138.36 114.08 138.365Z" fill="#263238"/>
<path d="M104.149 98.1134C104.11 98.1521 103.392 97.4128 102.854 96.2737C102.308 95.1389 102.187 94.1158 102.243 94.1115C102.308 94.0986 102.527 95.0744 103.056 96.1791C103.581 97.2881 104.204 98.0704 104.149 98.1134Z" fill="#263238"/>
<path d="M108.239 93.7547C108.183 93.7805 107.715 92.8477 107.194 91.67C106.674 90.4922 106.299 89.5207 106.355 89.4949C106.411 89.4691 106.88 90.4019 107.401 91.5797C107.921 92.7532 108.295 93.7289 108.239 93.7547Z" fill="#263238"/>
<path d="M112.669 89.6024C112.605 89.6239 112.265 88.7298 111.71 87.6981C111.16 86.6622 110.609 85.8842 110.661 85.8412C110.704 85.8025 111.344 86.5375 111.908 87.5907C112.471 88.6438 112.725 89.5852 112.669 89.6024Z" fill="#263238"/>
<path d="M85.6666 96.2264C85.6063 96.2092 85.8988 95.0228 86.316 93.5828C86.544 92.8048 86.759 92.1084 86.9182 91.6442V91.6528C86.9999 91.2272 87.0644 90.9736 87.0945 90.9779C87.1246 90.9822 87.1117 91.2401 87.0644 91.6743V91.6829C86.9483 92.16 86.759 92.8649 86.5354 93.643C86.1139 95.0873 85.7268 96.2436 85.6666 96.2264Z" fill="#263238"/>
<path d="M81.1246 86.9158C81.1848 86.9373 80.9568 87.7583 80.6256 88.7556C80.2902 89.7528 79.9719 90.5438 79.9117 90.5266C79.8514 90.5051 80.0751 89.6841 80.4106 88.6868C80.7461 87.6895 81.0644 86.8943 81.1246 86.9158Z" fill="#263238"/>
<g opacity="0.2">
<path opacity="0.2" d="M68.6039 109.866C68.5781 109.139 68.0275 108.516 67.3737 108.189C66.7243 107.867 65.9802 107.785 65.2576 107.708C66.32 107.299 67.4125 106.869 68.2426 106.091C69.1845 105.206 69.6878 103.959 70.1652 102.756C71.2577 99.9962 72.3588 96.9227 71.3179 94.1416C71.1588 93.7117 71.077 93.0326 71.533 92.9724C71.8384 92.9294 72.0491 93.2604 72.1781 93.5398C72.6169 94.4984 73.0513 95.4526 73.49 96.4112" fill="black"/>
</g>
<g opacity="0.2">
<path opacity="0.2" d="M96.9829 113.248C96.8022 115.002 97.0732 116.799 97.77 118.42C98.4152 119.92 99.4862 121.317 101 121.936C102.514 122.55 104.488 122.172 105.366 120.797C103.542 120.135 101.688 119.46 100.149 118.282C98.6087 117.104 97.4044 115.325 97.4044 113.386" fill="black"/>
</g>
<path d="M124.743 67.392C124.747 67.3963 124.7 67.4436 124.609 67.5295C124.51 67.6241 124.377 67.7531 124.201 67.9164C123.831 68.2603 123.297 68.7546 122.618 69.3908C121.228 70.6717 119.233 72.5115 116.772 74.7811C111.813 79.3246 104.979 85.5876 97.4258 92.5082C96.7505 93.1272 96.0795 93.7375 95.4515 94.3092L95.3784 94.378L95.3053 94.3135C88.0234 88.0076 81.5158 82.3766 76.8189 78.3102C74.4876 76.277 72.608 74.6393 71.3005 73.5002C70.6596 72.9371 70.1607 72.4986 69.8123 72.1891C69.6488 72.043 69.5241 71.9312 69.4295 71.8452C69.3434 71.7679 69.3004 71.7249 69.3047 71.7206C69.309 71.7163 69.3563 71.755 69.4424 71.8281C69.5413 71.9097 69.6703 72.0172 69.8381 72.1547C70.1908 72.4556 70.6983 72.8855 71.3521 73.4357C72.6682 74.5619 74.5651 76.1824 76.9178 78.1941C81.6233 82.2433 88.1482 87.8572 95.4515 94.1416H95.3053C95.9333 93.5699 96.6043 92.9552 97.2795 92.3362C104.85 85.4371 111.701 79.1871 116.669 74.6565C119.151 72.4083 121.164 70.5858 122.566 69.3177C123.259 68.6987 123.801 68.213 124.175 67.8734C124.355 67.7144 124.493 67.594 124.596 67.5037C124.687 67.4307 124.738 67.3877 124.743 67.392Z" fill="white"/>
<path d="M139.044 89.8732C139.044 89.8904 138.777 89.9162 138.3 89.9506C138.059 89.9634 137.767 89.9892 137.427 90.0365C137.087 90.0795 136.7 90.1096 136.278 90.1913C135.857 90.26 135.392 90.3374 134.902 90.4578C134.407 90.5566 133.891 90.7071 133.345 90.8575C132.261 91.1885 131.091 91.6184 129.908 92.1729C128.73 92.7403 127.659 93.3808 126.721 94.0169C126.261 94.3479 125.818 94.6531 125.431 94.9755C125.031 95.2807 124.678 95.5945 124.36 95.8782C124.033 96.1533 123.762 96.437 123.517 96.6691C123.267 96.9012 123.065 97.1162 122.902 97.2924C122.571 97.6406 122.386 97.8297 122.373 97.8211C122.36 97.8125 122.528 97.6019 122.837 97.2322C122.992 97.0474 123.186 96.8239 123.427 96.5788C123.667 96.3338 123.93 96.0415 124.252 95.7578C124.566 95.4612 124.915 95.1432 125.315 94.8251C125.702 94.4941 126.145 94.1803 126.605 93.8407C127.547 93.1916 128.627 92.5383 129.814 91.9666C131.01 91.4034 132.192 90.9736 133.289 90.6555C133.844 90.5094 134.364 90.3632 134.868 90.2729C135.362 90.1612 135.831 90.0924 136.261 90.0322C136.687 89.9591 137.078 89.9377 137.418 89.9076C137.758 89.8732 138.055 89.8646 138.296 89.8603C138.777 89.856 139.04 89.8603 139.044 89.8732Z" fill="white"/>
<path d="M140.743 135.97C140.734 135.966 140.769 135.872 140.838 135.695C140.919 135.498 141.023 135.244 141.147 134.93C141.281 134.599 141.466 134.199 141.616 133.714C141.698 133.473 141.784 133.215 141.874 132.944C141.921 132.807 141.969 132.669 142.016 132.523C142.059 132.377 142.094 132.226 142.132 132.072C142.283 131.453 142.485 130.782 142.584 130.034C142.64 129.664 142.726 129.286 142.76 128.886C142.795 128.487 142.825 128.078 142.859 127.657C142.932 125.976 142.808 124.115 142.382 122.215C141.973 120.311 141.272 118.579 140.549 117.057C139.835 115.527 139.018 114.237 138.334 113.158C137.616 112.101 137.022 111.25 136.579 110.687C136.377 110.416 136.214 110.197 136.085 110.025C135.973 109.87 135.917 109.788 135.926 109.784C135.93 109.78 135.999 109.853 136.119 109.995C136.253 110.158 136.429 110.368 136.644 110.631C137.108 111.177 137.728 112.015 138.463 113.068C139.169 114.138 140.007 115.428 140.734 116.967C141.474 118.493 142.184 120.242 142.601 122.168C143.031 124.085 143.152 125.972 143.066 127.67C143.027 128.096 142.992 128.508 142.954 128.908C142.919 129.308 142.825 129.69 142.765 130.064C142.657 130.816 142.446 131.487 142.283 132.11C142.24 132.265 142.205 132.42 142.158 132.562C142.106 132.704 142.055 132.845 142.008 132.983C141.909 133.254 141.818 133.512 141.732 133.752C141.573 134.238 141.375 134.634 141.229 134.96C141.083 135.27 140.967 135.515 140.881 135.708C140.795 135.884 140.752 135.97 140.743 135.97Z" fill="white"/>
<path d="M120.644 132.777C120.648 132.738 121.083 132.983 121.9 132.893C122.7 132.811 123.874 132.291 124.696 131.066C125.534 129.862 126.042 128.156 126.61 126.299C127.156 124.429 127.612 122.336 127.896 120.105C128.481 115.643 128.201 111.542 127.762 108.636C127.53 107.183 127.285 106.014 127.096 105.21C127.001 104.828 126.928 104.518 126.872 104.286C126.825 104.075 126.803 103.964 126.807 103.959C126.816 103.955 126.85 104.067 126.915 104.273C126.979 104.501 127.07 104.806 127.177 105.189C127.392 105.988 127.663 107.153 127.917 108.61C128.399 111.52 128.704 115.643 128.115 120.135C127.831 122.374 127.362 124.48 126.803 126.359C126.218 128.216 125.698 129.931 124.82 131.156C124.386 131.766 123.87 132.231 123.345 132.519C122.824 132.811 122.317 132.944 121.9 132.979C121.483 133.017 121.156 132.957 120.945 132.897C120.747 132.837 120.644 132.777 120.644 132.777Z" fill="white"/>
<path d="M117.375 103.839C117.388 103.848 117.267 104.02 117.039 104.329C116.927 104.484 116.786 104.669 116.596 104.866C116.411 105.064 116.213 105.305 115.955 105.533C115.706 105.769 115.431 106.023 115.108 106.263C114.798 106.526 114.433 106.753 114.059 107.007C113.284 107.48 112.385 107.927 111.396 108.266C110.398 108.593 109.413 108.782 108.514 108.877C108.063 108.903 107.633 108.941 107.228 108.924C106.824 108.928 106.45 108.894 106.11 108.855C105.766 108.834 105.465 108.761 105.198 108.714C104.932 108.671 104.704 108.61 104.519 108.554C104.153 108.447 103.951 108.383 103.955 108.37C103.968 108.322 104.777 108.585 106.123 108.701C106.458 108.726 106.828 108.752 107.228 108.739C107.624 108.752 108.05 108.705 108.493 108.675C109.379 108.572 110.347 108.383 111.323 108.06C112.299 107.725 113.181 107.291 113.951 106.835C114.325 106.59 114.687 106.371 114.996 106.122C115.319 105.889 115.598 105.644 115.848 105.421C116.85 104.505 117.336 103.809 117.375 103.839Z" fill="white"/>
<path d="M122.816 99.1193C122.833 99.1193 122.829 99.2826 122.816 99.5749C122.803 99.8672 122.755 100.293 122.661 100.809C122.57 101.329 122.416 101.935 122.196 102.597C121.968 103.254 121.671 103.964 121.289 104.673C120.902 105.378 120.467 106.014 120.041 106.564C119.607 107.106 119.177 107.57 118.794 107.927C118.411 108.288 118.08 108.559 117.843 108.726C117.607 108.898 117.469 108.989 117.461 108.976C117.435 108.941 117.951 108.55 118.686 107.811C119.056 107.445 119.461 106.977 119.882 106.435C120.295 105.885 120.717 105.258 121.095 104.565C121.469 103.869 121.766 103.173 122.003 102.528C122.231 101.879 122.398 101.286 122.506 100.774C122.73 99.7598 122.777 99.115 122.816 99.1193Z" fill="white"/>
<path d="M113.904 125.495C113.908 125.499 113.887 125.525 113.839 125.572C113.788 125.628 113.719 125.697 113.641 125.783C113.452 125.976 113.19 126.243 112.863 126.578C112.166 127.274 111.177 128.263 109.96 129.475C107.478 131.925 104.063 135.291 100.269 139.04L100.209 139.1L100.136 139.057C99.9378 138.941 99.7228 138.82 99.5077 138.696C94.742 135.945 90.4322 133.456 87.2924 131.646C85.7483 130.743 84.4923 130.008 83.602 129.488C83.1805 129.235 82.8493 129.037 82.6041 128.891C82.5009 128.826 82.4149 128.775 82.346 128.732C82.2901 128.693 82.26 128.676 82.2643 128.672C82.2643 128.667 82.2987 128.68 82.3589 128.714C82.4321 128.753 82.5181 128.8 82.6256 128.856C82.8751 128.994 83.2149 129.179 83.645 129.415C84.5439 129.918 85.8085 130.636 87.3698 131.513C90.5183 133.31 94.8409 135.781 99.6195 138.506C99.8346 138.631 100.05 138.752 100.248 138.868L100.114 138.885C103.929 135.158 107.362 131.805 109.856 129.372C111.095 128.177 112.097 127.21 112.807 126.522C113.147 126.2 113.418 125.946 113.616 125.757C113.702 125.68 113.77 125.615 113.831 125.564C113.878 125.512 113.904 125.491 113.904 125.495Z" fill="white"/>
<path d="M98.9829 115.914C98.9915 115.914 98.9958 115.961 99.0001 116.06C99.0001 116.154 98.9829 116.3 98.9098 116.472C98.7765 116.821 98.3722 117.25 97.727 117.444C97.0732 117.659 96.2345 117.44 95.5033 116.997C94.7592 116.545 94.0452 115.948 93.2538 115.368C91.6838 114.181 90.2731 113.098 89.258 112.307C88.7805 111.929 88.3805 111.611 88.0622 111.357C87.7827 111.129 87.6321 110.996 87.6407 110.983C87.6493 110.97 87.8171 111.078 88.1139 111.284C88.4408 111.52 88.858 111.821 89.3526 112.174C90.3935 112.935 91.8215 113.996 93.3871 115.183C94.1785 115.763 94.9011 116.373 95.6108 116.816C96.3162 117.255 97.0861 117.465 97.6883 117.289C98.2947 117.13 98.6861 116.747 98.8324 116.434C98.9872 116.124 98.9528 115.909 98.9829 115.914Z" fill="white"/>
<path d="M105.22 110.265C105.232 110.3 104.772 110.497 104.054 110.85C103.331 111.207 102.355 111.731 101.331 112.41C100.312 113.089 99.4431 113.786 98.8366 114.31C98.2302 114.835 97.8689 115.183 97.8431 115.157C97.8215 115.14 98.1441 114.753 98.7291 114.194C99.3141 113.635 100.174 112.909 101.207 112.225C102.239 111.542 103.241 111.03 103.985 110.708C104.729 110.386 105.211 110.239 105.22 110.265Z" fill="white"/>
<g opacity="0.3">
<path opacity="0.3" d="M119.865 96.6734C117.62 102.494 117.22 108.443 117.96 114.637C118.115 115.918 118.76 117.723 119.263 118.914C119.762 120.105 120.614 121.196 121.788 121.734C122.859 122.224 124.291 122.134 125.027 121.218C125.551 120.565 125.62 119.658 125.547 118.819C125.358 116.666 124.407 114.671 123.59 112.672C121.508 107.583 120.227 102.167 119.809 96.682" fill="black"/>
</g>
<g opacity="0.3">
<path opacity="0.3" d="M134.833 108.288C137.066 110.063 138.64 112.647 139.195 115.445C139.345 116.193 139.431 116.984 139.836 117.629C140.24 118.278 141.092 118.733 141.78 118.402C142.623 117.998 142.653 116.816 142.451 115.905C141.526 111.783 138.231 108.279 134.167 107.11" fill="black"/>
</g>
<path d="M99.4302 156.685C99.4001 156.736 94.0151 153.723 87.3999 149.949C80.7847 146.175 75.4512 143.076 75.4813 143.02C75.5114 142.968 80.8965 145.982 87.5117 149.756C94.1269 153.53 99.4604 156.633 99.4302 156.685Z" fill="white"/>
<path d="M107.882 154.966C107.891 154.978 107.74 155.099 107.465 155.305C107.147 155.533 106.751 155.821 106.278 156.16C105.271 156.874 103.869 157.85 102.312 158.916C101.899 159.2 101.499 159.47 101.112 159.737L101.056 159.776L100.996 159.741C99.6496 158.997 98.4796 158.34 97.6452 157.863C97.2624 157.639 96.9355 157.446 96.6732 157.291C96.4495 157.153 96.3291 157.072 96.3334 157.063C96.3377 157.05 96.471 157.11 96.7076 157.227C96.9785 157.364 97.314 157.536 97.7097 157.738C98.5614 158.181 99.7442 158.817 101.099 159.548L100.983 159.552C101.37 159.285 101.77 159.01 102.179 158.727C103.736 157.661 105.151 156.706 106.179 156.023C106.669 155.705 107.078 155.438 107.405 155.223C107.71 155.047 107.873 154.953 107.882 154.966Z" fill="white"/>
<g opacity="0.3">
<path opacity="0.3" d="M117.517 151.101C116.007 149.382 113.413 148.973 111.181 149.468C108.944 149.966 106.966 151.213 105 152.391C103.034 153.568 100.97 154.716 98.6946 154.97C96.0322 155.271 93.4085 154.321 90.7805 153.796C88.1524 153.272 85.1158 153.289 83.1631 155.12C83.1631 155.12 91.5289 157.966 101.576 156.397C108.949 155.245 117.517 151.101 117.517 151.101Z" fill="black"/>
</g>
<path d="M86.1569 113.708C86.1526 113.726 85.8989 113.696 85.4386 113.635C85.2064 113.605 84.9268 113.567 84.6042 113.498C84.2816 113.433 83.9074 113.373 83.5074 113.266C82.6945 113.081 81.7439 112.806 80.7031 112.445C79.6708 112.071 78.5525 111.602 77.4213 111.026C76.2944 110.442 75.2621 109.805 74.3545 109.182C73.4556 108.55 72.6771 107.936 72.0534 107.381C71.7351 107.115 71.4684 106.848 71.2276 106.62C70.9867 106.397 70.7889 106.19 70.6297 106.023C70.3114 105.683 70.1394 105.494 70.1523 105.481C70.1652 105.472 70.3544 105.64 70.6899 105.958C70.8577 106.117 71.0641 106.315 71.3093 106.53C71.5588 106.745 71.8297 107.003 72.1523 107.261C72.7846 107.794 73.5674 108.391 74.4664 109.01C75.3739 109.621 76.3976 110.244 77.5159 110.824C78.6385 111.396 79.7439 111.864 80.7676 112.247C81.7955 112.617 82.7375 112.909 83.5375 113.111C83.9332 113.223 84.3031 113.296 84.6214 113.373C84.9397 113.45 85.2193 113.506 85.4472 113.545C85.9075 113.635 86.1612 113.691 86.1569 113.708Z" fill="white"/>
<path d="M60.8702 130.902C60.8616 130.902 60.8401 130.829 60.8014 130.692C60.7627 130.524 60.7111 130.322 60.6508 130.073C60.6207 129.935 60.5863 129.785 60.5476 129.626C60.5175 129.462 60.496 129.278 60.4659 129.084C60.4143 128.697 60.3283 128.255 60.311 127.76C60.2938 127.511 60.2766 127.253 60.2594 126.987C60.2422 126.716 60.2551 126.436 60.2551 126.144C60.2379 125.559 60.3024 124.94 60.3498 124.291C60.496 122.993 60.767 121.57 61.2229 120.13C61.696 118.695 62.3111 117.384 62.952 116.245C63.2961 115.686 63.61 115.148 63.9627 114.684C64.1348 114.448 64.2896 114.216 64.4617 114.005C64.6337 113.799 64.8015 113.601 64.9563 113.408C65.2617 113.016 65.5886 112.711 65.8595 112.427C65.9972 112.29 66.1219 112.152 66.2423 112.041C66.3671 111.933 66.4832 111.83 66.5864 111.735C66.78 111.568 66.9391 111.435 67.0682 111.323C67.18 111.228 67.2402 111.185 67.2445 111.19C67.2488 111.194 67.1972 111.254 67.094 111.357C66.9736 111.477 66.823 111.624 66.6424 111.8C66.5391 111.899 66.4316 112.002 66.3112 112.114C66.195 112.234 66.0746 112.372 65.9413 112.513C65.6832 112.806 65.3649 113.115 65.0681 113.511C64.9133 113.704 64.7542 113.902 64.5864 114.112C64.4187 114.323 64.2724 114.56 64.1047 114.792C63.7606 115.256 63.4552 115.793 63.1197 116.348C62.4917 117.483 61.8939 118.776 61.4207 120.199C60.9691 121.626 60.6939 123.028 60.539 124.313C60.4874 124.958 60.4186 125.572 60.4272 126.148C60.4272 126.436 60.41 126.716 60.4186 126.982C60.4315 127.249 60.4444 127.507 60.4573 127.752C60.4659 128.242 60.539 128.68 60.5777 129.071C60.6035 129.265 60.6164 129.445 60.6422 129.613C60.6723 129.776 60.6981 129.922 60.724 130.064C60.767 130.314 60.8014 130.52 60.8315 130.688C60.8659 130.825 60.8745 130.902 60.8702 130.902Z" fill="white"/>
<path d="M70.6383 103.07C70.6297 103.082 70.4576 102.962 70.1522 102.743C69.8167 102.494 69.3866 102.176 68.8748 101.793C67.7565 100.972 66.2769 99.8844 64.6381 98.6851C62.9779 97.4773 61.4768 96.3854 60.3972 95.5773C59.8595 95.1733 59.4251 94.8466 59.1283 94.6102C58.8315 94.378 58.6724 94.2448 58.681 94.2319C58.6896 94.219 58.8659 94.3308 59.1799 94.5414C59.524 94.7821 59.9628 95.083 60.4875 95.4484C61.5886 96.2221 63.1069 97.2967 64.7672 98.5003C66.4274 99.7082 67.9113 100.826 68.9651 101.664C69.4941 102.081 69.9157 102.425 70.1995 102.67C70.4963 102.915 70.6512 103.057 70.6383 103.07Z" fill="white"/>
<path d="M116.725 16.4246C116.885 20.8392 122.773 23.5128 122.7 27.9274C122.665 29.823 121.491 31.5252 121.259 33.4037C120.949 35.9312 122.364 38.3212 122.885 40.8143C123.96 45.951 120.971 51.3714 116.536 54.187C112.102 56.9982 106.532 57.5355 101.332 56.8263" fill="#263238"/>
<path d="M81.1719 15.3414C81.3482 17.7098 79.7826 19.829 78.2041 21.6043C76.6255 23.3796 74.8707 25.2322 74.5309 27.5835C73.9287 31.7488 78.0105 35.6174 77.1675 39.744C76.7159 41.9534 74.9051 43.733 74.5825 45.9639C74.2685 48.1261 75.4298 50.2367 76.8664 51.883C78.303 53.5293 79.9676 53.2886 81.2364 55.0639C82.5741 56.9337 84.7289 58.8552 86.7462 59.9599C91.3226 62.4659 96.8109 58.8423 99.0174 58.1889" fill="#263238"/>
<path d="M117.612 18.965C117.672 16.8158 115.685 15.1565 113.685 14.3699C111.685 13.5833 109.457 13.2867 107.676 12.0874C106.097 11.0257 105.035 9.36644 103.697 8.01241C100.415 4.68967 95.2928 3.30985 90.7851 4.53922C86.2775 5.76859 82.5656 9.55558 81.4258 14.0819C80.6559 17.1424 81.1806 20.7618 83.5979 22.795C86.3979 25.1549 90.5529 24.6304 94.1443 23.8954C97.7358 23.1604 101.796 22.4382 104.794 24.5445C106.601 25.8168 107.637 27.8801 108.743 29.7929C109.848 31.7058 111.233 33.6573 113.323 34.3752C115.414 35.093 118.248 33.8507 118.33 31.6456" fill="#263238"/>
<path d="M89.0301 69.0168C89 64.0864 88.9699 59.2807 88.9699 59.3065C88.9699 59.3065 81.1332 57.9869 79.5288 47.7607C78.7331 42.6756 79.0084 34.3408 79.4514 27.5276C79.8514 21.3937 83.9332 13.8799 90.0495 14.5376L109.134 19.4035C110.992 19.6055 112.386 21.1916 112.347 23.0572L110.601 69.3564C110.377 75.2325 105.486 79.8448 99.6067 79.7287C93.7528 79.617 89.0645 74.8628 89.0301 69.0168Z" fill="#FFBE9D"/>
<path d="M82.6991 33.3693C82.6733 34.0614 83.2367 34.6546 83.9593 34.6932C84.6819 34.7319 85.2884 34.2075 85.3142 33.5154C85.34 32.8234 84.7765 32.2302 84.054 32.1872C83.3357 32.1485 82.7249 32.6772 82.6991 33.3693Z" fill="#263238"/>
<path d="M81.2538 31.8691C81.4173 32.0411 82.4108 31.306 83.8216 31.3146C85.2324 31.3017 86.2647 32.0282 86.4195 31.8562C86.4969 31.7789 86.3292 31.4694 85.8776 31.1427C85.4346 30.816 84.6775 30.4936 83.8001 30.4979C82.9227 30.5022 82.1786 30.8246 81.7528 31.1513C81.3183 31.4823 81.1721 31.7918 81.2538 31.8691Z" fill="#263238"/>
<path d="M96.4066 33.7261C96.3808 34.4181 96.9443 35.0113 97.6669 35.05C98.3895 35.0887 98.9959 34.5643 99.0217 33.8722C99.0475 33.1802 98.4841 32.587 97.7615 32.544C97.0389 32.5053 96.4324 33.034 96.4066 33.7261Z" fill="#263238"/>
<path d="M95.1292 32.1614C95.2926 32.3334 96.2905 31.5983 97.7013 31.6069C99.1121 31.594 100.144 32.3205 100.299 32.1485C100.372 32.0712 100.213 31.7617 99.7573 31.435C99.3142 31.1083 98.5572 30.7859 97.6798 30.7902C96.8024 30.7945 96.0583 31.1169 95.6324 31.4436C95.198 31.7789 95.0475 32.0841 95.1292 32.1614Z" fill="#263238"/>
<path d="M89.9809 42.6154C89.9895 42.5337 89.112 42.3833 87.6883 42.1984C87.3271 42.1598 86.9873 42.0867 86.927 41.8417C86.841 41.5795 86.9959 41.1926 87.1722 40.7756C87.512 39.903 87.869 38.9918 88.2432 38.0332C89.7314 34.1301 90.811 30.9192 90.6519 30.8633C90.4927 30.8031 89.1594 33.9195 87.6711 37.8226C87.3141 38.7854 86.9701 39.701 86.6432 40.5779C86.5055 40.9863 86.269 41.4505 86.4539 41.9921C86.5485 42.2629 86.8152 42.4564 87.0475 42.5208C87.2797 42.5939 87.4819 42.5982 87.6582 42.6068C89.0905 42.6842 89.9766 42.6928 89.9809 42.6154Z" fill="#263238"/>
<path d="M88.9697 59.3065C88.9697 59.3065 95.8516 59.7665 102.678 55.6829C102.561 55.7087 98.9054 62.7883 89.1031 61.718L88.9697 59.3065Z" fill="#EB996E"/>
<path d="M94.8451 25.1764C94.8795 25.5847 96.286 25.7781 97.8344 26.4014C99.3915 26.9946 100.557 27.8156 100.858 27.5405C100.996 27.4073 100.867 26.9989 100.441 26.5003C100.019 26.0017 99.2882 25.4386 98.3592 25.0732C97.4258 24.7078 96.5097 24.6219 95.8602 24.6992C95.2107 24.7723 94.8365 24.9829 94.8451 25.1764Z" fill="#263238"/>
<path d="M81.5376 27.8629C81.8473 28.1251 82.729 27.605 83.8731 27.3557C85.0086 27.0634 86.0323 27.1322 86.1872 26.7582C86.2517 26.5777 86.0366 26.294 85.5506 26.0877C85.0732 25.877 84.3248 25.7782 83.5419 25.963C82.8064 26.0619 82.2946 26.2682 81.8043 26.9774C81.4645 27.3815 81.4 27.7297 81.5376 27.8629Z" fill="#263238"/>
<path d="M113.461 53.6067C110.648 54.1741 110.398 52.7427 108.295 50.7912C106.192 48.8396 105.108 45.8479 105.469 43.0023C105.788 40.4919 107.142 37.9386 106.269 35.5615C105.117 32.4193 100.712 31.4522 99.5423 28.3186C98.8627 26.496 99.4734 24.3639 98.7035 22.58C97.9809 20.8993 96.2132 19.9322 94.4884 19.3132C92.7679 18.6899 90.9227 18.26 89.4775 17.1381C88.0323 16.0162 87.1334 13.8971 88.0625 12.3238C95.6927 13.2394 103.215 15.0663 110.416 17.7528C112.084 18.3761 113.839 19.124 114.824 20.607C115.869 22.176 115.818 24.2049 115.732 26.0876C115.302 35.2692 114.876 44.4466 114.446 53.6282" fill="#263238"/>
<path d="M119.895 32.7503C120.218 29.3803 122.966 26.3885 126.296 25.7824C129.629 25.1721 133.255 26.9989 134.752 30.0337C136.175 32.9223 135.681 36.4341 134.356 39.3657C132.777 42.8518 129.547 46.0327 125.724 45.8608C122.128 45.6974 119.233 42.5423 118.196 39.0949C117.16 35.6475 117.577 31.9551 118.007 28.383" fill="#263238"/>
<path d="M121.9 46.7506C121.913 46.7635 122.145 46.5872 122.437 46.1574C122.73 45.7318 123.057 45.0312 123.199 44.1113C123.349 43.1957 123.319 42.0781 123.104 40.8831C122.898 39.6795 122.489 38.4201 122.197 37.0789C121.896 35.7464 121.754 34.4396 121.973 33.2962C122.184 32.1571 122.717 31.19 122.954 30.2916C123.212 29.3932 123.177 28.6023 123.014 28.1036C122.85 27.6007 122.631 27.3901 122.614 27.4073C122.579 27.4288 122.743 27.6652 122.842 28.1466C122.945 28.6238 122.928 29.3588 122.644 30.197C122.386 31.0438 121.814 31.9895 121.56 33.2146C121.302 34.4353 121.444 35.8152 121.749 37.1735C122.05 38.5404 122.468 39.7956 122.691 40.9519C122.923 42.1125 122.979 43.1828 122.876 44.064C122.696 45.8651 121.814 46.7076 121.9 46.7506Z" fill="#455A64"/>
<path d="M122.05 34.474C122.016 34.4998 122.502 35.2134 123.62 36.0086C124.721 36.8038 126.528 37.6162 128.648 37.6549C130.769 37.6893 132.605 36.9414 133.732 36.1848C134.876 35.4283 135.388 34.7319 135.354 34.7062C135.298 34.6503 134.713 35.2521 133.565 35.914C132.433 36.576 130.666 37.238 128.657 37.2036C126.644 37.1649 124.906 36.4428 123.797 35.7421C122.67 35.0457 122.106 34.4182 122.05 34.474Z" fill="#455A64"/>
<path d="M122.558 36.0774C122.515 36.0989 122.764 36.7565 123.427 37.6807C124.081 38.6049 125.195 39.7526 126.683 40.651C128.18 41.5451 129.715 41.9921 130.838 42.134C131.965 42.2844 132.666 42.1941 132.661 42.1469C132.661 42.0695 131.969 42.0437 130.889 41.8202C129.81 41.6009 128.352 41.1238 126.911 40.2641C125.474 39.3958 124.373 38.3298 123.672 37.483C122.971 36.6405 122.622 36.043 122.558 36.0774Z" fill="#455A64"/>
<path d="M119.981 50.1765C119.986 50.1808 120.024 50.1378 120.093 50.0475C120.158 49.9573 120.269 49.8283 120.377 49.6392C120.609 49.2695 120.885 48.672 121.052 47.851C121.216 47.0343 121.233 45.9768 120.889 44.8334C120.571 43.69 119.771 42.465 118.51 41.6353C117.297 40.7799 115.715 40.1824 114.712 38.8241C114.213 38.1579 113.998 37.2981 114.158 36.4256C114.295 35.5487 114.695 34.689 115.048 33.7734C115.831 31.9422 115.839 29.6554 114.915 27.6695C114.45 26.6851 113.762 25.7653 112.837 25.0904C111.921 24.3983 110.803 24.0416 109.701 23.7922C108.592 23.5386 107.491 23.3925 106.463 23.083C105.439 22.7778 104.463 22.3179 103.749 21.6C103.022 20.8907 102.712 19.9064 102.57 18.9177C102.433 17.9291 102.355 16.9017 102.088 15.9475C101.589 14.0303 100.613 12.3324 99.3271 11.1116C98.041 9.88227 96.4668 9.17731 94.9829 8.95809C93.4904 8.72597 92.0839 9.00107 91.0301 9.55558C89.9634 10.0972 89.2193 10.8537 88.7419 11.5329C88.2645 12.225 88.0451 12.8439 87.9419 13.2695C87.8343 13.695 87.8429 13.9272 87.8429 13.9272C87.9075 13.953 87.9247 12.9686 88.8838 11.6361C89.3699 10.9913 90.1054 10.282 91.1419 9.77911C92.1656 9.26758 93.5076 9.02687 94.9356 9.26758C96.355 9.4997 97.8561 10.1918 99.0733 11.3781C100.291 12.5559 101.22 14.198 101.693 16.0506C101.946 16.9748 102.011 17.9549 102.153 18.9822C102.286 19.9924 102.626 21.1143 103.439 21.9095C104.226 22.709 105.271 23.1904 106.338 23.5128C107.413 23.8352 108.523 23.9814 109.607 24.2307C110.686 24.4757 111.736 24.8153 112.579 25.4515C113.435 26.0704 114.08 26.9259 114.519 27.8543C115.388 29.7285 115.401 31.8648 114.661 33.6272C114.321 34.5256 113.912 35.4111 113.766 36.3654C113.594 37.3153 113.852 38.3298 114.411 39.0433C115.53 40.5091 117.155 41.0808 118.334 41.8976C119.56 42.6799 120.317 43.8147 120.652 44.9108C121.005 46.0026 121.018 47.0257 120.885 47.8252C120.596 49.4371 119.912 50.1464 119.981 50.1765Z" fill="#455A64"/>
<path d="M119.298 21.6301C119.298 21.6301 119.392 21.4839 119.422 21.1573C119.457 20.8392 119.409 20.3319 119.082 19.7989C118.764 19.2745 118.201 18.7114 117.371 18.3847C116.532 18.0623 115.5 18.0752 114.433 18.2858C113.362 18.4879 112.248 18.9177 111.031 19.1541C109.835 19.3863 108.411 19.4164 107.332 18.5738C106.244 17.7485 105.697 16.3171 105.142 14.8943C104.596 13.4414 103.822 11.9799 102.781 10.6861C100.695 8.08979 97.8691 6.31021 95.039 5.68263C93.6239 5.37743 92.1959 5.40322 90.9529 5.79009C89.7141 6.17266 88.6689 6.87331 87.9592 7.72442C87.2366 8.56692 86.8839 9.56418 86.828 10.4325C86.7549 11.3094 86.927 12.0616 87.1678 12.6247C87.4044 13.1921 87.7098 13.5704 87.9377 13.7939C88.1657 14.0217 88.3076 14.1077 88.3162 14.0991C88.3678 14.0604 87.7571 13.6735 87.3313 12.5602C87.1248 12.01 86.9872 11.2879 87.0818 10.4583C87.1635 9.63295 87.5119 8.71307 88.2044 7.93075C88.8883 7.14412 89.8819 6.49504 91.0647 6.14686C92.2432 5.79869 93.5981 5.78149 94.9572 6.08669C97.6713 6.70997 100.415 8.45086 102.437 10.9655C103.452 12.2293 104.196 13.622 104.742 15.0577C105.31 16.4676 105.869 17.9807 107.095 18.9048C107.693 19.3648 108.42 19.5969 109.112 19.6614C109.813 19.7301 110.484 19.6442 111.112 19.5195C112.377 19.2573 113.469 18.8146 114.506 18.5996C115.534 18.3718 116.519 18.346 117.293 18.6211C118.072 18.9005 118.622 19.4121 118.945 19.8935C119.272 20.3792 119.345 20.8478 119.341 21.153C119.332 21.4667 119.267 21.6258 119.298 21.6301Z" fill="#455A64"/>
<path d="M122.515 48.1003C122.528 48.1046 122.455 48.2851 122.3 48.5903C122.141 48.8955 121.887 49.3254 121.513 49.8197C120.781 50.8084 119.513 52.0334 117.792 52.8415C116.072 53.654 114.321 53.8474 113.091 53.7872C112.472 53.7571 111.977 53.6841 111.641 53.611C111.306 53.5379 111.121 53.4777 111.125 53.4648C111.134 53.4218 111.874 53.611 113.095 53.6282C114.308 53.6497 116.016 53.4304 117.698 52.6395C119.379 51.8486 120.635 50.6708 121.388 49.7208C122.149 48.7709 122.476 48.0788 122.515 48.1003Z" fill="#455A64"/>
<path d="M90.3161 52.2742L94.8883 58.9153L95.77 62.7539C95.77 62.7539 95.9248 61.5374 96.17 60.3768C96.4152 59.2205 96.17 55.7473 96.17 55.7473L92.8151 50.7525C92.8151 50.7525 90.8624 48.01 92.5097 46.368L95.7657 49.5962C95.7657 49.5962 92.9957 45.749 94.884 44.3219L97.5679 46.5915C97.5679 46.5915 96.8066 45.6802 97.8432 44.9495L104.759 51.6036L105.611 62.7539L105.245 74.5103L112.119 83.5501L102.166 93.3378C102.166 93.3378 92.8323 78.1297 92.2817 75.8171C91.7312 73.5002 92.2602 60.7422 92.2602 60.7422C92.2602 60.7422 89.4215 56.6414 89.4559 54.8318C89.4989 53.0264 90.3161 52.2742 90.3161 52.2742Z" fill="#FFBE9D"/>
<path d="M98.1873 86.3613C98.183 86.3656 98.1572 86.3312 98.1099 86.2624C98.0583 86.1894 97.9895 86.0905 97.8991 85.9615C97.7142 85.6821 97.4518 85.2824 97.1034 84.758C96.4195 83.6962 95.4174 82.1273 94.2216 80.0726C93.6324 79.0367 92.97 77.8976 92.4065 76.5564C92.1012 75.8816 92.0366 75.0949 91.985 74.3255C91.9377 73.5475 91.9119 72.7393 91.899 71.9011C91.856 68.5612 91.9377 64.7828 92.084 60.6433L92.1184 60.7551C91.3011 59.5429 90.4968 58.2534 89.8431 56.8091C89.6796 56.448 89.5334 56.074 89.4215 55.6786C89.3613 55.4808 89.3226 55.2745 89.2925 55.0639L89.271 54.7372L89.2839 54.4277C89.314 54.0107 89.3871 53.5938 89.5248 53.1854C89.6667 52.7771 89.8474 52.3902 90.1828 52.0377L90.3463 51.8658L90.4882 52.0721C91.9463 54.1827 93.4818 56.4093 95.069 58.7047L95.0905 58.7391L95.0991 58.7778C95.3744 59.9814 95.6797 61.2881 95.9851 62.6164L95.555 62.6378C95.6496 62.0833 95.7443 61.5159 95.8389 60.9442C95.8862 60.6605 95.9335 60.3768 95.9808 60.0931C96.0195 59.8223 96.041 59.5343 96.0496 59.242C96.084 58.0814 96.0281 56.8778 95.9507 55.6743L95.9894 55.7817C95.3356 54.806 94.6604 53.8044 93.9765 52.7857C93.6324 52.2741 93.2883 51.7626 92.9399 51.2425C92.7721 50.9846 92.5829 50.731 92.4194 50.443C92.2603 50.1636 92.1098 49.8756 91.9893 49.5704C91.7614 49.0202 91.6151 48.4184 91.6409 47.7994C91.6581 47.1847 91.9076 46.5485 92.3592 46.1144L92.5184 45.9596L92.6732 46.1144C93.77 47.2019 94.8582 48.2808 95.9292 49.3426L95.5937 49.6306C95.0217 48.7924 94.5442 47.9155 94.2345 46.9569C94.084 46.4755 93.9851 45.9682 94.0281 45.4438C94.0625 44.9194 94.3249 44.3778 94.7636 44.0554L94.9098 43.9479L95.0432 44.0683C95.9722 44.9065 96.8884 45.7361 97.7916 46.5528L97.469 46.8365C97.2669 46.5098 97.1421 46.1617 97.1636 45.7619C97.1765 45.3621 97.4303 44.9968 97.7314 44.7861L97.8776 44.683L98.0067 44.8033C100.411 47.0901 102.716 49.2867 104.91 51.3758L104.966 51.4273L104.97 51.5047C105.267 55.5195 105.542 59.2463 105.796 62.655V62.6636V62.6722C105.637 67.1986 105.499 71.1403 105.383 74.4286L105.357 74.347C107.431 77.1453 109.074 79.3633 110.205 80.885C110.76 81.6458 111.185 82.2304 111.478 82.6302C111.616 82.8279 111.723 82.9784 111.801 83.0858C111.869 83.189 111.904 83.2449 111.899 83.2449C111.895 83.2492 111.852 83.2019 111.77 83.103C111.689 82.9999 111.573 82.858 111.422 82.6689C111.117 82.2777 110.674 81.706 110.097 80.9624C108.945 79.4579 107.271 77.2657 105.155 74.4931L105.129 74.4587V74.4115C105.22 71.1188 105.327 67.1814 105.448 62.6507V62.6679C105.177 59.2592 104.884 55.5324 104.566 51.5219L104.626 51.6509C102.424 49.5661 100.11 47.3781 97.7013 45.0999L97.9723 45.1171C97.7486 45.2848 97.5938 45.5126 97.5809 45.7791C97.5636 46.0413 97.6669 46.3465 97.8131 46.5786L98.6605 47.9112L97.4948 46.8623C96.5873 46.0456 95.6711 45.2203 94.7378 44.3864L95.0174 44.3993C94.6819 44.6529 94.4883 45.0398 94.4539 45.4782C94.4195 45.9167 94.5055 46.3766 94.6475 46.8236C94.9313 47.7134 95.4045 48.5817 95.9464 49.3727L95.6109 49.6607C94.5356 48.5989 93.4517 47.52 92.3506 46.4325H92.6646C92.2947 46.7935 92.0969 47.2965 92.0797 47.8209C92.0625 48.3496 92.1872 48.8912 92.3979 49.4027C92.5098 49.6864 92.6474 49.9573 92.798 50.2195C92.9442 50.4774 93.1291 50.7267 93.3012 50.9889C93.6496 51.5047 93.9937 52.0205 94.3378 52.5321C95.0217 53.5551 95.6969 54.5567 96.3507 55.5324L96.3851 55.584L96.3894 55.6442C96.4626 56.8607 96.5185 58.0642 96.4841 59.2592C96.4755 59.5601 96.4539 59.8567 96.4109 60.1619C96.3636 60.4499 96.312 60.7379 96.2647 61.0259C96.1701 61.589 96.0754 62.1478 95.9808 62.6937L95.7959 63.7855L95.5507 62.7152C95.2496 61.3913 94.9485 60.0802 94.6733 58.8767L94.7077 58.9497C93.1291 56.65 91.5936 54.4148 90.1441 52.3042L90.4495 52.3386C90.2129 52.5879 90.0194 52.9576 89.899 53.3187C89.7699 53.6841 89.7011 54.0709 89.6753 54.4578C89.5936 55.2143 89.899 55.9494 90.1957 56.6586C90.828 58.0642 91.6237 59.3581 92.4194 60.5531L92.4539 60.6047L92.4496 60.6648C92.2861 64.8 92.1786 68.5741 92.1958 71.9054C92.2001 72.7393 92.2173 73.5432 92.2603 74.3126C92.3076 75.0863 92.3592 75.8214 92.6431 76.4704C93.1808 77.7858 93.8302 78.9421 94.4023 79.978C95.5679 82.0456 96.5357 83.6318 97.1937 84.7107C97.5206 85.248 97.7701 85.6563 97.9422 85.9401C98.0239 86.0776 98.0841 86.1808 98.1314 86.2581C98.1744 86.3226 98.1916 86.3613 98.1873 86.3613Z" fill="#EB996E"/>
<path d="M100.217 61.0302C100.157 61.0345 100.058 60.3038 99.955 59.1217C99.8517 57.9396 99.7356 56.3062 99.641 54.4965C99.6324 54.3245 99.6238 54.1569 99.6152 53.9979L99.6711 54.1354C98.5356 52.8759 97.5377 51.7368 96.8366 50.8986C96.1355 50.0647 95.7269 49.536 95.7699 49.493C95.8129 49.4543 96.299 49.91 97.0646 50.6923C97.8259 51.4746 98.8625 52.5793 100.007 53.8345L100.058 53.8947L100.062 53.9764C100.071 54.1354 100.08 54.3031 100.088 54.475C100.187 56.2804 100.247 57.9181 100.273 59.1045C100.295 60.2909 100.278 61.0302 100.217 61.0302Z" fill="#EB996E"/>
<path d="M102.841 57.5312C102.781 57.5355 102.695 56.8736 102.596 55.786C102.501 54.6985 102.394 53.1897 102.299 51.4961L102.368 51.6423C102.243 51.5219 102.114 51.3973 101.981 51.2683C100.678 49.9959 99.5163 48.8224 98.6904 47.9584C97.8646 47.0944 97.3786 46.5399 97.4216 46.4927C97.4646 46.4497 98.0323 46.9268 98.9141 47.7306C99.7958 48.5344 100.992 49.6735 102.295 50.9459C102.428 51.0749 102.557 51.2038 102.678 51.3242L102.742 51.3844L102.746 51.4703C102.828 53.1639 102.884 54.6813 102.901 55.7688C102.918 56.8607 102.901 57.5269 102.841 57.5312Z" fill="#EB996E"/>
<path d="M81.5761 68.2087C81.5761 68.2087 80.8449 63.231 80.1567 61.4644C79.4685 59.6934 77.5674 57.4538 77.5674 57.4538C77.5674 57.4538 78.604 56.2975 80.2728 57.2733C82.4406 58.5457 82.3245 61.4386 82.3245 61.4386L81.5761 68.2087Z" fill="#FFBE9D"/>
<path d="M82.1224 61.9157C82.1224 61.9157 80.9438 53.6669 81.0213 53.1209C81.0987 52.5707 84.1654 45.3449 84.1654 45.3449C84.1654 45.3449 85.9719 45.1859 85.7353 46.9139C85.4988 48.6419 84.8708 50.5247 84.8708 50.5247L89.744 44.8678C89.744 44.8678 91.5505 45.259 90.8451 47.0687C90.8451 47.0687 92.4968 46.8322 92.0237 49.5833L89.843 53.7571L90.0924 58.0943L93.6753 53.3918C93.6753 53.3918 95.4044 54.4535 94.5399 56.1815C93.6753 57.9095 91.8688 61.9157 91.8688 61.9157L92.3936 68.1184C92.3936 68.1184 93.3097 71.5744 92.3936 73.3798C91.4774 75.1852 90.6129 76.8358 90.6129 76.8358L88.9741 91.9021L78.3115 85.2136L81.4213 70.0786L82.1224 61.9157Z" fill="#FFBE9D"/>
<path d="M88.9709 91.9064C88.9623 91.9064 88.9666 91.8161 88.9795 91.6442C88.9924 91.4636 89.0139 91.2057 89.044 90.8704C89.1086 90.1827 89.2032 89.1811 89.3279 87.8916C89.5946 85.291 89.9817 81.5255 90.4634 76.8229L90.4677 76.7971L90.4806 76.7713C90.7946 76.1609 91.1129 75.5291 91.4484 74.88C91.6161 74.5533 91.7839 74.2266 91.9559 73.8913C92.128 73.5517 92.3129 73.2208 92.4205 72.8769C92.6398 72.1719 92.6613 71.381 92.6097 70.5858C92.5538 69.7906 92.4248 68.9738 92.2226 68.17L92.2183 68.1528V68.1399C92.0463 66.1712 91.8656 64.095 91.6764 61.9372L91.6721 61.8856L91.6936 61.8383C92.3258 60.48 92.9796 59.0701 93.6506 57.6215C93.8183 57.2604 93.9861 56.895 94.1581 56.5297C94.3259 56.1514 94.5151 55.8204 94.5581 55.455C94.6786 54.7286 94.1968 53.9935 93.5689 53.5766L93.8485 53.525C92.7172 55.0123 91.5086 56.607 90.2699 58.2319L89.9129 58.7047L89.8785 58.1115C89.8011 56.7403 89.715 55.2659 89.629 53.7743L89.6247 53.7141L89.6548 53.6583C90.3473 52.3343 91.0871 50.9158 91.8312 49.4844L91.8097 49.5489C91.8742 49.119 91.9215 48.6677 91.8527 48.2378C91.7925 47.808 91.5731 47.4297 91.1946 47.3266C91.0957 47.2965 90.9667 47.2836 90.8849 47.2922L90.5107 47.3266L90.6441 46.987C90.8075 46.5743 90.8548 46.1316 90.6699 45.7834C90.4978 45.4352 90.0935 45.1902 89.7021 45.087L89.9172 45.014C88.2612 46.9354 86.6311 48.8224 85.044 50.6665L84.3386 51.4832L84.6698 50.4516C84.9966 49.4371 85.2676 48.4012 85.4483 47.3738C85.4956 47.1202 85.5343 46.8537 85.5429 46.6259C85.5386 46.3938 85.4956 46.1746 85.3794 46.0026C85.1515 45.6587 84.6353 45.5255 84.188 45.547L84.3687 45.418C83.7579 46.8709 83.16 48.2937 82.5751 49.6864C82.2912 50.3871 82.0073 51.0792 81.7321 51.7626C81.5987 52.1065 81.4611 52.4461 81.3406 52.7857C81.3148 52.8673 81.2761 52.9619 81.2589 53.0307L81.2288 53.1381V53.2456C81.2331 53.4046 81.246 53.5895 81.2675 53.7657C81.5729 56.6199 81.9643 59.3366 82.3084 61.8813L82.3127 61.9028V61.9243C82.046 64.8946 81.8009 67.6241 81.5772 70.0915V70.1V70.1086C80.5793 74.8198 79.7793 78.5982 79.2288 81.2031C78.9449 82.4969 78.7255 83.4985 78.575 84.182C78.4976 84.5172 78.4374 84.7709 78.3943 84.9514C78.3513 85.1233 78.3255 85.2093 78.3212 85.2093C78.3126 85.2093 78.3255 85.119 78.3556 84.9428C78.39 84.7623 78.4331 84.5043 78.4933 84.1648C78.6266 83.4727 78.8202 82.4669 79.0696 81.1687C79.5901 78.5552 80.3428 74.7682 81.2847 70.0442L81.2804 70.0614C81.4869 67.594 81.7105 64.8645 81.96 61.8899V61.9329C81.5987 59.3882 81.1944 56.6844 80.8761 53.8044C80.8589 53.6196 80.8417 53.4476 80.8331 53.2413L80.8374 53.078L80.8761 52.9232C80.9062 52.8201 80.9363 52.7427 80.9664 52.6524C81.0912 52.3042 81.2245 51.9603 81.3578 51.6165C81.6331 50.9287 81.9127 50.2366 82.1966 49.5317C82.7772 48.1347 83.3708 46.7076 83.9773 45.2547L84.0289 45.13L84.1579 45.1257C84.4547 45.1128 84.73 45.1429 85.0095 45.2332C85.2848 45.3235 85.5644 45.4954 85.7407 45.7619C85.9214 46.0241 85.9773 46.3379 85.9816 46.6302C85.9687 46.9268 85.9257 47.1847 85.8784 47.4512C85.6934 48.5086 85.4182 49.5489 85.087 50.5934L84.7128 50.3785C86.2999 48.5344 87.9257 46.6431 89.5817 44.7217L89.672 44.6185L89.7968 44.6486C90.0677 44.7174 90.2957 44.8248 90.5193 44.971C90.7387 45.1214 90.9366 45.3235 91.0656 45.5728C91.3323 46.0843 91.2419 46.6775 91.057 47.146L90.8161 46.8408C91.0011 46.8236 91.1516 46.8451 91.3151 46.8881C91.5946 46.9698 91.8527 47.1589 92.0119 47.3953C92.1667 47.6318 92.2613 47.8983 92.2914 48.1519C92.3732 48.6677 92.3129 49.1534 92.2484 49.6091L92.2441 49.6435L92.2269 49.6778C91.4785 51.1092 90.7387 52.5278 90.0462 53.8517L90.072 53.7356C90.1581 55.2272 90.2398 56.7059 90.3172 58.0728L89.9258 57.9525C91.1645 56.3319 92.3775 54.7415 93.513 53.2542L93.6334 53.0952L93.7925 53.2026C94.1796 53.4605 94.485 53.7829 94.713 54.1784C94.941 54.5695 95.0356 55.0467 94.9711 55.498C94.9108 55.9537 94.6829 56.3448 94.528 56.6973C94.356 57.0627 94.1882 57.4237 94.0205 57.7848C93.3452 59.2248 92.6871 60.6304 92.0549 61.9845L92.0721 61.8856C92.2484 64.0478 92.4205 66.1239 92.5839 68.0926L92.5796 68.0626C92.7861 68.9008 92.9108 69.7261 92.9624 70.5514C93.0097 71.3724 92.9839 72.1934 92.7431 72.9672C92.614 73.3626 92.4205 73.6936 92.2484 74.0246C92.0764 74.3599 91.9043 74.6866 91.7366 75.0132C91.3968 75.6623 91.0699 76.2899 90.7559 76.9003L90.7731 76.8487C90.2312 81.5427 89.8011 85.3039 89.5 87.9002C89.3408 89.1897 89.2204 90.187 89.1387 90.8704C89.0914 91.2014 89.0569 91.4593 89.0354 91.6399C88.9967 91.8204 88.9795 91.9064 88.9709 91.9064Z" fill="#EB996E"/>
<path d="M84.3245 59.3495C84.1998 59.3667 83.8213 57.312 83.4772 54.7587C83.3783 54.015 83.2923 53.3101 83.2234 52.6954L83.2148 52.6137L83.2579 52.5535C84.1482 51.3027 84.7977 50.4774 84.8708 50.5247C84.9439 50.5719 84.4192 51.4832 83.589 52.7771L83.6235 52.6395C83.7224 53.2499 83.8256 53.9506 83.9245 54.6942C84.2686 57.2475 84.4493 59.3323 84.3245 59.3495Z" fill="#EB996E"/>
<path d="M87.0645 57.4538C86.9656 57.4667 86.686 55.7129 86.3892 53.2929L86.3806 53.2155L86.4279 53.1467C86.7204 52.7169 87.0301 52.2569 87.3527 51.7798C89.1807 49.1061 90.7463 46.9999 90.8495 47.0687C90.9528 47.1374 89.5506 49.3598 87.7226 52.0334C87.3957 52.5063 87.0774 52.9662 86.7806 53.3918L86.815 53.2456C87.0559 55.6743 87.1634 57.4409 87.0645 57.4538Z" fill="#EB996E"/>
<path d="M31.9493 107.011C26.9126 99.3127 27.1062 88.0549 33.1235 81.0956C34.9902 78.9335 37.601 77.055 40.4484 77.3001C43.3646 77.5494 45.713 80.0468 46.5991 82.8322C47.4851 85.6177 47.1797 88.6352 46.6593 91.5152C45.9281 95.5429 44.7065 99.6652 41.9108 102.657C39.1107 105.649 35.5407 108.976 31.9493 107.011Z" fill="#E8505B"/>
<path d="M34.1945 143.819C32.2977 139.396 33.674 133.795 37.4032 130.752C38.5602 129.806 40.0742 129.076 41.5194 129.458C42.999 129.849 43.9839 131.349 44.1861 132.867C44.3883 134.384 43.9581 135.91 43.4291 137.346C42.6893 139.353 41.6871 141.369 39.9753 142.655C38.2634 143.944 35.8676 145.156 34.1945 143.819Z" fill="#E8505B"/>
<path d="M22.0438 141.176C23.4288 134.35 19.8287 126.819 13.6479 123.604C11.7296 122.606 9.36822 122.013 7.4327 122.985C5.45416 123.978 4.4993 126.389 4.65844 128.598C4.81758 130.808 5.87567 132.845 7.04989 134.72C8.69294 137.35 10.7059 139.908 13.5103 141.227C16.3146 142.551 20.0652 143.562 22.0438 141.176Z" fill="#E8505B"/>
<path d="M22.9169 122.718C25.3298 114.942 21.2394 105.511 14.4263 101.049C12.3102 99.6652 9.63484 98.7023 7.26919 99.6007C4.84763 100.521 3.45836 103.22 3.38093 105.808C3.30351 108.395 4.30138 110.889 5.4455 113.21C7.04553 116.459 9.08859 119.67 12.1983 121.536C15.3081 123.397 20.3361 125.263 22.9169 122.718Z" fill="#E8505B"/>
<path d="M27.7598 160.734C27.7469 160.734 27.7211 160.605 27.6824 160.356C27.6394 160.072 27.5878 159.715 27.5189 159.273C27.4845 159.032 27.4501 158.77 27.4114 158.49C27.3555 158.202 27.2953 157.893 27.2351 157.566C27.1103 156.904 26.977 156.143 26.7619 155.322C26.663 154.91 26.5555 154.475 26.4479 154.024C26.3189 153.577 26.1813 153.117 26.0393 152.636C25.7813 151.669 25.3942 150.671 25.0372 149.61C24.2414 147.508 23.2479 145.242 22.0349 142.951C20.7962 140.673 19.4542 138.592 18.1424 136.766C17.4542 135.88 16.8348 135.008 16.1724 134.255C15.8499 133.873 15.5402 133.503 15.2391 133.151C14.9251 132.811 14.6197 132.484 14.3315 132.171C13.7638 131.534 13.2046 131.006 12.7229 130.533C12.482 130.296 12.2584 130.077 12.0519 129.871C11.8369 129.682 11.639 129.505 11.4584 129.346C11.1272 129.045 10.8562 128.805 10.6411 128.611C10.4562 128.439 10.3616 128.345 10.3702 128.336C10.3788 128.328 10.4863 128.405 10.6842 128.56C10.9078 128.74 11.1917 128.968 11.5401 129.248C11.7293 129.402 11.9315 129.57 12.1552 129.75C12.3702 129.948 12.6025 130.163 12.8476 130.391C13.3466 130.851 13.9186 131.371 14.4993 131.999C14.7961 132.308 15.1058 132.63 15.4283 132.966C15.7337 133.318 16.052 133.688 16.3789 134.066C17.0542 134.814 17.6865 135.682 18.3876 136.572C19.7209 138.399 21.0801 140.484 22.3231 142.779C23.5447 145.083 24.5339 147.37 25.321 149.489C25.6737 150.564 26.0522 151.57 26.3017 152.545C26.435 153.027 26.5684 153.495 26.6931 153.947C26.7963 154.402 26.8953 154.837 26.9899 155.254C27.192 156.083 27.3082 156.848 27.42 157.519C27.4759 157.85 27.5232 158.164 27.5706 158.452C27.6007 158.735 27.6265 159.002 27.6523 159.243C27.6953 159.69 27.7254 160.051 27.7512 160.339C27.7684 160.601 27.7727 160.73 27.7598 160.734Z" fill="#263238"/>
<path d="M27.5838 162.131C27.5795 162.131 27.5795 162.08 27.5838 161.976C27.5924 161.856 27.6053 161.706 27.6182 161.525C27.6569 161.104 27.7085 160.528 27.7773 159.797C27.816 159.419 27.8548 159.002 27.9021 158.55C27.9365 158.095 27.9494 157.596 27.9752 157.063C28.0139 155.993 28.1171 154.781 28.0784 153.431C28.0741 152.756 28.0698 152.051 28.0698 151.32C28.0612 150.585 27.9924 149.824 27.9537 149.034C27.9021 147.452 27.687 145.775 27.4935 144.004C27.0117 140.48 26.2547 136.637 25.1063 132.695C23.9192 128.762 22.4568 125.125 20.9385 121.91C20.1342 120.324 19.3987 118.798 18.5814 117.444C18.1814 116.76 17.8244 116.086 17.4287 115.467C17.033 114.848 16.6502 114.259 16.2846 113.691C15.5835 112.544 14.8351 111.581 14.2157 110.704C13.9018 110.27 13.6179 109.861 13.3426 109.496C13.0587 109.139 12.7964 108.812 12.5598 108.516C12.1039 107.94 11.7469 107.489 11.4845 107.153C11.3727 107.007 11.2823 106.891 11.2092 106.792C11.149 106.71 11.1189 106.667 11.1232 106.663C11.1275 106.659 11.1662 106.698 11.235 106.771C11.3168 106.861 11.4114 106.973 11.5318 107.11C11.8071 107.433 12.1813 107.875 12.6587 108.434C12.9039 108.726 13.1749 109.049 13.4673 109.397C13.7555 109.758 14.0437 110.162 14.3663 110.592C14.9986 111.456 15.7642 112.415 16.4782 113.558C16.8481 114.121 17.2395 114.714 17.6438 115.329C18.0438 115.948 18.4094 116.623 18.818 117.306C19.6524 118.66 20.3965 120.186 21.2138 121.777C22.7536 125.001 24.2332 128.65 25.4246 132.6C26.5773 136.559 27.33 140.424 27.7988 143.966C27.9838 145.741 28.1859 147.426 28.229 149.016C28.2591 149.812 28.3236 150.577 28.3236 151.312C28.3193 152.047 28.315 152.756 28.3107 153.431C28.3322 154.781 28.2161 156.001 28.1558 157.072C28.1171 157.605 28.0956 158.103 28.0526 158.563C27.9967 159.019 27.9451 159.432 27.9021 159.81C27.8074 160.536 27.7343 161.112 27.6827 161.534C27.6569 161.714 27.6354 161.86 27.6182 161.981C27.601 162.08 27.5881 162.131 27.5838 162.131Z" fill="#263238"/>
<path d="M40.6979 86.5977C40.7022 86.602 40.6807 86.6493 40.6333 86.7396C40.5731 86.847 40.5043 86.9803 40.4183 87.1436C40.2075 87.5176 39.9193 88.0291 39.5581 88.6782C39.3731 89.0135 39.1494 89.3746 38.9387 89.7872C38.7322 90.2042 38.5043 90.6555 38.2634 91.1413C38.0182 91.627 37.7602 92.1471 37.4849 92.6973C37.2225 93.2518 36.973 93.8536 36.6935 94.4769C36.4225 95.1045 36.1214 95.7536 35.8418 96.4456C35.5752 97.142 35.2956 97.8641 35.0074 98.6121C34.8612 98.986 34.7149 99.3686 34.5687 99.7555C34.4354 100.147 34.302 100.546 34.1644 100.955C33.8891 101.767 33.6095 102.601 33.3214 103.456C32.2547 106.908 31.2439 110.751 30.388 114.83C29.5621 118.918 28.9815 122.851 28.5513 126.436C28.1857 130.03 27.9105 133.275 27.8374 136.009C27.7685 137.376 27.7556 138.61 27.7513 139.697C27.7341 140.785 27.7298 141.718 27.7556 142.483C27.7642 143.226 27.7728 143.815 27.7814 144.245C27.7814 144.43 27.7814 144.58 27.7814 144.705C27.7771 144.808 27.7771 144.86 27.7685 144.86C27.7642 144.86 27.7556 144.808 27.747 144.705C27.7384 144.585 27.7298 144.434 27.7169 144.249C27.6954 143.819 27.6653 143.231 27.6309 142.487C27.5836 141.722 27.5707 140.785 27.5707 139.697C27.5578 138.61 27.5535 137.372 27.6094 136.005C27.6524 133.267 27.9019 130.013 28.2546 126.411C28.6675 122.813 29.2395 118.871 30.0697 114.77C30.9256 110.678 31.9493 106.827 33.0375 103.371C33.33 102.515 33.6181 101.677 33.8977 100.869C34.0396 100.465 34.1773 100.065 34.3106 99.6695C34.4612 99.2826 34.6117 98.9001 34.7579 98.5261C35.0547 97.7782 35.3386 97.056 35.6139 96.3596C35.8978 95.6676 36.2117 95.0228 36.487 94.3952C36.7709 93.7719 37.029 93.1744 37.2999 92.6199C37.5838 92.074 37.8505 91.5582 38.1 91.0725C38.3494 90.591 38.586 90.144 38.801 89.727C39.0247 89.3187 39.2527 88.9576 39.4462 88.6266C39.8333 87.9904 40.1387 87.4875 40.3624 87.1179C40.4613 86.9631 40.543 86.8342 40.6075 86.731C40.6592 86.6364 40.6936 86.5934 40.6979 86.5977Z" fill="#263238"/>
<path d="M38.9861 133.843C39.0033 133.856 38.8141 134.191 38.4485 134.784C38.0786 135.373 37.5753 136.241 36.9818 137.329C36.3839 138.416 35.7344 139.74 35.0721 141.24C34.4269 142.749 33.786 144.43 33.2226 146.235C32.672 148.045 32.2505 149.799 31.9322 151.406C31.6311 153.018 31.4204 154.48 31.2999 155.713C31.1752 156.947 31.1021 157.949 31.072 158.645C31.0376 159.337 31.0075 159.724 30.9859 159.724C30.9644 159.724 30.9515 159.341 30.9472 158.641C30.9343 157.944 30.973 156.934 31.0677 155.692C31.158 154.45 31.3472 152.975 31.6354 151.35C31.9408 149.73 32.3537 147.963 32.9086 146.141C33.4763 144.322 34.1344 142.629 34.7968 141.12C35.4764 139.616 36.1517 138.292 36.7796 137.217C37.4033 136.138 37.9409 135.283 38.3409 134.715C38.741 134.139 38.9689 133.83 38.9861 133.843Z" fill="#263238"/>
<path d="M17.8672 157.265H39.9967L37.3171 179.85H20.6242L17.8672 157.265Z" fill="#455A64"/>
<path d="M18.6758 177.412L20.5554 179.85H37.3171L39.2526 177.49L18.6758 177.412Z" fill="#263238"/>
<path d="M39.1323 163.911C39.1323 164.001 34.5386 164.074 28.8783 164.074C23.2136 164.074 18.6243 164.001 18.6243 163.911C18.6243 163.82 23.2136 163.747 28.8783 163.747C34.5429 163.743 39.1323 163.816 39.1323 163.911Z" fill="#FAFAFA"/>
<path d="M39.1323 165.411C39.1323 165.501 34.5386 165.574 28.8783 165.574C23.2136 165.574 18.6243 165.501 18.6243 165.411C18.6243 165.321 23.2136 165.248 28.8783 165.248C34.5429 165.248 39.1323 165.321 39.1323 165.411Z" fill="#FAFAFA"/>
<path d="M38.857 166.868C38.857 166.958 34.4268 167.031 28.96 167.031C23.4932 167.031 19.063 166.958 19.063 166.868C19.063 166.778 23.4932 166.705 28.96 166.705C34.4268 166.705 38.857 166.778 38.857 166.868Z" fill="#FAFAFA"/>
<path d="M21.2479 108.593C21.2565 108.593 21.2565 108.666 21.2436 108.808C21.2307 108.976 21.2135 109.178 21.192 109.423C21.1361 109.99 21.0587 110.747 20.964 111.671C20.7619 113.571 20.4694 116.193 20.1296 119.086C20.1167 119.198 20.1038 119.305 20.0909 119.408L20.078 119.507H19.9791C17.136 119.55 14.5768 119.58 12.7316 119.589C11.8327 119.589 11.0972 119.589 10.5466 119.589C10.31 119.584 10.1165 119.58 9.95304 119.576C9.8154 119.572 9.74658 119.563 9.74658 119.559C9.74658 119.55 9.8154 119.542 9.95304 119.533C10.1122 119.524 10.31 119.516 10.5466 119.503C11.0972 119.486 11.8327 119.46 12.7316 119.434C14.5768 119.387 17.136 119.331 19.9791 119.288L19.8715 119.387C19.8844 119.284 19.8973 119.176 19.9103 119.064C20.25 116.171 20.5683 113.554 20.8092 111.658C20.9296 110.738 21.0329 109.982 21.106 109.414C21.1447 109.169 21.1748 108.971 21.1963 108.804C21.2264 108.662 21.2436 108.589 21.2479 108.593Z" fill="#263238"/>
<path d="M16.2195 101.836C16.2281 101.836 16.2324 101.913 16.2367 102.059C16.2367 102.231 16.241 102.438 16.241 102.691C16.2367 103.276 16.2281 104.063 16.2195 105.021C16.1937 106.99 16.1378 109.707 16.0647 112.707C16.0604 112.827 16.0604 112.948 16.0561 113.064L16.0518 113.18L15.9356 113.171C13.0238 112.943 10.3914 112.943 8.49462 113.003C7.54406 113.034 6.77845 113.072 6.24941 113.098C6.00424 113.111 5.80639 113.12 5.63864 113.128C5.50101 113.132 5.42789 113.132 5.42358 113.124C5.42358 113.115 5.4967 113.102 5.63434 113.085C5.77198 113.068 5.97844 113.042 6.24081 113.016C6.76985 112.96 7.53546 112.9 8.48602 112.849C10.3871 112.746 13.0281 112.724 15.9486 112.948L15.8281 113.055C15.8324 112.943 15.8324 112.823 15.8367 112.698C15.9098 109.698 15.9873 106.981 16.0561 105.013C16.0948 104.054 16.1249 103.267 16.1507 102.683C16.1636 102.429 16.1765 102.219 16.1851 102.051C16.2023 101.913 16.2109 101.836 16.2195 101.836Z" fill="#263238"/>
<path d="M10.3314 99.5363C10.3487 99.532 10.3917 99.7641 10.4691 100.185C10.5551 100.641 10.6626 101.243 10.796 101.965C11.0842 103.465 11.5315 105.533 12.1637 107.798L12.2283 108.034L12.0046 107.927C11.9186 107.888 11.8283 107.841 11.7379 107.798C9.56584 106.749 7.40665 106.263 5.84103 106.074C5.05821 105.98 4.41734 105.941 3.97432 105.924C3.5313 105.911 3.28613 105.902 3.28613 105.885C3.28613 105.877 3.34635 105.868 3.46248 105.859C3.57861 105.851 3.75066 105.838 3.97432 105.834C4.41734 105.821 5.06682 105.834 5.85823 105.911C7.44106 106.061 9.63466 106.526 11.8369 107.592C11.9272 107.635 12.0218 107.682 12.1035 107.721L11.9444 107.85C11.3121 105.576 10.8863 103.495 10.6411 101.982C10.5164 101.226 10.4304 100.615 10.3831 100.19C10.3314 99.7727 10.3142 99.5406 10.3314 99.5363Z" fill="#263238"/>
<path d="M41.5753 140.712C41.571 140.746 40.9344 140.682 39.9022 140.639C38.8699 140.6 37.4419 140.6 35.8763 140.772C35.558 140.806 35.2483 140.845 34.9515 140.884L34.844 140.896L34.8268 140.793C34.5859 139.456 34.3881 138.279 34.2547 137.432C34.1214 136.585 34.0526 136.074 34.0827 136.069C34.1085 136.065 34.2289 136.568 34.401 137.406C34.573 138.244 34.801 139.418 35.0504 140.755L34.9257 140.664C35.2268 140.621 35.5408 140.578 35.8591 140.548C37.4376 140.376 38.8785 140.402 39.9151 140.484C40.4312 140.523 40.8484 140.578 41.1366 140.621C41.4205 140.66 41.5753 140.694 41.5753 140.712Z" fill="#263238"/>
<path d="M43.6654 136.559C43.6568 136.594 43.046 136.452 42.0438 136.327C41.046 136.203 39.6481 136.125 38.1169 136.289C37.8803 136.314 37.6437 136.344 37.4244 136.374L37.3082 136.392L37.2953 136.276C37.1577 134.9 37.0416 133.684 36.9728 132.807C36.8996 131.93 36.8738 131.401 36.8996 131.397C36.9297 131.392 37.0072 131.921 37.119 132.794C37.2308 133.666 37.3685 134.879 37.5147 136.254L37.39 136.155C37.6136 136.125 37.8502 136.091 38.0911 136.065C39.6395 135.902 41.0589 136.005 42.061 136.168C42.5643 136.25 42.9643 136.344 43.2396 136.413C43.5191 136.495 43.6697 136.546 43.6654 136.559Z" fill="#263238"/>
<path d="M45.1622 97.2451C45.1665 97.2537 45.0891 97.2924 44.9429 97.3612C44.7708 97.4386 44.5601 97.5331 44.2977 97.6492C43.7041 97.9028 42.8955 98.2467 41.9062 98.6679C39.8503 99.5191 37.0631 100.671 33.9792 101.948C33.8329 102.008 33.6867 102.068 33.5491 102.124L33.4501 102.167L33.4071 102.068C32.0996 99.115 30.9211 96.4585 30.0565 94.5113C29.6479 93.5656 29.3167 92.7919 29.0715 92.2245C28.9683 91.9709 28.8823 91.7645 28.8135 91.6012C28.7576 91.4594 28.7318 91.382 28.7361 91.3777C28.7447 91.3734 28.7834 91.4465 28.8522 91.584C28.9296 91.7431 29.0285 91.9451 29.149 92.1901C29.4113 92.7489 29.764 93.514 30.1985 94.4468C31.0802 96.3897 32.2759 99.0333 33.6093 101.978L33.463 101.922C33.5964 101.866 33.7426 101.806 33.8889 101.746C36.9814 100.495 39.7815 99.36 41.8417 98.5261C42.8439 98.1306 43.6611 97.8083 44.2633 97.5718C44.53 97.473 44.7493 97.387 44.9257 97.3225C45.0805 97.2623 45.1622 97.2365 45.1622 97.2451Z" fill="#263238"/>
<path d="M47.1023 87.6939C47.1066 87.7025 47.0377 87.7497 46.9087 87.8357C46.7539 87.9346 46.5646 88.0592 46.328 88.2097C45.7947 88.545 45.0635 89.0006 44.1689 89.5551C42.3064 90.6899 39.7731 92.2331 36.9601 93.9482L36.844 94.017L36.7967 93.888C36.7536 93.7763 36.7106 93.6602 36.6676 93.5398C35.4934 90.3718 34.431 87.5047 33.6482 85.3942C33.2783 84.3711 32.9772 83.5329 32.7579 82.9182C32.6632 82.6431 32.5858 82.4196 32.5256 82.2391C32.474 82.0843 32.4525 81.9983 32.4611 81.9983C32.4697 81.994 32.5041 82.0757 32.5686 82.2262C32.6417 82.4024 32.7277 82.6216 32.8396 82.8881C33.0761 83.4942 33.403 84.3281 33.7987 85.3426C34.5988 87.4445 35.6826 90.3031 36.8784 93.4625C36.9214 93.5828 36.9687 93.6989 37.0074 93.8106L36.844 93.7548C39.6698 92.0612 42.2161 90.5395 44.0871 89.4219C44.9947 88.8888 45.7388 88.4547 46.285 88.1366C46.5302 87.9991 46.7281 87.8873 46.8872 87.797C47.0248 87.724 47.098 87.6853 47.1023 87.6939Z" fill="#263238"/>
<path d="M46.4655 82.5958C46.4741 82.6087 46.302 82.7033 45.9923 82.8752C45.6827 83.0472 45.231 83.3008 44.6848 83.6404C43.5923 84.3152 42.1256 85.3555 40.6761 86.7783L40.4008 87.0491L40.4954 86.6708C40.5944 86.2754 40.6804 85.8584 40.7492 85.4285C41.1191 83.1288 40.8309 81.0011 40.4352 79.5353C40.2374 78.8002 40.0223 78.2199 39.8675 77.8202C39.704 77.4247 39.618 77.2055 39.6309 77.1969C39.6438 77.1926 39.7599 77.3989 39.9492 77.7858C40.1255 78.177 40.3707 78.753 40.5901 79.4923C41.0288 80.9624 41.3471 83.1245 40.9729 85.4629C40.9041 85.8971 40.8094 86.3226 40.7105 86.7224L40.5256 86.6149C41.9966 85.1878 43.4977 84.1562 44.616 83.5114C45.1751 83.189 45.6396 82.9526 45.9622 82.8022C46.2805 82.656 46.4612 82.5829 46.4655 82.5958Z" fill="#263238"/>
<path d="M21.2177 132.179C21.2306 132.183 21.1919 132.385 21.1145 132.751C21.037 133.116 20.9252 133.645 20.8048 134.307C20.5596 135.627 20.2972 137.471 20.2112 139.542L20.2069 139.641L20.108 139.646C19.9488 139.654 19.7811 139.667 19.6134 139.676C17.4198 139.809 15.4326 139.916 13.996 139.981C13.3078 140.007 12.7358 140.032 12.2928 140.05C11.8885 140.063 11.6648 140.058 11.6648 140.045C11.6648 140.028 11.8842 140.002 12.2885 139.964C12.7315 139.929 13.3035 139.882 13.9874 139.826C15.424 139.719 17.4069 139.585 19.6048 139.456C19.7725 139.448 19.9445 139.435 20.0994 139.426L19.9962 139.534C20.0865 137.445 20.379 135.592 20.6628 134.277C20.8048 133.619 20.9381 133.09 21.0413 132.734C21.1403 132.368 21.2048 132.175 21.2177 132.179Z" fill="#263238"/>
<path d="M16.8736 125.946C16.8865 125.946 16.8735 126.153 16.8348 126.522C16.7875 126.931 16.7273 127.459 16.6542 128.096C16.495 129.424 16.2542 131.272 15.9746 133.344L15.9617 133.434L15.8714 133.439C15.6434 133.451 15.4026 133.469 15.1574 133.486C12.9079 133.636 10.882 133.868 9.41532 134.062C8.71423 134.156 8.13357 134.234 7.68195 134.294C7.27334 134.35 7.04538 134.376 7.04108 134.358C7.03678 134.346 7.26044 134.29 7.66475 134.208C8.06906 134.126 8.65832 134.019 9.38951 133.903C10.8519 133.671 12.8821 133.413 15.1359 133.262C15.381 133.245 15.6219 133.232 15.8499 133.215L15.7466 133.31C16.0305 131.238 16.2972 129.394 16.495 128.07C16.594 127.438 16.6757 126.913 16.7402 126.509C16.8176 126.144 16.8563 125.946 16.8736 125.946Z" fill="#263238"/>
<path d="M11.755 123.264C11.7894 123.273 11.6517 123.87 11.4969 124.859C11.3378 125.843 11.17 127.223 11.1399 128.77L11.1356 128.895L11.0109 128.878C10.8947 128.865 10.7657 128.848 10.641 128.831C9.01513 128.629 7.53553 128.581 6.46024 128.581C5.9613 128.586 5.53979 128.59 5.18709 128.594C4.88601 128.598 4.71826 128.598 4.71826 128.581C4.71826 128.568 4.88171 128.538 5.18279 128.508C5.48387 128.478 5.91829 128.444 6.45593 128.422C7.53123 128.379 9.02803 128.405 10.6668 128.607C10.7958 128.624 10.9205 128.641 11.041 128.654L10.9162 128.762C10.9507 127.201 11.1442 125.813 11.3464 124.824C11.4453 124.33 11.5399 123.939 11.6173 123.668C11.6905 123.406 11.7378 123.26 11.755 123.264Z" fill="#263238"/>
<path d="M40.9042 129.493C40.9601 129.523 40.4827 130.511 39.9149 131.736C39.3472 132.961 38.9085 133.967 38.8525 133.946C38.7966 133.924 39.145 132.875 39.7128 131.642C40.2805 130.408 40.8526 129.467 40.9042 129.493Z" fill="#263238"/>
<path d="M43.687 132.437C43.6913 132.506 42.5257 132.519 41.1708 132.944C39.816 133.357 38.8439 134.006 38.8095 133.946C38.7708 133.907 39.7084 133.155 41.1063 132.729C42.4956 132.295 43.6956 132.385 43.687 132.437Z" fill="#263238"/>
<path d="M185.712 180H156.61V158.151C156.61 150.121 163.126 143.609 171.161 143.609C179.195 143.609 185.712 150.121 185.712 158.151V180Z" fill="#455A64"/>
<path d="M179.916 160.023C181.009 155.373 178.124 150.718 173.471 149.625C168.819 148.532 164.16 151.415 163.067 156.065C161.973 160.715 164.858 165.371 169.511 166.463C174.164 167.556 178.822 164.673 179.916 160.023Z" fill="#F5F5F5"/>
<path d="M174.58 156.874C174.632 156.943 173.376 157.983 171.595 159.359L171.307 159.582V159.212C171.303 158.714 171.303 158.185 171.298 157.639C171.298 156.135 171.32 154.772 171.354 153.783C171.389 152.795 171.436 152.189 171.488 152.189C171.539 152.189 171.587 152.799 171.621 153.783C171.655 154.768 171.677 156.13 171.677 157.639C171.673 158.185 171.673 158.714 171.668 159.212L171.376 159.066C173.182 157.734 174.529 156.805 174.58 156.874Z" fill="#263238"/>
<path d="M179.226 175.28C179.217 175.272 179.208 175.151 179.2 174.923C179.191 174.661 179.183 174.335 179.17 173.939C179.152 173.049 179.131 171.841 179.101 170.346L179.226 170.47C175.548 170.513 169.974 170.539 163.746 170.539C163.832 170.453 163.556 170.728 163.935 170.35V170.354V170.358V170.367V170.389V170.427V170.509V170.668V170.986V171.622C163.935 172.043 163.935 172.46 163.935 172.873C163.935 173.698 163.931 174.502 163.931 175.285L163.746 175.1C168.159 175.108 172 175.147 174.761 175.186C176.107 175.207 177.204 175.224 178.017 175.237C178.37 175.246 178.662 175.254 178.903 175.263C179.105 175.263 179.217 175.272 179.226 175.28C179.234 175.289 179.14 175.297 178.95 175.302C178.722 175.31 178.443 175.315 178.103 175.328C177.303 175.34 176.219 175.358 174.89 175.379C172.137 175.414 168.24 175.456 163.746 175.465H163.561V175.28C163.561 174.498 163.556 173.694 163.556 172.869C163.556 172.456 163.556 172.039 163.556 171.618V170.982V170.664V170.505V170.423V170.384V170.363V170.354V170.35V170.346C163.935 169.967 163.664 170.238 163.746 170.156C169.974 170.156 175.548 170.182 179.226 170.225H179.35L179.346 170.346C179.316 171.872 179.294 173.105 179.277 174.016C179.264 174.399 179.256 174.717 179.247 174.971C179.243 175.181 179.234 175.289 179.226 175.28Z" fill="#263238"/>
<path d="M65.2918 49.6521C64.3068 49.4114 59.5626 48.2465 50.3839 45.9898L50.4914 45.9726C47.214 48.0616 42.7708 49.7466 37.6223 49.8283C35.0631 49.8197 32.3534 49.5102 29.648 48.6634C26.9468 47.8209 24.2887 46.4282 21.8758 44.5455C17.0455 40.8143 13.2863 34.8308 12.4734 27.9446C12.0605 24.523 12.3358 20.9251 13.4024 17.482C14.4863 14.0475 16.3574 10.7936 18.8821 8.05112C20.1596 6.60252 21.665 5.40323 23.2005 4.28992C24.0048 3.79129 24.8006 3.27547 25.6307 2.83703L26.8995 2.22664L27.5275 1.92574L28.1856 1.68503C31.6609 0.339592 35.3556 -0.180527 38.9041 0.0515921C42.4569 0.279413 45.8591 1.27237 48.8355 2.83703C51.8162 4.39738 54.3711 6.52085 56.3798 8.92801C58.3927 11.3352 59.8551 14.0303 60.7842 16.747C61.7132 19.468 62.139 22.2061 62.1605 24.7938C62.1906 29.9907 60.5648 34.4483 58.5906 37.7022V37.569C62.7369 45.0398 64.8316 48.8182 65.2918 49.6521C64.8144 48.8268 62.6466 45.0914 58.3583 37.6979L58.3196 37.6292L58.3583 37.5604C60.2852 34.3236 61.8551 29.9133 61.7992 24.7938C61.7605 22.2448 61.3304 19.5539 60.4057 16.8803C59.4809 14.2109 58.0314 11.5673 56.0486 9.20742C54.07 6.84753 51.5538 4.77135 48.6247 3.24538C45.6956 1.71941 42.3579 0.752249 38.874 0.533025C35.3943 0.305204 31.7684 0.821025 28.3662 2.14497L27.721 2.38138L27.1017 2.67798L25.8586 3.27547C25.0457 3.70532 24.2672 4.21255 23.4758 4.69828C21.9704 5.7901 20.4951 6.96359 19.2434 8.3864C16.7703 11.073 14.938 14.2625 13.8713 17.6282C12.8261 21.0025 12.5508 24.5316 12.9508 27.8887C13.7379 34.6417 17.4111 40.5263 22.1467 44.2102C24.5124 46.0671 27.1189 47.4469 29.7727 48.2852C32.4308 49.1277 35.0933 49.4415 37.618 49.4672C42.6934 49.4157 47.0849 47.7822 50.3452 45.7404L50.3968 45.7061L50.4527 45.7232C59.5884 48.139 64.3111 49.3942 65.2918 49.6521Z" fill="#263238"/>
<path d="M35.1793 13.8584L35.9664 26.3026C36.031 27.3213 36.8439 28.1294 37.8633 28.1896C38.9386 28.2541 39.8719 27.4632 39.9923 26.3971L41.373 13.8885C41.4762 12.9428 40.7278 12.1175 39.773 12.1304L36.7364 12.1734C35.8331 12.1863 35.1191 12.9557 35.1793 13.8584Z" fill="#E8505B"/>
<path d="M41.1622 35.1962C40.6331 36.7866 38.9127 37.6506 37.3212 37.1219C35.7298 36.5932 34.8653 34.8738 35.3943 33.2834C35.9233 31.6929 37.6438 30.8289 39.2353 31.3576C40.831 31.882 41.6912 33.6015 41.1622 35.1962Z" fill="#E8505B"/>
</g>
<defs>
<clipPath id="clip0">
<rect width="194" height="180" fill="white"/>
</clipPath>
</defs>
</svg>
