<svg width="307" height="105" viewBox="0 0 307 105" fill="none" xmlns="http://www.w3.org/2000/svg">
<rect x="32.3582" y="26.7431" width="18.1905" height="3.6381" rx="1.5" transform="rotate(-37 32.3582 26.7431)" fill="#FE4B20"/>
<rect x="291.304" y="47.2704" width="18.1905" height="3.6381" rx="1.5" transform="rotate(-45 291.304 47.2704)" fill="#FE4B20"/>
<rect x="108.965" width="7.27621" height="7.27621" transform="rotate(42 108.965 0)" fill="#9186F4"/>
<rect x="7.11646" y="95.0656" width="7.27621" height="7.27621" transform="rotate(70 7.11646 95.0656)" fill="#9186F4"/>
<rect x="158.704" y="32.0052" width="7.27621" height="7.27621" transform="rotate(70 158.704 32.0052)" fill="#FE4B20"/>
<rect x="252.8" y="35.7002" width="12.127" height="2.4254" rx="1.2127" transform="rotate(138 252.8 35.7002)" fill="#9186F4"/>
<rect x="87.1277" y="60.2339" width="12.127" height="2.4254" rx="1.2127" transform="rotate(-149 87.1277 60.2339)" fill="#9186F4"/>
<path d="M255.45 64.9848L251.292 68.4368L246.271 66.4386C245.92 66.2987 245.571 66.6471 245.711 66.9987L247.709 72.0198L244.257 76.1776C244.016 76.4688 244.239 76.9078 244.617 76.8834L250.01 76.5345L252.897 81.1025C253.1 81.4223 253.586 81.3452 253.68 80.9786L255.015 75.7419L260.251 74.4072C260.618 74.3137 260.695 73.8271 260.375 73.6248L255.807 70.7372L256.156 65.3444C256.18 64.9668 255.741 64.7431 255.45 64.9848Z" fill="#FFDC64"/>
<path d="M241.981 70.4875C242.444 70.563 244.149 71.1726 245.136 71.5339C245.291 71.5907 245.254 71.8194 245.089 71.824C244.038 71.8535 242.228 71.8908 241.764 71.8154C241.398 71.7557 241.149 71.41 241.209 71.0433C241.268 70.6767 241.614 70.4279 241.981 70.4875Z" fill="#FFF082"/>
<path d="M249.76 62.708C249.836 63.1714 250.445 64.8759 250.807 65.8633C250.863 66.0185 251.092 65.9813 251.097 65.816C251.126 64.7651 251.163 62.9552 251.088 62.4918C251.028 62.1251 250.683 61.8763 250.316 61.936C249.949 61.9957 249.701 62.3413 249.76 62.708Z" fill="#FFF082"/>
<path d="M260.726 67.5436C260.308 67.7563 258.869 68.855 258.038 69.4992C257.907 69.6005 258.012 69.8071 258.171 69.7613C259.181 69.4701 260.917 68.9557 261.336 68.743C261.667 68.5747 261.799 68.1698 261.631 67.8386C261.462 67.5074 261.057 67.3754 260.726 67.5436Z" fill="#FFF082"/>
<path d="M246.816 81.4535C247.029 81.0349 248.128 79.5961 248.772 78.7653C248.873 78.6347 249.08 78.7397 249.034 78.8985C248.743 79.9087 248.228 81.6444 248.016 82.0629C247.847 82.3941 247.442 82.5262 247.111 82.3579C246.78 82.1895 246.648 81.7847 246.816 81.4535Z" fill="#FFF082"/>
<path d="M258.678 80.3276C258.346 79.9956 257.319 78.505 256.729 77.6349C256.636 77.4981 256.8 77.3342 256.937 77.427C257.807 78.0171 259.297 79.0443 259.629 79.3763C259.892 79.639 259.892 80.0649 259.629 80.3276C259.367 80.5903 258.941 80.5903 258.678 80.3276Z" fill="#FFF082"/>
<path d="M248.097 67.1653L246.271 66.4386C245.92 66.2987 245.571 66.6471 245.711 66.9987L247.709 72.0198L244.257 76.1776C244.016 76.4688 244.239 76.9078 244.617 76.8834L250.01 76.5345L252.897 81.1025C253.1 81.4223 253.586 81.3452 253.68 80.9786L253.857 80.2816C249.934 74.9239 248.542 69.5018 248.097 67.1653Z" fill="#FFC850"/>
</svg>
