<svg width="36" height="36" viewBox="0 0 36 36" fill="none" xmlns="http://www.w3.org/2000/svg">
<path fill-rule="evenodd" clip-rule="evenodd" d="M26.6533 12.5727H33C33 7.47689 29.9467 4.5 24.7733 4.5H11.2267C6.05333 4.5 3 7.47689 3 12.5077V23.4923C3 28.5231 6.05333 31.5 11.2267 31.5H24.7733C29.9467 31.5 33 28.5231 33 23.4923V23.0243H26.6533C23.7078 23.0243 21.32 20.6963 21.32 17.8245C21.32 14.9527 23.7078 12.6247 26.6533 12.6247V12.5727ZM26.6533 14.8086H31.88C32.4986 14.8086 33 15.2975 33 15.9006V19.6964C32.9928 20.2966 32.4955 20.7814 31.88 20.7884H26.7733C25.2822 20.808 23.9782 19.8126 23.64 18.3965C23.4706 17.5174 23.7084 16.6103 24.2896 15.9183C24.8708 15.2263 25.736 14.8201 26.6533 14.8086ZM26.88 18.7995H27.3733C28.0066 18.7995 28.52 18.2989 28.52 17.6815C28.52 17.0641 28.0066 16.5635 27.3733 16.5635H26.88C26.5771 16.5601 26.2854 16.6749 26.07 16.8825C25.8545 17.0901 25.7333 17.3732 25.7333 17.6685C25.7333 18.2881 26.2445 18.7923 26.88 18.7995ZM10.1067 12.5727H18.5734C19.2066 12.5727 19.72 12.0722 19.72 11.4547C19.72 10.8373 19.2066 10.3368 18.5734 10.3368H10.1067C9.47858 10.3367 8.96733 10.8294 8.96003 11.4417C8.95999 12.0613 9.47126 12.5656 10.1067 12.5727Z" fill="url(#paint0_linear)"/>
<defs>
<linearGradient id="paint0_linear" x1="18" y1="4.5" x2="18" y2="31.5" gradientUnits="userSpaceOnUse">
<stop stop-color="#EA7A6E"/>
<stop offset="1" stop-color="#E23A28"/>
</linearGradient>
</defs>
</svg>
