<svg width="375" height="98" viewBox="0 0 375 98" fill="none" xmlns="http://www.w3.org/2000/svg">
<path opacity="0.3" d="M14.4865 45.7556H0V97.941H14.4865V45.7556Z" fill="#C2D4D6"/>
<path opacity="0.3" d="M40.9104 39.2734H7.95605V98H40.9104V39.2734Z" fill="#D2E4E6"/>
<path opacity="0.3" d="M49.4315 34.456V98H77.557V32.3258L49.4315 34.456Z" fill="#D2E4E6"/>
<path opacity="0.3" d="M70.5272 4.48315V98H103.974V13.6264L70.5272 4.48315Z" fill="#F4F8F9"/>
<path opacity="0.3" d="M90.7689 35.308V98H120.596V42.3933L90.7689 35.308Z" fill="#D2E4E6"/>
<path opacity="0.3" d="M141.048 27.2266H120.596V97.9934H141.048V27.2266Z" fill="#D2E4E6"/>
<path opacity="0.3" d="M130.825 8.50094V98H161.079V0L130.825 8.50094Z" fill="#F4F8F9"/>
<path opacity="0.3" d="M195.17 8.50094V98H225.424V0L195.17 8.50094Z" fill="#F4F8F9"/>
<path opacity="0.3" d="M247.585 14.8979V98H277.839V22.8876L247.585 14.8979Z" fill="#F4F8F9"/>
<path opacity="0.3" d="M169.173 14.8979V98H207.101V32.3259L169.173 14.8979Z" fill="#D2E4E6"/>
<path opacity="0.3" d="M264.627 39.2734H232.244V98H264.627V39.2734Z" fill="#D2E4E6"/>
<path opacity="0.3" d="M286.366 20.8493V98H338.353V4.48315L286.366 20.8493Z" fill="#D8E3E7"/>
<path opacity="0.3" d="M367.333 32.3258H344.319V97.9934H367.333V32.3258Z" fill="#D7E2E6"/>
<path opacity="0.3" d="M365.415 26.5187H346.382V32.3258H365.415V26.5187Z" fill="#D7E2E6"/>
<path opacity="0.3" d="M349.857 43.809H318.322V98H349.857V43.809Z" fill="#7390B0"/>
<path opacity="0.3" d="M280.112 39.8371V98H313.198V47.7743L280.112 39.8371Z" fill="#7390B0"/>
<path opacity="0.3" d="M353.694 62.089V98H373.298V68.8923L353.694 62.089Z" fill="#7390B0"/>
<path opacity="0.3" d="M375 92.7697H355.823V98H375V92.7697Z" fill="#3B5F93"/>
<g opacity="0.3">
<path opacity="0.3" d="M324.504 59.1133H309.591V98H324.504V59.1133Z" fill="#3B5F93"/>
<g opacity="0.3">
<g opacity="0.3">
<g opacity="0.3">
<path opacity="0.3" d="M314.025 94.1133H312.357V95.7781H314.025V94.1133Z" fill="#5C7CAB"/>
</g>
<g opacity="0.3">
<path opacity="0.3" d="M314.025 91.1376H312.357V92.8024H314.025V91.1376Z" fill="#5C7CAB"/>
</g>
<g opacity="0.3">
<path opacity="0.3" d="M314.025 88.162H312.357V89.8268H314.025V88.162Z" fill="#5C7CAB"/>
</g>
<g opacity="0.3">
<path opacity="0.3" d="M314.025 85.1863H312.357V86.8511H314.025V85.1863Z" fill="#5C7CAB"/>
</g>
<g opacity="0.3">
<path opacity="0.3" d="M314.025 82.2107H312.357V83.8755H314.025V82.2107Z" fill="#5C7CAB"/>
</g>
<g opacity="0.3">
<path opacity="0.3" d="M314.025 79.235H312.357V80.8998H314.025V79.235Z" fill="#5C7CAB"/>
</g>
<g opacity="0.3">
<path opacity="0.3" d="M314.025 76.2594H312.357V77.9242H314.025V76.2594Z" fill="#5C7CAB"/>
</g>
<g opacity="0.3">
<path opacity="0.3" d="M314.025 73.2837H312.357V74.9485H314.025V73.2837Z" fill="#5C7CAB"/>
</g>
<g opacity="0.3">
<path opacity="0.3" d="M314.025 70.308H312.357V71.9728H314.025V70.308Z" fill="#5C7CAB"/>
</g>
<g opacity="0.3">
<path opacity="0.3" d="M314.025 67.3324H312.357V68.9972H314.025V67.3324Z" fill="#5C7CAB"/>
</g>
</g>
<g opacity="0.3">
<g opacity="0.3">
<path opacity="0.3" d="M316.469 94.1133H314.801V95.7781H316.469V94.1133Z" fill="#5C7CAB"/>
</g>
<g opacity="0.3">
<path opacity="0.3" d="M316.469 91.1376H314.801V92.8024H316.469V91.1376Z" fill="#5C7CAB"/>
</g>
<g opacity="0.3">
<path opacity="0.3" d="M316.469 88.162H314.801V89.8268H316.469V88.162Z" fill="#5C7CAB"/>
</g>
<g opacity="0.3">
<path opacity="0.3" d="M316.469 85.1863H314.801V86.8511H316.469V85.1863Z" fill="#5C7CAB"/>
</g>
<g opacity="0.3">
<path opacity="0.3" d="M316.469 82.2107H314.801V83.8755H316.469V82.2107Z" fill="#5C7CAB"/>
</g>
<g opacity="0.3">
<path opacity="0.3" d="M316.469 79.235H314.801V80.8998H316.469V79.235Z" fill="#5C7CAB"/>
</g>
<g opacity="0.3">
<path opacity="0.3" d="M316.469 76.2594H314.801V77.9242H316.469V76.2594Z" fill="#5C7CAB"/>
</g>
<g opacity="0.3">
<path opacity="0.3" d="M316.469 73.2837H314.801V74.9485H316.469V73.2837Z" fill="#5C7CAB"/>
</g>
<g opacity="0.3">
<path opacity="0.3" d="M316.469 70.308H314.801V71.9728H316.469V70.308Z" fill="#5C7CAB"/>
</g>
<g opacity="0.3">
<path opacity="0.3" d="M316.469 67.3324H314.801V68.9972H316.469V67.3324Z" fill="#5C7CAB"/>
</g>
</g>
<g opacity="0.3">
<g opacity="0.3">
<path opacity="0.3" d="M318.913 94.1133H317.245V95.7781H318.913V94.1133Z" fill="#5C7CAB"/>
</g>
<g opacity="0.3">
<path opacity="0.3" d="M318.913 91.1376H317.245V92.8024H318.913V91.1376Z" fill="#5C7CAB"/>
</g>
<g opacity="0.3">
<path opacity="0.3" d="M318.913 88.162H317.245V89.8268H318.913V88.162Z" fill="#5C7CAB"/>
</g>
<g opacity="0.3">
<path opacity="0.3" d="M318.913 85.1863H317.245V86.8511H318.913V85.1863Z" fill="#5C7CAB"/>
</g>
<g opacity="0.3">
<path opacity="0.3" d="M318.913 82.2107H317.245V83.8755H318.913V82.2107Z" fill="#5C7CAB"/>
</g>
<g opacity="0.3">
<path opacity="0.3" d="M318.913 79.235H317.245V80.8998H318.913V79.235Z" fill="#5C7CAB"/>
</g>
<g opacity="0.3">
<path opacity="0.3" d="M318.913 76.2594H317.245V77.9242H318.913V76.2594Z" fill="#5C7CAB"/>
</g>
<g opacity="0.3">
<path opacity="0.3" d="M318.913 73.2837H317.245V74.9485H318.913V73.2837Z" fill="#5C7CAB"/>
</g>
<g opacity="0.3">
<path opacity="0.3" d="M318.913 70.308H317.245V71.9728H318.913V70.308Z" fill="#5C7CAB"/>
</g>
<g opacity="0.3">
<path opacity="0.3" d="M318.913 67.3324H317.245V68.9972H318.913V67.3324Z" fill="#5C7CAB"/>
</g>
</g>
<g opacity="0.3">
<g opacity="0.3">
<path opacity="0.3" d="M321.357 94.1133H319.689V95.7781H321.357V94.1133Z" fill="#5C7CAB"/>
</g>
<g opacity="0.3">
<path opacity="0.3" d="M321.357 91.1376H319.689V92.8024H321.357V91.1376Z" fill="#5C7CAB"/>
</g>
<g opacity="0.3">
<path opacity="0.3" d="M321.357 88.162H319.689V89.8268H321.357V88.162Z" fill="#5C7CAB"/>
</g>
<g opacity="0.3">
<path opacity="0.3" d="M321.357 85.1863H319.689V86.8511H321.357V85.1863Z" fill="#5C7CAB"/>
</g>
<g opacity="0.3">
<path opacity="0.3" d="M321.357 82.2107H319.689V83.8755H321.357V82.2107Z" fill="#5C7CAB"/>
</g>
<g opacity="0.3">
<path opacity="0.3" d="M321.357 79.235H319.689V80.8998H321.357V79.235Z" fill="#5C7CAB"/>
</g>
<g opacity="0.3">
<path opacity="0.3" d="M321.357 76.2594H319.689V77.9242H321.357V76.2594Z" fill="#5C7CAB"/>
</g>
<g opacity="0.3">
<path opacity="0.3" d="M321.357 73.2837H319.689V74.9485H321.357V73.2837Z" fill="#5C7CAB"/>
</g>
<g opacity="0.3">
<path opacity="0.3" d="M321.357 70.308H319.689V71.9728H321.357V70.308Z" fill="#5C7CAB"/>
</g>
<g opacity="0.3">
<path opacity="0.3" d="M321.357 67.3324H319.689V68.9972H321.357V67.3324Z" fill="#5C7CAB"/>
</g>
</g>
</g>
</g>
<g opacity="0.3">
<path opacity="0.3" d="M304.046 59.1133H289.132V98H304.046V59.1133Z" fill="#3B5F93"/>
<g opacity="0.3">
<g opacity="0.3">
<g opacity="0.3">
<path opacity="0.3" d="M293.573 94.1133H291.905V95.7781H293.573V94.1133Z" fill="#5C7CAB"/>
</g>
<g opacity="0.3">
<path opacity="0.3" d="M293.573 91.1376H291.905V92.8024H293.573V91.1376Z" fill="#5C7CAB"/>
</g>
<g opacity="0.3">
<path opacity="0.3" d="M293.573 88.162H291.905V89.8268H293.573V88.162Z" fill="#5C7CAB"/>
</g>
<g opacity="0.3">
<path opacity="0.3" d="M293.573 85.1863H291.905V86.8511H293.573V85.1863Z" fill="#5C7CAB"/>
</g>
<g opacity="0.3">
<path opacity="0.3" d="M293.573 82.2107H291.905V83.8755H293.573V82.2107Z" fill="#5C7CAB"/>
</g>
<g opacity="0.3">
<path opacity="0.3" d="M293.573 79.235H291.905V80.8998H293.573V79.235Z" fill="#5C7CAB"/>
</g>
<g opacity="0.3">
<path opacity="0.3" d="M293.573 76.2594H291.905V77.9242H293.573V76.2594Z" fill="#5C7CAB"/>
</g>
<g opacity="0.3">
<path opacity="0.3" d="M293.573 73.2837H291.905V74.9485H293.573V73.2837Z" fill="#5C7CAB"/>
</g>
<g opacity="0.3">
<path opacity="0.3" d="M293.573 70.308H291.905V71.9728H293.573V70.308Z" fill="#5C7CAB"/>
</g>
<g opacity="0.3">
<path opacity="0.3" d="M293.573 67.3324H291.905V68.9972H293.573V67.3324Z" fill="#5C7CAB"/>
</g>
</g>
<g opacity="0.3">
<g opacity="0.3">
<path opacity="0.3" d="M296.017 94.1133H294.349V95.7781H296.017V94.1133Z" fill="#5C7CAB"/>
</g>
<g opacity="0.3">
<path opacity="0.3" d="M296.017 91.1376H294.349V92.8024H296.017V91.1376Z" fill="#5C7CAB"/>
</g>
<g opacity="0.3">
<path opacity="0.3" d="M296.017 88.162H294.349V89.8268H296.017V88.162Z" fill="#5C7CAB"/>
</g>
<g opacity="0.3">
<path opacity="0.3" d="M296.017 85.1863H294.349V86.8511H296.017V85.1863Z" fill="#5C7CAB"/>
</g>
<g opacity="0.3">
<path opacity="0.3" d="M296.017 82.2107H294.349V83.8755H296.017V82.2107Z" fill="#5C7CAB"/>
</g>
<g opacity="0.3">
<path opacity="0.3" d="M296.017 79.235H294.349V80.8998H296.017V79.235Z" fill="#5C7CAB"/>
</g>
<g opacity="0.3">
<path opacity="0.3" d="M296.017 76.2594H294.349V77.9242H296.017V76.2594Z" fill="#5C7CAB"/>
</g>
<g opacity="0.3">
<path opacity="0.3" d="M296.017 73.2837H294.349V74.9485H296.017V73.2837Z" fill="#5C7CAB"/>
</g>
<g opacity="0.3">
<path opacity="0.3" d="M296.017 70.308H294.349V71.9728H296.017V70.308Z" fill="#5C7CAB"/>
</g>
<g opacity="0.3">
<path opacity="0.3" d="M296.017 67.3324H294.349V68.9972H296.017V67.3324Z" fill="#5C7CAB"/>
</g>
</g>
<g opacity="0.3">
<g opacity="0.3">
<path opacity="0.3" d="M298.461 94.1133H296.793V95.7781H298.461V94.1133Z" fill="#5C7CAB"/>
</g>
<g opacity="0.3">
<path opacity="0.3" d="M298.461 91.1376H296.793V92.8024H298.461V91.1376Z" fill="#5C7CAB"/>
</g>
<g opacity="0.3">
<path opacity="0.3" d="M298.461 88.162H296.793V89.8268H298.461V88.162Z" fill="#5C7CAB"/>
</g>
<g opacity="0.3">
<path opacity="0.3" d="M298.461 85.1863H296.793V86.8511H298.461V85.1863Z" fill="#5C7CAB"/>
</g>
<g opacity="0.3">
<path opacity="0.3" d="M298.461 82.2107H296.793V83.8755H298.461V82.2107Z" fill="#5C7CAB"/>
</g>
<g opacity="0.3">
<path opacity="0.3" d="M298.461 79.235H296.793V80.8998H298.461V79.235Z" fill="#5C7CAB"/>
</g>
<g opacity="0.3">
<path opacity="0.3" d="M298.461 76.2594H296.793V77.9242H298.461V76.2594Z" fill="#5C7CAB"/>
</g>
<g opacity="0.3">
<path opacity="0.3" d="M298.461 73.2837H296.793V74.9485H298.461V73.2837Z" fill="#5C7CAB"/>
</g>
<g opacity="0.3">
<path opacity="0.3" d="M298.461 70.308H296.793V71.9728H298.461V70.308Z" fill="#5C7CAB"/>
</g>
<g opacity="0.3">
<path opacity="0.3" d="M298.461 67.3324H296.793V68.9972H298.461V67.3324Z" fill="#5C7CAB"/>
</g>
</g>
<g opacity="0.3">
<g opacity="0.3">
<path opacity="0.3" d="M300.905 94.1133H299.237V95.7781H300.905V94.1133Z" fill="#5C7CAB"/>
</g>
<g opacity="0.3">
<path opacity="0.3" d="M300.905 91.1376H299.237V92.8024H300.905V91.1376Z" fill="#5C7CAB"/>
</g>
<g opacity="0.3">
<path opacity="0.3" d="M300.905 88.162H299.237V89.8268H300.905V88.162Z" fill="#5C7CAB"/>
</g>
<g opacity="0.3">
<path opacity="0.3" d="M300.905 85.1863H299.237V86.8511H300.905V85.1863Z" fill="#5C7CAB"/>
</g>
<g opacity="0.3">
<path opacity="0.3" d="M300.905 82.2107H299.237V83.8755H300.905V82.2107Z" fill="#5C7CAB"/>
</g>
<g opacity="0.3">
<path opacity="0.3" d="M300.905 79.235H299.237V80.8998H300.905V79.235Z" fill="#5C7CAB"/>
</g>
<g opacity="0.3">
<path opacity="0.3" d="M300.905 76.2594H299.237V77.9242H300.905V76.2594Z" fill="#5C7CAB"/>
</g>
<g opacity="0.3">
<path opacity="0.3" d="M300.905 73.2837H299.237V74.9485H300.905V73.2837Z" fill="#5C7CAB"/>
</g>
<g opacity="0.3">
<path opacity="0.3" d="M300.905 70.308H299.237V71.9728H300.905V70.308Z" fill="#5C7CAB"/>
</g>
<g opacity="0.3">
<path opacity="0.3" d="M300.905 67.3324H299.237V68.9972H300.905V67.3324Z" fill="#5C7CAB"/>
</g>
</g>
</g>
</g>
<path opacity="0.3" d="M273.121 56.118V52.9981L257.275 54.2369V59.9063L252.61 61.0271V98H275.927V55.4429L273.121 56.118Z" fill="#7390B0"/>
<path opacity="0.3" d="M246.349 58.0515H216.693V98H246.349V58.0515Z" fill="#7390B0"/>
<path opacity="0.3" d="M243.275 52.8408H221.023V58.0449H243.275V52.8408Z" fill="#7390B0"/>
<path opacity="0.3" d="M159.969 52.8408V44.8708L138.992 49.1245V52.8408H135.299V98H162.42V52.8408H159.969Z" fill="#7390B0"/>
<path opacity="0.3" d="M191.018 44.8708L167.577 58.0515V98H214.453V58.0515L191.018 44.8708Z" fill="#7390B0"/>
<path opacity="0.3" d="M106.957 44.8708L92.0435 58.0515V98H121.877V58.0515L106.957 44.8708Z" fill="#7390B0"/>
<path opacity="0.3" d="M85.6576 49.1245H58.1694V98H85.6576V49.1245Z" fill="#7390B0"/>
<path opacity="0.3" d="M59.871 49.1245H84.1597V45.7556L59.871 42.3932V49.1245Z" fill="#7390B0"/>
<path opacity="0.3" d="M21.0958 98H51.1331V58.53L21.0958 52.8998V98Z" fill="#7390B0"/>
<g opacity="0.3">
<path opacity="0.3" d="M84.1597 79.661V98H96.5175V75.4073L84.1597 79.661Z" fill="#3B5F93"/>
<g opacity="0.3">
<path opacity="0.3" d="M89.9148 89.8595H87.0044V92.7631H89.9148V89.8595Z" fill="#7390B0"/>
<path opacity="0.3" d="M94.1721 89.8595H91.2617V92.7631H94.1721V89.8595Z" fill="#7390B0"/>
<path opacity="0.3" d="M89.9148 93.6873H87.0044V96.5908H89.9148V93.6873Z" fill="#7390B0"/>
<path opacity="0.3" d="M94.1721 93.6873H91.2617V96.5908H94.1721V93.6873Z" fill="#7390B0"/>
</g>
</g>
<g opacity="0.3">
<path opacity="0.3" d="M186.721 98H199.079V75.4073L186.721 79.661V98Z" fill="#3B5F93"/>
<g opacity="0.3">
<path opacity="0.3" d="M192.47 89.8595H189.56V92.7631H192.47V89.8595Z" fill="#7390B0"/>
<path opacity="0.3" d="M196.734 89.8595H193.823V92.7631H196.734V89.8595Z" fill="#7390B0"/>
<path opacity="0.3" d="M192.47 93.6873H189.56V96.5908H192.47V93.6873Z" fill="#7390B0"/>
<path opacity="0.3" d="M196.734 93.6873H193.823V96.5908H196.734V93.6873Z" fill="#7390B0"/>
</g>
</g>
<path opacity="0.3" d="M67.1175 75.4073V98H79.4754V79.661L67.1175 75.4073Z" fill="#3B5F93"/>
<g opacity="0.3">
<path opacity="0.3" d="M76.6307 89.8596H73.7202V92.7631H76.6307V89.8596Z" fill="#7390B0"/>
<path opacity="0.3" d="M72.3734 89.8596H69.463V92.7631H72.3734V89.8596Z" fill="#7390B0"/>
<path opacity="0.3" d="M76.6307 93.6873H73.7202V96.5908H76.6307V93.6873Z" fill="#7390B0"/>
<path opacity="0.3" d="M72.3734 93.6873H69.463V96.5908H72.3734V93.6873Z" fill="#7390B0"/>
</g>
<path opacity="0.3" d="M258.99 75.6826H237.29V98H258.99V75.6826Z" fill="#3B5F93"/>
<g opacity="0.3">
<path opacity="0.3" d="M243.275 87.4738H240.088V90.6526H243.275V87.4738Z" fill="#5C7CAB"/>
<path opacity="0.3" d="M247.939 87.4738H244.753V90.6526H247.939V87.4738Z" fill="#5C7CAB"/>
<path opacity="0.3" d="M252.604 87.4738H249.418V90.6526H252.604V87.4738Z" fill="#5C7CAB"/>
<path opacity="0.3" d="M257.275 87.4738H254.089V90.6526H257.275V87.4738Z" fill="#5C7CAB"/>
<path opacity="0.3" d="M243.275 91.6685H240.088V94.8474H243.275V91.6685Z" fill="#5C7CAB"/>
<path opacity="0.3" d="M247.939 91.6685H244.753V94.8474H247.939V91.6685Z" fill="#5C7CAB"/>
<path opacity="0.3" d="M252.604 91.6685H249.418V94.8474H252.604V91.6685Z" fill="#5C7CAB"/>
<path opacity="0.3" d="M257.275 91.6685H254.089V94.8474H257.275V91.6685Z" fill="#5C7CAB"/>
</g>
<path opacity="0.3" d="M258.99 75.6826H237.29V98H258.99V75.6826Z" fill="#3B5F93"/>
</svg>
