<svg width="24" height="24" viewBox="0 0 24 24" fill="none" xmlns="http://www.w3.org/2000/svg">
<path d="M11.6 10H4.4C3.07452 10 2 11.0745 2 12.4V19.6C2 20.9255 3.07452 22 4.4 22H11.6C12.9255 22 14 20.9255 14 19.6V12.4C14 11.0745 12.9255 10 11.6 10Z" fill="url(#paint0_linear)"/>
<path d="M13.9863 4.35416C13.9603 4.18698 13.885 4.03233 13.7708 3.91159L12.1733 2.24467C12.099 2.16718 12.0106 2.10568 11.9134 2.0637C11.8162 2.02172 11.712 2.00008 11.6067 2C11.5014 1.99992 11.3972 2.02142 11.2999 2.06325C11.2026 2.10509 11.1142 2.16645 11.0397 2.24383C10.9652 2.32122 10.9061 2.4131 10.8658 2.51425C10.8254 2.6154 10.8046 2.72382 10.8046 2.83334C10.8045 2.94285 10.8251 3.0513 10.8654 3.15251C10.9056 3.25372 10.9645 3.34569 11.0389 3.42318L11.2761 3.66989H4.72919L4.96392 3.42652C5.11425 3.27024 5.19874 3.05823 5.19881 2.83714C5.19889 2.61604 5.11454 2.40398 4.96432 2.24759C4.8141 2.09119 4.61032 2.00329 4.3978 2.00321C4.18528 2.00313 3.98144 2.09089 3.83111 2.24717L2.22884 3.91409C2.08204 4.0724 2 4.28379 2 4.50377C2 4.72374 2.08204 4.93513 2.22884 5.09344L3.83111 6.76036C3.98266 6.91401 4.18591 7 4.39752 7C4.60913 7 4.81237 6.91401 4.96392 6.76036C5.11411 6.60407 5.19848 6.39211 5.19848 6.1711C5.19848 5.9501 5.11411 5.73815 4.96392 5.58185L4.72919 5.33681H11.2753L11.0405 5.58101C10.8903 5.73731 10.806 5.94927 10.806 6.17027C10.806 6.39128 10.8903 6.60323 11.0405 6.75953C11.1932 6.9113 11.3962 6.996 11.6073 6.996C11.8185 6.996 12.0215 6.9113 12.1741 6.75953L13.7764 5.09261C13.8649 4.99546 13.93 4.87792 13.9665 4.74958C14.003 4.62124 14.0098 4.48575 13.9863 4.35416Z" fill="url(#paint1_linear)"/>
<path d="M20.5782 19.0369L20.3342 19.2716V12.7275L20.5782 12.9621C20.6556 13.0365 20.7475 13.0954 20.8486 13.1356C20.9497 13.1758 21.0581 13.1965 21.1675 13.1964C21.2769 13.1964 21.3852 13.1755 21.4862 13.1352C21.5873 13.0949 21.6791 13.0358 21.7564 12.9613C21.8337 12.8869 21.895 12.7985 21.9368 12.7012C21.9786 12.604 22.0001 12.4997 22 12.3945C21.9999 12.2893 21.9783 12.1851 21.9364 12.0879C21.8944 11.9907 21.833 11.9024 21.7556 11.828L20.0902 10.2262C19.9308 10.081 19.7195 10 19.4999 10C19.2803 10 19.069 10.081 18.9095 10.2262L17.2442 11.8232C17.1668 11.8976 17.1054 11.9859 17.0635 12.0832C17.0216 12.1804 17 12.2846 17 12.3899C17 12.4951 17.0216 12.5993 17.0635 12.6966C17.1054 12.7938 17.1668 12.8821 17.2442 12.9565C17.4017 13.1046 17.6131 13.1875 17.8333 13.1875C18.0535 13.1875 18.265 13.1046 18.4224 12.9565L18.6689 12.7267V19.2716L18.4258 19.0369C18.3484 18.9625 18.2567 18.9035 18.1556 18.8632C18.0546 18.8229 17.9463 18.8022 17.8369 18.8021C17.7276 18.8021 17.6193 18.8228 17.5182 18.863C17.4171 18.9032 17.3253 18.9622 17.248 19.0365C17.1706 19.1109 17.1092 19.1992 17.0673 19.2964C17.0254 19.3935 17.0039 19.4977 17.0038 19.6029C17.0038 19.7081 17.0253 19.8123 17.0671 19.9095C17.1089 20.0067 17.1702 20.095 17.2475 20.1694L18.9129 21.7712C19.071 21.918 19.2822 22 19.502 22C19.7217 22 19.9329 21.918 20.0911 21.7712L21.7564 20.1694C21.9081 20.0184 21.992 19.8161 21.9901 19.6061C21.9882 19.3961 21.9006 19.1952 21.7463 19.0467C21.5919 18.8982 21.383 18.814 21.1647 18.8122C20.9464 18.8103 20.7361 18.8911 20.579 19.0369H20.5782Z" fill="url(#paint2_linear)"/>
<defs>
<linearGradient id="paint0_linear" x1="8" y1="10" x2="8" y2="22" gradientUnits="userSpaceOnUse">
<stop stop-color="#EA7A6E"/>
<stop offset="1" stop-color="#E23A28"/>
</linearGradient>
<linearGradient id="paint1_linear" x1="8" y1="2" x2="8" y2="7" gradientUnits="userSpaceOnUse">
<stop stop-color="#EA7A6E"/>
<stop offset="1" stop-color="#E23A28"/>
</linearGradient>
<linearGradient id="paint2_linear" x1="19.5" y1="10" x2="19.5" y2="22" gradientUnits="userSpaceOnUse">
<stop stop-color="#EA7A6E"/>
<stop offset="1" stop-color="#E23A28"/>
</linearGradient>
</defs>
</svg>
