<svg width="20" height="20" viewBox="0 0 20 20" fill="none" xmlns="http://www.w3.org/2000/svg">
<path fill-rule="evenodd" clip-rule="evenodd" d="M5 5.83366C5 4.45295 6.11929 3.33366 7.5 3.33366C8.88071 3.33366 10 4.45295 10 5.83366C10 7.21437 8.88071 8.33366 7.5 8.33366C6.11929 8.33366 5 7.21437 5 5.83366ZM7.5 1.66699C5.19881 1.66699 3.33333 3.53247 3.33333 5.83366C3.33333 8.13485 5.19881 10.0003 7.5 10.0003C9.80118 10.0003 11.6667 8.13485 11.6667 5.83366C11.6667 3.53247 9.80118 1.66699 7.5 1.66699ZM4.16667 11.667C3.0616 11.667 2.00179 12.106 1.22039 12.8874C0.438987 13.6688 0 14.7286 0 15.8337V17.5003C0 17.9606 0.373096 18.3337 0.833333 18.3337C1.29357 18.3337 1.66667 17.9606 1.66667 17.5003V15.8337C1.66667 15.1706 1.93006 14.5347 2.3989 14.0659C2.86774 13.5971 3.50363 13.3337 4.16667 13.3337H10.8333C11.4964 13.3337 12.1323 13.5971 12.6011 14.0659C13.0699 14.5347 13.3333 15.1706 13.3333 15.8337V17.5003C13.3333 17.9606 13.7064 18.3337 14.1667 18.3337C14.6269 18.3337 15 17.9606 15 17.5003V15.8337C15 14.7286 14.561 13.6688 13.7796 12.8874C12.9982 12.106 11.9384 11.667 10.8333 11.667H4.16667ZM15.8598 12.4003C15.9749 11.9547 16.4294 11.6867 16.875 11.8018C17.7689 12.0326 18.5608 12.5537 19.1264 13.2834C19.692 14.013 19.9993 14.9098 20 15.833V17.5003C20 17.9606 19.6269 18.3337 19.1667 18.3337C18.7064 18.3337 18.3333 17.9606 18.3333 17.5003V15.8343C18.3329 15.2804 18.1485 14.7422 17.8092 14.3045C17.4698 13.8667 16.9947 13.554 16.4583 13.4155C16.0127 13.3005 15.7447 12.846 15.8598 12.4003ZM13.54 1.80137C13.0942 1.68721 12.6402 1.9561 12.526 2.40196C12.4119 2.84781 12.6808 3.30179 13.1266 3.41595C13.6644 3.55364 14.141 3.86639 14.4814 4.30489C14.8218 4.7434 15.0065 5.28272 15.0065 5.83783C15.0065 6.39293 14.8218 6.93225 14.4814 7.37076C14.141 7.80926 13.6644 8.12201 13.1266 8.2597C12.6808 8.37386 12.4119 8.82784 12.526 9.27369C12.6402 9.71955 13.0942 9.98844 13.54 9.87428C14.4363 9.6448 15.2307 9.12355 15.798 8.39271C16.3653 7.66187 16.6732 6.763 16.6732 5.83783C16.6732 4.91265 16.3653 4.01378 15.798 3.28294C15.2307 2.5521 14.4363 2.03085 13.54 1.80137Z" fill="#21313F"/>
</svg>
