<svg width="16" height="16" viewBox="0 0 16 16" fill="none" xmlns="http://www.w3.org/2000/svg">
<path fill-rule="evenodd" clip-rule="evenodd" d="M13.2 13.79C13.2 14.03 13 14.23 12.75 14.23H3.24C2.99 14.23 2.79 14.03 2.79 13.79V2.21C2.79 1.961 2.993 1.759 3.242 1.76L10.63 1.79L10.634 3.74C10.634 4.016 10.858 4.239 11.134 4.239L13.2 4.24V13.79ZM11.46 1.76H11.52C11.62 1.76 11.75 1.78 11.87 1.89L13.07 3.06C13.2 3.19 13.21 3.3 13.19 3.44H11.46V1.76ZM13.63 2.52L12.43 1.35C12.2 1.12 11.88 1 11.55 1H3.24C2.9 1 2.59 1.13 2.37 1.35C2.28 1.44 2.2 1.55 2.14 1.66C2.05 1.82 2 2.01 2 2.21V13.79C2 13.96 2.03 14.12 2.1 14.26C2.16 14.41 2.26 14.54 2.37 14.65C2.59 14.87 2.9 15 3.24 15H12.75C13.09 15 13.41 14.87 13.63 14.65C13.74 14.54 13.84 14.41 13.9 14.26C13.97 14.12 14 13.96 14 13.79V3.37C14 3.05 13.87 2.74 13.63 2.52Z" fill="#7A838C"/>
<path fill-rule="evenodd" clip-rule="evenodd" d="M10.8724 12.0034H8.3224C8.1224 12.0034 7.9624 12.1634 7.9624 12.3634C7.9624 12.5534 8.1224 12.7134 8.3224 12.7134H10.8724C11.0724 12.7134 11.2324 12.5534 11.2324 12.3634C11.2324 12.1634 11.0724 12.0034 10.8724 12.0034Z" fill="#7A838C"/>
<path fill-rule="evenodd" clip-rule="evenodd" d="M8.98267 8.35342C8.98267 8.16342 8.81267 8.00342 8.61267 8.00342H4.35267C4.15267 8.00342 3.98267 8.16342 3.98267 8.35342C3.98267 8.55342 4.15267 8.71342 4.35267 8.71342H8.61267C8.81267 8.71342 8.98267 8.55342 8.98267 8.35342Z" fill="#7A838C"/>
<path fill-rule="evenodd" clip-rule="evenodd" d="M4.35236 6.71342H10.3224C10.5224 6.71342 10.6924 6.55342 10.6924 6.36342C10.6924 6.16342 10.5224 6.00342 10.3224 6.00342H4.35236C4.15236 6.00342 3.98236 6.16342 3.98236 6.36342C3.98236 6.55342 4.15236 6.71342 4.35236 6.71342Z" fill="#7A838C"/>
</svg>
