<svg viewBox="0 0 24 24" class="s-ion-icon" xmlns="http://www.w3.org/2000/svg">
    <defs>
        <polygon id="path-1" points="7.97656784e-05 0 24 0 24 24 7.97656784e-05 24"></polygon>
    </defs>
    <g id="Page-1" stroke="none" stroke-width="1" fill-rule="evenodd">
        <g id="69-noti-1" transform="translate(-26.000000, -631.000000)">
            <g id="navigation" transform="translate(0.000000, 617.000000)">
                <g id="home" transform="translate(26.000000, 14.000000)">
                    <mask id="mask-2" fill="white">
                        <use xlink:href="#path-1"></use>
                    </mask>
                    <g id="Clip-2"></g>
                    <path d="M12.0207,0 C11.7557,0 11.4947,0.053 11.2447,0.158 C10.9957,0.262 10.7707,0.414 10.5747,0.61 L0.5587,11.067 C0.1637,11.508 -0.0193,12.009 0.0017,12.551 C0.0207,13.053 0.2097,13.518 0.5497,13.896 L0.5977,13.949 L0.6517,13.998 C1.0357,14.345 1.5077,14.528 2.0177,14.528 L2.0397,14.528 L2.0397,21.96 C2.0397,22.495 2.2337,22.983 2.6017,23.373 C2.9827,23.777 3.5057,24 4.0737,24 L8.6887,24 C9.2287,24 9.7387,23.787 10.1247,23.399 C10.5107,23.013 10.7237,22.501 10.7237,21.96 L10.7397,16.696 L13.2767,16.696 L13.2767,21.96 C13.2767,22.501 13.4887,23.013 13.8747,23.399 C14.2607,23.787 14.7707,24 15.3117,24 L19.9467,24 C20.4867,24 20.9967,23.787 21.3827,23.399 C21.7697,23.013 21.9817,22.501 21.9817,21.96 L21.9817,14.538 C22.2587,14.537 22.5277,14.479 22.7807,14.363 C22.9597,14.281 23.1297,14.176 23.2877,14.05 L23.3747,13.979 L23.4507,13.896 C23.7897,13.518 23.9787,13.053 23.9987,12.551 C24.0197,12.009 23.8367,11.508 23.4717,11.101 L13.5187,0.663 C13.3267,0.442 13.0907,0.271 12.8177,0.158 C12.5667,0.053 12.2987,0 12.0207,0 M12.0207,1.376 C12.1177,1.376 12.2067,1.394 12.2897,1.428 C12.3727,1.463 12.4417,1.515 12.4967,1.584 L22.4507,12.021 C22.5757,12.159 22.6337,12.318 22.6267,12.498 C22.6197,12.678 22.5547,12.837 22.4307,12.976 C22.3617,13.03 22.2887,13.075 22.2127,13.11 C22.1367,13.145 22.0577,13.162 21.9747,13.162 C21.8787,13.162 21.7887,13.145 21.7067,13.11 C21.6237,13.075 21.5547,13.023 21.4997,12.954 L20.6087,12.021 L20.6087,21.96 C20.6087,22.14 20.5437,22.296 20.4127,22.427 C20.2817,22.559 20.1257,22.624 19.9467,22.624 L15.3117,22.624 C15.1317,22.624 14.9767,22.559 14.8457,22.427 C14.7147,22.296 14.6487,22.14 14.6487,21.96 L14.6487,15.32 L9.3717,15.32 L9.3507,21.96 C9.3507,22.14 9.2857,22.296 9.1547,22.427 C9.0227,22.559 8.8677,22.624 8.6887,22.624 L4.0737,22.624 C3.8807,22.624 3.7217,22.559 3.5977,22.427 C3.4737,22.296 3.4117,22.14 3.4117,21.96 L3.4117,12.021 L2.5217,12.954 C2.3837,13.079 2.2247,13.145 2.0457,13.151 C2.0367,13.152 2.0267,13.152 2.0177,13.152 C1.8497,13.152 1.7007,13.093 1.5697,12.976 C1.4457,12.837 1.3797,12.678 1.3727,12.498 C1.3657,12.318 1.4247,12.159 1.5487,12.021 L11.5447,1.584 C11.6137,1.515 11.6897,1.463 11.7717,1.428 C11.8547,1.394 11.9377,1.376 12.0207,1.376" id="Fill-1" mask="url(#mask-2)"></path>
                </g>
            </g>
        </g>
    </g>
</svg>