<svg width="24" height="24" viewBox="0 0 24 24" fill="none" xmlns="http://www.w3.org/2000/svg">
<g clip-path="url(#clip0)">
<path d="M5.92968 23.9015C4.54218 23.8874 3.54374 22.7296 4.41093 20.5874C4.63124 20.0437 4.01718 19.2468 3.7828 18.0327L3.58593 17.939L2.44687 22.8468C2.34843 23.3577 2.74218 23.9015 3.25312 23.9015C3.57187 23.9015 3.95624 23.9015 4.3828 23.9015H5.92968Z" fill="#BB6BD9"/>
<path d="M8.32501 6.1687C10.0207 6.1687 11.3953 4.79408 11.3953 3.09839C11.3953 1.4027 10.0207 0.0280762 8.32501 0.0280762C6.62933 0.0280762 5.2547 1.4027 5.2547 3.09839C5.2547 4.79408 6.62933 6.1687 8.32501 6.1687Z" fill="#BB6BD9"/>
<path d="M5.84532 13.6265L6.16407 11.0062C6.16407 11.0062 5.07657 7.93115 4.8422 7.2749C3.70313 7.61709 3.17345 8.5874 2.77032 9.33272C2.34845 10.1062 0.543759 12.9374 0.262509 13.364C-0.271865 14.1702 0.0515719 15.164 0.834384 15.5437L3.69376 16.9312C3.72657 16.2046 3.96563 15.5718 4.41095 15.0327C4.41563 15.0234 4.6922 14.6952 5.13282 14.3343C5.13282 14.3343 3.76876 13.6546 3.65626 13.5984C4.25157 12.628 4.73438 11.8312 5.32501 10.8655L4.6922 13.064L5.84532 13.6265Z" fill="#BB6BD9"/>
<path d="M6.02338 7.14844C6.48275 8.44688 6.79213 9.32344 7.30775 10.7766C8.08119 10.7766 8.60619 10.7766 9.29994 10.7766C9.614 9.88594 10.3078 7.93594 10.5843 7.14844C8.714 7.14844 7.94994 7.14844 6.02338 7.14844Z" fill="#BB6BD9"/>
<path d="M8.74688 21.0515C8.25 19.1952 9.11719 17.2452 8.40469 15.178C8.16094 14.4655 7.74844 14.2124 7.29844 14.2124C6.43125 14.2124 5.40468 15.1358 5.05312 15.5624C3.53906 17.3858 5.78906 19.4062 5.18437 20.8968C4.57968 22.3874 5.1 23.0671 5.94843 23.0765C6.91875 23.0858 7.62187 23.3296 8.25 23.3296C8.5875 23.3296 8.90156 23.2593 9.225 23.0483C10.1531 22.4437 9.23906 22.9077 8.74688 21.0515Z" fill="#BB6BD9"/>
<path d="M11.5407 23.9015C11.9672 23.9015 13.0829 23.8265 13.4016 23.8265C13.9172 23.8265 14.3063 23.3531 14.2079 22.8468C12.6938 14.9718 12.0797 12.6 12.0797 12.6C12.0797 12.6 12.8907 14.564 13.2844 15.6609C13.5704 16.4578 14.461 16.8468 15.2391 16.5328L16.7719 15.9984L16.1578 18.089C16.0547 18.4875 16.2891 18.8906 16.6875 18.9984C17.086 19.1015 17.4891 18.8671 17.5969 18.4687L18.5016 15.2953L19.5375 14.8734C20.2969 14.564 20.6578 13.7015 20.3485 12.9421C20.1657 12.4968 19.7907 12.1875 19.3547 12.0703L19.425 11.8125L23.9203 5.92026C24.1219 5.62026 23.9672 5.20776 23.6203 5.1187L22.4344 4.80464L20.5735 7.9312L21.4547 4.54683L17.4469 3.48745C17.1 3.3937 16.7625 3.67495 16.786 4.0312L17.9344 11.5875L17.7188 12.4078L15.525 13.214C15.0704 12.0656 14.6157 11.0203 14.3204 10.1625C13.7672 8.55464 12.9141 7.57964 11.775 7.26558C11.1282 9.0937 10.4766 10.9218 10.4766 10.9218C10.4766 10.9218 10.8704 13.2656 11.9813 19.9968C12.0563 20.4421 11.7141 20.85 11.2641 20.85C10.9172 20.85 10.4907 20.85 10.0219 20.85C10.2188 21.4359 10.3829 21.4593 10.4344 21.9468C10.5704 23.2546 9.72192 23.8078 8.71411 23.9765L11.5407 23.9015Z" fill="#BB6BD9"/>
</g>
<defs>
<clipPath id="clip0">
<rect width="24" height="24" fill="white"/>
</clipPath>
</defs>
</svg>
