<svg width="16" height="16" viewBox="0 0 16 16" fill="none" xmlns="http://www.w3.org/2000/svg">
<path fill-rule="evenodd" clip-rule="evenodd" d="M10.22 10.23L15.15 7.02H15.16L15.17 7.03L15.18 13.83L10.22 10.23ZM1.62 14.23L8 9.6H8.01L14.37 14.21L1.62 14.23ZM0.82 7.05C0.82 7.05 0.82 7.04 0.83 7.04H0.84L5.78 10.24L0.83 13.83L0.82 7.05ZM2.46 5.44C2.46 5.43 2.47 5.44 2.47 5.44C2.47 5.44 2.48 5.44 2.48 5.45V7.17L1.13 6.3L2.46 5.44ZM5.22 4.83H10.77C11 4.83 11.18 5 11.18 5.21C11.18 5.42 11 5.6 10.77 5.6H5.22C5 5.6 4.81 5.42 4.81 5.21C4.81 5 5 4.83 5.22 4.83ZM7.99 1.85H8L9.04 2.53H6.95L7.99 1.85ZM13.52 5.47C13.52 5.46 13.52 5.46 13.53 5.46H13.54L14.83 6.3L13.52 7.15V5.47ZM15.99 6.29C15.99 6.27 15.98 6.23 15.97 6.21C15.95 6.13 15.89 6.05 15.81 6L13.52 4.51V2.91C13.52 2.7 13.34 2.53 13.11 2.53H10.48L8.23 1.07C8.16 1.02 8.08 1 8 1C7.92 1 7.84 1.02 7.77 1.07L5.51 2.53H2.89C2.66 2.53 2.48 2.7 2.48 2.91V4.49L0.18 5.98C0.07 6.05 0 6.17 0 6.3L0.01 14.62C0.01 14.72 0.05 14.81 0.13 14.89C0.21 14.96 0.31 15 0.42 15L15.59 14.98C15.81 14.98 16 14.81 16 14.6L15.99 6.29Z" fill="#FA7268"/>
</svg>
