<svg width="20" height="20" viewBox="0 0 20 20" fill="none" xmlns="http://www.w3.org/2000/svg">
<path fill-rule="evenodd" clip-rule="evenodd" d="M17.1734 18.2546H16.1596V3.07546C16.1596 2.59396 15.7684 2.20274 15.2869 2.20274H10.809V0.872713C10.809 0.391211 10.4178 0 9.93632 0H5.56894C5.08744 0 4.69623 0.391211 4.69623 0.872713V2.20274H4.42946C3.94796 2.20274 3.55675 2.59396 3.55675 3.07546V18.2546H2.53922C2.05771 18.2546 1.6665 18.6458 1.6665 19.1273C1.6665 19.6088 2.05771 20 2.53922 20H17.1734C17.6549 20 18.0461 19.6088 18.0461 19.1273C18.0461 18.6458 17.6549 18.2546 17.1734 18.2546ZM6.44166 2.20274V1.74543H9.0598V2.20274H6.44166ZM17.1734 18.4985H15.9157V3.07546C15.9157 2.81536 15.7571 2.5917 15.5315 2.49613C15.7571 2.5917 15.9157 2.81536 15.9157 3.07546V18.4985L17.1734 18.4985ZM15.2869 2.44665H10.5651V0.872713C10.5651 0.655964 10.455 0.464522 10.2877 0.351421C10.455 0.464523 10.5651 0.655969 10.5651 0.872716V2.44665H15.2869C15.2869 2.44665 15.2869 2.44665 15.2869 2.44665ZM9.93632 0.243902H5.56894C5.52559 0.243902 5.48326 0.248309 5.44236 0.256698C5.48325 0.24831 5.52559 0.243905 5.56893 0.243905H9.93631C9.93632 0.243905 9.93632 0.243902 9.93632 0.243902ZM4.94012 2.44665H4.42946C4.38611 2.44665 4.34377 2.45105 4.30287 2.45944C4.34377 2.45105 4.38611 2.44665 4.42945 2.44665H4.94012V2.44665ZM6.19775 2.44665V1.50152L6.19775 1.50153V2.44665H9.30369L6.19775 2.44665ZM5.29836 18.2546V3.94817H14.4104V18.2546H12.6193V16.0671H12.6497C13.1312 16.0671 13.5225 15.6759 13.5225 15.1944C13.5225 14.7129 13.1312 14.3216 12.6497 14.3216H7.06285C6.58134 14.3216 6.19013 14.7129 6.19013 15.1944C6.19013 15.6759 6.58134 16.0671 7.06285 16.0671H7.09333V18.2546H5.29836ZM5.05446 3.70427V18.4985H7.33724L5.05445 18.4985V3.70427H5.05446ZM6.99863 14.5688C7.01975 14.5667 7.04116 14.5656 7.06284 14.5656H12.6497C12.6497 14.5656 12.6497 14.5655 12.6497 14.5655H7.06285C7.04117 14.5655 7.01975 14.5666 6.99863 14.5688ZM12.7763 14.5783C13.0626 14.6371 13.2785 14.8909 13.2785 15.1944C13.2785 15.2629 13.2675 15.3289 13.2472 15.3906C13.2675 15.3289 13.2785 15.2629 13.2785 15.1944C13.2785 14.8909 13.0626 14.6371 12.7763 14.5783ZM12.3753 15.8232L12.3753 15.8232V18.4985L14.6543 18.4985H12.3753V15.8232Z" fill="#21313F"/>
</svg>
