<svg width="20" height="20" viewBox="0 0 20 20" fill="none" xmlns="http://www.w3.org/2000/svg">
<path fill-rule="evenodd" clip-rule="evenodd" d="M3.23223 1.56524C3.70107 1.0964 4.33696 0.833008 5 0.833008H11.6667C11.8877 0.833008 12.0996 0.920805 12.2559 1.07709L17.2559 6.07709C17.4122 6.23337 17.5 6.44533 17.5 6.66634V16.6663C17.5 17.3294 17.2366 17.9653 16.7678 18.4341C16.2989 18.9029 15.663 19.1663 15 19.1663H5C4.33696 19.1663 3.70107 18.9029 3.23223 18.4341C2.76339 17.9653 2.5 17.3294 2.5 16.6663V3.33301C2.5 2.66997 2.76339 2.03408 3.23223 1.56524ZM5 2.49967C4.77899 2.49967 4.56702 2.58747 4.41074 2.74375C4.25446 2.90003 4.16667 3.11199 4.16667 3.33301V16.6663C4.16667 16.8874 4.25446 17.0993 4.41074 17.2556C4.56702 17.4119 4.77899 17.4997 5 17.4997H15C15.221 17.4997 15.433 17.4119 15.5893 17.2556C15.7455 17.0993 15.8333 16.8874 15.8333 16.6663V7.01152L11.3215 2.49967H5Z" fill="#21313F"/>
<path fill-rule="evenodd" clip-rule="evenodd" d="M11.6667 0.833008C12.1269 0.833008 12.5 1.2061 12.5 1.66634V5.83301H16.6667C17.1269 5.83301 17.5 6.2061 17.5 6.66634C17.5 7.12658 17.1269 7.49967 16.6667 7.49967H11.6667C11.2065 7.49967 10.8334 7.12658 10.8334 6.66634V1.66634C10.8334 1.2061 11.2065 0.833008 11.6667 0.833008Z" fill="#21313F"/>
<path fill-rule="evenodd" clip-rule="evenodd" d="M5.83337 10.8333C5.83337 10.3731 6.20647 10 6.66671 10H13.3334C13.7936 10 14.1667 10.3731 14.1667 10.8333C14.1667 11.2936 13.7936 11.6667 13.3334 11.6667H6.66671C6.20647 11.6667 5.83337 11.2936 5.83337 10.8333Z" fill="#21313F"/>
<path fill-rule="evenodd" clip-rule="evenodd" d="M5.83337 14.1663C5.83337 13.7061 6.20647 13.333 6.66671 13.333H13.3334C13.7936 13.333 14.1667 13.7061 14.1667 14.1663C14.1667 14.6266 13.7936 14.9997 13.3334 14.9997H6.66671C6.20647 14.9997 5.83337 14.6266 5.83337 14.1663Z" fill="#21313F"/>
<path fill-rule="evenodd" clip-rule="evenodd" d="M5.83337 7.50033C5.83337 7.04009 6.20647 6.66699 6.66671 6.66699H8.33337C8.79361 6.66699 9.16671 7.04009 9.16671 7.50033C9.16671 7.96056 8.79361 8.33366 8.33337 8.33366H6.66671C6.20647 8.33366 5.83337 7.96056 5.83337 7.50033Z" fill="#21313F"/>
</svg>
