<svg width="60" height="60" viewBox="0 0 60 60" fill="none" xmlns="http://www.w3.org/2000/svg">
<path fill-rule="evenodd" clip-rule="evenodd" d="M5.625 5.625C3.55393 5.625 1.875 7.30393 1.875 9.375V15C1.875 17.0711 3.55393 18.75 5.625 18.75H7.68487L10.871 49.3823L10.8716 49.3879L10.8738 49.4074C11.0348 50.776 11.6926 52.0378 12.7223 52.9535C13.7521 53.8691 15.0821 54.375 16.4601 54.375H43.541C44.919 54.375 46.249 53.8691 47.2788 52.9535C48.3085 52.0378 48.9663 50.776 49.1273 49.4074L49.1301 49.3822L52.3151 18.75H54.375C56.4461 18.75 58.125 17.0711 58.125 15V9.375C58.125 7.30393 56.4461 5.625 54.375 5.625H5.625ZM50.6454 15L50.6223 14.9999L50.6 15H9.39996C9.38485 14.9998 9.36971 14.9998 9.35453 15H5.625V9.375H54.375V15H50.6454ZM11.4551 18.75H48.5449L45.4018 48.9796C45.346 49.4318 45.1275 49.8483 44.7869 50.1512C44.4436 50.4564 44.0003 50.625 43.5409 50.625H16.4602C16.0008 50.625 15.5575 50.4564 15.2143 50.1512C14.8736 49.8483 14.6551 49.4317 14.5993 48.9796L11.4551 18.75ZM37.8883 26.7992C38.6206 27.5314 38.6206 28.7186 37.8883 29.4508L32.6516 34.6875L37.8883 39.9242C38.6206 40.6564 38.6206 41.8436 37.8883 42.5758C37.1561 43.3081 35.9689 43.3081 35.2367 42.5758L30 37.3391L24.7633 42.5758C24.0311 43.3081 22.8439 43.3081 22.1117 42.5758C21.3794 41.8436 21.3794 40.6564 22.1117 39.9242L27.3484 34.6875L22.1117 29.4508C21.3794 28.7186 21.3794 27.5314 22.1117 26.7992C22.8439 26.0669 24.0311 26.0669 24.7633 26.7992L30 32.0359L35.2367 26.7992C35.9689 26.0669 37.1561 26.0669 37.8883 26.7992Z" fill="#FA7268"/>
</svg>
