<svg width="20" height="20" viewBox="0 0 20 20" fill="none" xmlns="http://www.w3.org/2000/svg">
<path d="M18.8401 7.29718C18.5428 6.82142 18.0789 6.49433 17.5377 6.36944L13.7792 5.50711L11.8107 2.23623V2.23028L11.8048 2.22433L11.7929 2.21244C11.6204 1.91508 11.3706 1.66531 11.0733 1.48689C10.7462 1.29064 10.3715 1.18359 9.9909 1.18359C9.25347 1.18359 8.58145 1.55826 8.20084 2.1946L6.21452 5.50711L2.50355 6.36349H2.47976L2.44408 6.37539L2.4084 6.38728C2.09915 6.46459 1.80179 6.61922 1.56391 6.83331C0.69564 7.58859 0.600487 8.90884 1.35576 9.77711L3.88327 12.6912L3.54428 16.5508C3.54428 16.5865 3.53834 16.6162 3.54428 16.6519C3.53834 16.7887 3.55023 16.9255 3.56807 17.0563C3.59781 17.2228 3.63944 17.3834 3.70486 17.538C4.03194 18.3112 4.78722 18.8107 5.62576 18.8107C5.90527 18.8107 6.17883 18.7572 6.43456 18.6442L9.9909 17.1336L13.3926 18.5788C13.6959 18.7334 14.0349 18.8167 14.3739 18.8167C14.4274 18.8167 14.4869 18.8167 14.5404 18.8107C15.6822 18.7156 16.5386 17.7105 16.4554 16.5687V16.5627V16.5508V16.5389L16.1164 12.6852L18.5963 9.83658C18.8461 9.56896 19.0245 9.23593 19.1078 8.8791C19.2267 8.33197 19.1375 7.77295 18.8401 7.29718ZM14.7664 12.5247L15.1232 16.646V16.6579V16.6638V16.6698C15.153 17.0742 14.8497 17.4369 14.4453 17.4786H14.4334H14.4215C14.3977 17.4786 14.3798 17.4786 14.356 17.4786C14.2371 17.4786 14.1182 17.4488 14.0111 17.3894C13.9814 17.3715 13.9457 17.3596 13.916 17.3477L10.2526 15.8015C10.1693 15.7658 10.0861 15.748 9.99685 15.748C9.90764 15.748 9.81844 15.7658 9.74113 15.8015L5.97069 17.4013C5.9469 17.4132 5.91716 17.4191 5.89337 17.431C5.81012 17.4607 5.72091 17.4786 5.6317 17.4786C5.3403 17.4786 5.07268 17.3121 4.94779 17.0444C4.94184 17.0206 4.92995 17.0028 4.91806 16.979C4.90022 16.9374 4.88832 16.8898 4.88237 16.8422C4.87643 16.7828 4.87643 16.7233 4.88237 16.6638V16.6579V16.6519C4.88237 16.6222 4.88237 16.5984 4.88237 16.5687L5.23325 12.5128C5.25109 12.3165 5.18567 12.1262 5.04294 11.9894L2.35487 8.891C2.27756 8.79585 2.21809 8.6888 2.18835 8.56986C2.14078 8.3736 2.17646 8.1714 2.28351 7.99894C2.38461 7.83242 2.54518 7.71942 2.72954 7.6659H2.75332L2.77711 7.65995L6.79138 6.73221C6.97574 6.69058 7.13036 6.57164 7.22552 6.40512L9.34267 2.87851C9.40809 2.77146 9.4973 2.68226 9.60434 2.61684C9.72329 2.54547 9.86007 2.50979 9.99685 2.50979C10.2645 2.50979 10.5083 2.64657 10.651 2.87851L10.6629 2.9023L12.7444 6.38133L12.7741 6.42891C12.8693 6.58353 13.0239 6.69653 13.1964 6.73816L17.2285 7.67185C17.2939 7.68969 17.3593 7.71348 17.4188 7.74321C17.7875 7.93947 17.9302 8.40334 17.728 8.77206C17.6983 8.83153 17.6567 8.88505 17.6091 8.93263L17.5853 8.95642L14.927 12.0311C14.808 12.1619 14.7486 12.3462 14.7664 12.5247Z" fill="#21313F"/>
</svg>
