<svg width="96" height="36" viewBox="0 0 96 36" fill="none" xmlns="http://www.w3.org/2000/svg">
<path d="M54.24 25.144C53.1413 25.144 52.1867 24.9093 51.376 24.44C50.576 23.9707 49.9573 23.2987 49.52 22.424C49.0827 21.5493 48.864 20.5253 48.864 19.352C48.864 18.1787 49.0773 17.16 49.504 16.296C49.9413 15.4213 50.5653 14.7493 51.376 14.28C52.1867 13.8107 53.1413 13.576 54.24 13.576C55.3387 13.576 56.288 13.8107 57.088 14.28C57.8987 14.7493 58.5173 15.4213 58.944 16.296C59.3813 17.16 59.6 18.1787 59.6 19.352C59.6 20.5253 59.3813 21.5493 58.944 22.424C58.5067 23.2987 57.8827 23.9707 57.072 24.44C56.272 24.9093 55.328 25.144 54.24 25.144ZM54.24 23.496C55.2747 23.496 56.08 23.1387 56.656 22.424C57.2427 21.7093 57.536 20.6853 57.536 19.352C57.536 18.0187 57.2427 17 56.656 16.296C56.08 15.5813 55.2747 15.224 54.24 15.224C53.1947 15.224 52.3787 15.5813 51.792 16.296C51.216 17 50.928 18.0187 50.928 19.352C50.928 20.6853 51.216 21.7093 51.792 22.424C52.3787 23.1387 53.1947 23.496 54.24 23.496ZM66.0528 16.984C66.9914 16.984 67.6901 17.2507 68.1488 17.784C68.6074 18.3173 68.8368 19.1227 68.8368 20.2V25H66.8368V20.312C66.8368 19.704 66.7194 19.2613 66.4848 18.984C66.2608 18.7067 65.9034 18.568 65.4128 18.568C64.8368 18.568 64.3728 18.7493 64.0208 19.112C63.6794 19.4747 63.5088 19.96 63.5088 20.568V25H61.5088V17.176H63.4608V18.344C63.7274 17.9067 64.0848 17.5707 64.5328 17.336C64.9808 17.1013 65.4874 16.984 66.0528 16.984ZM70.8681 25V13.72H72.8681V25H70.8681ZM74.9306 25V17.176H76.9306V25H74.9306ZM74.8186 13.544H77.0266V15.512H74.8186V13.544ZM83.5371 16.984C84.4758 16.984 85.1745 17.2507 85.6331 17.784C86.0918 18.3173 86.3211 19.1227 86.3211 20.2V25H84.3211V20.312C84.3211 19.704 84.2038 19.2613 83.9691 18.984C83.7451 18.7067 83.3878 18.568 82.8971 18.568C82.3211 18.568 81.8571 18.7493 81.5051 19.112C81.1638 19.4747 80.9931 19.96 80.9931 20.568V25H78.9931V17.176H80.9451V18.344C81.2118 17.9067 81.5691 17.5707 82.0171 17.336C82.4651 17.1013 82.9718 16.984 83.5371 16.984ZM95.2165 21.448H89.8885C89.9525 22.1733 90.1712 22.712 90.5445 23.064C90.9178 23.416 91.4512 23.592 92.1445 23.592C93.0085 23.592 93.7978 23.3147 94.5125 22.76L95.0885 24.136C94.7258 24.4347 94.2672 24.6747 93.7125 24.856C93.1685 25.0373 92.6192 25.128 92.0645 25.128C90.7845 25.128 89.7712 24.7653 89.0245 24.04C88.2885 23.3147 87.9205 22.3227 87.9205 21.064C87.9205 20.264 88.0805 19.5547 88.4005 18.936C88.7205 18.3173 89.1685 17.8373 89.7445 17.496C90.3312 17.1547 90.9925 16.984 91.7285 16.984C92.8058 16.984 93.6538 17.3307 94.2725 18.024C94.9018 18.7173 95.2165 19.672 95.2165 20.888V21.448ZM91.7765 18.392C91.2432 18.392 90.8112 18.5627 90.4805 18.904C90.1605 19.2453 89.9632 19.736 89.8885 20.376H93.5045C93.4832 19.7253 93.3232 19.2347 93.0245 18.904C92.7258 18.5627 92.3098 18.392 91.7765 18.392Z" fill="#21313F"/>
<path d="M34.7205 9.08984H28.6602V32.321H34.7205C35.8361 32.321 36.7406 31.4165 36.7406 30.3009V11.1099C36.7406 9.99434 35.8361 9.08984 34.7205 9.08984Z" fill="#A35425"/>
<path d="M15.5295 13.1307C17.7608 13.1307 19.5697 11.3218 19.5697 9.09049C19.5697 6.85915 17.7608 5.05029 15.5295 5.05029C13.2981 5.05029 11.4893 6.85915 11.4893 9.09049C11.4893 11.3218 13.2981 13.1307 15.5295 13.1307Z" fill="#F19920"/>
<path d="M17.6707 11.231C18.8545 10.0483 18.856 8.12966 17.6732 6.94588C17.6722 6.94487 17.6717 6.94437 17.6707 6.94336L13.3831 11.231C14.5658 12.4148 16.4844 12.4163 17.6682 11.2335C17.6692 11.2325 17.6697 11.2315 17.6707 11.231Z" fill="#F19920"/>
<path d="M13.3882 6.94878C12.2045 8.13154 12.2029 10.0501 13.3857 11.2339C13.3867 11.2349 13.3872 11.2354 13.3882 11.2364L17.6759 6.94878C16.4931 5.765 14.5745 5.76348 13.3908 6.94625C13.3897 6.94726 13.3892 6.94777 13.3882 6.94878Z" fill="#F6B545"/>
<path d="M24.62 8.0804C26.8514 8.0804 28.6602 6.27154 28.6602 4.0402C28.6602 1.80886 26.8514 0 24.62 0C22.3887 0 20.5798 1.80886 20.5798 4.0402C20.5798 6.27154 22.3887 8.0804 24.62 8.0804Z" fill="#F19920"/>
<path d="M34.2154 10.1001H33.2053C34.0421 10.1001 34.7204 10.7783 34.7204 11.6152V29.7961C34.7204 30.6329 34.0421 31.3111 33.2053 31.3111H34.2154C35.0522 31.3111 35.7304 30.6329 35.7304 29.7961V11.6152C35.7304 10.7783 35.0522 10.1001 34.2154 10.1001Z" fill="#89C763"/>
<path d="M33.2054 10.1001H32.1953C33.0321 10.1001 33.7104 10.7783 33.7104 11.6152V29.7961C33.7104 30.6329 33.0321 31.3111 32.1953 31.3111H33.2054C34.0422 31.3111 34.7204 30.6329 34.7204 29.7961V11.6152C34.7204 10.7783 34.0422 10.1001 33.2054 10.1001Z" fill="#3CB54A"/>
<path d="M32.1954 10.1001H31.1853C32.0221 10.1001 32.7004 10.7783 32.7004 11.6152V29.7961C32.7004 30.6329 32.0221 31.3111 31.1853 31.3111H32.1954C33.0322 31.3111 33.7104 30.6329 33.7104 29.7961V11.6152C33.7104 10.7783 33.0322 10.1001 32.1954 10.1001Z" fill="#89C763"/>
<path d="M31.1853 10.1001H30.1753C31.0121 10.1001 31.6904 10.7783 31.6904 11.6152V29.7961C31.6904 30.6329 31.0121 31.3111 30.1753 31.3111H31.1853C32.0222 31.3111 32.7004 30.6329 32.7004 29.7961V11.6152C32.7004 10.7783 32.0222 10.1001 31.1853 10.1001Z" fill="#3CB54A"/>
<path d="M6.43904 9.08984H28.6601C29.7757 9.08984 30.6802 9.99434 30.6802 11.1099V30.3009C30.6802 31.4165 29.7757 32.321 28.6601 32.321H6.43904C5.32344 32.321 4.41895 31.4165 4.41895 30.3009V11.1099C4.41895 9.99434 5.32344 9.08984 6.43904 9.08984Z" fill="#C97629"/>
<path d="M30.4126 10.1001C30.5904 10.4072 30.6828 10.7556 30.6803 11.1101V30.3011C30.6828 30.6556 30.5904 31.0041 30.4126 31.3111C31.1555 31.1935 31.6994 30.548 31.6903 29.7961V11.6152C31.6994 10.8627 31.1555 10.2178 30.4126 10.1001Z" fill="#89C763"/>
<path d="M36.7405 17.1704H30.6802V24.2408H36.7405V17.1704Z" fill="#D5E3EF"/>
<path d="M24.6199 17.1704C22.6675 17.1704 21.0847 18.7532 21.0847 20.7056C21.0847 22.658 22.6675 24.2408 24.6199 24.2408H30.6802V17.1704H24.6199Z" fill="#ECF0F9"/>
<path d="M24.6201 22.2206C25.4568 22.2206 26.1351 21.5423 26.1351 20.7055C26.1351 19.8688 25.4568 19.1904 24.6201 19.1904C23.7833 19.1904 23.105 19.8688 23.105 20.7055C23.105 21.5423 23.7833 22.2206 24.6201 22.2206Z" fill="#7F4122"/>
<path d="M36.7408 24.2407H35.7307V25.2508H36.7408V24.2407Z" fill="#7F4122"/>
<path d="M35.7303 24.2407H34.7202V25.2508H35.7303V24.2407Z" fill="#3CB54A"/>
<path d="M33.7102 24.2407H32.7002V25.2508H33.7102V24.2407Z" fill="#3CB54A"/>
<path d="M31.6902 24.2407H30.6802V25.2508H31.6902V24.2407Z" fill="#3CB54A"/>
<path d="M34.7203 24.2407H33.7102V25.2508H34.7203V24.2407Z" fill="#0E9347"/>
<path d="M32.7002 24.2407H31.6902V25.2508H32.7002V24.2407Z" fill="#0E9347"/>
<path d="M24.6199 24.2406C22.8639 24.2386 21.3761 22.9482 21.1251 21.2104C20.8463 23.1427 22.1866 24.9355 24.1189 25.2143C24.2845 25.238 24.4522 25.2501 24.6199 25.2506H29.6701V30.3009C29.6701 30.8589 29.2181 31.3109 28.6601 31.3109H7.44901C6.89096 31.3109 6.43896 31.7629 6.43896 32.321H28.6601C29.7757 32.321 30.6802 31.4165 30.6802 30.3009V24.2406H24.6199Z" fill="#B06328"/>
<path d="M25.6299 23.2305H30.6802V24.2405H24.6199C24.6199 23.6825 25.0719 23.2305 25.6299 23.2305Z" fill="#D5E3EF"/>
<path d="M35.7304 18.1805V23.2307H30.6802V24.2408H36.7405V17.1704C36.1824 17.1704 35.7304 17.6224 35.7304 18.1805Z" fill="#B0C4D9"/>
<path d="M7.70163 11.6149H7.1966C7.05722 11.6149 6.94409 11.5018 6.94409 11.3624C6.94409 11.223 7.05722 11.1099 7.1966 11.1099H7.70163C7.84102 11.1099 7.95414 11.223 7.95414 11.3624C7.95414 11.5018 7.84102 11.6149 7.70163 11.6149Z" fill="#A35425"/>
<path d="M25.8825 11.6149H24.8725C24.7331 11.6149 24.62 11.5018 24.62 11.3624C24.62 11.223 24.7331 11.1099 24.8725 11.1099H25.8825C26.0219 11.1099 26.1351 11.223 26.1351 11.3624C26.1351 11.5018 26.0219 11.6149 25.8825 11.6149ZM22.8524 11.6149H21.8423C21.703 11.6149 21.5898 11.5018 21.5898 11.3624C21.5898 11.223 21.703 11.1099 21.8423 11.1099H22.8524C22.9918 11.1099 23.1049 11.223 23.1049 11.3624C23.1049 11.5018 22.9918 11.6149 22.8524 11.6149ZM19.8222 11.6149H18.8122C18.6728 11.6149 18.5597 11.5018 18.5597 11.3624C18.5597 11.223 18.6728 11.1099 18.8122 11.1099H19.8222C19.9616 11.1099 20.0748 11.223 20.0748 11.3624C20.0748 11.5018 19.9616 11.6149 19.8222 11.6149ZM16.7921 11.6149H15.782C15.6427 11.6149 15.5295 11.5018 15.5295 11.3624C15.5295 11.223 15.6427 11.1099 15.782 11.1099H16.7921C16.9315 11.1099 17.0446 11.223 17.0446 11.3624C17.0446 11.5018 16.9315 11.6149 16.7921 11.6149ZM13.7619 11.6149H12.7519C12.6125 11.6149 12.4994 11.5018 12.4994 11.3624C12.4994 11.223 12.6125 11.1099 12.7519 11.1099H13.7619C13.9013 11.1099 14.0145 11.223 14.0145 11.3624C14.0145 11.5018 13.9013 11.6149 13.7619 11.6149ZM10.7318 11.6149H9.72175C9.58236 11.6149 9.46924 11.5018 9.46924 11.3624C9.46924 11.223 9.58236 11.1099 9.72175 11.1099H10.7318C10.8712 11.1099 10.9843 11.223 10.9843 11.3624C10.9843 11.5018 10.8712 11.6149 10.7318 11.6149Z" fill="#A35425"/>
<path d="M28.4077 11.6149H27.9027C27.7633 11.6149 27.6501 11.5018 27.6501 11.3624C27.6501 11.223 27.7633 11.1099 27.9027 11.1099H28.4077C28.5471 11.1099 28.6602 11.223 28.6602 11.3624C28.6602 11.5018 28.5471 11.6149 28.4077 11.6149Z" fill="#A35425"/>
<path d="M7.70163 30.3009H7.1966C7.05722 30.3009 6.94409 30.1878 6.94409 30.0484C6.94409 29.909 7.05722 29.7959 7.1966 29.7959H7.70163C7.84102 29.7959 7.95414 29.909 7.95414 30.0484C7.95414 30.1878 7.84102 30.3009 7.70163 30.3009Z" fill="#A35425"/>
<path d="M25.8825 30.3009H24.8725C24.7331 30.3009 24.62 30.1878 24.62 30.0484C24.62 29.909 24.7331 29.7959 24.8725 29.7959H25.8825C26.0219 29.7959 26.1351 29.909 26.1351 30.0484C26.1351 30.1878 26.0219 30.3009 25.8825 30.3009ZM22.8524 30.3009H21.8423C21.703 30.3009 21.5898 30.1878 21.5898 30.0484C21.5898 29.909 21.703 29.7959 21.8423 29.7959H22.8524C22.9918 29.7959 23.1049 29.909 23.1049 30.0484C23.1049 30.1878 22.9918 30.3009 22.8524 30.3009ZM19.8222 30.3009H18.8122C18.6728 30.3009 18.5597 30.1878 18.5597 30.0484C18.5597 29.909 18.6728 29.7959 18.8122 29.7959H19.8222C19.9616 29.7959 20.0748 29.909 20.0748 30.0484C20.0748 30.1878 19.9616 30.3009 19.8222 30.3009ZM16.7921 30.3009H15.782C15.6427 30.3009 15.5295 30.1878 15.5295 30.0484C15.5295 29.909 15.6427 29.7959 15.782 29.7959H16.7921C16.9315 29.7959 17.0446 29.909 17.0446 30.0484C17.0446 30.1878 16.9315 30.3009 16.7921 30.3009ZM13.7619 30.3009H12.7519C12.6125 30.3009 12.4994 30.1878 12.4994 30.0484C12.4994 29.909 12.6125 29.7959 12.7519 29.7959H13.7619C13.9013 29.7959 14.0145 29.909 14.0145 30.0484C14.0145 30.1878 13.9013 30.3009 13.7619 30.3009ZM10.7318 30.3009H9.72175C9.58236 30.3009 9.46924 30.1878 9.46924 30.0484C9.46924 29.909 9.58236 29.7959 9.72175 29.7959H10.7318C10.8712 29.7959 10.9843 29.909 10.9843 30.0484C10.9843 30.1878 10.8712 30.3009 10.7318 30.3009Z" fill="#A35425"/>
<path d="M28.4077 30.3009H27.9027C27.7633 30.3009 27.6501 30.1878 27.6501 30.0484C27.6501 29.909 27.7633 29.7959 27.9027 29.7959H28.4077C28.5471 29.7959 28.6602 29.909 28.6602 30.0484C28.6602 30.1878 28.5471 30.3009 28.4077 30.3009Z" fill="#A35425"/>
<path d="M26.7613 6.18121C27.9451 4.99845 27.9466 3.07986 26.7638 1.89608C26.7628 1.89507 26.7623 1.89456 26.7613 1.89355L22.4736 6.18121C23.6564 7.36499 25.575 7.36651 26.7588 6.18374C26.7598 6.18273 26.7603 6.18172 26.7613 6.18121Z" fill="#F19920"/>
<path d="M22.4786 1.89848C21.2948 3.08125 21.2933 4.99984 22.476 6.18362C22.477 6.18463 22.4776 6.18513 22.4786 6.18614L26.7662 1.89848C25.5835 0.714705 23.6649 0.71319 22.4811 1.89596C22.4801 1.89697 22.4796 1.89747 22.4786 1.89848Z" fill="#F6B545"/>
<path d="M9.31497 36.0001H1.55252C0.698643 36.0001 0 35.3015 0 34.4476V18.9226C0 18.0688 0.698643 17.3701 1.55252 17.3701H9.31503C10.1689 17.3701 10.8676 18.0688 10.8676 18.9226V34.4476C10.8675 35.3015 10.1688 36.0001 9.31497 36.0001Z" fill="#595A66"/>
<path d="M9.31497 36.0001H1.55252C0.698643 36.0001 0 35.3015 0 34.4476V18.9226C0 18.0688 0.698643 17.3701 1.55252 17.3701H9.31503C10.1689 17.3701 10.8676 18.0688 10.8676 18.9226V34.4476C10.8675 35.3015 10.1688 36.0001 9.31497 36.0001Z" fill="#595A66"/>
<path d="M10.0913 17.603V34.4476C10.0913 34.9134 9.78076 35.2239 9.31506 35.2239H0.23291C0.465791 35.6896 1.00914 36.0001 1.55255 36.0001H9.31506C10.1689 36.0001 10.8676 35.3014 10.8676 34.4476V18.9227C10.8675 18.3793 10.5571 17.8359 10.0913 17.603Z" fill="#494A52"/>
<path d="M9.31501 20.4746H1.55249V32.8946H9.31501V20.4746Z" fill="#70B7E5"/>
<path d="M5.4337 35.2238C5.86239 35.2238 6.20992 34.8763 6.20992 34.4476C6.20992 34.0189 5.86239 33.6714 5.4337 33.6714C5.005 33.6714 4.65747 34.0189 4.65747 34.4476C4.65747 34.8763 5.005 35.2238 5.4337 35.2238Z" fill="#35363E"/>
<path d="M6.59796 19.6991H4.26922C4.03634 19.6991 3.8811 19.5438 3.8811 19.311C3.8811 19.0781 4.03634 18.9229 4.26922 18.9229H6.59796C6.83084 18.9229 6.98607 19.0781 6.98607 19.311C6.98607 19.5438 6.83084 19.6991 6.59796 19.6991Z" fill="#35363E"/>
<path d="M9.31503 32.8949H5.43384L9.31503 29.0137V32.8949Z" fill="#90CEF1"/>
<path d="M3.88113 32.8949L9.31484 27.4612V25.9087L2.32861 32.8949H3.88113Z" fill="#90CEF1"/>
<path d="M9.31501 20.4746H1.55249V21.2508H9.31501V20.4746Z" fill="#4C9CD6"/>
<path d="M0.776225 32.5848C0.776225 33.2835 0.465695 33.9821 0 34.4478V18.9229C0.465762 19.3886 0.776225 20.0873 0.776225 20.7858V32.5848Z" fill="#6F707E"/>
</svg>
