<svg viewBox="0 0 24 24" class="s-ion-icon" xmlns="http://www.w3.org/2000/svg">
    <path fill-rule="evenodd" clip-rule="evenodd" d="M23.9987 12.5505C23.9787 13.0505 23.7887 13.5205 23.4487 13.9005L23.3687 13.9805L23.2787 14.0505C23.1287 14.1805 22.9587 14.2795 22.7787 14.3605C22.5287 14.4805 22.2587 14.5395 21.9787 14.5395V21.9595C21.9787 22.5005 21.7687 23.0105 21.3787 23.4005C20.9887 23.7895 20.4787 24.0005 19.9387 24.0005H15.3097C14.7697 24.0005 14.2597 23.7895 13.8697 23.4005C13.4897 23.0105 13.2697 22.5005 13.2697 21.9595V16.6995H10.7397L10.7207 21.9595C10.7207 22.5005 10.5097 23.0105 10.1207 23.4005C9.74074 23.7895 9.22974 24.0005 8.69074 24.0005H4.07074C3.50074 24.0005 2.98074 23.7795 2.60174 23.3695C2.23074 22.9805 2.04074 22.4895 2.04074 21.9595V14.5295H2.01174C1.51174 14.5295 1.03174 14.3405 0.651742 14.0005L0.591742 13.9495L0.551742 13.9005C0.211742 13.5205 0.0217416 13.0505 0.00174165 12.5505C-0.0182583 12.0105 0.161742 11.5105 0.561742 11.0705L10.5697 0.610488C10.7697 0.409488 10.9897 0.260488 11.2397 0.159488C11.4897 0.0504883 11.7497 0.000488281 12.0197 0.000488281C12.2997 0.000488281 12.5597 0.0504883 12.8097 0.159488C13.0897 0.270488 13.3197 0.440488 13.5197 0.659488L23.4687 11.1005C23.8287 11.5105 24.0187 12.0105 23.9987 12.5505Z"/>
</svg>