<svg width="16" height="16" viewBox="0 0 16 16" fill="none" xmlns="http://www.w3.org/2000/svg">
<path fill-rule="evenodd" clip-rule="evenodd" d="M2.125 2C2.05596 2 2 2.05596 2 2.125V6.375C2 6.44404 2.05596 6.5 2.125 6.5H6.375C6.44404 6.5 6.5 6.44404 6.5 6.375V2.125C6.5 2.05596 6.44404 2 6.375 2H2.125ZM1 2.125C1 1.50368 1.50368 1 2.125 1H6.375C6.99632 1 7.5 1.50368 7.5 2.125V6.375C7.5 6.99632 6.99632 7.5 6.375 7.5H2.125C1.50368 7.5 1 6.99632 1 6.375V2.125Z" fill="#7A838C"/>
<path fill-rule="evenodd" clip-rule="evenodd" d="M9.625 2C9.55596 2 9.5 2.05596 9.5 2.125V6.375C9.5 6.44404 9.55596 6.5 9.625 6.5H13.875C13.944 6.5 14 6.44404 14 6.375V2.125C14 2.05596 13.944 2 13.875 2H9.625ZM8.5 2.125C8.5 1.50368 9.00368 1 9.625 1H13.875C14.4963 1 15 1.50368 15 2.125V6.375C15 6.99632 14.4963 7.5 13.875 7.5H9.625C9.00368 7.5 8.5 6.99632 8.5 6.375V2.125Z" fill="#7A838C"/>
<path fill-rule="evenodd" clip-rule="evenodd" d="M2.125 9.5C2.05596 9.5 2 9.55596 2 9.625V13.875C2 13.944 2.05596 14 2.125 14H6.375C6.44404 14 6.5 13.944 6.5 13.875V9.625C6.5 9.55596 6.44404 9.5 6.375 9.5H2.125ZM1 9.625C1 9.00368 1.50368 8.5 2.125 8.5H6.375C6.99632 8.5 7.5 9.00368 7.5 9.625V13.875C7.5 14.4963 6.99632 15 6.375 15H2.125C1.50368 15 1 14.4963 1 13.875V9.625Z" fill="#7A838C"/>
<path fill-rule="evenodd" clip-rule="evenodd" d="M9.625 9.5C9.55596 9.5 9.5 9.55596 9.5 9.625V13.875C9.5 13.944 9.55596 14 9.625 14H13.875C13.944 14 14 13.944 14 13.875V9.625C14 9.55596 13.944 9.5 13.875 9.5H9.625ZM8.5 9.625C8.5 9.00368 9.00368 8.5 9.625 8.5H13.875C14.4963 8.5 15 9.00368 15 9.625V13.875C15 14.4963 14.4963 15 13.875 15H9.625C9.00368 15 8.5 14.4963 8.5 13.875V9.625Z" fill="#7A838C"/>
</svg>
