<svg width="20" height="20" viewBox="0 0 20 20" fill="none" xmlns="http://www.w3.org/2000/svg">
<path fill-rule="evenodd" clip-rule="evenodd" d="M14.1667 1.66634C14.1667 1.2061 13.7937 0.833008 13.3334 0.833008C12.8732 0.833008 12.5001 1.2061 12.5001 1.66634V2.49967H7.50008V1.66634C7.50008 1.2061 7.12698 0.833008 6.66675 0.833008C6.20651 0.833008 5.83341 1.2061 5.83341 1.66634V2.49967H4.16675C2.78604 2.49967 1.66675 3.61896 1.66675 4.99967V8.33301V16.6663C1.66675 18.0471 2.78604 19.1663 4.16675 19.1663H15.8334C17.2141 19.1663 18.3334 18.0471 18.3334 16.6663V8.33301V4.99967C18.3334 3.61896 17.2141 2.49967 15.8334 2.49967H14.1667V1.66634ZM16.6667 7.49967V4.99967C16.6667 4.53944 16.2937 4.16634 15.8334 4.16634H14.1667V4.99967C14.1667 5.45991 13.7937 5.83301 13.3334 5.83301C12.8732 5.83301 12.5001 5.45991 12.5001 4.99967V4.16634H7.50008V4.99967C7.50008 5.45991 7.12698 5.83301 6.66675 5.83301C6.20651 5.83301 5.83341 5.45991 5.83341 4.99967V4.16634H4.16675C3.70651 4.16634 3.33341 4.53944 3.33341 4.99967V7.49967H16.6667ZM3.33341 9.16634H16.6667V16.6663C16.6667 17.1266 16.2937 17.4997 15.8334 17.4997H4.16675C3.70651 17.4997 3.33341 17.1266 3.33341 16.6663V9.16634Z" fill="#21313F"/>
</svg>
