<svg class="s-ion-icon" viewBox="0 0 26 24" xmlns="http://www.w3.org/2000/svg">
<mask id="mask0" mask-type="alpha" maskUnits="userSpaceOnUse" x="0" y="0" width="26" height="24">
<path fill-rule="evenodd" clip-rule="evenodd" d="M0 0H25.9996V23.9995H0V0Z" fill="white"/>
</mask>
<g mask="url(#mask0)">
<path fill-rule="evenodd" clip-rule="evenodd" d="M12.9895 1.46751L11.2995 2.62051H14.6925L13.0115 1.46751C13.0085 1.46551 13.0045 1.46451 13.0005 1.46451C12.9965 1.46451 12.9925 1.46551 12.9895 1.46751ZM21.9835 7.64251C21.9765 7.64551 21.9725 7.65251 21.9725 7.65951V10.5435L24.1005 9.08151L22.0045 7.64351C22.0005 7.64151 21.9965 7.64051 21.9925 7.64051C21.9895 7.64051 21.9865 7.64051 21.9835 7.64251ZM3.99751 7.60751L1.83751 9.08051L4.02851 10.5775V7.62351C4.02851 7.61551 4.02451 7.60951 4.01751 7.60651C4.01451 7.60451 4.01151 7.60451 4.00851 7.60451C4.00451 7.60451 4.00051 7.60551 3.99751 7.60751ZM5.37951 3.93751L5.35951 11.4875L10.4945 14.9925L12.6025 13.3795C12.7185 13.2875 12.8595 13.2395 13.0095 13.2395C13.1535 13.2395 13.2955 13.2865 13.4085 13.3725L15.5105 14.9825L20.6405 11.4575V3.93751C20.6405 3.93251 20.6385 3.92651 20.6345 3.92351C20.6305 3.91951 20.6255 3.91751 20.6205 3.91751L5.37951 3.93751ZM24.6185 10.3285L16.6135 15.8275L24.6665 21.9995L24.6505 10.3455C24.6505 10.3375 24.6455 10.3305 24.6395 10.3275C24.6365 10.3255 24.6335 10.3255 24.6305 10.3255C24.6265 10.3255 24.6225 10.3265 24.6185 10.3285ZM1.34451 10.3595C1.33751 10.3625 1.33351 10.3685 1.33351 10.3765L1.34951 22.0025L9.39051 15.8405L1.36551 10.3605C1.36251 10.3585 1.35751 10.3575 1.35351 10.3575C1.35051 10.3575 1.34751 10.3575 1.34451 10.3595ZM12.9975 14.7405L2.63551 22.6825L23.3485 22.6545L13.0225 14.7405C13.0185 14.7385 13.0145 14.7375 13.0105 14.7375C13.0055 14.7375 13.0015 14.7385 12.9975 14.7405ZM0.687512 23.9995C0.508512 23.9995 0.340512 23.9325 0.215512 23.8095C0.0895117 23.6845 0.0205117 23.5195 0.0205117 23.3445L-0.000488281 9.08251C0.00451172 8.85951 0.109512 8.66151 0.288512 8.54051L4.02851 5.98651V3.27951C4.02851 2.91551 4.32651 2.62051 4.69351 2.62051H8.95651L12.6235 0.117512C12.7355 0.0405117 12.8665 -0.000488281 13.0015 -0.000488281C13.1375 -0.000488281 13.2695 0.0405117 13.3815 0.118512L17.0255 2.62051H21.3065C21.6745 2.62051 21.9725 2.91551 21.9725 3.27951V6.01851L25.6945 8.57451C25.8225 8.66351 25.9145 8.79351 25.9555 8.94051C25.9705 8.97351 25.9795 9.03051 25.9805 9.07051L25.9995 23.3085C26.0005 23.6705 25.7015 23.9655 25.3345 23.9665L0.687512 23.9995Z"/>
</g>
<path fill-rule="evenodd" clip-rule="evenodd" d="M8.49266 7.88236C8.12566 7.88236 7.82666 7.58736 7.82666 7.22536C7.82666 6.86336 8.12566 6.56836 8.49266 6.56836H17.5077C17.8757 6.56836 18.1747 6.86336 18.1747 7.22536C18.1747 7.58736 17.8757 7.88236 17.5077 7.88236H8.49266Z"/>
<path fill-rule="evenodd" clip-rule="evenodd" d="M8.49266 11.3043C8.12566 11.3043 7.82666 11.0093 7.82666 10.6473C7.82666 10.2833 8.12566 9.98926 8.49266 9.98926H17.5077C17.8757 9.98926 18.1747 10.2833 18.1747 10.6473C18.1747 11.0093 17.8757 11.3043 17.5077 11.3043H8.49266Z"/>
</svg>
