<svg width="16" height="16" viewBox="0 0 16 16" fill="none" xmlns="http://www.w3.org/2000/svg">
<g id="home">
<path fill-rule="evenodd" clip-rule="evenodd" d="M8.01203 1C7.85744 1 7.70519 1.03092 7.55936 1.09217C7.41411 1.15283 7.28286 1.2415 7.16853 1.35583L1.32586 7.45575C1.09545 7.713 0.988695 8.00525 1.00095 8.32142C1.01203 8.61425 1.12228 8.8855 1.32061 9.106L1.34861 9.13692L1.38011 9.1655C1.60411 9.36792 1.87945 9.47467 2.17695 9.47467H2.18978V13.81C2.18978 14.1221 2.30295 14.4067 2.51761 14.6342C2.73986 14.8699 3.04495 15 3.37628 15H6.06836C6.38336 15 6.68086 14.8758 6.90603 14.6494C7.1312 14.4243 7.25545 14.1256 7.25545 13.81L7.26478 10.7393H8.74469V13.81C8.74469 14.1256 8.86836 14.4243 9.09353 14.6494C9.31869 14.8758 9.61619 15 9.93178 15H12.6355C12.9505 15 13.248 14.8758 13.4732 14.6494C13.6989 14.4243 13.8226 14.1256 13.8226 13.81V9.4805C13.9842 9.47992 14.1411 9.44608 14.2887 9.37842C14.3931 9.33058 14.4923 9.26933 14.5844 9.19583L14.6352 9.15442L14.6795 9.106C14.8773 8.8855 14.9875 8.61425 14.9992 8.32142C15.0114 8.00525 14.9047 7.713 14.6918 7.47558L8.88586 1.38675C8.77386 1.25783 8.63619 1.15808 8.47694 1.09217C8.33053 1.03092 8.17419 1 8.01203 1ZM8.01203 1.80267C8.06861 1.80267 8.12053 1.81317 8.16894 1.833C8.21736 1.85342 8.25761 1.88375 8.28969 1.924L14.0962 8.01225C14.1691 8.09275 14.2029 8.1855 14.1989 8.2905C14.1948 8.3955 14.1569 8.48825 14.0845 8.56933C14.0443 8.60083 14.0017 8.62708 13.9574 8.6475C13.913 8.66792 13.8669 8.67783 13.8185 8.67783C13.7625 8.67783 13.71 8.66792 13.6622 8.6475C13.6138 8.62708 13.5735 8.59675 13.5414 8.5565L13.0217 8.01225V13.81C13.0217 13.915 12.9838 14.006 12.9074 14.0824C12.8309 14.1594 12.7399 14.1973 12.6355 14.1973H9.93178C9.82678 14.1973 9.73636 14.1594 9.65994 14.0824C9.58353 14.006 9.54503 13.915 9.54503 13.81V9.93667H6.46678L6.45453 13.81C6.45453 13.915 6.41661 14.006 6.34019 14.0824C6.26319 14.1594 6.17278 14.1973 6.06836 14.1973H3.37628C3.2637 14.1973 3.17095 14.1594 3.09861 14.0824C3.02628 14.006 2.99011 13.915 2.99011 13.81V8.01225L2.47095 8.5565C2.39045 8.62942 2.2977 8.66792 2.19328 8.67142C2.18803 8.672 2.1822 8.672 2.17695 8.672C2.07895 8.672 1.99203 8.63758 1.91561 8.56933C1.84328 8.48825 1.80478 8.3955 1.8007 8.2905C1.79661 8.1855 1.83103 8.09275 1.90336 8.01225L7.73436 1.924C7.77461 1.88375 7.81894 1.85342 7.86678 1.833C7.91519 1.81317 7.96361 1.80267 8.01203 1.80267Z" fill="#7A838C"/>
</g>

</svg>
