<svg width="16" height="16" viewBox="0 0 16 16" fill="none" xmlns="http://www.w3.org/2000/svg">
<path fill-rule="evenodd" clip-rule="evenodd" d="M13.9946 3.37V3.443H11.4546V1H11.5296C11.8626 1 12.1766 1.124 12.4156 1.354L13.6276 2.518C13.8666 2.749 13.9946 3.05 13.9946 3.37Z" fill="#FA7268"/>
<path fill-rule="evenodd" clip-rule="evenodd" d="M11 6.50549C11 6.69549 10.8227 6.85549 10.614 6.85549H4.38599C4.17735 6.85549 4 6.69549 4 6.50549C4 6.30549 4.17735 6.14549 4.38599 6.14549H10.614C10.8227 6.14549 11 6.30549 11 6.50549ZM4 8.49549C4 8.30549 4.17 8.14549 4.37 8.14549H8.63C8.83 8.14549 9 8.30549 9 8.49549C9 8.69549 8.83 8.85549 8.63 8.85549H4.37C4.17 8.85549 4 8.69549 4 8.49549ZM10.6697 12.1455C10.8532 12.1455 11 12.3055 11 12.5055C11 12.6955 10.8532 12.8555 10.6697 12.8555H8.33028C8.14679 12.8555 8 12.6955 8 12.5055C8 12.3055 8.14679 12.1455 8.33028 12.1455H10.6697ZM13.2 4.24049L11.13 4.23049C10.85 4.23049 10.63 4.01049 10.63 3.74049V1.00049H3.24C2.9 1.00049 2.59 1.13149 2.37 1.35049C2.28 1.44049 2.2 1.55049 2.14 1.66049C2.05 1.82049 2 2.01049 2 2.21049V13.7905C2 13.9605 2.03 14.1205 2.1 14.2605C2.16 14.4105 2.26 14.5405 2.37 14.6505C2.59 14.8705 2.9 15.0005 3.24 15.0005H12.75C13.09 15.0005 13.41 14.8705 13.63 14.6505C13.74 14.5405 13.84 14.4105 13.9 14.2605C13.97 14.1205 14 13.9605 14 13.7905V4.24049H13.2Z" fill="#FA7268"/>
</svg>
