<svg viewBox="0 0 19 24" class="s-ion-icon" xmlns="http://www.w3.org/2000/svg">
    <defs>
        <polygon id="path-1" points="0.0002 0 19 0 19 23.9992 0.0002 23.9992"></polygon>
    </defs>
    <g id="Page-1" stroke="none" stroke-width="1" fill-rule="evenodd">
        <g id="72-pay-1" transform="translate(-103.000000, -631.000000)">
            <g id="navigation" transform="translate(0.000000, 617.000000)">
                <g id="noti" transform="translate(103.000000, 14.000000)">
                    <g id="Group-3">
                        <mask id="mask-2" fill="white">
                            <use xlink:href="#path-1"></use>
                        </mask>
                        <g id="Clip-2"></g>
                        <path d="M17.6302,21.9302 C17.6302,22.3402 17.2802,22.6802 16.8502,22.6802 L2.1502,22.6802 C1.7202,22.6802 1.3702,22.3402 1.3702,21.9302 L1.3702,2.0702 C1.3702,1.6502 1.7202,1.3102 2.1502,1.3102 L13.2202,1.3602 L13.2202,4.8902 C13.2202,5.2492 13.5302,5.5502 13.9102,5.5502 L17.6302,5.6002 L17.6302,21.9302 Z M14.6802,1.3102 L14.7202,1.3102 C14.8902,1.3102 15.1202,1.3402 15.3202,1.5302 L17.4002,3.5302 C17.6302,3.7492 17.6302,3.9992 17.5802,4.2302 L14.5902,4.1802 L14.6802,1.3102 Z M18.3702,2.6002 L16.2902,0.6002 C15.8902,0.2102 15.3402,-0.0008 14.7702,-0.0008 L2.1502,-0.0008 C0.9702,-0.0008 0.0002,0.9302 0.0002,2.0702 L0.0002,21.9302 C0.0002,23.0702 0.9702,23.9992 2.1502,23.9992 L16.8502,23.9992 C18.0302,23.9992 19.0002,23.0702 19.0002,21.9302 L19.0002,4.0602 C19.0002,3.5102 18.7802,2.9902 18.3702,2.6002 L18.3702,2.6002 Z" id="Fill-1" mask="url(#mask-2)"></path>
                    </g>
                    <path d="M4.3514,8.3237 C4.0014,8.3237 3.7164,8.0507 3.7164,7.7147 C3.7164,7.3787 4.0014,7.1037 4.3514,7.1037 L14.6484,7.1037 C14.9984,7.1037 15.2844,7.3787 15.2844,7.7147 C15.2844,8.0507 14.9984,8.3237 14.6484,8.3237 L4.3514,8.3237 Z" id="Fill-4"></path>
                    <path d="M4.3607,11.1479 C4.0107,11.1479 3.7257,10.8739 3.7257,10.5379 C3.7257,10.2019 4.0107,9.9279 4.3607,9.9279 L11.7127,9.9279 C12.0627,9.9279 12.3467,10.2019 12.3467,10.5379 C12.3467,10.8739 12.0627,11.1479 11.7127,11.1479 L4.3607,11.1479 Z" id="Fill-6"></path>
                    <path d="M4.3607,13.9712 C4.0107,13.9712 3.7257,13.6982 3.7257,13.3622 C3.7257,13.0262 4.0107,12.7512 4.3607,12.7512 L11.7127,12.7512 C12.0627,12.7512 12.3467,13.0262 12.3467,13.3622 C12.3467,13.6982 12.0627,13.9712 11.7127,13.9712 L4.3607,13.9712 Z" id="Fill-8"></path>
                    <path d="M4.3607,16.7954 C4.0107,16.7954 3.7257,16.5214 3.7257,16.1854 C3.7257,15.8494 4.0107,15.5754 4.3607,15.5754 L11.7127,15.5754 C12.0627,15.5754 12.3467,15.8494 12.3467,16.1854 C12.3467,16.5214 12.0627,16.7954 11.7127,16.7954 L4.3607,16.7954 Z" id="Fill-10"></path>
                    <path d="M9.5228,21.1255 C9.1738,21.1255 8.8908,20.8515 8.8908,20.5155 C8.8908,20.1795 9.1738,19.9045 9.5228,19.9045 L13.9128,19.9045 C14.2618,19.9045 14.5448,20.1795 14.5448,20.5155 C14.5448,20.8515 14.2618,21.1255 13.9128,21.1255 L9.5228,21.1255 Z" id="Fill-12"></path>
                </g>
            </g>
        </g>
    </g>
</svg>
