<svg width="18" height="20" viewBox="0 0 18 20" fill="none" xmlns="http://www.w3.org/2000/svg">
<path fill-rule="evenodd" clip-rule="evenodd" d="M6.64298 3.47629C7.2681 2.85117 8.11594 2.49998 9 2.49998C9.88405 2.49998 10.7319 2.85117 11.357 3.47629C11.9821 4.10141 12.3333 4.94926 12.3333 5.83331V8.33331H5.66667V5.83331C5.66667 4.94926 6.01786 4.10141 6.64298 3.47629ZM4 8.33331V5.83331C4 4.50723 4.52678 3.23546 5.46447 2.29778C6.40215 1.3601 7.67392 0.833313 9 0.833313C10.3261 0.833313 11.5979 1.3601 12.5355 2.29778C13.4732 3.23546 14 4.50723 14 5.83331V8.33331H14.8333C16.214 8.33331 17.3333 9.4526 17.3333 10.8333V16.6666C17.3333 18.0474 16.214 19.1666 14.8333 19.1666H3.16667C1.78596 19.1666 0.666669 18.0474 0.666669 16.6666V10.8333C0.666669 9.4526 1.78596 8.33331 3.16667 8.33331H4ZM13.1667 9.99998H4.83333H3.16667C2.70643 9.99998 2.33334 10.3731 2.33334 10.8333V16.6666C2.33334 17.1269 2.70643 17.5 3.16667 17.5H14.8333C15.2936 17.5 15.6667 17.1269 15.6667 16.6666V10.8333C15.6667 10.3731 15.2936 9.99998 14.8333 9.99998H13.1667Z" fill="#21313F"/>
</svg>
