<svg width="12" height="12" viewBox="0 0 14 14" fill="none" xmlns="http://www.w3.org/2000/svg">
<path d="M0.50913 14C0.36814 14 0.248038 13.9504 0.148823 13.8512C0.0496073 13.752 0 13.6319 0 13.4909C0 13.3499 0.0522184 13.2272 0.156655 13.1227L3.65008 9.62931L0.422971 6.38654C0.308089 6.27165 0.255871 6.13589 0.266315 5.97923C0.276758 5.82257 0.344643 5.69203 0.469967 5.58759C1.22191 4.98186 2.07308 4.59544 3.02345 4.42834C3.97383 4.26124 4.88766 4.32391 5.76493 4.61633L9.13302 1.95318C9.11214 1.32656 9.26879 0.752153 9.60299 0.22997C9.69698 0.0942035 9.82753 0.0184849 9.99463 0.00281974C10.1617 -0.0128454 10.3027 0.0367605 10.4176 0.151643L13.8484 3.5824C13.9632 3.69728 14.0128 3.83827 13.9972 4.00537C13.9815 4.17247 13.9058 4.29779 13.77 4.38134C13.2478 4.72598 12.6734 4.88786 12.0468 4.86698L9.38367 8.23507C9.6761 9.11234 9.73615 10.0288 9.56383 10.9844C9.3915 11.94 9.00248 12.7938 8.39674 13.5457C8.2923 13.671 8.16176 13.7389 8.0051 13.7494C7.84845 13.7598 7.71268 13.7076 7.5978 13.5927L4.37069 10.3499L0.877272 13.8433C0.772835 13.9478 0.650121 14 0.50913 14Z" fill="#FFFFFF"/>
</svg>
