<svg width="20" height="20" viewBox="0 0 20 20" fill="none" xmlns="http://www.w3.org/2000/svg">
<g clip-path="url(#clip0)">
<path fill-rule="evenodd" clip-rule="evenodd" d="M7.08333 3.33317C5.70262 3.33317 4.58333 4.45246 4.58333 5.83317C4.58333 7.21388 5.70262 8.33317 7.08333 8.33317C8.46405 8.33317 9.58333 7.21388 9.58333 5.83317C9.58333 4.45246 8.46405 3.33317 7.08333 3.33317ZM2.91667 5.83317C2.91667 3.53198 4.78215 1.6665 7.08333 1.6665C9.38452 1.6665 11.25 3.53198 11.25 5.83317C11.25 8.13436 9.38452 9.99984 7.08333 9.99984C4.78215 9.99984 2.91667 8.13436 2.91667 5.83317ZM1.22039 12.8869C2.00179 12.1055 3.0616 11.6665 4.16667 11.6665H10C11.1051 11.6665 12.1649 12.1055 12.9463 12.8869C13.7277 13.6683 14.1667 14.7281 14.1667 15.8332V17.4998C14.1667 17.9601 13.7936 18.3332 13.3333 18.3332C12.8731 18.3332 12.5 17.9601 12.5 17.4998V15.8332C12.5 15.1701 12.2366 14.5342 11.7678 14.0654C11.2989 13.5966 10.663 13.3332 10 13.3332H4.16667C3.50363 13.3332 2.86774 13.5966 2.3989 14.0654C1.93006 14.5342 1.66667 15.1701 1.66667 15.8332V17.4998C1.66667 17.9601 1.29357 18.3332 0.833333 18.3332C0.373096 18.3332 0 17.9601 0 17.4998V15.8332C0 14.7281 0.438987 13.6683 1.22039 12.8869ZM19.7559 8.08909C20.0814 7.76366 20.0814 7.23602 19.7559 6.91058C19.4305 6.58514 18.9028 6.58514 18.5774 6.91058L15.8333 9.65466L14.7559 8.57725C14.4305 8.25181 13.9028 8.25181 13.5774 8.57725C13.252 8.90269 13.252 9.43032 13.5774 9.75576L15.2441 11.4224C15.5695 11.7479 16.0972 11.7479 16.4226 11.4224L19.7559 8.08909Z" fill="#21313F"/>
</g>
<defs>
<clipPath id="clip0">
<rect width="20" height="20" fill="white"/>
</clipPath>
</defs>
</svg>
