<svg width="20" height="20" viewBox="0 0 20 20" fill="none" xmlns="http://www.w3.org/2000/svg">
<g clip-path="url(#clip0)">
<path fill-rule="evenodd" clip-rule="evenodd" d="M5.3125 2.55682C5.3125 2.08612 5.66228 1.70455 6.09375 1.70455H13.9062C14.3377 1.70455 14.6875 2.08612 14.6875 2.55682V16.1932C14.6875 16.6639 14.3377 17.0455 13.9062 17.0455H6.09375C5.66228 17.0455 5.3125 16.6639 5.3125 16.1932V2.55682ZM6.09375 0C4.79933 0 3.75 1.14473 3.75 2.55682V16.1932C3.75 17.6053 4.79933 18.75 6.09375 18.75H13.9062C15.2007 18.75 16.25 17.6053 16.25 16.1932V2.55682C16.25 1.14473 15.2007 0 13.9062 0H6.09375ZM10 14C9.44772 14 9 14.4477 9 15C9 15.5523 9.44772 16 10 16H10.0083C10.5606 16 11.0083 15.5523 11.0083 15C11.0083 14.4477 10.5606 14 10.0083 14H10Z" fill="#21313F"/>
</g>
<defs>
<clipPath id="clip0">
<rect width="20" height="20" fill="white"/>
</clipPath>
</defs>
</svg>
