<svg viewBox="0 0 19 24" class="s-ion-icon" xmlns="http://www.w3.org/2000/svg">
<mask id="mask0" mask-type="alpha" maskUnits="userSpaceOnUse" x="0" y="0" width="19" height="24">
<path fill-rule="evenodd" clip-rule="evenodd" d="M0.000244141 0H19V23.9992H0.000244141V0Z" fill="white"/>
</mask>
<g mask="url(#mask0)">
<path fill-rule="evenodd" clip-rule="evenodd" d="M17.6302 21.93C17.6302 22.34 17.2802 22.68 16.8502 22.68H2.15024C1.72024 22.68 1.37024 22.34 1.37024 21.93V2.07002C1.37024 1.65002 1.72024 1.31002 2.15024 1.31002L13.2202 1.36002V4.89002C13.2202 5.24902 13.5302 5.55002 13.9102 5.55002L17.6302 5.60002V21.93ZM14.6802 1.31002H14.7202C14.8902 1.31002 15.1202 1.34002 15.3202 1.53002L17.4002 3.53002C17.6302 3.74902 17.6302 3.99902 17.5802 4.23002L14.5902 4.18002L14.6802 1.31002ZM18.3702 2.60002L16.2902 0.600023C15.8902 0.210023 15.3402 -0.000976562 14.7702 -0.000976562H2.15024C0.970244 -0.000976562 0.000244141 0.930024 0.000244141 2.07002V21.93C0.000244141 23.07 0.970244 23.999 2.15024 23.999H16.8502C18.0302 23.999 19.0002 23.07 19.0002 21.93V4.06002C19.0002 3.51002 18.7802 2.99002 18.3702 2.60002Z"/>
</g>
<path fill-rule="evenodd" clip-rule="evenodd" d="M4.35131 8.32352C4.00131 8.32352 3.71631 8.05052 3.71631 7.71452C3.71631 7.37852 4.00131 7.10352 4.35131 7.10352H14.6483C14.9983 7.10352 15.2843 7.37852 15.2843 7.71452C15.2843 8.05052 14.9983 8.32352 14.6483 8.32352H4.35131Z"/>
<path fill-rule="evenodd" clip-rule="evenodd" d="M4.36059 11.1477C4.01059 11.1477 3.72559 10.8737 3.72559 10.5377C3.72559 10.2017 4.01059 9.92773 4.36059 9.92773H11.7126C12.0626 9.92773 12.3466 10.2017 12.3466 10.5377C12.3466 10.8737 12.0626 11.1477 11.7126 11.1477H4.36059Z"/>
<path fill-rule="evenodd" clip-rule="evenodd" d="M4.36059 13.971C4.01059 13.971 3.72559 13.698 3.72559 13.362C3.72559 13.026 4.01059 12.751 4.36059 12.751H11.7126C12.0626 12.751 12.3466 13.026 12.3466 13.362C12.3466 13.698 12.0626 13.971 11.7126 13.971H4.36059Z"/>
<path fill-rule="evenodd" clip-rule="evenodd" d="M4.36059 16.7952C4.01059 16.7952 3.72559 16.5212 3.72559 16.1852C3.72559 15.8492 4.01059 15.5752 4.36059 15.5752H11.7126C12.0626 15.5752 12.3466 15.8492 12.3466 16.1852C12.3466 16.5212 12.0626 16.7952 11.7126 16.7952H4.36059Z"/>
<path fill-rule="evenodd" clip-rule="evenodd" d="M9.52287 21.1253C9.17387 21.1253 8.89087 20.8513 8.89087 20.5153C8.89087 20.1793 9.17387 19.9043 9.52287 19.9043H13.9129C14.2619 19.9043 14.5449 20.1793 14.5449 20.5153C14.5449 20.8513 14.2619 21.1253 13.9129 21.1253H9.52287Z"/>
</svg>
