<svg viewBox="0 0 24 24" class="s-ion-icon" xmlns="http://www.w3.org/2000/svg">
<mask id="mask0" mask-type="alpha" maskUnits="userSpaceOnUse" x="0" y="0" width="24" height="24">
<path fill-rule="evenodd" clip-rule="evenodd" d="M0 0H23.9998V23.9999H0V0Z" fill="white"/>
</mask>
<g mask="url(#mask0)">
<path fill-rule="evenodd" clip-rule="evenodd" d="M7.57524 16.963C7.93424 16.963 8.23724 17.27 8.23724 17.63V22.726L22.7292 22.696L22.7012 18.239L22.0392 18.268C21.3572 18.906 20.4512 19.261 19.5062 19.261C17.4422 19.261 15.7632 17.572 15.7632 15.497C15.7632 13.424 17.4422 11.736 19.5062 11.736C20.5962 11.736 21.4772 12.278 22.0242 12.734L22.7292 12.727L22.7012 8.207L17.6292 8.235C17.2712 8.235 16.9912 7.956 16.9912 7.599V6.041C16.9912 5.864 17.0552 5.701 17.1742 5.581C17.6552 5.094 17.9312 4.429 17.9312 3.758C17.9312 2.404 16.8402 1.304 15.4982 1.304C14.1552 1.304 13.0642 2.404 13.0642 3.758C13.0642 4.409 13.3742 5.065 13.9142 5.558C14.0532 5.686 14.1332 5.861 14.1332 6.041V7.599C14.1332 7.949 13.8362 8.235 13.4712 8.235H8.20924L8.23724 13.394C8.23724 13.744 7.94024 14.03 7.57524 14.03H6.01624C5.85224 14.03 5.70024 13.976 5.58824 13.875C5.23624 13.566 4.53024 13.047 3.74324 13.047C2.39524 13.047 1.29924 14.149 1.29924 15.503C1.29924 16.859 2.39524 17.961 3.74324 17.961C4.44524 17.961 5.08224 17.686 5.53624 17.184C5.66324 17.044 5.83924 16.963 6.01624 16.963H7.57524ZM7.57524 24C7.21824 24 6.93824 23.721 6.93824 23.363V18.238L6.27524 18.267C5.59624 18.904 4.68924 19.26 3.74324 19.26C1.67924 19.26 0.000244141 17.573 0.000244141 15.501C0.000244141 13.426 1.67924 11.736 3.74324 11.736C4.83424 11.736 5.71524 12.278 6.26224 12.734L6.96824 12.727L6.93824 7.599C6.93824 7.231 7.22424 6.931 7.57524 6.931H12.8622L12.8332 6.303C12.1502 5.603 11.7692 4.692 11.7692 3.758C11.7692 1.687 13.4432 0 15.5002 0C17.5592 0 19.2362 1.687 19.2362 3.758C19.2362 4.699 18.8972 5.603 18.2832 6.303L18.2902 6.96L23.3382 6.931C23.6972 6.931 24.0002 7.237 24.0002 7.599V13.394C24.0002 13.744 23.7022 14.03 23.3382 14.03H21.7792C21.6152 14.03 21.4632 13.976 21.3502 13.875C21.0002 13.566 20.2942 13.048 19.5062 13.048C18.1582 13.048 17.0622 14.149 17.0622 15.503C17.0622 16.859 18.1582 17.961 19.5062 17.961C20.2072 17.961 20.8442 17.686 21.2992 17.184C21.4262 17.044 21.6012 16.963 21.7792 16.963H23.3382C23.6972 16.963 24.0002 17.27 24.0002 17.63V23.363C24.0002 23.714 23.7022 24 23.3382 24H7.57524Z"/>
</g>
</svg>
