<svg width="20" height="20" viewBox="0 0 20 20" fill="none" xmlns="http://www.w3.org/2000/svg">
<path fill-rule="evenodd" clip-rule="evenodd" d="M6.25016 2.50016C5.91864 2.50016 5.6007 2.63186 5.36628 2.86628C5.13186 3.1007 5.00016 3.41864 5.00016 3.75016C5.00016 4.08168 5.13186 4.39963 5.36628 4.63405C5.6007 4.86847 5.91864 5.00016 6.25016 5.00016H8.87851C8.77678 4.73401 8.648 4.44134 8.48873 4.15176C7.96459 3.19878 7.24508 2.50016 6.25016 2.50016ZM3.3335 3.75016C3.3335 4.1867 3.43136 4.61314 3.61493 5.00016H1.66683C1.20659 5.00016 0.833496 5.37326 0.833496 5.8335V10.0002C0.833496 10.4604 1.20659 10.8335 1.66683 10.8335H2.50016V18.3335C2.50016 18.7937 2.87326 19.1668 3.3335 19.1668H10.0002H16.6668C17.1271 19.1668 17.5002 18.7937 17.5002 18.3335V10.8335H18.3335C18.7937 10.8335 19.1668 10.4604 19.1668 10.0002V5.8335C19.1668 5.37326 18.7937 5.00016 18.3335 5.00016H16.3854C16.569 4.61314 16.6668 4.1867 16.6668 3.75016C16.6668 2.97661 16.3595 2.23475 15.8126 1.68777C15.2656 1.14079 14.5237 0.833496 13.7502 0.833496C11.8284 0.833496 10.6729 2.21821 10.0512 3.34856C10.0339 3.38008 10.0169 3.41157 10.0002 3.44302C9.98345 3.41157 9.96643 3.38008 9.94909 3.34856C9.3274 2.21821 8.17191 0.833496 6.25016 0.833496C5.47661 0.833496 4.73475 1.14079 4.18777 1.68777C3.64079 2.23475 3.3335 2.97661 3.3335 3.75016ZM11.1218 5.00016H13.7502C14.0817 5.00016 14.3996 4.86847 14.6341 4.63405C14.8685 4.39963 15.0002 4.08168 15.0002 3.75016C15.0002 3.41864 14.8685 3.1007 14.6341 2.86628C14.3996 2.63186 14.0817 2.50016 13.7502 2.50016C12.7553 2.50016 12.0357 3.19878 11.5116 4.15176C11.3523 4.44134 11.2235 4.73401 11.1218 5.00016ZM10.8335 6.66683V9.16683H16.6668H17.5002V6.66683H13.7502H10.8335ZM6.25016 6.66683H9.16683V9.16683H3.3335H2.50016V6.66683H6.25016ZM10.8335 17.5002H15.8335V10.8335H10.8335V17.5002ZM9.16683 10.8335V17.5002H4.16683V10.8335H9.16683Z" fill="#21313F"/>
</svg>
