<svg width="24" height="24" viewBox="0 0 24 24" fill="none" xmlns="http://www.w3.org/2000/svg">
<path fill-rule="evenodd" clip-rule="evenodd" d="M20.1742 23C20.9269 23 21.7871 22.6781 22.2172 22.2488C23.0775 21.3902 23.2925 19.5659 22.5398 18.7073L14.1526 11.3024L13.2923 10.5512L10.7117 8.29756C11.3568 6.47317 11.3568 4.1122 9.85142 2.60976C8.77614 1.53659 7.48579 1 6.19544 1C5.6578 1 5.12016 1.10732 4.69004 1.21463L7.05567 4.00488L6.94815 6.90244L4.04487 7.22439L1.24912 4.86342C0.603946 6.68781 1.24912 8.5122 2.75452 9.90732C3.61475 10.7659 4.9051 11.0878 6.08792 11.0878C6.94815 11.0878 7.70085 10.9805 8.45355 10.6585L18.7763 22.4634C18.9914 22.8927 19.529 23 20.1742 23ZM22.7549 3.03902C22.7549 3.25366 22.6474 3.46829 22.4323 3.57561L21.0344 5.29268C20.9269 5.50732 20.8194 5.50732 20.7118 5.50732C20.6043 5.50732 20.4968 5.50732 20.2817 5.4L20.0667 5.29268L15.3354 10.122L13.83 8.83415L18.7763 4.00488L18.6688 3.79024C18.5613 3.57561 18.5613 3.25366 18.6688 3.03902L20.4968 1.6439C20.7118 1.42927 20.9269 1.32195 21.142 1.32195C21.2495 1.32195 21.357 1.32195 21.4645 1.42927L22.5398 2.50244C22.7549 2.71707 22.7549 2.93171 22.7549 3.03902ZM11.5719 17.0976C11.4644 17.2049 11.4644 17.2049 11.3568 17.3122L6.51803 22.1415C5.55027 23.1073 3.82981 23.1073 2.86205 22.1415L2.00182 21.2829C1.03406 20.3171 1.03406 18.6 2.00182 17.6341L6.84062 12.8049C7.1632 12.8049 7.48579 12.6976 7.80838 12.6976L11.5719 17.0976Z" fill="#51D2B5"/>
</svg>
