<svg width="16" height="16" viewBox="0 0 16 16" fill="none" xmlns="http://www.w3.org/2000/svg">
<path fill-rule="evenodd" clip-rule="evenodd" d="M10.3752 9.95364H15.0843V6.05909H10.3752C9.22973 6.05909 8.26882 6.95 8.26882 8.00636C8.26882 9.06336 9.22973 9.95364 10.3752 9.95364ZM15.1352 5.18727H15.5482C15.797 5.18727 16 5.37182 16 5.60091V10.3361C16 10.5766 15.8155 10.7491 15.5482 10.7491H15.1734V13.7209C15.1734 14.44 14.5561 15 13.7727 15H1.36245C0.610909 15 0 14.4273 0 13.7209V2.29182C0 1.62364 0.535182 1.07 1.24727 1.01273L4.31427 1H12.5515L13.7727 1.01273C14.5243 1.01273 15.1352 1.58609 15.1352 2.29182V5.18727ZM10.9609 8.92882C11.4891 8.92882 11.9225 8.49609 11.9225 7.96791C11.9225 7.43336 11.4891 7 10.9609 7C10.4327 7 10 7.43336 10 7.96791C10 8.49609 10.4327 8.92882 10.9609 8.92882Z" fill="#FA7268"/>
</svg>
