<svg width="20" height="20" viewBox="0 0 20 20" fill="none" xmlns="http://www.w3.org/2000/svg">
<path fill-rule="evenodd" clip-rule="evenodd" d="M5 3.4375C5 2.94529 5.13403 2.54597 5.34178 2.28404C5.53646 2.03858 5.82361 1.875 6.25 1.875C6.68187 1.875 6.9689 2.03701 7.16112 2.2757C7.36622 2.53038 7.5 2.92162 7.5 3.41328V8.8332C7.5 10.2414 6.62377 11.25 5.3125 11.25C4.00118 11.25 3.125 10.2417 3.125 8.8332V5.625C3.125 5.27982 2.84518 5 2.5 5C2.15482 5 1.875 5.27982 1.875 5.625V8.8332C1.875 10.6879 3.04664 12.3291 5 12.4875V16.875C5 17.538 5.26339 18.1739 5.73223 18.6428C6.20107 19.1116 6.83696 19.375 7.5 19.375H15.625C16.288 19.375 16.9239 19.1116 17.3928 18.6428C17.8616 18.1739 18.125 17.538 18.125 16.875V9.26748C18.1249 8.77038 17.9274 8.29364 17.576 7.94209L12.058 2.42407L12.0579 2.42402C11.7064 2.07255 11.2296 1.87508 10.7325 1.875H8.38866C8.31579 1.74004 8.23131 1.61168 8.13468 1.49168C7.69634 0.947368 7.04587 0.625 6.25 0.625C5.44866 0.625 4.7983 0.957713 4.36242 1.50727C3.9396 2.04036 3.75 2.73479 3.75 3.4375V9.0625C3.75 10.0363 4.54614 10.6229 5.30836 10.625C5.51399 10.6272 5.71802 10.5884 5.90855 10.5109C6.10035 10.433 6.27458 10.3174 6.42098 10.171C6.56738 10.0246 6.68297 9.85035 6.76094 9.65855C6.83833 9.46819 6.87709 9.26436 6.875 9.05891V3.125C6.875 2.77982 6.59518 2.5 6.25 2.5C5.90482 2.5 5.625 2.77982 5.625 3.125V9.06662L5.62505 9.07073C5.62558 9.11084 5.61807 9.15065 5.60297 9.18781C5.58786 9.22497 5.56546 9.25873 5.5371 9.2871C5.50873 9.31546 5.47497 9.33786 5.43781 9.35297C5.40065 9.36807 5.36084 9.37558 5.32073 9.37505L5.31662 9.375H5.3125C5.2319 9.375 5.14929 9.34303 5.09099 9.28943C5.04047 9.24297 5 9.174 5 9.0625V3.4375ZM8.73916 3.125C8.74642 3.2206 8.75 3.31682 8.75 3.41328V8.8332C8.75 10.4803 7.82561 11.9595 6.25 12.3806V16.875C6.25 17.2065 6.3817 17.5245 6.61612 17.7589C6.85054 17.9933 7.16848 18.125 7.5 18.125H15.625C15.9565 18.125 16.2745 17.9933 16.5089 17.7589C16.7433 17.5245 16.875 17.2065 16.875 16.875V9.375H12.5C12.0027 9.375 11.5258 9.17745 11.1742 8.82582C10.8225 8.47419 10.625 7.99728 10.625 7.5V3.125H8.73916ZM11.875 4.00888L15.9911 8.125H12.5C12.3342 8.125 12.1753 8.05915 12.0581 7.94194C11.9408 7.82473 11.875 7.66576 11.875 7.5V4.00888Z" fill="#21313F"/>
</svg>
