<svg width="16" height="16" viewBox="0 0 16 16" fill="none" xmlns="http://www.w3.org/2000/svg">
<path fill-rule="evenodd" clip-rule="evenodd" d="M14.9991 8.32083C14.9875 8.6125 14.8766 8.88667 14.6783 9.10833L14.6316 9.155L14.5791 9.19583C14.4916 9.27167 14.3925 9.32942 14.2875 9.37667C14.1416 9.44667 13.9841 9.48108 13.8208 9.48108V13.8094C13.8208 14.125 13.6983 14.4225 13.4708 14.65C13.2433 14.8769 12.9458 15 12.6308 15H9.93054C9.61554 15 9.31804 14.8769 9.09054 14.65C8.86887 14.4225 8.74054 14.125 8.74054 13.8094V10.7411H7.26471L7.25362 13.8094C7.25362 14.125 7.13054 14.4225 6.90362 14.65C6.68196 14.8769 6.38387 15 6.06946 15H3.37446C3.04196 15 2.73862 14.8711 2.51754 14.6319C2.30112 14.405 2.19029 14.1186 2.19029 13.8094V9.47525H2.17337C1.88171 9.47525 1.60171 9.365 1.38004 9.16667L1.34504 9.13692L1.32171 9.10833C1.12337 8.88667 1.01254 8.6125 1.00087 8.32083C0.989207 8.00583 1.09421 7.71417 1.32754 7.4575L7.16554 1.35583C7.28221 1.23858 7.41054 1.15167 7.55637 1.09275C7.70221 1.02917 7.85387 1 8.01137 1C8.17471 1 8.32637 1.02917 8.47221 1.09275C8.63554 1.1575 8.76971 1.25667 8.88637 1.38442L14.69 7.475C14.9 7.71417 15.0108 8.00583 14.9991 8.32083Z" fill="#FA7268"/>
</svg>
