<svg width="16" height="16" viewBox="0 0 16 16" fill="none" xmlns="http://www.w3.org/2000/svg">
<path d="M6.375 7.5H2.125C1.82663 7.5 1.54048 7.38147 1.3295 7.1705C1.11853 6.95952 1 6.67337 1 6.375V2.125C1 1.82663 1.11853 1.54048 1.3295 1.3295C1.54048 1.11853 1.82663 1 2.125 1H6.375C6.67337 1 6.95952 1.11853 7.1705 1.3295C7.38147 1.54048 7.5 1.82663 7.5 2.125V6.375C7.5 6.67337 7.38147 6.95952 7.1705 7.1705C6.95952 7.38147 6.67337 7.5 6.375 7.5Z" fill="#FA7268"/>
<path d="M13.875 7.5H9.625C9.32663 7.5 9.04048 7.38147 8.8295 7.1705C8.61853 6.95952 8.5 6.67337 8.5 6.375V2.125C8.5 1.82663 8.61853 1.54048 8.8295 1.3295C9.04048 1.11853 9.32663 1 9.625 1H13.875C14.1734 1 14.4595 1.11853 14.6705 1.3295C14.8815 1.54048 15 1.82663 15 2.125V6.375C15 6.67337 14.8815 6.95952 14.6705 7.1705C14.4595 7.38147 14.1734 7.5 13.875 7.5Z" fill="#FA7268"/>
<path d="M6.375 15H2.125C1.82663 15 1.54048 14.8815 1.3295 14.6705C1.11853 14.4595 1 14.1734 1 13.875V9.625C1 9.32663 1.11853 9.04048 1.3295 8.8295C1.54048 8.61853 1.82663 8.5 2.125 8.5H6.375C6.67337 8.5 6.95952 8.61853 7.1705 8.8295C7.38147 9.04048 7.5 9.32663 7.5 9.625V13.875C7.5 14.1734 7.38147 14.4595 7.1705 14.6705C6.95952 14.8815 6.67337 15 6.375 15Z" fill="#FA7268"/>
<path d="M13.875 15H9.625C9.32663 15 9.04048 14.8815 8.8295 14.6705C8.61853 14.4595 8.5 14.1734 8.5 13.875V9.625C8.5 9.32663 8.61853 9.04048 8.8295 8.8295C9.04048 8.61853 9.32663 8.5 9.625 8.5H13.875C14.1734 8.5 14.4595 8.61853 14.6705 8.8295C14.8815 9.04048 15 9.32663 15 9.625V13.875C15 14.1734 14.8815 14.4595 14.6705 14.6705C14.4595 14.8815 14.1734 15 13.875 15Z" fill="#FA7268"/>
</svg>
