<svg width="20" height="20" viewBox="0 0 20 20" fill="none" xmlns="http://www.w3.org/2000/svg">
<path fill-rule="evenodd" clip-rule="evenodd" d="M1.66667 5C1.66667 4.53976 2.03976 4.16667 2.5 4.16667H17.5C17.9602 4.16667 18.3333 4.53976 18.3333 5V7.5H1.66667V5ZM0 8.33333V5C0 3.61929 1.11929 2.5 2.5 2.5H17.5C18.8807 2.5 20 3.61929 20 5V8.33333V15C20 16.3807 18.8807 17.5 17.5 17.5H2.5C1.11929 17.5 0 16.3807 0 15V8.33333ZM18.3333 9.16667V15C18.3333 15.4602 17.9602 15.8333 17.5 15.8333H2.5C2.03976 15.8333 1.66667 15.4602 1.66667 15V9.16667H18.3333Z" fill="#21313F"/>
</svg>
