<svg width="16" height="16" viewBox="0 0 16 16" fill="none" xmlns="http://www.w3.org/2000/svg">
<path fill-rule="evenodd" clip-rule="evenodd" d="M10.9596 8.96155C10.4302 8.96155 10 8.5301 10 8.00064C10 7.47055 10.4302 7.0391 10.9596 7.0391C11.4897 7.0391 11.9212 7.47055 11.9212 8.00064C11.9212 8.5301 11.4897 8.96155 10.9596 8.96155ZM10.3738 6.05464C9.23151 6.05464 8.26552 6.94619 8.26552 8.00064C8.26552 9.05892 9.23151 9.95301 10.3738 9.95301H15.0861V6.05464H10.3738ZM1.35927 1.80055C1.09455 1.80055 0.870545 2.02455 0.870545 2.28927V13.7184C0.870545 13.9837 1.09455 14.2077 1.35927 14.2077L13.7732 14.2077C14.0386 14.2077 14.262 13.9837 14.262 13.7184V10.7472H10.3738C8.70779 10.7472 7.3517 9.49992 7.3517 7.96692C7.3517 6.40719 8.67915 5.18537 10.3738 5.18537H14.2168V2.28928C14.2168 2.01946 13.9972 1.80055 13.7274 1.80055L1.35927 1.80055ZM1.35927 15C0.609636 15 0 14.4247 0 13.7184V2.28927C0 1.61791 0.535182 1.06745 1.24473 1.00764L4.31491 1L12.5482 1.00001L13.7732 1.00764C14.5222 1.00764 15.1312 1.58228 15.1312 2.28928V5.18537H15.5462C15.7962 5.18537 15.9999 5.37119 15.9999 5.60028V10.3336C15.9999 10.5766 15.8134 10.7472 15.5462 10.7472H15.1694V13.7184C15.1694 14.4368 14.556 15 13.7732 15L1.35927 15Z" fill="#7A838C"/>
</svg>
