<svg width="16" height="16" viewBox="0 0 16 16" fill="none" xmlns="http://www.w3.org/2000/svg">
<path fill-rule="evenodd" clip-rule="evenodd" d="M0.423 15C0.313 15 0.21 14.961 0.132 14.889C0.055 14.816 0.013 14.72 0.013 14.618L0 6.298C0.003 6.168 0.068 6.053 0.177 5.982L2.479 4.493V2.914C2.479 2.701 2.663 2.529 2.888 2.529H5.512L7.768 1.069C7.837 1.024 7.918 1 8.001 1C8.085 1 8.166 1.024 8.235 1.069L10.477 2.529H13.112C13.338 2.529 13.522 2.701 13.522 2.914V4.511L15.812 6.002C15.891 6.054 15.947 6.13 15.973 6.216C15.982 6.235 15.987 6.268 15.988 6.292L16 14.597C16 14.808 15.817 14.98 15.59 14.981L0.423 15ZM7.999 9.599L1.622 14.232L14.368 14.215L8.014 9.599C8.011 9.598 8.009 9.597 8.006 9.597C8.004 9.597 8.001 9.598 7.999 9.599ZM0.827 7.043C0.823 7.045 0.82 7.049 0.82 7.053L0.831 13.835L5.779 10.241L0.84 7.044C0.839 7.043 0.836 7.042 0.833 7.042C0.831 7.042 0.829 7.042 0.827 7.043ZM15.15 7.025L10.224 10.233L15.179 13.833L15.17 7.035C15.17 7.031 15.167 7.026 15.163 7.025C15.161 7.023 15.159 7.023 15.157 7.023C15.155 7.023 15.152 7.024 15.15 7.025ZM3.311 3.297L3.298 7.701L6.458 9.746L7.756 8.805C7.827 8.751 7.914 8.723 8.006 8.723C8.094 8.723 8.182 8.751 8.252 8.801L9.545 9.74L12.702 7.684V3.297C12.702 3.294 12.701 3.291 12.698 3.289C12.696 3.287 12.693 3.286 12.69 3.286L3.311 3.297ZM2.46 5.438L1.131 6.297L2.479 7.17V5.447C2.479 5.443 2.477 5.439 2.472 5.437C2.47 5.437 2.469 5.437 2.467 5.437C2.465 5.437 2.462 5.437 2.46 5.438ZM13.528 5.458C13.524 5.46 13.522 5.464 13.522 5.468V7.151L14.831 6.298L13.541 5.459C13.539 5.458 13.536 5.458 13.534 5.458C13.532 5.458 13.53 5.458 13.528 5.458ZM7.994 1.856L6.954 2.529H9.042L8.007 1.856C8.005 1.855 8.003 1.854 8 1.854C7.998 1.854 7.995 1.855 7.994 1.856Z" fill="#7A838C"/>
<path fill-rule="evenodd" clip-rule="evenodd" d="M5.22622 5.59854C5.00022 5.59854 4.81622 5.42654 4.81622 5.21554C4.81622 5.00354 5.00022 4.83154 5.22622 4.83154H10.7742C11.0002 4.83154 11.1842 5.00354 11.1842 5.21554C11.1842 5.42654 11.0002 5.59854 10.7742 5.59854H5.22622Z" fill="#7A838C"/>
</svg>
