<svg width="14" height="14" viewBox="0 0 14 14" fill="none" xmlns="http://www.w3.org/2000/svg">
<path fill-rule="evenodd" clip-rule="evenodd" d="M2.91669 2.33317C2.76198 2.33317 2.6136 2.39463 2.50421 2.50402C2.39481 2.61342 2.33335 2.76179 2.33335 2.9165V10.8415L3.67088 9.50402C3.78027 9.39463 3.92864 9.33317 4.08335 9.33317H11.0834C11.2381 9.33317 11.3864 9.27171 11.4958 9.16232C11.6052 9.05292 11.6667 8.90455 11.6667 8.74984V2.9165C11.6667 2.76179 11.6052 2.61342 11.4958 2.50402C11.3864 2.39463 11.2381 2.33317 11.0834 2.33317H2.91669ZM1.67925 1.67907C2.00744 1.35088 2.45256 1.1665 2.91669 1.1665H11.0834C11.5475 1.1665 11.9926 1.35088 12.3208 1.67907C12.649 2.00726 12.8334 2.45237 12.8334 2.9165V8.74984C12.8334 9.21397 12.649 9.65909 12.3208 9.98727C11.9926 10.3155 11.5475 10.4998 11.0834 10.4998H4.32498L2.1625 12.6623C1.99567 12.8291 1.74477 12.8791 1.52679 12.7888C1.30881 12.6985 1.16669 12.4858 1.16669 12.2498V2.9165C1.16669 2.45238 1.35106 2.00726 1.67925 1.67907Z" fill="#7A838C"/>
</svg>
