<svg width="16" height="16" viewBox="0 0 16 16" fill="none" xmlns="http://www.w3.org/2000/svg">
<path fill-rule="evenodd" clip-rule="evenodd" d="M3.3335 2.66683C3.15668 2.66683 2.98712 2.73707 2.86209 2.86209C2.73707 2.98712 2.66683 3.15668 2.66683 3.3335V12.6668C2.66683 12.8436 2.73707 13.0132 2.86209 13.1382C2.98712 13.2633 3.15669 13.3335 3.3335 13.3335H4.00016V8.66683C4.00016 8.29864 4.29864 8.00016 4.66683 8.00016H11.3335C11.7017 8.00016 12.0002 8.29864 12.0002 8.66683V13.3335H12.6668C12.8436 13.3335 13.0132 13.2633 13.1382 13.1382C13.2633 13.0132 13.3335 12.8436 13.3335 12.6668V5.60964L10.3907 2.66683H5.3335V4.66683H10.0002C10.3684 4.66683 10.6668 4.96531 10.6668 5.3335C10.6668 5.70169 10.3684 6.00016 10.0002 6.00016H4.66683C4.29864 6.00016 4.00016 5.70169 4.00016 5.3335V2.66683H3.3335ZM4.66683 1.3335H3.3335C2.80306 1.3335 2.29436 1.54421 1.91928 1.91928C1.54421 2.29436 1.3335 2.80306 1.3335 3.3335V12.6668C1.3335 13.1973 1.54421 13.706 1.91928 14.081C2.29436 14.4561 2.80306 14.6668 3.3335 14.6668H4.66683H11.3335H12.6668C13.1973 14.6668 13.706 14.4561 14.081 14.081C14.4561 13.706 14.6668 13.1973 14.6668 12.6668V5.3335C14.6668 5.15669 14.5966 4.98712 14.4716 4.86209L11.1382 1.52876C11.0132 1.40373 10.8436 1.3335 10.6668 1.3335H4.66683ZM5.3335 9.3335V13.3335H10.6668V9.3335H5.3335Z" fill="#009AC9"/>
</svg>
