<svg width="36" height="30" viewBox="0 0 36 30" fill="none" xmlns="http://www.w3.org/2000/svg">
<path d="M30.3836 8.42773V27.6802H5.65545V8.42773H3.31531V28.0667C3.31531 29.1326 4.19014 29.9998 5.2655 29.9998H30.7737C31.849 29.9998 32.7239 29.1326 32.7239 28.0667V8.42773H30.3836Z" fill="#FA7268"/>
<path fill-rule="evenodd" clip-rule="evenodd" d="M1.17007 0H34.83C35.4762 0 36.0001 0.519211 36 1.15983V8.42781C36 9.06836 35.4762 9.58757 34.8299 9.58757H1.17007C0.523829 9.58757 0 9.06843 0 8.42781V1.15983C0 0.519211 0.523829 0 1.17007 0ZM2.34023 7.26819H33.6599V2.31979H2.34023V7.26819Z" fill="#FA7268"/>
<path d="M23.246 13.6084H12.7931C12.1468 13.6084 11.623 14.1276 11.623 14.7682C11.623 15.4088 12.1468 15.9279 12.7931 15.9279H23.246C23.8923 15.9279 24.416 15.4091 24.416 14.7682C24.416 14.1276 23.8922 13.6084 23.246 13.6084Z" fill="#FA7268"/>
</svg>
