<svg width="40" height="30" viewBox="0 0 40 30" fill="none" xmlns="http://www.w3.org/2000/svg">
<path d="M37.1875 12.3158H37.5L35.5469 2.76316C35.4167 2 35.013 1.35526 34.3359 0.828947C33.6849 0.276316 32.9688 0 32.1875 0H7.8125C7.03125 0 6.3151 0.276316 5.66406 0.828947C5.01302 1.35526 4.60938 2 4.45312 2.76316L2.5 12.3158H2.8125C2.03125 12.3158 1.36719 12.5921 0.820312 13.1447C0.273438 13.6974 0 14.3684 0 15.1579V22.1053C0 22.8421 0.234375 23.4868 0.703125 24.0395C1.19792 24.5658 1.79688 24.8684 2.5 24.9474C2.5 26.3421 2.98177 27.5395 3.94531 28.5395C4.9349 29.5132 6.11979 30 7.5 30C8.88021 30 10.0521 29.5132 11.0156 28.5395C12.0052 27.5395 12.5 26.3421 12.5 24.9474H27.5C27.5 26.3421 27.9818 27.5395 28.9453 28.5395C29.9349 29.5132 31.1198 30 32.5 30C33.8802 30 35.0521 29.5132 36.0156 28.5395C37.0052 27.5395 37.5 26.3421 37.5 24.9474C38.2031 24.8684 38.7891 24.5658 39.2578 24.0395C39.7526 23.4868 40 22.8421 40 22.1053V15.1579C40 14.3684 39.7266 13.6974 39.1797 13.1447C38.6328 12.5921 37.9688 12.3158 37.1875 12.3158ZM7.10938 2.84211H32.7344L34.6875 12.3158H5.3125L7.10938 2.84211ZM37.1875 22.1053H34.6875V24.9474C34.6875 25.5526 34.4661 26.0789 34.0234 26.5263C33.6068 26.9474 33.099 27.1579 32.5 27.1579C31.901 27.1579 31.3802 26.9474 30.9375 26.5263C30.5208 26.0789 30.3125 25.5526 30.3125 24.9474V22.1053H9.6875V24.9474C9.6875 25.5526 9.46615 26.0789 9.02344 26.5263C8.60677 26.9474 8.09896 27.1579 7.5 27.1579C6.90104 27.1579 6.38021 26.9474 5.9375 26.5263C5.52083 26.0789 5.3125 25.5526 5.3125 24.9474V22.1053H2.8125V15.1579H37.1875V22.1053ZM6.48438 17.6447C6.22396 17.9079 6.09375 18.2368 6.09375 18.6316C6.09375 19.0263 6.22396 19.3684 6.48438 19.6579C6.77083 19.9211 7.10938 20.0526 7.5 20.0526C7.89062 20.0526 8.21615 19.9211 8.47656 19.6579C8.76302 19.3684 8.90625 19.0263 8.90625 18.6316C8.90625 18.2368 8.76302 17.9079 8.47656 17.6447C8.21615 17.3553 7.89062 17.2105 7.5 17.2105C7.10938 17.2105 6.77083 17.3553 6.48438 17.6447ZM31.4844 17.6447C31.224 17.9079 31.0938 18.2368 31.0938 18.6316C31.0938 19.0263 31.224 19.3684 31.4844 19.6579C31.7708 19.9211 32.1094 20.0526 32.5 20.0526C32.8906 20.0526 33.2161 19.9211 33.4766 19.6579C33.763 19.3684 33.9062 19.0263 33.9062 18.6316C33.9062 18.2368 33.763 17.9079 33.4766 17.6447C33.2161 17.3553 32.8906 17.2105 32.5 17.2105C32.1094 17.2105 31.7708 17.3553 31.4844 17.6447Z" fill="#FA7268"/>
</svg>
