<svg width="20" height="20" viewBox="0 0 20 20" fill="none" xmlns="http://www.w3.org/2000/svg">
<path d="M17 1.75016C16.6667 1.5835 16.3333 1.66683 16.0833 1.91683C16.0833 1.91683 15.3333 2.50016 13.3333 2.50016C12.25 2.50016 11.3333 2.0835 10.3333 1.75016C9.25 1.25016 8.08333 0.833496 6.66667 0.833496C4 0.833496 2.91667 1.75016 2.75 1.91683C2.58333 2.0835 2.5 2.25016 2.5 2.50016V12.5002V18.3335C2.5 18.8335 2.83333 19.1668 3.33333 19.1668C3.83333 19.1668 4.16667 18.8335 4.16667 18.3335V12.9168C4.5 12.7502 5.33333 12.5002 6.66667 12.5002C7.75 12.5002 8.66667 12.9168 9.66667 13.2502C10.75 13.6668 11.9167 14.1668 13.3333 14.1668C16 14.1668 17.0833 13.2502 17.25 13.0835C17.4167 12.9168 17.5 12.7502 17.5 12.5002V2.50016C17.5 2.16683 17.3333 1.91683 17 1.75016ZM15.8333 12.0835C15.5 12.2502 14.6667 12.5002 13.3333 12.5002C12.25 12.5002 11.3333 12.0835 10.3333 11.7502C9.25 11.2502 8.08333 10.8335 6.66667 10.8335C5.58333 10.8335 4.75 11.0002 4.16667 11.1668V2.91683C4.5 2.75016 5.33333 2.50016 6.66667 2.50016C7.75 2.50016 8.66667 2.91683 9.66667 3.25016C10.75 3.75016 11.9167 4.16683 13.3333 4.16683C14.4167 4.16683 15.25 4.00016 15.8333 3.8335V12.0835Z" fill="#7A838C"/>
</svg>
