<svg class="s-ion-icon" viewBox="0 0 26 22" xmlns="http://www.w3.org/2000/svg">
<mask id="mask0" mask-type="alpha" maskUnits="userSpaceOnUse" x="0" y="0" width="26" height="22">
<path fill-rule="evenodd" clip-rule="evenodd" d="M0.000244141 0H26V21.9996H0.000244141V0Z" fill="white"/>
</mask>
<g mask="url(#mask0)">
<path fill-rule="evenodd" clip-rule="evenodd" d="M17.6172 12.5105C16.7852 12.5105 16.1092 11.8325 16.1092 11.0005C16.1092 10.1675 16.7852 9.48951 17.6172 9.48951C18.4502 9.48951 19.1282 10.1675 19.1282 11.0005C19.1282 11.8325 18.4502 12.5105 17.6172 12.5105ZM17.1592 7.94251C15.3642 7.94251 13.8462 9.34351 13.8462 11.0005C13.8462 12.6635 15.3642 14.0685 17.1592 14.0685H24.5642V7.94251H17.1592ZM2.13624 1.25751C1.72024 1.25751 1.36824 1.60951 1.36824 2.02551V19.9855C1.36824 20.4025 1.72024 20.7545 2.13624 20.7545H22.5012C22.9182 20.7545 23.2692 20.4025 23.2692 19.9855V15.3165H17.1592C14.5412 15.3165 12.4102 13.3565 12.4102 10.9475C12.4102 8.49651 14.4962 6.57651 17.1592 6.57651H23.1982V2.02551C23.1982 1.60151 22.8532 1.25751 22.4292 1.25751H2.13624ZM2.13624 21.9995C0.958244 21.9995 0.000244141 21.0955 0.000244141 19.9855V2.02551C0.000244141 0.970512 0.841244 0.105512 1.95624 0.0115117L8.35224 -0.000488281H20.5762L22.5012 0.0115117C23.6782 0.0115117 24.6352 0.914512 24.6352 2.02551V6.57651H25.2872C25.6802 6.57651 26.0002 6.86851 26.0002 7.22851V14.6665C26.0002 15.0485 25.7072 15.3165 25.2872 15.3165H24.6952V19.9855C24.6952 21.1145 23.7312 21.9995 22.5012 21.9995H2.13624Z"/>
</g>
</svg>
