<svg width="20" height="20" viewBox="0 0 20 20" fill="none" xmlns="http://www.w3.org/2000/svg">
<path fill-rule="evenodd" clip-rule="evenodd" d="M2.74409 3.57774C2.90037 3.42146 3.11233 3.33366 3.33334 3.33366H16.6667C16.8877 3.33366 17.0996 3.42146 17.2559 3.57774C17.4122 3.73402 17.5 3.94598 17.5 4.16699V9.16699C17.5 11.1561 16.7098 13.0638 15.3033 14.4703C13.8968 15.8768 11.9891 16.667 10 16.667C9.01509 16.667 8.03982 16.473 7.12988 16.0961C6.21994 15.7192 5.39315 15.1667 4.69671 14.4703C3.29019 13.0638 2.50001 11.1561 2.50001 9.16699V4.16699C2.50001 3.94598 2.58781 3.73402 2.74409 3.57774ZM16.6667 1.66699H3.33334C2.6703 1.66699 2.03442 1.93038 1.56558 2.39923C1.09674 2.86807 0.833344 3.50395 0.833344 4.16699V9.16699C0.833344 11.5981 1.79911 13.9297 3.5182 15.6488C4.3694 16.5 5.37993 17.1752 6.49208 17.6359C7.60423 18.0966 8.79623 18.3337 10 18.3337C12.4312 18.3337 14.7627 17.3679 16.4818 15.6488C18.2009 13.9297 19.1667 11.5981 19.1667 9.16699V4.16699C19.1667 3.50395 18.9033 2.86807 18.4344 2.39923C17.9656 1.93038 17.3297 1.66699 16.6667 1.66699ZM7.25592 7.7444C6.93049 7.41897 6.40285 7.41897 6.07741 7.7444C5.75198 8.06984 5.75198 8.59748 6.07741 8.92292L9.41075 12.2562C9.73618 12.5817 10.2638 12.5817 10.5893 12.2562L13.9226 8.92292C14.248 8.59748 14.248 8.06984 13.9226 7.7444C13.5972 7.41897 13.0695 7.41897 12.7441 7.7444L10 10.4885L7.25592 7.7444Z" fill="#21313F"/>
</svg>
