<svg width="20" height="20" viewBox="0 0 20 20" fill="none" xmlns="http://www.w3.org/2000/svg">
<path fill-rule="evenodd" clip-rule="evenodd" d="M10.5117 1.00855C10.2108 0.774495 9.78939 0.774495 9.48847 1.00855L1.98846 6.84188C1.78548 6.99976 1.66675 7.24252 1.66675 7.49967V16.6663C1.66675 17.3294 1.93014 17.9653 2.39898 18.4341C2.86782 18.9029 3.50371 19.1663 4.16675 19.1663H7.49828C7.49888 19.1663 7.49948 19.1663 7.50008 19.1663C7.50068 19.1663 7.50128 19.1663 7.50188 19.1663H12.4983C12.4989 19.1663 12.4995 19.1663 12.5001 19.1663C12.5007 19.1663 12.5013 19.1663 12.5019 19.1663H15.8334C16.4965 19.1663 17.1323 18.9029 17.6012 18.4341C18.07 17.9653 18.3334 17.3294 18.3334 16.6663V7.49967C18.3334 7.24252 18.2147 6.99976 18.0117 6.84188L10.5117 1.00855ZM13.3334 17.4997H15.8334C16.0544 17.4997 16.2664 17.4119 16.4227 17.2556C16.579 17.0993 16.6667 16.8874 16.6667 16.6663V7.90724L10.0001 2.72206L3.33341 7.90724V16.6663C3.33341 16.8874 3.42121 17.0993 3.57749 17.2556C3.73377 17.4119 3.94573 17.4997 4.16675 17.4997H6.66675V9.99968C6.66675 9.53944 7.03984 9.16634 7.50008 9.16634H12.5001C12.9603 9.16634 13.3334 9.53944 13.3334 9.99968V17.4997ZM8.33342 17.4997H11.6667V10.833H8.33342V17.4997Z" fill="#21313F"/>
</svg>
