<svg width="24" height="24" viewBox="0 0 24 24" fill="none" xmlns="http://www.w3.org/2000/svg">
<path fill-rule="evenodd" clip-rule="evenodd" d="M22 11.2667L20.7 4.98095C20.5 4.14286 19.7 3.51429 18.8 3.51429H16.7L16.5 2.15238C16.4 1.41905 15.8 1 15.2 1H8.8C8.1 1 7.6 1.52381 7.5 2.15238L7.3 3.51429H5.2C4.3 3.51429 3.6 4.14286 3.3 4.98095L2.1 11.2667H2C0.5 11.2667 0 13.5714 0 14.619C0 15.981 1.1 20.4857 2.4 20.4857V22.581C2.4 22.7905 2.6 23 2.8 23H7.6C7.8 23 8 22.7905 8 22.581V20.4857H16V22.581C16 22.7905 16.2 23 16.4 23H21.2C21.4 23 21.6 22.7905 21.6 22.581V20.4857C22.9 20.4857 24 15.981 24 14.619C24 13.5714 23.5 11.2667 22 11.2667ZM20.8 15.8762C20.8 16.819 20.1 17.5524 19.2 17.5524C18.3 17.5524 17.6 16.819 17.6 15.8762C17.6 14.9333 18.3 14.2 19.2 14.2C20.1 14.2 20.8 14.9333 20.8 15.8762ZM4.8 14.2C5.7 14.2 6.4 14.9333 6.4 15.8762C6.4 16.819 5.7 17.5524 4.8 17.5524C3.9 17.5524 3.2 16.819 3.2 15.8762C3.2 14.9333 3.9 14.2 4.8 14.2ZM14.8 17.1333H9.2C9 17.1333 8.8 16.9238 8.8 16.7143C8.8 16.5048 9 16.2952 9.2 16.2952H14.8C15 16.2952 15.2 16.5048 15.2 16.7143C15.2 16.9238 15 17.1333 14.8 17.1333ZM14.8 15.4571H9.2C9 15.4571 8.8 15.2476 8.8 15.0381C8.8 14.8286 9 14.619 9.2 14.619H14.8C15 14.619 15.2 14.8286 15.2 15.0381C15.2 15.2476 15 15.4571 14.8 15.4571ZM4 12.1048C3.9 12.1048 3.8 12 3.7 11.8952C3.6 11.7905 3.6 11.6857 3.6 11.581L3.7 11.2667L4.7 5.92381C4.8 5.50476 5.2 5.19048 5.7 5.19048H18.4C18.9 5.19048 19.2 5.50476 19.4 5.92381L20.4 11.2667L20.5 11.581C20.5 11.6857 20.5 11.7905 20.4 11.8952C20.3 12 20.2 12.1048 20.1 12.1048H4Z" fill="#F2C94C"/>
</svg>
