<svg width="14" height="14" viewBox="0 0 14 14" fill="none" xmlns="http://www.w3.org/2000/svg">
<path fill-rule="evenodd" clip-rule="evenodd" d="M10.5 1.75016C9.85563 1.75016 9.33329 2.2725 9.33329 2.91683C9.33329 3.11941 9.38493 3.30994 9.47575 3.47596C9.4817 3.48497 9.48744 3.49421 9.49295 3.50365C9.49842 3.51302 9.5036 3.52249 9.50849 3.53203C9.71435 3.8631 10.0814 4.0835 10.5 4.0835C11.1443 4.0835 11.6666 3.56116 11.6666 2.91683C11.6666 2.2725 11.1443 1.75016 10.5 1.75016ZM8.84217 4.55883C9.26502 4.98573 9.85161 5.25016 10.5 5.25016C11.7886 5.25016 12.8333 4.20549 12.8333 2.91683C12.8333 1.62816 11.7886 0.583496 10.5 0.583496C9.21129 0.583496 8.16663 1.62816 8.16663 2.91683C8.16663 3.13676 8.19705 3.34958 8.25393 3.55131L5.15776 5.35817C4.7349 4.93127 4.14831 4.66683 3.49996 4.66683C2.21129 4.66683 1.16663 5.7115 1.16663 7.00016C1.16663 8.28883 2.21129 9.3335 3.49996 9.3335C4.14843 9.3335 4.73512 9.06896 5.158 8.64192L8.25466 10.4464C8.19731 10.6489 8.16663 10.8626 8.16663 11.0835C8.16663 12.3722 9.21129 13.4168 10.5 13.4168C11.7886 13.4168 12.8333 12.3722 12.8333 11.0835C12.8333 9.79483 11.7886 8.75016 10.5 8.75016C9.85258 8.75016 9.26678 9.01381 8.84406 9.43958L5.74608 7.63432C5.8029 7.43268 5.83329 7.21997 5.83329 7.00016C5.83329 6.78024 5.80287 6.56742 5.74599 6.36569L8.84217 4.55883ZM4.49147 6.38503C4.49635 6.39455 4.50152 6.40399 4.50698 6.41335C4.51248 6.42277 4.5182 6.43198 4.52414 6.44098C4.61498 6.60701 4.66663 6.79756 4.66663 7.00016C4.66663 7.20277 4.61498 7.39331 4.52414 7.55935C4.51813 7.56845 4.51235 7.57776 4.50679 7.5873C4.5014 7.59655 4.4963 7.60588 4.49147 7.61529C4.28562 7.9464 3.91853 8.16683 3.49996 8.16683C2.85563 8.16683 2.33329 7.6445 2.33329 7.00016C2.33329 6.35583 2.85563 5.8335 3.49996 5.8335C3.91853 5.8335 4.28561 6.05392 4.49147 6.38503ZM9.33329 11.0835C9.33329 10.8938 9.37855 10.7147 9.45885 10.5564C9.47326 10.5375 9.48668 10.5175 9.49897 10.4964C9.51075 10.4761 9.52118 10.4555 9.53029 10.4345C9.73965 10.1223 10.0958 9.91683 10.5 9.91683C11.1443 9.91683 11.6666 10.4392 11.6666 11.0835C11.6666 11.7278 11.1443 12.2502 10.5 12.2502C9.85563 12.2502 9.33329 11.7278 9.33329 11.0835Z" fill="#7A838C"/>
</svg>
