<svg width="16" height="16" viewBox="0 0 16 16" fill="none" xmlns="http://www.w3.org/2000/svg">
<path d="M13.5001 14C13.4344 14.0001 13.3694 13.9872 13.3087 13.962C13.2481 13.9369 13.193 13.9 13.1467 13.8534L2.14667 2.85342C2.05686 2.75889 2.00753 2.63301 2.0092 2.50263C2.01087 2.37225 2.0634 2.24768 2.1556 2.15548C2.2478 2.06328 2.37237 2.01074 2.50275 2.00907C2.63314 2.0074 2.75901 2.05673 2.85354 2.14654L13.8535 13.1465C13.9234 13.2165 13.971 13.3055 13.9903 13.4025C14.0096 13.4995 13.9997 13.6 13.9618 13.6913C13.924 13.7826 13.86 13.8607 13.7778 13.9156C13.6956 13.9706 13.599 13.9999 13.5001 14Z" fill="#21313F"/>
<path d="M7.98945 12C6.69289 12 5.44257 11.6163 4.2732 10.8594C3.20851 10.1719 2.25007 9.18721 1.50132 8.01565V8.01315C2.12445 7.12033 2.80695 6.36533 3.54007 5.75658C3.54671 5.75104 3.55212 5.74418 3.55596 5.73644C3.55981 5.7287 3.562 5.72024 3.56242 5.71161C3.56283 5.70297 3.56144 5.69435 3.55835 5.68627C3.55526 5.6782 3.55052 5.67086 3.54445 5.66471L2.92195 5.04315C2.91089 5.03199 2.89603 5.02541 2.88034 5.02472C2.86465 5.02402 2.84927 5.02926 2.83726 5.0394C2.05851 5.69565 1.3357 6.50065 0.678511 7.44315C0.565444 7.60543 0.503174 7.79766 0.499612 7.99542C0.496051 8.19317 0.55136 8.38752 0.658511 8.55377C1.48382 9.84533 2.54601 10.9331 3.72976 11.6991C5.06257 12.5625 6.49695 13 7.98945 13C8.79506 12.9975 9.59497 12.8648 10.3582 12.6069C10.3683 12.6035 10.3773 12.5976 10.3844 12.5897C10.3916 12.5818 10.3966 12.5722 10.399 12.5619C10.4014 12.5515 10.4011 12.5407 10.3982 12.5305C10.3953 12.5203 10.3898 12.511 10.3823 12.5035L9.70789 11.8291C9.69236 11.8139 9.67316 11.8031 9.65218 11.7976C9.6312 11.7921 9.60915 11.7922 9.5882 11.7978C9.06593 11.9323 8.52876 12.0003 7.98945 12Z" fill="#21313F"/>
<path d="M15.3388 7.45625C14.512 6.1775 13.4391 5.09125 12.2366 4.31469C10.9063 3.45469 9.43758 3 7.98945 3C7.19238 3.00141 6.40123 3.13695 5.64914 3.40094C5.63912 3.40442 5.63015 3.4104 5.62308 3.41832C5.61601 3.42623 5.61107 3.43581 5.60872 3.44615C5.60638 3.4565 5.60671 3.46728 5.60968 3.47746C5.61265 3.48765 5.61816 3.49691 5.6257 3.50437L6.29914 4.17781C6.31481 4.19322 6.33428 4.20423 6.35557 4.20971C6.37686 4.2152 6.39921 4.21498 6.42039 4.20906C6.93194 4.07068 7.45951 4.00039 7.98945 4C9.26101 4 10.5076 4.38844 11.6941 5.15625C12.7788 5.85625 13.7485 6.84 14.4991 8C14.4997 8.00071 14.5 8.00159 14.5 8.0025C14.5 8.00341 14.4997 8.00429 14.4991 8.005C13.9543 8.86279 13.2781 9.62973 12.4954 10.2778C12.4887 10.2833 12.4832 10.2902 12.4793 10.298C12.4754 10.3057 12.4732 10.3142 12.4727 10.3229C12.4723 10.3315 12.4736 10.3402 12.4767 10.3483C12.4798 10.3564 12.4846 10.3638 12.4907 10.37L13.1126 10.9916C13.1236 11.0027 13.1384 11.0093 13.154 11.01C13.1696 11.0108 13.1849 11.0056 13.1969 10.9956C14.0326 10.292 14.7559 9.46501 15.342 8.54313C15.4455 8.38067 15.5003 8.1919 15.4998 7.99923C15.4992 7.80656 15.4433 7.6181 15.3388 7.45625Z" fill="#21313F"/>
<path d="M8.00002 5C7.7753 4.99988 7.55129 5.02504 7.3322 5.075C7.32114 5.0773 7.3109 5.08255 7.30259 5.09021C7.29427 5.09786 7.28818 5.10763 7.28498 5.11846C7.28177 5.1293 7.28156 5.14081 7.28438 5.15175C7.28719 5.1627 7.29292 5.17268 7.30095 5.18063L10.8194 8.69812C10.8273 8.70615 10.8373 8.71188 10.8483 8.7147C10.8592 8.71751 10.8707 8.7173 10.8816 8.71409C10.8924 8.71089 10.9022 8.7048 10.9098 8.69649C10.9175 8.68817 10.9227 8.67793 10.925 8.66687C11.0252 8.22751 11.0251 7.77122 10.9247 7.3319C10.8244 6.89258 10.6263 6.48152 10.3453 6.12923C10.0643 5.77694 9.70756 5.49249 9.30153 5.297C8.89551 5.1015 8.45065 4.99999 8.00002 5Z" fill="#21313F"/>
<path d="M5.18046 7.30187C5.17252 7.29383 5.16254 7.28811 5.15159 7.28529C5.14064 7.28248 5.12914 7.28269 5.1183 7.28589C5.10746 7.2891 5.0977 7.29518 5.09005 7.3035C5.08239 7.31182 5.07714 7.32205 5.07484 7.33312C4.96151 7.82823 4.97574 8.344 5.1162 8.83211C5.25665 9.32022 5.51874 9.76467 5.87789 10.1238C6.23704 10.483 6.68149 10.7451 7.1696 10.8855C7.65771 11.026 8.17349 11.0402 8.6686 10.9269C8.67966 10.9246 8.6899 10.9193 8.69821 10.9117C8.70653 10.904 8.71261 10.8942 8.71582 10.8834C8.71903 10.8726 8.71924 10.8611 8.71642 10.8501C8.71361 10.8392 8.70788 10.8292 8.69985 10.8212L5.18046 7.30187Z" fill="#21313F"/>
</svg>
