<svg width="40" height="40" viewBox="0 0 40 40" fill="none" xmlns="http://www.w3.org/2000/svg">
<rect width="40" height="40" rx="12" fill="#BB6BD9"/>
<g clip-path="url(#clip0)">
<path d="M13.9297 31.901C12.5422 31.8869 11.5438 30.7291 12.411 28.5869C12.6313 28.0432 12.0172 27.2463 11.7829 26.0322L11.586 25.9385L10.4469 30.8463C10.3485 31.3572 10.7422 31.901 11.2532 31.901C11.5719 31.901 11.9563 31.901 12.3829 31.901H13.9297Z" fill="white"/>
<path d="M16.325 14.1685C18.0206 14.1685 19.3953 12.7938 19.3953 11.0981C19.3953 9.40246 18.0206 8.02783 16.325 8.02783C14.6293 8.02783 13.2546 9.40246 13.2546 11.0981C13.2546 12.7938 14.6293 14.1685 16.325 14.1685Z" fill="white"/>
<path d="M13.8453 21.626L14.1641 19.0057C14.1641 19.0057 13.0766 15.9307 12.8422 15.2744C11.7031 15.6166 11.1734 16.5869 10.7703 17.3322C10.3484 18.1057 8.54376 20.9369 8.26251 21.3635C7.72813 22.1697 8.05157 23.1635 8.83438 23.5432L11.6938 24.9307C11.7266 24.2041 11.9656 23.5713 12.4109 23.0322C12.4156 23.0229 12.6922 22.6947 13.1328 22.3338C13.1328 22.3338 11.7688 21.6541 11.6563 21.5979C12.2516 20.6275 12.7344 19.8307 13.325 18.865L12.6922 21.0635L13.8453 21.626Z" fill="white"/>
<path d="M14.0234 15.1484C14.4828 16.4469 14.7922 17.3234 15.3078 18.7766C16.0812 18.7766 16.6062 18.7766 17.3 18.7766C17.6141 17.8859 18.3078 15.9359 18.5844 15.1484C16.7141 15.1484 15.95 15.1484 14.0234 15.1484Z" fill="white"/>
<path d="M16.7469 29.051C16.25 27.1947 17.1172 25.2447 16.4047 23.1775C16.1609 22.465 15.7484 22.2119 15.2984 22.2119C14.4312 22.2119 13.4047 23.1354 13.0531 23.5619C11.5391 25.3854 13.7891 27.4057 13.1844 28.8963C12.5797 30.3869 13.1 31.0666 13.9484 31.076C14.9187 31.0854 15.6219 31.3291 16.25 31.3291C16.5875 31.3291 16.9016 31.2588 17.225 31.0479C18.1531 30.4432 17.2391 30.9072 16.7469 29.051Z" fill="white"/>
<path d="M19.5407 31.9015C19.9672 31.9015 21.0829 31.8265 21.4016 31.8265C21.9172 31.8265 22.3063 31.3531 22.2079 30.8468C20.6938 22.9718 20.0797 20.6 20.0797 20.6C20.0797 20.6 20.8907 22.564 21.2844 23.6609C21.5704 24.4578 22.461 24.8468 23.2391 24.5328L24.7719 23.9984L24.1578 26.089C24.0547 26.4875 24.2891 26.8906 24.6875 26.9984C25.086 27.1015 25.4891 26.8671 25.5969 26.4687L26.5016 23.2953L27.5375 22.8734C28.2969 22.564 28.6578 21.7015 28.3485 20.9421C28.1657 20.4968 27.7907 20.1875 27.3547 20.0703L27.425 19.8125L31.9203 13.9203C32.1219 13.6203 31.9672 13.2078 31.6203 13.1187L30.4344 12.8046L28.5735 15.9312L29.4547 12.5468L25.4469 11.4875C25.1 11.3937 24.7625 11.675 24.786 12.0312L25.9344 19.5875L25.7188 20.4078L23.525 21.214C23.0704 20.0656 22.6157 19.0203 22.3204 18.1625C21.7672 16.5546 20.9141 15.5796 19.775 15.2656C19.1282 17.0937 18.4766 18.9218 18.4766 18.9218C18.4766 18.9218 18.8704 21.2656 19.9813 27.9968C20.0563 28.4421 19.7141 28.85 19.2641 28.85C18.9172 28.85 18.4907 28.85 18.0219 28.85C18.2188 29.4359 18.3829 29.4593 18.4344 29.9468C18.5704 31.2546 17.7219 31.8078 16.7141 31.9765L19.5407 31.9015Z" fill="white"/>
</g>
<defs>
<clipPath id="clip0">
<rect width="24" height="24" fill="white" transform="translate(8 8)"/>
</clipPath>
</defs>
</svg>
