<svg width="12" height="14" viewBox="0 0 12 14" fill="none" xmlns="http://www.w3.org/2000/svg">
<mask id="mask0" mask-type="alpha" maskUnits="userSpaceOnUse" x="0" y="0" width="12" height="14">
<path fill-rule="evenodd" clip-rule="evenodd" d="M0 0H11.4032V14H0V0Z" fill="white"/>
</mask>
<g mask="url(#mask0)">
<path fill-rule="evenodd" clip-rule="evenodd" d="M4.09274 8.43951H4.60082C4.85022 8.43951 5.05243 8.64175 5.05243 8.89115C5.05243 9.14052 4.85022 9.34273 4.60082 9.34273H4.09274C3.84334 9.34273 3.64113 9.14052 3.64113 8.89115C3.64113 8.64175 3.84334 8.43951 4.09274 8.43951ZM4.09274 6.74598H4.60082C4.85022 6.74598 5.05243 6.94818 5.05243 7.19759C5.05243 7.44699 4.85022 7.6492 4.60082 7.6492H4.09274C3.84334 7.6492 3.64113 7.44699 3.64113 7.19759C3.64113 6.94818 3.84334 6.74598 4.09274 6.74598ZM4.09274 5.05241H4.60082C4.85022 5.05241 5.05243 5.25462 5.05243 5.50405C5.05243 5.75345 4.85022 5.95566 4.60082 5.95566H4.09274C3.84334 5.95566 3.64113 5.75345 3.64113 5.50405C3.64113 5.25462 3.84334 5.05241 4.09274 5.05241ZM4.09274 3.35888H4.60082C4.85022 3.35888 5.05243 3.56109 5.05243 3.81049C5.05243 4.05989 4.85022 4.2621 4.60082 4.2621H4.09274C3.84334 4.2621 3.64113 4.05989 3.64113 3.81049C3.64113 3.56109 3.84334 3.35888 4.09274 3.35888ZM6.77418 8.43951H7.28225C7.53168 8.43951 7.73386 8.64175 7.73386 8.89115C7.73386 9.14052 7.53168 9.34273 7.28225 9.34273H6.77418C6.52475 9.34273 6.32257 9.14052 6.32257 8.89115C6.32257 8.64175 6.52475 8.43951 6.77418 8.43951ZM6.77418 6.74598H7.28225C7.53168 6.74598 7.73386 6.94818 7.73386 7.19759C7.73386 7.44699 7.53168 7.6492 7.28225 7.6492H6.77418C6.52475 7.6492 6.32257 7.44699 6.32257 7.19759C6.32257 6.94818 6.52475 6.74598 6.77418 6.74598ZM6.77418 5.05241H7.28225C7.53168 5.05241 7.73386 5.25462 7.73386 5.50405C7.73386 5.75345 7.53168 5.95566 7.28225 5.95566H6.77418C6.52475 5.95566 6.32257 5.75345 6.32257 5.50405C6.32257 5.25462 6.52475 5.05241 6.77418 5.05241ZM6.77418 3.35888H7.28225C7.53168 3.35888 7.73386 3.56109 7.73386 3.81049C7.73386 4.05989 7.53168 4.2621 7.28225 4.2621H6.77418C6.52475 4.2621 6.32257 4.05989 6.32257 3.81049C6.32257 3.56109 6.52475 3.35888 6.77418 3.35888ZM10.9389 13.0968H10.0484V2.03227C10.0484 1.78284 9.84622 1.58066 9.59679 1.58066H6.20967V0.451609C6.20967 0.20218 6.00749 0 5.75806 0H2.62501C2.37558 0 2.1734 0.20218 2.1734 0.451609V1.58066H1.80645C1.55702 1.58066 1.35484 1.78284 1.35484 2.03227V13.0968H0.464282C0.221032 13.0968 0.0118251 13.2838 0.000504803 13.5268C-0.0115811 13.7861 0.194919 14 0.451622 14H2.92899H3.66935H5.02418H6.37904H7.73386H8.30119H10.9516C11.2083 14 11.4148 13.7861 11.4027 13.5268C11.3914 13.2838 11.1822 13.0968 10.9389 13.0968Z" fill="white"/>
</g>
</svg>
