<svg width="14" height="14" viewBox="0 0 14 14" fill="none" xmlns="http://www.w3.org/2000/svg">
<path d="M10.2594 9.15685C10.1374 9.03449 9.99256 8.9374 9.83302 8.87116C9.67349 8.80491 9.50244 8.77081 9.3297 8.77081C9.15695 8.77081 8.98591 8.80491 8.82637 8.87116C8.66684 8.9374 8.52195 9.03449 8.40001 9.15685L7.76564 9.79122C7.05137 9.33791 6.38962 8.80674 5.79251 8.20747C5.19324 7.61036 4.66207 6.94861 4.20876 6.23435L4.84313 5.59997C4.96549 5.47804 5.06258 5.33315 5.12883 5.17361C5.19507 5.01407 5.22917 4.84303 5.22917 4.67028C5.22917 4.49754 5.19507 4.3265 5.12883 4.16696C5.06258 4.00742 4.96549 3.86253 4.84313 3.7406L3.60501 2.50685C3.4848 2.38408 3.34113 2.28674 3.18255 2.2206C3.02396 2.15446 2.8537 2.12088 2.68189 2.12185C2.50885 2.12142 2.33743 2.15522 2.1775 2.22129C2.01757 2.28737 1.87229 2.38441 1.75001 2.50685L1.15501 3.09747C0.87141 3.4024 0.659748 3.767 0.535582 4.16448C0.411417 4.56196 0.377905 4.98221 0.43751 5.39435C0.57751 7.03497 1.65376 9.0081 3.31189 10.6706C4.97001 12.3331 6.96501 13.405 8.60563 13.5625C8.72805 13.569 8.85072 13.569 8.97313 13.5625C9.3263 13.5773 9.67886 13.5215 10.0102 13.3983C10.3415 13.2751 10.6448 13.087 10.9025 12.845L11.4931 12.25C11.6156 12.1277 11.7126 11.9824 11.7787 11.8225C11.8448 11.6626 11.8786 11.4911 11.8781 11.3181C11.8791 11.1463 11.8455 10.976 11.7794 10.8174C11.7132 10.6589 11.6159 10.5152 11.4931 10.395L10.2594 9.15685Z" fill="url(#paint0_linear)"/>
<path d="M11.6375 2.35814C11.0295 1.74781 10.3067 1.26388 9.51074 0.934243C8.71481 0.604605 7.86149 0.435784 7 0.437513C6.88397 0.437513 6.77269 0.483607 6.69064 0.565654C6.60859 0.647701 6.5625 0.758981 6.5625 0.875013C6.5625 0.991045 6.60859 1.10233 6.69064 1.18437C6.77269 1.26642 6.88397 1.31251 7 1.31251C7.75096 1.31249 8.49449 1.46118 9.18769 1.75001C9.88088 2.03883 10.51 2.46208 11.0388 2.99532C11.5675 3.52856 11.9855 4.16124 12.2685 4.85684C12.5514 5.55245 12.6939 6.29721 12.6875 7.04814C12.6875 7.16417 12.7336 7.27545 12.8156 7.3575C12.8977 7.43954 13.009 7.48564 13.125 7.48564C13.241 7.48564 13.3523 7.43954 13.4344 7.3575C13.5164 7.27545 13.5625 7.16417 13.5625 7.04814C13.5709 6.17748 13.4049 5.31396 13.0743 4.50848C12.7437 3.70299 12.2551 2.97185 11.6375 2.35814Z" fill="url(#paint1_linear)"/>
<path d="M9.1481 4.86064C9.39639 5.10743 9.59281 5.40139 9.7258 5.72522C9.85878 6.04905 9.92565 6.39621 9.92247 6.74626C9.92247 6.8623 9.96857 6.97358 10.0506 7.05562C10.1327 7.13767 10.2439 7.18376 10.36 7.18376C10.476 7.18376 10.5873 7.13767 10.6693 7.05562C10.7514 6.97358 10.7975 6.8623 10.7975 6.74626C10.8033 6.28297 10.717 5.82314 10.5437 5.39343C10.3704 4.96373 10.1135 4.57271 9.78794 4.24306C9.46236 3.91341 9.07457 3.65168 8.64705 3.47306C8.21954 3.29444 7.76081 3.20248 7.29748 3.20251C7.18145 3.20251 7.07017 3.24861 6.98813 3.33066C6.90608 3.4127 6.85999 3.52398 6.85999 3.64001C6.85999 3.75605 6.90608 3.86733 6.98813 3.94937C7.07017 4.03142 7.18145 4.07751 7.29748 4.07751C7.64227 4.08011 7.98316 4.15061 8.3007 4.28498C8.61823 4.41935 8.90618 4.61496 9.1481 4.86064Z" fill="url(#paint2_linear)"/>
<defs>
<linearGradient id="paint0_linear" x1="6.14348" y1="2.12183" x2="6.14348" y2="13.5674" gradientUnits="userSpaceOnUse">
<stop stop-color="#EA7A6E"/>
<stop offset="1" stop-color="#E23A28"/>
</linearGradient>
<linearGradient id="paint1_linear" x1="10.0627" y1="0.4375" x2="10.0627" y2="7.48564" gradientUnits="userSpaceOnUse">
<stop stop-color="#EA7A6E"/>
<stop offset="1" stop-color="#E23A28"/>
</linearGradient>
<linearGradient id="paint2_linear" x1="8.82886" y1="3.20251" x2="8.82886" y2="7.18376" gradientUnits="userSpaceOnUse">
<stop stop-color="#EA7A6E"/>
<stop offset="1" stop-color="#E23A28"/>
</linearGradient>
</defs>
</svg>
