<svg width="40" height="40" viewBox="0 0 40 40" fill="none" xmlns="http://www.w3.org/2000/svg">
<rect width="40" height="40" rx="12" fill="#51D2B5"/>
<path fill-rule="evenodd" clip-rule="evenodd" d="M29.7567 12.1216C29.735 12.3265 29.6323 12.53 29.4676 12.6953L28.0402 14.4507C27.9427 14.5416 27.8196 14.5614 27.732 14.5614C27.6042 14.5614 27.4632 14.5192 27.3361 14.4441L27.1385 14.3262L23.4729 18.0695L21.9988 16.7943L25.8422 13.0299L25.7249 12.8323C25.5721 12.5748 25.5702 12.2883 25.7184 12.1289L27.4514 10.7219L27.4737 10.7015C27.6602 10.5151 27.8973 10.4077 28.1232 10.4077C28.2293 10.4077 28.3794 10.4321 28.496 10.5493L29.6191 11.6724C29.7271 11.7804 29.7758 11.9398 29.7567 12.1216Z" fill="white"/>
<path fill-rule="evenodd" clip-rule="evenodd" d="M19.588 25.0944C19.5313 25.1642 19.4714 25.2327 19.4068 25.2979L14.493 30.2111C13.4681 31.236 11.8069 31.236 10.782 30.2111L9.95801 29.387C8.9331 28.3621 8.9331 26.7009 9.95801 25.676L14.7987 20.8347C15.1287 20.807 15.4593 20.7642 15.7854 20.7017L19.588 25.0944Z" fill="white"/>
<path fill-rule="evenodd" clip-rule="evenodd" d="M29.2489 29.1867C28.7351 29.7005 27.9098 29.9844 27.1484 29.9844C26.5766 29.9844 26.0411 29.8243 25.6986 29.4818L16.3987 18.736C15.6926 18.9732 14.8811 19.1174 14.0696 19.1174C12.8233 19.1174 11.5778 18.7775 10.7142 17.914C9.27634 16.4768 8.61041 14.6581 9.23418 12.858L12.079 15.2378L14.97 14.9078L15.1452 12.1723L12.7654 9.32741C13.2732 9.15155 13.7949 9.06592 14.3146 9.06592C15.6359 9.06592 16.9441 9.61987 17.9762 10.652C19.4023 12.0781 19.4002 14.5455 18.7976 16.3371L21.3566 18.5516L22.2465 19.3216L29.5439 25.6364C30.343 26.436 30.1474 28.2883 29.2489 29.1867Z" fill="white"/>
</svg>
