<svg width="375" height="299" viewBox="0 0 375 299" fill="none" xmlns="http://www.w3.org/2000/svg">
<g clip-path="url(#clip0)">
<path opacity="0.8" d="M172.224 43.2156C167.932 40.877 165.988 42.8213 164.429 40.877C162.87 38.9237 168.72 33.8614 157.019 28.7901C157.019 28.7901 156.239 17.8679 140.255 17.4826C124.27 17.0884 128.553 28.4048 124.27 31.1286C119.978 33.8614 118.814 29.5696 114.522 32.3024C110.23 35.0351 112.183 40.4917 108.671 41.2713C105.159 42.0508 100.482 37.759 96.1897 40.4917C91.8979 43.2245 91.8979 45.5631 89.9536 45.5631C88.0003 45.5631 84.1027 44.004 81.7642 45.5631C79.4256 47.1221 76.6929 49.0754 76.6929 49.0754H175.351C175.342 49.0664 176.516 45.5541 172.224 43.2156Z" fill="white"/>
<path opacity="0.8" d="M322.235 71.1868C319.87 69.8965 318.786 70.9717 317.925 69.8965C317.065 68.8213 320.291 66.0169 313.831 63.2214C313.831 63.2214 313.401 57.1913 304.566 56.9763C295.732 56.7612 298.106 63.0063 295.732 64.5116C293.366 66.0169 292.712 63.6514 290.347 65.1567C287.981 66.662 289.056 69.6815 287.112 70.1116C285.177 70.5416 282.587 68.1762 280.222 69.6815C277.857 71.1868 277.857 72.477 276.772 72.477C275.697 72.477 273.538 71.6168 272.248 72.477C270.957 73.3371 269.452 74.4123 269.452 74.4123H323.938C323.955 74.4123 324.601 72.477 322.235 71.1868Z" fill="white"/>
<path opacity="0.8" d="M66.6795 120.18C64.3141 118.889 63.2299 119.965 62.3698 118.889C61.5096 117.814 64.7352 115.01 58.2751 112.214C58.2751 112.214 57.845 106.184 49.0105 105.969C40.176 105.754 42.5504 111.999 40.176 113.505C37.8106 115.01 37.1565 112.644 34.7911 114.15C32.4256 115.655 33.5008 118.674 31.5565 119.105C29.6212 119.535 27.0318 117.169 24.6663 118.674C22.3009 120.18 22.3009 121.47 21.2168 121.47C20.1416 121.47 17.9822 120.61 16.692 121.47C15.4018 122.33 13.8965 123.405 13.8965 123.405H68.3819C68.4088 123.405 69.0539 121.47 66.6795 120.18Z" fill="white"/>
<path d="M187.54 198.938L186.097 49.7277L215.54 49.441L214.67 203.848L187.54 198.938Z" fill="white" stroke="#263238" stroke-width="0.895994" stroke-miterlimit="10" stroke-linecap="round" stroke-linejoin="round"/>
<path d="M189.646 52.8278L189.888 113.755" stroke="#263238" stroke-width="0.671996" stroke-miterlimit="10" stroke-linecap="round" stroke-linejoin="round"/>
<path d="M193.964 53.0607V127.186" stroke="#263238" stroke-width="0.671996" stroke-miterlimit="10" stroke-linecap="round" stroke-linejoin="round"/>
<path d="M198.767 52.8278L199.241 128.145" stroke="#263238" stroke-width="0.671996" stroke-miterlimit="10" stroke-linecap="round" stroke-linejoin="round"/>
<path d="M204.761 53.5446V127.186" stroke="#263238" stroke-width="0.671996" stroke-miterlimit="10" stroke-linecap="round" stroke-linejoin="round"/>
<path d="M210.281 53.7865V182.129" stroke="#263238" stroke-width="0.671996" stroke-miterlimit="10" stroke-linecap="round" stroke-linejoin="round"/>
<path d="M187.486 59.5388L213.398 59.7807" stroke="#263238" stroke-width="0.671996" stroke-miterlimit="10" stroke-linecap="round" stroke-linejoin="round"/>
<path d="M187.729 69.1349L213.157 69.8517" stroke="#263238" stroke-width="0.671996" stroke-miterlimit="10" stroke-linecap="round" stroke-linejoin="round"/>
<path d="M188.203 78.9729L212.673 80.1735" stroke="#263238" stroke-width="0.671996" stroke-miterlimit="10" stroke-linecap="round" stroke-linejoin="round"/>
<path d="M187.97 88.8109L213.157 90.4864" stroke="#263238" stroke-width="0.671996" stroke-miterlimit="10" stroke-linecap="round" stroke-linejoin="round"/>
<path d="M188.203 98.407L212.44 101.041" stroke="#263238" stroke-width="0.671996" stroke-miterlimit="10" stroke-linecap="round" stroke-linejoin="round"/>
<path d="M215.54 49.441L238.334 49.7277L236.604 188.544L214.67 203.848L215.54 49.441Z" fill="#263238" stroke="#263238" stroke-width="0.895994" stroke-miterlimit="10" stroke-linecap="round" stroke-linejoin="round"/>
<path d="M235.996 53.0607V127.186" stroke="white" stroke-width="0.671996" stroke-miterlimit="10" stroke-linecap="round" stroke-linejoin="round"/>
<path d="M231.193 52.8278L231.247 137.669" stroke="white" stroke-width="0.671996" stroke-miterlimit="10" stroke-linecap="round" stroke-linejoin="round"/>
<path d="M225.199 53.5446L225.324 140.779" stroke="white" stroke-width="0.671996" stroke-miterlimit="10" stroke-linecap="round" stroke-linejoin="round"/>
<path d="M219.679 53.7865V182.129" stroke="white" stroke-width="0.671996" stroke-miterlimit="10" stroke-linecap="round" stroke-linejoin="round"/>
<path d="M237.742 59.485L216.561 59.7807" stroke="white" stroke-width="0.671996" stroke-miterlimit="10" stroke-linecap="round" stroke-linejoin="round"/>
<path d="M237.743 69.6456L216.803 69.8516" stroke="white" stroke-width="0.671996" stroke-miterlimit="10" stroke-linecap="round" stroke-linejoin="round"/>
<path d="M238.307 78.955L217.278 80.1735" stroke="white" stroke-width="0.671996" stroke-miterlimit="10" stroke-linecap="round" stroke-linejoin="round"/>
<path d="M237.456 89.4023L216.803 90.4865" stroke="white" stroke-width="0.671996" stroke-miterlimit="10" stroke-linecap="round" stroke-linejoin="round"/>
<path d="M237.456 98.9984L217.52 101.041" stroke="white" stroke-width="0.671996" stroke-miterlimit="10" stroke-linecap="round" stroke-linejoin="round"/>
<path d="M236.891 108.881L216.956 110.924" stroke="white" stroke-width="0.671996" stroke-miterlimit="10" stroke-linecap="round" stroke-linejoin="round"/>
<path d="M236.891 117.626L216.391 120.798" stroke="white" stroke-width="0.671996" stroke-miterlimit="10" stroke-linecap="round" stroke-linejoin="round"/>
<path d="M235.995 127.186L215.827 130.681" stroke="white" stroke-width="0.671996" stroke-miterlimit="10" stroke-linecap="round" stroke-linejoin="round"/>
<path d="M214.052 0.447983H212.054V31.9153H214.052V0.447983Z" fill="white" stroke="#263238" stroke-width="0.895994" stroke-miterlimit="10" stroke-linecap="round" stroke-linejoin="round"/>
<path d="M200.353 37.4257L200.254 29.8904L224.948 30.2846L225.145 37.9274L200.353 37.4257Z" fill="white" stroke="#263238" stroke-width="0.895994" stroke-miterlimit="10" stroke-linecap="round" stroke-linejoin="round"/>
<path d="M213.846 37.6228V30.2846H224.948L225.145 37.9274L213.846 37.6228Z" fill="#263238" stroke="#263238" stroke-width="0.895994" stroke-miterlimit="10" stroke-linecap="round" stroke-linejoin="round"/>
<path d="M186.097 49.7277L192.163 42.8017L215.54 42.5149V49.441L186.097 49.7277Z" fill="white" stroke="#263238" stroke-width="0.895994" stroke-miterlimit="10" stroke-linecap="round" stroke-linejoin="round"/>
<path d="M215.54 42.5149L233.137 43.0884L238.334 49.7277L215.54 49.441V42.5149Z" fill="#263238" stroke="#263238" stroke-width="0.895994" stroke-miterlimit="10" stroke-linecap="round" stroke-linejoin="round"/>
<path d="M192.164 42.8016V37.6048L215.531 37.4256L215.54 42.5149L192.164 42.8016Z" fill="white" stroke="#263238" stroke-width="0.895994" stroke-miterlimit="10" stroke-linecap="round" stroke-linejoin="round"/>
<path d="M215.531 37.4256L233.182 38.026L233.137 43.0883L215.54 42.5149L215.531 37.4256Z" fill="#263238" stroke="#263238" stroke-width="0.895994" stroke-miterlimit="10" stroke-linecap="round" stroke-linejoin="round"/>
<path d="M304.27 180.668L321.805 184.611L323.122 149.963L336.723 143.825L355.575 148.215L354.706 204.349L364.785 206.106L363.907 298.617L314.35 282.856L274.442 271.011L304.27 180.668Z" fill="#263238"/>
<path d="M234.938 101.427L285.571 105.718L302.164 101.14L250.958 97.1347L234.938 101.427Z" fill="white" stroke="#263238" stroke-width="0.895994" stroke-miterlimit="10" stroke-linecap="round" stroke-linejoin="round"/>
<path d="M285.571 105.718L284.146 189.816L300.731 182.093L302.164 101.14L285.571 105.718Z" fill="#263238" stroke="#263238" stroke-width="0.895994" stroke-miterlimit="10" stroke-linecap="round" stroke-linejoin="round"/>
<path d="M234.938 101.427L234.66 179.235L284.146 189.816L285.571 105.718L234.938 101.427Z" fill="white" stroke="#263238" stroke-width="0.895994" stroke-miterlimit="10" stroke-linecap="round" stroke-linejoin="round"/>
<path d="M277.381 125.269L239.669 121.613V105.969L277.381 109.625V125.269Z" fill="#E64037" stroke="#263238" stroke-width="0.895994" stroke-miterlimit="10"/>
<path d="M225.933 144.479L258.538 148.556L278.062 139.972L246.953 136.325L225.933 144.479Z" fill="white" stroke="#263238" stroke-width="0.895994" stroke-miterlimit="10" stroke-linecap="round" stroke-linejoin="round"/>
<path d="M231.99 144.004L257.024 147.131L272.005 140.546L248.127 137.741L231.99 144.004Z" fill="white" stroke="#263238" stroke-width="0.671996" stroke-miterlimit="10" stroke-linecap="round" stroke-linejoin="round"/>
<path d="M225.933 144.479L225.073 210.559L256.827 219.133L258.539 148.556L225.933 144.479Z" fill="white" stroke="#263238" stroke-width="0.895994" stroke-miterlimit="10" stroke-linecap="round" stroke-linejoin="round"/>
<path d="M258.539 148.556L278.062 139.972L276.781 210.344L256.827 219.133L258.539 148.556Z" fill="#263238" stroke="#263238" stroke-width="0.895994" stroke-miterlimit="10" stroke-linecap="round" stroke-linejoin="round"/>
<path d="M148.233 229.518L145.464 147.615L118.342 142.75L120.95 222.538L148.233 229.518Z" fill="white" stroke="#263238" stroke-width="0.895994" stroke-miterlimit="10" stroke-linecap="round" stroke-linejoin="round"/>
<path d="M120.322 171.807L144.783 177.81" stroke="#263238" stroke-width="0.671996" stroke-miterlimit="10" stroke-linecap="round" stroke-linejoin="round"/>
<path d="M121.514 174.692L145.025 180.686" stroke="#263238" stroke-width="0.671996" stroke-miterlimit="10" stroke-linecap="round" stroke-linejoin="round"/>
<path d="M121.756 190.04L145.267 196.035" stroke="#263238" stroke-width="0.671996" stroke-miterlimit="10" stroke-linecap="round" stroke-linejoin="round"/>
<path d="M120.556 187.639L145.025 194.117" stroke="#263238" stroke-width="0.671996" stroke-miterlimit="10" stroke-linecap="round" stroke-linejoin="round"/>
<path d="M145.464 147.615L167.711 141.361L168.76 212.324L148.232 229.518L145.464 147.615Z" fill="#263238" stroke="#263238" stroke-width="0.895994" stroke-miterlimit="10" stroke-linecap="round" stroke-linejoin="round"/>
<path d="M118.342 142.75L149.29 135.447L167.712 141.361L145.464 147.615L118.342 142.75Z" fill="white" stroke="#263238" stroke-width="0.895994" stroke-miterlimit="10" stroke-linecap="round" stroke-linejoin="round"/>
<path d="M120.591 147.275L143.322 151.02L143.636 167.515L121.155 163.259L120.591 147.275Z" fill="#E64037" stroke="#263238" stroke-width="0.895994" stroke-miterlimit="10" stroke-linecap="round" stroke-linejoin="round"/>
<path d="M151.028 113.191L154.442 229.079L183.302 237.071L181.627 117.366L151.028 113.191Z" fill="white" stroke="#263238" stroke-width="0.895994" stroke-miterlimit="10" stroke-linecap="round" stroke-linejoin="round"/>
<path d="M155.186 122.393L157.963 221.185" stroke="#263238" stroke-width="0.671996" stroke-miterlimit="10" stroke-linecap="round" stroke-linejoin="round"/>
<path d="M155.024 116.497L155.105 119.445" stroke="#263238" stroke-width="0.671996" stroke-miterlimit="10" stroke-linecap="round" stroke-linejoin="round"/>
<path d="M159.737 117.653L161.879 221.875" stroke="#263238" stroke-width="0.671996" stroke-miterlimit="10" stroke-linecap="round" stroke-linejoin="round"/>
<path d="M164.531 118.8L166.018 223.255" stroke="#263238" stroke-width="0.671996" stroke-miterlimit="10" stroke-linecap="round" stroke-linejoin="round"/>
<path d="M169.136 119.382L170.624 223.712" stroke="#263238" stroke-width="0.671996" stroke-miterlimit="10" stroke-linecap="round" stroke-linejoin="round"/>
<path d="M174.127 120.914L175.462 225.791" stroke="#263238" stroke-width="0.671996" stroke-miterlimit="10" stroke-linecap="round" stroke-linejoin="round"/>
<path d="M179.171 137.15L180.291 226.015" stroke="#263238" stroke-width="0.671996" stroke-miterlimit="10" stroke-linecap="round" stroke-linejoin="round"/>
<path d="M179.01 121.031L179.127 132.939" stroke="#263238" stroke-width="0.671996" stroke-miterlimit="10" stroke-linecap="round" stroke-linejoin="round"/>
<path d="M209.098 111.112L242.017 184.557V253.934L204.842 238.576L209.098 111.112Z" fill="#263238"/>
<path d="M226.158 156.799V178.607" stroke="white" stroke-width="0.671996" stroke-miterlimit="10" stroke-linecap="round" stroke-linejoin="round"/>
<path d="M181.626 117.366L209.097 111.112V243.8L182.665 237.143L181.626 117.366Z" fill="#263238" stroke="#263238" stroke-width="0.895994" stroke-miterlimit="10" stroke-linecap="round" stroke-linejoin="round"/>
<path d="M203.561 122.957L204.367 232.905" stroke="white" stroke-width="0.671996" stroke-miterlimit="10" stroke-linecap="round" stroke-linejoin="round"/>
<path d="M203.516 116.193L203.534 119.445" stroke="white" stroke-width="0.671996" stroke-miterlimit="10" stroke-linecap="round" stroke-linejoin="round"/>
<path d="M198.722 117.841L199.743 232.215" stroke="white" stroke-width="0.671996" stroke-miterlimit="10" stroke-linecap="round" stroke-linejoin="round"/>
<path d="M194.117 118.898L194.789 232.215" stroke="white" stroke-width="0.671996" stroke-miterlimit="10" stroke-linecap="round" stroke-linejoin="round"/>
<path d="M189.135 120.95L189.995 229.823" stroke="white" stroke-width="0.671996" stroke-miterlimit="10" stroke-linecap="round" stroke-linejoin="round"/>
<path d="M184.243 121.577L185.551 228.622" stroke="white" stroke-width="0.671996" stroke-miterlimit="10" stroke-linecap="round" stroke-linejoin="round"/>
<path d="M151.028 113.191L180.928 107.976L209.098 111.112L181.627 117.366L151.028 113.191Z" fill="white" stroke="#263238" stroke-width="0.895994" stroke-miterlimit="10" stroke-linecap="round" stroke-linejoin="round"/>
<path d="M157.076 113.083L180.748 108.962L203.041 111.435L181.295 116.39L157.076 113.083Z" fill="white" stroke="#263238" stroke-width="0.671996" stroke-miterlimit="10" stroke-linecap="round" stroke-linejoin="round"/>
<path d="M183.525 137.687L208.103 130.421V145.232L183.525 153.331V137.687Z" fill="#E64037" stroke="#263238" stroke-width="0.895994" stroke-miterlimit="10"/>
<path d="M236.219 174.737L208.398 186.913L246.039 194.726L268.206 179.611L236.219 174.737Z" fill="white" stroke="#263238" stroke-width="0.895994" stroke-miterlimit="10" stroke-linecap="round" stroke-linejoin="round"/>
<path d="M236.506 176.126L212.547 186.609L244.964 193.338L264.058 180.319L236.506 176.126Z" fill="white" stroke="#263238" stroke-width="0.671996" stroke-miterlimit="10" stroke-linecap="round" stroke-linejoin="round"/>
<path d="M208.398 186.913L209.097 243.8L245.6 252.841L246.039 194.726L208.398 186.913Z" fill="white" stroke="#263238" stroke-width="0.895994" stroke-miterlimit="10" stroke-linecap="round" stroke-linejoin="round"/>
<path d="M214.222 236.121L213.909 226.606L235.475 232.313V241.829L214.222 236.121Z" fill="#263238"/>
<path d="M211.454 194.95L236.873 200.541L237.222 219.017L212.09 212.87L211.454 194.95Z" fill="#E64037" stroke="#263238" stroke-width="0.895994" stroke-miterlimit="10" stroke-linecap="round" stroke-linejoin="round"/>
<path d="M246.299 162.569L245.601 252.841L283.501 263.27L286.288 169.522L246.299 162.569Z" fill="white" stroke="#263238" stroke-width="0.895994" stroke-miterlimit="10" stroke-linecap="round" stroke-linejoin="round"/>
<path d="M251.254 166.637L250.394 245.323" stroke="#263238" stroke-width="0.671996" stroke-miterlimit="10" stroke-linecap="round" stroke-linejoin="round"/>
<path d="M256.236 167.882L255.788 247.545" stroke="#263238" stroke-width="0.671996" stroke-miterlimit="10" stroke-linecap="round" stroke-linejoin="round"/>
<path d="M262.705 169.621L262.445 250.081" stroke="#263238" stroke-width="0.671996" stroke-miterlimit="10" stroke-linecap="round" stroke-linejoin="round"/>
<path d="M270.168 171.117L269.425 252.303" stroke="#263238" stroke-width="0.671996" stroke-miterlimit="10" stroke-linecap="round" stroke-linejoin="round"/>
<path d="M278.627 172.613L276.405 253.889" stroke="#263238" stroke-width="0.671996" stroke-miterlimit="10" stroke-linecap="round" stroke-linejoin="round"/>
<path d="M286.288 169.522L307.496 157.354L269.246 151.79L246.299 162.569L286.288 169.522Z" fill="white" stroke="#263238" stroke-width="0.895994" stroke-miterlimit="10" stroke-linecap="round" stroke-linejoin="round"/>
<path d="M284.397 167.739L301.331 158.018L270.787 153.573L252.464 162.184L284.397 167.739Z" fill="white" stroke="#263238" stroke-width="0.671996" stroke-miterlimit="10" stroke-linecap="round" stroke-linejoin="round"/>
<path d="M307.496 157.354L304.019 265.949L283.501 263.27L286.288 169.522L307.496 157.354Z" fill="#263238" stroke="#263238" stroke-width="0.895994" stroke-miterlimit="10" stroke-linecap="round" stroke-linejoin="round"/>
<path d="M290.436 171.941L288.196 259.596" stroke="white" stroke-width="0.671996" stroke-miterlimit="10" stroke-linecap="round" stroke-linejoin="round"/>
<path d="M296.045 168.133L294.056 254.525" stroke="white" stroke-width="0.671996" stroke-miterlimit="10" stroke-linecap="round" stroke-linejoin="round"/>
<path d="M302.021 163.904L300.516 252.617" stroke="white" stroke-width="0.671996" stroke-miterlimit="10" stroke-linecap="round" stroke-linejoin="round"/>
<path d="M255.868 185.731V203.615L247.213 202.217L248.002 196.957L238.549 204.726L247.769 212.826L248.046 208.919L262.579 212.27L263.135 189.082L255.868 185.731Z" fill="#E64037" stroke="#263238" stroke-width="0.895994" stroke-miterlimit="10" stroke-linecap="round" stroke-linejoin="round"/>
<path d="M249.74 208.381C249.74 208.973 249.265 209.448 248.674 209.448C248.082 209.448 247.607 208.973 247.607 208.381C247.607 207.79 248.082 207.315 248.674 207.315C249.265 207.315 249.74 207.79 249.74 208.381Z" fill="white" stroke="#263238" stroke-width="0.895994" stroke-miterlimit="10" stroke-linecap="round" stroke-linejoin="round"/>
<path d="M253.037 210.568C253.626 210.568 254.103 210.09 254.103 209.501C254.103 208.913 253.626 208.435 253.037 208.435C252.448 208.435 251.971 208.913 251.971 209.501C251.971 210.09 252.448 210.568 253.037 210.568Z" fill="white" stroke="#263238" stroke-width="0.895994" stroke-miterlimit="10" stroke-linecap="round" stroke-linejoin="round"/>
<path d="M258.458 210.612C258.458 211.204 257.983 211.679 257.391 211.679C256.8 211.679 256.325 211.204 256.325 210.612C256.325 210.021 256.8 209.546 257.391 209.546C257.983 209.546 258.458 210.021 258.458 210.612Z" fill="white" stroke="#263238" stroke-width="0.895994" stroke-miterlimit="10" stroke-linecap="round" stroke-linejoin="round"/>
<path d="M262.821 211.732C262.821 212.324 262.346 212.799 261.755 212.799C261.163 212.799 260.688 212.324 260.688 211.732C260.688 211.141 261.163 210.666 261.755 210.666C262.346 210.666 262.821 211.141 262.821 211.732Z" fill="white" stroke="#263238" stroke-width="0.895994" stroke-miterlimit="10" stroke-linecap="round" stroke-linejoin="round"/>
<path d="M263.332 206.356C263.332 206.948 262.857 207.423 262.265 207.423C261.674 207.423 261.199 206.948 261.199 206.356C261.199 205.765 261.674 205.29 262.265 205.29C262.848 205.29 263.332 205.765 263.332 206.356Z" fill="white" stroke="#263238" stroke-width="0.895994" stroke-miterlimit="10" stroke-linecap="round" stroke-linejoin="round"/>
<path d="M263.529 200.371C263.529 200.963 263.054 201.437 262.463 201.437C261.871 201.437 261.396 200.963 261.396 200.371C261.396 199.78 261.871 199.305 262.463 199.305C263.054 199.305 263.529 199.78 263.529 200.371Z" fill="white" stroke="#263238" stroke-width="0.895994" stroke-miterlimit="10" stroke-linecap="round" stroke-linejoin="round"/>
<path d="M263.834 194.44C263.834 195.031 263.359 195.506 262.767 195.506C262.176 195.506 261.701 195.031 261.701 194.44C261.701 193.848 262.176 193.373 262.767 193.373C263.359 193.373 263.834 193.848 263.834 194.44Z" fill="white" stroke="#263238" stroke-width="0.895994" stroke-miterlimit="10" stroke-linecap="round" stroke-linejoin="round"/>
<path d="M263.735 189.619C263.735 190.211 263.26 190.686 262.669 190.686C262.077 190.686 261.603 190.211 261.603 189.619C261.603 189.028 262.077 188.553 262.669 188.553C263.26 188.553 263.735 189.028 263.735 189.619Z" fill="white" stroke="#263238" stroke-width="0.895994" stroke-miterlimit="10" stroke-linecap="round" stroke-linejoin="round"/>
<path d="M260.689 187.487C260.689 188.078 260.214 188.553 259.622 188.553C259.031 188.553 258.556 188.078 258.556 187.487C258.556 186.895 259.031 186.421 259.622 186.421C260.214 186.43 260.689 186.904 260.689 187.487Z" fill="white" stroke="#263238" stroke-width="0.895994" stroke-miterlimit="10" stroke-linecap="round" stroke-linejoin="round"/>
<path d="M256.128 186.833C256.717 186.833 257.194 186.355 257.194 185.766C257.194 185.178 256.717 184.7 256.128 184.7C255.539 184.7 255.062 185.178 255.062 185.766C255.062 186.355 255.539 186.833 256.128 186.833Z" fill="white" stroke="#263238" stroke-width="0.895994" stroke-miterlimit="10" stroke-linecap="round" stroke-linejoin="round"/>
<path d="M256.89 191.581C256.89 192.173 256.415 192.648 255.824 192.648C255.232 192.648 254.757 192.173 254.757 191.581C254.757 190.99 255.232 190.515 255.824 190.515C256.415 190.515 256.89 190.99 256.89 191.581Z" fill="white" stroke="#263238" stroke-width="0.895994" stroke-miterlimit="10" stroke-linecap="round" stroke-linejoin="round"/>
<path d="M256.594 197.388C256.594 197.979 256.119 198.454 255.528 198.454C254.936 198.454 254.461 197.979 254.461 197.388C254.461 196.796 254.936 196.321 255.528 196.321C256.11 196.33 256.594 196.805 256.594 197.388Z" fill="white" stroke="#263238" stroke-width="0.895994" stroke-miterlimit="10" stroke-linecap="round" stroke-linejoin="round"/>
<path d="M256.289 203.203C256.289 203.794 255.814 204.269 255.223 204.269C254.632 204.269 254.157 203.794 254.157 203.203C254.157 202.611 254.632 202.136 255.223 202.136C255.814 202.136 256.289 202.62 256.289 203.203Z" fill="white" stroke="#263238" stroke-width="0.895994" stroke-miterlimit="10" stroke-linecap="round" stroke-linejoin="round"/>
<path d="M248.781 202.289C248.781 202.88 248.306 203.355 247.715 203.355C247.123 203.355 246.648 202.88 246.648 202.289C246.648 201.697 247.123 201.222 247.715 201.222C248.306 201.231 248.781 201.706 248.781 202.289Z" fill="white" stroke="#263238" stroke-width="0.895994" stroke-miterlimit="10" stroke-linecap="round" stroke-linejoin="round"/>
<path d="M248.987 197.119C248.987 197.71 248.512 198.185 247.921 198.185C247.329 198.185 246.854 197.71 246.854 197.119C246.854 196.527 247.329 196.052 247.921 196.052C248.512 196.052 248.987 196.536 248.987 197.119Z" fill="white" stroke="#263238" stroke-width="0.895994" stroke-miterlimit="10" stroke-linecap="round" stroke-linejoin="round"/>
<path d="M240 204.627C240 205.219 239.525 205.693 238.934 205.693C238.343 205.693 237.868 205.219 237.868 204.627C237.868 204.036 238.343 203.561 238.934 203.561C239.525 203.561 240 204.045 240 204.627Z" fill="white" stroke="#263238" stroke-width="0.895994" stroke-miterlimit="10" stroke-linecap="round" stroke-linejoin="round"/>
<path d="M248.826 213.551C248.826 214.143 248.351 214.617 247.76 214.617C247.168 214.617 246.693 214.143 246.693 213.551C246.693 212.96 247.168 212.485 247.76 212.485C248.351 212.485 248.826 212.969 248.826 213.551Z" fill="white" stroke="#263238" stroke-width="0.895994" stroke-miterlimit="10" stroke-linecap="round" stroke-linejoin="round"/>
<path d="M243.351 208.381C243.351 208.973 242.876 209.448 242.285 209.448C241.694 209.448 241.219 208.973 241.219 208.381C241.219 207.79 241.694 207.315 242.285 207.315C242.876 207.315 243.351 207.79 243.351 208.381Z" fill="white" stroke="#263238" stroke-width="0.895994" stroke-miterlimit="10" stroke-linecap="round" stroke-linejoin="round"/>
<path d="M244.059 201.079C244.059 201.67 243.584 202.145 242.993 202.145C242.402 202.145 241.927 201.67 241.927 201.079C241.927 200.488 242.402 200.013 242.993 200.013C243.584 200.013 244.059 200.488 244.059 201.079Z" fill="white" stroke="#263238" stroke-width="0.895994" stroke-miterlimit="10" stroke-linecap="round" stroke-linejoin="round"/>
<path d="M17.3643 235.046L98.4876 198.794L327.62 263.189L280.285 299.02" fill="white"/>
<path d="M17.3643 235.046L98.4876 198.794L327.62 263.189L280.285 299.02" stroke="#263238" stroke-width="0.895994" stroke-miterlimit="10" stroke-linecap="round" stroke-linejoin="round"/>
<path d="M34.791 239.607L100.494 210.245L286.099 262.41L247.751 291.422" fill="white"/>
<path d="M34.791 239.607L100.494 210.245L286.099 262.41L247.751 291.422" stroke="#263238" stroke-width="0.895994" stroke-miterlimit="10" stroke-linecap="round" stroke-linejoin="round"/>
<path d="M100.495 210.245V218.443L277.615 268.503L286.1 262.41L103.308 211.302" fill="#263238"/>
<path d="M34.791 247.805L100.494 218.443L277.175 268.09" stroke="#263238" stroke-width="0.895994" stroke-miterlimit="10" stroke-linecap="round" stroke-linejoin="round"/>
<path d="M375 298.617L327.62 263.189L280.813 298.617H375Z" fill="#263238"/>
<path d="M95.1635 74.1345C95.1635 74.1345 97.4034 79.5015 96.9554 82.1895C96.5075 84.8775 90.4685 87.1085 89.5725 87.5565C88.6765 88.0045 83.9815 85.9885 83.9815 80.8455C83.9725 75.7025 92.4755 69.8875 95.1635 74.1345Z" fill="white" stroke="#263238" stroke-width="0.895994" stroke-miterlimit="10" stroke-linecap="round" stroke-linejoin="round"/>
<path d="M92.5474 59.5567L105.145 58.0963C107.627 57.8095 109.867 59.6284 110.091 62.1193C110.324 64.6908 108.326 66.9218 105.745 66.9756L94.0974 67.2175L92.5474 59.5567Z" fill="#263238"/>
<path d="M94.0437 56.9046C94.0437 56.9046 96.7317 56.0086 98.5147 56.9046C100.307 57.8006 101.875 59.1446 101.651 60.0405C101.427 60.9365 100.083 60.7125 98.2907 60.9365C96.4987 61.1605 94.5723 62.406 94.196 61.4473C93.8197 60.4885 94.0437 56.9046 94.0437 56.9046Z" fill="white" stroke="#263238" stroke-width="0.895994" stroke-miterlimit="10" stroke-linecap="round" stroke-linejoin="round"/>
<path d="M100.647 60.7753L113.326 60.4617C115.826 60.399 117.886 62.406 117.886 64.9148C117.886 67.4952 115.7 69.5381 113.12 69.3589L101.499 68.5435L100.647 60.7753Z" fill="#263238"/>
<path d="M95.7634 60.7753L102.232 60.9186C102.232 60.9186 103.523 61.7788 103.666 63.6514C103.809 65.524 103.093 68.2479 103.093 68.2479H96.1934C96.1934 68.2479 94.7598 67.2443 94.1775 65.3717C93.604 63.4991 95.7634 60.7753 95.7634 60.7753Z" fill="#263238"/>
<path d="M93.3892 89.9936C93.3892 89.9936 101.534 90.9702 105.7 91.3645C109.866 91.7587 119.283 86.4544 124.579 85.0746C130.869 83.4349 134.157 86.992 135.797 89.1782C137.436 91.3645 148.932 99.303 148.932 99.303L151.118 105.324L141.818 108.335C141.818 108.335 138.261 103.953 132.786 97.1167C127.311 90.2803 124.901 86.8128 120.502 89.5008C116.103 92.1888 109.813 97.1167 104.885 96.0236C99.9568 94.9126 93.3892 89.9936 93.3892 89.9936Z" fill="#263238"/>
<path d="M96.9913 245.296L97.6364 245.511L110.87 249.848C110.87 249.848 112.546 250.807 112.071 252.24C111.596 253.674 97.7081 255.349 92.2066 255.349C86.7052 255.349 83.1123 254.874 83.1123 252.715C83.1123 250.565 96.9913 245.296 96.9913 245.296Z" fill="#E64037" stroke="#263238" stroke-width="0.895994" stroke-miterlimit="10" stroke-linecap="round" stroke-linejoin="round"/>
<path d="M112.08 252.24C112.322 251.523 112.017 250.923 111.668 250.511C108.272 251.497 103.066 252.581 95.6923 253.056C88.829 253.495 85.1733 253.468 83.229 253.298C83.8472 254.955 87.2431 255.349 92.2158 255.349C97.7172 255.349 111.596 253.674 112.08 252.24Z" fill="white" stroke="#263238" stroke-width="0.895994" stroke-miterlimit="10" stroke-linecap="round" stroke-linejoin="round"/>
<path d="M72.8174 237.161C72.8174 237.161 79.7614 234.284 80.9531 236.686C82.1537 239.078 79.2776 242.671 77.6021 243.388C75.9266 244.105 74.7259 244.588 73.7762 245.78C72.8174 246.981 69.9503 249.848 66.8322 249.373C63.7231 248.898 63.7231 244.821 63.9561 244.105C64.198 243.379 72.8174 237.161 72.8174 237.161Z" fill="#E64037" stroke="#263238" stroke-width="0.895994" stroke-miterlimit="10" stroke-linecap="round" stroke-linejoin="round"/>
<path d="M80.3261 236.059C80.12 238.003 79.5645 240.135 78.1398 240.933C75.2727 242.528 73.9914 242.205 71.4468 245.395C68.8932 248.585 64.9239 247.689 64.9239 247.689L64.6372 247.895C65.0852 248.62 65.7841 249.203 66.8414 249.364C69.9505 249.839 72.8266 246.972 73.7853 245.771C74.744 244.57 75.9357 244.096 77.6112 243.379C79.2867 242.662 82.1629 239.069 80.9622 236.677C80.8189 236.399 80.6038 236.202 80.3261 236.059Z" fill="white" stroke="#263238" stroke-width="0.895994" stroke-miterlimit="10" stroke-linecap="round" stroke-linejoin="round"/>
<path d="M67.3159 137.096C67.3159 137.096 65.3984 144.999 66.841 148.583C68.2746 152.176 68.5165 157.919 68.7584 159.836C69.0003 161.754 66.3661 177.792 65.4074 186.17C64.4487 194.547 60.3809 203.883 62.0564 209.869C63.7319 215.854 62.2983 237.636 62.7732 240.987C63.2481 244.338 64.2068 247.214 64.9236 247.689C65.6404 248.163 68.2746 248.405 70.425 247.447C72.5754 246.488 74.0179 239.311 74.4928 237.152C74.9677 235.001 76.8851 209.86 77.6019 206.034C78.3187 202.208 80.478 184.969 80.478 184.969C80.478 184.969 82.3955 199.09 81.9116 202.925C81.4367 206.751 79.7612 214.178 80.478 220.88C81.1948 227.582 82.3955 252.482 82.3955 252.482C82.3955 252.482 84.5458 253.683 85.7465 253.683C86.9471 253.683 96.0414 247.456 97.0002 245.305C97.9589 243.155 97.0002 239.32 97.0002 239.32C97.0002 239.32 98.6757 201.258 100.351 188.329C102.027 175.4 98.2008 140.214 98.2008 140.214C98.2008 140.214 79.2774 144.515 67.3159 137.096Z" fill="#263238"/>
<path d="M80.2359 182.102L77.1268 164.621L71.8584 155.527" stroke="white" stroke-width="0.895994" stroke-miterlimit="10" stroke-linecap="round" stroke-linejoin="round"/>
<path d="M96.0682 55.1036C96.0682 55.1036 97.1971 58.2664 97.1971 59.8524C97.1971 61.4383 96.2922 62.5672 96.5162 63.6962C96.7402 64.8251 98.5501 66.635 96.9642 69.5739C95.3783 72.5128 96.7402 76.8135 94.4733 77.7185C92.2154 78.6234 89.7246 78.6234 89.7246 78.6234L89.0436 83.5962L77.7451 79.9853V73.4267V70.9358C77.7451 70.9358 82.4939 71.1598 84.3038 68.9019C86.1137 66.644 85.6567 61.8863 86.5617 58.7234C87.4667 55.5605 91.0865 53.5177 92.6724 53.5177C94.2583 53.5177 96.0682 55.1036 96.0682 55.1036Z" fill="white" stroke="#263238" stroke-width="0.895994" stroke-miterlimit="10" stroke-linecap="round" stroke-linejoin="round"/>
<path d="M99.3114 51.0089C98.9082 52.6038 97.8509 54.0374 96.0679 55.1036C93.81 56.4566 90.8622 56.0086 90.8622 57.1375C90.8622 58.2665 92.8961 58.0425 92.2151 60.9813C91.5342 63.9202 89.5003 65.7301 89.5003 65.7301C89.5003 65.7301 91.5342 68.221 89.5003 68.669C87.4663 69.117 87.0094 72.0648 84.5275 72.7368C82.0366 73.4177 79.7787 75.2276 77.7448 73.4177C75.7109 71.6078 69.1522 64.1442 68.2473 59.1714C67.3423 54.1987 72.3151 48.9929 72.3151 48.9929C72.3151 48.9929 72.0911 46.0541 73.901 44.9251C75.7109 43.7962 80.5582 43.4109 81.0152 41.601C82.9057 34.0746 95.9693 41.1619 98.2541 45.1402C99.2307 46.8425 99.8042 49.0646 99.3114 51.0089Z" fill="#263238"/>
<path d="M95.2076 49.3513C95.2076 49.3513 95.3689 52.5769 92.4658 54.1897C89.5628 55.8025 83.1117 54.5122 80.8538 57.5765C78.5958 60.6408 80.2086 65.4792 76.8218 66.2856" stroke="white" stroke-width="0.447997" stroke-miterlimit="10" stroke-linecap="round" stroke-linejoin="round"/>
<path d="M90.2079 59.5119C90.2079 59.5119 87.1436 60.4796 85.8534 62.4149C84.5632 64.3503 83.9181 68.8661 80.0474 69.995" stroke="white" stroke-width="0.447997" stroke-miterlimit="10" stroke-linecap="round" stroke-linejoin="round"/>
<path d="M89.7333 69.8068C89.7333 69.8068 87.9234 64.3771 85.4325 65.739C82.9417 67.1009 84.9845 71.1688 86.3375 72.2977C87.6904 73.4267 89.2763 71.8497 89.2763 71.8497" fill="white"/>
<path d="M89.7333 69.8068C89.7333 69.8068 87.9234 64.3771 85.4325 65.739C82.9417 67.1009 84.9845 71.1688 86.3375 72.2977C87.6904 73.4267 89.2763 71.8497 89.2763 71.8497" stroke="#263238" stroke-width="0.895994" stroke-miterlimit="10" stroke-linecap="round" stroke-linejoin="round"/>
<path d="M72.3157 80.8903C72.3157 80.8903 68.1135 83.7037 65.3986 88.4525C62.6837 93.2013 66.205 115.27 67.11 121.147C68.0149 127.025 65.981 136.756 67.558 139.47C69.1439 142.185 74.3406 144.443 79.3224 144.9C84.3041 145.357 91.9917 144.676 94.9306 143.771C97.8694 142.866 99.4553 140.375 99.4553 139.246C99.4553 138.117 99.2313 124.319 99.2313 121.38C99.2313 118.441 99.0073 97.4035 97.1974 93.3357C95.3875 89.2678 91.9917 86.553 89.2769 85.1911C86.571 83.8381 76.3925 78.8564 72.3157 80.8903Z" fill="#E64037" stroke="#263238" stroke-width="0.895994" stroke-miterlimit="10" stroke-linecap="round" stroke-linejoin="round"/>
<path d="M92.3769 107.779C92.3769 107.779 89.9577 109.983 83.1392 110.861" stroke="#263238" stroke-width="0.895994" stroke-miterlimit="10"/>
<path d="M87.5028 117.205C86.8308 117.895 86.105 118.513 85.3345 119.006" stroke="#263238" stroke-width="0.895994" stroke-miterlimit="10"/>
<path d="M93.264 107.779C93.264 107.779 91.7497 111.775 89.1782 115.225" stroke="#263238" stroke-width="0.895994" stroke-miterlimit="10"/>
<path d="M92.1619 132.204C85.5585 141.003 75.6577 142.105 75.6577 142.105C75.6577 142.105 85.3434 142.329 91.7229 135.501" stroke="#263238" stroke-width="0.895994" stroke-miterlimit="10" stroke-linecap="round" stroke-linejoin="round"/>
<path d="M74.3498 77.0465C74.3498 77.0465 80.9085 77.4945 85.2093 79.9853C89.51 82.4762 92.4489 84.9581 94.0348 85.4151C95.6207 85.8631 98.5596 86.096 97.6546 86.32C96.7497 86.544 95.6207 86.768 93.3538 87.449C91.0959 88.1299 87.9241 86.768 83.1754 84.5101C78.4266 82.2522 73.2209 80.8903 72.3159 80.8903C71.4109 80.8903 72.5399 77.0465 74.3498 77.0465Z" fill="#E64037" stroke="#263238" stroke-width="0.895994" stroke-miterlimit="10" stroke-linecap="round" stroke-linejoin="round"/>
<path d="M112.806 99.6703C112.806 99.6703 120.323 104.697 121.425 108.442" stroke="#263238" stroke-width="0.895994" stroke-miterlimit="10" stroke-linecap="round" stroke-linejoin="round"/>
<path d="M112.358 91.5258L104.437 72.9787C104.437 72.9787 102.627 70.9448 101.041 70.0398C99.4555 69.1349 100.593 67.7819 100.593 67.7819C100.593 67.7819 102.851 68.2299 102.851 67.3339C102.851 66.429 102.627 63.4901 102.403 62.8091C102.179 62.1282 101.498 61.6802 101.498 60.9992C101.498 60.3183 103.084 59.4133 104.894 59.8703C106.704 60.3183 106.399 60.0674 106.399 60.0674C108.989 59.494 109.482 60.0495 110.772 62.3612C111.811 64.2248 111.901 66.8859 111.901 68.0149C111.901 69.1438 110.548 72.5396 110.548 72.5396L120.278 91.3107L112.358 91.5258Z" fill="white" stroke="#263238" stroke-width="0.895994" stroke-miterlimit="10" stroke-linecap="round" stroke-linejoin="round"/>
<path d="M113.263 96.7315C113.263 96.7315 110.324 96.7315 110.548 96.0505C110.772 95.3696 109.867 92.8877 109.867 91.7497C109.867 90.6208 111.901 89.2589 114.391 88.8109C116.882 88.3629 119.597 89.2589 120.502 89.4918C121.407 89.7158 121.631 91.5258 122.312 92.6547C122.993 93.7837 123.441 95.1456 122.993 96.0505C122.545 96.9555 121.183 97.4035 121.183 97.4035L113.263 96.7315Z" fill="#E64037" stroke="#263238" stroke-width="0.895994" stroke-miterlimit="10" stroke-linecap="round" stroke-linejoin="round"/>
<path d="M80.6841 93.3356C80.6841 93.3356 82.27 87.9059 85.4329 86.777C88.5957 85.648 92.4485 87.225 96.2923 89.7158C100.136 92.2067 112.805 99.6703 112.805 99.6703L111.453 94.2406C111.453 94.2406 119.597 91.7497 121.631 95.5936C123.665 99.4374 125.027 113.46 125.027 115.27C125.027 117.079 120.278 118.665 117.339 118.432C114.4 118.208 88.3896 105.315 88.3896 105.315" fill="#E64037"/>
<path d="M80.6841 93.3356C80.6841 93.3356 82.27 87.9059 85.4329 86.777C88.5957 85.648 92.4485 87.225 96.2923 89.7158C100.136 92.2067 112.805 99.6703 112.805 99.6703L111.453 94.2406C111.453 94.2406 119.597 91.7497 121.631 95.5936C123.665 99.4374 125.027 113.46 125.027 115.27C125.027 117.079 120.278 118.665 117.339 118.432C114.4 118.208 88.3896 105.315 88.3896 105.315" stroke="#263238" stroke-width="0.895994" stroke-miterlimit="10" stroke-linecap="round" stroke-linejoin="round"/>
<path d="M116.147 101.839C116.147 101.839 119.669 102.717 122.088 105.799" stroke="#263238" stroke-width="0.895994" stroke-miterlimit="10" stroke-linecap="round" stroke-linejoin="round"/>
</g>
<defs>
<clipPath id="clip0">
<rect width="375.744" height="299.468" fill="white" transform="translate(-0.744141)"/>
</clipPath>
</defs>
</svg>
