<svg width="375" height="98" viewBox="0 0 375 98" fill="none" xmlns="http://www.w3.org/2000/svg">
<g opacity="0.3">
<path opacity="0.3" d="M14.4865 45.7556H0V97.941H14.4865V45.7556Z" fill="#C2D4D6"/>
<path opacity="0.3" d="M40.9104 39.2734H7.95605V98H40.9104V39.2734Z" fill="#D2E4E6"/>
<path opacity="0.3" d="M49.4315 34.456V98H77.557V32.3258L49.4315 34.456Z" fill="#D2E4E6"/>
<path opacity="0.3" d="M70.5272 4.48315V98H103.974V13.6264L70.5272 4.48315Z" fill="#F4F8F9"/>
<path opacity="0.3" d="M90.7689 35.308V98H120.596V42.3933L90.7689 35.308Z" fill="#D2E4E6"/>
<path opacity="0.3" d="M141.048 27.2266H120.596V97.9934H141.048V27.2266Z" fill="#D2E4E6"/>
<path opacity="0.3" d="M130.825 8.50094V98H161.079V0L130.825 8.50094Z" fill="#F4F8F9"/>
<path opacity="0.3" d="M195.17 8.50094V98H225.424V0L195.17 8.50094Z" fill="#F4F8F9"/>
<path opacity="0.3" d="M247.584 14.8979V98H277.839V22.8876L247.584 14.8979Z" fill="#F4F8F9"/>
<path opacity="0.3" d="M169.173 14.8979V98H207.101V32.3259L169.173 14.8979Z" fill="#D2E4E6"/>
<path opacity="0.3" d="M264.627 39.2734H232.244V98H264.627V39.2734Z" fill="#D2E4E6"/>
<path opacity="0.3" d="M286.366 20.8493V98H338.353V4.48315L286.366 20.8493Z" fill="#D8E3E7"/>
<path opacity="0.3" d="M367.333 32.3258H344.319V97.9934H367.333V32.3258Z" fill="#D7E2E6"/>
<path opacity="0.3" d="M365.415 26.5187H346.382V32.3259H365.415V26.5187Z" fill="#D7E2E6"/>
<path opacity="0.3" d="M349.857 43.809H318.322V98H349.857V43.809Z" fill="#7390B0"/>
<path opacity="0.3" d="M280.112 39.8371V98H313.198V47.7744L280.112 39.8371Z" fill="#7390B0"/>
<path opacity="0.3" d="M353.694 62.0889V98H373.299V68.8923L353.694 62.0889Z" fill="#7390B0"/>
<path opacity="0.3" d="M375 92.7697H355.823V98H375V92.7697Z" fill="#3B5F93"/>
<g opacity="0.3">
<path opacity="0.3" d="M324.504 59.1133H309.591V98H324.504V59.1133Z" fill="#3B5F93"/>
<g opacity="0.3">
<g opacity="0.3">
<g opacity="0.3">
<path opacity="0.3" d="M314.025 94.1133H312.357V95.7781H314.025V94.1133Z" fill="#5C7CAB"/>
</g>
<g opacity="0.3">
<path opacity="0.3" d="M314.025 91.1376H312.357V92.8024H314.025V91.1376Z" fill="#5C7CAB"/>
</g>
<g opacity="0.3">
<path opacity="0.3" d="M314.025 88.162H312.357V89.8268H314.025V88.162Z" fill="#5C7CAB"/>
</g>
<g opacity="0.3">
<path opacity="0.3" d="M314.025 85.1863H312.357V86.8511H314.025V85.1863Z" fill="#5C7CAB"/>
</g>
<g opacity="0.3">
<path opacity="0.3" d="M314.025 82.2107H312.357V83.8755H314.025V82.2107Z" fill="#5C7CAB"/>
</g>
<g opacity="0.3">
<path opacity="0.3" d="M314.025 79.235H312.357V80.8998H314.025V79.235Z" fill="#5C7CAB"/>
</g>
<g opacity="0.3">
<path opacity="0.3" d="M314.025 76.2593H312.357V77.9241H314.025V76.2593Z" fill="#5C7CAB"/>
</g>
<g opacity="0.3">
<path opacity="0.3" d="M314.025 73.2837H312.357V74.9485H314.025V73.2837Z" fill="#5C7CAB"/>
</g>
<g opacity="0.3">
<path opacity="0.3" d="M314.025 70.308H312.357V71.9728H314.025V70.308Z" fill="#5C7CAB"/>
</g>
<g opacity="0.3">
<path opacity="0.3" d="M314.025 67.3324H312.357V68.9972H314.025V67.3324Z" fill="#5C7CAB"/>
</g>
</g>
<g opacity="0.3">
<g opacity="0.3">
<path opacity="0.3" d="M316.469 94.1133H314.801V95.7781H316.469V94.1133Z" fill="#5C7CAB"/>
</g>
<g opacity="0.3">
<path opacity="0.3" d="M316.469 91.1376H314.801V92.8024H316.469V91.1376Z" fill="#5C7CAB"/>
</g>
<g opacity="0.3">
<path opacity="0.3" d="M316.469 88.162H314.801V89.8268H316.469V88.162Z" fill="#5C7CAB"/>
</g>
<g opacity="0.3">
<path opacity="0.3" d="M316.469 85.1863H314.801V86.8511H316.469V85.1863Z" fill="#5C7CAB"/>
</g>
<g opacity="0.3">
<path opacity="0.3" d="M316.469 82.2107H314.801V83.8755H316.469V82.2107Z" fill="#5C7CAB"/>
</g>
<g opacity="0.3">
<path opacity="0.3" d="M316.469 79.235H314.801V80.8998H316.469V79.235Z" fill="#5C7CAB"/>
</g>
<g opacity="0.3">
<path opacity="0.3" d="M316.469 76.2593H314.801V77.9241H316.469V76.2593Z" fill="#5C7CAB"/>
</g>
<g opacity="0.3">
<path opacity="0.3" d="M316.469 73.2837H314.801V74.9485H316.469V73.2837Z" fill="#5C7CAB"/>
</g>
<g opacity="0.3">
<path opacity="0.3" d="M316.469 70.308H314.801V71.9728H316.469V70.308Z" fill="#5C7CAB"/>
</g>
<g opacity="0.3">
<path opacity="0.3" d="M316.469 67.3324H314.801V68.9972H316.469V67.3324Z" fill="#5C7CAB"/>
</g>
</g>
<g opacity="0.3">
<g opacity="0.3">
<path opacity="0.3" d="M318.913 94.1133H317.245V95.7781H318.913V94.1133Z" fill="#5C7CAB"/>
</g>
<g opacity="0.3">
<path opacity="0.3" d="M318.913 91.1376H317.245V92.8024H318.913V91.1376Z" fill="#5C7CAB"/>
</g>
<g opacity="0.3">
<path opacity="0.3" d="M318.913 88.162H317.245V89.8268H318.913V88.162Z" fill="#5C7CAB"/>
</g>
<g opacity="0.3">
<path opacity="0.3" d="M318.913 85.1863H317.245V86.8511H318.913V85.1863Z" fill="#5C7CAB"/>
</g>
<g opacity="0.3">
<path opacity="0.3" d="M318.913 82.2107H317.245V83.8755H318.913V82.2107Z" fill="#5C7CAB"/>
</g>
<g opacity="0.3">
<path opacity="0.3" d="M318.913 79.235H317.245V80.8998H318.913V79.235Z" fill="#5C7CAB"/>
</g>
<g opacity="0.3">
<path opacity="0.3" d="M318.913 76.2593H317.245V77.9241H318.913V76.2593Z" fill="#5C7CAB"/>
</g>
<g opacity="0.3">
<path opacity="0.3" d="M318.913 73.2837H317.245V74.9485H318.913V73.2837Z" fill="#5C7CAB"/>
</g>
<g opacity="0.3">
<path opacity="0.3" d="M318.913 70.308H317.245V71.9728H318.913V70.308Z" fill="#5C7CAB"/>
</g>
<g opacity="0.3">
<path opacity="0.3" d="M318.913 67.3324H317.245V68.9972H318.913V67.3324Z" fill="#5C7CAB"/>
</g>
</g>
<g opacity="0.3">
<g opacity="0.3">
<path opacity="0.3" d="M321.357 94.1133H319.689V95.7781H321.357V94.1133Z" fill="#5C7CAB"/>
</g>
<g opacity="0.3">
<path opacity="0.3" d="M321.357 91.1376H319.689V92.8024H321.357V91.1376Z" fill="#5C7CAB"/>
</g>
<g opacity="0.3">
<path opacity="0.3" d="M321.357 88.162H319.689V89.8268H321.357V88.162Z" fill="#5C7CAB"/>
</g>
<g opacity="0.3">
<path opacity="0.3" d="M321.357 85.1863H319.689V86.8511H321.357V85.1863Z" fill="#5C7CAB"/>
</g>
<g opacity="0.3">
<path opacity="0.3" d="M321.357 82.2107H319.689V83.8755H321.357V82.2107Z" fill="#5C7CAB"/>
</g>
<g opacity="0.3">
<path opacity="0.3" d="M321.357 79.235H319.689V80.8998H321.357V79.235Z" fill="#5C7CAB"/>
</g>
<g opacity="0.3">
<path opacity="0.3" d="M321.357 76.2593H319.689V77.9241H321.357V76.2593Z" fill="#5C7CAB"/>
</g>
<g opacity="0.3">
<path opacity="0.3" d="M321.357 73.2837H319.689V74.9485H321.357V73.2837Z" fill="#5C7CAB"/>
</g>
<g opacity="0.3">
<path opacity="0.3" d="M321.357 70.308H319.689V71.9728H321.357V70.308Z" fill="#5C7CAB"/>
</g>
<g opacity="0.3">
<path opacity="0.3" d="M321.357 67.3324H319.689V68.9972H321.357V67.3324Z" fill="#5C7CAB"/>
</g>
</g>
</g>
</g>
<g opacity="0.3">
<path opacity="0.3" d="M304.046 59.1133H289.132V98H304.046V59.1133Z" fill="#3B5F93"/>
<g opacity="0.3">
<g opacity="0.3">
<g opacity="0.3">
<path opacity="0.3" d="M293.573 94.1133H291.905V95.7781H293.573V94.1133Z" fill="#5C7CAB"/>
</g>
<g opacity="0.3">
<path opacity="0.3" d="M293.573 91.1376H291.905V92.8024H293.573V91.1376Z" fill="#5C7CAB"/>
</g>
<g opacity="0.3">
<path opacity="0.3" d="M293.573 88.162H291.905V89.8268H293.573V88.162Z" fill="#5C7CAB"/>
</g>
<g opacity="0.3">
<path opacity="0.3" d="M293.573 85.1863H291.905V86.8511H293.573V85.1863Z" fill="#5C7CAB"/>
</g>
<g opacity="0.3">
<path opacity="0.3" d="M293.573 82.2107H291.905V83.8755H293.573V82.2107Z" fill="#5C7CAB"/>
</g>
<g opacity="0.3">
<path opacity="0.3" d="M293.573 79.235H291.905V80.8998H293.573V79.235Z" fill="#5C7CAB"/>
</g>
<g opacity="0.3">
<path opacity="0.3" d="M293.573 76.2593H291.905V77.9241H293.573V76.2593Z" fill="#5C7CAB"/>
</g>
<g opacity="0.3">
<path opacity="0.3" d="M293.573 73.2837H291.905V74.9485H293.573V73.2837Z" fill="#5C7CAB"/>
</g>
<g opacity="0.3">
<path opacity="0.3" d="M293.573 70.308H291.905V71.9728H293.573V70.308Z" fill="#5C7CAB"/>
</g>
<g opacity="0.3">
<path opacity="0.3" d="M293.573 67.3324H291.905V68.9972H293.573V67.3324Z" fill="#5C7CAB"/>
</g>
</g>
<g opacity="0.3">
<g opacity="0.3">
<path opacity="0.3" d="M296.017 94.1133H294.349V95.7781H296.017V94.1133Z" fill="#5C7CAB"/>
</g>
<g opacity="0.3">
<path opacity="0.3" d="M296.017 91.1376H294.349V92.8024H296.017V91.1376Z" fill="#5C7CAB"/>
</g>
<g opacity="0.3">
<path opacity="0.3" d="M296.017 88.162H294.349V89.8268H296.017V88.162Z" fill="#5C7CAB"/>
</g>
<g opacity="0.3">
<path opacity="0.3" d="M296.017 85.1863H294.349V86.8511H296.017V85.1863Z" fill="#5C7CAB"/>
</g>
<g opacity="0.3">
<path opacity="0.3" d="M296.017 82.2107H294.349V83.8755H296.017V82.2107Z" fill="#5C7CAB"/>
</g>
<g opacity="0.3">
<path opacity="0.3" d="M296.017 79.235H294.349V80.8998H296.017V79.235Z" fill="#5C7CAB"/>
</g>
<g opacity="0.3">
<path opacity="0.3" d="M296.017 76.2593H294.349V77.9241H296.017V76.2593Z" fill="#5C7CAB"/>
</g>
<g opacity="0.3">
<path opacity="0.3" d="M296.017 73.2837H294.349V74.9485H296.017V73.2837Z" fill="#5C7CAB"/>
</g>
<g opacity="0.3">
<path opacity="0.3" d="M296.017 70.308H294.349V71.9728H296.017V70.308Z" fill="#5C7CAB"/>
</g>
<g opacity="0.3">
<path opacity="0.3" d="M296.017 67.3324H294.349V68.9972H296.017V67.3324Z" fill="#5C7CAB"/>
</g>
</g>
<g opacity="0.3">
<g opacity="0.3">
<path opacity="0.3" d="M298.461 94.1133H296.793V95.7781H298.461V94.1133Z" fill="#5C7CAB"/>
</g>
<g opacity="0.3">
<path opacity="0.3" d="M298.461 91.1376H296.793V92.8024H298.461V91.1376Z" fill="#5C7CAB"/>
</g>
<g opacity="0.3">
<path opacity="0.3" d="M298.461 88.162H296.793V89.8268H298.461V88.162Z" fill="#5C7CAB"/>
</g>
<g opacity="0.3">
<path opacity="0.3" d="M298.461 85.1863H296.793V86.8511H298.461V85.1863Z" fill="#5C7CAB"/>
</g>
<g opacity="0.3">
<path opacity="0.3" d="M298.461 82.2107H296.793V83.8755H298.461V82.2107Z" fill="#5C7CAB"/>
</g>
<g opacity="0.3">
<path opacity="0.3" d="M298.461 79.235H296.793V80.8998H298.461V79.235Z" fill="#5C7CAB"/>
</g>
<g opacity="0.3">
<path opacity="0.3" d="M298.461 76.2593H296.793V77.9241H298.461V76.2593Z" fill="#5C7CAB"/>
</g>
<g opacity="0.3">
<path opacity="0.3" d="M298.461 73.2837H296.793V74.9485H298.461V73.2837Z" fill="#5C7CAB"/>
</g>
<g opacity="0.3">
<path opacity="0.3" d="M298.461 70.308H296.793V71.9728H298.461V70.308Z" fill="#5C7CAB"/>
</g>
<g opacity="0.3">
<path opacity="0.3" d="M298.461 67.3324H296.793V68.9972H298.461V67.3324Z" fill="#5C7CAB"/>
</g>
</g>
<g opacity="0.3">
<g opacity="0.3">
<path opacity="0.3" d="M300.905 94.1133H299.237V95.7781H300.905V94.1133Z" fill="#5C7CAB"/>
</g>
<g opacity="0.3">
<path opacity="0.3" d="M300.905 91.1376H299.237V92.8024H300.905V91.1376Z" fill="#5C7CAB"/>
</g>
<g opacity="0.3">
<path opacity="0.3" d="M300.905 88.162H299.237V89.8268H300.905V88.162Z" fill="#5C7CAB"/>
</g>
<g opacity="0.3">
<path opacity="0.3" d="M300.905 85.1863H299.237V86.8511H300.905V85.1863Z" fill="#5C7CAB"/>
</g>
<g opacity="0.3">
<path opacity="0.3" d="M300.905 82.2107H299.237V83.8755H300.905V82.2107Z" fill="#5C7CAB"/>
</g>
<g opacity="0.3">
<path opacity="0.3" d="M300.905 79.235H299.237V80.8998H300.905V79.235Z" fill="#5C7CAB"/>
</g>
<g opacity="0.3">
<path opacity="0.3" d="M300.905 76.2593H299.237V77.9241H300.905V76.2593Z" fill="#5C7CAB"/>
</g>
<g opacity="0.3">
<path opacity="0.3" d="M300.905 73.2837H299.237V74.9485H300.905V73.2837Z" fill="#5C7CAB"/>
</g>
<g opacity="0.3">
<path opacity="0.3" d="M300.905 70.308H299.237V71.9728H300.905V70.308Z" fill="#5C7CAB"/>
</g>
<g opacity="0.3">
<path opacity="0.3" d="M300.905 67.3324H299.237V68.9972H300.905V67.3324Z" fill="#5C7CAB"/>
</g>
</g>
</g>
</g>
<path opacity="0.3" d="M273.122 56.118V52.9981L257.275 54.2369V59.9063L252.61 61.0271V98H275.927V55.4429L273.122 56.118Z" fill="#7390B0"/>
<path opacity="0.3" d="M246.349 58.0515H216.693V98H246.349V58.0515Z" fill="#7390B0"/>
<path opacity="0.3" d="M243.275 52.8408H221.023V58.0449H243.275V52.8408Z" fill="#7390B0"/>
<path opacity="0.3" d="M159.969 52.8408V44.8708L138.992 49.1245V52.8408H135.299V98H162.42V52.8408H159.969Z" fill="#7390B0"/>
<path opacity="0.3" d="M191.018 44.8708L167.577 58.0515V98H214.453V58.0515L191.018 44.8708Z" fill="#7390B0"/>
<path opacity="0.3" d="M106.957 44.8708L92.0435 58.0515V98H121.877V58.0515L106.957 44.8708Z" fill="#7390B0"/>
<path opacity="0.3" d="M85.6577 49.1245H58.1694V98H85.6577V49.1245Z" fill="#7390B0"/>
<path opacity="0.3" d="M59.871 49.1245H84.1597V45.7556L59.871 42.3932V49.1245Z" fill="#7390B0"/>
<path opacity="0.3" d="M21.0957 98H51.133V58.53L21.0957 52.8998V98Z" fill="#7390B0"/>
<g opacity="0.3">
<path opacity="0.3" d="M84.1597 79.661V98H96.5175V75.4073L84.1597 79.661Z" fill="#3B5F93"/>
<g opacity="0.3">
<path opacity="0.3" d="M89.9148 89.8596H87.0044V92.7631H89.9148V89.8596Z" fill="#7390B0"/>
<path opacity="0.3" d="M94.1722 89.8596H91.2617V92.7631H94.1722V89.8596Z" fill="#7390B0"/>
<path opacity="0.3" d="M89.9148 93.6873H87.0044V96.5908H89.9148V93.6873Z" fill="#7390B0"/>
<path opacity="0.3" d="M94.1722 93.6873H91.2617V96.5908H94.1722V93.6873Z" fill="#7390B0"/>
</g>
</g>
<g opacity="0.3">
<path opacity="0.3" d="M186.721 98H199.079V75.4073L186.721 79.661V98Z" fill="#3B5F93"/>
<g opacity="0.3">
<path opacity="0.3" d="M192.47 89.8596H189.56V92.7631H192.47V89.8596Z" fill="#7390B0"/>
<path opacity="0.3" d="M196.734 89.8596H193.823V92.7631H196.734V89.8596Z" fill="#7390B0"/>
<path opacity="0.3" d="M192.47 93.6873H189.56V96.5908H192.47V93.6873Z" fill="#7390B0"/>
<path opacity="0.3" d="M196.734 93.6873H193.823V96.5908H196.734V93.6873Z" fill="#7390B0"/>
</g>
</g>
<path opacity="0.3" d="M67.1176 75.4073V98H79.4754V79.661L67.1176 75.4073Z" fill="#3B5F93"/>
<g opacity="0.3">
<path opacity="0.3" d="M76.6305 89.8596H73.7201V92.7631H76.6305V89.8596Z" fill="#7390B0"/>
<path opacity="0.3" d="M72.3733 89.8596H69.4629V92.7631H72.3733V89.8596Z" fill="#7390B0"/>
<path opacity="0.3" d="M76.6305 93.6873H73.7201V96.5908H76.6305V93.6873Z" fill="#7390B0"/>
<path opacity="0.3" d="M72.3733 93.6873H69.4629V96.5908H72.3733V93.6873Z" fill="#7390B0"/>
</g>
<path opacity="0.3" d="M258.99 75.6826H237.29V98H258.99V75.6826Z" fill="#3B5F93"/>
<g opacity="0.3">
<path opacity="0.3" d="M243.275 87.4738H240.088V90.6526H243.275V87.4738Z" fill="#5C7CAB"/>
<path opacity="0.3" d="M247.939 87.4738H244.753V90.6526H247.939V87.4738Z" fill="#5C7CAB"/>
<path opacity="0.3" d="M252.604 87.4738H249.417V90.6526H252.604V87.4738Z" fill="#5C7CAB"/>
<path opacity="0.3" d="M257.275 87.4738H254.089V90.6526H257.275V87.4738Z" fill="#5C7CAB"/>
<path opacity="0.3" d="M243.275 91.6685H240.088V94.8474H243.275V91.6685Z" fill="#5C7CAB"/>
<path opacity="0.3" d="M247.939 91.6685H244.753V94.8474H247.939V91.6685Z" fill="#5C7CAB"/>
<path opacity="0.3" d="M252.604 91.6685H249.417V94.8474H252.604V91.6685Z" fill="#5C7CAB"/>
<path opacity="0.3" d="M257.275 91.6685H254.089V94.8474H257.275V91.6685Z" fill="#5C7CAB"/>
</g>
<path opacity="0.3" d="M258.99 75.6826H237.29V98H258.99V75.6826Z" fill="#3B5F93"/>
<g opacity="0.3">
<path opacity="0.3" d="M243.275 87.4738H240.088V90.6526H243.275V87.4738Z" fill="#5C7CAB"/>
<path opacity="0.3" d="M247.939 87.4738H244.753V90.6526H247.939V87.4738Z" fill="#5C7CAB"/>
<path opacity="0.3" d="M252.604 87.4738H249.417V90.6526H252.604V87.4738Z" fill="#5C7CAB"/>
<path opacity="0.3" d="M257.275 87.4738H254.089V90.6526H257.275V87.4738Z" fill="#5C7CAB"/>
<path opacity="0.3" d="M243.275 91.6685H240.088V94.8474H243.275V91.6685Z" fill="#5C7CAB"/>
<path opacity="0.3" d="M247.939 91.6685H244.753V94.8474H247.939V91.6685Z" fill="#5C7CAB"/>
<path opacity="0.3" d="M252.604 91.6685H249.417V94.8474H252.604V91.6685Z" fill="#5C7CAB"/>
<path opacity="0.3" d="M257.275 91.6685H254.089V94.8474H257.275V91.6685Z" fill="#5C7CAB"/>
</g>
<path opacity="0.3" d="M283.206 84.4064H263.392V97.9934H283.206V84.4064Z" fill="#3B5F93"/>
<g opacity="0.3">
<path opacity="0.3" d="M268.858 90.5412H265.947V93.4448H268.858V90.5412Z" fill="#5C7CAB"/>
<path opacity="0.3" d="M273.115 90.5412H270.205V93.4448H273.115V90.5412Z" fill="#5C7CAB"/>
<path opacity="0.3" d="M277.379 90.5412H274.468V93.4448H277.379V90.5412Z" fill="#5C7CAB"/>
<path opacity="0.3" d="M281.643 90.5412H278.732V93.4448H281.643V90.5412Z" fill="#5C7CAB"/>
<path opacity="0.3" d="M268.858 94.3689H265.947V97.2725H268.858V94.3689Z" fill="#5C7CAB"/>
<path opacity="0.3" d="M273.115 94.3689H270.205V97.2725H273.115V94.3689Z" fill="#5C7CAB"/>
<path opacity="0.3" d="M277.379 94.3689H274.468V97.2725H277.379V94.3689Z" fill="#5C7CAB"/>
<path opacity="0.3" d="M281.643 94.3689H278.732V97.2725H281.643V94.3689Z" fill="#5C7CAB"/>
</g>
<path opacity="0.3" d="M347.939 75.2697H328.124V98H347.939V75.2697Z" fill="#3B5F93"/>
<g opacity="0.3">
<path opacity="0.3" d="M333.59 86.0384H330.68V88.9419H333.59V86.0384Z" fill="#5C7CAB"/>
<path opacity="0.3" d="M337.854 86.0384H334.944V88.9419H337.854V86.0384Z" fill="#5C7CAB"/>
<path opacity="0.3" d="M342.118 86.0384H339.208V88.9419H342.118V86.0384Z" fill="#5C7CAB"/>
<path opacity="0.3" d="M346.375 86.0384H343.465V88.9419H346.375V86.0384Z" fill="#5C7CAB"/>
<path opacity="0.3" d="M333.59 89.8596H330.68V92.7631H333.59V89.8596Z" fill="#5C7CAB"/>
<path opacity="0.3" d="M337.854 89.8596H334.944V92.7631H337.854V89.8596Z" fill="#5C7CAB"/>
<path opacity="0.3" d="M342.118 89.8596H339.208V92.7631H342.118V89.8596Z" fill="#5C7CAB"/>
<path opacity="0.3" d="M346.375 89.8596H343.465V92.7631H346.375V89.8596Z" fill="#5C7CAB"/>
<path opacity="0.3" d="M333.59 93.6873H330.68V96.5908H333.59V93.6873Z" fill="#5C7CAB"/>
<path opacity="0.3" d="M337.854 93.6873H334.944V96.5908H337.854V93.6873Z" fill="#5C7CAB"/>
<path opacity="0.3" d="M342.118 93.6873H339.208V96.5908H342.118V93.6873Z" fill="#5C7CAB"/>
<path opacity="0.3" d="M346.375 93.6873H343.465V96.5908H346.375V93.6873Z" fill="#5C7CAB"/>
</g>
<g opacity="0.3">
<path opacity="0.3" d="M165.56 59.1133H150.646V98H165.56V59.1133Z" fill="#3B5F93"/>
<g opacity="0.3">
<g opacity="0.3">
<g opacity="0.3">
<path opacity="0.3" d="M155.081 94.1133H153.412V95.7781H155.081V94.1133Z" fill="#5C7CAB"/>
</g>
<g opacity="0.3">
<path opacity="0.3" d="M155.081 91.1376H153.412V92.8024H155.081V91.1376Z" fill="#5C7CAB"/>
</g>
<g opacity="0.3">
<path opacity="0.3" d="M155.081 88.162H153.412V89.8268H155.081V88.162Z" fill="#5C7CAB"/>
</g>
<g opacity="0.3">
<path opacity="0.3" d="M155.081 85.1863H153.412V86.8511H155.081V85.1863Z" fill="#5C7CAB"/>
</g>
<g opacity="0.3">
<path opacity="0.3" d="M155.081 82.2107H153.412V83.8755H155.081V82.2107Z" fill="#5C7CAB"/>
</g>
<g opacity="0.3">
<path opacity="0.3" d="M155.081 79.235H153.412V80.8998H155.081V79.235Z" fill="#5C7CAB"/>
</g>
<g opacity="0.3">
<path opacity="0.3" d="M155.081 76.2593H153.412V77.9241H155.081V76.2593Z" fill="#5C7CAB"/>
</g>
<g opacity="0.3">
<path opacity="0.3" d="M155.081 73.2837H153.412V74.9485H155.081V73.2837Z" fill="#5C7CAB"/>
</g>
<g opacity="0.3">
<path opacity="0.3" d="M155.081 70.308H153.412V71.9728H155.081V70.308Z" fill="#5C7CAB"/>
</g>
<g opacity="0.3">
<path opacity="0.3" d="M155.081 67.3324H153.412V68.9972H155.081V67.3324Z" fill="#5C7CAB"/>
</g>
</g>
<g opacity="0.3">
<g opacity="0.3">
<path opacity="0.3" d="M157.525 94.1133H155.856V95.7781H157.525V94.1133Z" fill="#5C7CAB"/>
</g>
<g opacity="0.3">
<path opacity="0.3" d="M157.525 91.1376H155.856V92.8024H157.525V91.1376Z" fill="#5C7CAB"/>
</g>
<g opacity="0.3">
<path opacity="0.3" d="M157.525 88.162H155.856V89.8268H157.525V88.162Z" fill="#5C7CAB"/>
</g>
<g opacity="0.3">
<path opacity="0.3" d="M157.525 85.1863H155.856V86.8511H157.525V85.1863Z" fill="#5C7CAB"/>
</g>
<g opacity="0.3">
<path opacity="0.3" d="M157.525 82.2107H155.856V83.8755H157.525V82.2107Z" fill="#5C7CAB"/>
</g>
<g opacity="0.3">
<path opacity="0.3" d="M157.525 79.235H155.856V80.8998H157.525V79.235Z" fill="#5C7CAB"/>
</g>
<g opacity="0.3">
<path opacity="0.3" d="M157.525 76.2593H155.856V77.9241H157.525V76.2593Z" fill="#5C7CAB"/>
</g>
<g opacity="0.3">
<path opacity="0.3" d="M157.525 73.2837H155.856V74.9485H157.525V73.2837Z" fill="#5C7CAB"/>
</g>
<g opacity="0.3">
<path opacity="0.3" d="M157.525 70.308H155.856V71.9728H157.525V70.308Z" fill="#5C7CAB"/>
</g>
<g opacity="0.3">
<path opacity="0.3" d="M157.525 67.3324H155.856V68.9972H157.525V67.3324Z" fill="#5C7CAB"/>
</g>
</g>
<g opacity="0.3">
<g opacity="0.3">
<path opacity="0.3" d="M159.969 94.1133H158.3V95.7781H159.969V94.1133Z" fill="#5C7CAB"/>
</g>
<g opacity="0.3">
<path opacity="0.3" d="M159.969 91.1376H158.3V92.8024H159.969V91.1376Z" fill="#5C7CAB"/>
</g>
<g opacity="0.3">
<path opacity="0.3" d="M159.969 88.162H158.3V89.8268H159.969V88.162Z" fill="#5C7CAB"/>
</g>
<g opacity="0.3">
<path opacity="0.3" d="M159.969 85.1863H158.3V86.8511H159.969V85.1863Z" fill="#5C7CAB"/>
</g>
<g opacity="0.3">
<path opacity="0.3" d="M159.969 82.2107H158.3V83.8755H159.969V82.2107Z" fill="#5C7CAB"/>
</g>
<g opacity="0.3">
<path opacity="0.3" d="M159.969 79.235H158.3V80.8998H159.969V79.235Z" fill="#5C7CAB"/>
</g>
<g opacity="0.3">
<path opacity="0.3" d="M159.969 76.2593H158.3V77.9241H159.969V76.2593Z" fill="#5C7CAB"/>
</g>
<g opacity="0.3">
<path opacity="0.3" d="M159.969 73.2837H158.3V74.9485H159.969V73.2837Z" fill="#5C7CAB"/>
</g>
<g opacity="0.3">
<path opacity="0.3" d="M159.969 70.308H158.3V71.9728H159.969V70.308Z" fill="#5C7CAB"/>
</g>
<g opacity="0.3">
<path opacity="0.3" d="M159.969 67.3324H158.3V68.9972H159.969V67.3324Z" fill="#5C7CAB"/>
</g>
</g>
<g opacity="0.3">
<g opacity="0.3">
<path opacity="0.3" d="M162.413 94.1133H160.744V95.7781H162.413V94.1133Z" fill="#5C7CAB"/>
</g>
<g opacity="0.3">
<path opacity="0.3" d="M162.413 91.1376H160.744V92.8024H162.413V91.1376Z" fill="#5C7CAB"/>
</g>
<g opacity="0.3">
<path opacity="0.3" d="M162.413 88.162H160.744V89.8268H162.413V88.162Z" fill="#5C7CAB"/>
</g>
<g opacity="0.3">
<path opacity="0.3" d="M162.413 85.1863H160.744V86.8511H162.413V85.1863Z" fill="#5C7CAB"/>
</g>
<g opacity="0.3">
<path opacity="0.3" d="M162.413 82.2107H160.744V83.8755H162.413V82.2107Z" fill="#5C7CAB"/>
</g>
<g opacity="0.3">
<path opacity="0.3" d="M162.413 79.235H160.744V80.8998H162.413V79.235Z" fill="#5C7CAB"/>
</g>
<g opacity="0.3">
<path opacity="0.3" d="M162.413 76.2593H160.744V77.9241H162.413V76.2593Z" fill="#5C7CAB"/>
</g>
<g opacity="0.3">
<path opacity="0.3" d="M162.413 73.2837H160.744V74.9485H162.413V73.2837Z" fill="#5C7CAB"/>
</g>
<g opacity="0.3">
<path opacity="0.3" d="M162.413 70.308H160.744V71.9728H162.413V70.308Z" fill="#5C7CAB"/>
</g>
<g opacity="0.3">
<path opacity="0.3" d="M162.413 67.3324H160.744V68.9972H162.413V67.3324Z" fill="#5C7CAB"/>
</g>
</g>
</g>
</g>
<path opacity="0.3" d="M144.326 79.9036H124.512V98H144.326V79.9036Z" fill="#3B5F93"/>
<g opacity="0.3">
<path opacity="0.3" d="M129.117 85.9794H126.207V88.8829H129.117V85.9794Z" fill="#5C7CAB"/>
<path opacity="0.3" d="M133.381 85.9794H130.47V88.8829H133.381V85.9794Z" fill="#5C7CAB"/>
<path opacity="0.3" d="M137.638 85.9794H134.728V88.8829H137.638V85.9794Z" fill="#5C7CAB"/>
<path opacity="0.3" d="M141.902 85.9794H138.992V88.8829H141.902V85.9794Z" fill="#5C7CAB"/>
<path opacity="0.3" d="M129.117 89.8071H126.207V92.7106H129.117V89.8071Z" fill="#5C7CAB"/>
<path opacity="0.3" d="M133.381 89.8071H130.47V92.7106H133.381V89.8071Z" fill="#5C7CAB"/>
<path opacity="0.3" d="M137.638 89.8071H134.728V92.7106H137.638V89.8071Z" fill="#5C7CAB"/>
<path opacity="0.3" d="M141.902 89.8071H138.992V92.7106H141.902V89.8071Z" fill="#5C7CAB"/>
</g>
<path opacity="0.3" d="M332.96 52.0281H328.696V65.0646H332.96V52.0281Z" fill="white"/>
<path opacity="0.3" d="M344.253 58.0515H339.989V66.7687H344.253V58.0515Z" fill="white"/>
<g opacity="0.3">
<path opacity="0.3" d="M35.4378 66.9981H32.5273V73.5852H35.4378V66.9981Z" fill="white"/>
<path opacity="0.3" d="M39.7016 66.9981H36.7911V73.5852H39.7016V66.9981Z" fill="white"/>
<path opacity="0.3" d="M35.4378 75.676H32.5273V82.2697H35.4378V75.676Z" fill="white"/>
<path opacity="0.3" d="M39.7016 75.676H36.7911V82.2697H39.7016V75.676Z" fill="white"/>
</g>
<path opacity="0.3" d="M34.2091 32.3258H14.4865V39.2668H34.2091V32.3258Z" fill="#D2E4E6"/>
<path opacity="0.3" d="M80.9273 54.7547H78.0168V61.3483H80.9273V54.7547Z" fill="white"/>
<path opacity="0.3" d="M80.9273 67.0833H78.0168V73.6769H80.9273V67.0833Z" fill="white"/>
<path opacity="0.3" d="M143.958 58.0515H141.048V64.6386H143.958V58.0515Z" fill="white"/>
<path opacity="0.3" d="M143.958 69.9541H141.048V76.5412H143.958V69.9541Z" fill="white"/>
<g opacity="0.3">
<path opacity="0.3" d="M187.418 64.2125H180.395V70.8979H187.418V64.2125Z" fill="white"/>
<path opacity="0.3" d="M195.946 64.2125H188.922V70.8979H195.946V64.2125Z" fill="white"/>
<path opacity="0.3" d="M204.467 64.2125H197.443V70.8979H204.467V64.2125Z" fill="white"/>
</g>
<path opacity="0.3" d="M363.069 73.7228H360.159V76.6264H363.069V73.7228Z" fill="white"/>
<path opacity="0.3" d="M367.326 73.7228H364.416V76.6264H367.326V73.7228Z" fill="white"/>
<path opacity="0.3" d="M363.069 77.5505H360.159V80.4541H363.069V77.5505Z" fill="white"/>
<path opacity="0.3" d="M367.326 77.5505H364.416V80.4541H367.326V77.5505Z" fill="white"/>
<path opacity="0.3" d="M269.593 63.8979H265.205V69.6395H269.593V63.8979Z" fill="white"/>
<path opacity="0.3" d="M269.593 72.3989H265.205V78.1404H269.593V72.3989Z" fill="white"/>
<g opacity="0.3">
<g opacity="0.3">
<path opacity="0.3" d="M228.184 81.0703H224.807V84.4392H228.184V81.0703Z" fill="white"/>
</g>
<g opacity="0.3">
<path opacity="0.3" d="M228.184 75.0533H224.807V78.4223H228.184V75.0533Z" fill="white"/>
</g>
<g opacity="0.3">
<path opacity="0.3" d="M228.184 69.03H224.807V72.3989H228.184V69.03Z" fill="white"/>
</g>
<g opacity="0.3">
<path opacity="0.3" d="M233.124 81.0703H229.747V84.4392H233.124V81.0703Z" fill="white"/>
</g>
<g opacity="0.3">
<path opacity="0.3" d="M233.124 75.0533H229.747V78.4223H233.124V75.0533Z" fill="white"/>
</g>
<g opacity="0.3">
<path opacity="0.3" d="M233.124 69.03H229.747V72.3989H233.124V69.03Z" fill="white"/>
</g>
</g>
<path opacity="0.3" d="M116.51 60.9223H113.599V93.2612H116.51V60.9223Z" fill="white"/>
</g>
</svg>
