<svg width="16" height="16" viewBox="0 0 16 16" fill="none" xmlns="http://www.w3.org/2000/svg">
<path d="M14.5937 1.4125C14.4641 1.28145 14.3098 1.17749 14.1396 1.10667C13.9695 1.03585 13.787 0.999592 13.6027 1H9.76116C9.50916 1.00047 9.26752 1.1003 9.08866 1.27782L1.40897 8.95595C1.14693 9.21853 0.999756 9.57435 0.999756 9.94532C0.999756 10.3163 1.14693 10.6721 1.40897 10.9347L5.06522 14.591C5.32787 14.8531 5.68381 15.0004 6.05491 15.0004C6.42601 15.0004 6.78195 14.8531 7.0446 14.591L14.7212 6.91595C14.899 6.73737 14.9992 6.4958 14.9999 6.24376V2.4C15.001 2.21669 14.9657 2.03498 14.896 1.86545C14.8262 1.69592 14.7235 1.54195 14.5937 1.4125ZM11.9999 5.00001C11.8021 5.00001 11.6088 4.94136 11.4443 4.83148C11.2799 4.72159 11.1517 4.56542 11.076 4.38269C11.0003 4.19996 10.9805 3.9989 11.0191 3.80492C11.0577 3.61093 11.153 3.43275 11.2928 3.2929C11.4327 3.15305 11.6108 3.0578 11.8048 3.01922C11.9988 2.98063 12.1999 3.00044 12.3826 3.07613C12.5653 3.15181 12.7215 3.27999 12.8314 3.44444C12.9413 3.60888 12.9999 3.80222 12.9999 4.00001C12.9999 4.26522 12.8946 4.51958 12.707 4.70711C12.5195 4.89465 12.2651 5.00001 11.9999 5.00001Z" fill="#EB5757"/>
</svg>
