<svg width="20" height="20" viewBox="0 0 20 20" fill="none" xmlns="http://www.w3.org/2000/svg">
<path fill-rule="evenodd" clip-rule="evenodd" d="M1.25 0.625C1.59518 0.625 1.875 0.904822 1.875 1.25V18.125H18.75C19.0952 18.125 19.375 18.4048 19.375 18.75C19.375 19.0952 19.0952 19.375 18.75 19.375H1.875C1.54348 19.375 1.22554 19.2433 0.991116 19.0089C0.756696 18.7745 0.625 18.4565 0.625 18.125V1.25C0.625 0.904822 0.904822 0.625 1.25 0.625Z" fill="#009AC9"/>
<path fill-rule="evenodd" clip-rule="evenodd" d="M4.53125 9.375C4.44496 9.375 4.375 9.44496 4.375 9.53125V15.4688C4.375 15.555 4.44496 15.625 4.53125 15.625H6.09375C6.18004 15.625 6.25 15.555 6.25 15.4688V9.53125C6.25 9.44496 6.18004 9.375 6.09375 9.375H4.53125ZM3.125 9.53125C3.125 8.7546 3.7546 8.125 4.53125 8.125H6.09375C6.8704 8.125 7.5 8.7546 7.5 9.53125V15.4688C7.5 16.2454 6.8704 16.875 6.09375 16.875H4.53125C3.7546 16.875 3.125 16.2454 3.125 15.4688V9.53125Z" fill="#009AC9"/>
<path fill-rule="evenodd" clip-rule="evenodd" d="M10.1562 7.5C10.07 7.5 10 7.56996 10 7.65625V15.4688C10 15.555 10.07 15.625 10.1562 15.625H11.7188C11.805 15.625 11.875 15.555 11.875 15.4688V7.65625C11.875 7.56996 11.805 7.5 11.7188 7.5H10.1562ZM8.75 7.65625C8.75 6.8796 9.3796 6.25 10.1562 6.25H11.7188C12.4954 6.25 13.125 6.8796 13.125 7.65625V15.4688C13.125 16.2454 12.4954 16.875 11.7188 16.875H10.1562C9.3796 16.875 8.75 16.2454 8.75 15.4688V7.65625Z" fill="#009AC9"/>
<path fill-rule="evenodd" clip-rule="evenodd" d="M15.7672 5C15.6809 5 15.611 5.06996 15.611 5.15625V15.4688C15.611 15.555 15.6809 15.625 15.7672 15.625H17.3297C17.416 15.625 17.486 15.555 17.486 15.4688V5.15625C17.486 5.06996 17.416 5 17.3297 5H15.7672ZM14.361 5.15625C14.361 4.3796 14.9906 3.75 15.7672 3.75H17.3297C18.1064 3.75 18.736 4.3796 18.736 5.15625V15.4688C18.736 16.2454 18.1064 16.875 17.3297 16.875H15.7672C14.9906 16.875 14.361 16.2454 14.361 15.4688V5.15625Z" fill="#009AC9"/>
</svg>
