<svg width="40" height="40" viewBox="0 0 40 40" fill="none" xmlns="http://www.w3.org/2000/svg">
<rect width="40" height="40" rx="12" fill="#56CCF2"/>
<g clip-path="url(#clip0)">
<path d="M10.1594 8H8.80316C8.36272 8 8 8.35681 8 8.80311V16.2343C8 16.6861 8.36577 17.0375 8.80316 17.0375H10.9625V8.80311C10.9625 8.36028 10.6023 8 10.1594 8V8Z" fill="white"/>
<path d="M18.3938 12.5188C18.3938 12.9616 18.7541 13.3219 19.1969 13.3219C19.6398 13.3219 20.0001 12.9616 20.0001 12.5188V8.80311C20.0001 8.51994 20.0536 8.249 20.1511 8H12.2178C12.3153 8.24905 12.3689 8.51998 12.3689 8.80311V19.2469C12.3689 19.6897 12.7292 20.05 13.172 20.05C13.6095 20.05 13.9751 19.6985 13.9751 19.2469V12.5188C13.9751 11.273 14.99 10.3094 16.1845 10.3094C17.4027 10.3094 18.3938 11.3005 18.3938 12.5188Z" fill="white"/>
<path d="M29.7905 11.8154H28.9375V13.2217H29.7905C30.23 13.2217 30.5937 13.5776 30.5937 14.0248V19.2467C30.5937 19.6984 30.228 20.0498 29.7905 20.0498H19.95C18.7554 20.0498 17.7406 21.0136 17.7406 22.2592V23.1777C16.8662 23.4721 16.2344 24.2992 16.2344 25.2717V29.7905C16.2344 30.3811 16.464 30.9361 16.8809 31.353C17.292 31.7641 17.8616 31.9998 18.4437 31.9998C19.662 31.9998 20.6531 31.0087 20.6531 29.7905V25.2717C20.6531 24.2807 20.0108 23.4689 19.1469 23.178V22.2592C19.1469 21.8136 19.5089 21.4561 19.95 21.4561H29.7906C30.9831 21.4561 32 20.4952 32 19.2467V14.0248C31.9999 12.779 30.9852 11.8154 29.7905 11.8154Z" fill="white"/>
<path d="M27.5312 16.2344V8.80311C27.5312 8.35658 27.1683 8 26.728 8H22.2093C21.7665 8 21.4061 8.36028 21.4061 8.80311V12.5188C21.4061 13.737 20.415 14.7281 19.1968 14.7281C17.9785 14.7281 16.9874 13.737 16.9874 12.5188C16.9874 12.0759 16.6271 11.7156 16.1843 11.7156C15.7438 11.7156 15.3811 12.0725 15.3811 12.5188V17.0375H26.7279C27.1655 17.0375 27.5312 16.6861 27.5312 16.2344Z" fill="white"/>
</g>
<defs>
<clipPath id="clip0">
<rect width="24" height="24" fill="white" transform="translate(8 8)"/>
</clipPath>
</defs>
</svg>
