<svg width="137" height="90" viewBox="0 0 137 90" fill="none" xmlns="http://www.w3.org/2000/svg">
<g opacity="0.5">
<path d="M53.6933 66.5391H35.4997L34.3955 53.6851H52.5891L53.6933 66.5391Z" fill="#E6E6E6"/>
<path d="M54.636 66.5391H36.4424L35.3381 53.6851H53.5317L54.636 66.5391Z" fill="#F0F0F0"/>
<path d="M38.9301 63.7803L38.3218 56.4467H51.0436L51.6519 63.7803H38.9301Z" fill="white"/>
<path d="M57.7839 66.5391H55.6494V90.5137H57.7839V66.5391Z" fill="#E6E6E6"/>
<path d="M58.4579 66.5391H56.9756V90.5137H58.4579V66.5391Z" fill="#F0F0F0"/>
<path d="M37.7949 69.1875H58.4573V66.5421H37.7949V69.1875Z" fill="#F0F0F0"/>
<path d="M38.5246 69.1872H36.3901V90.5165H38.5246V69.1872Z" fill="#E6E6E6"/>
<path d="M39.1986 69.1872H37.7163V90.5165H39.1986V69.1872Z" fill="#F0F0F0"/>
<path d="M23.3312 69.1872H21.1968V90.5165H23.3312V69.1872Z" fill="#E6E6E6"/>
<path d="M24.0053 69.1872H22.5229V90.5165H24.0053V69.1872Z" fill="#F0F0F0"/>
<path d="M44.2758 69.1872H42.1414V90.5165H44.2758V69.1872Z" fill="#E6E6E6"/>
<path d="M44.9472 69.1872H43.4648V90.5165H44.9472V69.1872Z" fill="#F0F0F0"/>
<path d="M37.7957 66.5391H21.1968V69.1845H37.7957V66.5391Z" fill="#E6E6E6"/>
<path d="M99.6922 6.76141H35.4858V42.8243H99.6922V6.76141Z" fill="#E0E0E0"/>
<path d="M103.219 6.76141H35.8093V42.8243H103.219V6.76141Z" fill="#F5F5F5"/>
<path d="M102.116 41.7129V7.87256L36.9099 7.87256V41.7129L102.116 41.7129Z" fill="white"/>
<path d="M63.3134 41.713L75.6242 7.87262H55.3072L42.9963 41.713H63.3134Z" fill="#F5F5F5"/>
<path d="M82.8686 41.713L95.1794 7.87262H79.8518L67.541 41.713H82.8686Z" fill="#F5F5F5"/>
<path d="M120.042 56.0735H114.584V90.5165H120.042V56.0735Z" fill="#E6E6E6"/>
<path d="M118.606 90.5165H120.042V87.8628H117.102L118.606 90.5165Z" fill="#FAFAFA"/>
<path d="M69.722 56.0735H64.2639V90.5165H69.722V56.0735Z" fill="#E6E6E6"/>
<path d="M120.042 56.0735H68.467V89.8005H120.042V56.0735Z" fill="#FAFAFA"/>
<path d="M119.067 66.9565H69.4453V57.4308H119.067V66.9565ZM69.7193 66.6801H118.793V57.7072H69.7193V66.6801Z" fill="#E6E6E6"/>
<path d="M110.332 62.0554H79.1421C77.6927 62.0554 76.298 60.8778 75.3171 58.8212L75.2212 58.6222H114.247L114.151 58.8212C113.173 60.875 111.778 62.0554 110.332 62.0554ZM75.6623 58.8986C76.5885 60.7313 77.8489 61.779 79.1421 61.779H110.329C111.622 61.779 112.882 60.7341 113.811 58.8986H75.6623Z" fill="#E6E6E6"/>
<path d="M69.9028 90.5165H68.467V87.8628H71.407L69.9028 90.5165Z" fill="#FAFAFA"/>
<path d="M119.067 77.6985H69.4453V68.1728H119.067V77.6985ZM69.7193 77.4221H118.793V68.4492H69.7193V77.4221Z" fill="#E6E6E6"/>
<path d="M110.332 72.7974H79.1421C77.6927 72.7974 76.298 71.6198 75.3171 69.5632L75.2212 69.3642H114.247L114.151 69.5632C113.173 71.6198 111.778 72.7974 110.332 72.7974ZM75.6623 69.6434C76.5885 71.4761 77.8489 72.521 79.1421 72.521H110.329C111.622 72.521 112.882 71.4761 113.811 69.6434H75.6623Z" fill="#E6E6E6"/>
<path d="M119.067 88.4433H69.4453V78.9175H119.067V88.4433ZM69.7193 88.1668H118.793V79.194H69.7193V88.1668Z" fill="#E6E6E6"/>
<path d="M110.332 83.5422H79.1421C77.6927 83.5422 76.298 82.3646 75.3171 80.308L75.2212 80.1089H114.247L114.151 80.308C113.173 82.3646 111.778 83.5422 110.332 83.5422ZM75.6623 80.3881C76.5885 82.2209 77.8489 83.2685 79.1421 83.2685H110.329C111.622 83.2685 112.882 82.2236 113.811 80.3881H75.6623Z" fill="#E6E6E6"/>
<path d="M33.1487 60.629V61.298H32.724L32.376 66.5391H27.2138L26.8659 61.298H26.4412V60.629H33.1487Z" fill="#E6E6E6"/>
<path d="M31.4498 47.6175C31.0251 44.4939 26.8493 43.6038 21.5474 43.4877C16.5031 43.3799 14.8865 41.5776 14.8865 41.5776C14.8865 41.5776 14.9029 48.8698 22.1721 51.5097C29.0742 54.0169 31.8745 50.7467 31.4498 47.6175Z" fill="#E6E6E6"/>
<path d="M28.8741 54.6969C28.9618 53.4115 30.9949 51.0508 35.8858 52.1261C39.4204 52.9028 40.7356 51.0535 40.7356 51.0535C40.7356 51.0535 40.4095 56.2725 35.0912 57.8426C30.0414 59.3298 28.7179 56.9553 28.8741 54.6969Z" fill="#E6E6E6"/>
<path d="M29.9893 62.5972C30.0441 62.5972 30.0962 62.5751 30.1345 62.5308C30.488 62.1079 30.2003 61.0962 29.7975 59.6947C29.2824 57.8979 28.6412 55.6588 29.1838 54.0362C29.4906 53.1184 29.8687 52.3113 30.2359 51.529C31.0031 49.8925 31.6662 48.4772 31.1127 47.0011C31.0771 46.9016 30.9675 46.8546 30.8689 46.8905C30.7702 46.9265 30.7236 47.037 30.7593 47.1365C31.2552 48.4634 30.6551 49.7433 29.8934 51.3687C29.5399 52.1233 29.1372 52.9802 28.8248 53.9173C28.2439 55.6561 28.9043 57.9559 29.4331 59.8052C29.7454 60.8944 30.0688 62.0222 29.8441 62.2903C29.7756 62.3705 29.7866 62.4894 29.866 62.5585C29.9044 62.5834 29.9455 62.5972 29.9893 62.5972Z" fill="#E6E6E6"/>
<path d="M68.4891 84.6147H29.5811L27.4521 21.4868H66.3601L68.4891 84.6147Z" fill="#E8505B"/>
<path d="M70.4318 82.6549H31.5238L29.3921 19.5269H68.3001L70.4318 82.6549Z" fill="#E8505B"/>
<path opacity="0.3" d="M70.4318 82.6549H31.5238L29.3921 19.5269H68.3001L70.4318 82.6549Z" fill="white"/>
<path d="M57.3977 45.5081C61.5641 41.2329 61.3873 34.2417 57.0029 29.8929C52.6185 25.5441 45.6867 25.4844 41.5204 29.7596C37.354 34.0348 37.5308 41.026 41.9152 45.3748C46.2996 49.7236 53.2314 49.7833 57.3977 45.5081Z" fill="#E8505B"/>
<path d="M58.4908 37.633C58.5429 39.2058 58.1976 40.6847 57.5455 41.9729C56.118 44.8118 53.1999 46.744 49.7667 46.744C46.3334 46.744 43.2838 44.8118 41.6645 41.9729C40.9247 40.6847 40.4808 39.2058 40.426 37.633C40.2561 32.5992 44.1606 28.5191 49.1502 28.5191C54.1397 28.5191 58.3209 32.5992 58.4908 37.633Z" fill="white"/>
<path opacity="0.6" d="M57.5456 41.9729C56.1181 44.8118 53.2 46.744 49.7667 46.744C46.3335 46.744 43.2839 44.8118 41.6646 41.9729C43.8867 40.4415 46.5856 39.5458 49.5229 39.5458C52.4602 39.5458 55.2193 40.4387 57.5456 41.9729Z" fill="#E8505B"/>
<path opacity="0.6" d="M52.274 37.4096C53.8061 35.8376 53.7411 33.2669 52.1289 31.6678C50.5167 30.0687 47.9678 30.0467 46.4358 31.6188C44.9038 33.1908 44.9688 35.7615 46.581 37.3606C48.1932 38.9597 50.742 38.9817 52.274 37.4096Z" fill="#E8505B"/>
<path d="M62.6147 59.7943H37.7958L37.6287 54.8185H62.4476L62.6147 59.7943Z" fill="white"/>
<path d="M62.916 68.6869H38.0944L37.9272 63.7112H62.7489L62.916 68.6869Z" fill="white"/>
<path d="M53.3369 64.3968L47.3555 65.2178C47.1089 65.251 46.9473 65.4776 46.9938 65.7181L47.7802 69.7623C47.8268 70.0028 48.0652 70.1741 48.3118 70.1382L54.2932 69.3172C54.5398 69.284 54.7015 69.0601 54.6549 68.8169L53.8685 64.7727C53.8219 64.5322 53.5808 64.3609 53.3369 64.3968ZM51.619 68.4907L50.5367 68.64L50.4271 67.3352C50.1969 67.2329 50.0298 67.0256 49.9832 66.7824C49.9065 66.3871 50.1722 66.0194 50.5723 65.9669C50.9723 65.9116 51.3614 66.188 51.4381 66.5833C51.4847 66.8266 51.4052 67.0671 51.2244 67.2247L51.619 68.4907Z" fill="#E8505B"/>
<path d="M52.745 64.1784C52.5258 64.2088 52.3148 64.0595 52.2737 63.8439L52.197 63.4486C51.986 62.3595 50.953 61.5357 49.8351 61.6352C48.6405 61.7403 47.8404 62.8045 48.0623 63.9545L48.15 64.4078C48.1911 64.6234 48.0486 64.8225 47.8294 64.8501C47.6102 64.8805 47.3993 64.7312 47.3582 64.5156L47.2842 64.1286C46.9883 62.611 47.9363 61.1515 49.468 60.8806C51.0791 60.5986 52.6683 61.6933 52.9752 63.2745L53.0628 63.7278C53.1067 63.949 52.9642 64.148 52.745 64.1784Z" fill="#E8505B"/>
<path d="M58.8196 75.6557H42.6618L42.5522 72.416H58.71L58.8196 75.6557Z" fill="#E8505B"/>
<path d="M51.0244 57.3064C51.0408 57.8095 50.6517 58.2159 50.1531 58.2159C49.6544 58.2159 49.2379 57.8095 49.2214 57.3064C49.205 56.8033 49.5941 56.3969 50.0928 56.3969C50.5915 56.3969 51.0079 56.8033 51.0244 57.3064Z" fill="#263238"/>
<path d="M47.1391 57.3064C47.1556 57.8095 46.7665 58.2159 46.2678 58.2159C45.7691 58.2159 45.3526 57.8095 45.3362 57.3064C45.3198 56.8033 45.7088 56.3969 46.2075 56.3969C46.7062 56.3969 47.1227 56.8033 47.1391 57.3064Z" fill="#263238"/>
<path d="M43.2565 57.3064C43.273 57.8095 42.8839 58.2159 42.3852 58.2159C41.8865 58.2159 41.4701 57.8095 41.4536 57.3064C41.4372 56.8033 41.8263 56.3969 42.3249 56.3969C42.8236 56.3969 43.2401 56.8033 43.2565 57.3064Z" fill="#263238"/>
<path d="M54.9069 57.3064C54.9234 57.8095 54.5343 58.2159 54.0356 58.2159C53.5369 58.2159 53.1205 57.8095 53.104 57.3064C53.0876 56.8033 53.4767 56.3969 53.9753 56.3969C54.474 56.3969 54.8905 56.8033 54.9069 57.3064Z" fill="#263238"/>
<path d="M58.7895 57.3064C58.8059 57.8095 58.4169 58.2159 57.9182 58.2159C57.4195 58.2159 57.003 57.8095 56.9866 57.3064C56.9701 56.8033 57.3592 56.3969 57.8579 56.3969C58.3566 56.3969 58.7731 56.8033 58.7895 57.3064Z" fill="#263238"/>
<path d="M91.4913 32.9862C91.8557 33.575 92.1599 34.1417 92.4722 34.7305C92.7846 35.3138 93.0668 35.9108 93.3436 36.5162C93.8888 37.727 94.3765 38.9764 94.741 40.3116C94.7903 40.4747 94.8259 40.6488 94.867 40.8202L94.9273 41.0773L94.9574 41.2044L94.993 41.4145C95.0725 41.9757 95.0013 42.4346 94.9081 42.8381C94.7108 43.6425 94.3957 44.2866 94.056 44.9003C93.3627 46.1138 92.5544 47.1477 91.6201 48.1262L90.4666 47.2444C91.0365 46.1553 91.5982 45.0136 92.0119 43.9162C92.2119 43.3716 92.3818 42.816 92.4311 42.3599C92.4558 42.136 92.4394 41.9425 92.4092 41.8706L92.2996 41.5334C92.2558 41.3952 92.2147 41.257 92.1599 41.116C91.7653 39.9992 91.2639 38.8797 90.7159 37.7767C90.1761 36.6766 89.5788 35.557 88.9924 34.5094L91.4913 32.9862Z" fill="#FF8B7B"/>
<path d="M90.7599 46.8463L89.5022 47.5208L90.9489 49.2292C90.9489 49.2292 91.8531 48.6127 91.8915 47.6729L90.7599 46.8463Z" fill="#FF8B7B"/>
<path d="M87.8088 48.574L89.3569 49.8152L90.9461 49.2292L89.4994 47.5208L87.8088 48.574Z" fill="#FF8B7B"/>
<path d="M82.515 23.9415C82.4848 24.0963 82.378 24.2041 82.2793 24.182C82.1807 24.1626 82.1231 24.0216 82.156 23.8668C82.1862 23.712 82.293 23.6042 82.3917 23.6264C82.4903 23.6485 82.5451 23.7894 82.515 23.9415Z" fill="#263238"/>
<path d="M82.3918 24.2069C82.3918 24.2069 81.8657 25.0224 81.3999 25.3734C81.6191 25.683 82.0986 25.6609 82.0986 25.6609L82.3918 24.2069Z" fill="#FF5652"/>
<path d="M81.8987 29.6304L81.9096 27.8198L84.288 28.1101C84.288 28.1101 84.2469 29.6691 82.918 30.1252L81.8987 29.6304Z" fill="#FF8B7B"/>
<path d="M82.5837 26.5123L84.2578 26.9988L84.288 28.1072L81.9097 27.817L82.5837 26.5123Z" fill="#FF8B7B"/>
<path opacity="0.2" d="M84.2578 26.9988L82.5836 26.5123L82.2576 27.1425C82.2987 28.2123 82.9453 29.0913 83.8029 29.4866C84.2687 28.8702 84.2879 28.1073 84.2879 28.1073L84.2578 26.9988Z" fill="black"/>
<path d="M83.2441 23.2035C83.266 23.2035 83.2879 23.1952 83.3071 23.1786C83.3454 23.1454 83.3454 23.0846 83.3126 23.0487C82.9701 22.6755 82.5536 22.7418 82.5372 22.7446C82.4878 22.7529 82.455 22.7999 82.4632 22.8496C82.4714 22.8994 82.5207 22.9326 82.5673 22.9243C82.581 22.9215 82.907 22.8745 83.181 23.1731C83.1975 23.1924 83.2194 23.2035 83.2441 23.2035Z" fill="#263238"/>
<path d="M86.7456 26.739C86.4688 28.1626 86.3017 30.1335 87.2881 31.0816C87.2881 31.0816 86.9017 32.5246 84.2823 32.5246C81.4025 32.5246 82.8958 31.2586 82.8958 31.2586C84.0932 30.8826 84.0823 29.5088 83.8083 28.4031L86.7456 26.739Z" fill="#FF8B7B"/>
<path d="M87.8279 32.0325C88.0854 31.6649 88.0745 30.5067 87.8005 30.3049C87.3593 29.9759 85.466 29.8985 82.9178 30.4901C83.1918 31.6124 82.6055 32.1984 82.6055 32.1984L87.8279 32.0325Z" fill="#E8505B"/>
<path d="M90.7406 31.5212C92.5462 31.9386 94.0368 36.5909 94.0368 36.5909L90.409 39.38C90.409 39.38 89.0774 38.114 88.4856 35.7864C87.8636 33.3483 88.8938 31.0927 90.7406 31.5212Z" fill="#E8505B"/>
<path opacity="0.4" d="M90.7406 31.5212C92.5462 31.9386 94.0368 36.5909 94.0368 36.5909L90.409 39.38C90.409 39.38 89.0774 38.114 88.4856 35.7864C87.8636 33.3483 88.8938 31.0927 90.7406 31.5212Z" fill="black"/>
<path d="M81.241 37.0718C80.7889 37.5639 80.3395 37.9979 79.8765 38.4484C79.6463 38.6724 79.4079 38.8907 79.1668 39.1063L78.8024 39.427L78.712 39.5072C78.6681 39.5459 78.6133 39.5901 78.5558 39.6371C78.4352 39.7283 78.3037 39.8306 78.027 39.9522C77.8818 40.0103 77.6927 40.0849 77.3612 40.0904C77.205 40.0932 76.9912 40.0656 76.7857 39.9882C76.5775 39.9108 76.3747 39.7753 76.2377 39.6371C75.95 39.3468 75.8651 39.0925 75.8076 38.9211C75.7555 38.7442 75.7391 38.6198 75.7281 38.5093C75.7117 38.2936 75.7226 38.1499 75.7336 38.0145C75.7473 37.8818 75.7637 37.7657 75.7856 37.6579C75.8651 37.2322 75.9802 36.8866 76.1035 36.5439C76.2295 36.2038 76.3665 35.8749 76.5282 35.5459C76.7008 35.1949 76.8707 34.9378 77.0378 34.6448C77.7146 33.5031 78.5092 32.461 79.3531 31.4769C80.2162 30.5011 81.1204 29.6083 82.1616 28.79L83.17 29.8377C82.4603 30.7941 81.7643 31.8197 81.1204 32.8287C80.4765 33.8459 79.882 34.8825 79.3668 35.9385C79.249 36.1983 79.1038 36.483 79.0216 36.7014C78.9257 36.9391 78.838 37.1962 78.764 37.4478C78.6928 37.6966 78.6353 37.9564 78.6079 38.1471C78.6024 38.1941 78.5996 38.2328 78.5996 38.2577C78.5996 38.2798 78.6051 38.2909 78.6024 38.2328C78.5996 38.1997 78.5969 38.1527 78.5668 38.0532C78.5339 37.9564 78.4818 37.774 78.2517 37.539C78.1393 37.4284 77.9722 37.3123 77.7996 37.2515C77.6324 37.1852 77.4571 37.1658 77.3392 37.1658C77.0844 37.1713 76.9721 37.2239 76.8981 37.2515C76.7638 37.3096 76.7611 37.3261 76.7611 37.3206L76.8652 37.2239L77.194 36.9198L77.8489 36.3006C78.2818 35.8887 78.7175 35.4492 79.1312 35.0401L81.241 37.0718Z" fill="#FF8B7B"/>
<path opacity="0.2" d="M89.1924 34.9434C90.1733 35.9219 90.4939 37.7076 90.5706 39.2584L90.4117 39.3828C90.4117 39.3828 89.0801 38.114 88.4855 35.7892C88.4499 35.6427 88.417 35.499 88.3923 35.3552L89.1924 34.9434Z" fill="black"/>
<path d="M79.3256 33.47C78.931 35.5708 78.6844 39.8831 79.8298 48.4275H90.1377C90.2089 46.8298 89.2143 39.0428 90.7405 31.5212C90.7405 31.5212 88.9732 31.1646 87.2908 31.0816C85.9728 31.0181 84.0658 30.9738 82.9095 31.0816C82.4273 31.1259 81.9505 31.1977 81.5286 31.2724C80.4106 31.4714 79.5366 32.3477 79.3256 33.47Z" fill="#E8505B"/>
<path opacity="0.4" d="M79.3256 33.47C78.931 35.5708 78.6844 39.8831 79.8298 48.4275H90.1377C90.2089 46.8298 89.2143 39.0428 90.7405 31.5212C90.7405 31.5212 88.9732 31.1646 87.2908 31.0816C85.9728 31.0181 84.0658 30.9738 82.9095 31.0816C82.4273 31.1259 81.9505 31.1977 81.5286 31.2724C80.4106 31.4714 79.5366 32.3477 79.3256 33.47Z" fill="black"/>
<path opacity="0.2" d="M80.9041 36.5742L79.0409 36.1237C78.9834 37.2625 78.9779 38.6723 79.0629 40.4166C79.9177 39.4325 81.0137 37.8983 80.9041 36.5742Z" fill="black"/>
<path d="M87.6608 24.6575C87.1648 26.5206 86.9703 27.6374 85.8305 28.4114C84.1152 29.5779 81.9808 28.24 81.9123 26.2635C81.852 24.4861 82.6712 21.7356 84.655 21.3597C86.6086 20.992 88.1567 22.7943 87.6608 24.6575Z" fill="#FF8B7B"/>
<path d="M83.337 24.7293C83.2466 24.4806 82.8192 22.5538 83.2192 22.0535C83.6192 21.5532 88.1813 21.9125 88.8554 22.5815C89.9733 23.6927 89.1979 24.6851 87.9731 25.9622C87.0525 26.9242 87.0168 28.0078 86.551 28.1681C85.7373 28.4473 84.4741 28.1847 84.2193 27.3084C83.9672 26.4321 83.337 24.7293 83.337 24.7293Z" fill="#263238"/>
<path d="M88.3019 20.3921C86.6908 19.6983 83.6659 20.4668 82.0356 20.0687C81.978 20.9229 82.4877 22.2884 84.1207 22.6561C84.1207 22.6561 86.4387 23.1122 88.2307 23.0376C90.0227 22.9657 89.6719 20.9809 88.3019 20.3921Z" fill="#263238"/>
<path d="M88.5542 22.6423C88.5542 22.6423 89.5516 22.7556 90.2585 22.3134C90.5626 23.0459 88.9049 23.2477 88.5542 22.6423Z" fill="#263238"/>
<path d="M84.2139 24.8067C84.1837 25.3126 83.9508 25.7853 83.6713 26.0977C83.2521 26.5648 82.8137 26.2746 82.737 25.7051C82.6712 25.1937 82.8082 24.334 83.3206 24.077C83.8303 23.8199 84.2495 24.229 84.2139 24.8067Z" fill="#FF8B7B"/>
<path d="M83.4851 48.4275C83.4851 48.4275 85.6716 63.2855 86.8717 68.8528C88.1869 74.9481 95.237 95.1163 95.237 95.1163L98.6866 94.3616C98.6866 94.3616 93.7574 77.9252 92.6531 69.4029C91.8065 62.8571 90.1351 48.4247 90.1351 48.4247H83.4851V48.4275Z" fill="#E8505B"/>
<path opacity="0.3" d="M84.8687 53.7211C87.3977 54.2215 87.1292 63.7361 86.8251 68.6289C86.0963 65.1708 85.0277 58.5144 84.2988 53.7902C84.466 53.7045 84.655 53.6797 84.8687 53.7211Z" fill="black"/>
<path d="M79.8271 48.4275C79.8271 48.4275 79.5613 62.9649 79.7723 68.8943C79.9915 75.0614 82.126 95.2545 82.126 95.2545H85.392C85.392 95.2545 85.5126 75.4208 85.6578 69.3642C85.8167 62.7603 86.6059 48.4275 86.6059 48.4275H79.8271Z" fill="#E8505B"/>
<path d="M83.3645 34.1085C84.2879 36.6213 78.8599 39.5818 78.8599 39.5818L76.509 36.5328C76.509 36.5328 78.0763 33.3843 80.0025 31.9662C82.3781 30.2109 82.6603 32.1956 83.3645 34.1085Z" fill="#E8505B"/>
<path opacity="0.4" d="M83.3645 34.1085C84.2879 36.6213 78.8599 39.5818 78.8599 39.5818L76.509 36.5328C76.509 36.5328 78.0763 33.3843 80.0025 31.9662C82.3781 30.2109 82.6603 32.1956 83.3645 34.1085Z" fill="black"/>
<path d="M104.632 15.0322C110.094 15.0322 114.521 12.1857 114.521 8.67432C114.521 5.16298 110.094 2.31647 104.632 2.31647C99.171 2.31647 94.7437 5.16298 94.7437 8.67432C94.7437 12.1857 99.171 15.0322 104.632 15.0322Z" fill="#E8505B"/>
<path d="M101.065 11.8754C100.517 11.8754 99.98 11.7095 99.5142 11.3889C98.8895 10.9604 98.4757 10.308 98.3442 9.55616C98.0976 8.11597 99.0456 6.68407 100.457 6.35788C101.618 6.09251 102.799 6.59285 103.421 7.60734L109.77 6.28601C110.285 6.17821 110.806 6.48781 110.934 6.97708C111.003 7.23693 110.962 7.50506 110.822 7.73173C110.682 7.9584 110.463 8.1132 110.203 8.16849L110.036 8.20443C109.986 8.21548 109.945 8.24589 109.921 8.29012C109.896 8.33435 109.893 8.38687 109.91 8.43386L110.022 8.72688C110.099 8.9259 110.028 9.14981 109.852 9.25762C109.718 9.34331 109.625 9.48982 109.606 9.64738C109.584 9.84365 109.455 9.99292 109.277 10.0316L109.145 10.0593C108.967 10.0952 108.789 10.0095 108.693 9.83812C108.578 9.63909 108.351 9.53681 108.126 9.5838C107.901 9.6308 107.731 9.816 107.704 10.0454C107.682 10.2417 107.551 10.391 107.372 10.4297L107.244 10.4573C107.068 10.4933 106.888 10.4076 106.792 10.2362C106.712 10.098 106.57 9.99845 106.411 9.97633C106.208 9.94593 106.055 9.76901 106.046 9.55616L106.033 9.24103C106.03 9.19128 106.008 9.14428 105.967 9.11388C105.929 9.08347 105.879 9.06965 105.827 9.0807L103.805 9.50088C103.632 10.6563 102.769 11.5824 101.627 11.8201C101.44 11.856 101.251 11.8754 101.065 11.8754ZM100.517 6.62602C99.2457 6.91627 98.3935 8.20995 98.6155 9.5064C98.7305 10.1837 99.1059 10.7724 99.6676 11.1594C100.229 11.5464 100.909 11.6847 101.575 11.5437C102.635 11.3225 103.427 10.4463 103.55 9.36266L103.561 9.26315L105.775 8.80151C105.904 8.77387 106.035 8.80704 106.139 8.88721C106.244 8.96737 106.304 9.089 106.309 9.22168L106.323 9.53681C106.326 9.61698 106.383 9.68332 106.455 9.69438C106.698 9.73031 106.909 9.87405 107.033 10.0897C107.063 10.1422 107.12 10.1919 107.194 10.1781L107.323 10.1505C107.394 10.1367 107.43 10.0648 107.436 10.004C107.477 9.65568 107.734 9.37648 108.074 9.30461C108.414 9.23274 108.759 9.3903 108.932 9.69161C108.962 9.74413 109.019 9.79665 109.093 9.78007L109.225 9.75243C109.296 9.7386 109.332 9.66673 109.337 9.60868C109.364 9.36266 109.501 9.14705 109.71 9.01436C109.77 8.97566 109.795 8.88997 109.767 8.8181L109.655 8.52508C109.608 8.40346 109.617 8.26524 109.68 8.14914C109.743 8.03304 109.852 7.95288 109.978 7.92523L110.145 7.8893C110.332 7.8506 110.488 7.74003 110.587 7.5797C110.685 7.41661 110.715 7.22587 110.666 7.04066C110.576 6.69236 110.197 6.47398 109.822 6.55138L103.282 7.91418L103.232 7.82848C102.687 6.86375 101.597 6.38 100.517 6.62602ZM101.068 10.8526C100.728 10.8526 100.396 10.7531 100.106 10.5596C99.7142 10.2998 99.4457 9.9017 99.3525 9.4373C99.2566 8.9729 99.347 8.5002 99.6046 8.10491C99.8622 7.70962 100.257 7.44148 100.717 7.34473C101.177 7.24798 101.646 7.33921 102.038 7.59905C102.43 7.85889 102.695 8.25695 102.791 8.72135C102.887 9.18575 102.797 9.65568 102.539 10.051C102.282 10.4463 101.887 10.7172 101.427 10.8111C101.306 10.8416 101.186 10.8526 101.068 10.8526ZM101.076 7.58799C100.975 7.58799 100.873 7.59905 100.772 7.6184C100.385 7.69856 100.051 7.928 99.8348 8.25971C99.6183 8.59419 99.5416 8.99225 99.621 9.38201C99.7005 9.77178 99.9279 10.109 100.257 10.3274C100.588 10.5458 100.983 10.6232 101.369 10.543C101.758 10.4628 102.09 10.2334 102.306 9.9017C102.523 9.56722 102.599 9.16916 102.52 8.7794C102.44 8.38687 102.213 8.05239 101.884 7.83125C101.64 7.67092 101.361 7.58799 101.076 7.58799Z" fill="white"/>
<path opacity="0.6" d="M96.5851 18.7612C98.3798 18.7612 99.8347 17.8256 99.8347 16.6714C99.8347 15.5172 98.3798 14.5816 96.5851 14.5816C94.7904 14.5816 93.3354 15.5172 93.3354 16.6714C93.3354 17.8256 94.7904 18.7612 96.5851 18.7612Z" fill="#E8505B"/>
<path opacity="0.3" d="M91.4147 19.6153C92.1517 19.6153 92.7491 19.2317 92.7491 18.7584C92.7491 18.2851 92.1517 17.9015 91.4147 17.9015C90.6777 17.9015 90.0803 18.2851 90.0803 18.7584C90.0803 19.2317 90.6777 19.6153 91.4147 19.6153Z" fill="#E8505B"/>
</g>
</svg>
