<svg width="14" height="14" viewBox="0 0 14 14" fill="none" xmlns="http://www.w3.org/2000/svg">
<path d="M13.9869 4.70663L13.195 1.53737C13.0979 1.148 12.7479 0.875 12.3462 0.875H1.65463C1.253 0.875 0.903 1.148 0.805 1.53737L0.013125 4.70663C0.004375 4.74075 0 4.77662 0 4.8125C0 6.01825 0.931875 7 2.07812 7C2.744 7 3.33812 6.66838 3.71875 6.15387C4.09937 6.66838 4.6935 7 5.35938 7C6.02525 7 6.61938 6.66838 7 6.15387C7.38062 6.66838 7.97388 7 8.64062 7C9.30737 7 9.90063 6.66838 10.2812 6.15387C10.6619 6.66838 11.2551 7 11.9219 7C13.0681 7 14 6.01825 14 4.8125C14 4.77662 13.9956 4.74075 13.9869 4.70663Z" fill="white"/>
<path d="M11.9219 7.8751C11.326 7.8751 10.7599 7.6931 10.2812 7.3606C9.324 8.02647 7.95725 8.02647 7 7.3606C6.04275 8.02647 4.676 8.02647 3.71875 7.3606C3.24012 7.6931 2.674 7.8751 2.07812 7.8751C1.6485 7.8751 1.24338 7.77447 0.875 7.60297V12.2501C0.875 12.7331 1.267 13.1251 1.75 13.1251H5.25V9.6251H8.75V13.1251H12.25C12.733 13.1251 13.125 12.7331 13.125 12.2501V7.60297C12.7566 7.77447 12.3515 7.8751 11.9219 7.8751Z" fill="white"/>
</svg>
