<svg width="14" height="16" viewBox="0 0 14 16" fill="none" xmlns="http://www.w3.org/2000/svg">
<path fill-rule="evenodd" clip-rule="evenodd" d="M10.3082 1.07646L10.3089 1.63868C12.3749 1.8006 13.7396 3.2084 13.7418 5.36731L13.75 11.6866C13.7529 14.0405 12.2742 15.4887 9.90385 15.4925L4.11391 15.5C1.7584 15.503 0.261112 14.0202 0.25815 11.6597L0.250005 5.41454C0.247043 3.24138 1.56364 1.83733 3.62963 1.64768L3.62889 1.08546C3.62815 0.755624 3.87251 0.507498 4.19833 0.507498C4.52415 0.506748 4.76851 0.754124 4.76925 1.08396L4.76999 1.6087L9.16854 1.6027L9.1678 1.07796C9.16706 0.748127 9.41142 0.500751 9.73724 0.500002C10.0557 0.499252 10.3074 0.746628 10.3082 1.07646ZM1.3911 5.64617L12.6022 5.63118V5.36881C12.5704 3.75712 11.7617 2.91155 10.3104 2.78561L10.3111 3.36282C10.3111 3.68516 10.0601 3.94078 9.74168 3.94078C9.41586 3.94153 9.17075 3.68666 9.17075 3.36432L9.17001 2.75712L4.77147 2.76312L4.77221 3.36957C4.77221 3.69265 4.52858 3.94753 4.20277 3.94753C3.87695 3.94828 3.63184 3.69415 3.63184 3.37106L3.6311 2.79385C2.18714 2.93853 1.38814 3.78711 1.39036 5.41304L1.3911 5.64617ZM9.42991 9.05322V9.06146C9.43732 9.40629 9.7187 9.66791 10.0601 9.66041C10.3933 9.65217 10.6591 9.36656 10.6517 9.02173C10.6362 8.6919 10.3689 8.42278 10.0364 8.42353C9.69575 8.43103 9.42917 8.70839 9.42991 9.05322ZM10.0416 12.419C9.70096 12.4115 9.42624 12.1274 9.4255 11.7826C9.41809 11.4378 9.69133 11.1522 10.032 11.1439H10.0394C10.3874 11.1439 10.6695 11.428 10.6695 11.7804C10.6703 12.1327 10.3889 12.4183 10.0416 12.419ZM6.37909 9.06521C6.3939 9.41004 6.67603 9.67916 7.01666 9.66416C7.34988 9.64842 7.61572 9.36356 7.60091 9.01874C7.59276 8.68141 7.31878 8.41904 6.98556 8.41979C6.64493 8.43478 6.37835 8.72039 6.37909 9.06521ZM7.0196 12.3853C6.67897 12.4003 6.39758 12.1312 6.38203 11.7864C6.38203 11.4415 6.64787 11.1567 6.9885 11.1409C7.32172 11.1402 7.59645 11.4025 7.60385 11.7391C7.6194 12.0847 7.35282 12.3696 7.0196 12.3853ZM3.32824 9.09145C3.34305 9.43628 3.62517 9.70614 3.9658 9.6904C4.29903 9.67541 4.56486 9.3898 4.54931 9.04497C4.54191 8.70764 4.26792 8.44527 3.93396 8.44602C3.59333 8.46101 3.3275 8.74662 3.32824 9.09145ZM3.96878 12.389C3.62815 12.4048 3.34676 12.1349 3.33121 11.7901C3.33047 11.4453 3.59705 11.1597 3.93767 11.1447C4.2709 11.1439 4.54562 11.4063 4.55303 11.7436C4.56858 12.0884 4.30274 12.3741 3.96878 12.389Z" fill="white"/>
</svg>
