<svg width="78" height="60" viewBox="0 0 78 60" fill="none" xmlns="http://www.w3.org/2000/svg">
<path d="M63.7223 23.3227C64.8805 22.106 66.0388 20.893 67.197 19.6763C67.3625 19.5004 67.5316 19.3245 67.6971 19.1485C68.0023 18.826 67.5169 18.3386 67.2081 18.6611C66.0498 19.8778 64.8916 21.0909 63.7333 22.3076C63.5679 22.4835 63.3987 22.6594 63.2332 22.8353C62.9281 23.1578 63.4171 23.6452 63.7223 23.3227Z" fill="white"/>
<path d="M38.3955 12.4823C36.9835 10.8881 34.895 9.69337 32.8616 9.12166C30.9091 8.5756 28.872 8.6489 26.9343 9.21694C25.2907 9.7007 23.7206 10.5326 22.7021 11.9399C21.8343 13.1419 21.61 14.6482 21.8233 16.0848C22.0549 17.6386 22.783 19.3684 23.9927 20.4129C25.3568 21.5856 27.1218 21.7835 28.8463 21.527C29.7178 21.3987 30.5708 21.1605 31.4018 20.8747C32.2659 20.5778 33.1668 20.27 33.9426 19.7825C36.2187 18.3533 37.7998 15.6816 38.5756 13.1566C38.8404 12.299 37.4909 11.9326 37.2298 12.7865C36.693 14.5382 35.6708 16.4109 34.2735 17.7596C33.141 18.8517 31.6592 19.3757 30.17 19.8082C28.8095 20.204 27.2248 20.5155 25.8606 19.9621C24.5075 19.4124 23.7757 18.0161 23.386 16.6895C23.0587 15.579 22.9925 14.3403 23.522 13.2812C24.1251 12.0755 25.287 11.2876 26.5224 10.8221C28.1992 10.1881 30.0266 9.93524 31.7916 10.2944C33.9058 10.7232 36.0017 11.8739 37.41 13.4644C38.002 14.1388 38.9874 13.1529 38.3955 12.4823Z" fill="white"/>
<path d="M38.0865 12.3027C36.9724 12.1268 35.8435 12.0242 34.7184 11.9765C33.0122 11.9032 31.0524 11.8849 29.4934 12.6765C28.5888 13.1383 27.7247 14.1021 27.7394 15.1649C27.7578 16.2607 28.6771 17.0449 29.6699 17.3271C31.4789 17.8402 33.266 16.8214 34.7735 15.9272C35.9759 15.2126 37.1415 14.4246 38.252 13.5744C38.5498 13.3472 38.7079 12.977 38.502 12.6215C38.3292 12.3284 37.8475 12.1415 37.546 12.3723C36.7701 12.966 35.9612 13.5267 35.1412 14.0581C33.9021 14.8607 32.56 15.7513 31.1149 16.0555C31.0708 16.0664 30.92 16.0811 31.0451 16.0701C30.9421 16.0811 30.8391 16.0811 30.7362 16.0811C30.4972 16.0774 30.2729 16.0481 30.0449 15.9858C29.736 15.8979 29.4125 15.7366 29.2397 15.4654C28.8756 14.8974 29.6037 14.1974 30.1368 13.9115C30.6296 13.6477 31.4017 13.4901 32.0378 13.4241C32.8505 13.3398 33.6704 13.3325 34.483 13.3582C35.2699 13.3838 36.0531 13.4461 36.8326 13.5304C36.9724 13.5451 37.1084 13.5634 37.2481 13.5781C37.307 13.5854 37.3658 13.5927 37.421 13.6C37.5864 13.622 37.318 13.5854 37.4246 13.6C37.5202 13.6147 37.6158 13.6257 37.7151 13.6404C38.0865 13.699 38.4652 13.5451 38.5719 13.1529C38.6638 12.8268 38.4615 12.3613 38.0865 12.3027Z" fill="white"/>
<path d="M38.0864 13.644C40.1381 13.098 42.3002 12.8231 44.4181 12.7828C46.981 12.7351 50.6543 12.9367 51.6692 15.7916C52.0222 16.7884 52.0405 17.8732 51.7795 18.881C51.5515 19.7679 51.1176 20.6731 50.3528 21.1092C49.224 21.7542 47.6796 21.4683 46.503 21.1312C45.1499 20.7464 43.7563 20.116 42.701 19.1705C41.5207 18.1114 40.6823 16.6491 39.9028 15.2858C39.4064 14.4136 38.9321 13.5267 38.5019 12.6215C38.1194 11.8116 36.9171 12.5189 37.2958 13.3252C37.6892 14.1644 38.1268 14.9817 38.5828 15.7916C39.377 17.1989 40.2374 18.6318 41.3552 19.8119C42.4583 20.9736 43.9695 21.7469 45.4698 22.2709C46.9516 22.7913 48.7239 23.1322 50.2645 22.6521C52.7906 21.8678 53.6253 18.7491 53.2539 16.4036C53.0444 15.0806 52.3641 13.8346 51.3015 13.0027C49.9189 11.9179 48.0988 11.5954 46.3853 11.4561C43.5209 11.2253 40.4874 11.5734 37.7113 12.31C36.8509 12.5336 37.2186 13.8749 38.0864 13.644Z" fill="white"/>
<path d="M37.9027 13.6697C38.7999 13.7173 39.7191 13.8126 40.5906 13.9299C42.1239 14.1388 43.819 14.4063 45.1979 15.055C45.7935 15.3372 46.2936 15.6377 46.5216 16.257C46.5216 16.2534 46.5179 16.334 46.5179 16.2497C46.5179 16.202 46.5142 16.2167 46.551 16.213C46.5436 16.213 46.4039 16.3486 46.4958 16.2827C46.426 16.334 46.3488 16.3743 46.2715 16.4109C46.0509 16.5099 45.6354 16.5722 45.3266 16.5832C44.9405 16.5942 44.5544 16.5685 44.1793 16.4732C44.1205 16.4586 44.0617 16.4403 44.0028 16.4219C43.9734 16.4109 43.7933 16.345 43.9072 16.3926C43.7638 16.334 43.6204 16.2607 43.4844 16.1874C42.7747 15.8136 42.1092 15.3518 41.4584 14.8864C40.4067 14.1314 39.3845 13.3288 38.3954 12.4896C37.7152 11.9142 36.7224 12.8927 37.41 13.4718C38.4248 14.333 39.4728 15.1539 40.5501 15.9382C41.9621 16.968 43.4072 18.0015 45.2273 17.9795C46.095 17.9685 47.1981 17.7816 47.6982 16.9863C48.2387 16.1324 47.621 15.1026 46.9518 14.5309C45.6281 13.3985 43.6572 13.0357 41.9878 12.7535C40.6384 12.5226 39.2706 12.3577 37.9027 12.288C37.0055 12.2331 37.0055 13.622 37.9027 13.6697Z" fill="white"/>
<path d="M38.5979 12.9734C38.5097 10.8514 39.3407 8.45833 40.9254 6.93378C42.1719 5.73539 43.9185 4.85218 45.6908 5.04641C47.0182 5.193 48.1323 5.98093 48.489 7.28927C48.8935 8.76618 48.6067 10.7305 47.533 11.8776C46.9226 12.5299 47.9044 13.5157 48.5184 12.8598C49.7465 11.5478 50.2135 9.54311 49.9966 7.79134C49.7723 5.97727 48.7501 4.55533 47.0035 3.92865C45.1319 3.25799 43.0066 3.77473 41.3777 4.8192C39.6201 5.94429 38.381 7.59711 37.7338 9.5651C37.3808 10.6352 37.1529 11.8373 37.2007 12.9734C37.2411 13.8676 38.6384 13.8712 38.5979 12.9734Z" fill="white"/>
<path d="M39.9691 12.999C40.2154 12.4749 40.4838 11.9582 40.7633 11.4525C41.017 10.9907 41.2854 10.5363 41.5722 10.0928C41.7119 9.8766 41.8554 9.66771 42.0024 9.45882C42.0355 9.41484 42.1973 9.19862 42.1348 9.27924C42.2194 9.17296 42.3076 9.06668 42.3959 8.96407C42.5282 8.81381 42.668 8.67822 42.815 8.54262C42.8445 8.51696 42.9805 8.42534 42.8298 8.52796C42.8812 8.49131 42.9327 8.45833 42.9842 8.42168C43.1349 8.32639 43.2931 8.23478 43.4548 8.16881C43.5247 8.13949 43.7086 8.08452 43.8225 8.05886C43.8703 8.04787 43.9218 8.03688 43.9696 8.02955C43.8373 8.04787 44.0579 8.02588 44.0652 8.02588C44.1314 8.02588 44.1976 8.02588 44.2638 8.03321C44.1093 8.02222 44.2969 8.04421 44.3226 8.05154C44.3594 8.06253 44.3998 8.07352 44.4366 8.08818C44.2233 8.00389 44.6241 8.18347 44.4219 8.08085C44.444 8.09185 44.5653 8.23478 44.466 8.10651C44.4881 8.13583 44.5138 8.17247 44.5285 8.20546C44.6057 8.36671 44.5175 8.08085 44.5506 8.26409C44.5543 8.27509 44.5874 8.48398 44.5726 8.34472C44.58 8.42168 44.5763 8.49498 44.5763 8.57194C44.5763 8.74052 44.5763 8.61591 44.5837 8.57194C44.5616 8.7002 44.5212 8.82114 44.4807 8.94575C44.4219 9.12166 44.5212 8.86878 44.4697 8.97506C44.4476 9.02271 44.4256 9.07035 44.3998 9.11433C44.3373 9.2316 44.2711 9.34154 44.2013 9.45149C44.1388 9.54677 44.0726 9.64206 44.0064 9.73368C44.0064 9.73368 43.8667 9.91325 43.9476 9.8143C43.8961 9.88027 43.8446 9.94257 43.7931 10.0049C43.2747 10.6206 42.6864 11.1959 42.0576 11.7017C41.7634 11.9399 41.8112 12.4383 42.0576 12.6838C42.3481 12.9734 42.7489 12.922 43.043 12.6838C43.6534 12.1928 44.2233 11.6357 44.7308 11.042C45.5287 10.1075 46.4185 8.77716 45.7456 7.52747C45.0102 6.15684 43.0945 6.60761 42.0796 7.35889C41.153 8.04421 40.5096 9.10333 39.9323 10.0818C39.5058 10.8038 39.1086 11.5441 38.7556 12.299C38.5975 12.6399 38.66 13.0503 39.0057 13.2519C39.3146 13.4278 39.8073 13.3435 39.9691 12.999Z" fill="white"/>
<path d="M40.0649 7.74003C39.7818 5.30295 38.7633 2.591 36.7372 1.08477C35.9614 0.509396 35.0789 0.223543 34.1303 0.102604C32.8727 -0.0586465 31.5931 -0.0403226 30.354 0.238202C28.4456 0.663318 26.6182 1.8104 25.9195 3.70143C25.5004 4.83385 25.4048 6.2448 25.6952 7.41753C25.9931 8.61959 26.7836 9.54311 27.7838 10.2394C28.5192 10.7525 29.2178 9.55044 28.4898 9.03737C27.7838 8.54629 27.2506 7.89029 27.041 7.04739C26.8241 6.17517 26.9381 5.193 27.1807 4.33544C27.6146 2.81089 29.1516 1.95699 30.604 1.60883C31.6299 1.36329 32.6962 1.3413 33.7442 1.44758C34.5384 1.52821 35.2701 1.72977 35.9246 2.2062C36.9726 2.96847 37.6455 4.2145 38.0646 5.37991C38.2705 5.94795 38.4323 6.53065 38.5573 7.12068C38.5978 7.30759 38.6309 7.49449 38.6603 7.6814C38.6713 7.74003 38.675 7.79867 38.686 7.85731C38.6382 7.58611 38.664 7.6814 38.6713 7.74736C38.7155 8.12117 38.9618 8.44368 39.37 8.44368C39.7082 8.43635 40.109 8.11751 40.0649 7.74003Z" fill="white"/>
<path d="M37.0348 11.4378C36.9355 10.8038 36.7921 10.1735 36.6266 9.55045C36.3214 8.37771 35.9317 7.17566 35.2919 6.13852C34.9242 5.5375 34.4315 4.9438 33.777 4.64329C33.1261 4.33911 32.4238 4.31346 31.7693 4.62863C31.1957 4.90349 30.7729 5.46787 30.5964 6.06889C30.4015 6.73955 30.5375 7.41021 30.8059 8.03689C31.2067 8.96042 31.9164 9.81065 32.6665 10.4813C32.946 10.7305 33.3762 10.7562 33.6519 10.4813C33.9056 10.2284 33.9351 9.74835 33.6519 9.49914C33.4828 9.34888 33.321 9.18397 33.1666 9.01905C33.0158 8.8578 32.8687 8.69289 32.7327 8.52064C32.729 8.51698 32.5966 8.34473 32.6775 8.45101C32.6371 8.39604 32.593 8.34107 32.5562 8.28243C32.4753 8.16882 32.3944 8.05155 32.3209 7.93061C32.2584 7.83166 32.1995 7.72904 32.1444 7.62277C32.1113 7.56046 32.0819 7.49816 32.0524 7.4322C31.9605 7.23063 32.0892 7.54947 32.0194 7.34424C31.9826 7.23796 31.9495 7.13168 31.9238 7.0254C31.9201 7.00708 31.887 6.79819 31.9054 6.95577C31.898 6.87148 31.8943 6.78719 31.898 6.69924C31.898 6.65526 31.9017 6.61128 31.909 6.56731C31.8907 6.72489 31.9238 6.51966 31.9274 6.50134C31.9421 6.43904 31.9642 6.3804 31.9826 6.32176C31.9311 6.46469 32.001 6.28512 32.012 6.26679C32.0304 6.23014 32.0524 6.19716 32.0745 6.16418C32.0892 6.14219 32.2106 6.00293 32.1076 6.11287C32.148 6.06889 32.1922 6.02858 32.2289 5.9846C32.3098 5.89298 32.1554 6.01392 32.2951 5.9333C32.3356 5.90764 32.3797 5.88565 32.4201 5.86C32.5672 5.76838 32.3025 5.88199 32.4679 5.83801C32.5231 5.82335 32.7842 5.7867 32.6297 5.79037C32.6922 5.7867 32.7511 5.79037 32.8136 5.7867C32.9901 5.78304 32.7033 5.74639 32.8798 5.79403C32.946 5.81236 33.0085 5.82702 33.0746 5.84901C33.2033 5.89298 33.0342 5.81602 33.1666 5.89298C33.4276 6.03958 33.5931 6.19716 33.8027 6.43537C34.0049 6.66625 33.7512 6.34375 33.8689 6.51966C33.9057 6.57097 33.9424 6.62228 33.9792 6.67725C34.0527 6.78719 34.1226 6.9008 34.1851 7.01441C34.4756 7.52015 34.619 7.86831 34.8065 8.39604C34.983 8.88712 35.1338 9.38553 35.2661 9.89127C35.4316 10.5216 35.5787 11.163 35.6816 11.808C35.7405 12.1781 36.2074 12.3833 36.5384 12.2954C36.9465 12.1854 37.0936 11.8116 37.0348 11.4378Z" fill="white"/>
<path d="M32.4973 20.1344C32.6996 21.45 33.457 22.8133 34.494 23.6379C35.5309 24.4625 36.781 24.73 38.0864 24.6677C39.5425 24.5981 41.0243 24.2243 42.2561 23.4254C43.1459 22.85 44.124 21.9558 44.2968 20.8527C44.3556 20.4789 44.2012 20.1087 43.8078 19.9988C43.4768 19.9035 43.0062 20.1124 42.951 20.4862C42.8959 20.827 42.8187 20.9883 42.587 21.2998C42.3811 21.5783 42.0428 21.8898 41.7303 22.1097C40.7743 22.7767 39.6234 23.1505 38.4651 23.2531C37.4061 23.3484 36.3251 23.2934 35.4463 22.6301C34.858 22.1867 34.4609 21.5746 34.1704 20.8966C34.2108 20.9919 34.1299 20.7904 34.1152 20.7574C34.0821 20.6731 34.0527 20.5888 34.027 20.5045C33.9865 20.3799 33.9498 20.2516 33.9167 20.127C33.8872 20.0098 33.8578 19.8888 33.8394 19.7679C33.7843 19.3977 33.3136 19.1889 32.9827 19.2805C32.5856 19.3904 32.4385 19.7606 32.4973 20.1344Z" fill="white"/>
<path d="M35.3106 16.7774C35.2224 17.8402 35.5018 19.0899 36.2519 19.8742C36.9101 20.5631 37.925 20.783 38.8405 20.5998C39.6421 20.4385 40.2893 19.8668 40.7195 19.1925C40.9658 18.8077 41.1681 18.3569 41.271 17.9062C41.3519 17.5507 41.1644 17.1366 40.782 17.0523C40.429 16.9717 40.0098 17.1586 39.9253 17.5397C39.9069 17.624 39.8811 17.7046 39.8554 17.7852C39.826 17.8695 39.7929 17.9502 39.7635 18.0344C39.723 18.1517 39.8407 17.8659 39.7855 17.9831C39.7745 18.0015 39.7671 18.0234 39.7598 18.0418C39.7304 18.1041 39.701 18.1664 39.6679 18.2287C39.609 18.3423 39.5428 18.4522 39.473 18.5548C39.4436 18.6025 39.3333 18.7967 39.4399 18.6098C39.3994 18.6758 39.3296 18.7417 39.2781 18.7967C39.2303 18.848 39.1788 18.8993 39.1274 18.9433C39.0943 18.9726 39.0612 18.9983 39.0281 19.0276C39.0428 19.0166 39.1641 18.9396 39.0648 18.9983C39.0023 19.0349 38.9435 19.0789 38.8773 19.1156C38.8369 19.1375 38.7964 19.1559 38.756 19.1779C38.6383 19.2438 38.892 19.1375 38.7523 19.1779C38.6751 19.1998 38.6015 19.2255 38.5243 19.2438C38.4839 19.2512 38.4398 19.2548 38.403 19.2658C38.3074 19.2951 38.5758 19.2585 38.4103 19.2621C38.3184 19.2658 38.2302 19.2695 38.1382 19.2658C38.0904 19.2658 38.0426 19.2548 37.9948 19.2548C37.9397 19.2475 37.9544 19.2512 38.039 19.2621C38.0022 19.2585 37.9691 19.2512 37.936 19.2438C37.8551 19.2255 37.7705 19.2072 37.6933 19.1779C37.6823 19.1742 37.5315 19.1156 37.6418 19.1632C37.7485 19.2072 37.6088 19.1449 37.5977 19.1412C37.5315 19.1082 37.469 19.0642 37.4028 19.0276C37.2741 18.958 37.4874 19.1082 37.4212 19.0459C37.3845 19.0093 37.344 18.98 37.3072 18.947C37.2558 18.8993 37.2116 18.8407 37.1638 18.7931C37.0793 18.7088 37.1896 18.8297 37.1933 18.8334C37.1638 18.8114 37.1418 18.7601 37.1197 18.7308C37.0829 18.6721 37.0462 18.6135 37.0131 18.5512C36.9984 18.5255 36.9873 18.5035 36.9763 18.4779C36.9506 18.4266 36.8476 18.2873 36.9616 18.4559C36.8219 18.2507 36.7814 17.8952 36.741 17.6533C36.7373 17.6276 36.7336 17.6057 36.73 17.58C36.7079 17.4481 36.7483 17.7669 36.7336 17.6057C36.73 17.5434 36.7226 17.4847 36.7152 17.4224C36.7079 17.3088 36.7005 17.1952 36.7005 17.0853C36.7005 16.9826 36.7005 16.8764 36.7079 16.7738C36.7373 16.4109 36.3659 16.0628 36.0093 16.0774C35.6048 16.1031 35.3437 16.389 35.3106 16.7774Z" fill="white"/>
<path d="M23.2828 11.4158C20.5434 12.1818 17.8078 12.9514 15.0684 13.7173C14.6823 13.8273 14.2926 13.9335 13.9065 14.0435C13.2483 14.2267 13.2373 15.2052 13.9065 15.3848C15.6751 15.8539 17.4401 16.3266 19.2087 16.7957C19.1057 16.4073 19.0028 16.0225 18.8998 15.634C17.3187 16.9094 15.7376 18.1847 14.1565 19.4564C13.5608 19.9365 14.2264 20.7317 14.8368 20.6181C17.3555 20.1527 19.8742 19.6873 22.3966 19.2218C22.7607 19.1559 23.1247 19.0862 23.4887 19.0203C24.3712 18.859 23.9961 17.5177 23.1173 17.679C20.5986 18.1444 18.0799 18.6098 15.5574 19.0752C15.1934 19.1412 14.8294 19.2108 14.4654 19.2768C14.6933 19.6653 14.9176 20.0501 15.1456 20.4385C16.7267 19.1632 18.3078 17.8879 19.8889 16.6162C20.3081 16.279 20.0507 15.579 19.5801 15.4544C17.8114 14.9853 16.0465 14.5126 14.2778 14.0435C14.2778 14.4906 14.2778 14.9377 14.2778 15.3848C17.0172 14.6189 19.7529 13.8492 22.4922 13.0833C22.8783 12.9734 23.2681 12.8671 23.6542 12.7571C24.5146 12.5153 24.1469 11.1703 23.2828 11.4158Z" fill="white"/>
<path d="M49.5366 10.6609C51.8641 10.2724 54.1917 9.88028 56.5192 9.49181C56.8538 9.43684 57.1884 9.3782 57.523 9.32323C57.2951 8.93476 57.0708 8.54996 56.8428 8.16149C55.7728 9.15098 54.7028 10.1441 53.6328 11.1336C53.1511 11.5771 53.5629 12.2661 54.1255 12.321C55.7544 12.475 57.3796 12.6289 59.0085 12.7828C58.946 12.3284 58.8835 11.8739 58.8247 11.4158C56.4567 12.2917 54.0924 13.1676 51.7244 14.0435C50.8897 14.3513 51.2501 15.6963 52.0958 15.3848C54.4638 14.5089 56.8281 13.633 59.1961 12.7571C59.9462 12.4786 59.8064 11.4671 59.0122 11.3902C57.3833 11.2363 55.7581 11.0823 54.1292 10.9284C54.2946 11.3242 54.4564 11.72 54.6219 12.1158C55.6919 11.1263 56.7619 10.1331 57.8319 9.14365C58.3871 8.63058 57.7878 7.87563 57.1516 7.98191C54.8241 8.37038 52.4966 8.76251 50.169 9.15098C49.8344 9.20596 49.4998 9.26459 49.1652 9.31956C48.2828 9.46616 48.6578 10.8075 49.5366 10.6609Z" fill="white"/>
<path d="M22.6173 22.4065C20.1721 22.0547 17.7232 21.7029 15.278 21.3511C11.3767 20.7904 7.47541 20.2297 3.57412 19.6653C2.67694 19.537 1.77607 19.4051 0.878888 19.2768C0.934043 19.7019 0.989197 20.1234 1.04435 20.5485C1.88271 19.9255 2.72106 19.3025 3.55574 18.6758C5.55602 17.1879 7.55262 15.6963 9.55291 14.2084C11.9834 12.398 14.4139 10.5876 16.8444 8.77718C18.9366 7.21964 21.0288 5.6621 23.121 4.10456C23.8196 3.58416 24.5146 3.06743 25.2132 2.54703C25.5221 2.31615 25.9339 2.09992 26.195 1.81407C26.206 1.80307 26.2244 1.79208 26.2391 1.78109C26.1214 1.81407 26.0038 1.84339 25.8861 1.87637C26.8605 1.93867 27.8312 1.99731 28.8056 2.05961C29.7028 2.11458 29.6991 0.725625 28.8056 0.670653C28.2136 0.634005 27.6216 0.597357 27.0296 0.560709C26.6068 0.535056 25.9192 0.362811 25.5294 0.590028C25.1985 0.780597 24.8933 1.06279 24.5881 1.29367C22.757 2.65697 20.9258 4.02394 19.0947 5.38724C16.4804 7.33325 13.8697 9.27925 11.2554 11.2253C8.8506 13.0173 6.44217 14.8094 4.03742 16.6015C2.82402 17.5067 1.60693 18.4046 0.397202 19.3135C0.378817 19.3245 0.364109 19.3391 0.345724 19.3501C-0.0660988 19.6579 -0.154347 20.5265 0.511189 20.6218C2.95639 20.9736 5.40526 21.3254 7.85046 21.6772C11.7517 22.238 15.653 22.7987 19.5543 23.3631C20.4515 23.4913 21.3524 23.6233 22.2496 23.7515C22.6246 23.8065 22.996 23.6599 23.1063 23.2641C23.1982 22.9379 22.9923 22.4615 22.6173 22.4065Z" fill="white"/>
<path d="M25.1143 20.116C24.5958 20.5192 24.081 20.9223 23.5626 21.3254C23.0368 21.7359 22.4154 22.1134 21.9447 22.5861C21.5733 22.9563 21.7241 23.9164 21.7204 24.3855C21.6836 27.3797 21.6505 30.3775 21.6138 33.3716C21.5696 37.1647 21.5218 40.9614 21.4777 44.7544C21.452 46.891 21.3821 49.0349 21.4005 51.1752C21.4079 51.8898 21.7829 52.4285 22.4521 52.6924C22.9559 52.8903 23.467 53.0699 23.9744 53.2604C25.5739 53.8578 27.1734 54.4552 28.7729 55.0489C28.8869 55.0928 29.0008 55.1331 29.1148 55.1771C29.545 55.3384 29.9973 54.9243 29.9973 54.5065C29.9973 51.0726 29.9973 47.635 29.9973 44.2011C29.9973 38.7222 29.9973 33.247 29.9973 27.7681C29.9973 26.5074 29.9973 25.2468 29.9973 23.9861C29.9274 24.151 29.8613 24.3122 29.7914 24.4771C31.082 23.3521 32.3726 22.227 33.6633 21.0982C34.3398 20.5082 33.3507 19.526 32.6778 20.116C31.6924 20.9773 30.707 21.8348 29.7179 22.6961C29.398 22.9782 28.7508 23.3557 28.6258 23.7992C28.5853 23.9421 28.6 24.107 28.6 24.2499C28.6 26.1556 28.6 28.0613 28.6 29.9707C28.6 33.2617 28.6 36.549 28.6 39.84C28.6 43.0467 28.6 46.2534 28.6 49.46C28.6 50.5778 28.6 51.6956 28.6 52.8133C28.6 53.3447 28.5449 53.9091 28.6 54.4368C28.6037 54.4588 28.6 54.4845 28.6 54.5065C28.8942 54.2829 29.1884 54.0594 29.4825 53.8358C28.4125 53.4363 27.3388 53.0369 26.2688 52.6374C25.5224 52.3589 24.7723 52.0804 24.0259 51.8018C23.7501 51.6992 23.478 51.5966 23.2022 51.494C23.0919 51.4537 22.9117 51.4207 22.8161 51.3511C22.8492 51.3767 22.7941 51.3218 22.7941 51.2375C22.7941 51.1825 22.7941 51.1312 22.7978 51.0762C22.8014 50.827 22.8051 50.5741 22.8051 50.3249C22.8161 49.3574 22.8272 48.3936 22.8382 47.4261C22.875 44.311 22.9117 41.1996 22.9485 38.0845C22.989 34.8339 23.0257 31.5832 23.0662 28.3325C23.0809 27.1781 23.0956 26.0237 23.1066 24.8693C23.114 24.3086 23.1802 23.7112 23.1287 23.1542C23.125 23.1285 23.1287 23.1028 23.1287 23.0772C23.0588 23.2421 22.9926 23.4034 22.9228 23.5683C23.9818 22.7437 25.037 21.9191 26.096 21.0982C26.3939 20.8637 26.335 20.3616 26.096 20.116C25.8092 19.8192 25.4084 19.8852 25.1143 20.116Z" fill="white"/>
<path d="M29.3535 24.708C30.964 25.0562 32.5745 25.4007 34.1887 25.7488C37.5164 26.4635 40.8478 27.1818 44.1754 27.8964C46.9626 28.4974 49.7534 29.0948 52.5406 29.6958C53.0259 29.7984 53.5076 29.923 53.9967 30.0073C54.4122 30.0806 54.6401 29.8681 54.9527 29.6592C55.427 29.3403 55.9014 29.0215 56.3757 28.7026C58.8062 27.0645 61.2367 25.43 63.6672 23.7918C63.7223 23.7552 63.7775 23.7185 63.8326 23.6819C64.5717 23.1835 63.8767 21.9778 63.1266 22.4798C60.413 24.3086 57.6994 26.1336 54.9821 27.9624C54.596 28.2226 54.2136 28.4791 53.8275 28.7393C54.0077 28.7173 54.1842 28.6917 54.3644 28.6697C51.5809 28.0723 48.7974 27.4713 46.0139 26.8739C41.5979 25.9247 37.1781 24.9756 32.762 24.0227C31.7472 23.8028 30.7324 23.5866 29.7175 23.3667C28.8497 23.1761 28.4747 24.5175 29.3535 24.708Z" fill="white"/>
<path d="M37.0385 3.15171C39.1675 3.69043 41.2928 4.23282 43.4218 4.77155C43.7196 4.84851 44.0211 4.9218 44.319 4.99876C45.1904 5.21865 45.5618 3.87734 44.6903 3.65745C42.5614 3.11873 40.4361 2.57634 38.3071 2.03761C38.0092 1.96065 37.7077 1.88735 37.4099 1.81039C36.5421 1.59051 36.1708 2.93182 37.0385 3.15171Z" fill="white"/>
<path d="M67.8075 19.5077C70.6792 17.3968 73.5509 15.2895 76.4264 13.1786C76.8308 12.8817 77.239 12.5812 77.6434 12.2844C78.0884 11.9582 78.1178 11.1556 77.478 11.0127C74.1466 10.2687 70.8153 9.52478 67.4839 8.78083C62.1817 7.5971 56.8795 6.41337 51.5809 5.22964C50.3749 4.96211 49.1725 4.69092 47.9665 4.42339C47.0913 4.22916 46.72 5.56681 47.5951 5.7647C50.9264 6.50866 54.2578 7.25261 57.5891 7.99656C62.8914 9.18029 68.1936 10.364 73.4921 11.5477C74.6982 11.8153 75.9005 12.0865 77.1066 12.354C77.0514 11.9289 76.9963 11.5074 76.9411 11.0823C74.0694 13.1932 71.1977 15.3005 68.3223 17.4114C67.9178 17.7083 67.5097 18.0088 67.1052 18.3056C66.8 18.5292 66.6529 18.9067 66.8552 19.2585C67.0243 19.559 67.506 19.7312 67.8075 19.5077Z" fill="white"/>
<path d="M52.4675 15.1099C56.7843 16.4109 61.1011 17.7156 65.4142 19.0166C66.0319 19.2035 66.6497 19.3904 67.2674 19.5773C67.0982 19.3538 66.9254 19.1302 66.7563 18.9067C66.7563 22.1463 66.7563 25.3897 66.7563 28.6294C66.7563 33.7857 66.7563 38.9458 66.7563 44.1021C66.7563 45.2749 66.7563 46.4476 66.7563 47.6203C66.8262 47.4554 66.8923 47.2942 66.9622 47.1292C65.6385 48.1737 64.3111 49.2145 62.9874 50.259C63.3845 50.4239 63.7816 50.5851 64.1787 50.7501C64.1787 47.6386 64.1787 44.5236 64.1787 41.4122C64.1787 36.4464 64.1787 31.4806 64.1787 26.5148C64.1787 25.3677 64.1787 24.2243 64.1787 23.0772C64.1787 22.7584 63.9581 22.5055 63.6676 22.4065C60.4208 21.3071 57.1741 20.2077 53.9309 19.1119C53.4787 18.958 53.0227 18.804 52.5705 18.6501C51.7174 18.3606 51.3534 19.7056 52.1991 19.9914C55.4459 21.0909 58.6927 22.1903 61.9358 23.2861C62.388 23.44 62.844 23.5939 63.2962 23.7479C63.1271 23.5243 62.9543 23.3008 62.7851 23.0772C62.7851 26.1886 62.7851 29.3037 62.7851 32.4151C62.7851 37.3809 62.7851 42.3467 62.7851 47.3125C62.7851 48.4596 62.7851 49.603 62.7851 50.7501C62.7851 51.4061 63.5242 51.5966 63.9765 51.2411C64.9399 50.4825 65.9032 49.7239 66.8666 48.9653C67.2159 48.6904 67.6388 48.4339 67.9476 48.1151C68.1462 47.9062 68.1572 47.6826 68.1572 47.4298C68.1572 45.6707 68.1572 43.9152 68.1572 42.1561C68.1572 39.0557 68.1572 35.9553 68.1572 32.8512C68.1572 29.7948 68.1572 26.742 68.1572 23.6856C68.1572 22.1207 68.2197 20.5375 68.1572 18.9726C68.1572 18.9506 68.1572 18.925 68.1572 18.903C68.1572 18.5915 67.9403 18.3203 67.6461 18.2323C63.3293 16.9313 59.0125 15.6267 54.6994 14.3257C54.0817 14.1388 53.464 13.9519 52.8462 13.765C51.9785 13.5121 51.6108 14.8534 52.4675 15.1099Z" fill="white"/>
<path d="M76.5919 11.6834C76.5919 15.7439 76.5919 19.8082 76.5919 23.8688C76.5919 24.4405 76.5919 25.0085 76.5919 25.5803C76.7058 25.3787 76.8235 25.1808 76.9375 24.9792C74.0731 27.0205 71.2087 29.0655 68.3444 31.1068C67.9289 31.4036 67.5171 31.6968 67.1016 31.9936C66.7927 32.2135 66.653 32.5983 66.8515 32.9465C67.0243 33.2507 67.4987 33.4119 67.8075 33.1957C70.8815 31.0041 73.9591 28.8089 77.0331 26.6174C77.4302 26.3315 77.9634 26.0713 77.9891 25.5326C78.0149 24.9829 77.9891 24.4222 77.9891 23.8725C77.9891 21.5233 77.9891 19.1742 77.9891 16.8251C77.9891 15.1136 77.9891 13.3985 77.9891 11.687C77.9891 10.7891 76.5919 10.7855 76.5919 11.6834Z" fill="white"/>
<path d="M63.1268 34.7166C60.1632 36.8568 57.2032 38.9971 54.2395 41.1373C53.824 41.4378 53.4049 41.7383 52.9894 42.0425C53.1695 42.0205 53.346 41.9949 53.5262 41.9729C50.82 41.2949 48.11 40.6169 45.4037 39.9389C41.087 38.8578 36.7738 37.7767 32.457 36.6956C31.4643 36.4464 30.4752 36.1972 29.4824 35.9516C28.6109 35.7317 28.2395 37.0731 29.111 37.2929C30.8061 37.7181 32.4975 38.1432 34.1926 38.5646C37.5901 39.4149 40.9913 40.2688 44.3889 41.119C47.0216 41.7786 49.658 42.4383 52.2907 43.098C52.7614 43.2152 53.3313 43.4681 53.7726 43.1823C54.6992 42.5849 55.5706 41.8849 56.4605 41.2399C58.8652 39.5028 61.2663 37.7657 63.671 36.0323C63.7225 35.9956 63.774 35.959 63.8255 35.9186C64.1343 35.6951 64.2741 35.3176 64.0755 34.9658C63.91 34.6616 63.432 34.4967 63.1268 34.7166Z" fill="white"/>
<path d="M22.2754 34.5773C19.8633 34.1082 17.4512 33.6355 15.0391 33.1664C11.1967 32.4151 7.35421 31.6675 3.51543 30.9162C2.64031 30.7439 1.76151 30.5754 0.886384 30.4031C1.05553 30.6267 1.22834 30.8502 1.39749 31.0738C1.39749 27.8304 1.39749 24.5871 1.39749 21.3437C1.39749 20.8783 1.39749 20.4165 1.39749 19.9511C1.39749 19.0569 0.00390625 19.0532 0.00390625 19.9511C0.00390625 23.1945 0.00390625 26.4378 0.00390625 29.6811C0.00390625 30.1466 0.00390625 30.6083 0.00390625 31.0738C0.00390625 31.3596 0.217172 31.6858 0.515008 31.7444C2.92711 32.2135 5.33922 32.6863 7.75132 33.1554C11.5938 33.9067 15.4326 34.6543 19.275 35.4056C20.1501 35.5778 21.0289 35.7464 21.9041 35.9186C22.7829 36.0909 23.1579 34.7496 22.2754 34.5773Z" fill="white"/>
<path d="M74.1871 27.2954C74.1871 30.4911 74.1871 33.6904 74.1871 36.8861C74.1871 37.7107 74.1871 38.5316 74.1871 39.3562C74.1871 39.7373 74.2276 40.1441 74.1871 40.5216C74.1467 40.8954 73.6209 41.1923 73.3488 41.4122C72.6501 41.9765 71.9515 42.5409 71.2566 43.109C69.9218 44.1901 68.5871 45.2712 67.2487 46.3523C66.9545 46.5905 67.006 47.0853 67.2487 47.3345C67.5355 47.624 67.9436 47.569 68.2341 47.3345C69.3813 46.4073 70.5285 45.4764 71.6757 44.5492C72.4516 43.9225 73.2238 43.2959 73.9996 42.6655C74.3857 42.354 74.8453 42.0572 75.1652 41.676C75.6028 41.152 75.5807 40.5583 75.5807 39.9316C75.5807 39.2059 75.5807 38.484 75.5807 37.7584C75.5807 35.6548 75.5807 33.5512 75.5807 31.4476C75.5807 30.0623 75.5807 28.6733 75.5807 27.288C75.5844 26.4012 74.1871 26.4012 74.1871 27.2954Z" fill="white"/>
<path d="M62.9872 49.1009C59.8213 51.9484 56.6518 54.796 53.4859 57.6435C53.0446 58.0393 52.6034 58.4388 52.1621 58.8346C52.3901 58.7759 52.6144 58.7136 52.8424 58.655C50.2097 58.0283 47.5769 57.4016 44.9479 56.775C40.7561 55.7781 36.5607 54.7777 32.3689 53.7808C31.4092 53.5536 30.4495 53.3227 29.4898 53.0955C28.6184 52.8866 28.2433 54.2279 29.1184 54.4368C30.9643 54.8766 32.8065 55.3164 34.6523 55.7562C38.2006 56.6027 41.7452 57.4456 45.2935 58.2922C47.6211 58.8456 49.9523 59.4026 52.2798 59.956C52.6071 60.033 52.8828 60.0476 53.1733 59.8058C53.4086 59.6079 53.6293 59.3953 53.8572 59.1901C54.975 58.1822 56.0965 57.1781 57.2143 56.1703C59.4242 54.184 61.6856 52.2416 63.8476 50.2077C63.8917 50.1673 63.9359 50.127 63.98 50.0904C64.6418 49.482 63.6527 48.4999 62.9872 49.1009Z" fill="white"/>
<path d="M22.2753 50.4972C20.5655 50.0721 18.852 49.6433 17.1422 49.2182C14.0352 48.4449 10.9318 47.6716 7.82474 46.8947C6.70694 46.6162 5.58913 46.3376 4.47133 46.0591C4.20291 45.9932 3.33146 45.9309 3.2285 45.612C3.16967 45.4214 3.21012 45.1393 3.20276 44.9414C3.18438 44.4393 3.16599 43.9409 3.14761 43.4388C3.09246 41.9362 3.04098 40.4337 2.98582 38.9311C2.89757 36.4464 2.84977 33.9543 2.72108 31.4696C2.7174 31.4256 2.7174 31.378 2.7174 31.334C2.68431 30.4434 1.29073 30.4361 1.32382 31.334C1.40104 33.5182 1.48193 35.7024 1.55915 37.8866C1.65107 40.419 1.71726 42.955 1.83125 45.4874C1.86434 46.235 2.22836 46.8727 2.97479 47.1183C3.11819 47.1659 3.26895 47.1952 3.41603 47.2319C4.33895 47.4627 5.26188 47.69 6.1848 47.9208C9.28818 48.6941 12.3916 49.4674 15.4949 50.2407C17.5945 50.7647 19.6904 51.3438 21.801 51.8129C21.8378 51.8202 21.8708 51.8312 21.9076 51.8385C22.7754 52.0547 23.1468 50.7134 22.2753 50.4972Z" fill="white"/>
<path d="M27.6331 8.55362C24.5738 8.14316 21.5146 7.73637 18.4553 7.32591C18.0251 7.26728 17.5912 7.2123 17.161 7.15367C16.786 7.10236 16.4624 7.50915 16.4624 7.84998C16.4624 8.26776 16.786 8.49498 17.161 8.54629C20.2203 8.95675 23.2795 9.36354 26.3388 9.77399C26.769 9.83263 27.2029 9.8876 27.6331 9.94624C28.0082 9.99755 28.3317 9.59075 28.3317 9.24993C28.3317 8.82848 28.0082 8.60126 27.6331 8.55362Z" fill="white"/>
<path d="M24.0772 10.9541C21.2128 10.4776 18.3448 10.0012 15.4804 9.52478C15.0723 9.45515 14.6641 9.38919 14.256 9.31956C13.3772 9.17296 12.9984 10.5143 13.8846 10.6609C16.749 11.1373 19.617 11.6137 22.4814 12.0901C22.8895 12.1598 23.2977 12.2257 23.7058 12.2954C24.5846 12.4383 24.9634 11.1006 24.0772 10.9541Z" fill="white"/>
<path d="M52.8057 31.3303C52.8057 33.5622 52.8057 35.794 52.8057 38.0296C52.8057 38.3447 52.8057 38.6599 52.8057 38.9751C52.8057 39.8693 54.1992 39.8729 54.1992 38.9751C54.1992 36.7432 54.1992 34.5114 54.1992 32.2758C54.1992 31.9607 54.1992 31.6455 54.1992 31.3303C54.2029 30.4361 52.8057 30.4361 52.8057 31.3303Z" fill="white"/>
<path d="M52.1802 44.2157C52.1802 47.7706 52.1802 51.3218 52.1802 54.8766C52.1802 55.3787 52.1802 55.8808 52.1802 56.3828C52.1802 57.277 53.5738 57.2807 53.5738 56.3828C53.5738 52.828 53.5738 49.2768 53.5738 45.722C53.5738 45.2199 53.5738 44.7178 53.5738 44.2157C53.5738 43.3215 52.1802 43.3179 52.1802 44.2157Z" fill="white"/>
<path d="M55.0376 28.3325C55.0376 31.5282 55.0376 34.7239 55.0376 37.9159C55.0376 42.977 55.0376 48.0344 55.0376 53.0955C55.0376 54.2646 55.0376 55.4373 55.0376 56.6064C55.0376 57.0535 55.7362 57.0535 55.7362 56.6064C55.7362 53.4107 55.7362 50.215 55.7362 47.023C55.7362 41.9619 55.7362 36.9045 55.7362 31.8434C55.7362 30.6743 55.7362 29.5016 55.7362 28.3325C55.7362 27.8854 55.0376 27.8817 55.0376 28.3325Z" fill="white"/>
<path d="M57.0376 26.9472C57.0376 30.1429 57.0376 33.3386 57.0376 36.5307C57.0376 41.5917 57.0376 46.6492 57.0376 51.7102C57.0376 52.8793 57.0376 54.052 57.0376 55.2211C57.0376 55.6682 57.7362 55.6682 57.7362 55.2211C57.7362 52.0254 57.7362 48.8297 57.7362 45.6377C57.7362 40.5766 57.7362 35.5192 57.7362 30.4581C57.7362 29.289 57.7362 28.1163 57.7362 26.9472C57.7362 26.5001 57.0376 26.5001 57.0376 26.9472Z" fill="white"/>
<path d="M58.8066 25.6022C58.8066 28.7173 58.8066 31.8287 58.8066 34.9438C58.8066 39.9096 58.8066 44.8754 58.8066 49.8412C58.8066 50.9883 58.8066 52.1317 58.8066 53.2788C58.8066 53.7222 59.4979 53.7222 59.4979 53.2788C59.4979 50.1637 59.4979 47.0523 59.4979 43.9372C59.4979 38.9714 59.4979 34.0056 59.4979 29.0398C59.4979 27.8927 59.4979 26.7493 59.4979 25.6022C59.4942 25.1625 58.8066 25.1625 58.8066 25.6022Z" fill="white"/>
<path d="M60.9023 24.2169C60.9023 27.332 60.9023 30.4434 60.9023 33.5585C60.9023 38.5243 60.9023 43.4901 60.9023 48.4559C60.9023 49.603 60.9023 50.7464 60.9023 51.8935C60.9023 52.3369 61.5936 52.3369 61.5936 51.8935C61.5936 48.7784 61.5936 45.667 61.5936 42.5519C61.5936 37.5861 61.5936 32.6203 61.5936 27.6545C61.5936 26.5074 61.5936 25.364 61.5936 24.2169C61.5936 23.7735 60.9023 23.7735 60.9023 24.2169Z" fill="white"/>
<path d="M68.6201 18.3753C68.6201 21.4903 68.6201 24.6018 68.6201 27.7168C68.6201 32.6826 68.6201 37.6484 68.6201 42.6142C68.6201 43.7613 68.6201 44.9047 68.6201 46.0518C68.6201 46.4952 69.3114 46.4952 69.3114 46.0518C69.3114 42.9367 69.3114 39.8253 69.3114 36.7102C69.3114 31.7444 69.3114 26.7786 69.3114 21.8129C69.3114 20.6658 69.3114 19.5224 69.3114 18.3753C69.3114 17.9318 68.6201 17.9318 68.6201 18.3753Z" fill="white"/>
<path d="M70.3887 16.7774C70.3887 19.8925 70.3887 23.0039 70.3887 26.119C70.3887 31.0848 70.3887 36.0506 70.3887 41.0164C70.3887 42.1634 70.3887 43.3069 70.3887 44.4539C70.3887 44.8974 71.0799 44.8974 71.0799 44.4539C71.0799 41.3389 71.0799 38.2275 71.0799 35.1124C71.0799 30.1466 71.0799 25.1808 71.0799 20.215C71.0799 19.0679 71.0799 17.9245 71.0799 16.7774C71.0799 16.3376 70.3887 16.334 70.3887 16.7774Z" fill="white"/>
<path d="M71.7822 15.1906C71.7822 18.3056 71.7822 21.417 71.7822 24.5321C71.7822 29.4979 71.7822 34.4637 71.7822 39.4295C71.7822 40.5766 71.7822 41.72 71.7822 42.8671C71.7822 43.3105 72.4735 43.3105 72.4735 42.8671C72.4735 39.752 72.4735 36.6406 72.4735 33.5255C72.4735 28.5597 72.4735 23.5939 72.4735 18.6281C72.4735 17.4811 72.4735 16.3376 72.4735 15.1906C72.4735 14.7471 71.7822 14.7471 71.7822 15.1906Z" fill="white"/>
<path d="M73.1797 14.7141C73.1797 17.8292 73.1797 20.9406 73.1797 24.0557C73.1797 29.0215 73.1797 33.9873 73.1797 38.9531C73.1797 40.1002 73.1797 41.2436 73.1797 42.3907C73.1797 42.8341 73.871 42.8341 73.871 42.3907C73.871 39.2756 73.871 36.1642 73.871 33.0491C73.871 28.0833 73.871 23.1175 73.871 18.1517C73.871 17.0046 73.871 15.8612 73.871 14.7141C73.871 14.2707 73.1797 14.2707 73.1797 14.7141Z" fill="white"/>
<path d="M74.8859 13.7943C75.3308 13.7943 75.3308 13.1053 74.8859 13.1053C74.441 13.1053 74.441 13.7943 74.8859 13.7943Z" fill="white"/>
<path d="M74.54 13.4498C74.54 18.0051 74.54 22.5641 74.54 27.1195C74.54 27.7571 74.54 28.3948 74.54 29.0288C74.54 29.4723 75.2313 29.4723 75.2313 29.0288C75.2313 24.4735 75.2313 19.9145 75.2313 15.3591C75.2313 14.7215 75.2313 14.0838 75.2313 13.4498C75.2313 13.0063 74.54 13.0063 74.54 13.4498Z" fill="white"/>
<path d="M75.4814 12.9734C75.4814 16.8324 75.4814 20.6914 75.4814 24.5504C75.4814 25.1038 75.4814 25.6535 75.4814 26.2069C75.4814 26.6504 76.1727 26.6504 76.1727 26.2069C76.1727 22.3479 76.1727 18.4889 76.1727 14.6298C76.1727 14.0765 76.1727 13.5267 76.1727 12.9734C76.1727 12.5299 75.4814 12.5299 75.4814 12.9734Z" fill="white"/>
<path d="M67.2119 20.75C66.0499 21.8861 64.8917 23.0222 63.7297 24.1583C63.5643 24.3196 63.3988 24.4808 63.237 24.6421C62.9208 24.9536 63.4062 25.4373 63.7261 25.1295C64.888 23.9934 66.0462 22.8573 67.2082 21.7212C67.3736 21.56 67.5391 21.3987 67.7009 21.2375C68.0171 20.926 67.5281 20.4385 67.2119 20.75Z" fill="white"/>
<path d="M67.212 23.1835C66.1346 24.2096 65.0572 25.2394 63.9762 26.2656C63.8218 26.4122 63.6673 26.5588 63.5129 26.7053C63.193 27.0132 63.6784 27.4969 64.0019 27.1928C65.0793 26.1666 66.1567 25.1368 67.2377 24.1107C67.3921 23.9641 67.5466 23.8175 67.701 23.6709C68.0209 23.363 67.5319 22.8756 67.212 23.1835Z" fill="white"/>
<path d="M67.2119 25.3604C66.0536 26.4488 64.8954 27.5336 63.7371 28.622C63.5717 28.7796 63.4025 28.9372 63.2371 29.0948C62.9135 29.399 63.4025 29.8864 63.7261 29.5822C64.8844 28.4938 66.0426 27.409 67.2009 26.3205C67.3663 26.1629 67.5355 26.0054 67.7009 25.8478C68.0245 25.5436 67.5355 25.0562 67.2119 25.3604Z" fill="white"/>
<path d="M67.2118 28.087C66.1345 28.9629 65.0571 29.8351 63.9797 30.711C63.8253 30.8356 63.6709 30.9638 63.5164 31.0884C63.373 31.2057 63.3951 31.4513 63.5164 31.5759C63.6598 31.7188 63.8584 31.6931 64.0055 31.5759C65.0828 30.7 66.1602 29.8278 67.2376 28.9519C67.392 28.8273 67.5464 28.699 67.7009 28.5744C67.8443 28.4571 67.8222 28.2116 67.7009 28.087C67.5574 27.9477 67.3552 27.9697 67.2118 28.087Z" fill="white"/>
<path d="M67.1423 30.7623C66.0025 31.6748 64.8626 32.5873 63.7191 33.5035C63.5573 33.6318 63.3955 33.7637 63.2337 33.892C63.0866 34.0093 63.1124 34.2585 63.2337 34.3794C63.3771 34.5224 63.5757 34.4967 63.7227 34.3794C64.8626 33.4669 66.0025 32.5544 67.146 31.6382C67.3078 31.5099 67.4696 31.378 67.6314 31.2497C67.7785 31.1324 67.7527 30.8832 67.6314 30.7623C67.488 30.6193 67.2894 30.645 67.1423 30.7623Z" fill="white"/>
<path d="M67.2118 33.3349C66.1345 34.2072 65.0571 35.0794 63.9797 35.9479C63.8253 36.0725 63.6709 36.1972 63.5164 36.3218C63.373 36.439 63.3951 36.6846 63.5164 36.8092C63.6598 36.9521 63.8584 36.9264 64.0055 36.8092C65.0828 35.937 66.1602 35.0647 67.2376 34.1962C67.392 34.0716 67.5464 33.947 67.7009 33.8224C67.8443 33.7051 67.8222 33.4596 67.7009 33.3349C67.5574 33.192 67.3552 33.2177 67.2118 33.3349Z" fill="white"/>
<path d="M67.2816 36.2705C66.2043 36.9741 65.1269 37.6741 64.0495 38.3777C63.8951 38.4803 63.737 38.5793 63.5826 38.6819C63.2112 38.9238 63.5568 39.5175 63.9319 39.2756C65.0092 38.5719 66.0866 37.872 67.164 37.1683C67.3184 37.0657 67.4765 36.9668 67.6309 36.8641C67.9986 36.6223 67.653 36.0249 67.2816 36.2705Z" fill="white"/>
<path d="M67.282 38.6782C66.201 39.4368 65.1236 40.1954 64.0426 40.9504C63.8882 41.0567 63.7374 41.1666 63.583 41.2729C63.4322 41.3792 63.3587 41.5734 63.458 41.742C63.5462 41.8922 63.7779 41.9729 63.9286 41.8666C65.0097 41.108 66.087 40.3494 67.168 39.5944C67.3225 39.4881 67.4732 39.3782 67.6277 39.2719C67.7784 39.1656 67.852 38.9714 67.7527 38.8028C67.6644 38.6526 67.4328 38.5719 67.282 38.6782Z" fill="white"/>
<path d="M67.2818 41.2766C66.2044 42.0462 65.1271 42.8158 64.0497 43.5854C63.8953 43.6953 63.7408 43.8053 63.5864 43.9189C63.4356 44.0252 63.3621 44.2194 63.4614 44.388C63.5496 44.5382 63.7813 44.6189 63.932 44.5126C65.0094 43.743 66.0868 42.9734 67.1641 42.2038C67.3185 42.0938 67.473 41.9839 67.6274 41.8703C67.7782 41.764 67.8517 41.5697 67.7524 41.4012C67.6642 41.2509 67.4325 41.1666 67.2818 41.2766Z" fill="white"/>
<path d="M67.1419 43.5084C66.083 44.3623 65.024 45.2126 63.965 46.0664C63.8143 46.1874 63.6635 46.3083 63.5164 46.4293C63.373 46.5465 63.3951 46.7957 63.5164 46.9167C63.6598 47.0596 63.8584 47.034 64.0055 46.9167C65.0645 46.0628 66.1234 45.2126 67.1824 44.3587C67.3331 44.2377 67.4839 44.1168 67.631 43.9958C67.7744 43.8786 67.7523 43.6294 67.631 43.5084C67.4876 43.3655 67.2853 43.3912 67.1419 43.5084Z" fill="white"/>
<path d="M67.2123 45.5021C66.1312 46.3413 65.0539 47.1805 63.9728 48.0198C63.8221 48.1371 63.6677 48.258 63.5169 48.3753C63.3698 48.4889 63.3956 48.7417 63.5169 48.8627C63.6603 49.0056 63.8589 48.9763 64.0059 48.8627C65.087 48.0234 66.1643 47.1842 67.2454 46.345C67.3961 46.2277 67.5506 46.1068 67.7013 45.9895C67.8484 45.8759 67.8226 45.623 67.7013 45.5021C67.5542 45.3555 67.3593 45.3848 67.2123 45.5021Z" fill="white"/>
<path d="M24.3344 24.0044C25.2169 24.129 26.0994 24.2573 26.9818 24.3819C27.1069 24.4002 27.2319 24.4185 27.3569 24.4368C27.5444 24.4625 27.7319 24.3929 27.7871 24.195C27.8312 24.0337 27.7319 23.7955 27.5444 23.7662C26.6619 23.6416 25.7795 23.5133 24.897 23.3887C24.772 23.3704 24.647 23.3521 24.5219 23.3337C24.3344 23.3081 24.1469 23.3777 24.0917 23.5756C24.0439 23.7405 24.1469 23.9787 24.3344 24.0044Z" fill="white"/>
</svg>
