<svg width="30" height="36" viewBox="0 0 30 36" fill="none" xmlns="http://www.w3.org/2000/svg">
<path d="M28.0001 0.500001H2.04189H1.99908C1.17101 0.500001 0.5 1.17123 0.5 1.99969V33.0654C0.5 34.1227 1.56448 34.8481 2.54852 34.4615L14.0858 29.9286C14.6734 29.6978 15.3266 29.6978 15.9142 29.9286L27.4515 34.4615C28.4369 34.8487 29.5 34.125 29.5 33.0693V33.0224V32.9751V32.9276V32.8798V32.8316V32.7832V32.7344V32.6854V32.6361V32.5864V32.5365V32.4863V32.4358V32.385V32.3339V32.2825V32.2308V32.1789V32.1267V32.0742V32.0214V31.9683V31.915V31.8614V31.8075V31.7533V31.6989V31.6442V31.5893V31.534V31.4785V31.4228V31.3668V31.3105V31.254V31.1972V31.1402V31.0829V31.0254V30.9676V30.9096V30.8513V30.7928V30.734V30.675V30.6157V30.5563V30.4965V30.4366V30.3764V30.316V30.2553V30.1945V30.1334V30.072V30.0105V29.9487V29.8867V29.8245V29.7621V29.6994V29.6365V29.5735V29.5102V29.4467V29.383V29.3191V29.2549V29.1906V29.1261V29.0614V28.9965V28.9313V28.866V28.8005V28.7348V28.6689V28.6028V28.5366V28.4701V28.4035V28.3367V28.2696V28.2025V28.1351V28.0676V27.9998V27.932V27.8639V27.7957V27.7273V27.6587V27.59V27.5211V27.452V27.3828V27.3134V27.2438V27.1741V27.1043V27.0343V26.9641V26.8938V26.8234V26.7528V26.682V26.6111V26.5401V26.4689V26.3976V26.3261V26.2546V26.1828V26.111V26.039V25.9669V25.8946V25.8222V25.7497V25.6771V25.6044V25.5315V25.4585V25.3854V25.3122V25.2389V25.1654V25.0919V25.0182V24.9445V24.8706V24.7966V24.7225V24.6483V24.574V24.4996V24.4252V24.3506V24.2759V24.2011V24.1263V24.0513V23.9763V23.9012V23.826V23.7507V23.6753V23.5999V23.5244V23.4488V23.3731V23.2973V23.2215V23.1456V23.0697V22.9936V22.9175V22.8414V22.7652V22.6889V22.6125V22.5361V22.4597V22.3832V22.3066V22.23V22.1533V22.0766V21.9999V21.923V21.8462V21.7693V21.6924V21.6154V21.5384V21.4614V21.3843V21.3072V21.23V21.1528V21.0756V20.9984V20.9212V20.8439V20.7666V20.6893V20.6119V20.5346V20.4572V20.3798V20.3025V20.225V20.1476V20.0702V19.9928V19.9154V19.8379V19.7605V19.683V19.6056V19.5282V19.4508V19.3733V19.2959V19.2185V19.1411V19.0637V18.9864V18.909V18.8317V18.7544V18.6771V18.5998V18.5226V18.4454V18.3682V18.291V18.2139V18.1368V18.0597V17.9826V17.9056V17.8287V17.7518V17.6749V17.598V17.5212V17.4445V17.3678V17.2911V17.2145V17.138V17.0615V16.985V16.9086V16.8323V16.756V16.6798V16.6037V16.5276V16.4516V16.3756V16.2998V16.224V16.1482V16.0726V15.997V15.9215V15.846V15.7707V15.6954V15.6202V15.5451V15.4701V15.3952V15.3203V15.2456V15.1709V15.0964V15.0219V14.9475V14.8733V14.7991V14.725V14.6511V14.5772V14.5035V14.4298V14.3563V14.2829V14.2096V14.1364V14.0633V13.9903V13.9175V13.8448V13.7722V13.6997V13.6273V13.5551V13.483V13.4111V13.3392V13.2675V13.196V13.1245V13.0533V12.9821V12.9111V12.8402V12.7695V12.6989V12.6285V12.5582V12.4881V12.4181V12.3483V12.2786V12.2091V12.1398V12.0706V12.0016V11.9327V11.864V11.7954V11.7271V11.6589V11.5909V11.523V11.4553V11.3878V11.3205V11.2533V11.1864V11.1196V11.053V10.9865V10.9203V10.8543V10.7884V10.7227V10.6573V10.592V10.5269V10.462V10.3973V10.3329V10.2686V10.2045V10.1406V10.077V10.0135V9.95026V9.88723V9.82441V9.7618V9.69941V9.63724V9.57528V9.51355V9.45204V9.39076V9.3297V9.26886V9.20826V9.14789V9.08775V9.02784V8.96817V8.90873V8.84953V8.79058V8.73186V8.67339V8.61516V8.55717V8.49944V8.44195V8.38472V8.32774V8.27101V8.21453V8.15832V8.10236V8.04666V7.99123V7.93606V7.88115V7.82651V7.77213V7.71803V7.6642V7.61064V7.55736V7.50435V7.45161V7.39916V7.34699V7.2951V7.24349V7.19217V7.14114V7.09039V7.03994V6.98977V6.9399V6.89033V6.84104V6.79206V6.74338V6.695V6.64692V6.59914V6.55167V6.50451V6.45766V6.41111V6.36488V6.31896V6.27336V6.22807V6.1831V6.13845V6.09413V6.05012V6.00644V5.96309V5.92006V5.87736V5.835V5.79296V5.75126V5.7099V5.66887V5.62818V5.58783V5.54782V5.50816V5.46884V5.42986V5.39124V5.35296V5.31504V5.27746V5.24024V5.20338V5.16688V5.13073V5.09494V5.05952V5.02446V4.98977V4.95544V4.92148V4.88789V4.85467V4.82182V4.78935V4.75726V4.72554V4.6942V4.66324V4.63267V4.60248V4.57267V4.54325V4.51422V4.48558V4.45734V4.42948V4.40202V4.37496V4.34829V4.32203V4.29617V4.2707V4.24565V4.221V4.19675V4.17292V4.14949V4.12648V4.10388V4.0817V4.05994V4.03859V4.01766V3.99715V3.97707V3.95741V3.93818V3.91938V3.901V3.88306V3.86555V3.84847V3.83183V3.81563V3.79986V3.78453V3.76965V3.75521V3.74122V3.72767V3.71457V3.70192V3.68972V3.67798V3.66668V3.65585V3.64547V3.63555V3.62609V3.6171V3.60857V3.6005V3.5929V3.58577V3.57911V3.57292V3.56721V3.56196V3.5572V3.55291V3.54911V3.54578V3.54294V3.54058V3.5387V3.53732V3.53642V3.53602L29.5 1.99973C29.5 1.17144 28.8285 0.500001 28.0001 0.500001Z" stroke="#E64037"/>
</svg>
