<svg width="16" height="14" viewBox="0 0 16 14" fill="none" xmlns="http://www.w3.org/2000/svg">
<path fill-rule="evenodd" clip-rule="evenodd" d="M9.65926 3.82181C9.65926 5.80463 8.03671 7.39362 6.01199 7.39362C3.98802 7.39362 2.36473 5.80463 2.36473 3.82181C2.36473 1.83899 3.98802 0.25 6.01199 0.25C8.03671 0.25 9.65926 1.83899 9.65926 3.82181ZM0.5 11.438C0.5 9.60254 3.03914 9.1433 6.012 9.1433C9.001 9.1433 11.524 9.61835 11.524 11.4553C11.524 13.2908 8.98485 13.75 6.012 13.75C3.023 13.75 0.5 13.275 0.5 11.438ZM11.13 3.88656C11.13 4.8963 10.8204 5.83848 10.2773 6.62112C10.2208 6.70161 10.2707 6.81013 10.369 6.82738C10.5055 6.84965 10.6457 6.86331 10.7888 6.86618C12.2125 6.90284 13.4901 6.00521 13.8431 4.65339C14.3663 2.64757 12.8311 0.846572 10.8754 0.846572C10.6633 0.846572 10.46 0.868132 10.2619 0.907659C10.2347 0.913409 10.2054 0.926345 10.1907 0.949342C10.1716 0.978808 10.1856 1.0169 10.2046 1.04205C10.7925 1.84912 11.13 2.83155 11.13 3.88656ZM13.4879 8.27672C14.4449 8.45998 15.0738 8.83298 15.3343 9.37701C15.5552 9.82259 15.5552 10.34 15.3343 10.7856C14.9358 11.6279 13.6501 11.8988 13.1504 11.9686C13.0469 11.9829 12.964 11.8967 12.975 11.7946C13.2303 9.46038 11.1998 8.35362 10.6743 8.09921C10.6523 8.08699 10.6472 8.06974 10.6494 8.05825C10.6508 8.05106 10.6604 8.03956 10.6773 8.0374C11.814 8.01584 13.0366 8.16892 13.4879 8.27672Z" fill="#F8F1FF"/>
</svg>
