<svg width="24" height="24" viewBox="0 0 24 24" fill="none" xmlns="http://www.w3.org/2000/svg">
<path d="M18 12.2551V10.5001L18.265 10.7701C18.3115 10.8169 18.3668 10.8541 18.4277 10.8795C18.4887 10.9049 18.554 10.918 18.62 10.918C18.686 10.918 18.7514 10.9049 18.8123 10.8795C18.8732 10.8541 18.9285 10.8169 18.975 10.7701L20.39 9.35506C20.4369 9.30858 20.4741 9.25328 20.4995 9.19235C20.5248 9.13142 20.5379 9.06606 20.5379 9.00006C20.5379 8.93405 20.5248 8.8687 20.4995 8.80777C20.4741 8.74684 20.4369 8.69154 20.39 8.64506L16.855 5.11006C16.8085 5.06319 16.7532 5.026 16.6923 5.00061C16.6314 4.97523 16.566 4.96216 16.5 4.96216C16.434 4.96216 16.3687 4.97523 16.3077 5.00061C16.2468 5.026 16.1915 5.06319 16.145 5.11006L12.61 8.64506C12.5631 8.69154 12.5259 8.74684 12.5006 8.80777C12.4752 8.8687 12.4621 8.93405 12.4621 9.00006C12.4621 9.06606 12.4752 9.13142 12.5006 9.19235C12.5259 9.25328 12.5631 9.30858 12.61 9.35506L14.025 10.7701C14.0715 10.8169 14.1268 10.8541 14.1877 10.8795C14.2487 10.9049 14.314 10.918 14.38 10.918C14.446 10.918 14.5114 10.9049 14.5723 10.8795C14.6332 10.8541 14.6885 10.8169 14.735 10.7701L15 10.5001V12.2551C13.9992 12.6089 13.1557 13.3052 12.6186 14.2208C12.0814 15.1364 11.8853 16.2124 12.0648 17.2587C12.2443 18.3049 12.7879 19.254 13.5995 19.9382C14.4111 20.6224 15.4385 20.9977 16.5 20.9977C17.5615 20.9977 18.5889 20.6224 19.4005 19.9382C20.2121 19.254 20.7557 18.3049 20.9352 17.2587C21.1147 16.2124 20.9186 15.1364 20.3815 14.2208C19.8443 13.3052 19.0008 12.6089 18 12.2551ZM15 16.5001C15 16.2034 15.088 15.9134 15.2528 15.6667C15.4176 15.42 15.6519 15.2278 15.926 15.1142C16.2001 15.0007 16.5017 14.971 16.7926 15.0289C17.0836 15.0868 17.3509 15.2296 17.5607 15.4394C17.7704 15.6492 17.9133 15.9165 17.9712 16.2074C18.0291 16.4984 17.9994 16.8 17.8858 17.0741C17.7723 17.3482 17.58 17.5824 17.3334 17.7473C17.0867 17.9121 16.7967 18.0001 16.5 18.0001C16.1022 18.0001 15.7207 17.842 15.4393 17.5607C15.158 17.2794 15 16.8979 15 16.5001Z" fill="url(#paint0_linear)"/>
<path d="M10.5 13.5H9.00001V11.745C10.0008 11.3912 10.8443 10.6949 11.3815 9.77932C11.9186 8.8637 12.1147 7.78768 11.9352 6.74144C11.7557 5.69519 11.2121 4.74609 10.4005 4.06188C9.5889 3.37767 8.56154 3.0024 7.50001 3.0024C6.43848 3.0024 5.41112 3.37767 4.59952 4.06188C3.78792 4.74609 3.24432 5.69519 3.06482 6.74144C2.88531 7.78768 3.08145 8.8637 3.61856 9.77932C4.15568 10.6949 4.99919 11.3912 6.00001 11.745V13.5H4.50001C4.3674 13.5 4.24022 13.5527 4.14646 13.6465C4.05269 13.7403 4.00001 13.8674 4.00001 14V16C4.00001 16.1326 4.05269 16.2598 4.14646 16.3536C4.24022 16.4474 4.3674 16.5 4.50001 16.5H6.00001V18C6.00001 18.1326 6.05269 18.2598 6.14646 18.3536C6.24022 18.4474 6.3674 18.5 6.50001 18.5H8.50001C8.63262 18.5 8.7598 18.4474 8.85356 18.3536C8.94733 18.2598 9.00001 18.1326 9.00001 18V16.5H10.5C10.6326 16.5 10.7598 16.4474 10.8536 16.3536C10.9473 16.2598 11 16.1326 11 16V14C11 13.8674 10.9473 13.7403 10.8536 13.6465C10.7598 13.5527 10.6326 13.5 10.5 13.5ZM6.00001 7.50004C6.00001 7.20336 6.08798 6.91335 6.25281 6.66668C6.41763 6.42001 6.6519 6.22775 6.92598 6.11422C7.20007 6.00069 7.50167 5.97098 7.79265 6.02886C8.08362 6.08674 8.35089 6.2296 8.56067 6.43938C8.77045 6.64915 8.91331 6.91643 8.97119 7.2074C9.02907 7.49837 8.99936 7.79997 8.88583 8.07406C8.7723 8.34815 8.58004 8.58242 8.33336 8.74724C8.08669 8.91206 7.79668 9.00004 7.50001 9.00004C7.10219 9.00004 6.72065 8.842 6.43935 8.5607C6.15804 8.27939 6.00001 7.89786 6.00001 7.50004Z" fill="url(#paint1_linear)"/>
<defs>
<linearGradient id="paint0_linear" x1="16.5" y1="4.96216" x2="16.5" y2="20.9977" gradientUnits="userSpaceOnUse">
<stop stop-color="#EA7A6E"/>
<stop offset="1" stop-color="#E23A28"/>
</linearGradient>
<linearGradient id="paint1_linear" x1="7.50001" y1="3.0024" x2="7.50001" y2="18.5" gradientUnits="userSpaceOnUse">
<stop stop-color="#EA7A6E"/>
<stop offset="1" stop-color="#E23A28"/>
</linearGradient>
</defs>
</svg>
