<svg width="80" height="80" viewBox="0 0 80 80" fill="none" xmlns="http://www.w3.org/2000/svg">
<path fill-rule="evenodd" clip-rule="evenodd" d="M32.9838 37.4334C31.5255 37.4334 30.3724 38.5667 30.3724 40C30.3724 41.4 31.5255 42.5667 32.9838 42.5667H53.3327V58.5C53.3327 66.6667 46.5837 73.3334 38.2406 73.3334H21.7242C13.415 73.3334 6.66602 66.7 6.66602 58.5334V21.5C6.66602 13.3 13.449 6.66669 21.7581 6.66669H38.3085C46.5837 6.66669 53.3327 13.3 53.3327 21.4667V37.4334H32.9838ZM65.4334 28.4674L75.1668 38.1674C75.6668 38.6674 75.9335 39.3007 75.9335 40.0007C75.9335 40.6674 75.6668 41.334 75.1668 41.8007L65.4334 51.5007C64.9334 52.0007 64.2668 52.2674 63.6334 52.2674C62.9668 52.2674 62.3001 52.0007 61.8001 51.5007C60.8001 50.5007 60.8001 48.8674 61.8001 47.8674L67.1334 42.5674H53.3334V37.434H67.1334L61.8001 32.134C60.8001 31.134 60.8001 29.5007 61.8001 28.5007C62.8001 27.4674 64.4334 27.4674 65.4334 28.4674Z" fill="url(#paint0_linear)"/>
<defs>
<linearGradient id="paint0_linear" x1="41.2997" y1="6.66669" x2="41.2997" y2="73.3334" gradientUnits="userSpaceOnUse">
<stop stop-color="#EA7A6E"/>
<stop offset="1" stop-color="#E23A28"/>
</linearGradient>
</defs>
</svg>
