<svg width="24" height="24" viewBox="0 0 24 24" fill="none" xmlns="http://www.w3.org/2000/svg">
<path d="M19.2 5.7H10.992L10.2 3H4.80001C3.81 3 3 3.81 3 4.80001V16.5C3 17.49 3.81 18.3 4.80001 18.3H11.1L12 21H19.2C20.19 21 21 20.19 21 19.2V7.50001C21 6.51 20.19 5.7 19.2 5.7ZM7.64851 14.3265C5.619 14.3265 3.972 12.675 3.972 10.65C3.972 8.62498 5.62351 6.97347 7.64851 6.97347C8.58452 6.97347 9.43502 7.30645 10.11 7.93197L10.1685 7.99048L9.07052 9.05247L9.01652 9.00298C8.76002 8.75998 8.31452 8.47648 7.64851 8.47648C6.4695 8.47648 5.511 9.453 5.511 10.6545C5.511 11.856 6.4695 12.8325 7.64851 12.8325C8.88152 12.8325 9.41701 12.045 9.561 11.5185H7.57198V10.1235H11.127L11.1405 10.1865C11.1765 10.3755 11.19 10.542 11.19 10.731C11.1855 12.8505 9.73198 14.3265 7.64851 14.3265ZM12.6075 11.1675H16.203C16.203 11.1675 15.897 12.351 14.799 13.629C14.3175 13.0755 13.9845 12.5355 13.773 12.1035H12.882L12.6075 11.1675ZM14.151 14.3265L13.6695 14.8035L13.08 12.7965C13.3815 13.3365 13.746 13.854 14.151 14.3265ZM20.1 19.2C20.1 19.695 19.695 20.1 19.2 20.1H12.9L14.7 18.3L13.9665 15.8114L14.7945 14.9834L17.211 17.3999L17.868 16.7429L15.4335 14.3264C16.2435 13.3949 16.8735 12.3015 17.157 11.172H18.3V10.236H15.0285V9.29998H14.0925V10.236H12.3285L11.2575 6.59998H19.2C19.695 6.59998 20.1 7.00498 20.1 7.49997V19.2Z" fill="url(#paint0_linear)"/>
<defs>
<linearGradient id="paint0_linear" x1="12" y1="3" x2="12" y2="21" gradientUnits="userSpaceOnUse">
<stop stop-color="#EA7A6E"/>
<stop offset="1" stop-color="#E23A28"/>
</linearGradient>
</defs>
</svg>
