<svg width="14" height="14" viewBox="0 0 14 14" fill="none" xmlns="http://www.w3.org/2000/svg">
<path d="M6.99683 3.81818C7.7 3.81818 8.26957 3.24865 8.26957 2.54545C8.26957 2.30681 8.20275 2.08091 8.0882 1.89L6.99683 0L5.90545 1.89C5.79091 2.08091 5.72409 2.30681 5.72409 2.54545C5.72409 3.24865 6.29366 3.81818 6.99683 3.81818Z" fill="url(#paint0_linear)"/>
<path d="M10.815 5.7272H7.63319V4.45447H6.36045V5.7272H3.17865C2.12546 5.7272 1.26956 6.5831 1.26956 7.63629V8.61628C1.26956 9.30355 1.82955 9.86354 2.51683 9.86354C2.85092 9.86354 3.16273 9.73309 3.3982 9.49762L4.76001 8.13898L6.11866 9.49443C6.58958 9.96535 7.41049 9.96535 7.88138 9.49443L9.24318 8.13898L10.6018 9.49443C10.8373 9.72987 11.1491 9.86035 11.4832 9.86035C12.1705 9.86035 12.7305 9.30036 12.7305 8.61309V7.63629C12.7241 6.5831 11.8682 5.7272 10.815 5.7272Z" fill="url(#paint1_linear)"/>
<path d="M9.92094 10.1722L9.23686 9.48816L8.54959 10.1722C7.71913 11.0027 6.26822 11.0027 5.43777 10.1722L4.75366 9.48816L4.06638 10.1722C3.65593 10.589 3.10548 10.8181 2.51683 10.8181C2.05545 10.8181 1.62591 10.6718 1.26956 10.4268V13.3636C1.26956 13.7136 1.55593 14 1.90592 14H12.0877C12.4377 14 12.7241 13.7136 12.7241 13.3636V10.4268C12.3677 10.6718 11.9414 10.8182 11.4768 10.8182C10.8882 10.8182 10.3377 10.5891 9.92094 10.1722Z" fill="url(#paint2_linear)"/>
<defs>
<linearGradient id="paint0_linear" x1="6.99683" y1="0" x2="6.99683" y2="3.81818" gradientUnits="userSpaceOnUse">
<stop stop-color="#807c7c"/>
<stop offset="1" stop-color="#c7c3c3"/>
</linearGradient>
<linearGradient id="paint1_linear" x1="7.00002" y1="4.45447" x2="7.00002" y2="9.86354" gradientUnits="userSpaceOnUse">
<stop stop-color="#807c7c"/>
<stop offset="1" stop-color="#c7c3c3"/>
</linearGradient>
<linearGradient id="paint2_linear" x1="6.99682" y1="9.48816" x2="6.99682" y2="14" gradientUnits="userSpaceOnUse">
<stop stop-color="#807c7c"/>
<stop offset="1" stop-color="#c7c3c3"/>
</linearGradient>
</defs>
</svg>
