<svg width="20" height="20" viewBox="0 0 20 20" fill="none" xmlns="http://www.w3.org/2000/svg">
<path fill-rule="evenodd" clip-rule="evenodd" d="M2.74409 3.57774C2.90037 3.42146 3.11233 3.33366 3.33334 3.33366H16.6667C16.8877 3.33366 17.0996 3.42146 17.2559 3.57774C17.4122 3.73402 17.5 3.94598 17.5 4.16699V12.5003C17.5 12.7213 17.4122 12.9333 17.2559 13.0896C17.0996 13.2459 16.8877 13.3337 16.6667 13.3337H15.8333C15.3731 13.3337 15 13.7068 15 14.167C15 14.6272 15.3731 15.0003 15.8333 15.0003H16.6667C17.3297 15.0003 17.9656 14.7369 18.4344 14.2681C18.9033 13.7993 19.1667 13.1634 19.1667 12.5003V4.16699C19.1667 3.50395 18.9033 2.86807 18.4344 2.39923C17.9656 1.93038 17.3297 1.66699 16.6667 1.66699H3.33334C2.6703 1.66699 2.03442 1.93038 1.56558 2.39923C1.09674 2.86807 0.833344 3.50395 0.833344 4.16699V12.5003C0.833344 13.1634 1.09674 13.7993 1.56558 14.2681C2.03442 14.7369 2.6703 15.0003 3.33334 15.0003H4.16668C4.62691 15.0003 5.00001 14.6272 5.00001 14.167C5.00001 13.7068 4.62691 13.3337 4.16668 13.3337H3.33334C3.11233 13.3337 2.90037 13.2459 2.74409 13.0896C2.58781 12.9333 2.50001 12.7213 2.50001 12.5003V4.16699C2.50001 3.94598 2.58781 3.73402 2.74409 3.57774ZM8.70645 6.33428C9.01725 6.105 9.38401 5.9936 9.79679 5.9936C10.2092 5.9936 10.5743 6.10485 10.8812 6.33479C11.1889 6.56206 11.4153 6.87909 11.5649 7.2746C11.7135 7.66309 11.7851 8.10687 11.7851 8.60193C11.7851 9.09728 11.7134 9.54306 11.565 9.9356L11.5647 9.9364C11.4149 10.3278 11.1884 10.6422 10.8811 10.8691C10.5742 11.099 10.2092 11.2103 9.79679 11.2103C9.38401 11.2103 9.01725 11.0989 8.70645 10.8696L8.70512 10.8686C8.40238 10.6415 8.17846 10.3272 8.02889 9.9364L8.02859 9.9356C7.88019 9.54306 7.80846 9.09728 7.80846 8.60193C7.80846 8.10687 7.88011 7.66309 8.02871 7.27459C8.17807 6.87966 8.40186 6.56271 8.70512 6.33526L8.70645 6.33428ZM14.419 6.03369C14.2867 6.02264 14.1609 6.05437 14.0505 6.13026C13.9423 6.20466 13.8648 6.30765 13.8157 6.42974L12.1521 10.4251L12.149 10.4354C12.1307 10.4962 12.1202 10.5587 12.1202 10.6219C12.1202 10.7671 12.1604 10.9071 12.2625 11.017L12.2679 11.0226C12.3803 11.135 12.529 11.1769 12.6818 11.1769C12.8014 11.1769 12.9125 11.1408 13.0096 11.0715L13.0117 11.0699C13.1128 10.9958 13.1846 10.8962 13.2287 10.7792L13.5195 10.0969H15.2313L15.5232 10.7761C15.5702 10.8876 15.6392 10.9853 15.7331 11.0591L15.7386 11.0633C15.8398 11.1374 15.956 11.1769 16.0818 11.1769C16.2362 11.1769 16.373 11.1187 16.4846 11.0136L16.4892 11.0092C16.6072 10.8912 16.6635 10.7411 16.6635 10.5753C16.6635 10.495 16.6454 10.416 16.6163 10.3405L14.9756 6.43183C14.9304 6.31197 14.8538 6.21248 14.7455 6.14278C14.6487 6.07354 14.5383 6.03578 14.419 6.03369ZM4.0121 6.2256C4.12447 6.11445 4.26662 6.06026 4.42372 6.06026H6.46372C6.63616 6.06026 6.79919 6.11004 6.91992 6.23685C7.03592 6.35414 7.08538 6.50583 7.08538 6.6686C7.08538 6.84821 6.99555 7.00343 6.8682 7.13205L6.23058 7.8363C6.35846 7.8781 6.47873 7.93868 6.59053 8.01839C6.8119 8.17308 6.98158 8.37697 7.09862 8.62598C7.21452 8.86815 7.27205 9.12768 7.27205 9.40193C7.27205 9.75881 7.19102 10.0813 7.02236 10.3625L7.02149 10.3639C6.85284 10.6399 6.61505 10.8508 6.31438 10.9962C6.01433 11.1412 5.67112 11.2103 5.29038 11.2103C5.11283 11.2103 4.93587 11.188 4.75986 11.144C4.58604 11.1006 4.42875 11.0414 4.29025 10.9646C4.07797 10.8495 3.93538 10.6685 3.93538 10.4219C3.93538 10.2611 3.99396 10.1164 4.09831 9.99367C4.20926 9.86315 4.35641 9.78693 4.53038 9.78693C4.67215 9.78693 4.807 9.83999 4.93086 9.92076L4.93755 9.92513L4.94389 9.92999C5.10027 10.05 5.26718 10.1069 5.45038 10.1069C5.55205 10.1069 5.64864 10.0829 5.74281 10.033C5.83314 9.9808 5.90656 9.90788 5.96399 9.80991L5.96506 9.80807C6.02398 9.70989 6.05538 9.59643 6.05538 9.46193C6.05538 9.26722 5.99779 9.14173 5.90358 9.05608L5.90121 9.05394C5.79963 8.9587 5.67808 8.91026 5.52372 8.91026C5.44804 8.91026 5.38903 8.9179 5.34406 8.9299C5.31104 8.9387 5.28515 8.94572 5.26614 8.951L5.24372 8.95735C5.23909 8.9587 5.23687 8.95939 5.23632 8.95956C5.23617 8.95961 5.23614 8.95961 5.23622 8.95959L5.23167 8.96111C5.10665 8.99957 4.98866 9.0236 4.88372 9.0236C4.73287 9.0236 4.59487 8.96931 4.49295 8.85171L4.48861 8.8467C4.39715 8.73414 4.35538 8.59946 4.35538 8.45526C4.35538 8.36799 4.37106 8.28232 4.40739 8.20239C4.44194 8.12638 4.4951 8.05471 4.55706 7.98755L5.26996 7.21026H4.42372C4.26552 7.21026 4.12247 7.15531 4.00974 7.04258C3.897 6.92984 3.84205 6.7868 3.84205 6.6286C3.84205 6.47306 3.89838 6.33344 4.0121 6.2256ZM9.30224 7.51556C9.17027 7.73988 9.09179 8.0935 9.09179 8.60193C9.09179 9.11036 9.17027 9.46398 9.30224 9.6883C9.43398 9.90491 9.59498 9.9936 9.79679 9.9936C9.9985 9.9936 10.1567 9.90517 10.284 9.68938L10.2853 9.68721C10.421 9.46354 10.5018 9.11054 10.5018 8.60193C10.5018 8.09332 10.421 7.74031 10.2853 7.51664L10.284 7.51449C10.1567 7.2987 9.9985 7.21026 9.79679 7.21026C9.59498 7.21026 9.43398 7.29895 9.30224 7.51556ZM14.3704 8.09208L14.0229 8.9136H14.725L14.3704 8.09208Z" fill="#21313F"/>
</svg>
