<svg width="24" height="24" viewBox="0 0 24 24" fill="none" xmlns="http://www.w3.org/2000/svg">
<path d="M12 1.5C6.21036 1.5 1.5 6.21036 1.5 12C1.5 17.7896 6.21036 22.5 12 22.5C17.7896 22.5 22.5 17.7896 22.5 12C22.5 6.21036 17.7896 1.5 12 1.5ZM17.4645 8.48099L10.6799 16.5579C10.6055 16.6466 10.5129 16.7182 10.4084 16.7679C10.3039 16.8176 10.1899 16.8443 10.0742 16.8462H10.0605C9.94732 16.8461 9.83538 16.8223 9.73198 16.7762C9.62858 16.7301 9.53602 16.6628 9.46031 16.5786L6.55262 13.3478C6.47878 13.2695 6.42133 13.1772 6.38366 13.0764C6.346 12.9755 6.32887 12.8682 6.33328 12.7606C6.3377 12.6531 6.36357 12.5475 6.40937 12.4501C6.45518 12.3527 6.51999 12.2654 6.60001 12.1934C6.68002 12.1214 6.77362 12.0661 6.87531 12.0308C6.977 11.9955 7.08472 11.9808 7.19214 11.9877C7.29957 11.9946 7.40452 12.023 7.50085 12.071C7.59717 12.1191 7.68292 12.1859 7.75305 12.2675L10.0393 14.8077L16.2278 7.44209C16.3666 7.2816 16.563 7.18219 16.7745 7.16533C16.986 7.14848 17.1957 7.21554 17.3582 7.35202C17.5206 7.4885 17.6229 7.68343 17.6428 7.89469C17.6627 8.10595 17.5987 8.31655 17.4645 8.48099Z" fill="#F2C94C"/>
</svg>
