<svg width="42" height="30" viewBox="0 0 42 30" fill="none" xmlns="http://www.w3.org/2000/svg">
<path d="M41.6395 11.3858L35.0498 4.89704C34.8191 4.66956 34.506 4.54209 34.1798 4.54209H28.8202V4.45564C28.8202 1.99876 26.7903 0 24.295 0H4.5255C2.02995 0 0 1.99876 0 4.45564V20.6776C0 23.1345 2.02995 25.1329 4.5255 25.1329H5.39548C5.96713 27.9063 8.46204 30 11.4446 30C14.4269 30 16.9221 27.9063 17.4941 25.1329H24.5059C25.0779 27.9063 27.5728 30 30.5554 30C33.538 30 36.0329 27.9063 36.6048 25.1329H40.7695C41.4492 25.1329 42 24.5906 42 23.9214V12.2424C42 11.9209 41.8705 11.613 41.6395 11.3858ZM33.67 6.96521L37.7991 11.0309H28.8202V6.96521H33.67ZM2.46094 20.6776V4.45564C2.46094 3.33495 3.38699 2.42312 4.5255 2.42312H24.295C25.4332 2.42312 26.3593 3.33495 26.3593 4.45564V19.4692C25.4313 20.3176 24.7673 21.4424 24.5059 22.7098H17.4941C16.9221 19.9371 14.4269 17.8434 11.4446 17.8434C8.46236 17.8434 5.96745 19.9371 5.39548 22.7098H4.5255C3.38699 22.7098 2.46094 21.7983 2.46094 20.6776ZM11.4446 27.5769C9.39803 27.5769 7.73305 25.9369 7.73305 23.9214C7.73305 21.9062 9.39803 20.2665 11.4446 20.2665C13.4916 20.2665 15.1566 21.9062 15.1566 23.9214C15.1566 25.9369 13.4913 27.5769 11.4446 27.5769ZM30.5554 27.5769C28.5084 27.5769 26.8434 25.9369 26.8434 23.9214C26.8434 21.9062 28.5084 20.2665 30.5554 20.2665C32.602 20.2665 34.2673 21.9062 34.2673 23.9214C34.2673 25.9369 32.602 27.5769 30.5554 27.5769ZM36.6048 22.7098C36.0329 19.9371 33.538 17.8434 30.5554 17.8434C29.9529 17.8434 29.371 17.9305 28.8202 18.0898V13.454H39.5391V22.7101H36.6048V22.7098Z" fill="#FA7268"/>
</svg>
