<svg width="17" height="24" viewBox="0 0 17 24" fill="none" xmlns="http://www.w3.org/2000/svg">
<path d="M16.2 13.35C16.3671 13.5729 16.4689 13.8378 16.4939 14.1153C16.519 14.3927 16.4662 14.6717 16.3416 14.9208C16.2171 15.17 16.0256 15.3795 15.7886 15.526C15.5516 15.6724 15.2786 15.75 15 15.75H2.25V22.5C2.25 22.6989 2.17098 22.8897 2.03033 23.0303C1.88968 23.171 1.69891 23.25 1.5 23.25C1.30109 23.25 1.11032 23.171 0.96967 23.0303C0.829018 22.8897 0.75 22.6989 0.75 22.5V1.5C0.75 1.30109 0.829018 1.11032 0.96967 0.96967C1.11032 0.829018 1.30109 0.75 1.5 0.75C1.69891 0.75 1.88968 0.829018 2.03033 0.96967C2.17098 1.11032 2.25 1.30109 2.25 1.5V2.25H15C15.2786 2.25 15.5516 2.32757 15.7886 2.47402C16.0256 2.62048 16.2171 2.83002 16.3416 3.07918C16.4662 3.32834 16.519 3.60727 16.4939 3.88471C16.4689 4.16215 16.3671 4.42715 16.2 4.65L12.9375 9L16.2 13.35Z" fill="url(#paint0_linear)"/>
<defs>
<linearGradient id="paint0_linear" x1="8.625" y1="0.75" x2="8.625" y2="23.25" gradientUnits="userSpaceOnUse">
<stop stop-color="#807c7c"/>
<stop offset="1" stop-color="#c7c3c3"/>
</linearGradient>
</defs>
</svg>
