<svg width="30" height="35" viewBox="0 0 30 35" fill="none" xmlns="http://www.w3.org/2000/svg">
<path d="M27.4144 16.5646C26.654 15.7851 25.8048 15.1745 24.8669 14.7327C25.9823 14.1351 26.8948 13.3036 27.6046 12.2383C28.4918 10.9131 28.9354 9.44506 28.9354 7.83408C28.9354 5.65145 28.1876 3.80661 26.692 2.29955C25.1965 0.766518 23.3967 0 21.2928 0C19.6451 0 18.1622 0.467706 16.8441 1.40312C15.7034 2.26058 14.8542 3.3389 14.2966 4.63808C12.7757 2.97513 10.9125 2.14365 8.70722 2.14365C6.57795 2.14365 4.76553 2.91017 3.26996 4.44321C1.7744 5.97624 1.02662 7.82108 1.02662 9.97773C1.02662 11.5887 1.47022 13.0568 2.35741 14.382C3.06717 15.4473 3.9924 16.2918 5.13308 16.9154C4.16984 17.3571 3.30798 17.9677 2.54753 18.7472C0.849176 20.4881 0 22.5798 0 25.0223V31.4532C0 32.4146 0.329531 33.2461 0.988593 33.9477C1.673 34.6492 2.49683 35 3.46008 35H13.9544C14.6388 35 15.2598 34.7921 15.8175 34.3764C16.4005 33.9866 16.8314 33.467 17.1103 32.8174H26.5399C27.4778 32.8174 28.289 32.4796 28.9734 31.804C29.6578 31.1024 30 30.271 30 29.3096V22.8786C29.9747 20.4102 29.1128 18.3055 27.4144 16.5646ZM16.3498 7.83408C16.3498 6.43096 16.8314 5.23571 17.7947 4.24833C18.7579 3.26095 19.924 2.76726 21.2928 2.76726C22.6616 2.76726 23.8276 3.26095 24.7909 4.24833C25.7541 5.23571 26.2357 6.43096 26.2357 7.83408C26.2357 9.21121 25.7541 10.4065 24.7909 11.4198C23.8276 12.4072 22.6616 12.9009 21.2928 12.9009C19.924 12.9009 18.7579 12.4072 17.7947 11.4198C16.8314 10.4324 16.3498 9.23719 16.3498 7.83408ZM5.1711 13.5635C4.20786 12.5761 3.72624 11.3808 3.72624 9.97773C3.72624 8.57461 4.20786 7.37936 5.1711 6.39198C6.13435 5.4046 7.30038 4.91091 8.6692 4.91091C10.038 4.91091 11.2041 5.4046 12.1673 6.39198C13.1305 7.37936 13.6122 8.57461 13.6122 9.97773C13.6122 11.3808 13.1305 12.5761 12.1673 13.5635C11.2041 14.5509 10.038 15.0445 8.6692 15.0445C7.30038 15.0445 6.13435 14.5509 5.1711 13.5635ZM14.6768 31.4532C14.6768 31.6611 14.6008 31.843 14.4487 31.9989C14.2966 32.1288 14.1191 32.1938 13.9163 32.1938H3.42205C3.21926 32.1938 3.04183 32.1288 2.88973 31.9989C2.76299 31.843 2.69962 31.6611 2.69962 31.4532V25.0223C2.69962 23.3333 3.28264 21.8912 4.44867 20.696C5.6147 19.5007 7.02155 18.9031 8.6692 18.9031C10.3169 18.9031 11.7364 19.5007 12.9278 20.696C12.9531 20.722 12.9658 20.735 12.9658 20.735V20.7739C14.1065 21.9692 14.6768 23.3853 14.6768 25.0223V31.4532ZM13.9924 18.0067C13.4601 17.565 12.8771 17.2012 12.2433 16.9154C13.815 16.0579 14.9556 14.8107 15.6654 13.1737C16.2738 13.8233 16.9582 14.343 17.7186 14.7327C16.7554 15.1745 15.8935 15.7851 15.1331 16.5646C14.7022 17.0063 14.3219 17.487 13.9924 18.0067ZM27.2624 29.3096C27.2624 29.5174 27.1863 29.6993 27.0342 29.8552C26.9075 29.9852 26.7427 30.0501 26.5399 30.0501H17.3764V25.0223C17.3764 23.2294 16.8948 21.5924 15.9316 20.1114C16.2357 19.5137 16.6033 18.9941 17.0342 18.5523C18.2256 17.3311 19.6451 16.7205 21.2928 16.7205C22.9404 16.7205 24.3473 17.3311 25.5133 18.5523C26.6793 19.7476 27.2624 21.1897 27.2624 22.8786V29.3096Z" fill="#FA7268"/>
</svg>
