<svg width="36" height="36" viewBox="0 0 36 36" fill="none" xmlns="http://www.w3.org/2000/svg">
<g clip-path="url(#clip0)">
<path d="M34.3636 22.909H1.63638C0.736383 22.909 0 22.1726 0 21.2726V3.27261C0 2.37261 0.736383 1.63623 1.63638 1.63623H34.3637C35.2637 1.63623 36.0001 2.37261 36.0001 3.27261V21.2726C36 22.1726 35.2636 22.909 34.3636 22.909Z" fill="#0E9347"/>
<path d="M30.2728 16.3638C28.3909 16.3638 26.6728 17.2638 25.6909 18.7365C24.8728 18.3275 23.9728 18.0001 22.9091 18.0001C20.0455 18.0001 17.6728 20.1275 17.2637 22.9092H34.3637C35.1818 22.9092 35.8364 22.3365 36.0001 21.5183C35.6728 18.6547 33.2182 16.3638 30.2728 16.3638Z" fill="#0D8944"/>
<path d="M31.091 21.2729H4.90917C4.90917 19.4729 3.43647 18.0002 1.63647 18.0002V6.54565C3.43647 6.54565 4.90917 5.07295 4.90917 3.27295H31.091C31.091 5.07295 32.5637 6.54565 34.3637 6.54565V18.0002C32.5637 18.0002 31.091 19.4729 31.091 21.2729Z" fill="#3BB54A"/>
<path d="M30.2726 16.3638C28.3907 16.3638 26.6726 17.2638 25.6907 18.7365C24.8726 18.3275 23.9725 18.0002 22.9089 18.0002C20.618 18.0002 18.6544 19.3092 17.7544 21.2729H31.0908C31.0908 19.4729 32.4817 18.0819 34.2817 18.0002C33.218 17.0183 31.8272 16.3638 30.2726 16.3638Z" fill="#0E9347"/>
<path d="M18 19.6364C21.615 19.6364 24.5455 16.3396 24.5455 12.2728C24.5455 8.20598 21.615 4.90918 18 4.90918C14.3851 4.90918 11.4546 8.20598 11.4546 12.2728C11.4546 16.3396 14.3851 19.6364 18 19.6364Z" fill="#0E9347"/>
<path d="M8.18179 13.909C9.08554 13.909 9.81818 13.1764 9.81818 12.2726C9.81818 11.3689 9.08554 10.6362 8.18179 10.6362C7.27804 10.6362 6.54541 11.3689 6.54541 12.2726C6.54541 13.1764 7.27804 13.909 8.18179 13.909Z" fill="#0E9347"/>
<path d="M27.818 13.909C28.7218 13.909 29.4544 13.1764 29.4544 12.2726C29.4544 11.3689 28.7218 10.6362 27.818 10.6362C26.9143 10.6362 26.1816 11.3689 26.1816 12.2726C26.1816 13.1764 26.9143 13.909 27.818 13.909Z" fill="#0E9347"/>
<path d="M18.8181 11.4545H17.1818C16.6908 11.4545 16.3636 11.1272 16.3636 10.6364C16.3636 10.1455 16.6909 9.81824 17.1818 9.81824H19.6363C20.1272 9.81824 20.4544 9.49093 20.4544 9.00008C20.4544 8.50916 20.1271 8.18193 19.6363 8.18193H18.8181C18.8181 7.691 18.4908 7.36377 18 7.36377C17.5091 7.36377 17.1818 7.69107 17.1818 8.18193C15.7909 8.18193 14.7273 9.24554 14.7273 10.6365C14.7273 12.0274 15.7909 13.091 17.1818 13.091H18.8182C19.3091 13.091 19.6364 13.4183 19.6364 13.9092C19.6364 14.4001 19.3091 14.7273 18.8182 14.7273H16.3637C15.8728 14.7273 15.5455 15.0546 15.5455 15.5455C15.5455 16.0364 15.8728 16.3636 16.3637 16.3636H17.1818C17.1818 16.8545 17.5091 17.1818 18 17.1818C18.4909 17.1818 18.8181 16.8545 18.8181 16.3636C20.2091 16.3636 21.2727 15.3 21.2727 13.9091C21.2727 12.5182 20.2091 11.4545 18.8181 11.4545Z" fill="#89C763"/>
<path d="M21.2727 29.4546C24.4358 29.4546 27 26.8904 27 23.7273C27 20.5642 24.4358 18 21.2727 18C18.1096 18 15.5454 20.5642 15.5454 23.7273C15.5454 26.8904 18.1096 29.4546 21.2727 29.4546Z" fill="#FFCA5D"/>
<path d="M28.6365 27.8184C31.7996 27.8184 34.3638 25.2542 34.3638 22.0911C34.3638 18.928 31.7996 16.3638 28.6365 16.3638C25.4734 16.3638 22.9092 18.928 22.9092 22.0911C22.9092 25.2542 25.4734 27.8184 28.6365 27.8184Z" fill="#F6B545"/>
<path d="M28.6365 16.3638C25.4456 16.3638 22.9092 18.9002 22.9092 22.0911C22.9092 25.282 25.4456 27.8184 28.6365 27.8184C31.8274 27.8184 34.3638 25.282 34.3638 22.0911C34.3638 18.9002 31.8274 16.3638 28.6365 16.3638ZM28.6365 26.182C26.3456 26.182 24.5456 24.382 24.5456 22.0911C24.5456 19.8002 26.3456 18.0002 28.6365 18.0002C30.9274 18.0002 32.7274 19.8002 32.7274 22.0911C32.7274 24.382 30.9274 26.182 28.6365 26.182Z" fill="#FFCB5B"/>
<path d="M28.6365 27.7363C31.8274 27.8181 34.3638 25.1999 34.3638 22.0908H34.2819C33.8729 22.0908 33.5456 22.4181 33.4638 22.8272C33.3002 23.9727 32.7274 25.0363 31.9092 25.7727C31.2547 26.4272 30.3547 26.8363 29.3729 26.9999C28.9637 26.9999 28.6365 27.3272 28.6365 27.7363Z" fill="#F6B545"/>
<path d="M28.6365 16.4452C25.4456 16.3634 22.9092 18.9816 22.9092 22.0907H22.991C23.4001 22.0907 23.7274 21.7634 23.8092 21.3543C23.9728 20.2088 24.5456 19.1452 25.3637 18.4088C26.0183 17.7543 26.9183 17.3452 27.9001 17.1815C28.3092 17.1816 28.6365 16.8543 28.6365 16.4452Z" fill="#FFE27A"/>
<path d="M25.1181 22.6636C25.1181 20.3727 26.9181 18.5727 29.209 18.5727C30.1909 18.5727 31.0909 18.9 31.8272 19.5545C31.009 18.5727 29.9454 18 28.6363 18C26.3454 18 24.5454 19.8 24.5454 22.0909C24.5454 23.4 25.1181 24.4636 26.0181 25.2C25.4454 24.5455 25.1181 23.6455 25.1181 22.6636Z" fill="#F19920"/>
<path d="M31.0908 24.6276C31.009 24.6276 30.9272 24.6276 30.8454 24.5457C30.6818 24.3821 30.6818 24.1367 30.8454 23.9731C31.3363 23.4821 31.5818 22.7457 31.5818 22.0912C31.5818 21.8457 31.7454 21.6821 31.9908 21.6821C32.2363 21.6821 32.3999 21.8457 32.3999 22.0912C32.3999 22.9912 32.0726 23.8912 31.4999 24.5457C31.3363 24.6276 31.1726 24.6276 31.0908 24.6276Z" fill="#FFCB5B"/>
<path d="M28.6365 24.5452C28.1456 24.5452 27.8184 24.2179 27.8184 23.7271V20.4544C27.8184 19.9635 28.1457 19.6362 28.6365 19.6362C29.1274 19.6362 29.4547 19.9635 29.4547 20.4544V23.7271C29.4547 24.2179 29.1274 24.5452 28.6365 24.5452Z" fill="#F19920"/>
<path d="M31.6637 26.9182C31.091 24.8727 29.6183 23.2363 27.7364 22.5C27.4091 20.6182 26.1819 18.9818 24.6273 18C23.6455 19.0636 22.991 20.4545 22.991 22.0091C22.991 25.2 25.5273 27.7364 28.7183 27.7364C29.782 27.8182 30.7637 27.4909 31.6637 26.9182Z" fill="#F19920"/>
<path d="M26.0182 25.1998C25.4455 24.4634 25.0363 23.5634 25.0363 22.5816C25.0363 21.4362 25.5273 20.3726 26.3454 19.6362C26.1818 19.3907 26.0181 19.2271 25.8545 19.0635C25.0363 19.7999 24.5454 20.8635 24.5454 22.0908C24.5455 23.3998 25.1182 24.4634 26.0182 25.1998Z" fill="#E78825"/>
<path d="M27.8181 22.5815V23.727C27.8181 24.2179 28.1454 24.5452 28.6363 24.5452C29.1271 24.5452 29.4544 24.2179 29.4544 23.727V23.5634C28.9636 23.1542 28.3909 22.827 27.8181 22.5815Z" fill="#E78825"/>
<path d="M31.6637 26.9185C31.5001 26.3458 31.3364 25.8549 31.0092 25.3639C30.3546 25.8549 29.5365 26.1821 28.6365 26.1821C26.3456 26.1821 24.5456 24.3821 24.5456 22.0912C24.5456 20.8639 25.0365 19.8003 25.8546 19.0639C25.4456 18.6548 25.0365 18.3275 24.5456 18.082C23.5637 19.1456 22.9092 20.5366 22.9092 22.0911C22.9092 25.282 25.4456 27.8184 28.6365 27.8184C29.7819 27.8185 30.7637 27.4913 31.6637 26.9185Z" fill="#F6B545"/>
<path d="M31.4181 26.1821C30.8454 26.5912 30.109 26.8367 29.3726 27.0003C28.9635 27.0821 28.6362 27.4094 28.6362 27.8184C29.7817 27.8184 30.7635 27.4911 31.6635 26.9184C31.5818 26.673 31.4999 26.4276 31.4181 26.1821Z" fill="#F19920"/>
<path d="M24.5456 18.082C23.5637 19.1456 22.9092 20.5366 22.9092 22.0911H22.991C23.4001 22.0911 23.7274 21.7638 23.8092 21.3547C23.9728 20.2093 24.5456 19.2274 25.2819 18.4911C25.0365 18.4093 24.791 18.2456 24.5456 18.082Z" fill="#FFCB5B"/>
<path d="M21.2727 29.4546C24.4358 29.4546 27 26.8904 27 23.7273C27 20.5642 24.4358 18 21.2727 18C18.1096 18 15.5454 20.5642 15.5454 23.7273C15.5454 26.8904 18.1096 29.4546 21.2727 29.4546Z" fill="#F6B545"/>
<path d="M20.4546 27.8181C20.4546 28.3908 20.5364 28.8817 20.7001 29.4545C20.8637 29.4545 21.1091 29.4545 21.2727 29.4545C24.4637 29.4545 27.0001 26.9181 27.0001 23.7272C27.0001 23.1545 26.9182 22.6636 26.7546 22.0908C26.591 22.0908 26.3455 22.0908 26.1819 22.0908C22.991 22.0909 20.4546 24.6273 20.4546 27.8181Z" fill="#F19920"/>
<path d="M21.2727 18C18.0818 18 15.5454 20.5364 15.5454 23.7273C15.5454 26.9182 18.0818 29.4546 21.2727 29.4546C24.4636 29.4546 27 26.9182 27 23.7273C27 20.5365 24.4636 18 21.2727 18ZM21.2727 27.8182C18.9818 27.8182 17.1818 26.0182 17.1818 23.7272C17.1818 21.4363 18.9818 19.6363 21.2727 19.6363C23.5636 19.6363 25.3636 21.4363 25.3636 23.7272C25.3636 26.0182 23.5636 27.8182 21.2727 27.8182Z" fill="#FFCB5B"/>
<path d="M21.2727 29.3724C24.4636 29.4543 27 26.8361 27 23.7271H26.9182C26.5091 23.7271 26.1818 24.0544 26.1 24.4634C25.9364 25.6089 25.3636 26.6725 24.5455 27.4089C23.8909 28.0634 22.9909 28.4725 22.0091 28.6362C21.6 28.6361 21.2727 28.9634 21.2727 29.3724Z" fill="#F6B545"/>
<path d="M21.2727 18.0819C18.0818 18.0001 15.5454 20.6183 15.5454 23.7274H15.6273C16.0363 23.7274 16.3636 23.4001 16.4454 22.991C16.609 21.8456 17.1818 20.7819 17.9999 20.0456C18.6545 19.391 19.5545 18.9819 20.5363 18.8183C20.9455 18.8183 21.2727 18.491 21.2727 18.0819Z" fill="#FFE27A"/>
<path d="M17.7544 24.2998C17.7544 22.0089 19.5544 20.2089 21.8453 20.2089C22.8272 20.2089 23.7272 20.5362 24.4635 21.1908C23.6453 20.2089 22.5816 19.6362 21.2726 19.6362C18.9816 19.6362 17.1816 21.4362 17.1816 23.7271C17.1816 25.0362 17.7543 26.0998 18.6543 26.8362C18.0817 26.1817 17.7544 25.2817 17.7544 24.2998Z" fill="#F19920"/>
<path d="M23.7273 26.2633C23.6455 26.2633 23.5637 26.2633 23.4818 26.1815C23.3182 26.0179 23.3182 25.7724 23.4818 25.6088C23.9728 25.1179 24.2182 24.3815 24.2182 23.7269C24.2182 23.4815 24.3818 23.3179 24.6273 23.3179C24.8728 23.3179 25.0364 23.4815 25.0364 23.7269C25.0364 24.6269 24.7091 25.5269 24.1364 26.1815C23.9727 26.2633 23.8091 26.2633 23.7273 26.2633Z" fill="#FFCB5B"/>
<path d="M21.2727 26.182C20.7818 26.182 20.4546 25.8546 20.4546 25.3638V22.0911C20.4546 21.6002 20.7819 21.2729 21.2727 21.2729C21.7637 21.2729 22.0909 21.6003 22.0909 22.0911V25.3638C22.091 25.8546 21.7637 26.182 21.2727 26.182Z" fill="#F19920"/>
<path d="M25.0364 22.1727C25.2 22.6636 25.3637 23.1545 25.3637 23.7272C25.3637 26.0181 23.5637 27.8181 21.2727 27.8181C21.0273 27.8181 20.7001 27.8181 20.4546 27.7363V27.8181C20.4546 28.3908 20.5364 28.8817 20.7001 29.4545C20.8637 29.4545 21.1091 29.4545 21.2727 29.4545C24.4637 29.4545 27 26.9181 27 23.7272C27 23.1545 26.9182 22.6636 26.7546 22.0908C26.591 22.0908 26.3455 22.0908 26.1819 22.0908C25.7727 22.0909 25.4454 22.0909 25.0364 22.1727Z" fill="#F6B545"/>
<path d="M25.3635 34.3638C28.5266 34.3638 31.0908 31.7996 31.0908 28.6365C31.0908 25.4734 28.5266 22.9092 25.3635 22.9092C22.2004 22.9092 19.6362 25.4734 19.6362 28.6365C19.6362 31.7996 22.2004 34.3638 25.3635 34.3638Z" fill="#F6B545"/>
<path d="M25.3635 22.9092C22.1726 22.9092 19.6362 25.4456 19.6362 28.6365C19.6362 31.8274 22.1726 34.3638 25.3635 34.3638C28.5545 34.3638 31.0908 31.8274 31.0908 28.6365C31.0908 25.4456 28.5545 22.9092 25.3635 22.9092ZM25.3635 32.7274C23.0726 32.7274 21.2726 30.9274 21.2726 28.6365C21.2726 26.3456 23.0726 24.5456 25.3635 24.5456C27.6545 24.5456 29.4545 26.3456 29.4545 28.6365C29.4545 30.9274 27.6545 32.7274 25.3635 32.7274Z" fill="#FFCB5B"/>
<path d="M25.3635 34.2817C28.5544 34.3635 31.0908 31.7453 31.0908 28.6362H31.009C30.5999 28.6362 30.2726 28.9635 30.1908 29.3726C30.0272 30.5181 29.4545 31.5817 28.6363 32.3181C27.9818 32.9726 27.0818 33.3817 26.0999 33.5454C25.6908 33.5453 25.3635 33.8725 25.3635 34.2817Z" fill="#F6B545"/>
<path d="M25.3635 22.9906C22.1726 22.9088 19.6362 25.527 19.6362 28.6361H19.7181C20.1272 28.6361 20.4545 28.3088 20.5362 27.8997C20.6998 26.7543 21.2726 25.6906 22.0908 24.9543C22.7453 24.2997 23.6453 23.8906 24.6272 23.727C25.0363 23.727 25.3635 23.3997 25.3635 22.9906Z" fill="#FFE27A"/>
<path d="M21.8455 29.209C21.8455 26.9181 23.6455 25.1181 25.9364 25.1181C26.9182 25.1181 27.8182 25.4454 28.5545 26.1C27.7364 25.1181 26.6727 24.5454 25.3636 24.5454C23.0727 24.5454 21.2727 26.3454 21.2727 28.6363C21.2727 29.9454 21.8454 31.009 22.7454 31.7454C22.1727 31.0909 21.8455 30.1909 21.8455 29.209Z" fill="#F19920"/>
<path d="M27.8181 31.1725C27.7363 31.1725 27.6545 31.1725 27.5727 31.0907C27.409 30.9271 27.409 30.6816 27.5727 30.518C28.0636 30.0271 28.3091 29.2907 28.3091 28.6361C28.3091 28.3907 28.4727 28.2271 28.7181 28.2271C28.9636 28.2271 29.1272 28.3907 29.1272 28.6361C29.1272 29.5361 28.7999 30.4361 28.2272 31.0907C28.0636 31.1725 27.9 31.1725 27.8181 31.1725Z" fill="#FFCB5B"/>
<path d="M25.3636 31.0912C24.8726 31.0912 24.5454 30.7639 24.5454 30.2731V27.0003C24.5454 26.5094 24.8727 26.1821 25.3636 26.1821C25.8545 26.1821 26.1817 26.5094 26.1817 27.0003V30.273C26.1818 30.7639 25.8545 31.0912 25.3636 31.0912Z" fill="#F19920"/>
</g>
<defs>
<clipPath id="clip0">
<rect width="36" height="36" fill="white"/>
</clipPath>
</defs>
</svg>
