<svg width="20" height="20" viewBox="0 0 20 20" fill="none" xmlns="http://www.w3.org/2000/svg">
<path fill-rule="evenodd" clip-rule="evenodd" d="M7.5 5.83317C7.5 4.45246 8.61928 3.33317 10 3.33317C11.3807 3.33317 12.5 4.45246 12.5 5.83317C12.5 7.21388 11.3807 8.33317 10 8.33317C8.61928 8.33317 7.5 7.21388 7.5 5.83317ZM10 1.6665C7.69881 1.6665 5.83333 3.53198 5.83333 5.83317C5.83333 8.13436 7.69881 9.99984 10 9.99984C12.3012 9.99984 14.1667 8.13436 14.1667 5.83317C14.1667 3.53198 12.3012 1.6665 10 1.6665ZM6.66667 11.6665C5.5616 11.6665 4.50179 12.1055 3.72039 12.8869C2.93899 13.6683 2.5 14.7281 2.5 15.8332V17.4998C2.5 17.9601 2.8731 18.3332 3.33333 18.3332C3.79357 18.3332 4.16667 17.9601 4.16667 17.4998V15.8332C4.16667 15.1701 4.43006 14.5342 4.8989 14.0654C5.36774 13.5966 6.00363 13.3332 6.66667 13.3332H13.3333C13.9964 13.3332 14.6323 13.5966 15.1011 14.0654C15.5699 14.5342 15.8333 15.1701 15.8333 15.8332V17.4998C15.8333 17.9601 16.2064 18.3332 16.6667 18.3332C17.1269 18.3332 17.5 17.9601 17.5 17.4998V15.8332C17.5 14.7281 17.061 13.6683 16.2796 12.8869C15.4982 12.1055 14.4384 11.6665 13.3333 11.6665H6.66667Z" fill="#21313F"/>
</svg>
