<svg width="14" height="14" viewBox="0 0 14 14" fill="none" xmlns="http://www.w3.org/2000/svg">
<path fill-rule="evenodd" clip-rule="evenodd" d="M9.20499 1.39274C8.74051 1.39274 8.29506 1.57725 7.96663 1.90568L2.6058 7.26652C2.05845 7.81386 1.75096 8.55622 1.75096 9.33029C1.75096 10.1044 2.05845 10.8467 2.6058 11.3941C3.15314 11.9414 3.89551 12.2489 4.66957 12.2489C5.44363 12.2489 6.18599 11.9414 6.73334 11.3941L12.0942 6.03323C12.322 5.80542 12.6913 5.80542 12.9191 6.03323C13.1469 6.26103 13.1469 6.63038 12.9191 6.85818L7.5583 12.219C6.79216 12.9852 5.75305 13.4156 4.66957 13.4156C3.58609 13.4156 2.54698 12.9852 1.78084 12.219C1.0147 11.4529 0.58429 10.4138 0.58429 9.33029C0.58429 8.24681 1.0147 7.2077 1.78084 6.44156L7.14167 1.08073C7.6889 0.533502 8.43109 0.226074 9.20499 0.226074C9.97888 0.226074 10.7211 0.533501 11.2683 1.08073C11.8155 1.62795 12.1229 2.37015 12.1229 3.14404C12.1229 3.91793 11.8155 4.66013 11.2683 5.20735L5.90163 10.5682C5.57332 10.8965 5.12804 11.0809 4.66374 11.0809C4.19943 11.0809 3.75415 10.8965 3.42584 10.5682C3.09753 10.2399 2.91309 9.79459 2.91309 9.33029C2.91309 8.86599 3.09753 8.4207 3.42584 8.09239L8.37858 3.14548C8.60652 2.91781 8.97587 2.91803 9.20354 3.14597C9.43121 3.37391 9.43099 3.74326 9.20305 3.97093L4.2508 8.91735C4.14143 9.02684 4.07975 9.17552 4.07975 9.33029C4.07975 9.48517 4.14128 9.63371 4.2508 9.74323C4.36032 9.85274 4.50885 9.91427 4.66374 9.91427C4.81862 9.91427 4.96715 9.85274 5.07667 9.74323L10.4433 4.38239C10.7716 4.05398 10.9563 3.60841 10.9563 3.14404C10.9563 2.67956 10.7718 2.23412 10.4433 1.90568C10.1149 1.57725 9.66946 1.39274 9.20499 1.39274Z" fill="#7A838C"/>
</svg>
