<svg width="20" height="20" viewBox="0 0 20 20" fill="none" xmlns="http://www.w3.org/2000/svg">
<path d="M16.6406 0.625H13.75C13.5221 0.625 13.3035 0.715541 13.1423 0.876705C12.9812 1.03787 12.8906 1.25645 12.8906 1.48438C12.8906 1.7123 12.9812 1.93088 13.1423 2.09204C13.3035 2.25321 13.5221 2.34375 13.75 2.34375H14.566L13.1168 3.79258C12.5384 3.11742 11.8206 2.5755 11.0129 2.20403C10.2051 1.83256 9.32656 1.64036 8.4375 1.64062C5.03437 1.64062 2.26562 4.40937 2.26562 7.8125C2.26562 10.9242 4.58047 13.5047 7.57812 13.9242V15.3906H6.48438C6.25645 15.3906 6.03787 15.4812 5.87671 15.6423C5.71554 15.8035 5.625 16.0221 5.625 16.25C5.625 16.4779 5.71554 16.6965 5.87671 16.8577C6.03787 17.0188 6.25645 17.1094 6.48438 17.1094H7.57812V18.5156C7.57812 18.7435 7.66867 18.9621 7.82983 19.1233C7.99099 19.2845 8.20958 19.375 8.4375 19.375C8.66542 19.375 8.88401 19.2845 9.04517 19.1233C9.20633 18.9621 9.29688 18.7435 9.29688 18.5156V17.1094H10.3906C10.6185 17.1094 10.8371 17.0188 10.9983 16.8577C11.1595 16.6965 11.25 16.4779 11.25 16.25C11.25 16.0221 11.1595 15.8035 10.9983 15.6423C10.8371 15.4812 10.6185 15.3906 10.3906 15.3906H9.29688V13.9242C12.2945 13.5047 14.6094 10.9242 14.6094 7.8125C14.6098 6.93788 14.4234 6.07326 14.0625 5.27656L15.7812 3.55781V4.375C15.7812 4.60292 15.8718 4.82151 16.033 4.98267C16.1941 5.14383 16.4127 5.23438 16.6406 5.23438C16.8685 5.23438 17.0871 5.14383 17.2483 4.98267C17.4095 4.82151 17.5 4.60292 17.5 4.375V1.48438C17.5 1.25645 17.4095 1.03787 17.2483 0.876705C17.0871 0.715541 16.8685 0.625 16.6406 0.625ZM8.4375 12.2656C7.55676 12.2656 6.69579 12.0045 5.96348 11.5151C5.23116 11.0258 4.6604 10.3303 4.32335 9.51664C3.9863 8.70294 3.89812 7.80756 4.06994 6.94374C4.24177 6.07992 4.66588 5.28645 5.28867 4.66366C5.91145 4.04088 6.70492 3.61677 7.56874 3.44494C8.43256 3.27312 9.32794 3.3613 10.1416 3.69835C10.9553 4.0354 11.6508 4.60616 12.1401 5.33848C12.6295 6.07079 12.8906 6.93176 12.8906 7.8125C12.8893 8.99313 12.4197 10.125 11.5849 10.9599C10.75 11.7947 9.61813 12.2643 8.4375 12.2656Z" fill="#21313F"/>
</svg>
