<svg width="36" height="36" viewBox="0 0 36 36" fill="none" xmlns="http://www.w3.org/2000/svg">
<path d="M23.7272 0H7.36347C5.97255 0 4.90894 1.06362 4.90894 2.45454V6.54546V33.5455C4.90894 34.9364 5.97255 36 7.36347 36H23.7271C25.118 36 26.1816 34.9364 26.1816 33.5455V6.54546V2.45454C26.1817 1.06362 25.118 0 23.7272 0Z" fill="#595A66"/>
<path d="M25.3638 0.654297V3.27245V4.9906V7.3633V13.0906V33.5451C25.3638 34.4451 24.6274 35.1815 23.7274 35.1815H6.54565C6.05473 35.1815 5.64565 35.0179 5.23657 34.8542C5.72749 35.5088 6.46381 35.9997 7.36381 35.9997H23.7274C25.1183 35.9997 26.182 34.9361 26.182 33.5452V6.54521V2.45429C26.182 1.71791 25.8547 1.06337 25.3638 0.654297Z" fill="#494A52"/>
<path d="M24.5454 6.54521V30.2725C24.5454 30.6816 24.2181 31.0907 23.7272 31.0907H7.36357C6.87264 31.0907 6.54541 30.7634 6.54541 30.2725V6.54521C6.54541 6.13613 6.87271 5.72705 7.36357 5.72705H23.7272C24.2181 5.72705 24.5454 6.05429 24.5454 6.54521Z" fill="#70B7E5"/>
<path d="M23.7273 5.72705H7.36357C6.87264 5.72705 6.54541 6.05436 6.54541 6.54521V7.36337C6.54541 6.95429 6.87271 6.54521 7.36357 6.54521H23.7272C24.2181 6.54521 24.5453 6.87251 24.5453 7.36337V6.54521C24.5454 6.05429 24.2181 5.72705 23.7273 5.72705Z" fill="#4C9CD6"/>
<path d="M15.5452 34.3634C15.9971 34.3634 16.3634 33.9971 16.3634 33.5452C16.3634 33.0933 15.9971 32.7271 15.5452 32.7271C15.0934 32.7271 14.7271 33.0933 14.7271 33.5452C14.7271 33.9971 15.0934 34.3634 15.5452 34.3634Z" fill="#35363E"/>
<path d="M7.36353 30.273V26.1821L11.4544 30.273H7.36353Z" fill="#90CEF1"/>
<path d="M7.36353 24.5456L13.0908 30.2728H14.7272L7.36353 22.9092V24.5456Z" fill="#90CEF1"/>
<path d="M5.72709 30.7636C5.72709 31.5 5.39979 32.2363 4.90894 32.7272V16.8545C5.39986 17.3454 5.72709 18.0818 5.72709 18.8181V30.7636Z" fill="#6F707E"/>
<path d="M10.1453 0.818156C9.40887 0.818156 8.67256 0.490852 8.18164 0H21.2725C20.7816 0.490922 20.0452 0.818156 19.3089 0.818156H10.1453Z" fill="#6F707E"/>
<path d="M17.5911 3.27226H13.5001C13.2547 3.27226 13.0911 3.10864 13.0911 2.86318C13.0911 2.61772 13.2547 2.4541 13.5001 2.4541H17.5911C17.8365 2.4541 18.0001 2.61772 18.0001 2.86318C18.0001 3.10864 17.8365 3.27226 17.5911 3.27226Z" fill="#35363E"/>
<path d="M11.8637 2.4541C12.1091 2.4541 12.2727 2.61772 12.2727 2.86318C12.2727 3.10864 12.1091 3.27226 11.8637 3.27226C11.6182 3.27226 11.4546 3.10864 11.4546 2.86318C11.4546 2.61772 11.6182 2.4541 11.8637 2.4541Z" fill="#35363E"/>
<path d="M29.4544 23.7272H14.7272C13.8272 23.7272 13.0908 22.9908 13.0908 22.0908V12.2726C13.0908 11.3726 13.8272 10.6362 14.7272 10.6362H29.4545C30.3545 10.6362 31.0909 11.3726 31.0909 12.2726V22.0908C31.0908 22.9908 30.3544 23.7272 29.4544 23.7272Z" fill="#F37321"/>
<path d="M20.4545 23.7271H15.5454L21.2726 10.6362H26.1818L20.4545 23.7271Z" fill="#F79548"/>
<path d="M22.9088 23.7271H21.2725L26.9998 10.6362H28.6362L22.9088 23.7271Z" fill="#F79548"/>
<path d="M20.8635 20.4544H15.1361C14.8907 20.4544 14.7271 20.2908 14.7271 20.0453C14.7271 19.7998 14.8907 19.6362 15.1361 19.6362H20.8635C21.1089 19.6362 21.2725 19.7998 21.2725 20.0453C21.2725 20.2908 21.1089 20.4544 20.8635 20.4544Z" fill="#EA5434"/>
<path d="M20.8638 20.4544C21.1092 20.4544 21.2728 20.2908 21.2728 20.0453C21.2728 19.7998 21.1092 19.6362 20.8638 19.6362H17.3456L17.0183 20.4544H20.8638Z" fill="#F37321"/>
<path d="M18.4088 22.0911H15.1361C14.8907 22.0911 14.7271 21.9275 14.7271 21.682C14.7271 21.4366 14.8907 21.2729 15.1361 21.2729H18.4088C18.6543 21.2729 18.8179 21.4366 18.8179 21.682C18.8179 21.9275 18.6543 22.0911 18.4088 22.0911Z" fill="#EA5434"/>
<path d="M18.409 22.0911C18.6545 22.0911 18.8181 21.9275 18.8181 21.682C18.8181 21.4366 18.6545 21.2729 18.409 21.2729H16.609L16.2817 22.0911H18.409Z" fill="#F37321"/>
<path d="M31.0908 13.0908H13.0908V16.3635H31.0908V13.0908Z" fill="#014463"/>
<path d="M24.4636 16.3635H26.1L27.5727 13.0908H25.9364L24.4636 16.3635Z" fill="#0B5068"/>
<path d="M18.7366 16.3635H23.6456L25.1183 13.0908H20.2093L18.7366 16.3635Z" fill="#0B5068"/>
<path d="M25.3636 23.7271H24.5454V24.5452H25.3636V23.7271Z" fill="#494A52"/>
<path d="M14.7271 23.7271C15.218 24.218 15.9544 24.5452 16.6907 24.5452H24.5452V23.7271H14.7271Z" fill="#4C9CD6"/>
</svg>
