<svg width="20" height="20" viewBox="0 0 20 20" fill="none" xmlns="http://www.w3.org/2000/svg">
<path d="M7.27273 14.5455H12.7273V20H7.27273V14.5455ZM20 19.0909C20 19.332 19.9042 19.5632 19.7337 19.7337C19.5632 19.9042 19.332 20 19.0909 20H14.5455V13.6364C14.5455 13.3953 14.4497 13.164 14.2792 12.9935C14.1087 12.8231 13.8775 12.7273 13.6364 12.7273H6.36364C6.12253 12.7273 5.8913 12.8231 5.72081 12.9935C5.55032 13.164 5.45455 13.3953 5.45455 13.6364V20H0.909091C0.667985 20 0.436754 19.9042 0.266267 19.7337C0.0957789 19.5632 0 19.332 0 19.0909C0 18.8498 0.0957789 18.6186 0.266267 18.4481C0.436754 18.2776 0.667985 18.1818 0.909091 18.1818H1.81818V0.909091C1.81818 0.667985 1.91396 0.436754 2.08445 0.266267C2.25494 0.0957789 2.48617 0 2.72727 0H17.2727C17.5138 0 17.7451 0.0957789 17.9156 0.266267C18.086 0.436754 18.1818 0.667985 18.1818 0.909091V18.1818H19.0909C19.332 18.1818 19.5632 18.2776 19.7337 18.4481C19.9042 18.6186 20 18.8498 20 19.0909ZM7.27273 8.18182C7.27273 7.94071 7.17695 7.70948 7.00646 7.53899C6.83597 7.36851 6.60474 7.27273 6.36364 7.27273C6.12253 7.27273 5.8913 7.36851 5.72081 7.53899C5.55032 7.70948 5.45455 7.94071 5.45455 8.18182V9.09091C5.45455 9.33202 5.55032 9.56325 5.72081 9.73373C5.8913 9.90422 6.12253 10 6.36364 10C6.60474 10 6.83597 9.90422 7.00646 9.73373C7.17695 9.56325 7.27273 9.33202 7.27273 9.09091V8.18182ZM7.27273 3.63636C7.27273 3.39526 7.17695 3.16403 7.00646 2.99354C6.83597 2.82305 6.60474 2.72727 6.36364 2.72727C6.12253 2.72727 5.8913 2.82305 5.72081 2.99354C5.55032 3.16403 5.45455 3.39526 5.45455 3.63636V4.54545C5.45455 4.78656 5.55032 5.01779 5.72081 5.18828C5.8913 5.35877 6.12253 5.45455 6.36364 5.45455C6.60474 5.45455 6.83597 5.35877 7.00646 5.18828C7.17695 5.01779 7.27273 4.78656 7.27273 4.54545V3.63636ZM10.9091 8.18182C10.9091 7.94071 10.8133 7.70948 10.6428 7.53899C10.4723 7.36851 10.2411 7.27273 10 7.27273C9.75889 7.27273 9.52766 7.36851 9.35718 7.53899C9.18669 7.70948 9.09091 7.94071 9.09091 8.18182V9.09091C9.09091 9.33202 9.18669 9.56325 9.35718 9.73373C9.52766 9.90422 9.75889 10 10 10C10.2411 10 10.4723 9.90422 10.6428 9.73373C10.8133 9.56325 10.9091 9.33202 10.9091 9.09091V8.18182ZM10.9091 3.63636C10.9091 3.39526 10.8133 3.16403 10.6428 2.99354C10.4723 2.82305 10.2411 2.72727 10 2.72727C9.75889 2.72727 9.52766 2.82305 9.35718 2.99354C9.18669 3.16403 9.09091 3.39526 9.09091 3.63636V4.54545C9.09091 4.78656 9.18669 5.01779 9.35718 5.18828C9.52766 5.35877 9.75889 5.45455 10 5.45455C10.2411 5.45455 10.4723 5.35877 10.6428 5.18828C10.8133 5.01779 10.9091 4.78656 10.9091 4.54545V3.63636ZM14.5455 8.18182C14.5455 7.94071 14.4497 7.70948 14.2792 7.53899C14.1087 7.36851 13.8775 7.27273 13.6364 7.27273C13.3953 7.27273 13.164 7.36851 12.9935 7.53899C12.8231 7.70948 12.7273 7.94071 12.7273 8.18182V9.09091C12.7273 9.33202 12.8231 9.56325 12.9935 9.73373C13.164 9.90422 13.3953 10 13.6364 10C13.8775 10 14.1087 9.90422 14.2792 9.73373C14.4497 9.56325 14.5455 9.33202 14.5455 9.09091V8.18182ZM14.5455 3.63636C14.5455 3.39526 14.4497 3.16403 14.2792 2.99354C14.1087 2.82305 13.8775 2.72727 13.6364 2.72727C13.3953 2.72727 13.164 2.82305 12.9935 2.99354C12.8231 3.16403 12.7273 3.39526 12.7273 3.63636V4.54545C12.7273 4.78656 12.8231 5.01779 12.9935 5.18828C13.164 5.35877 13.3953 5.45455 13.6364 5.45455C13.8775 5.45455 14.1087 5.35877 14.2792 5.18828C14.4497 5.01779 14.5455 4.78656 14.5455 4.54545V3.63636Z" fill="url(#paint0_linear)"/>
<defs>
<linearGradient id="paint0_linear" x1="10" y1="0" x2="10" y2="20" gradientUnits="userSpaceOnUse">
<stop stop-color="#EA7A6E"/>
<stop offset="1" stop-color="#E23A28"/>
</linearGradient>
</defs>
</svg>
