<svg width="160" height="90" viewBox="0 0 160 90" fill="none" xmlns="http://www.w3.org/2000/svg">
<path d="M8.45734 72.9888C8.45734 72.9888 14.019 42.6335 15.9807 32.3691C17.6399 23.7064 19.1894 12.5459 19.1842 8.57511C20.3529 8.4 21.5842 8.4309 21.965 5.73734C22.2259 3.79571 21.1198 1.25665 19.4503 0.834335L19.3407 0.813734C17.8955 0.530472 15.7929 1.50901 15.0364 4.18712C15.0364 4.18712 14.7755 5.62918 15.2607 6.77768C15.2712 8.13734 12.339 21.5743 10.4191 30.7674C8.06604 42.0309 2.2435 71.382 2.20698 71.6086L0.229606 82.5167C-0.36517 86.4155 0.18265 88.9442 2.02437 89.3974C4.22608 89.9485 5.60346 87.8936 6.67823 81.8833L8.45734 72.9888ZM4.17391 85.8077C3.88696 86.6781 3.44348 86.7863 3.04175 86.709C2.79653 86.6627 2.58262 86.5494 2.40002 86.4876C1.60698 86.1785 1.51307 85.097 1.56524 84.1391C2.57219 85.2876 4.06435 84.8189 4.06435 84.8189C3.51131 84.6283 3.06784 84.3914 2.69219 84.1082C3.48001 84.3708 4.21565 84.1391 4.21565 84.1391C2.99479 83.7219 2.24871 82.97 1.76872 82.4034L3.37566 71.9588C3.39653 71.8661 4.64869 65.6601 6.21911 57.9193C5.82781 60.6644 5.47824 63.2549 5.15999 65.6292C4.85216 67.9519 4.63304 71.9897 4.46608 72.8292C9.44342 46.6661 11.426 34.4137 12.5582 26.9923C12.579 26.9562 12.5895 26.8996 12.5843 26.8584C14.2121 18.9116 15.8033 10.5837 16.5025 7.21545C16.6173 6.62833 15.9286 6.0927 16.2103 5.02661C16.7216 3.02318 18.1251 2.03433 19.1216 2.17339C21.3024 2.48755 21.365 4.57339 21.3337 5.34592C20.9737 7.78197 19.8311 7.80773 19.2833 7.96738L18.6781 7.97253L18.5738 8.77082C18.5581 8.90472 17.0399 21.8009 15.0886 31.9983C13.1582 42.103 7.19475 71.8661 7.02779 72.7622C7.02779 72.7674 5.21216 83.1966 4.17391 85.8077ZM15.8138 9.27554C15.8033 9.31674 15.7981 9.35794 15.7877 9.39399C15.746 9.59485 15.6938 9.80601 15.6312 10.0275C15.5686 10.2644 15.5216 10.5064 15.459 10.7433L15.8138 9.27554ZM18.0833 7.06095C14.6921 6.05665 17.6764 3.04893 17.9007 2.83262C15.6416 5.80944 18.0833 7.06095 18.0833 7.06095ZM18.0833 7.06095C14.6921 6.05665 17.6764 3.04893 17.9007 2.83262C15.6416 5.80944 18.0833 7.06095 18.0833 7.06095ZM18.0833 7.06095C14.6921 6.05665 17.6764 3.04893 17.9007 2.83262C15.6416 5.80944 18.0833 7.06095 18.0833 7.06095ZM17.9007 2.83262C15.6364 5.80944 18.0833 7.06095 18.0833 7.06095C14.6921 6.05665 17.6764 3.04893 17.9007 2.83262ZM18.0833 7.06095C14.6921 6.05665 17.6764 3.04893 17.9007 2.83262C15.6416 5.80944 18.0833 7.06095 18.0833 7.06095ZM41.89 3.17253C41.3265 3.12103 40.7213 3.07983 40.0587 3.03863C40.0587 3.03863 40.1109 3.02318 40.2048 3.01288C40.8048 3.05408 41.3683 3.11073 41.89 3.17253ZM33.2397 38.3382C33.2658 51.4352 33.5214 65.6755 33.5214 65.6755C32.9579 53.6395 32.6188 46.97 32.6866 38.3382C32.7388 31.4163 33.1197 26.0086 33.1979 23.3562C33.3597 21.2858 33.4536 20.5957 33.4953 20.5957C33.5892 20.5957 33.511 23.2944 33.511 23.2944C33.511 23.794 33.2136 30.2987 33.2397 38.3382ZM41.1231 65.8867L41.4309 59.7476C41.4309 59.7476 41.4726 44.127 41.4726 36.9528C41.4883 30.9064 40.5283 22.9803 40.3405 20.7193C41.6709 20.4155 42.6152 19.9622 42.4535 18.103C42.3335 16.7588 40.45 15.2446 38.3892 15.2446C36.6153 15.2446 34.2153 16.2541 33.9231 18.2215L33.8971 18.3811C33.8971 18.4893 34.0066 28.8876 33.7614 36.7674C33.5318 44.673 33.9492 59.5519 33.9649 59.7219L34.0849 67.3185C34.2623 70.0275 36.1562 71.6601 38.4309 71.6601C40.5022 71.6601 42.4535 70.1871 42.4535 68.6318C42.4587 67.9365 42.5526 66.4172 41.1231 65.8867ZM38.5301 69.7957H38.4361C36.8501 69.77 35.9736 67.7511 35.9057 67.2052L35.4205 59.7528C35.4205 59.6086 34.7214 44.8996 34.9614 37.0764C35.191 29.7425 35.431 19.9416 35.4883 18.5871C35.744 18.2163 37.2622 17.1657 38.4883 17.1245C40.0744 17.073 40.5179 18.0824 40.6535 18.3193C40.7318 19.406 40.3979 19.5296 39.777 19.7253L39.0622 19.9519L39.1301 20.6936C39.1457 20.7863 40.2622 29.6343 40.2466 36.7674C40.2466 43.8335 39.9126 59.0575 39.9126 59.6807L39.657 66.1494L39.6309 66.8652L40.2883 67.0764C40.6118 67.1949 40.6379 67.7408 40.6379 68.6163C40.5335 69.291 39.7926 69.7957 38.5301 69.7957ZM33.2397 38.3382C33.2658 51.4352 33.5214 65.6755 33.5214 65.6755C32.9579 53.6395 32.6188 46.97 32.6866 38.3382C32.7388 31.4163 33.1197 26.0086 33.1979 23.3562C33.3597 21.2858 33.4536 20.5957 33.4953 20.5957C33.5892 20.5957 33.511 23.2944 33.511 23.2944C33.511 23.794 33.2136 30.2987 33.2397 38.3382ZM41.1231 65.8867L41.4309 59.7476C41.4309 59.7476 41.4726 44.127 41.4726 36.9528C41.4883 30.9064 40.5283 22.9803 40.3405 20.7193C41.6709 20.4155 42.6152 19.9622 42.4535 18.103C42.3335 16.7588 40.45 15.2446 38.3892 15.2446C36.6153 15.2446 34.2153 16.2541 33.9231 18.2215L33.8971 18.3811C33.8971 18.4893 34.0066 28.8876 33.7614 36.7674C33.5318 44.673 33.9492 59.5519 33.9649 59.7219L34.0849 67.3185C34.2623 70.0275 36.1562 71.6601 38.4309 71.6601C40.5022 71.6601 42.4535 70.1871 42.4535 68.6318C42.4587 67.9365 42.5526 66.4172 41.1231 65.8867ZM38.5301 69.7957H38.4361C36.8501 69.77 35.9736 67.7511 35.9057 67.2052L35.4205 59.7528C35.4205 59.6086 34.7214 44.8996 34.9614 37.0764C35.191 29.7425 35.431 19.9416 35.4883 18.5871C35.744 18.2163 37.2622 17.1657 38.4883 17.1245C40.0744 17.073 40.5179 18.0824 40.6535 18.3193C40.7318 19.406 40.3979 19.5296 39.777 19.7253L39.0622 19.9519L39.1301 20.6936C39.1457 20.7863 40.2622 29.6343 40.2466 36.7674C40.2466 43.8335 39.9126 59.0575 39.9126 59.6807L39.657 66.1494L39.6309 66.8652L40.2883 67.0764C40.6118 67.1949 40.6379 67.7408 40.6379 68.6163C40.5335 69.291 39.7926 69.7957 38.5301 69.7957ZM41.1231 65.8867L41.4309 59.7476C41.4309 59.7476 41.4726 44.127 41.4726 36.9528C41.4883 30.9064 40.5283 22.9803 40.3405 20.7193C41.6709 20.4155 42.6152 19.9622 42.4535 18.103C42.3335 16.7588 40.45 15.2446 38.3892 15.2446C36.6153 15.2446 34.2153 16.2541 33.9231 18.2215L33.8971 18.3811C33.8971 18.4893 34.0066 28.8876 33.7614 36.7674C33.5318 44.673 33.9492 59.5519 33.9649 59.7219L34.0849 67.3185C34.2623 70.0275 36.1562 71.6601 38.4309 71.6601C40.5022 71.6601 42.4535 70.1871 42.4535 68.6318C42.4587 67.9365 42.5526 66.4172 41.1231 65.8867ZM38.5301 69.7957H38.4361C36.8501 69.77 35.9736 67.7511 35.9057 67.2052L35.4205 59.7528C35.4205 59.6086 34.7214 44.8996 34.9614 37.0764C35.191 29.7425 35.431 19.9416 35.4883 18.5871C35.744 18.2163 37.2622 17.1657 38.4883 17.1245C40.0744 17.073 40.5179 18.0824 40.6535 18.3193C40.7318 19.406 40.3979 19.5296 39.777 19.7253L39.0622 19.9519L39.1301 20.6936C39.1457 20.7863 40.2622 29.6343 40.2466 36.7674C40.2466 43.8335 39.9126 59.0575 39.9126 59.6807L39.657 66.1494L39.6309 66.8652L40.2883 67.0764C40.6118 67.1949 40.6379 67.7408 40.6379 68.6163C40.5335 69.291 39.7926 69.7957 38.5301 69.7957ZM33.2397 38.3382C33.2658 51.4352 33.5214 65.6755 33.5214 65.6755C32.9579 53.6395 32.6188 46.97 32.6866 38.3382C32.7388 31.4163 33.1197 26.0086 33.1979 23.3562C33.3597 21.2858 33.4536 20.5957 33.4953 20.5957C33.5892 20.5957 33.511 23.2944 33.511 23.2944C33.511 23.794 33.2136 30.2987 33.2397 38.3382ZM33.2397 38.3382C33.2658 51.4352 33.5214 65.6755 33.5214 65.6755C32.9579 53.6395 32.6188 46.97 32.6866 38.3382C32.7388 31.4163 33.1197 26.0086 33.1979 23.3562C33.3597 21.2858 33.4536 20.5957 33.4953 20.5957C33.5892 20.5957 33.511 23.2944 33.511 23.2944C33.511 23.794 33.2136 30.2987 33.2397 38.3382ZM41.1231 65.8867L41.4309 59.7476C41.4309 59.7476 41.4726 44.127 41.4726 36.9528C41.4883 30.9064 40.5283 22.9803 40.3405 20.7193C41.6709 20.4155 42.6152 19.9622 42.4535 18.103C42.3335 16.7588 40.45 15.2446 38.3892 15.2446C36.6153 15.2446 34.2153 16.2541 33.9231 18.2215L33.8971 18.3811C33.8971 18.4893 34.0066 28.8876 33.7614 36.7674C33.5318 44.673 33.9492 59.5519 33.9649 59.7219L34.0849 67.3185C34.2623 70.0275 36.1562 71.6601 38.4309 71.6601C40.5022 71.6601 42.4535 70.1871 42.4535 68.6318C42.4587 67.9365 42.5526 66.4172 41.1231 65.8867ZM38.5301 69.7957H38.4361C36.8501 69.77 35.9736 67.7511 35.9057 67.2052L35.4205 59.7528C35.4205 59.6086 34.7214 44.8996 34.9614 37.0764C35.191 29.7425 35.431 19.9416 35.4883 18.5871C35.744 18.2163 37.2622 17.1657 38.4883 17.1245C40.0744 17.073 40.5179 18.0824 40.6535 18.3193C40.7318 19.406 40.3979 19.5296 39.777 19.7253L39.0622 19.9519L39.1301 20.6936C39.1457 20.7863 40.2622 29.6343 40.2466 36.7674C40.2466 43.8335 39.9126 59.0575 39.9126 59.6807L39.657 66.1494L39.6309 66.8652L40.2883 67.0764C40.6118 67.1949 40.6379 67.7408 40.6379 68.6163C40.5335 69.291 39.7926 69.7957 38.5301 69.7957ZM48.7039 7.22575V7.17425C48.7039 7.17425 48.6882 7.1485 48.6778 7.08155C48.6934 7.06609 48.7039 7.06609 48.7195 7.097C48.7195 7.1382 48.7352 7.17425 48.7352 7.21545C48.7299 7.22575 48.7143 7.22575 48.7039 7.22575ZM41.89 3.17253C41.3265 3.12103 40.7213 3.07983 40.0587 3.03863C40.0587 3.03863 40.1109 3.02318 40.2048 3.01288C40.8048 3.05408 41.3683 3.11073 41.89 3.17253ZM33.2397 38.3382C33.2658 51.4352 33.5214 65.6755 33.5214 65.6755C32.9579 53.6395 32.6188 46.97 32.6866 38.3382C32.7388 31.4163 33.1197 26.0086 33.1979 23.3562C33.3597 21.2858 33.4536 20.5957 33.4953 20.5957C33.5892 20.5957 33.511 23.2944 33.511 23.2944C33.511 23.794 33.2136 30.2987 33.2397 38.3382ZM41.1231 65.8867L41.4309 59.7476C41.4309 59.7476 41.4726 44.127 41.4726 36.9528C41.4883 30.9064 40.5283 22.9803 40.3405 20.7193C41.6709 20.4155 42.6152 19.9622 42.4535 18.103C42.3335 16.7588 40.45 15.2446 38.3892 15.2446C36.6153 15.2446 34.2153 16.2541 33.9231 18.2215L33.8971 18.3811C33.8971 18.4893 34.0066 28.8876 33.7614 36.7674C33.5318 44.673 33.9492 59.5519 33.9649 59.7219L34.0849 67.3185C34.2623 70.0275 36.1562 71.6601 38.4309 71.6601C40.5022 71.6601 42.4535 70.1871 42.4535 68.6318C42.4587 67.9365 42.5526 66.4172 41.1231 65.8867ZM38.5301 69.7957H38.4361C36.8501 69.77 35.9736 67.7511 35.9057 67.2052L35.4205 59.7528C35.4205 59.6086 34.7214 44.8996 34.9614 37.0764C35.191 29.7425 35.431 19.9416 35.4883 18.5871C35.744 18.2163 37.2622 17.1657 38.4883 17.1245C40.0744 17.073 40.5179 18.0824 40.6535 18.3193C40.7318 19.406 40.3979 19.5296 39.777 19.7253L39.0622 19.9519L39.1301 20.6936C39.1457 20.7863 40.2622 29.6343 40.2466 36.7674C40.2466 43.8335 39.9126 59.0575 39.9126 59.6807L39.657 66.1494L39.6309 66.8652L40.2883 67.0764C40.6118 67.1949 40.6379 67.7408 40.6379 68.6163C40.5335 69.291 39.7926 69.7957 38.5301 69.7957ZM41.1231 65.8867L41.4309 59.7476C41.4309 59.7476 41.4726 44.127 41.4726 36.9528C41.4883 30.9064 40.5283 22.9803 40.3405 20.7193C41.6709 20.4155 42.6152 19.9622 42.4535 18.103C42.3335 16.7588 40.45 15.2446 38.3892 15.2446C36.6153 15.2446 34.2153 16.2541 33.9231 18.2215L33.8971 18.3811C33.8971 18.4893 34.0066 28.8876 33.7614 36.7674C33.5318 44.673 33.9492 59.5519 33.9649 59.7219L34.0849 67.3185C34.2623 70.0275 36.1562 71.6601 38.4309 71.6601C40.5022 71.6601 42.4535 70.1871 42.4535 68.6318C42.4587 67.9365 42.5526 66.4172 41.1231 65.8867ZM38.5301 69.7957H38.4361C36.8501 69.77 35.9736 67.7511 35.9057 67.2052L35.4205 59.7528C35.4205 59.6086 34.7214 44.8996 34.9614 37.0764C35.191 29.7425 35.431 19.9416 35.4883 18.5871C35.744 18.2163 37.2622 17.1657 38.4883 17.1245C40.0744 17.073 40.5179 18.0824 40.6535 18.3193C40.7318 19.406 40.3979 19.5296 39.777 19.7253L39.0622 19.9519L39.1301 20.6936C39.1457 20.7863 40.2622 29.6343 40.2466 36.7674C40.2466 43.8335 39.9126 59.0575 39.9126 59.6807L39.657 66.1494L39.6309 66.8652L40.2883 67.0764C40.6118 67.1949 40.6379 67.7408 40.6379 68.6163C40.5335 69.291 39.7926 69.7957 38.5301 69.7957ZM33.2397 38.3382C33.2658 51.4352 33.5214 65.6755 33.5214 65.6755C32.9579 53.6395 32.6188 46.97 32.6866 38.3382C32.7388 31.4163 33.1197 26.0086 33.1979 23.3562C33.3597 21.2858 33.4536 20.5957 33.4953 20.5957C33.5892 20.5957 33.511 23.2944 33.511 23.2944C33.511 23.794 33.2136 30.2987 33.2397 38.3382ZM33.2397 38.3382C33.2658 51.4352 33.5214 65.6755 33.5214 65.6755C32.9579 53.6395 32.6188 46.97 32.6866 38.3382C32.7388 31.4163 33.1197 26.0086 33.1979 23.3562C33.3597 21.2858 33.4536 20.5957 33.4953 20.5957C33.5892 20.5957 33.511 23.2944 33.511 23.2944C33.511 23.794 33.2136 30.2987 33.2397 38.3382ZM41.1231 65.8867L41.4309 59.7476C41.4309 59.7476 41.4726 44.127 41.4726 36.9528C41.4883 30.9064 40.5283 22.9803 40.3405 20.7193C41.6709 20.4155 42.6152 19.9622 42.4535 18.103C42.3335 16.7588 40.45 15.2446 38.3892 15.2446C36.6153 15.2446 34.2153 16.2541 33.9231 18.2215L33.8971 18.3811C33.8971 18.4893 34.0066 28.8876 33.7614 36.7674C33.5318 44.673 33.9492 59.5519 33.9649 59.7219L34.0849 67.3185C34.2623 70.0275 36.1562 71.6601 38.4309 71.6601C40.5022 71.6601 42.4535 70.1871 42.4535 68.6318C42.4587 67.9365 42.5526 66.4172 41.1231 65.8867ZM38.5301 69.7957H38.4361C36.8501 69.77 35.9736 67.7511 35.9057 67.2052L35.4205 59.7528C35.4205 59.6086 34.7214 44.8996 34.9614 37.0764C35.191 29.7425 35.431 19.9416 35.4883 18.5871C35.744 18.2163 37.2622 17.1657 38.4883 17.1245C40.0744 17.073 40.5179 18.0824 40.6535 18.3193C40.7318 19.406 40.3979 19.5296 39.777 19.7253L39.0622 19.9519L39.1301 20.6936C39.1457 20.7863 40.2622 29.6343 40.2466 36.7674C40.2466 43.8335 39.9126 59.0575 39.9126 59.6807L39.657 66.1494L39.6309 66.8652L40.2883 67.0764C40.6118 67.1949 40.6379 67.7408 40.6379 68.6163C40.5335 69.291 39.7926 69.7957 38.5301 69.7957ZM41.1231 65.8867L41.4309 59.7476C41.4309 59.7476 41.4726 44.127 41.4726 36.9528C41.4883 30.9064 40.5283 22.9803 40.3405 20.7193C41.6709 20.4155 42.6152 19.9622 42.4535 18.103C42.3335 16.7588 40.45 15.2446 38.3892 15.2446C36.6153 15.2446 34.2153 16.2541 33.9231 18.2215L33.8971 18.3811C33.8971 18.4893 34.0066 28.8876 33.7614 36.7674C33.5318 44.673 33.9492 59.5519 33.9649 59.7219L34.0849 67.3185C34.2623 70.0275 36.1562 71.6601 38.4309 71.6601C40.5022 71.6601 42.4535 70.1871 42.4535 68.6318C42.4587 67.9365 42.5526 66.4172 41.1231 65.8867ZM38.5301 69.7957H38.4361C36.8501 69.77 35.9736 67.7511 35.9057 67.2052L35.4205 59.7528C35.4205 59.6086 34.7214 44.8996 34.9614 37.0764C35.191 29.7425 35.431 19.9416 35.4883 18.5871C35.744 18.2163 37.2622 17.1657 38.4883 17.1245C40.0744 17.073 40.5179 18.0824 40.6535 18.3193C40.7318 19.406 40.3979 19.5296 39.777 19.7253L39.0622 19.9519L39.1301 20.6936C39.1457 20.7863 40.2622 29.6343 40.2466 36.7674C40.2466 43.8335 39.9126 59.0575 39.9126 59.6807L39.657 66.1494L39.6309 66.8652L40.2883 67.0764C40.6118 67.1949 40.6379 67.7408 40.6379 68.6163C40.5335 69.291 39.7926 69.7957 38.5301 69.7957ZM33.2397 38.3382C33.2658 51.4352 33.5214 65.6755 33.5214 65.6755C32.9579 53.6395 32.6188 46.97 32.6866 38.3382C32.7388 31.4163 33.1197 26.0086 33.1979 23.3562C33.3597 21.2858 33.4536 20.5957 33.4953 20.5957C33.5892 20.5957 33.511 23.2944 33.511 23.2944C33.511 23.794 33.2136 30.2987 33.2397 38.3382ZM33.5214 65.6755C32.9579 53.6395 32.6188 46.97 32.6866 38.3382C32.7388 31.4163 33.1197 26.0086 33.1979 23.3562C33.3597 21.2858 33.4536 20.5957 33.4953 20.5957C33.5892 20.5957 33.511 23.2944 33.511 23.2944C33.511 23.7991 33.2136 30.309 33.2397 38.3433C33.2658 51.4352 33.5214 65.6755 33.5214 65.6755ZM41.1231 65.8867L41.4309 59.7476C41.4309 59.7476 41.4726 44.127 41.4726 36.9528C41.4883 30.9064 40.5283 22.9803 40.3405 20.7193C41.6709 20.4155 42.6152 19.9622 42.4535 18.103C42.3335 16.7588 40.45 15.2446 38.3892 15.2446C36.6153 15.2446 34.2153 16.2541 33.9231 18.2215L33.8971 18.3811C33.8971 18.4893 34.0066 28.8876 33.7614 36.7674C33.5318 44.673 33.9492 59.5519 33.9649 59.7219L34.0849 67.3185C34.2623 70.0275 36.1562 71.6601 38.4309 71.6601C40.5022 71.6601 42.4535 70.1871 42.4535 68.6318C42.4587 67.9365 42.5526 66.4172 41.1231 65.8867ZM38.5301 69.7957H38.4361C36.8501 69.77 35.9736 67.7511 35.9057 67.2052L35.4205 59.7528C35.4205 59.6086 34.7214 44.8996 34.9614 37.0764C35.191 29.7425 35.431 19.9416 35.4883 18.5871C35.744 18.2163 37.2622 17.1657 38.4883 17.1245C40.0744 17.073 40.5179 18.0824 40.6535 18.3193C40.7318 19.406 40.3979 19.5296 39.777 19.7253L39.0622 19.9519L39.1301 20.6936C39.1457 20.7863 40.2622 29.6343 40.2466 36.7674C40.2466 43.8335 39.9126 59.0575 39.9126 59.6807L39.657 66.1494L39.6309 66.8652L40.2883 67.0764C40.6118 67.1949 40.6379 67.7408 40.6379 68.6163C40.5335 69.291 39.7926 69.7957 38.5301 69.7957ZM48.7299 7.21545C48.7299 7.17425 48.7143 7.1382 48.7143 7.097C48.6986 7.07125 48.6882 7.07125 48.6726 7.08155C48.6882 7.1485 48.6986 7.17425 48.6986 7.17425V7.22575C48.7143 7.22575 48.7299 7.22575 48.7299 7.21545ZM40.21 3.01803C40.1161 3.03348 40.064 3.04378 40.064 3.04378C40.7213 3.08498 41.3265 3.12103 41.8952 3.17768C41.3683 3.11073 40.8048 3.05408 40.21 3.01803ZM50.6917 81.9502C51.2969 73.885 51.2551 57.5897 51.229 41.2635C51.203 27.4867 50.6238 14.23 50.0186 7.58627C50.0186 7.49356 50.4621 7.25665 50.4621 7.1588C50.2221 4.66094 50.2638 3.30644 50.0864 3.13648C46.9665 0.159657 38.8118 0 37.1579 0C36.9701 0 36.8762 0.0154506 36.8762 0.0154506C36.8762 0.0154506 26.6606 0.319314 24.6519 3.13648C24.438 3.44034 24.3546 4.92876 24.0624 7.58627C24.0467 7.78713 24.4537 8.07554 24.4276 8.29185C23.7285 15.188 23.1494 28.1511 23.2015 41.6086C23.2798 57.8524 23.3476 73.9828 23.9267 81.9502C23.9424 82.2953 23.0659 82.5734 23.0659 82.8927C23.1859 85.9107 23.6711 86.7966 24.0207 87.1416C25.7424 88.8824 34.544 89.5313 37.4396 89.5313C40.3457 89.5313 48.9073 89.0009 50.6291 87.3785C50.9525 87.0747 51.2864 85.6893 51.2864 83.2223C51.2864 82.9597 50.6656 82.2386 50.6917 81.9502ZM48.7143 7.09185C48.7143 7.13305 48.7299 7.1691 48.7299 7.2103C48.7299 7.22575 48.7143 7.22575 48.7039 7.22575V7.17425C48.7039 7.17425 48.6882 7.1485 48.6778 7.08155C48.6882 7.06609 48.7039 7.0661 48.7143 7.09185ZM47.8691 85.8798C46.8308 86.7039 37.3457 86.8223 37.3457 86.8223C37.3457 86.8223 27.845 86.6369 26.838 85.8798C26.4206 85.576 26.1232 82.491 25.9093 78.9167C28.9928 79.8747 38.7335 82.3571 48.3439 79.0095C47.5613 79.6893 46.2308 80.6421 41.9787 81.1107C41.9787 81.1107 43.7161 81.6309 45.8135 81.497C43.8778 81.8575 41.3318 82.1871 38.4935 82.2283C38.4935 82.2283 43.1109 82.7588 46.4187 82.3056C45.0465 82.5837 43.2152 82.8773 40.7422 83.0215C40.7422 83.0215 44.9422 83.8713 47.9943 82.9545C48.1978 82.903 48.3856 82.7949 48.5578 82.6764C48.3543 84.4326 48.1247 85.679 47.8691 85.8798ZM49.5073 66.9785C49.5073 66.9785 49.3456 72.0515 49.0221 76.9391C48.8604 76.9648 48.6726 77.006 48.4847 77.0575C48.3491 77.0833 48.203 77.1245 48.0517 77.1502C46.6117 77.5107 44.4569 77.9743 41.097 78.1597C41.097 78.1597 45.1195 78.9683 48.1613 78.1339C44.9995 79.2361 36.1562 81.6258 25.878 78.479V78.4635C25.5963 73.2721 25.4763 67.267 25.4763 67.267L25.1945 41.6292L25.8415 21.5176L26.5406 8.07554L26.5667 7.71502C26.5667 7.71502 26.5667 7.51416 26.5824 7.2103V6.88069C26.6241 6.0721 26.6919 4.92876 26.838 4.6764C27.078 4.27983 32.2327 2.81717 37.1214 2.86867C38.2275 2.88412 39.2605 2.93562 40.2153 3.01288C40.8048 3.05408 41.3735 3.10558 41.8952 3.17253C41.937 3.18798 41.9735 3.18798 42.0048 3.18798C42.1926 3.21373 42.3804 3.22918 42.5578 3.25494C43.4187 3.37339 44.1856 3.5073 44.8587 3.6515C44.1335 3.6 43.3665 3.57425 42.6257 3.57425C40.1109 3.57425 37.8205 3.84206 37.8205 3.84206C40.4031 3.89356 42.73 4.20258 44.5874 4.54764H44.4778C42.6883 4.54764 41.3161 4.97511 41.3161 4.97511C44.4935 5.32017 46.0274 5.94335 46.93 6.50472C47.2378 6.59743 47.5613 6.69013 47.8847 6.80858C47.8847 6.91674 47.9004 7.04549 47.9004 7.23605C47.916 7.38026 47.9265 7.55537 47.9421 7.75622C48.1195 10.903 48.6934 20.4 48.6934 31.7356C48.6934 53.0575 48.0882 76.2232 48.0621 77.1657C48.9073 65.5931 49.5438 57.0026 49.8934 49.03L49.5073 66.9785ZM33.511 23.2893C33.511 23.794 33.2136 30.3039 33.2397 38.3382C33.2658 51.4352 33.5214 65.6755 33.5214 65.6755C32.9579 53.6395 32.6188 46.97 32.6866 38.3382C32.7388 31.4163 33.1197 26.0086 33.1979 23.3562C33.3597 21.2858 33.4536 20.5957 33.4953 20.5957C33.5892 20.5906 33.511 23.2893 33.511 23.2893ZM41.1231 65.8867L41.4309 59.7476C41.4309 59.7476 41.4726 44.127 41.4726 36.9528C41.4883 30.9064 40.5283 22.9803 40.3405 20.7193C41.6709 20.4155 42.6152 19.9622 42.4535 18.103C42.3335 16.7588 40.45 15.2446 38.3892 15.2446C36.6153 15.2446 34.2153 16.2541 33.9231 18.2215L33.8971 18.3811C33.8971 18.4893 34.0066 28.8876 33.7614 36.7674C33.5318 44.673 33.9492 59.5519 33.9649 59.7219L34.0849 67.3185C34.2623 70.0275 36.1562 71.6601 38.4309 71.6601C40.5022 71.6601 42.4535 70.1871 42.4535 68.6318C42.4587 67.9365 42.5526 66.4172 41.1231 65.8867ZM38.5301 69.7957H38.4361C36.8501 69.77 35.9736 67.7511 35.9057 67.2052L35.4205 59.7528C35.4205 59.6086 34.7214 44.8996 34.9614 37.0764C35.191 29.7425 35.431 19.9416 35.4883 18.5871C35.744 18.2163 37.2622 17.1657 38.4883 17.1245C40.0744 17.073 40.5179 18.0824 40.6535 18.3193C40.7318 19.406 40.3979 19.5296 39.777 19.7253L39.0622 19.9519L39.1301 20.6936C39.1457 20.7863 40.2622 29.6343 40.2466 36.7674C40.2466 43.8335 39.9126 59.0575 39.9126 59.6807L39.657 66.1494L39.6309 66.8652L40.2883 67.0764C40.6118 67.1949 40.6379 67.7408 40.6379 68.6163C40.5335 69.291 39.7926 69.7957 38.5301 69.7957ZM41.89 3.17253C41.3265 3.12103 40.7213 3.07983 40.0587 3.03863C40.0587 3.03863 40.1109 3.02318 40.2048 3.01288C40.8048 3.05408 41.3683 3.11073 41.89 3.17253ZM48.7039 7.22575V7.17425C48.7039 7.17425 48.6882 7.1485 48.6778 7.08155C48.6934 7.06609 48.7039 7.06609 48.7195 7.097C48.7195 7.1382 48.7352 7.17425 48.7352 7.21545C48.7299 7.22575 48.7143 7.22575 48.7039 7.22575ZM41.1231 65.8867L41.4309 59.7476C41.4309 59.7476 41.4726 44.127 41.4726 36.9528C41.4883 30.9064 40.5283 22.9803 40.3405 20.7193C41.6709 20.4155 42.6152 19.9622 42.4535 18.103C42.3335 16.7588 40.45 15.2446 38.3892 15.2446C36.6153 15.2446 34.2153 16.2541 33.9231 18.2215L33.8971 18.3811C33.8971 18.4893 34.0066 28.8876 33.7614 36.7674C33.5318 44.673 33.9492 59.5519 33.9649 59.7219L34.0849 67.3185C34.2623 70.0275 36.1562 71.6601 38.4309 71.6601C40.5022 71.6601 42.4535 70.1871 42.4535 68.6318C42.4587 67.9365 42.5526 66.4172 41.1231 65.8867ZM38.5301 69.7957H38.4361C36.8501 69.77 35.9736 67.7511 35.9057 67.2052L35.4205 59.7528C35.4205 59.6086 34.7214 44.8996 34.9614 37.0764C35.191 29.7425 35.431 19.9416 35.4883 18.5871C35.744 18.2163 37.2622 17.1657 38.4883 17.1245C40.0744 17.073 40.5179 18.0824 40.6535 18.3193C40.7318 19.406 40.3979 19.5296 39.777 19.7253L39.0622 19.9519L39.1301 20.6936C39.1457 20.7863 40.2622 29.6343 40.2466 36.7674C40.2466 43.8335 39.9126 59.0575 39.9126 59.6807L39.657 66.1494L39.6309 66.8652L40.2883 67.0764C40.6118 67.1949 40.6379 67.7408 40.6379 68.6163C40.5335 69.291 39.7926 69.7957 38.5301 69.7957ZM47.9369 7.74592C44.6239 6.60258 36.297 4.43949 26.5824 7.21545V6.88584C28.7371 6.26266 32.9214 5.27897 37.8727 5.27897C40.7109 5.27897 43.8048 5.59828 46.93 6.49957C47.2378 6.59228 47.5613 6.68498 47.8847 6.80343C47.8847 6.91159 47.9004 7.04034 47.9004 7.2309C47.9056 7.37511 47.9213 7.54506 47.9369 7.74592ZM48.7039 7.22575V7.17425C48.7039 7.17425 48.6882 7.1485 48.6778 7.08155C48.6934 7.06609 48.7039 7.06609 48.7195 7.097C48.7195 7.1382 48.7352 7.17425 48.7352 7.21545C48.7299 7.22575 48.7143 7.22575 48.7039 7.22575ZM41.89 3.17253C41.3265 3.12103 40.7213 3.07983 40.0587 3.03863C40.0587 3.03863 40.1109 3.02318 40.2048 3.01288C40.8048 3.05408 41.3683 3.11073 41.89 3.17253ZM48.7039 7.22575V7.17425C48.7039 7.17425 48.6882 7.1485 48.6778 7.08155C48.6934 7.06609 48.7039 7.06609 48.7195 7.097C48.7195 7.1382 48.7352 7.17425 48.7352 7.21545C48.7299 7.22575 48.7143 7.22575 48.7039 7.22575ZM48.7039 7.22575V7.17425C48.7039 7.17425 48.6882 7.1485 48.6778 7.08155C48.6934 7.06609 48.7039 7.06609 48.7195 7.097C48.7195 7.1382 48.7352 7.17425 48.7352 7.21545C48.7299 7.22575 48.7143 7.22575 48.7039 7.22575ZM33.2397 38.3382C33.2658 51.4352 33.5214 65.6755 33.5214 65.6755C32.9579 53.6395 32.6188 46.97 32.6866 38.3382C32.7388 31.4163 33.1197 26.0086 33.1979 23.3562C33.3597 21.2858 33.4536 20.5957 33.4953 20.5957C33.5892 20.5957 33.511 23.2944 33.511 23.2944C33.511 23.794 33.2136 30.2987 33.2397 38.3382ZM91.5069 72.8446C91.8251 73.4678 91.8616 74.0395 91.6269 74.5597C91.3921 75.0798 91.0477 75.4712 90.599 75.7288C90.1504 75.9914 89.6651 76.079 89.1382 76.0017C88.6112 75.9245 88.1886 75.5743 87.8756 74.9459C87.0304 73.3339 86.4773 71.5004 86.2165 69.4455C85.9504 67.3906 85.6634 65.4798 85.3452 63.7133C85.0791 62.3588 84.8182 60.994 84.5522 59.6189C84.2861 58.2386 84.0252 56.8481 83.7591 55.4421C83.18 56.0137 82.4287 56.3125 81.5052 56.3382C80.5818 56.364 79.7522 56.3279 79.0166 56.2197C77.9105 56.0137 76.8409 55.8798 75.8131 55.8283C74.7853 55.7768 73.7471 55.7768 72.6932 55.8283C72.3749 57.3373 72.0462 58.8206 71.7071 60.2781C71.3627 61.7356 71.008 63.1931 70.6375 64.6455C70.3714 65.7888 70.0427 66.9219 69.6515 68.0395C69.2549 69.1571 68.9262 70.3159 68.6654 71.5107C68.561 71.9279 68.4932 72.3708 68.4671 72.8395C68.441 73.3082 68.2949 73.7511 68.0341 74.1682C67.8776 74.4309 67.7158 74.6369 67.5593 74.7914C67.455 74.9459 67.3767 75.0541 67.3245 75.1056C67.2723 75.1571 67.2984 75.0798 67.4028 74.8738C67.1941 75.3425 66.7454 75.5228 66.0567 75.4197C65.9524 75.3682 65.8324 75.3425 65.7019 75.3425C65.5715 75.3425 65.4515 75.3167 65.3472 75.2652C64.768 75.1622 64.3454 74.8893 64.0846 74.4464C63.8185 74.0034 63.662 73.5245 63.6098 73.0043C63.4533 71.8094 63.5576 70.6919 63.928 69.6515C64.2985 68.6112 64.6115 67.5193 64.8776 66.376L66.5367 59.1193C67.0637 56.7296 67.575 54.3502 68.0758 51.9811C68.5767 49.6172 69.0358 47.2378 69.4584 44.8429C69.881 42.3451 70.3819 39.8781 70.961 37.4318C71.5401 34.9854 72.2758 32.5957 73.1731 30.2524C73.434 29.6292 73.674 28.9545 73.8827 28.2232C74.0914 27.497 74.3418 26.7657 74.634 26.0395C74.921 25.3133 75.2653 24.6335 75.6618 24.0103C76.0583 23.3871 76.5696 22.8927 77.2009 22.527C77.7801 22.2129 78.3174 22.1099 78.8235 22.2129C79.3244 22.3159 79.7313 22.5373 80.0496 22.8773C80.3679 23.2172 80.5765 23.6446 80.6809 24.1648C80.7852 24.685 80.7331 25.1794 80.5244 25.6481C80.9991 26.5854 81.3644 27.5485 81.6305 28.5322C81.8913 29.521 82.1835 30.5099 82.5017 31.4987C83.1852 33.8421 83.8478 36.1545 84.4791 38.4412C85.1104 40.7331 85.6374 43.0712 86.06 45.4661C86.5347 47.964 87.0356 50.4721 87.5626 52.9957C88.0895 55.5193 88.5904 58.0532 89.0652 60.6026C89.326 61.8026 89.5504 62.982 89.7382 64.1511C89.9208 65.3202 90.1451 66.5047 90.4112 67.6996C90.5677 68.5339 90.6877 69.4146 90.766 70.3519C90.8338 71.2841 91.0843 72.1185 91.5069 72.8446ZM80.8322 53.7322C81.307 53.6807 81.74 53.6034 82.1365 53.5004C82.533 53.3974 82.94 53.3717 83.3626 53.4232C83.2061 52.594 83.06 51.7597 82.9296 50.9253C82.7991 50.0961 82.6791 49.2618 82.5748 48.4275C82.2044 45.9296 81.7818 43.4987 81.3122 41.1296C80.8374 38.7657 80.2583 36.3863 79.5748 33.9914C79.4183 33.4197 79.2722 32.8481 79.1418 32.2764C79.0113 31.7047 78.8913 31.133 78.787 30.5614C78.3644 31.4987 77.9835 32.4361 77.6392 33.3682C77.2948 34.3056 76.9922 35.2687 76.7314 36.2575C76.0479 38.6009 75.4949 40.9288 75.0723 43.2412C74.6497 45.5536 74.2271 47.8815 73.8097 50.2249L73.1001 54.206C73.7314 53.9485 74.3784 53.7373 75.0357 53.5828C75.6931 53.4283 76.4444 53.3768 77.2896 53.4283C77.8688 53.4798 78.4635 53.5571 79.0687 53.6601C79.6635 53.7579 80.2531 53.7837 80.8322 53.7322ZM95.8529 50.2197C95.7486 47.6704 95.6807 45.121 95.6546 42.5768C95.6286 40.0275 95.8007 37.4781 96.1659 34.9288C96.2181 34.5116 96.2964 34.0996 96.4007 33.6824C96.5051 33.2652 96.6146 32.8481 96.719 32.4361C96.8755 31.9674 97.0633 31.4884 97.272 30.994C97.4807 30.4996 97.7207 30.0464 97.9868 29.6292C98.7277 28.6918 99.625 27.8627 100.684 27.1313C101.107 26.8738 101.555 26.6009 102.03 26.3124C102.505 26.0292 102.98 25.8335 103.46 25.7253C104.039 25.5708 104.675 25.5193 105.359 25.5708C106.048 25.6223 106.653 25.8592 107.18 26.2712C107.55 26.5339 107.895 26.8326 108.208 27.1674C108.526 27.5073 108.844 27.8575 109.162 28.2232C109.794 29.006 110.326 29.8249 110.748 30.6798C111.171 31.5399 111.594 32.4361 112.016 33.3734C112.016 33.3219 111.964 33.1931 111.86 32.982C111.964 33.188 112.016 33.3219 112.016 33.3734C112.173 33.2189 112.282 33.0901 112.334 32.982C112.653 32.5648 112.981 32.1373 113.326 31.6944C113.67 31.2515 114.025 30.824 114.395 30.4069C115.084 29.5777 115.846 28.7433 116.691 27.909C116.847 27.703 117.009 27.5176 117.166 27.3631C117.322 27.2086 117.458 27.0232 117.562 26.8172C117.776 26.5545 117.969 26.3485 118.157 26.194C118.34 26.0395 118.569 25.8541 118.83 25.6481C119.148 25.4421 119.519 25.2567 119.941 25.1021C120.364 24.9476 120.76 24.8961 121.131 24.9476C121.606 24.9991 122.096 25.133 122.597 25.3391C123.098 25.5502 123.484 25.9107 123.745 26.4309C123.849 26.7966 123.943 27.1313 124.021 27.4455C124.1 27.7597 124.141 28.1202 124.141 28.5373V29.9433C124.089 31.1897 124.037 32.4515 123.985 33.7288C123.933 35.0009 123.959 36.2884 124.063 37.5914C124.115 38.2146 124.157 38.8275 124.183 39.4249C124.209 40.0223 124.225 40.6609 124.225 41.3356C124.225 41.9588 124.225 42.582 124.225 43.2103C124.225 43.8335 124.199 44.4567 124.146 45.085C124.042 47.6343 124.027 50.1579 124.105 52.6558C124.183 55.1537 124.251 57.6773 124.303 60.2215C124.303 61.5245 124.345 62.7966 124.423 64.0429C124.501 65.2893 124.595 66.5665 124.7 67.8644C124.752 68.3846 124.778 68.8944 124.778 69.3837C124.778 69.8781 124.778 70.4086 124.778 70.9854C124.673 71.9228 124.673 72.8343 124.778 73.715C124.778 73.818 124.788 73.885 124.82 73.9107C124.846 73.9365 124.861 74.0034 124.861 74.1064C124.913 74.2094 124.94 74.2867 124.94 74.3382C124.94 74.3897 124.966 74.4412 125.018 74.4927V74.57C125.018 74.673 125.028 74.7657 125.06 74.8429C125.086 74.9202 125.101 75.0129 125.101 75.1159C125.153 75.6361 124.997 76.1047 124.626 76.5219C124.256 76.9391 123.86 77.1966 123.442 77.3047C123.02 77.4077 122.571 77.382 122.096 77.2275C121.621 77.073 121.251 76.7846 120.99 76.3674C120.672 76.1099 120.489 75.77 120.437 75.3528C120.171 74.6781 120.014 74.0137 119.962 73.3648C119.91 72.7159 119.884 72.0515 119.884 71.3768V69.4249C119.884 69.0077 119.868 68.6318 119.842 68.2919C119.816 67.9519 119.774 67.6017 119.722 67.2361C119.566 65.5725 119.456 63.9348 119.404 62.3228C119.352 60.7107 119.326 59.0987 119.326 57.4867C119.274 56.2403 119.232 54.9888 119.206 53.7425C119.18 52.4961 119.164 51.2446 119.164 49.9983C119.164 48.7004 119.174 47.4232 119.206 46.1768C119.232 44.9305 119.268 43.6532 119.326 42.3554C119.326 41.109 119.284 39.8472 119.206 38.57C119.127 37.2979 119.086 36.0361 119.086 34.7846V32.7554C118.872 33.018 118.663 33.2755 118.454 33.5382C118.246 33.8009 118.032 34.0584 117.823 34.321C117.614 34.5837 117.4 34.867 117.192 35.1811C116.978 35.4953 116.769 35.8043 116.561 36.1185C116.352 36.4326 116.154 36.7416 115.966 37.0558C115.783 37.37 115.611 37.679 115.454 37.9931C115.35 38.3588 115.241 38.709 115.136 39.0489C115.032 39.3888 114.922 39.7391 114.818 40.1047C114.714 40.5219 114.609 40.9494 114.5 41.3923C114.395 41.8352 114.286 42.2627 114.181 42.6798C113.967 43.303 113.613 43.8129 113.112 44.1991C112.611 44.5906 112.042 44.7863 111.411 44.7863C110.67 44.7863 110.081 44.5906 109.632 44.1991C109.183 43.8077 108.828 43.303 108.562 42.6798C108.244 41.794 108.02 40.8721 107.889 39.909C107.759 38.9459 107.535 37.9983 107.216 37.0609C106.898 36.3863 106.595 35.6961 106.308 34.9957C106.016 34.2953 105.74 33.5794 105.479 32.8481C105.322 32.5339 105.161 32.2146 105.004 31.8747C104.848 31.5348 104.634 31.2361 104.373 30.9785C104.164 31.0815 103.95 31.2 103.742 31.3288C103.528 31.4575 103.319 31.6017 103.11 31.7562C102.896 31.9107 102.635 32.1476 102.317 32.4567L101.842 33.394C101.576 34.1253 101.368 34.867 101.211 35.6189C101.055 36.3708 100.919 37.1382 100.815 37.921C100.658 39.0644 100.538 40.2129 100.46 41.3562C100.382 42.4996 100.314 43.6687 100.262 44.8687C100.157 47.3665 100.105 49.8644 100.105 52.3571C100.105 54.8549 100.183 57.3528 100.34 59.8455C100.444 61.0919 100.538 62.3331 100.616 63.5537C100.695 64.7743 100.736 66.0103 100.736 67.2618C100.736 67.885 100.747 68.5082 100.778 69.1365C100.804 69.7597 100.788 70.3828 100.736 71.0112C100.736 71.3253 100.736 71.6498 100.736 71.9846C100.736 72.3245 100.71 72.6489 100.658 72.9579C100.658 73.2721 100.632 73.5811 100.58 73.8953C100.528 74.2094 100.449 74.5185 100.345 74.8326C100.241 75.0953 100.042 75.224 99.7503 75.224C99.4581 75.224 99.265 75.0953 99.1555 74.8326C99.1033 74.6266 99.0511 74.4309 98.999 74.2455C98.9468 74.0652 98.8946 73.8695 98.8424 73.6584C98.7381 73.4524 98.6964 73.2412 98.7224 73.0352C98.7485 72.8292 98.7329 72.5923 98.6807 72.3348C98.6285 71.9743 98.5763 71.6086 98.5242 71.2429C98.472 70.8773 98.4198 70.5167 98.3677 70.1511C98.2633 69.3682 98.1172 68.5906 97.9346 67.8077C97.752 67.0249 97.6059 66.2472 97.5016 65.4644C97.2929 64.1665 97.0946 62.879 96.9068 61.6017C96.7242 60.3296 96.552 59.0678 96.3955 57.8163C96.239 56.57 96.119 55.3185 96.0407 54.0721C95.9677 52.7949 95.9051 51.5228 95.8529 50.2197ZM104.388 30.9476C104.493 30.9991 104.597 31.133 104.707 31.3391C104.597 31.133 104.493 31.0043 104.388 30.9476ZM156.948 33.8369C158.002 35.3974 158.737 37.0867 159.16 38.9099C159.583 40.7331 159.844 42.5511 159.953 44.3743C160.005 45.4146 160.021 46.4704 159.995 47.5313C159.969 48.5974 159.953 49.6532 159.953 50.6936C159.953 51.7339 159.953 52.7743 159.953 53.8146C159.953 54.8549 159.927 55.8953 159.875 56.9356C159.77 58.079 159.65 59.2223 159.52 60.3657C159.39 61.509 159.165 62.6266 158.847 63.7185C158.477 64.9133 158.054 66.0052 157.584 66.994C157.318 67.5657 157.016 68.0858 156.677 68.5545C156.332 69.0232 155.977 69.4919 155.607 69.9605C154.183 71.727 152.445 72.9785 150.39 73.7047C148.438 74.3279 146.466 74.3588 144.463 73.782C142.355 73.2103 140.43 72.1957 138.692 70.7382C136.955 69.2807 135.505 67.6429 134.346 65.8249C133.292 64.0584 132.489 62.194 131.936 60.2472C131.383 58.2953 130.976 56.3331 130.71 54.3554C130.501 52.4343 130.418 50.5082 130.475 48.582C130.527 47.5416 130.595 46.5013 130.673 45.4609C130.752 44.4206 130.898 43.3803 131.106 42.3399C131.367 41.1966 131.659 40.0635 131.978 38.9459C132.296 37.8283 132.661 36.7519 133.084 35.7064C133.136 35.6034 133.188 35.485 133.24 35.3562C133.292 35.2275 133.345 35.109 133.397 35.006C133.292 35.109 133.292 35.0575 133.397 34.8515C133.501 34.6455 133.527 34.6197 133.475 34.7743C133.579 34.6197 133.647 34.4601 133.673 34.3056C133.699 34.1511 133.767 33.9914 133.872 33.8369C134.132 33.2652 134.399 32.7708 134.665 32.3536C134.769 31.988 134.926 31.7047 135.139 31.4936L135.374 31.0249H135.452C135.557 30.8704 135.651 30.7262 135.729 30.5974C135.807 30.4687 135.901 30.3245 136.006 30.17C136.532 29.4438 137.059 28.7382 137.586 28.0635C138.113 27.3888 138.719 26.7348 139.402 26.1116C139.559 25.9571 139.731 25.7974 139.913 25.6429C140.096 25.4884 140.294 25.3288 140.508 25.1743C140.612 25.1227 140.691 25.0712 140.743 25.0197C140.795 24.9682 140.873 24.9167 140.978 24.8652L141.134 24.788C141.186 24.788 141.238 24.7622 141.291 24.7107L141.609 24.5562C141.713 24.5047 141.818 24.4635 141.927 24.4378C142.032 24.412 142.136 24.3708 142.245 24.3193H142.48H142.955C143.43 24.3193 143.769 24.3708 143.983 24.4738C144.249 24.5768 144.379 24.7468 144.379 24.9785C144.379 25.2103 144.249 25.3803 143.983 25.4833C143.878 25.5348 143.785 25.576 143.706 25.6017C143.628 25.6275 143.534 25.6944 143.43 25.7974C143.378 25.8489 143.336 25.8747 143.31 25.8747C143.284 25.8747 143.242 25.9004 143.19 25.9519C143.085 26.0034 143.002 26.0446 142.955 26.0704C142.903 26.0961 142.929 26.0858 143.033 26.0292L142.715 26.1837C142.715 26.2352 142.647 26.3021 142.517 26.3794C142.386 26.4567 142.371 26.4464 142.475 26.3382C142.423 26.3897 142.371 26.4309 142.318 26.4567C142.266 26.4824 142.214 26.5236 142.162 26.5751C143.425 26.0034 144.718 25.715 146.033 25.715C146.873 25.7665 147.666 25.8953 148.402 26.1064C149.138 26.3176 149.878 26.5751 150.614 26.8893C150.296 26.7863 150.061 26.6833 149.904 26.5751C150.958 26.9923 151.96 27.5897 152.91 28.3674C153.171 28.63 153.437 28.8721 153.703 29.109C153.964 29.3408 154.23 29.588 154.496 29.8506C154.757 30.2163 155.007 30.582 155.247 30.9425C155.482 31.3082 155.732 31.6738 155.998 32.0343C156.155 32.3485 156.317 32.6575 156.473 32.9717C156.63 33.291 156.786 33.5794 156.948 33.8369ZM154.574 50.8481C154.574 49.3906 154.584 47.9485 154.616 46.5167C154.642 45.085 154.574 43.6429 154.417 42.1854C154.313 41.5622 154.183 40.9236 154.021 40.2747C153.864 39.6258 153.651 38.9871 153.39 38.3639C153.176 37.9468 152.957 37.5193 152.717 37.0764C152.482 36.6335 152.226 36.206 151.965 35.7888C151.595 35.1142 151.146 34.4086 150.619 33.6824C150.411 33.4197 150.212 33.188 150.024 32.982C149.842 32.776 149.618 32.5648 149.351 32.3588C149.143 32.2558 148.945 32.1528 148.757 32.0446C148.574 31.9416 148.376 31.8386 148.162 31.7305C147.896 31.6275 147.619 31.5348 147.332 31.4575C147.04 31.3803 146.764 31.2876 146.503 31.1846H145.632C145.365 31.2361 145.141 31.2876 144.958 31.3391C144.776 31.3906 144.578 31.4678 144.364 31.5708C143.941 31.7768 143.534 32.0137 143.138 32.2712C142.741 32.5339 142.36 32.7914 141.99 33.0541C141.724 33.2652 141.478 33.4455 141.238 33.6C141.004 33.7545 140.753 33.9399 140.487 34.1459L140.409 34.2232C140.357 34.2232 140.279 34.2747 140.174 34.3777C140.07 34.4807 139.95 34.5734 139.819 34.6506C139.689 34.7279 139.569 34.8206 139.465 34.9236C138.938 35.3408 138.437 35.5468 137.962 35.5468C137.383 35.5468 136.882 35.3408 136.459 34.9236C136.407 34.9236 136.381 34.9133 136.381 34.8824C136.381 34.8567 136.355 34.8412 136.303 34.8412L136.225 34.9185C135.802 36.0103 135.473 37.1176 135.239 38.2352C135.004 39.3528 134.774 40.4858 134.566 41.6292V41.9434C134.566 42.0464 134.55 42.1236 134.524 42.1751C134.498 42.2266 134.482 42.3039 134.482 42.4069C134.482 42.5099 134.466 42.6386 134.44 42.7983C134.414 42.9528 134.399 43.0867 134.399 43.1897C134.346 43.4524 134.32 43.7099 134.32 43.9725C134.32 44.2352 134.32 44.4927 134.32 44.7554C134.32 45.224 134.32 45.6927 134.32 46.1614C134.32 46.63 134.346 47.0987 134.399 47.5674C134.399 48.0361 134.409 48.515 134.44 49.0094C134.466 49.5039 134.508 49.9828 134.56 50.4515C134.612 50.6627 134.639 50.8687 134.639 51.0747C134.639 51.2807 134.665 51.5176 134.717 51.7751C134.717 51.8266 134.727 51.8936 134.759 51.9708C134.785 52.0481 134.8 52.115 134.8 52.1665C134.852 52.3725 134.879 52.5682 134.879 52.7537C134.879 52.9391 134.905 53.1039 134.957 53.2584C134.957 53.1554 134.941 53.0627 134.915 52.9854C134.889 52.9082 134.873 52.8155 134.873 52.7125C135.082 53.9073 135.332 55.1073 135.625 56.3022C135.912 57.5022 136.298 58.6712 136.772 59.8146C137.352 61.2206 138.171 62.5957 139.225 63.9502C140.018 64.9906 140.962 65.9537 142.068 66.8395C142.804 67.3597 143.649 67.8283 144.598 68.2455C145.282 68.5082 145.997 68.7142 146.732 68.8687H147.995C148.151 68.8172 148.324 68.7811 148.506 68.7502C148.689 68.7245 148.861 68.6575 149.018 68.5545C149.388 68.4 149.753 68.194 150.124 67.9313C150.384 67.6687 150.635 67.4266 150.875 67.1897C151.11 66.9579 151.36 66.7107 151.626 66.4481C152.205 65.6189 152.68 64.8103 153.051 64.0275C153.577 62.57 153.974 61.0352 154.235 59.4232C154.391 58.0172 154.485 56.6009 154.511 55.1691C154.564 53.7476 154.574 52.3004 154.574 50.8481ZM64.3767 88.5631V85.4987L62.3994 82.4446C62.3368 82.3468 62.3002 82.2747 62.3002 82.2232C62.3002 82.0996 62.4881 82.0378 62.8689 82.0378H63.182C63.4533 82.0378 63.6306 82.0944 63.7089 82.2129L65.0498 84.3863L66.4011 82.2026C66.4793 82.0944 66.6567 82.0378 66.9384 82.0378H67.1941C67.5541 82.0378 67.7315 82.0996 67.7315 82.2232C67.7315 82.2798 67.7002 82.3571 67.6428 82.4446L65.655 85.5245V88.5579C65.655 88.7434 65.4828 88.8361 65.1385 88.8361H64.8932C64.5489 88.8412 64.3767 88.7485 64.3767 88.5631ZM69.4271 88.0017C68.8897 87.4094 68.6236 86.5545 68.6236 85.4318C68.6236 84.3193 68.8897 83.4644 69.4271 82.8773C69.9645 82.2901 70.7262 81.9966 71.7279 81.9966C72.7245 81.9966 73.4914 82.2901 74.0236 82.8773C74.5557 83.4644 74.8218 84.3142 74.8218 85.4369C74.8218 86.5597 74.5557 87.4146 74.0236 88.0069C73.4914 88.5992 72.7297 88.8979 71.7279 88.8979C70.7262 88.8876 69.9593 88.594 69.4271 88.0017ZM73.0427 87.1983C73.3453 86.7914 73.4966 86.2043 73.4966 85.4318C73.4966 84.6592 73.3453 84.0721 73.0479 83.6755C72.7453 83.279 72.3071 83.0781 71.7279 83.0781C71.1488 83.0781 70.7054 83.279 70.4027 83.6755C70.1001 84.0773 69.9488 84.6592 69.9488 85.4318C69.9488 86.2043 70.1001 86.7966 70.4027 87.1983C70.7054 87.6052 71.1488 87.806 71.7279 87.806C72.2966 87.806 72.7349 87.6052 73.0427 87.1983ZM77.1175 88.285C76.6322 87.8833 76.3922 87.3167 76.3922 86.5906V82.321C76.3922 82.1356 76.5644 82.0429 76.9088 82.0429H77.154C77.4983 82.0429 77.6705 82.1356 77.6705 82.321V86.5442C77.6705 86.9202 77.8114 87.224 78.0931 87.4558C78.3748 87.6927 78.7296 87.806 79.1679 87.806C79.6061 87.806 79.9661 87.6876 80.2479 87.4507C80.5296 87.2137 80.6757 86.9099 80.6757 86.5442V82.321C80.6757 82.1356 80.8478 82.0429 81.1922 82.0429H81.427C81.7713 82.0429 81.9435 82.1356 81.9435 82.321V86.5906C81.9435 87.3167 81.7035 87.8833 81.2183 88.285C80.7383 88.6867 80.0496 88.8876 79.1626 88.8876C78.2809 88.8876 77.5975 88.6867 77.1175 88.285ZM83.8165 88.5631V82.4189C83.8165 82.2953 83.8426 82.2077 83.9 82.1459C83.9574 82.0893 84.0461 82.0584 84.1713 82.0584H85.9921C86.806 82.0584 87.4113 82.2077 87.8078 82.5013C88.2043 82.7949 88.3973 83.2429 88.3973 83.8352C88.3973 84.206 88.2982 84.5305 88.0947 84.7983C87.8913 85.0661 87.6147 85.2721 87.2652 85.406V85.4472C87.406 85.4987 87.5469 85.612 87.6773 85.7923C87.8078 85.9674 87.9278 86.1889 88.0321 86.4464L88.8617 88.4961C88.8878 88.5889 88.8982 88.6404 88.8982 88.6609C88.8982 88.7846 88.7208 88.8464 88.3712 88.8464H88.0791C87.7921 88.8464 87.6199 88.7846 87.573 88.6609L86.8113 86.7657C86.6965 86.503 86.5556 86.3176 86.3939 86.2146C86.2321 86.1116 85.9921 86.0601 85.6635 86.0601H85.1052V88.5631C85.1052 88.7485 84.933 88.8412 84.5887 88.8412H84.3435C83.9887 88.8412 83.8165 88.7485 83.8165 88.5631ZM86.1539 84.9682C86.3991 84.9682 86.6182 84.8755 86.8008 84.685C86.9834 84.4944 87.0721 84.273 87.0721 84.0155C87.0721 83.7374 86.9834 83.5262 86.806 83.3717C86.6287 83.2223 86.3887 83.1451 86.0808 83.1451H85.0948V84.9682H86.1539ZM93.046 88.733C92.9886 88.6764 92.9573 88.5837 92.9573 88.4652V82.321C92.9573 82.1356 93.1295 82.0429 93.4738 82.0429H93.719C93.9016 82.0429 94.0321 82.0635 94.1155 82.1099C94.199 82.1562 94.2355 82.2232 94.2355 82.321V87.7391H96.552C96.6459 87.7391 96.7085 87.7751 96.7503 87.8421C96.7868 87.909 96.8077 88.012 96.8077 88.1562V88.4086C96.8077 88.5476 96.7868 88.6558 96.7503 88.7228C96.7085 88.7897 96.6459 88.8258 96.552 88.8258H93.3121C93.1921 88.8206 93.1034 88.7949 93.046 88.733ZM98.0024 88.5631V82.3262C98.0024 82.1356 98.1798 82.0378 98.5294 82.0378H98.7746C99.119 82.0378 99.2911 82.1356 99.2911 82.3262V88.5631C99.2911 88.7588 99.119 88.8515 98.7746 88.8515H98.5294C98.1798 88.8515 98.0024 88.7537 98.0024 88.5631ZM101.242 88.5631V82.4189C101.242 82.2901 101.274 82.1974 101.331 82.1408C101.388 82.0841 101.482 82.0584 101.602 82.0584H104.775C104.868 82.0584 104.931 82.0893 104.973 82.1562C105.015 82.2232 105.035 82.3262 105.035 82.4755V82.7279C105.035 82.8773 105.015 82.9803 104.973 83.0472C104.931 83.1142 104.863 83.1451 104.775 83.1451H102.526V84.824H104.67C104.759 84.824 104.827 84.8549 104.868 84.9219C104.91 84.9888 104.931 85.0919 104.931 85.2412V85.4936C104.931 85.6429 104.91 85.7459 104.868 85.8129C104.827 85.8798 104.759 85.9107 104.67 85.9107H102.526V88.5682C102.526 88.6661 102.484 88.7382 102.406 88.7794C102.322 88.8258 102.192 88.8464 102.009 88.8464H101.764C101.415 88.8412 101.242 88.7485 101.242 88.5631ZM106.642 88.733C106.585 88.6764 106.554 88.5837 106.554 88.4652V82.4189C106.554 82.2901 106.585 82.1974 106.642 82.1408C106.7 82.0841 106.794 82.0584 106.914 82.0584H110.336C110.43 82.0584 110.493 82.0893 110.534 82.1562C110.576 82.2232 110.597 82.3262 110.597 82.4755V82.7279C110.597 82.8773 110.576 82.9803 110.534 83.0472C110.493 83.1142 110.425 83.1451 110.336 83.1451H107.832V84.824H110.065C110.159 84.824 110.221 84.8549 110.263 84.9219C110.305 84.9888 110.326 85.0919 110.326 85.2412V85.4936C110.326 85.6429 110.305 85.7459 110.263 85.8129C110.221 85.8798 110.154 85.9107 110.065 85.9107H107.832V87.7442H110.347C110.435 87.7442 110.503 87.7751 110.545 87.8421C110.587 87.9039 110.608 88.012 110.608 88.1614V88.4137C110.608 88.5631 110.587 88.6661 110.545 88.733C110.503 88.7949 110.435 88.8309 110.347 88.8309H106.914C106.794 88.8206 106.705 88.7949 106.642 88.733ZM111.578 89.9537C111.494 89.9228 111.458 89.8713 111.458 89.8095C111.458 89.7734 111.468 89.7219 111.494 89.6601C111.515 89.5983 111.536 89.5519 111.547 89.521C111.651 89.2893 111.734 89.0524 111.797 88.8C111.86 88.5528 111.891 88.2438 111.891 87.8781C111.891 87.7545 111.933 87.6618 112.016 87.5949C112.1 87.5279 112.23 87.4919 112.408 87.4919H112.564C112.731 87.4919 112.861 87.5279 112.95 87.5949C113.039 87.6618 113.081 87.7494 113.081 87.8627C113.081 88.2077 113.007 88.5476 112.867 88.8824C112.721 89.2172 112.554 89.485 112.355 89.6961C112.157 89.9073 111.99 90.0103 111.849 90.0103C111.75 90 111.661 89.9846 111.578 89.9537ZM118.178 88.6558L116.592 82.4086C116.576 82.3313 116.571 82.285 116.571 82.2644C116.571 82.115 116.748 82.0429 117.108 82.0429H117.307C117.646 82.0429 117.834 82.1253 117.875 82.2953L118.783 85.9777L118.919 86.606L119.044 87.1931C119.075 87.018 119.148 86.709 119.258 86.2661L119.336 85.9674L120.275 82.2386C120.301 82.1099 120.463 82.0481 120.755 82.0481H121.058C121.345 82.0481 121.507 82.1099 121.538 82.2386L122.467 85.9777C122.519 86.1837 122.581 86.4618 122.654 86.8172L122.743 87.2395L123.035 85.9622L123.943 82.2901C123.985 82.1202 124.173 82.0378 124.512 82.0378H124.6C124.96 82.0378 125.138 82.1099 125.138 82.2592L125.117 82.4034L123.494 88.6507C123.473 88.7073 123.421 88.7537 123.333 88.7846C123.244 88.8155 123.134 88.8309 123.004 88.8309H122.399C122.268 88.8309 122.159 88.8155 122.065 88.7846C121.971 88.7537 121.924 88.7073 121.908 88.6507L121.016 85.1073L120.839 84.2369L120.661 85.1073L119.743 88.6507C119.727 88.7073 119.68 88.7537 119.592 88.7846C119.503 88.8155 119.394 88.8309 119.263 88.8309H118.658C118.381 88.8412 118.22 88.7794 118.178 88.6558ZM126.468 88.733C126.411 88.6764 126.38 88.5837 126.38 88.4652V82.4189C126.38 82.2901 126.411 82.1974 126.468 82.1408C126.526 82.0841 126.62 82.0584 126.74 82.0584H130.162C130.256 82.0584 130.319 82.0893 130.36 82.1562C130.402 82.2232 130.423 82.3262 130.423 82.4755V82.7279C130.423 82.8773 130.402 82.9803 130.36 83.0472C130.319 83.1142 130.251 83.1451 130.162 83.1451H127.658V84.824H129.891C129.985 84.824 130.047 84.8549 130.089 84.9219C130.131 84.9888 130.152 85.0919 130.152 85.2412V85.4936C130.152 85.6429 130.131 85.7459 130.089 85.8129C130.047 85.8798 129.979 85.9107 129.891 85.9107H127.658V87.7442H130.173C130.261 87.7442 130.329 87.7751 130.371 87.8421C130.413 87.9039 130.433 88.012 130.433 88.1614V88.4137C130.433 88.5631 130.413 88.6661 130.371 88.733C130.329 88.7949 130.261 88.8309 130.173 88.8309H126.74C126.62 88.8206 126.526 88.7949 126.468 88.733ZM135.296 88.0481C134.779 87.4867 134.519 86.6163 134.519 85.4318C134.519 83.1399 135.599 81.9966 137.759 81.9966C138.077 81.9966 138.4 82.0275 138.729 82.0996C139.052 82.1665 139.308 82.2541 139.491 82.3571C139.652 82.4446 139.736 82.5425 139.736 82.6455C139.736 82.7228 139.705 82.8258 139.642 82.9494C139.579 83.073 139.506 83.1863 139.428 83.2841C139.345 83.382 139.272 83.4283 139.209 83.4283C139.188 83.4283 139.11 83.3974 138.974 83.3305C138.839 83.2635 138.666 83.2069 138.463 83.1554C138.259 83.1039 138.019 83.0781 137.743 83.0781C137.096 83.0781 136.621 83.2738 136.308 83.6601C136 84.0464 135.844 84.6438 135.844 85.4472C135.844 86.2403 136 86.8326 136.308 87.224C136.616 87.6155 137.091 87.8112 137.722 87.8112C138.025 87.8112 138.28 87.7803 138.505 87.7133C138.724 87.6515 138.938 87.5691 139.141 87.4713C139.245 87.4197 139.319 87.394 139.355 87.394C139.428 87.394 139.501 87.4404 139.574 87.5331C139.647 87.6258 139.715 87.7339 139.767 87.8575C139.819 87.9811 139.845 88.0687 139.845 88.1202C139.845 88.2695 139.736 88.4034 139.512 88.527C139.303 88.6404 139.032 88.7331 138.698 88.7949C138.364 88.8567 138.04 88.8927 137.717 88.8927C136.621 88.8876 135.818 88.6095 135.296 88.0481ZM140.529 88.6455C140.529 88.6249 140.545 88.5734 140.571 88.4807L142.783 82.2232C142.819 82.0996 142.986 82.0378 143.284 82.0378H143.712C143.998 82.0378 144.165 82.0996 144.212 82.2232L146.425 88.4807C146.445 88.5425 146.456 88.5991 146.456 88.6455C146.456 88.7743 146.299 88.8412 145.986 88.8412H145.684C145.397 88.8412 145.23 88.7794 145.183 88.6558L144.734 87.3322H142.23L141.781 88.6558C141.734 88.7794 141.593 88.8412 141.353 88.8412H141.077C140.706 88.8412 140.529 88.7743 140.529 88.6455ZM144.353 86.2506L143.638 84.1288C143.586 83.9794 143.539 83.7785 143.503 83.5313H143.461C143.456 83.5674 143.44 83.6549 143.414 83.7837C143.388 83.9125 143.357 84.0258 143.315 84.1339L142.579 86.2558H144.353V86.2506ZM147.651 88.5631V82.4189C147.651 82.2953 147.677 82.2077 147.734 82.1459C147.791 82.0893 147.88 82.0584 148.005 82.0584H149.826C150.64 82.0584 151.245 82.2077 151.642 82.5013C152.038 82.7949 152.231 83.2429 152.231 83.8352C152.231 84.206 152.132 84.5305 151.929 84.7983C151.725 85.0661 151.449 85.2721 151.099 85.406V85.4472C151.24 85.4987 151.381 85.612 151.511 85.7923C151.642 85.9674 151.762 86.1889 151.866 86.4464L152.696 88.4961C152.722 88.5889 152.732 88.6404 152.732 88.6609C152.732 88.7846 152.555 88.8464 152.205 88.8464H151.913C151.626 88.8464 151.454 88.7846 151.407 88.6609L150.645 86.7657C150.531 86.503 150.39 86.3176 150.228 86.2146C150.066 86.1116 149.826 86.0601 149.498 86.0601H148.939V88.5631C148.939 88.7485 148.767 88.8412 148.423 88.8412H148.178C147.823 88.8412 147.651 88.7485 147.651 88.5631ZM149.988 84.9682C150.233 84.9682 150.452 84.8755 150.635 84.685C150.818 84.4944 150.906 84.273 150.906 84.0155C150.906 83.7374 150.818 83.5262 150.64 83.3717C150.463 83.2223 150.223 83.1451 149.915 83.1451H148.929V84.9682H149.988ZM154.136 88.733C154.078 88.6764 154.047 88.5837 154.047 88.4652V82.4189C154.047 82.2901 154.078 82.1974 154.136 82.1408C154.193 82.0841 154.287 82.0584 154.407 82.0584H157.83C157.924 82.0584 157.986 82.0893 158.028 82.1562C158.07 82.2232 158.09 82.3262 158.09 82.4755V82.7279C158.09 82.8773 158.07 82.9803 158.028 83.0472C157.986 83.1142 157.918 83.1451 157.83 83.1451H155.325V84.824H157.558C157.652 84.824 157.715 84.8549 157.757 84.9219C157.798 84.9888 157.819 85.0919 157.819 85.2412V85.4936C157.819 85.6429 157.798 85.7459 157.757 85.8129C157.715 85.8798 157.647 85.9107 157.558 85.9107H155.325V87.7442H157.84C157.929 87.7442 157.997 87.7751 158.038 87.8421C158.08 87.9039 158.101 88.012 158.101 88.1614V88.4137C158.101 88.5631 158.08 88.6661 158.038 88.733C157.997 88.7949 157.929 88.8309 157.84 88.8309H154.407C154.287 88.8206 154.193 88.7949 154.136 88.733Z" fill="#FFC144"/>
</svg>
