<svg width="20" height="20" viewBox="0 0 20 20" fill="none" xmlns="http://www.w3.org/2000/svg">
<g clip-path="url(#clip0)">
<path d="M18.1497 1.91343V9.8477C18.1497 10.0095 18.0332 10.1474 17.8738 10.1755C17.5009 10.2411 17.1414 10.3956 16.8255 10.6432C16.669 10.7657 14.1213 12.761 13.5912 13.1765C13.5327 13.2223 13.4609 13.247 13.3867 13.247H13.0939C12.84 13.247 12.6822 12.9758 12.8029 12.7525C13.0272 12.3373 13.119 11.8796 13.1124 11.3797C13.0937 9.96609 11.9314 8.83448 10.5176 8.83448H7.49839C6.8261 8.83448 6.16297 9.0114 5.58019 9.3465L3.80289 10.3685C3.68042 10.4389 3.52765 10.4236 3.41992 10.3322C3.27372 10.2082 3.10317 10.1051 2.91539 10.0329C2.78826 9.98394 2.7058 9.86006 2.7058 9.72381V1.91343C2.7058 1.13774 3.33462 0.508911 4.11031 0.508911H7.5346C7.71851 0.508911 7.86762 0.658021 7.86762 0.841932V4.34198C7.86762 5.06114 8.60139 5.48383 9.20004 5.16575L10.3356 4.56253C10.4063 4.52485 10.4907 4.52494 10.5615 4.56257C11.7837 5.21184 11.8334 5.27286 12.1229 5.27286C12.6182 5.27286 13.0294 4.87153 13.0294 4.34477V0.841932C13.0294 0.658021 13.1785 0.508911 13.3624 0.508911H16.7451C17.5208 0.508911 18.1497 1.13774 18.1497 1.91343ZM8.88754 4.57756L10.023 3.97437C10.2894 3.83271 10.6076 3.8328 10.8741 3.97437L12.0095 4.57756C12.1696 4.66273 12.3634 4.54688 12.3634 4.36484V0.841932C12.3634 0.658021 12.2143 0.508911 12.0303 0.508911H8.86665C8.68273 0.508911 8.53362 0.658021 8.53362 0.841932V4.36484C8.53367 4.54663 8.72715 4.66289 8.88754 4.57756ZM17.2363 11.1673L14.0081 13.6957C13.8291 13.836 13.6056 13.913 13.3787 13.913H10.4137C10.2234 13.913 10.1819 13.6454 10.3632 13.5878L11.1017 13.3531C11.9063 13.0975 12.4467 12.3591 12.4467 11.5148V11.4295C12.4467 10.3641 11.583 9.50048 10.5176 9.50048H7.49839C6.94266 9.50048 6.39401 9.64701 5.91237 9.92383L4.58791 10.6855C4.24065 10.8853 4.03642 11.2582 4.03784 11.6587C4.03801 11.7004 4.03955 17.8522 4.03722 18.2823C4.03622 18.467 4.18558 18.6169 4.37024 18.6169H11.9363C12.5853 18.6169 13.2293 18.4038 13.75 18.0167L19.3094 13.8847C19.6836 13.6066 19.923 13.1991 19.9842 12.737C20.1847 11.2246 18.4373 10.2268 17.2363 11.1673ZM2.28952 10.5828H1.08232C0.485378 10.5828 0 11.0682 0 11.6651V18.4088C0 19.0057 0.485378 19.4911 1.08232 19.4911H2.28952C2.88646 19.4911 3.37184 19.0057 3.37184 18.4088V11.6651C3.37184 11.0682 2.88646 10.5828 2.28952 10.5828Z" fill="url(#paint0_linear)"/>
</g>
<defs>
<linearGradient id="paint0_linear" x1="10" y1="0.508911" x2="10" y2="19.4911" gradientUnits="userSpaceOnUse">
<stop stop-color="#807c7c"/>
<stop offset="1" stop-color="#c7c3c3"/>
</linearGradient>
<clipPath id="clip0">
<rect width="20" height="20" fill="white"/>
</clipPath>
</defs>
</svg>
