<svg width="24" height="24" viewBox="0 0 24 24" fill="none" xmlns="http://www.w3.org/2000/svg">
<path d="M21.75 5.25H2.25C1.00922 5.25 0 6.25922 0 7.5V16.5C0 17.7408 1.00922 18.75 2.25 18.75H21.75C22.9908 18.75 24 17.7408 24 16.5V7.5C24 6.25922 22.9908 5.25 21.75 5.25ZM2.68969 8.92969C2.52141 8.55094 2.69203 8.10797 3.07031 7.93969C3.44859 7.77141 3.89203 7.94203 4.06031 8.32031L4.875 10.1536L5.68969 8.32031C5.85797 7.94203 6.30141 7.77141 6.67969 7.93969C7.05797 8.10797 7.22859 8.55094 7.06031 8.92969L5.69578 12L7.06031 15.0703C7.28194 15.5691 6.91327 16.125 6.37547 16.125C6.08812 16.125 5.81391 15.9591 5.68969 15.6797L4.875 13.8469L4.06031 15.6797C3.93609 15.9591 3.66188 16.125 3.37453 16.125C2.83706 16.125 2.46797 15.5693 2.68969 15.0703L4.05422 12L2.68969 8.92969ZM12 12.75H11.625C11.2106 12.75 10.875 12.4144 10.875 12C10.875 11.5856 11.2106 11.25 11.625 11.25H12C12.2067 11.25 12.375 11.0817 12.375 10.875V9.75C12.375 9.54328 12.2067 9.375 12 9.375H10.5C10.0856 9.375 9.75 9.03938 9.75 8.625C9.75 8.21062 10.0856 7.875 10.5 7.875H12C13.0341 7.875 13.875 8.71594 13.875 9.75C13.875 10.8436 13.9647 11.382 13.4991 12C13.7353 12.3136 13.875 12.7031 13.875 13.125V14.25C13.875 15.2841 13.0341 16.125 12 16.125H10.5C10.0856 16.125 9.75 15.7894 9.75 15.375C9.75 14.9606 10.0856 14.625 10.5 14.625H12C12.2067 14.625 12.375 14.4567 12.375 14.25V13.125C12.375 12.9183 12.2067 12.75 12 12.75ZM9 12.75H7.875C7.46063 12.75 7.125 12.4144 7.125 12C7.125 11.5856 7.46063 11.25 7.875 11.25H9C9.41438 11.25 9.75 11.5856 9.75 12C9.75 12.4144 9.41438 12.75 9 12.75ZM18.375 14.625C18.7894 14.625 19.125 14.9606 19.125 15.375C19.125 15.7894 18.7894 16.125 18.375 16.125H15.375C14.7776 16.125 14.4184 15.4568 14.7511 14.9587L17.1272 11.3948C17.453 10.9064 17.625 10.3373 17.625 9.75C17.625 9.54328 17.4567 9.375 17.25 9.375H16.5C16.2933 9.375 16.125 9.54328 16.125 9.75C16.125 10.1644 15.7894 10.5 15.375 10.5C14.9606 10.5 14.625 10.1644 14.625 9.75C14.625 8.71594 15.4659 7.875 16.5 7.875H17.25C18.2841 7.875 19.125 8.71594 19.125 9.75C19.125 10.6345 18.8658 11.4909 18.375 12.2269L16.7766 14.625H18.375ZM21.375 15.375C21.375 15.7894 21.0394 16.125 20.625 16.125C20.2106 16.125 19.875 15.7894 19.875 15.375V8.625C19.875 8.21062 20.2106 7.875 20.625 7.875C21.0394 7.875 21.375 8.21062 21.375 8.625V15.375Z" fill="url(#paint0_linear)"/>
<defs>
<linearGradient id="paint0_linear" x1="12" y1="5.25" x2="12" y2="18.75" gradientUnits="userSpaceOnUse">
<stop stop-color="#807c7c"/>
<stop offset="1" stop-color="#c7c3c3"/>
</linearGradient>
</defs>
</svg>
