<svg xmlns="http://www.w3.org/2000/svg" width="20" height="20" fill="none" style=""><rect id="backgroundrect" width="100%" height="100%" x="0" y="0" fill="none" stroke="none"/>

<defs>
<linearGradient id="paint0_linear" x1="0.500000000745058" y1="1.6369098285304216e-9" x2="0.500000000745058" y2="1.000000019642918">
<stop stop-color="#EA7A6E"/>
<stop offset="1" stop-color="#E23A28"/>
</linearGradient>
<linearGradient id="paint1_linear" x1="0.500001141506131" y1="0" x2="0.500001141506131" y2="1">
<stop stop-color="#EA7A6E"/>
<stop offset="1" stop-color="#E23A28"/>
</linearGradient>
<clipPath id="clip0">
<rect width="20" height="20" fill="white" id="svg_1"/>
</clipPath>
</defs>
<g class="currentLayer" style=""><title>Layer 1</title><g clip-path="url(#clip0)" id="svg_2" class="selected" fill="#919191" fill-opacity="1" opacity="0.86">
<path d="M18.934000014901162,7.908597059454918 L3.027700014901161,0.211565059454918 C1.9799500149011613,-0.2962529405450822 0.7189460149011614,0.14144305945491803 0.21108601490116125,1.189197059454918 C-0.047866985098838806,1.723447059454918 -0.06952528509883886,2.342117059454918 0.15142301490116125,2.8932070594549177 L2.6362900149011614,9.103227059454918 H20.00000001490116 C19.81720001490116,8.579347059454918 19.433700014901163,8.149597059454917 18.934000014901162,7.908597059454918 z" fill="#919191" id="svg_3" fill-opacity="1" opacity="0.86"/>
<path d="M2.6369000149011614,10.508707059454919 L0.15204101490116126,16.720107059454918 C-0.27914898509883884,17.804507059454917 0.2504100149011612,19.033207059454917 1.3348500149011613,19.464407059454917 C1.580380014901161,19.562107059454917 1.8420900149011614,19.61280705945492 2.1063200149011614,19.613907059454917 C2.4255900149011613,19.613907059454917 2.7407500149011614,19.541907059454918 3.0282800149011613,19.403107059454918 L18.93460001490116,11.703307059454918 C19.43430001490116,11.462207059454919 19.81780001490116,11.032507059454918 20.00060001490116,10.508707059454919 H2.6369000149011614 z" fill="#919191" id="svg_4" fill-opacity="1" opacity="0.86"/>
</g></g></svg>