<svg width="24" height="24" viewBox="0 0 24 24" fill="none" xmlns="http://www.w3.org/2000/svg">
<path d="M21.4727 7.70572C21.4719 7.03085 21.2048 6.38383 20.7299 5.90662C20.2549 5.42942 19.611 5.161 18.9393 5.16026H17.0393V4.5239C17.0388 4.01774 16.8385 3.53246 16.4822 3.17455C16.126 2.81664 15.6431 2.61533 15.1393 2.61481H8.80599C8.30224 2.61533 7.81927 2.81664 7.46307 3.17455C7.10686 3.53246 6.90651 4.01774 6.90599 4.5239V5.16026H5.00599C4.33433 5.161 3.6904 5.42942 3.21546 5.90662C2.74053 6.38383 2.47339 7.03085 2.47266 7.70572V9.61481H21.4727V7.70572ZM15.7727 5.16026H8.17266V4.5239C8.17266 4.35512 8.23938 4.19326 8.35816 4.07392C8.47693 3.95458 8.63802 3.88753 8.80599 3.88753H15.1393C15.3073 3.88753 15.4684 3.95458 15.5872 4.07392C15.7059 4.19326 15.7727 4.35512 15.7727 4.5239V5.16026Z" fill="url(#paint0_linear)"/>
<path d="M15.1393 10.961C15.1393 11.2364 15.0392 11.5005 14.8611 11.6953C14.6829 11.89 14.4413 11.9994 14.1893 11.9994H9.75599C9.50403 11.9994 9.2624 11.89 9.08424 11.6953C8.90608 11.5005 8.80599 11.2364 8.80599 10.961V10.7879C8.80599 10.742 8.78931 10.698 8.75961 10.6655C8.72992 10.633 8.68965 10.6148 8.64766 10.6148H2.47266V16.8456C2.47266 17.58 2.73956 18.2844 3.21465 18.8037C3.68974 19.323 4.33411 19.6148 5.00599 19.6148H18.9393C19.6112 19.6148 20.2556 19.323 20.7307 18.8037C21.2058 18.2844 21.4727 17.58 21.4727 16.8456V10.6148H15.2977C15.2557 10.6148 15.2154 10.633 15.1857 10.6655C15.156 10.698 15.1393 10.742 15.1393 10.7879V10.961Z" fill="url(#paint1_linear)"/>
<defs>
<linearGradient id="paint0_linear" x1="11.9727" y1="2.61481" x2="11.9727" y2="9.61481" gradientUnits="userSpaceOnUse">
<stop stop-color="#EA7A6E"/>
<stop offset="1" stop-color="#E23A28"/>
</linearGradient>
<linearGradient id="paint1_linear" x1="11.9727" y1="10.6148" x2="11.9727" y2="19.6148" gradientUnits="userSpaceOnUse">
<stop stop-color="#EA7A6E"/>
<stop offset="1" stop-color="#E23A28"/>
</linearGradient>
</defs>
</svg>
