<svg width="24" height="24" viewBox="0 0 24 24" fill="none" xmlns="http://www.w3.org/2000/svg">
<rect opacity="0.1" width="24" height="24" rx="12" fill="#FFC144"/>
<path fill-rule="evenodd" clip-rule="evenodd" d="M8.625 6.75L8.62389 6.75C8.12736 6.75147 7.65158 6.94937 7.30047 7.30047C6.94937 7.65158 6.75147 8.12736 6.75 8.62389L6.75 8.625V13.6875L6.75 13.6886C6.75127 14.1354 6.92936 14.5637 7.24535 14.8797C7.56134 15.1956 7.98955 15.3737 8.43643 15.375L8.4375 15.375H8.625V15.5391C8.625 16.484 9.39101 17.25 10.3359 17.25H15.5391C16.484 17.25 17.25 16.484 17.25 15.5391V10.3359C17.25 9.39101 16.484 8.625 15.5391 8.625H15.3712L15.3749 8.44531L15.375 8.43643C15.3737 7.98955 15.1956 7.56134 14.8797 7.24535C14.5637 6.92936 14.1354 6.75127 13.6886 6.75L13.6875 6.75H8.625ZM14.9896 9.375C14.9888 9.375 14.9881 9.375 14.9873 9.375H10.3359C9.80523 9.375 9.375 9.80523 9.375 10.3359V15V15.5391C9.375 16.0698 9.80523 16.5 10.3359 16.5H15.5391C16.0698 16.5 16.5 16.0698 16.5 15.5391V10.3359C16.5 9.80523 16.0698 9.375 15.5391 9.375H14.9896ZM8.625 14.625V10.3359C8.625 9.39101 9.39101 8.625 10.3359 8.625H14.621L14.625 8.43451C14.6232 8.18727 14.5242 7.95059 14.3493 7.77568C14.1736 7.59993 13.9355 7.50084 13.6869 7.5H8.6256C8.32739 7.50102 8.04168 7.61993 7.8308 7.8308C7.61993 8.04168 7.50102 8.32739 7.5 8.6256V13.6869C7.50084 13.9355 7.59993 14.1736 7.77568 14.3493C7.95143 14.5251 8.18957 14.6242 8.4381 14.625H8.625Z" fill="url(#paint0_linear)"/>
<defs>
<linearGradient id="paint0_linear" x1="12" y1="6.75" x2="12" y2="17.25" gradientUnits="userSpaceOnUse">
<stop stop-color="#EA7A6E"/>
<stop offset="1" stop-color="#E23A28"/>
</linearGradient>
</defs>
</svg>
