<svg width="14" height="14" viewBox="0 0 14 14" fill="none" xmlns="http://www.w3.org/2000/svg">
<path fill-rule="evenodd" clip-rule="evenodd" d="M7.00033 12.8334C3.78033 12.8334 1.16699 10.2259 1.16699 7.00008C1.16699 3.78008 3.78033 1.16675 7.00033 1.16675C10.2262 1.16675 12.8337 3.78008 12.8337 7.00008C12.8337 10.2259 10.2262 12.8334 7.00033 12.8334ZM8.86106 9.16423C8.93106 9.20507 9.0069 9.2284 9.08856 9.2284C9.2344 9.2284 9.38023 9.15257 9.46189 9.01257C9.5844 8.8084 9.52023 8.54007 9.31023 8.41173L7.23356 7.17507V4.48007C7.23356 4.23507 7.03523 4.04257 6.79606 4.04257C6.55689 4.04257 6.35856 4.23507 6.35856 4.48007V7.4259C6.35856 7.57757 6.44023 7.71757 6.57439 7.79923L8.86106 9.16423Z" fill="#221C1E"/>
</svg>
