<svg width="50" height="50" viewBox="0 0 50 50" fill="none" xmlns="http://www.w3.org/2000/svg">
<path d="M25 50C38.8071 50 50 38.8071 50 25C50 11.1929 38.8071 0 25 0C11.1929 0 0 11.1929 0 25C0 38.8071 11.1929 50 25 50Z" fill="#333333"/>
<path fill-rule="evenodd" clip-rule="evenodd" d="M17.6458 15.0833H21.1667C22.6354 15.0833 23.8125 16.2813 23.8125 17.7511V21.3021C23.8125 22.7813 22.6354 23.9688 21.1667 23.9688H17.6458C16.1875 23.9688 15 22.7813 15 21.3021V17.7511C15 16.2813 16.1875 15.0833 17.6458 15.0833ZM17.6458 27.0309H21.1667C22.6354 27.0309 23.8125 28.2195 23.8125 29.6987V33.2497C23.8125 34.7184 22.6354 35.9164 21.1667 35.9164H17.6458C16.1875 35.9164 15 34.7184 15 33.2497V29.6987C15 28.2195 16.1875 27.0309 17.6458 27.0309ZM33.1876 15.0833H29.6668C28.198 15.0833 27.0209 16.2813 27.0209 17.7511V21.3021C27.0209 22.7813 28.198 23.9688 29.6668 23.9688H33.1876C34.6459 23.9688 35.8334 22.7813 35.8334 21.3021V17.7511C35.8334 16.2813 34.6459 15.0833 33.1876 15.0833ZM29.6668 27.0309H33.1876C34.6459 27.0309 35.8334 28.2195 35.8334 29.6987V33.2497C35.8334 34.7184 34.6459 35.9164 33.1876 35.9164H29.6668C28.198 35.9164 27.0209 34.7184 27.0209 33.2497V29.6987C27.0209 28.2195 28.198 27.0309 29.6668 27.0309Z" fill="white"/>
<defs>
<linearGradient id="paint0_linear" x1="25" y1="0" x2="25" y2="50" gradientUnits="userSpaceOnUse">
<stop stop-color="#807c7c"/>
<stop offset="1" stop-color="#EE9A1C"/>
</linearGradient>
</defs>
</svg>
