<svg width="20" height="20" viewBox="0 0 20 20" fill="none" xmlns="http://www.w3.org/2000/svg">
<path fill-rule="evenodd" clip-rule="evenodd" d="M1.875 10C1.875 5.5142 5.5142 1.875 10 1.875C14.4858 1.875 18.125 5.5142 18.125 10C18.125 14.4858 14.4858 18.125 10 18.125C5.5142 18.125 1.875 14.4858 1.875 10ZM10 3.125C6.20455 3.125 3.125 6.20455 3.125 10C3.125 13.7954 6.20455 16.875 10 16.875C13.7954 16.875 16.875 13.7954 16.875 10C16.875 6.20455 13.7954 3.125 10 3.125ZM10 6.25C10.3452 6.25 10.625 6.52982 10.625 6.875V9.375H13.125C13.4702 9.375 13.75 9.65482 13.75 10C13.75 10.3452 13.4702 10.625 13.125 10.625H10.625V13.125C10.625 13.4702 10.3452 13.75 10 13.75C9.65482 13.75 9.375 13.4702 9.375 13.125V10.625H6.875C6.52982 10.625 6.25 10.3452 6.25 10C6.25 9.65482 6.52982 9.375 6.875 9.375H9.375V6.875C9.375 6.52982 9.65482 6.25 10 6.25Z" fill="#21313F"/>
</svg>
