<svg width="58" height="58" viewBox="0 0 58 58" fill="none" xmlns="http://www.w3.org/2000/svg">
<g clip-path="url(#clip0)">
<path d="M16.6256 16.6256C9.80243 23.4488 9.80243 34.5512 16.6256 41.3744C23.4487 48.1975 34.5512 48.1975 41.3743 41.3744C48.1975 34.5512 48.1975 23.4488 41.3743 16.6256C34.5512 9.80248 23.4487 9.80248 16.6256 16.6256ZM36.615 27.6543C36.7946 27.6497 36.9733 27.6811 37.1406 27.7467C37.3079 27.8122 37.4604 27.9106 37.589 28.036C37.7177 28.1614 37.82 28.3113 37.8898 28.4769C37.9596 28.6425 37.9956 28.8203 37.9956 29C37.9956 29.1797 37.9596 29.3575 37.8898 29.5231C37.82 29.6887 37.7177 29.8386 37.589 29.964C37.4604 30.0894 37.3079 30.1878 37.1406 30.2533C36.9733 30.3189 36.7946 30.3503 36.615 30.3457L30.3463 30.3463L30.3457 36.615C30.3367 36.9659 30.191 37.2995 29.9396 37.5445C29.6882 37.7895 29.351 37.9267 29 37.9267C28.6489 37.9267 28.3117 37.7895 28.0603 37.5445C27.809 37.2995 27.6632 36.9659 27.6542 36.615L27.6536 30.3463L21.385 30.3457C21.034 30.3367 20.7005 30.191 20.4554 29.9396C20.2104 29.6882 20.0733 29.3511 20.0733 29C20.0733 28.6489 20.2104 28.3118 20.4554 28.0604C20.7005 27.809 21.034 27.6633 21.385 27.6543L27.6536 27.6537L27.6542 21.385C27.6632 21.0341 27.809 20.7005 28.0603 20.4555C28.3117 20.2105 28.6489 20.0733 29 20.0733C29.351 20.0733 29.6882 20.2105 29.9396 20.4555C30.191 20.7005 30.3367 21.0341 30.3457 21.385L30.3463 27.6537L36.615 27.6543Z" fill="#D3D6D9"/>
</g>
<defs>
<clipPath id="clip0">
<rect width="40" height="40" fill="white" transform="translate(0.715698 29) rotate(-45)"/>
</clipPath>
</defs>
</svg>
