<svg width="20" height="20" viewBox="0 0 20 20" fill="none" xmlns="http://www.w3.org/2000/svg">
<path fill-rule="evenodd" clip-rule="evenodd" d="M0 2.50033C0 2.04009 0.373096 1.66699 0.833333 1.66699H19.1667C19.6269 1.66699 20 2.04009 20 2.50033V6.66699C20 7.12723 19.6269 7.50033 19.1667 7.50033H18.3333V17.5003C18.3333 17.9606 17.9602 18.3337 17.5 18.3337H2.5C2.03977 18.3337 1.66667 17.9606 1.66667 17.5003V7.50033H0.833333C0.373096 7.50033 0 7.12723 0 6.66699V2.50033ZM17.5 5.83366L17.5016 5.83366H18.3333V3.33366H1.66667V5.83366H2.49844L2.5 5.83366L2.50156 5.83366H17.4984L17.5 5.83366ZM16.6667 7.50033H3.33334V16.667H16.6667V7.50033ZM8.33333 9.16699C7.8731 9.16699 7.5 9.54009 7.5 10.0003C7.5 10.4606 7.8731 10.8337 8.33333 10.8337H11.6667C12.1269 10.8337 12.5 10.4606 12.5 10.0003C12.5 9.54009 12.1269 9.16699 11.6667 9.16699H8.33333Z" fill="#21313F"/>
</svg>
