<svg width="90" height="44" viewBox="0 0 90 44" fill="none" xmlns="http://www.w3.org/2000/svg">
<rect width="90" height="44" rx="8" transform="matrix(-1 0 0 1 90 0)" fill="#D4EBF3"/>
<path d="M45.7754 27.144C44.634 27.144 43.6367 26.904 42.7834 26.424C41.9407 25.944 41.29 25.2667 40.8314 24.392C40.3834 23.5173 40.1594 22.504 40.1594 21.352C40.1594 20.2 40.3834 19.1867 40.8314 18.312C41.29 17.4373 41.9407 16.7653 42.7834 16.296C43.6367 15.816 44.634 15.576 45.7754 15.576C46.522 15.576 47.2367 15.6933 47.9194 15.928C48.602 16.152 49.162 16.4667 49.5994 16.872L48.7994 18.648C48.3087 18.2747 47.818 18.0027 47.3274 17.832C46.8474 17.6613 46.346 17.576 45.8234 17.576C44.8207 17.576 44.0474 17.896 43.5034 18.536C42.97 19.176 42.7034 20.1147 42.7034 21.352C42.7034 22.5893 42.97 23.5333 43.5034 24.184C44.0474 24.824 44.8207 25.144 45.8234 25.144C46.346 25.144 46.8474 25.0587 47.3274 24.888C47.818 24.7173 48.3087 24.4453 48.7994 24.072L49.5994 25.848C49.162 26.2533 48.602 26.5733 47.9194 26.808C47.2367 27.032 46.522 27.144 45.7754 27.144ZM56.0591 18.952C56.9978 18.952 57.6965 19.2293 58.1551 19.784C58.6138 20.328 58.8431 21.1547 58.8431 22.264V27H56.4271V22.376C56.4271 21.8427 56.3258 21.4533 56.1231 21.208C55.9311 20.9627 55.6271 20.84 55.2111 20.84C54.7098 20.84 54.3045 21 53.9951 21.32C53.6965 21.64 53.5471 22.0667 53.5471 22.6V27H51.1311V15.72H53.5471V20.184C53.8245 19.7787 54.1765 19.4747 54.6031 19.272C55.0405 19.0587 55.5258 18.952 56.0591 18.952ZM64.1348 18.952C65.3081 18.952 66.1721 19.2293 66.7268 19.784C67.2921 20.3387 67.5748 21.1973 67.5748 22.36V27H65.2868V25.832C65.1268 26.2373 64.8601 26.5573 64.4868 26.792C64.1134 27.016 63.6761 27.128 63.1748 27.128C62.6414 27.128 62.1561 27.0213 61.7188 26.808C61.2921 26.5947 60.9508 26.296 60.6948 25.912C60.4494 25.528 60.3268 25.1013 60.3268 24.632C60.3268 24.056 60.4708 23.6027 60.7588 23.272C61.0574 22.9413 61.5321 22.7013 62.1828 22.552C62.8334 22.4027 63.7241 22.328 64.8548 22.328H65.2708V22.04C65.2708 21.5707 65.1694 21.24 64.9668 21.048C64.7641 20.856 64.4121 20.76 63.9108 20.76C63.5268 20.76 63.1001 20.8293 62.6308 20.968C62.1614 21.1067 61.7134 21.2987 61.2868 21.544L60.6468 19.928C61.0948 19.6507 61.6441 19.4213 62.2948 19.24C62.9561 19.048 63.5694 18.952 64.1348 18.952ZM63.7028 25.464C64.1721 25.464 64.5508 25.3093 64.8388 25C65.1268 24.68 65.2708 24.2693 65.2708 23.768V23.496H64.9988C64.1348 23.496 63.5268 23.5653 63.1748 23.704C62.8334 23.8427 62.6628 24.0933 62.6628 24.456C62.6628 24.744 62.7588 24.984 62.9508 25.176C63.1534 25.368 63.4041 25.464 63.7028 25.464ZM73.7331 25.352C73.9785 25.352 74.2345 25.336 74.5011 25.304L74.3731 27.064C74.0638 27.1067 73.7545 27.128 73.4451 27.128C72.2505 27.128 71.3758 26.8667 70.8211 26.344C70.2771 25.8213 70.0051 25.0267 70.0051 23.96V20.952H68.5171V19.144H70.0051V16.84H72.4211V19.144H74.3891V20.952H72.4211V23.944C72.4211 24.8827 72.8585 25.352 73.7331 25.352Z" fill="#009AC9"/>
<path d="M27.4375 16.5575C26.1765 15.5485 24.6094 14.9992 22.9944 15C21.0907 15 19.3125 15.7334 17.9832 17.0653C16.6985 18.3541 15.9944 20.0556 16 21.8553C16.0001 23.1748 16.3874 24.4652 17.1141 25.5666L17.12 25.575C17.1288 25.5878 17.1378 25.6006 17.1469 25.6131C17.156 25.6256 17.1672 25.6419 17.1697 25.6459L17.1766 25.6584C17.2119 25.7209 17.2391 25.7972 17.215 25.8741L16.6394 27.9572C16.6164 28.0347 16.6038 28.1148 16.6019 28.1956C16.6015 28.4082 16.6854 28.6122 16.8352 28.763C16.985 28.9138 17.1884 28.999 17.401 29C17.5133 28.9963 17.624 28.972 17.7275 28.9284L19.8366 28.1672L19.8632 28.1569C19.9205 28.1328 19.9822 28.1206 20.0444 28.1209C20.1018 28.1211 20.1586 28.1317 20.2122 28.1522C20.2628 28.1719 20.7225 28.3478 21.2075 28.4834C21.6107 28.5959 22.4494 28.7647 23.1066 28.7647C24.9707 28.7647 26.7113 28.0428 28.0075 26.7316C29.2925 25.4303 30 23.7006 30 21.8591C30.0002 21.3863 29.9501 20.9149 29.8507 20.4528C29.5275 18.9334 28.6707 17.5497 27.4375 16.5575ZM20 23C19.8023 23 19.6089 22.9414 19.4445 22.8315C19.28 22.7216 19.1518 22.5654 19.0762 22.3827C19.0005 22.2 18.9807 21.9989 19.0192 21.8049C19.0578 21.6109 19.1531 21.4327 19.2929 21.2929C19.4328 21.153 19.611 21.0578 19.8049 21.0192C19.9989 20.9806 20.2 21.0004 20.3827 21.0761C20.5654 21.1518 20.7216 21.28 20.8315 21.4444C20.9414 21.6089 21 21.8022 21 22C21 22.2652 20.8947 22.5196 20.7071 22.7071C20.5196 22.8946 20.2652 23 20 23ZM23 23C22.8023 23 22.6089 22.9414 22.4445 22.8315C22.28 22.7216 22.1518 22.5654 22.0762 22.3827C22.0005 22.2 21.9807 21.9989 22.0192 21.8049C22.0578 21.6109 22.1531 21.4327 22.2929 21.2929C22.4328 21.153 22.611 21.0578 22.8049 21.0192C22.9989 20.9806 23.2 21.0004 23.3827 21.0761C23.5654 21.1518 23.7216 21.28 23.8315 21.4444C23.9414 21.6089 24 21.8022 24 22C24 22.2652 23.8947 22.5196 23.7071 22.7071C23.5196 22.8946 23.2652 23 23 23ZM26 23C25.8023 23 25.6089 22.9414 25.4445 22.8315C25.28 22.7216 25.1518 22.5654 25.0762 22.3827C25.0005 22.2 24.9807 21.9989 25.0192 21.8049C25.0578 21.6109 25.1531 21.4327 25.2929 21.2929C25.4328 21.153 25.611 21.0578 25.8049 21.0192C25.9989 20.9806 26.2 21.0004 26.3827 21.0761C26.5654 21.1518 26.7216 21.28 26.8315 21.4444C26.9414 21.6089 27 21.8022 27 22C27 22.2652 26.8947 22.5196 26.7071 22.7071C26.5196 22.8946 26.2653 23 26 23Z" fill="#009AC9"/>
</svg>
