<svg width="20" height="20" viewBox="0 0 20 20" fill="none" xmlns="http://www.w3.org/2000/svg">
<path d="M1.25 8.409L3.12827 4.02655C3.43402 3.31312 4.21307 2.84082 5.08359 2.84082H14.9164C15.7869 2.84082 16.566 3.31312 16.8717 4.02655L18.75 8.409" stroke="#21313F" stroke-width="1.3" stroke-linecap="round" stroke-linejoin="round"/>
<path d="M18.75 8.40918H1.25V15.5683H18.75V8.40918Z" stroke="#21313F" stroke-width="1.3" stroke-linecap="round" stroke-linejoin="round"/>
<path d="M2.84091 15.5684V17.1593H1.25V15.5684" stroke="#21313F" stroke-width="1.3" stroke-linecap="round" stroke-linejoin="round"/>
<path d="M18.75 15.5684V17.1593H17.1591V15.5684" stroke="#21313F" stroke-width="1.3" stroke-linecap="round" stroke-linejoin="round"/>
<path d="M4.43181 12.3858C4.87112 12.3858 5.22726 12.0297 5.22726 11.5904C5.22726 11.1511 4.87112 10.7949 4.43181 10.7949C3.99249 10.7949 3.63635 11.1511 3.63635 11.5904C3.63635 12.0297 3.99249 12.3858 4.43181 12.3858Z" stroke="#21313F" stroke-linecap="round" stroke-linejoin="round"/>
<path d="M15.5682 12.3858C16.0075 12.3858 16.3636 12.0297 16.3636 11.5904C16.3636 11.1511 16.0075 10.7949 15.5682 10.7949C15.1288 10.7949 14.7727 11.1511 14.7727 11.5904C14.7727 12.0297 15.1288 12.3858 15.5682 12.3858Z" stroke="#21313F" stroke-linecap="round" stroke-linejoin="round"/>
</svg>
