<svg width="20" height="20" viewBox="0 0 20 20" fill="none" xmlns="http://www.w3.org/2000/svg">
<path fill-rule="evenodd" clip-rule="evenodd" d="M9.99998 2.49967C5.85784 2.49967 2.49998 5.85754 2.49998 9.99967C2.49998 14.1418 5.85784 17.4997 9.99998 17.4997C14.1421 17.4997 17.5 14.1418 17.5 9.99967C17.5 5.85754 14.1421 2.49967 9.99998 2.49967ZM0.833313 9.99967C0.833313 4.93706 4.93737 0.833008 9.99998 0.833008C15.0626 0.833008 19.1666 4.93706 19.1666 9.99967C19.1666 15.0623 15.0626 19.1663 9.99998 19.1663C4.93737 19.1663 0.833313 15.0623 0.833313 9.99967Z" fill="#21313F"/>
<path fill-rule="evenodd" clip-rule="evenodd" d="M10 4.16699C10.4603 4.16699 10.8334 4.54009 10.8334 5.00033V9.4853L13.706 10.9216C14.1177 11.1275 14.2845 11.628 14.0787 12.0397C13.8729 12.4513 13.3723 12.6182 12.9607 12.4123L9.62734 10.7457C9.34502 10.6045 9.16669 10.316 9.16669 10.0003V5.00033C9.16669 4.54009 9.53978 4.16699 10 4.16699Z" fill="#21313F"/>
</svg>
