<?xml version="1.0" encoding="utf-8"?>
<!-- Generator: Adobe Illustrator 19.0.0, SVG Export Plug-In . SVG Version: 6.00 Build 0)  -->
<svg version="1.1" id="Layer_1" xmlns="http://www.w3.org/2000/svg" xmlns:xlink="http://www.w3.org/1999/xlink" x="0px" y="0px" width="27" height="20"
	 viewBox="-210 387 26.8 20" style="enable-background:new -210 387 26.8 20;" xml:space="preserve">
<style type="text/css">
	.st0{fill:#FFFFFF;}
</style>
<g>
	<path d="M-204.2,387.2c-1.8,0.6-2.7,1.7-3,3.8c-0.1,0.5-0.1,1-0.1,1.1c0,0-0.2,0.2-0.4,0.2c-0.5,0.2-0.8,1-0.8,2
		c0,0.9,0.3,1.5,0.9,1.7c0.2,0.1,0.3,0.3,0.3,0.4c0,0.6,1,2.3,1.8,3c0.7,0.6,0.8,0.7,0.7,1.1l-0.1,0.4l-1.4,0.1
		c-1.7,0.1-2.3,0.3-3,1.2c-0.6,0.7-0.7,1.2-0.7,3c0,1.1,0,1.5,0.2,1.6c0.2,0.2,1.1,0.2,8,0.2h7.8l0.2-0.3c0.3-0.4,0.3-2.4,0.1-3.3
		c-0.2-0.8-0.8-1.6-1.5-2c-0.6-0.3-0.8-0.4-2.1-0.4l-1.5-0.1l-0.1-0.4c-0.1-0.4-0.1-0.5,0.4-0.9c0.9-0.8,1.6-1.8,1.9-2.8
		c0.2-0.5,0.3-0.7,0.5-0.8c0.6-0.1,0.9-0.7,0.8-1.8c0-1-0.3-1.6-0.8-1.8c-0.3-0.1-0.3-0.3-0.3-0.6c0-0.8-0.4-2.3-0.9-2.9
		c-0.9-1.3-2.1-1.8-4.7-1.8C-202.8,387-203.8,387.1-204.2,387.2z M-202.2,391.9c0.6,0.1,0.7,0.1,0.6-0.2c-0.1-0.3,0-0.3,0.2-0.2
		c0.5,0.2,1.4,0.4,1.7,0.3c0.4-0.1,0.5-0.2,0.2-0.5c-0.2-0.2-0.1-0.2,0.1-0.1c0.2,0.1,0.5,0.1,0.7,0.2c0.5,0.1,0.8,0.7,1.1,2
		c0.1,0.4,0.2,0.8,0.3,0.9c0.3,0.2,0.5,0,0.5-0.4c0.1-0.7,0.3-0.3,0.3,0.4c0,0.7,0,0.7-0.5,0.9c-0.4,0.1-0.5,0.2-0.6,0.9
		c-0.5,2.1-2,3.6-3.9,3.7c-2.4,0.2-4.2-1.3-4.8-4.1c-0.1-0.3-0.2-0.4-0.5-0.5c-0.5-0.1-0.6-0.2-0.6-0.9c0-0.7,0.3-1,0.4-0.4
		c0.1,0.3,0.2,0.4,0.4,0.4c0.2,0,0.3-0.2,0.5-1c0.1-0.5,0.3-1.1,0.4-1.4c0.2-0.4,0.5-0.6,0.6-0.3c0.1,0.2,1.1,0.4,1.2,0.3
		c0.1,0,0.1-0.2,0-0.4l-0.1-0.4l0.5,0.4C-203.1,391.7-202.5,391.8-202.2,391.9z M-201.8,400.7c0.4,0,0.9,0,1.2-0.1
		c0.6-0.1,0.6-0.1,0.7,0.4c0.2,0.7,0.1,1.1-0.7,1.6c-1.3,1-1.3,1-2.6,0c-0.8-0.6-0.9-0.8-0.7-1.5l0.2-0.6l0.6,0.1
		C-202.7,400.7-202.2,400.7-201.8,400.7z"/>
	<path d="M-201.3,393.4c-0.2,0.2-0.1,0.8,0.3,1.1c0.7,0.7,2.3,0.2,2.2-0.8c-0.1-0.5-0.8-0.6-0.9-0.2c-0.1,0.4-0.5,0.4-0.6,0
		C-200.5,393.3-201.1,393.2-201.3,393.4z"/>
	<path d="M-203,396c-0.5,0.3-1,0.9-1,1.3c0,0.5,0.6,0.7,2.1,0.7c1.7,0,2-0.1,2-0.7C-199.9,396.1-201.7,395.3-203,396z"/>
	<path d="M-193.1,393.7l-0.4,0.4v2.7c0,2.7,0.1,3.1,0.5,3.5c0.1,0.1,0.5,0.2,0.8,0.2c0.5,0,0.5,0,0.5,0.4c0,0.2-0.1,0.7-0.2,1
		c-0.2,0.5-0.2,0.6,0,0.9c0.1,0.2,0.4,0.3,0.5,0.3c0.5,0,1.5-0.8,2.4-1.7l0.8-0.8h2.1c3,0,2.8,0.2,2.8-3.6c0-2.9,0-2.9-0.4-3.2
		l-0.3-0.4h-4.4h-4.4L-193.1,393.7z"/>
	<path d="M-204.4,393.4c-0.2,0.2-0.1,0.8,0.3,1.1c0.7,0.7,2.3,0.2,2.2-0.8c-0.1-0.5-0.8-0.6-0.9-0.2c-0.1,0.4-0.5,0.4-0.6,0
		C-203.7,393.3-204.2,393.2-204.4,393.4z"/>
	<circle class="st0" cx="-191.1" cy="397" r="0.8"/>
	<circle class="st0" cx="-188.2" cy="397" r="0.8"/>
	<circle class="st0" cx="-185.4" cy="397" r="0.8"/>
</g>
</svg>
