<svg width="16" height="16" viewBox="0 0 16 16" fill="none" xmlns="http://www.w3.org/2000/svg">
<path fill-rule="evenodd" clip-rule="evenodd" d="M7.33325 13.3337C7.33325 12.9655 7.63173 12.667 7.99992 12.667H13.9999C14.3681 12.667 14.6666 12.9655 14.6666 13.3337C14.6666 13.7018 14.3681 14.0003 13.9999 14.0003H7.99992C7.63173 14.0003 7.33325 13.7018 7.33325 13.3337Z" fill="#21313F"/>
<path fill-rule="evenodd" clip-rule="evenodd" d="M11.9999 2.58626C11.8017 2.58626 11.6115 2.66502 11.4713 2.80521L3.26858 11.008L2.91618 12.4176L4.32577 12.0652L12.5285 3.86241C12.5979 3.79299 12.653 3.71058 12.6906 3.61988C12.7281 3.52919 12.7475 3.43198 12.7475 3.33381C12.7475 3.23564 12.7281 3.13843 12.6906 3.04774C12.653 2.95704 12.5979 2.87463 12.5285 2.80521C12.4591 2.7358 12.3767 2.68073 12.286 2.64317C12.1953 2.6056 12.0981 2.58626 11.9999 2.58626ZM10.5285 1.86241C10.9188 1.47216 11.448 1.25293 11.9999 1.25293C12.2732 1.25293 12.5438 1.30675 12.7963 1.41133C13.0487 1.5159 13.2781 1.66918 13.4713 1.86241C13.6646 2.05563 13.8178 2.28503 13.9224 2.53749C14.027 2.78996 14.0808 3.06054 14.0808 3.33381C14.0808 3.60708 14.027 3.87766 13.9224 4.13013C13.8178 4.38259 13.6646 4.61199 13.4713 4.80521L5.138 13.1385C5.05256 13.224 4.94551 13.2846 4.82829 13.3139L2.16162 13.9806C1.93444 14.0374 1.69412 13.9708 1.52853 13.8052C1.36294 13.6396 1.29638 13.3993 1.35317 13.1721L2.01984 10.5055C2.04914 10.3882 2.10976 10.2812 2.19519 10.1957L10.5285 1.86241Z" fill="#21313F"/>
</svg>
