<svg width="14" height="14" viewBox="0 0 14 14" fill="none" xmlns="http://www.w3.org/2000/svg">
<path fill-rule="evenodd" clip-rule="evenodd" d="M6.99984 12.8334C3.77984 12.8334 1.1665 10.2259 1.1665 7.00008C1.1665 3.78008 3.77984 1.16675 6.99984 1.16675C10.2257 1.16675 12.8332 3.78008 12.8332 7.00008C12.8332 10.2259 10.2257 12.8334 6.99984 12.8334ZM8.86078 9.16423C8.93078 9.20507 9.00661 9.2284 9.08828 9.2284C9.23411 9.2284 9.37994 9.15257 9.46161 9.01257C9.58411 8.8084 9.51994 8.54007 9.30994 8.41173L7.23328 7.17507V4.48007C7.23328 4.23507 7.03494 4.04257 6.79578 4.04257C6.55661 4.04257 6.35828 4.23507 6.35828 4.48007V7.4259C6.35828 7.57757 6.43994 7.71757 6.57411 7.79923L8.86078 9.16423Z" fill="#221C1E"/>
</svg>
