<svg width="20" height="20" viewBox="0 0 20 20" fill="none" xmlns="http://www.w3.org/2000/svg">
<path fill-rule="evenodd" clip-rule="evenodd" d="M5 2.5C4.30964 2.5 3.75 3.05964 3.75 3.75V16.25C3.75 16.9404 4.30964 17.5 5 17.5H15C15.6904 17.5 16.25 16.9404 16.25 16.25V3.75C16.25 3.05964 15.6904 2.5 15 2.5H5ZM2.5 3.75C2.5 2.36929 3.61929 1.25 5 1.25H15C16.3807 1.25 17.5 2.36929 17.5 3.75V16.25C17.5 17.6307 16.3807 18.75 15 18.75H5C3.61929 18.75 2.5 17.6307 2.5 16.25V3.75Z" fill="#21313F"/>
<path fill-rule="evenodd" clip-rule="evenodd" d="M5.625 5C5.625 4.65482 5.90482 4.375 6.25 4.375H13.75C14.0952 4.375 14.375 4.65482 14.375 5C14.375 5.34518 14.0952 5.625 13.75 5.625H6.25C5.90482 5.625 5.625 5.34518 5.625 5Z" fill="#21313F"/>
<path fill-rule="evenodd" clip-rule="evenodd" d="M5.625 8.125C5.625 7.77982 5.90482 7.5 6.25 7.5H12.5C12.8452 7.5 13.125 7.77982 13.125 8.125C13.125 8.47018 12.8452 8.75 12.5 8.75H6.25C5.90482 8.75 5.625 8.47018 5.625 8.125Z" fill="#21313F"/>
<path fill-rule="evenodd" clip-rule="evenodd" d="M5.625 11.25C5.625 10.9048 5.90482 10.625 6.25 10.625H10.625C10.9702 10.625 11.25 10.9048 11.25 11.25C11.25 11.5952 10.9702 11.875 10.625 11.875H6.25C5.90482 11.875 5.625 11.5952 5.625 11.25Z" fill="#21313F"/>
</svg>
