<svg width="24" height="24" viewBox="0 0 24 24" fill="none" xmlns="http://www.w3.org/2000/svg">
<path d="M22.3402 10.6424L22.3327 10.6391L2.31328 2.33563C2.1449 2.26516 1.96167 2.23752 1.77999 2.25519C1.59831 2.27286 1.42384 2.33528 1.27219 2.43688C1.11197 2.54187 0.980359 2.68504 0.889207 2.85352C0.798055 3.02199 0.750218 3.21049 0.75 3.40204V8.71251C0.750089 8.97438 0.841528 9.22801 1.00856 9.42969C1.17558 9.63138 1.40774 9.76847 1.665 9.81735L12.5836 11.8363C12.6265 11.8444 12.6652 11.8672 12.6931 11.9009C12.7209 11.9345 12.7362 11.9768 12.7362 12.0205C12.7362 12.0641 12.7209 12.1064 12.6931 12.1401C12.6652 12.1737 12.6265 12.1966 12.5836 12.2047L1.66547 14.2236C1.40828 14.2724 1.17614 14.4093 1.00903 14.6108C0.841932 14.8123 0.750328 15.0657 0.75 15.3275V20.6389C0.749876 20.8218 0.795166 21.0019 0.881807 21.163C0.968448 21.3241 1.09373 21.4612 1.24641 21.5619C1.43006 21.6839 1.6456 21.7491 1.86609 21.7494C2.01938 21.7493 2.1711 21.7185 2.31234 21.6589L22.3313 13.4028L22.3402 13.3986C22.6096 13.2828 22.8392 13.0905 23.0006 12.8456C23.1619 12.6006 23.2479 12.3138 23.2479 12.0205C23.2479 11.7272 23.1619 11.4403 23.0006 11.1954C22.8392 10.9504 22.6096 10.7582 22.3402 10.6424Z" fill="#21313F"/>
</svg>
