<?xml version="1.0" encoding="utf-8"?>
<!-- Svg Vector Icons : http://www.onlinewebfonts.com/icon -->
<!DOCTYPE svg PUBLIC "-//W3C//DTD SVG 1.1//EN" "http://www.w3.org/Graphics/SVG/1.1/DTD/svg11.dtd">
<svg version="1.1" xmlns="http://www.w3.org/2000/svg" xmlns:xlink="http://www.w3.org/1999/xlink" x="0px" y="0px" width="22" height="22" viewBox="0 0 1000 1000" enable-background="new 0 0 1000 1000" xml:space="preserve">
<metadata> Svg Vector Icons : http://www.onlinewebfonts.com/icon </metadata>
<g><path fill="#FF0000" d="M500,10C229.4,10,10,229.4,10,500c0,270.6,219.4,490,490,490c270.6,0,490-219.4,490-490C990,229.4,770.6,10,500,10z M500,950.8C251,950.8,49.2,749,49.2,500C49.2,251,251,49.2,500,49.2S950.8,251,950.8,500C950.8,749,749,950.8,500,950.8z"/><path fill="#FF0000" d="M500,656.8c21.7,0,39.2,17.6,39.2,39.2c0,21.7-17.5,39.2-39.2,39.2c-21.6,0-39.2-17.5-39.2-39.2C460.8,674.4,478.4,656.8,500,656.8z"/><path fill="#FF0000" d="M480.4,578.4c0,0-42.9-223-39.2-274.4c0,0,1.2-46.5,58.8-39.2c0,0,52.7-8.6,58.8,39.2c0,0-30.6,256-39.2,274.4C519.6,578.4,502.4,599.2,480.4,578.4z"/></g>
</svg>