<svg width="14" height="14" viewBox="0 0 14 14" fill="none" xmlns="http://www.w3.org/2000/svg">
<path d="M13.2558 4.48009L9.29712 4.13657L7.75128 0.496879C7.47319 -0.165626 6.52442 -0.165626 6.24633 0.496879L4.70048 4.14475L0.749987 4.48009C0.0302278 4.53734 -0.264219 5.43704 0.283779 5.91143L3.2855 8.51238L2.3858 12.3729C2.22222 13.0763 2.98287 13.6325 3.60449 13.2562L6.9988 11.2115L10.3931 13.2644C11.0147 13.6407 11.7754 13.0845 11.6118 12.3811L10.7121 8.51238L13.7138 5.91143C14.2618 5.43704 13.9756 4.53734 13.2558 4.48009ZM6.9988 9.68198V2.07544L8.39742 5.37979L11.9799 5.69059L9.26441 8.04617L10.0823 11.5468L6.9988 9.68198Z" fill="#F2C94C"/>
</svg>
