<svg width="20" height="20" viewBox="0 0 20 20" fill="none" xmlns="http://www.w3.org/2000/svg">
<g clip-path="url(#clip0)">
<path d="M19.375 5H0.625C0.28 5 0 4.72 0 4.375C0 4.03 0.28 3.75 0.625 3.75H19.375C19.72 3.75 20 4.03 20 4.375C20 4.72 19.72 5 19.375 5Z" fill="#21313F"/>
<path d="M17.1334 11.6666C15.5526 11.6666 14.2667 10.3808 14.2667 8.79999V4.375C14.2667 4.03 14.5467 3.75 14.8917 3.75H19.3759C19.7201 3.75 20.0001 4.03 20.0001 4.375V8.79999C20.0001 10.3808 18.7142 11.6666 17.1334 11.6666ZM15.5159 5V8.79999C15.5159 9.69165 16.2409 10.4167 17.1326 10.4167C18.0242 10.4167 18.7492 9.69082 18.7492 8.79999V5H15.5159Z" fill="#21313F"/>
<path d="M12.4458 11.6666C10.7533 11.6666 9.375 10.2892 9.375 8.59582V4.375C9.375 4.03 9.655 3.75 10 3.75H14.8908C15.2358 3.75 15.5158 4.03 15.5158 4.375V8.59582C15.5158 10.2892 14.1383 11.6666 12.4458 11.6666ZM10.625 5V8.59582C10.625 9.59999 11.4417 10.4167 12.4458 10.4167C13.45 10.4167 14.2667 9.59999 14.2667 8.59582V5H10.625Z" fill="#21313F"/>
<path d="M7.55422 11.6666C5.86173 11.6666 4.4834 10.2892 4.4834 8.59582V4.375C4.4834 4.03 4.7634 3.75 5.1084 3.75H10C10.345 3.75 10.625 4.03 10.625 4.375V8.59582C10.625 10.2892 9.24755 11.6666 7.55422 11.6666ZM5.73423 5V8.59582C5.73423 9.59999 6.55089 10.4167 7.55506 10.4167C8.55922 10.4167 9.37588 9.59999 9.37588 8.59582V5H5.73423Z" fill="#21313F"/>
<path d="M2.86667 11.6666C1.28583 11.6666 0 10.3808 0 8.79999V4.375C0 4.03 0.28 3.75 0.625 3.75H5.10917C5.45417 3.75 5.73417 4.03 5.73417 4.375V8.79999C5.73417 10.3808 4.44833 11.6666 2.86667 11.6666ZM1.25 5V8.79999C1.25 9.69165 1.975 10.4167 2.86667 10.4167C3.75833 10.4167 4.48333 9.69082 4.48333 8.79999V5H1.25Z" fill="#21313F"/>
<path d="M17.7083 19.1666H2.29167C1.0275 19.1666 0 18.1392 0 16.875V13.125C0 12.78 0.28 12.5 0.625 12.5C0.97 12.5 1.25 12.78 1.25 13.125V16.875C1.25 17.4492 1.7175 17.9167 2.29167 17.9167H17.7083C18.2825 17.9167 18.75 17.4492 18.75 16.875V13.125C18.75 12.78 19.03 12.5 19.375 12.5C19.72 12.5 20 12.7792 20 13.125V16.875C20 18.1392 18.9725 19.1666 17.7083 19.1666Z" fill="#21313F"/>
<path d="M0.625 6.04134C0.28 6.04134 0 5.76218 0 5.41634V3.12467C0 1.86051 1.0275 0.833008 2.29167 0.833008H17.7083C18.9725 0.833008 20 1.86051 20 3.12467V4.51384C20 4.85884 19.72 5.13884 19.375 5.13884C19.03 5.13884 18.75 4.85884 18.75 4.51384V3.12467C18.75 2.55051 18.2825 2.08301 17.7083 2.08301H2.29167C1.7175 2.08301 1.25 2.55051 1.25 3.12467V5.41634C1.25 5.76218 0.97 6.04134 0.625 6.04134Z" fill="#21313F"/>
</g>
<defs>
<clipPath id="clip0">
<rect width="20" height="20" fill="white"/>
</clipPath>
</defs>
</svg>
