<svg width="20" height="20" viewBox="0 0 20 20" fill="none" xmlns="http://www.w3.org/2000/svg">
<path fill-rule="evenodd" clip-rule="evenodd" d="M2.74406 3.57774C2.90034 3.42146 3.1123 3.33366 3.33331 3.33366H16.6666C16.8877 3.33366 17.0996 3.42146 17.2559 3.57774C17.4122 3.73402 17.5 3.94598 17.5 4.16699V9.16699C17.5 11.1561 16.7098 13.0638 15.3033 14.4703C13.8968 15.8768 11.9891 16.667 9.99998 16.667C9.01506 16.667 8.03979 16.473 7.12985 16.0961C6.21991 15.7192 5.39312 15.1667 4.69668 14.4703C3.29016 13.0638 2.49998 11.1561 2.49998 9.16699V4.16699C2.49998 3.94598 2.58778 3.73402 2.74406 3.57774ZM16.6666 1.66699H3.33331C2.67027 1.66699 2.03439 1.93038 1.56555 2.39923C1.0967 2.86807 0.833313 3.50395 0.833313 4.16699V9.16699C0.833313 11.5981 1.79908 13.9297 3.51817 15.6488C4.36937 16.5 5.3799 17.1752 6.49205 17.6359C7.6042 18.0966 8.7962 18.3337 9.99998 18.3337C12.4311 18.3337 14.7627 17.3679 16.4818 15.6488C18.2009 13.9297 19.1666 11.5981 19.1666 9.16699V4.16699C19.1666 3.50395 18.9033 2.86807 18.4344 2.39923C17.9656 1.93038 17.3297 1.66699 16.6666 1.66699ZM7.25589 7.7444C6.93046 7.41897 6.40282 7.41897 6.07738 7.7444C5.75195 8.06984 5.75195 8.59748 6.07738 8.92292L9.41072 12.2562C9.73615 12.5817 10.2638 12.5817 10.5892 12.2562L13.9226 8.92292C14.248 8.59748 14.248 8.06984 13.9226 7.7444C13.5971 7.41897 13.0695 7.41897 12.744 7.7444L9.99997 10.4885L7.25589 7.7444Z" fill="#21313F"/>
</svg>
