<svg width="36" height="36" viewBox="0 0 36 36" fill="none" xmlns="http://www.w3.org/2000/svg">
<g clip-path="url(#clip0)">
<path d="M34.3636 22.9095H1.63638C0.736383 22.9095 0 22.1731 0 21.2731V3.2731C0 2.3731 0.736383 1.63672 1.63638 1.63672H34.3637C35.2637 1.63672 36.0001 2.3731 36.0001 3.2731V21.2731C36 22.1731 35.2636 22.9095 34.3636 22.9095Z" fill="#0E9347"/>
<path d="M30.2727 16.3633C28.3908 16.3633 26.6727 17.2633 25.6908 18.736C24.8727 18.327 23.9727 17.9997 22.9091 17.9997C20.0455 17.9997 17.6727 20.127 17.2636 22.9087H34.3636C35.1818 22.9087 35.8363 22.336 36 21.5178C35.6727 18.6542 33.2182 16.3633 30.2727 16.3633Z" fill="#0D8944"/>
<path d="M31.0909 21.2724H4.90905C4.90905 19.4724 3.43635 17.9997 1.63635 17.9997V6.54516C3.43635 6.54516 4.90905 5.07246 4.90905 3.27246H31.0909C31.0909 5.07246 32.5636 6.54516 34.3636 6.54516V17.9997C32.5636 17.9997 31.0909 19.4724 31.0909 21.2724Z" fill="#3BB54A"/>
<path d="M30.2727 16.3633C28.3908 16.3633 26.6727 17.2633 25.6908 18.736C24.8727 18.327 23.9727 17.9997 22.9091 17.9997C20.6181 17.9997 18.6545 19.3087 17.7545 21.2724H31.0909C31.0909 19.4724 32.4818 18.0814 34.2818 17.9997C33.2181 17.0178 31.8273 16.3633 30.2727 16.3633Z" fill="#0E9347"/>
<path d="M18 19.6364C21.6149 19.6364 24.5454 16.3396 24.5454 12.2728C24.5454 8.20598 21.6149 4.90918 18 4.90918C14.385 4.90918 11.4545 8.20598 11.4545 12.2728C11.4545 16.3396 14.385 19.6364 18 19.6364Z" fill="#0E9347"/>
<path d="M8.18185 13.9095C9.0856 13.9095 9.81824 13.1769 9.81824 12.2731C9.81824 11.3694 9.0856 10.6367 8.18185 10.6367C7.2781 10.6367 6.54547 11.3694 6.54547 12.2731C6.54547 13.1769 7.2781 13.9095 8.18185 13.9095Z" fill="#0E9347"/>
<path d="M27.8181 13.9095C28.7219 13.9095 29.4545 13.1769 29.4545 12.2731C29.4545 11.3694 28.7219 10.6367 27.8181 10.6367C26.9144 10.6367 26.1818 11.3694 26.1818 12.2731C26.1818 13.1769 26.9144 13.9095 27.8181 13.9095Z" fill="#0E9347"/>
<path d="M18.8181 11.455H17.1818C16.6908 11.455 16.3636 11.1277 16.3636 10.6369C16.3636 10.146 16.6909 9.81873 17.1818 9.81873H19.6363C20.1272 9.81873 20.4544 9.49142 20.4544 9.00057C20.4544 8.50965 20.1271 8.18241 19.6363 8.18241H18.8181C18.8181 7.69149 18.4908 7.36426 18 7.36426C17.5091 7.36426 17.1818 7.69156 17.1818 8.18241C15.7909 8.18241 14.7273 9.24603 14.7273 10.637C14.7273 12.0279 15.7909 13.0915 17.1818 13.0915H18.8182C19.3091 13.0915 19.6364 13.4188 19.6364 13.9096C19.6364 14.4006 19.3091 14.7278 18.8182 14.7278H16.3637C15.8728 14.7278 15.5455 15.0551 15.5455 15.546C15.5455 16.0369 15.8728 16.3641 16.3637 16.3641H17.1818C17.1818 16.855 17.5091 17.1823 18 17.1823C18.4909 17.1823 18.8181 16.855 18.8181 16.3641C20.2091 16.3641 21.2727 15.3005 21.2727 13.9096C21.2727 12.5187 20.2091 11.455 18.8181 11.455Z" fill="#89C763"/>
<path d="M21.2727 29.4546C24.4358 29.4546 27 26.8904 27 23.7273C27 20.5642 24.4358 18 21.2727 18C18.1096 18 15.5454 20.5642 15.5454 23.7273C15.5454 26.8904 18.1096 29.4546 21.2727 29.4546Z" fill="#FFCA5D"/>
<path d="M28.6364 27.8179C31.7995 27.8179 34.3637 25.2537 34.3637 22.0906C34.3637 18.9275 31.7995 16.3633 28.6364 16.3633C25.4733 16.3633 22.9091 18.9275 22.9091 22.0906C22.9091 25.2537 25.4733 27.8179 28.6364 27.8179Z" fill="#F6B545"/>
<path d="M28.6364 16.3633C25.4455 16.3633 22.9091 18.8997 22.9091 22.0906C22.9091 25.2815 25.4455 27.8179 28.6364 27.8179C31.8273 27.8179 34.3637 25.2815 34.3637 22.0906C34.3637 18.8997 31.8273 16.3633 28.6364 16.3633ZM28.6364 26.1815C26.3455 26.1815 24.5455 24.3815 24.5455 22.0906C24.5455 19.7997 26.3455 17.9997 28.6364 17.9997C30.9273 17.9997 32.7273 19.7997 32.7273 22.0906C32.7273 24.3815 30.9273 26.1815 28.6364 26.1815Z" fill="#FFCB5B"/>
<path d="M28.6364 27.7363C31.8273 27.8181 34.3637 25.1999 34.3637 22.0908H34.2818C33.8727 22.0908 33.5454 22.4181 33.4637 22.8272C33.3 23.9727 32.7273 25.0363 31.9091 25.7727C31.2546 26.4272 30.3546 26.8363 29.3727 26.9999C28.9636 26.9999 28.6364 27.3272 28.6364 27.7363Z" fill="#F6B545"/>
<path d="M28.6364 16.4452C25.4455 16.3634 22.9091 18.9816 22.9091 22.0907H22.991C23.4 22.0907 23.7273 21.7634 23.8091 21.3543C23.9727 20.2088 24.5455 19.1452 25.3637 18.4088C26.0182 17.7543 26.9182 17.3452 27.9 17.1815C28.3091 17.1816 28.6364 16.8543 28.6364 16.4452Z" fill="#FFE27A"/>
<path d="M25.1182 22.6636C25.1182 20.3727 26.9182 18.5727 29.2091 18.5727C30.1909 18.5727 31.0909 18.9 31.8272 19.5545C31.0091 18.5727 29.9455 18 28.6364 18C26.3455 18 24.5455 19.8 24.5455 22.0909C24.5455 23.4 25.1182 24.4636 26.0182 25.2C25.4455 24.5455 25.1182 23.6455 25.1182 22.6636Z" fill="#F19920"/>
<path d="M31.0909 24.6271C31.009 24.6271 30.9273 24.6271 30.8454 24.5453C30.6818 24.3816 30.6818 24.1362 30.8454 23.9726C31.3364 23.4816 31.5818 22.7453 31.5818 22.0907C31.5818 21.8453 31.7454 21.6816 31.9909 21.6816C32.2364 21.6816 32.4 21.8453 32.4 22.0907C32.4 22.9907 32.0727 23.8907 31.5 24.5453C31.3364 24.6271 31.1727 24.6271 31.0909 24.6271Z" fill="#FFCB5B"/>
<path d="M28.6363 24.5457C28.1454 24.5457 27.8182 24.2184 27.8182 23.7276V20.4549C27.8182 19.964 28.1455 19.6367 28.6363 19.6367C29.1272 19.6367 29.4545 19.964 29.4545 20.4549V23.7276C29.4545 24.2184 29.1273 24.5457 28.6363 24.5457Z" fill="#F19920"/>
<path d="M31.6636 26.9182C31.0909 24.8727 29.6181 23.2363 27.7363 22.5C27.409 20.6182 26.1818 18.9818 24.6272 18C23.6454 19.0636 22.9908 20.4545 22.9908 22.0091C22.9908 25.2 25.5272 27.7364 28.7181 27.7364C29.7818 27.8182 30.7636 27.4909 31.6636 26.9182Z" fill="#F19920"/>
<path d="M26.0182 25.1998C25.4455 24.4634 25.0363 23.5634 25.0363 22.5816C25.0363 21.4362 25.5273 20.3726 26.3454 19.6362C26.1818 19.3907 26.0181 19.2271 25.8545 19.0635C25.0363 19.7999 24.5454 20.8635 24.5454 22.0908C24.5455 23.3998 25.1182 24.4634 26.0182 25.1998Z" fill="#E78825"/>
<path d="M27.8182 22.582V23.7275C27.8182 24.2184 28.1455 24.5456 28.6363 24.5456C29.1272 24.5456 29.4545 24.2183 29.4545 23.7275V23.5639C28.9636 23.1547 28.3909 22.8275 27.8182 22.582Z" fill="#E78825"/>
<path d="M31.6637 26.9185C31.5 26.3458 31.3364 25.8549 31.0091 25.3639C30.3546 25.8549 29.5364 26.1821 28.6364 26.1821C26.3455 26.1821 24.5455 24.3821 24.5455 22.0912C24.5455 20.8639 25.0364 19.8003 25.8546 19.0639C25.4455 18.6548 25.0364 18.3275 24.5455 18.082C23.5637 19.1456 22.9091 20.5366 22.9091 22.0911C22.9091 25.282 25.4455 27.8184 28.6364 27.8184C29.7819 27.8185 30.7637 27.4913 31.6637 26.9185Z" fill="#F6B545"/>
<path d="M31.4182 26.1816C30.8455 26.5907 30.1091 26.8362 29.3727 26.9998C28.9637 27.0816 28.6364 27.4089 28.6364 27.818C29.7818 27.818 30.7637 27.4907 31.6637 26.918C31.5819 26.6725 31.5 26.4271 31.4182 26.1816Z" fill="#F19920"/>
<path d="M24.5455 18.082C23.5637 19.1456 22.9091 20.5366 22.9091 22.0911H22.991C23.4 22.0911 23.7273 21.7638 23.8091 21.3547C23.9727 20.2093 24.5455 19.2274 25.2818 18.4911C25.0364 18.4093 24.791 18.2456 24.5455 18.082Z" fill="#FFCB5B"/>
<path d="M21.2727 29.4546C24.4358 29.4546 27 26.8904 27 23.7273C27 20.5642 24.4358 18 21.2727 18C18.1096 18 15.5454 20.5642 15.5454 23.7273C15.5454 26.8904 18.1096 29.4546 21.2727 29.4546Z" fill="#F6B545"/>
<path d="M20.4545 27.8181C20.4545 28.3908 20.5364 28.8817 20.7 29.4545C20.8636 29.4545 21.1091 29.4545 21.2727 29.4545C24.4636 29.4545 27 26.9181 27 23.7272C27 23.1545 26.9181 22.6636 26.7545 22.0908C26.5909 22.0908 26.3455 22.0908 26.1818 22.0908C22.9909 22.0909 20.4545 24.6273 20.4545 27.8181Z" fill="#F19920"/>
<path d="M21.2727 18C18.0818 18 15.5454 20.5364 15.5454 23.7273C15.5454 26.9182 18.0818 29.4546 21.2727 29.4546C24.4636 29.4546 27 26.9182 27 23.7273C27 20.5365 24.4636 18 21.2727 18ZM21.2727 27.8182C18.9818 27.8182 17.1818 26.0182 17.1818 23.7272C17.1818 21.4363 18.9818 19.6363 21.2727 19.6363C23.5636 19.6363 25.3636 21.4363 25.3636 23.7272C25.3636 26.0182 23.5636 27.8182 21.2727 27.8182Z" fill="#FFCB5B"/>
<path d="M21.2726 29.3729C24.4636 29.4548 27 26.8366 27 23.7275H26.9181C26.509 23.7275 26.1817 24.0548 26.1 24.4639C25.9363 25.6094 25.3636 26.673 24.5454 27.4094C23.8909 28.0639 22.9909 28.473 22.009 28.6367C21.5999 28.6366 21.2726 28.9639 21.2726 29.3729Z" fill="#F6B545"/>
<path d="M21.2727 18.0819C18.0818 18.0001 15.5454 20.6183 15.5454 23.7274H15.6273C16.0363 23.7274 16.3636 23.4001 16.4454 22.991C16.609 21.8456 17.1818 20.7819 17.9999 20.0456C18.6545 19.391 19.5545 18.9819 20.5363 18.8183C20.9455 18.8183 21.2727 18.491 21.2727 18.0819Z" fill="#FFE27A"/>
<path d="M17.7545 24.3003C17.7545 22.0094 19.5545 20.2094 21.8454 20.2094C22.8273 20.2094 23.7273 20.5367 24.4636 21.1913C23.6454 20.2094 22.5818 19.6367 21.2727 19.6367C18.9818 19.6367 17.1818 21.4367 17.1818 23.7276C17.1818 25.0367 17.7545 26.1003 18.6545 26.8367C18.0818 26.1822 17.7545 25.2822 17.7545 24.3003Z" fill="#F19920"/>
<path d="M23.7273 26.2638C23.6455 26.2638 23.5637 26.2638 23.4818 26.182C23.3182 26.0184 23.3182 25.7729 23.4818 25.6093C23.9728 25.1184 24.2182 24.382 24.2182 23.7274C24.2182 23.482 24.3818 23.3184 24.6273 23.3184C24.8728 23.3184 25.0364 23.482 25.0364 23.7274C25.0364 24.6274 24.7091 25.5274 24.1364 26.182C23.9727 26.2638 23.8091 26.2638 23.7273 26.2638Z" fill="#FFCB5B"/>
<path d="M21.2727 26.1815C20.7818 26.1815 20.4545 25.8542 20.4545 25.3633V22.0906C20.4545 21.5997 20.7818 21.2725 21.2727 21.2725C21.7636 21.2725 22.0908 21.5998 22.0908 22.0906V25.3633C22.0909 25.8542 21.7636 26.1815 21.2727 26.1815Z" fill="#F19920"/>
<path d="M25.0364 22.1727C25.2 22.6636 25.3637 23.1545 25.3637 23.7272C25.3637 26.0181 23.5637 27.8181 21.2727 27.8181C21.0273 27.8181 20.7001 27.8181 20.4546 27.7363V27.8181C20.4546 28.3908 20.5364 28.8817 20.7001 29.4545C20.8637 29.4545 21.1091 29.4545 21.2727 29.4545C24.4637 29.4545 27 26.9181 27 23.7272C27 23.1545 26.9182 22.6636 26.7546 22.0908C26.591 22.0908 26.3455 22.0908 26.1819 22.0908C25.7727 22.0909 25.4454 22.0909 25.0364 22.1727Z" fill="#F6B545"/>
<path d="M25.3636 34.3638C28.5267 34.3638 31.0909 31.7996 31.0909 28.6365C31.0909 25.4734 28.5267 22.9092 25.3636 22.9092C22.2005 22.9092 19.6363 25.4734 19.6363 28.6365C19.6363 31.7996 22.2005 34.3638 25.3636 34.3638Z" fill="#F6B545"/>
<path d="M25.3636 22.9092C22.1727 22.9092 19.6363 25.4456 19.6363 28.6365C19.6363 31.8274 22.1727 34.3638 25.3636 34.3638C28.5545 34.3638 31.0909 31.8274 31.0909 28.6365C31.0909 25.4456 28.5545 22.9092 25.3636 22.9092ZM25.3636 32.7274C23.0727 32.7274 21.2727 30.9274 21.2727 28.6365C21.2727 26.3456 23.0727 24.5456 25.3636 24.5456C27.6545 24.5456 29.4545 26.3456 29.4545 28.6365C29.4545 30.9274 27.6545 32.7274 25.3636 32.7274Z" fill="#FFCB5B"/>
<path d="M25.3636 34.2822C28.5546 34.364 31.091 31.7458 31.091 28.6367H31.0091C30.6 28.6367 30.2727 28.964 30.191 29.3731C30.0273 30.5186 29.4546 31.5822 28.6364 32.3186C27.9819 32.9731 27.0819 33.3822 26.1 33.5459C25.691 33.5458 25.3636 33.873 25.3636 34.2822Z" fill="#F6B545"/>
<path d="M25.3636 22.9911C22.1727 22.9093 19.6363 25.5275 19.6363 28.6366H19.7181C20.1272 28.6366 20.4545 28.3093 20.5363 27.9002C20.6999 26.7547 21.2727 25.6911 22.0908 24.9547C22.7454 24.3002 23.6454 23.8911 24.6272 23.7274C25.0364 23.7275 25.3636 23.4002 25.3636 22.9911Z" fill="#FFE27A"/>
<path d="M21.8454 29.2095C21.8454 26.9186 23.6454 25.1186 25.9363 25.1186C26.9182 25.1186 27.8182 25.4459 28.5545 26.1004C27.7363 25.1186 26.6726 24.5459 25.3636 24.5459C23.0726 24.5459 21.2726 26.3459 21.2726 28.6368C21.2726 29.9459 21.8453 31.0095 22.7453 31.7459C22.1726 31.0914 21.8454 30.1914 21.8454 29.2095Z" fill="#F19920"/>
<path d="M27.8181 31.173C27.7363 31.173 27.6545 31.173 27.5727 31.0912C27.409 30.9275 27.409 30.6821 27.5727 30.5185C28.0636 30.0275 28.3091 29.2912 28.3091 28.6366C28.3091 28.3912 28.4727 28.2275 28.7181 28.2275C28.9636 28.2275 29.1272 28.3912 29.1272 28.6366C29.1272 29.5366 28.7999 30.4366 28.2272 31.0912C28.0636 31.173 27.9 31.173 27.8181 31.173Z" fill="#FFCB5B"/>
<path d="M25.3636 31.0907C24.8727 31.0907 24.5455 30.7634 24.5455 30.2726V26.9998C24.5455 26.5089 24.8728 26.1816 25.3636 26.1816C25.8545 26.1816 26.1818 26.5089 26.1818 26.9998V30.2725C26.1819 30.7634 25.8545 31.0907 25.3636 31.0907Z" fill="#F19920"/>
</g>
<defs>
<clipPath id="clip0">
<rect width="36" height="36" fill="white"/>
</clipPath>
</defs>
</svg>
