<svg width="36" height="36" viewBox="0 0 36 36" fill="none" xmlns="http://www.w3.org/2000/svg">
<path d="M30.5454 24.5458H1.45456C0.654561 24.5458 0 23.8912 0 23.0912V7.09128C0 6.29128 0.654561 5.63672 1.45456 5.63672H30.5454C31.3454 5.63672 32 6.29128 32 7.09128V23.0912C31.9999 23.8912 31.3454 24.5458 30.5454 24.5458Z" fill="#0E9347"/>
<path d="M27.6364 23.0917H4.36365C4.36365 21.4917 3.05459 20.1826 1.45459 20.1826V10.0009C3.05459 10.0009 4.36365 8.69179 4.36365 7.0918H27.6364C27.6364 8.69179 28.9454 10.0009 30.5454 10.0009V20.1826C28.9454 20.1826 27.6364 21.4917 27.6364 23.0917Z" fill="#3BB54A"/>
<path d="M16.0001 21.6377C19.2133 21.6377 21.8182 18.7072 21.8182 15.0923C21.8182 11.4774 19.2133 8.54688 16.0001 8.54688C12.7868 8.54688 10.1819 11.4774 10.1819 15.0923C10.1819 18.7072 12.7868 21.6377 16.0001 21.6377Z" fill="#0E9347"/>
<path d="M7.27268 16.5458C8.07601 16.5458 8.72724 15.8946 8.72724 15.0913C8.72724 14.2879 8.07601 13.6367 7.27268 13.6367C6.46934 13.6367 5.81812 14.2879 5.81812 15.0913C5.81812 15.8946 6.46934 16.5458 7.27268 16.5458Z" fill="#0E9347"/>
<path d="M24.727 16.5458C25.5304 16.5458 26.1816 15.8946 26.1816 15.0913C26.1816 14.2879 25.5304 13.6367 24.727 13.6367C23.9237 13.6367 23.2725 14.2879 23.2725 15.0913C23.2725 15.8946 23.9237 16.5458 24.727 16.5458Z" fill="#0E9347"/>
<path d="M16.7274 14.3648H15.2728C14.8364 14.3648 14.5456 14.0738 14.5456 13.6375C14.5456 13.2011 14.8365 12.9103 15.2728 12.9103H17.4546C17.891 12.9103 18.1819 12.6193 18.1819 12.183C18.1819 11.7466 17.8909 11.4558 17.4546 11.4558H16.7274C16.7274 11.0194 16.4364 10.7285 16.0001 10.7285C15.5637 10.7285 15.2729 11.0195 15.2729 11.4558C14.0365 11.4558 13.0911 12.4012 13.0911 13.6376C13.0911 14.8739 14.0365 15.8194 15.2729 15.8194H16.7274C17.1638 15.8194 17.4547 16.1103 17.4547 16.5466C17.4547 16.983 17.1637 17.2739 16.7274 17.2739H14.5456C14.1092 17.2739 13.8184 17.5648 13.8184 18.0011C13.8184 18.4375 14.1093 18.7284 14.5456 18.7284H15.2729C15.2729 19.1647 15.5638 19.4556 16.0001 19.4556C16.4365 19.4556 16.7274 19.1647 16.7274 18.7284C17.9637 18.7284 18.9092 17.7829 18.9092 16.5466C18.9092 15.3102 17.9637 14.3648 16.7274 14.3648Z" fill="#89C763"/>
<path d="M34.909 30.1818H13.0909C12.4909 30.1818 12 29.6909 12 29.0909V17.0909C12 16.4909 12.4909 16 13.0909 16H34.9091C35.5091 16 36 16.4909 36 17.0909V29.0909C36 29.6909 35.509 30.1818 34.909 30.1818Z" fill="#0E9347"/>
<path d="M32.7271 29.0917H15.2726C15.2726 27.8917 14.2908 26.9099 13.0908 26.9099V19.2736C14.2908 19.2736 15.2726 18.2918 15.2726 17.0918H32.7271C32.7271 18.2918 33.7089 19.2736 34.9089 19.2736V26.9099C33.7089 26.9099 32.7271 27.8917 32.7271 29.0917Z" fill="#3BB54A"/>
<path d="M23.9999 27.9998C26.4098 27.9998 28.3635 25.8019 28.3635 23.0907C28.3635 20.3795 26.4098 18.1816 23.9999 18.1816C21.5899 18.1816 19.6362 20.3795 19.6362 23.0907C19.6362 25.8019 21.5899 27.9998 23.9999 27.9998Z" fill="#0E9347"/>
<path d="M17.4544 24.1818C18.0569 24.1818 18.5454 23.6934 18.5454 23.0909C18.5454 22.4884 18.0569 22 17.4544 22C16.8519 22 16.3635 22.4884 16.3635 23.0909C16.3635 23.6934 16.8519 24.1818 17.4544 24.1818Z" fill="#0E9347"/>
<path d="M30.545 24.1818C31.1475 24.1818 31.6359 23.6934 31.6359 23.0909C31.6359 22.4884 31.1475 22 30.545 22C29.9425 22 29.4541 22.4884 29.4541 23.0909C29.4541 23.6934 29.9425 24.1818 30.545 24.1818Z" fill="#0E9347"/>
<path d="M24.5453 22.5455H23.4544C23.1271 22.5455 22.909 22.3273 22.909 22.0001C22.909 21.6728 23.1272 21.4547 23.4544 21.4547H25.0908C25.4181 21.4547 25.6362 21.2365 25.6362 20.9092C25.6362 20.582 25.418 20.3638 25.0908 20.3638H24.5453C24.5453 20.0365 24.3271 19.8184 23.9999 19.8184C23.6726 19.8184 23.4545 20.0366 23.4545 20.3638C22.5272 20.3638 21.8181 21.0729 21.8181 22.0002C21.8181 22.9274 22.5272 23.6365 23.4545 23.6365H24.5454C24.8727 23.6365 25.0908 23.8547 25.0908 24.1819C25.0908 24.5092 24.8726 24.7274 24.5454 24.7274H22.909C22.5818 24.7274 22.3636 24.9456 22.3636 25.2728C22.3636 25.6001 22.5818 25.8183 22.909 25.8183H23.4545C23.4545 26.1455 23.6727 26.3637 23.9999 26.3637C24.3272 26.3637 24.5453 26.1455 24.5453 25.8183C25.4726 25.8183 26.1817 25.1092 26.1817 24.1819C26.1817 23.2546 25.4726 22.5455 24.5453 22.5455Z" fill="#89C763"/>
</svg>
