<svg width="36" height="36" viewBox="0 0 36 36" fill="none" xmlns="http://www.w3.org/2000/svg">
<path d="M26.758 24.0777C21.6538 24.0777 17.516 19.9399 17.516 14.8357C17.516 9.73153 21.6538 5.59375 26.758 5.59375C31.8622 5.59375 36 9.73153 36 14.8357C36 19.9399 31.8622 24.0777 26.758 24.0777Z" fill="#FFCA5D"/>
<path d="M14.875 21.4371C9.77075 21.4371 5.63297 17.2993 5.63297 12.1951C5.63297 7.09091 9.77075 2.95312 14.875 2.95312C19.9792 2.95312 24.1169 7.09091 24.1169 12.1951C24.1169 17.2993 19.9792 21.4371 14.875 21.4371Z" fill="#F6B545"/>
<path d="M14.875 2.95312C20.0241 2.95312 24.1169 7.04602 24.1169 12.1951C24.1169 17.3442 20.0241 21.4371 14.875 21.4371C9.72586 21.4371 5.63297 17.3442 5.63297 12.1951C5.63297 7.04602 9.72586 2.95312 14.875 2.95312ZM14.875 18.7965C18.5718 18.7965 21.4764 15.8919 21.4764 12.1951C21.4764 8.49832 18.5718 5.59371 14.875 5.59371C11.1782 5.59371 8.27356 8.49832 8.27356 12.1951C8.27356 15.8919 11.1782 18.7965 14.875 18.7965Z" fill="#FFCB5B"/>
<path d="M14.8757 21.3052C9.72663 21.4373 5.63375 17.2123 5.63375 12.1953H5.76582C6.42593 12.1953 6.95409 12.7235 7.08605 13.3836C7.35007 15.232 8.27433 16.9483 9.59457 18.1366C10.6508 19.1928 12.1031 19.8529 13.6875 20.1169C14.3477 20.1169 14.8757 20.6451 14.8757 21.3052Z" fill="#F6B545"/>
<path d="M14.875 3.08505C20.0241 2.95298 24.1169 7.17794 24.1169 12.195H23.9849C23.3248 12.195 22.7966 11.6668 22.6646 11.0067C22.4006 9.15829 21.4764 7.44196 20.1561 6.25368C19.0999 5.19747 17.6476 4.53735 16.0632 4.27321C15.4031 4.27333 14.875 3.74516 14.875 3.08505Z" fill="#FFE27A"/>
<path d="M20.5529 13.1193C20.5529 9.4225 17.6483 6.51789 13.9515 6.51789C12.3671 6.51789 10.9148 7.04605 9.72667 8.10226C11.0469 6.51789 12.7632 5.59375 14.8756 5.59375C18.5724 5.59375 21.4771 8.49836 21.4771 12.1952C21.4771 14.3076 20.5529 16.0239 19.1006 17.2122C20.0247 16.156 20.5529 14.7037 20.5529 13.1193Z" fill="#F19920"/>
<path d="M10.9147 16.2882C11.0467 16.2882 11.1787 16.2882 11.3108 16.1561C11.5748 15.8921 11.5748 15.496 11.3108 15.232C10.5186 14.4398 10.1225 13.2515 10.1225 12.1953C10.1225 11.7992 9.85847 11.5352 9.46237 11.5352C9.06628 11.5352 8.80226 11.7992 8.80226 12.1953C8.80226 13.6476 9.33042 15.0999 10.2546 16.1561C10.5186 16.2882 10.7827 16.2882 10.9147 16.2882Z" fill="#FFCB5B"/>
<path d="M14.8768 16.1539C15.669 16.1539 16.197 15.6258 16.197 14.8337V9.55266C16.197 8.76047 15.6689 8.23242 14.8768 8.23242C14.0847 8.23242 13.5566 8.76059 13.5566 9.55266V14.8337C13.5566 15.6258 14.0846 16.1539 14.8768 16.1539Z" fill="#F19920"/>
<path d="M9.99061 19.9847C10.9148 16.684 13.2913 14.0434 16.328 12.8553C16.8561 9.81859 18.8365 7.17812 21.345 5.59375C22.9294 7.31008 23.9856 9.55457 23.9856 12.0631C23.9856 17.2122 19.8927 21.3051 14.7436 21.3051C13.0272 21.437 11.4429 20.909 9.99061 19.9847Z" fill="#F19920"/>
<path d="M19.1005 17.2125C20.0246 16.0243 20.6849 14.5719 20.6849 12.9877C20.6849 11.1393 19.8927 9.42297 18.5724 8.23469C18.8365 7.8386 19.1006 7.57457 19.3646 7.31055C20.6849 8.49883 21.4771 10.2152 21.4771 12.1956C21.4769 14.3079 20.5528 16.0243 19.1005 17.2125Z" fill="#E78825"/>
<path d="M16.1956 12.9883V14.8367C16.1956 15.6289 15.6674 16.1569 14.8753 16.1569C14.0833 16.1569 13.5551 15.6287 13.5551 14.8367V14.5727C14.3472 13.9124 15.2713 13.3844 16.1956 12.9883Z" fill="#E78825"/>
<path d="M9.98999 19.9857C10.254 19.0616 10.5182 18.2694 11.0462 17.4772C12.1024 18.2694 13.4226 18.7974 14.875 18.7974C18.5717 18.7974 21.4764 15.8928 21.4764 12.196C21.4764 10.2155 20.6842 8.49922 19.3639 7.31094C20.0241 6.65082 20.6842 6.12266 21.4764 5.72656C23.0607 7.44289 24.1169 9.68738 24.1169 12.1959C24.1169 17.345 20.0241 21.4379 14.875 21.4379C13.0266 21.438 11.4423 20.9099 9.98999 19.9857Z" fill="#F6B545"/>
<path d="M10.3868 18.7969C11.3109 19.457 12.4992 19.8531 13.6875 20.1171C14.3476 20.2492 14.8757 20.7772 14.8757 21.4374C13.0273 21.4374 11.443 20.9092 9.99066 19.985C10.1226 19.5889 10.2547 19.193 10.3868 18.7969Z" fill="#F19920"/>
<path d="M21.4764 5.72656C23.0607 7.44289 24.1169 9.68738 24.1169 12.1959H23.9849C23.3248 12.1959 22.7966 11.6677 22.6646 11.0076C22.4006 9.15922 21.4764 7.57485 20.2882 6.38668C20.6842 6.25461 21.0803 5.99059 21.4764 5.72656Z" fill="#FFCB5B"/>
<path d="M26.758 24.0777C21.6538 24.0777 17.516 19.9399 17.516 14.8357C17.516 9.73153 21.6538 5.59375 26.758 5.59375C31.8622 5.59375 36 9.73153 36 14.8357C36 19.9399 31.8622 24.0777 26.758 24.0777Z" fill="#F6B545"/>
<path d="M28.0784 21.4373C28.0784 22.3614 27.9463 23.1536 27.6823 24.0779C27.4183 24.0779 27.0222 24.0779 26.7581 24.0779C21.609 24.0779 17.5161 19.985 17.5161 14.8359C17.5161 13.9118 17.6482 13.1196 17.9122 12.1953C18.1763 12.1953 18.5724 12.1953 18.8364 12.1953C23.9855 12.1954 28.0784 16.2883 28.0784 21.4373Z" fill="#F19920"/>
<path d="M26.758 5.59375C31.9071 5.59375 36 9.68664 36 14.8357C36 19.9848 31.9071 24.0777 26.758 24.0777C21.6089 24.0777 17.516 19.9847 17.516 14.8357C17.516 9.68675 21.6089 5.59375 26.758 5.59375ZM26.758 21.437C30.4548 21.437 33.3594 18.5324 33.3594 14.8356C33.3594 11.1388 30.4548 8.23422 26.758 8.23422C23.0612 8.23422 20.1566 11.1388 20.1566 14.8356C20.1566 18.5324 23.0612 21.437 26.758 21.437Z" fill="#FFCB5B"/>
<path d="M26.7585 23.9438C21.6094 24.0759 17.5166 19.851 17.5166 14.834H17.6486C18.3087 14.834 18.8369 15.3621 18.9689 16.0223C19.2329 17.8707 20.1571 19.587 21.4774 20.7753C22.5336 21.8315 23.9859 22.4916 25.5703 22.7557C26.2304 22.7556 26.7585 23.2837 26.7585 23.9438Z" fill="#F6B545"/>
<path d="M26.758 5.72567C31.9071 5.5936 36 9.81855 36 14.8356H35.8679C35.2078 14.8356 34.6797 14.3074 34.5477 13.6473C34.2837 11.7989 33.3594 10.0826 32.0392 8.8943C30.983 7.83809 29.5307 7.17797 27.9463 6.91383C27.2861 6.91383 26.758 6.38579 26.758 5.72567Z" fill="#FFE27A"/>
<path d="M32.4354 15.7599C32.4354 12.0631 29.5308 9.15852 25.834 9.15852C24.2496 9.15852 22.7973 9.68668 21.6091 10.7429C22.9294 9.15851 24.6458 8.23438 26.7582 8.23438C30.455 8.23438 33.3596 11.139 33.3596 14.8358C33.3596 16.9482 32.4355 18.6645 30.9832 19.8528C31.9072 18.7966 32.4354 17.3443 32.4354 15.7599Z" fill="#F19920"/>
<path d="M22.7968 18.9268C22.9288 18.9268 23.0608 18.9268 23.1929 18.7948C23.4569 18.5307 23.4569 18.1346 23.1929 17.8706C22.4007 17.0784 22.0046 15.8902 22.0046 14.8339C22.0046 14.4379 21.7405 14.1738 21.3444 14.1738C20.9484 14.1738 20.6843 14.4379 20.6843 14.8339C20.6843 16.2862 21.2125 17.7385 22.1366 18.7948C22.4008 18.9268 22.6648 18.9268 22.7968 18.9268Z" fill="#FFCB5B"/>
<path d="M26.7581 18.7965C27.5503 18.7965 28.0784 18.2684 28.0784 17.4763V12.1952C28.0784 11.4031 27.5502 10.875 26.7581 10.875C25.9659 10.875 25.4379 11.4032 25.4379 12.1952V17.4763C25.4378 18.2684 25.9659 18.7965 26.7581 18.7965Z" fill="#F19920"/>
<path d="M20.6849 12.3254C20.4209 13.1176 20.1567 13.9098 20.1567 14.8339C20.1567 18.5307 23.0613 21.4353 26.7581 21.4353C27.1542 21.4353 27.6823 21.4353 28.0784 21.3033V21.4353C28.0784 22.3595 27.9463 23.1517 27.6823 24.0759C27.4183 24.0759 27.0222 24.0759 26.7581 24.0759C21.609 24.0759 17.5162 19.983 17.5162 14.8339C17.5162 13.9098 17.6482 13.1176 17.9122 12.1934C18.1763 12.1934 18.5724 12.1934 18.8364 12.1934C19.4967 12.1935 20.0248 12.1935 20.6849 12.3254Z" fill="#F6B545"/>
<path d="M20.1567 31.9976C15.0525 31.9976 10.9147 27.8599 10.9147 22.7557C10.9147 17.6515 15.0525 13.5137 20.1567 13.5137C25.2609 13.5137 29.3987 17.6515 29.3987 22.7557C29.3987 27.8599 25.2609 31.9976 20.1567 31.9976Z" fill="#F6B545"/>
<path d="M20.1567 13.5156C25.3058 13.5156 29.3987 17.6085 29.3987 22.7576C29.3987 27.9067 25.3058 31.9996 20.1567 31.9996C15.0076 31.9996 10.9147 27.9067 10.9147 22.7576C10.9147 17.6085 15.0076 13.5156 20.1567 13.5156ZM20.1567 29.359C23.8535 29.359 26.7581 26.4544 26.7581 22.7576C26.7581 19.0608 23.8535 16.1562 20.1567 16.1562C16.4599 16.1562 13.5553 19.0608 13.5553 22.7576C13.5553 26.4544 16.4599 29.359 20.1567 29.359Z" fill="#FFCB5B"/>
<path d="M20.1562 31.8677C15.0071 31.9998 10.9143 27.7748 10.9143 22.7578H11.0463C11.7064 22.7578 12.2346 23.286 12.3666 23.9461C12.6306 25.7945 13.5548 27.5108 14.8751 28.6991C15.9313 29.7553 17.3836 30.4154 18.968 30.6796C19.6281 30.6794 20.1562 31.2075 20.1562 31.8677Z" fill="#F6B545"/>
<path d="M20.1567 13.6475C25.3058 13.5155 29.3987 17.7404 29.3987 22.7575H29.2666C28.6065 22.7575 28.0783 22.2293 27.9464 21.5692C27.6824 19.7208 26.7581 18.0045 25.4379 16.8162C24.3817 15.76 22.9293 15.0999 21.345 14.8357C20.6847 14.8358 20.1567 14.3077 20.1567 13.6475Z" fill="#FFE27A"/>
<path d="M25.8343 23.6818C25.8343 19.985 22.9297 17.0804 19.2329 17.0804C17.6485 17.0804 16.1962 17.6086 15.008 18.6648C16.3283 17.0804 18.0447 16.1562 20.1571 16.1562C23.8539 16.1562 26.7585 19.0609 26.7585 22.7577C26.7585 24.8701 25.8344 26.5864 24.3821 27.7747C25.3062 26.7185 25.8343 25.2662 25.8343 23.6818Z" fill="#F19920"/>
<path d="M16.1954 26.8487C16.3275 26.8487 16.4595 26.8487 16.5915 26.7166C16.8556 26.4526 16.8556 26.0565 16.5915 25.7925C15.7993 25.0003 15.4032 23.812 15.4032 22.7558C15.4032 22.3597 15.1392 22.0957 14.7431 22.0957C14.347 22.0957 14.083 22.3597 14.083 22.7558C14.083 24.2081 14.6112 25.6604 15.5353 26.7166C15.7993 26.8487 16.0634 26.8487 16.1954 26.8487Z" fill="#FFCB5B"/>
<path d="M20.1568 26.7185C20.949 26.7185 21.4771 26.1904 21.4771 25.3983V20.1171C21.4771 19.3249 20.9489 18.7969 20.1568 18.7969C19.3646 18.7969 18.8366 19.325 18.8366 20.1171V25.3982C18.8365 26.1904 19.3646 26.7185 20.1568 26.7185Z" fill="#F19920"/>
<rect y="26" width="8" height="1" rx="0.5" fill="#21313F"/>
<rect x="2" y="23" width="7" height="1" rx="0.5" fill="#21313F"/>
<rect y="20" width="6" height="1" rx="0.5" fill="#21313F"/>
</svg>
