<svg width="20" height="20" viewBox="0 0 20 20" fill="none" xmlns="http://www.w3.org/2000/svg">
<path fill-rule="evenodd" clip-rule="evenodd" d="M10.5116 1.00855C10.2107 0.774495 9.78933 0.774495 9.4884 1.00855L1.9884 6.84188C1.78541 6.99976 1.66669 7.24252 1.66669 7.49967V16.6663C1.66669 17.3294 1.93008 17.9653 2.39892 18.4341C2.86776 18.9029 3.50365 19.1663 4.16669 19.1663H7.49822C7.49882 19.1663 7.49942 19.1663 7.50002 19.1663C7.50062 19.1663 7.50122 19.1663 7.50182 19.1663H12.4982C12.4988 19.1663 12.4994 19.1663 12.5 19.1663C12.5006 19.1663 12.5012 19.1663 12.5018 19.1663H15.8334C16.4964 19.1663 17.1323 18.9029 17.6011 18.4341C18.07 17.9653 18.3334 17.3294 18.3334 16.6663V7.49967C18.3334 7.24252 18.2146 6.99976 18.0116 6.84188L10.5116 1.00855ZM13.3334 17.4997H15.8334C16.0544 17.4997 16.2663 17.4119 16.4226 17.2556C16.5789 17.0993 16.6667 16.8874 16.6667 16.6663V7.90724L10 2.72206L3.33335 7.90724V16.6663C3.33335 16.8874 3.42115 17.0993 3.57743 17.2556C3.73371 17.4119 3.94567 17.4997 4.16669 17.4997H6.66669V9.99968C6.66669 9.53944 7.03978 9.16634 7.50002 9.16634H12.5C12.9603 9.16634 13.3334 9.53944 13.3334 9.99968V17.4997ZM8.33335 17.4997H11.6667V10.833H8.33335V17.4997Z" fill="#21313F"/>
</svg>
