<svg width="20" height="20" viewBox="0 0 20 20" fill="none" xmlns="http://www.w3.org/2000/svg">
<path fill-rule="evenodd" clip-rule="evenodd" d="M2.74406 3.57774C2.90034 3.42146 3.1123 3.33366 3.33331 3.33366H16.6666C16.8877 3.33366 17.0996 3.42146 17.2559 3.57774C17.4122 3.73402 17.5 3.94598 17.5 4.16699V12.5003C17.5 12.7213 17.4122 12.9333 17.2559 13.0896C17.0996 13.2459 16.8877 13.3337 16.6666 13.3337H15.8333C15.3731 13.3337 15 13.7068 15 14.167C15 14.6272 15.3731 15.0003 15.8333 15.0003H16.6666C17.3297 15.0003 17.9656 14.7369 18.4344 14.2681C18.9033 13.7993 19.1666 13.1634 19.1666 12.5003V4.16699C19.1666 3.50395 18.9033 2.86807 18.4344 2.39923C17.9656 1.93038 17.3297 1.66699 16.6666 1.66699H3.33331C2.67027 1.66699 2.03439 1.93038 1.56555 2.39923C1.0967 2.86807 0.833313 3.50395 0.833313 4.16699V12.5003C0.833313 13.1634 1.09671 13.7993 1.56555 14.2681C2.03439 14.7369 2.67027 15.0003 3.33331 15.0003H4.16665C4.62688 15.0003 4.99998 14.6272 4.99998 14.167C4.99998 13.7068 4.62688 13.3337 4.16665 13.3337H3.33331C3.1123 13.3337 2.90034 13.2459 2.74406 13.0896C2.58778 12.9333 2.49998 12.7213 2.49998 12.5003V4.16699C2.49998 3.94598 2.58778 3.73402 2.74406 3.57774ZM8.70642 6.33428C9.01722 6.105 9.38398 5.9936 9.79676 5.9936C10.2092 5.9936 10.5742 6.10485 10.8811 6.33479C11.1889 6.56206 11.4153 6.87909 11.5648 7.2746C11.7134 7.66309 11.7851 8.10687 11.7851 8.60193C11.7851 9.09728 11.7134 9.54306 11.565 9.9356L11.5647 9.9364C11.4149 10.3278 11.1884 10.6422 10.8811 10.8691C10.5742 11.099 10.2092 11.2103 9.79676 11.2103C9.38398 11.2103 9.01722 11.0989 8.70642 10.8696L8.70509 10.8686C8.40235 10.6415 8.17843 10.3272 8.02886 9.9364L8.02856 9.9356C7.88016 9.54306 7.80843 9.09728 7.80843 8.60193C7.80843 8.10687 7.88007 7.66309 8.02868 7.27459C8.17804 6.87966 8.40183 6.56271 8.70509 6.33526L8.70642 6.33428ZM14.4189 6.03369C14.2867 6.02264 14.1608 6.05437 14.0505 6.13026C13.9422 6.20466 13.8648 6.30765 13.8156 6.42974L12.152 10.4251L12.1489 10.4354C12.1307 10.4962 12.1201 10.5587 12.1201 10.6219C12.1201 10.7671 12.1604 10.9071 12.2625 11.017L12.2678 11.0226C12.3802 11.135 12.529 11.1769 12.6818 11.1769C12.8013 11.1769 12.9125 11.1408 13.0096 11.0715L13.0117 11.0699C13.1128 10.9958 13.1845 10.8962 13.2287 10.7792L13.5195 10.0969H15.2313L15.5231 10.7761C15.5702 10.8876 15.6392 10.9853 15.7331 11.0591L15.7386 11.0633C15.8397 11.1374 15.9559 11.1769 16.0818 11.1769C16.2361 11.1769 16.373 11.1187 16.4846 11.0136L16.4891 11.0092C16.6071 10.8912 16.6635 10.7411 16.6635 10.5753C16.6635 10.495 16.6453 10.416 16.6163 10.3405L14.9755 6.43183C14.9304 6.31197 14.8538 6.21248 14.7455 6.14278C14.6487 6.07354 14.5382 6.03578 14.4189 6.03369ZM4.01207 6.2256C4.12444 6.11445 4.26659 6.06026 4.42369 6.06026H6.46369C6.63613 6.06026 6.79916 6.11004 6.91989 6.23685C7.03589 6.35414 7.08535 6.50583 7.08535 6.6686C7.08535 6.84821 6.99552 7.00343 6.86817 7.13205L6.23055 7.8363C6.35843 7.8781 6.4787 7.93868 6.5905 8.01839C6.81186 8.17308 6.98155 8.37697 7.09859 8.62598C7.21449 8.86815 7.27202 9.12768 7.27202 9.40193C7.27202 9.75881 7.19099 10.0813 7.02233 10.3625L7.02146 10.3639C6.85281 10.6399 6.61502 10.8508 6.31435 10.9962C6.0143 11.1412 5.67109 11.2103 5.29035 11.2103C5.1128 11.2103 4.93584 11.188 4.75983 11.144C4.58601 11.1006 4.42872 11.0414 4.29022 10.9646C4.07794 10.8495 3.93535 10.6685 3.93535 10.4219C3.93535 10.2611 3.99393 10.1164 4.09828 9.99367C4.20923 9.86315 4.35638 9.78693 4.53035 9.78693C4.67212 9.78693 4.80697 9.83999 4.93083 9.92076L4.93752 9.92513L4.94386 9.92999C5.10024 10.05 5.26715 10.1069 5.45035 10.1069C5.55202 10.1069 5.64861 10.0829 5.74278 10.033C5.83311 9.9808 5.90653 9.90788 5.96396 9.80991L5.96503 9.80807C6.02395 9.70989 6.05535 9.59643 6.05535 9.46193C6.05535 9.26722 5.99776 9.14173 5.90355 9.05608L5.90118 9.05394C5.7996 8.9587 5.67804 8.91026 5.52369 8.91026C5.44801 8.91026 5.389 8.9179 5.34403 8.9299C5.31101 8.9387 5.28512 8.94572 5.26611 8.951L5.24369 8.95735C5.23906 8.9587 5.23684 8.95939 5.23629 8.95956C5.23614 8.95961 5.23611 8.95961 5.23619 8.95959L5.23164 8.96111C5.10662 8.99957 4.98863 9.0236 4.88369 9.0236C4.73284 9.0236 4.59484 8.96931 4.49292 8.85171L4.48858 8.8467C4.39712 8.73414 4.35535 8.59946 4.35535 8.45526C4.35535 8.36799 4.37103 8.28232 4.40736 8.20239C4.44191 8.12638 4.49507 8.05471 4.55703 7.98755L5.26992 7.21026H4.42369C4.26549 7.21026 4.12244 7.15531 4.00971 7.04258C3.89697 6.92984 3.84202 6.7868 3.84202 6.6286C3.84202 6.47306 3.89835 6.33344 4.01207 6.2256ZM9.30221 7.51556C9.17024 7.73988 9.09176 8.0935 9.09176 8.60193C9.09176 9.11036 9.17024 9.46398 9.30221 9.6883C9.43395 9.90491 9.59495 9.9936 9.79676 9.9936C9.99847 9.9936 10.1567 9.90517 10.284 9.68938L10.2853 9.68721C10.421 9.46354 10.5018 9.11054 10.5018 8.60193C10.5018 8.09332 10.421 7.74031 10.2853 7.51664L10.284 7.51449C10.1566 7.2987 9.99847 7.21026 9.79676 7.21026C9.59495 7.21026 9.43395 7.29895 9.30221 7.51556ZM14.3704 8.09208L14.0228 8.9136H14.725L14.3704 8.09208Z" fill="#21313F"/>
</svg>
