<svg width="60" height="60" viewBox="0 0 60 60" fill="none" xmlns="http://www.w3.org/2000/svg">
<path fill-rule="evenodd" clip-rule="evenodd" d="M5.625 30C5.625 16.5426 16.5426 5.625 30 5.625C43.4574 5.625 54.375 16.5426 54.375 30C54.375 43.4574 43.4574 54.375 30 54.375C16.5426 54.375 5.625 43.4574 5.625 30ZM30 9.375C18.6137 9.375 9.375 18.6137 9.375 30C9.375 41.3863 18.6137 50.625 30 50.625C41.3863 50.625 50.625 41.3863 50.625 30C50.625 18.6137 41.3863 9.375 30 9.375Z" fill="#FA7268"/>
<path fill-rule="evenodd" clip-rule="evenodd" d="M42.4561 19.1893C43.249 19.8554 43.3519 21.0381 42.6858 21.831L26.9358 40.581C26.5868 40.9966 26.0748 41.2405 25.5321 41.2498C24.9895 41.259 24.4695 41.0327 24.1064 40.6294L17.3564 33.1294C16.6637 32.3596 16.7261 31.1741 17.4958 30.4814C18.2655 29.7886 19.4511 29.851 20.1438 30.6207L25.4513 36.518L39.8144 19.4191C40.4805 18.6261 41.6632 18.5233 42.4561 19.1893Z" fill="#FA7268"/>
</svg>
