<svg width="36" height="36" viewBox="0 0 36 36" fill="none" xmlns="http://www.w3.org/2000/svg">
<path d="M23.727 0H7.36335C5.97243 0 4.90881 1.06362 4.90881 2.45454V6.54546V33.5455C4.90881 34.9364 5.97243 36 7.36335 36H23.727C25.1179 36 26.1815 34.9364 26.1815 33.5455V6.54546V2.45454C26.1816 1.06362 25.1179 0 23.727 0Z" fill="#595A66"/>
<path d="M25.3638 0.654297V3.27245V4.9906V7.3633V13.0906V33.5451C25.3638 34.4451 24.6274 35.1815 23.7274 35.1815H6.54565C6.05473 35.1815 5.64565 35.0179 5.23657 34.8542C5.72749 35.5088 6.46381 35.9997 7.36381 35.9997H23.7274C25.1183 35.9997 26.182 34.9361 26.182 33.5452V6.54521V2.45429C26.182 1.71791 25.8547 1.06337 25.3638 0.654297Z" fill="#494A52"/>
<path d="M24.5453 6.5457V30.273C24.5453 30.6821 24.218 31.0912 23.7271 31.0912H7.36344C6.87252 31.0912 6.54529 30.7639 6.54529 30.273V6.5457C6.54529 6.13662 6.87259 5.72754 7.36344 5.72754H23.7271C24.218 5.72754 24.5453 6.05477 24.5453 6.5457Z" fill="#70B7E5"/>
<path d="M23.7271 5.72754H7.36344C6.87252 5.72754 6.54529 6.05484 6.54529 6.5457V7.36386C6.54529 6.95478 6.87259 6.5457 7.36344 6.5457H23.7271C24.218 6.5457 24.5452 6.873 24.5452 7.36386V6.5457C24.5453 6.05477 24.218 5.72754 23.7271 5.72754Z" fill="#4C9CD6"/>
<path d="M15.5453 34.3638C15.9972 34.3638 16.3635 33.9975 16.3635 33.5457C16.3635 33.0938 15.9972 32.7275 15.5453 32.7275C15.0935 32.7275 14.7272 33.0938 14.7272 33.5457C14.7272 33.9975 15.0935 34.3638 15.5453 34.3638Z" fill="#35363E"/>
<path d="M7.36353 30.2735V26.1826L11.4544 30.2735H7.36353Z" fill="#90CEF1"/>
<path d="M7.36353 24.5456L13.0908 30.2728H14.7272L7.36353 22.9092V24.5456Z" fill="#90CEF1"/>
<path d="M5.72709 30.7636C5.72709 31.5 5.39979 32.2363 4.90894 32.7272V16.8545C5.39986 17.3454 5.72709 18.0818 5.72709 18.8181V30.7636Z" fill="#6F707E"/>
<path d="M10.1454 0.818156C9.40899 0.818156 8.67268 0.490852 8.18176 0H21.2727C20.7817 0.490922 20.0454 0.818156 19.309 0.818156H10.1454Z" fill="#6F707E"/>
<path d="M17.5912 3.27226H13.5003C13.2548 3.27226 13.0912 3.10864 13.0912 2.86318C13.0912 2.61772 13.2548 2.4541 13.5003 2.4541H17.5912C17.8366 2.4541 18.0003 2.61772 18.0003 2.86318C18.0003 3.10864 17.8366 3.27226 17.5912 3.27226Z" fill="#35363E"/>
<path d="M11.8638 2.4541C12.1093 2.4541 12.2729 2.61772 12.2729 2.86318C12.2729 3.10864 12.1093 3.27226 11.8638 3.27226C11.6183 3.27226 11.4547 3.10864 11.4547 2.86318C11.4547 2.61772 11.6183 2.4541 11.8638 2.4541Z" fill="#35363E"/>
<path d="M29.4543 23.7277H14.7271C13.8271 23.7277 13.0907 22.9913 13.0907 22.0913V12.2731C13.0907 11.3731 13.8271 10.6367 14.7271 10.6367H29.4544C30.3544 10.6367 31.0908 11.3731 31.0908 12.2731V22.0913C31.0907 22.9913 30.3543 23.7277 29.4543 23.7277Z" fill="#F37321"/>
<path d="M20.4544 23.7276H15.5453L21.2725 10.6367H26.1817L20.4544 23.7276Z" fill="#F79548"/>
<path d="M22.9087 23.7276H21.2723L26.9996 10.6367H28.636L22.9087 23.7276Z" fill="#F79548"/>
<path d="M20.8635 20.4549H15.1361C14.8907 20.4549 14.7271 20.2913 14.7271 20.0458C14.7271 19.8003 14.8907 19.6367 15.1361 19.6367H20.8635C21.1089 19.6367 21.2725 19.8003 21.2725 20.0458C21.2725 20.2913 21.1089 20.4549 20.8635 20.4549Z" fill="#EA5434"/>
<path d="M20.8638 20.4549C21.1092 20.4549 21.2728 20.2913 21.2728 20.0458C21.2728 19.8003 21.1092 19.6367 20.8638 19.6367H17.3456L17.0183 20.4549H20.8638Z" fill="#F37321"/>
<path d="M18.409 22.0906H15.1363C14.8908 22.0906 14.7272 21.927 14.7272 21.6815C14.7272 21.4361 14.8908 21.2725 15.1363 21.2725H18.409C18.6544 21.2725 18.818 21.4361 18.818 21.6815C18.818 21.927 18.6544 22.0906 18.409 22.0906Z" fill="#EA5434"/>
<path d="M18.4091 22.0906C18.6546 22.0906 18.8182 21.927 18.8182 21.6815C18.8182 21.4361 18.6546 21.2725 18.4091 21.2725H16.6092L16.2819 22.0906H18.4091Z" fill="#F37321"/>
<path d="M31.0907 13.0908H13.0907V16.3635H31.0907V13.0908Z" fill="#014463"/>
<path d="M24.4636 16.3635H26.1L27.5727 13.0908H25.9364L24.4636 16.3635Z" fill="#0B5068"/>
<path d="M18.7366 16.3635H23.6456L25.1183 13.0908H20.2093L18.7366 16.3635Z" fill="#0B5068"/>
<path d="M25.3634 23.7275H24.5453V24.5457H25.3634V23.7275Z" fill="#494A52"/>
<path d="M14.7272 23.7275C15.2181 24.2185 15.9545 24.5457 16.6908 24.5457H24.5454V23.7275H14.7272Z" fill="#4C9CD6"/>
</svg>
