<svg width="50" height="50" viewBox="0 0 50 50" fill="none" xmlns="http://www.w3.org/2000/svg">
<path d="M34 4H8V19H34V4Z" fill="#FA7268"/>
<path d="M25.8064 37.0967H16.129V40.3225H25.8064V37.0967Z" fill="#FA7268"/>
<path d="M32.2581 3.22559H9.67741C8.34354 3.22559 7.25806 4.31107 7.25806 5.64494V44.3546C7.25806 45.6885 8.34354 46.774 9.67741 46.774H32.2581C33.5919 46.774 34.6774 45.6885 34.6774 44.3546V5.64494C34.6774 4.31107 33.5919 3.22559 32.2581 3.22559ZM9.67741 4.83849H32.2581C32.7032 4.83849 33.0645 5.20059 33.0645 5.64494V18.5482H31.4516V20.1611H33.0645V33.0643H29.0322V24.9998H28.2258V21.774H23.3871V24.9998H22.5806V33.0643H21.1129L21.7629 29.1651L21.7742 27.4191C21.7742 25.1957 19.9653 23.3869 17.7419 23.3869C15.5185 23.3869 13.7097 25.1957 13.7097 27.4191V29.032L14.3742 33.0643H8.87096V20.1611H29.8387V18.5482H8.87096V5.64494C8.87096 5.20059 9.23225 4.83849 9.67741 4.83849ZM24.1935 26.6127H27.4193V33.0643H24.1935V26.6127ZM26.6129 24.9998H25V23.3869H26.6129V24.9998ZM15.3339 29.032H20.1508L19.479 33.0643H16.0056L15.3339 29.032ZM15.3226 27.4191C15.3226 26.0853 16.4081 24.9998 17.7419 24.9998C19.0758 24.9998 20.1613 26.0853 20.1613 27.4191H15.3226ZM32.2581 45.1611H9.67741C9.23225 45.1611 8.87096 44.799 8.87096 44.3546V34.6772H14.6395H20.8435H22.5806H29.0322H33.0645V44.3546C33.0645 44.799 32.7032 45.1611 32.2581 45.1611Z" fill="#21313F"/>
<path d="M16.9355 6.45117H10.4839V8.06408H16.9355V6.45117Z" fill="#21313F"/>
<path d="M45.9677 15.6306L42.7419 14.0177V3.22581C42.7419 1.44677 41.2951 0 39.5161 0C38.179 0 37.0306 0.817742 36.5419 1.97903C35.5056 0.770161 33.9709 0 32.258 0H9.67739C6.56529 0 4.03223 2.53226 4.03223 5.64516V44.3548C4.03223 47.4677 6.56529 50 9.67739 50H32.258C33.9709 50 35.5056 49.2298 36.5419 48.021C37.0306 49.1823 38.179 50 39.5161 50C41.2951 50 42.7419 48.5532 42.7419 46.7742V27.9177L45.9677 26.3048V15.6306ZM41.129 46.7742C41.129 47.6637 40.4056 48.3871 39.5161 48.3871C38.6266 48.3871 37.9032 47.6637 37.9032 46.7742V42.7419H36.2903V44.3548C36.2903 46.5782 34.4814 48.3871 32.258 48.3871H9.67739C7.454 48.3871 5.64513 46.5782 5.64513 44.3548V5.64516C5.64513 3.42177 7.454 1.6129 9.67739 1.6129H32.258C34.4814 1.6129 36.2903 3.42177 36.2903 5.64516V41.129H37.9032V3.22581C37.9032 2.33629 38.6266 1.6129 39.5161 1.6129C40.4056 1.6129 41.129 2.33629 41.129 3.22581V46.7742ZM44.3548 25.3081L42.7419 26.1145V15.821L44.3548 16.6274V25.3081Z" fill="#21313F"/>
</svg>
