<svg width="50" height="50" viewBox="0 0 50 50" fill="none" xmlns="http://www.w3.org/2000/svg">
<path d="M27.9009 4.83887H18.7557C16.8621 4.83887 15.3226 6.37838 15.3226 8.27193C15.3226 9.42354 15.8944 10.4913 16.8517 11.1284L22.9404 15.1873C24.8581 14.0316 26.788 14.305 28.7307 15.9526L31.1283 14.034C32.3581 13.0494 33.0646 11.5792 33.0646 10.0026C33.0646 7.155 30.7484 4.83887 27.9009 4.83887Z" fill="#FA7268"/>
<path d="M40.3386 17.3904C40.1007 16.5041 39.533 15.7638 38.7394 15.3057C37.7459 14.7315 36.5346 14.6904 35.5007 15.2009L28.941 18.4436C29.2217 20.0743 28.2225 21.6291 25.3838 23.0751L25.8459 26.1098C26.083 27.6703 27.0031 29.0162 28.3685 29.8049C29.1644 30.2638 30.0475 30.4985 30.9419 30.4985C31.391 30.4985 31.8419 30.4396 32.287 30.3203C33.6193 29.9638 34.733 29.109 35.4225 27.9146L39.9951 19.9945C40.4531 19.2017 40.5749 18.2759 40.3386 17.3904Z" fill="#FA7268"/>
<path d="M20.8871 16.6163L18.0266 15.4986C16.5581 14.9244 14.9323 15.047 13.567 15.8365C11.1008 17.2607 10.2533 20.4236 11.6758 22.8905L16.2484 30.8107C16.7065 31.6042 17.4476 32.172 18.3331 32.4099C18.6291 32.4889 18.9291 32.5276 19.2266 32.5276C19.8218 32.5276 20.4089 32.372 20.9371 32.0663C21.9339 31.4921 22.5734 30.4631 22.6476 29.3147L23.1186 22.0123C20.9662 21.3188 20.25 19.4978 20.8871 16.6163Z" fill="#FA7268"/>
<path d="M29.8388 18.5487C29.8388 15.8801 27.6686 13.71 25.0001 13.71C22.3315 13.71 20.1614 15.8801 20.1614 18.5487C20.1614 21.2172 22.3315 23.3874 25.0001 23.3874C27.6686 23.3874 29.8388 21.2172 29.8388 18.5487ZM21.7743 18.5487C21.7743 16.7696 23.2211 15.3229 25.0001 15.3229C26.7791 15.3229 28.2259 16.7696 28.2259 18.5487C28.2259 20.3277 26.7791 21.7745 25.0001 21.7745C23.2211 21.7745 21.7743 20.3277 21.7743 18.5487Z" fill="#21313F"/>
<path d="M33.9009 42.0613C31.7589 40.6984 29.9089 39.5137 29.8444 36.4508C37.7299 34.3145 43.5484 27.1 43.5484 18.5484C43.5484 8.32016 35.2275 0 25 0C14.7726 0 6.45166 8.32016 6.45166 18.5484C6.45166 27.1 12.2702 34.3145 20.1549 36.4508C20.0912 39.5145 18.2404 40.6992 16.0984 42.0613C14 43.3968 11.6436 44.9008 11.3275 48.3871H9.67747V50H40.3226V48.3871H38.6718C38.3557 44.9008 35.9992 43.3968 33.9009 42.0613ZM8.06456 18.5484C8.06456 9.21048 15.6613 1.6129 25 1.6129C34.3388 1.6129 41.9355 9.21048 41.9355 18.5484C41.9355 27.8863 34.3388 35.4839 25 35.4839C15.6613 35.4839 8.06456 27.8863 8.06456 18.5484ZM16.9654 43.4226C18.3839 42.5202 19.921 41.5395 20.8654 39.9234C22.2234 40.1839 23.6089 40.3226 25 40.3226C25.8339 40.3226 26.6791 40.2742 27.5105 40.179L27.3275 38.5774C25.3831 38.7976 23.4154 38.7226 21.5065 38.3903C21.6379 37.9113 21.7202 37.3831 21.7533 36.8064C22.8089 36.9935 23.892 37.0968 25 37.0968C26.1081 37.0968 27.1912 36.9935 28.246 36.8064C28.4549 40.4984 30.8791 42.0508 33.0339 43.4226C35.0178 44.6847 36.7509 45.796 37.0468 48.3871H12.9525C13.2484 45.796 14.9815 44.6847 16.9654 43.4226Z" fill="#21313F"/>
<path d="M25.8065 45.1611H24.1936V46.774H25.8065V45.1611Z" fill="#21313F"/>
<path d="M22.5807 45.1611H20.9678V46.774H22.5807V45.1611Z" fill="#21313F"/>
<path d="M29.0323 45.1611H27.4194V46.774H29.0323V45.1611Z" fill="#21313F"/>
</svg>
