<svg width="50" height="50" viewBox="0 0 50 50" fill="none" xmlns="http://www.w3.org/2000/svg">
<path d="M49.1935 4.03223H0.806396V16.129H49.1935V4.03223Z" fill="#FA7268"/>
<path d="M50 3.22581H45.9677V0H31.4516V3.22581H18.5484V0H4.03226V3.22581H0V45.1613H4.03226V50H10.4839V45.1613H39.5161V50H45.9677V45.1613H50V3.22581ZM44.3548 3.22581H42.7419V1.6129H44.3548V3.22581ZM36.2903 3.22581V1.6129H37.9032V3.22581H36.2903ZM39.5161 1.6129H41.129V3.22581H39.5161V1.6129ZM33.0645 1.6129H34.6774V3.22581H33.0645V1.6129ZM16.9355 3.22581H15.3226V1.6129H16.9355V3.22581ZM8.87097 3.22581V1.6129H10.4839V3.22581H8.87097ZM12.0968 1.6129H13.7097V3.22581H12.0968V1.6129ZM5.64516 1.6129H7.25806V3.22581H5.64516V1.6129ZM8.87097 48.3871H5.64516V45.1613H8.87097V48.3871ZM44.3548 48.3871H41.129V45.1613H44.3548V48.3871ZM45.9677 43.5484H39.5161H10.4839H4.03226H1.6129V16.129H45.1613V14.5161H1.6129V4.83871H4.03226H18.5484H31.4516H45.9677H48.3871V14.5161H46.7742V16.129H48.3871V43.5484H45.9677Z" fill="#21313F"/>
<path d="M25 6.45117C23.2209 6.45117 21.7742 7.89795 21.7742 9.67698C21.7742 11.456 23.2209 12.9028 25 12.9028C26.779 12.9028 28.2258 11.456 28.2258 9.67698C28.2258 7.89795 26.779 6.45117 25 6.45117ZM23.3871 9.67698C23.3871 9.08262 23.7137 8.56811 24.1935 8.28827V11.0657C23.7137 10.7858 23.3871 10.2713 23.3871 9.67698ZM25.8064 11.0657V8.28827C26.2863 8.56811 26.6129 9.08262 26.6129 9.67698C26.6129 10.2713 26.2863 10.7858 25.8064 11.0657Z" fill="#21313F"/>
<path d="M8.87095 6.45117C7.09192 6.45117 5.64514 7.89795 5.64514 9.67698C5.64514 11.456 7.09192 12.9028 8.87095 12.9028C10.65 12.9028 12.0968 11.456 12.0968 9.67698C12.0968 7.89795 10.65 6.45117 8.87095 6.45117ZM7.25804 9.67698C7.25804 9.08262 7.58466 8.56811 8.0645 8.28827V11.0657C7.58466 10.7858 7.25804 10.2713 7.25804 9.67698ZM9.6774 11.0657V8.28827C10.1572 8.56811 10.4839 9.08262 10.4839 9.67698C10.4839 10.2713 10.1572 10.7858 9.6774 11.0657Z" fill="#21313F"/>
<path d="M40.3226 6.45117C38.5436 6.45117 37.0968 7.89795 37.0968 9.67698C37.0968 11.456 38.5436 12.9028 40.3226 12.9028C42.1016 12.9028 43.5484 11.456 43.5484 9.67698C43.5484 7.89795 42.1016 6.45117 40.3226 6.45117ZM38.7097 9.67698C38.7097 9.08262 39.0363 8.56811 39.5162 8.28827V11.0657C39.0363 10.7858 38.7097 10.2713 38.7097 9.67698ZM41.1291 11.0657V8.28827C41.6089 8.56811 41.9355 9.08262 41.9355 9.67698C41.9355 10.2713 41.6089 10.7858 41.1291 11.0657Z" fill="#21313F"/>
<path d="M8.06458 38.7093H41.9355V19.3545H8.06458V38.7093ZM9.67748 20.9674H40.3226V37.0964H9.67748V20.9674Z" fill="#21313F"/>
<path d="M17.7419 27.4198H32.2581V22.5811H17.7419V27.4198ZM19.3548 24.194H30.6452V25.8069H19.3548V24.194Z" fill="#21313F"/>
</svg>
