<svg width="50" height="50" viewBox="0 0 50 50" fill="none" xmlns="http://www.w3.org/2000/svg">
<path d="M27 6L26 4.5L25 3.5L19.5 0.5L13 3.5L12.5 4.5L11.5 6L11 7.5V11L15.75 10L18.5 8.5L26 10.5L27.5 10V7L27 6Z" fill="#FA7268"/>
<path d="M50 39.5161V5.64516C50 4.31129 48.9145 3.22581 47.5806 3.22581H26.0879C25.6669 2.92823 25.1984 2.68871 24.6895 2.52823C23.5145 0.939516 21.6613 0 19.6734 0C16.8823 0 14.3823 1.25484 12.696 3.22581H2.41935C1.08548 3.22581 0 4.31129 0 5.64516V39.5161C0 40.85 1.08548 41.9355 2.41935 41.9355H14.4468L0 47.846V50H4.96936L19.4847 45.1613H30.5153L45.0306 50H50V47.846L35.5532 41.9355H47.5806C48.9145 41.9355 50 40.85 50 39.5161ZM12.0968 9.18952C12.0968 5.0121 15.496 1.6129 19.6734 1.6129C21.2242 1.6129 22.6629 2.38306 23.5226 3.67339L23.6952 3.93226L23.9984 4.00806C25.5379 4.39274 26.6129 5.77016 26.6129 7.35726V10.1258C26.1363 9.84839 25.5903 9.67742 25 9.67742C23.0927 9.67742 21.2024 9.04758 19.6766 7.90323L18.4726 7L17.2694 8.20323C16.3185 9.15403 15.054 9.67742 13.7097 9.67742C13.1194 9.67742 12.5734 9.84839 12.0968 10.1258V9.18952ZM26.6129 12.9032C26.6129 13.4976 26.2863 14.0121 25.8065 14.2919V11.5153C26.2863 11.7944 26.6129 12.3089 26.6129 12.9032ZM19.3548 19.3548C16.6863 19.3548 14.5161 17.1847 14.5161 14.5161V11.2363C15.9863 11.0597 17.3468 10.4065 18.4097 9.34355L18.6242 9.12903L18.7089 9.19274C20.296 10.3831 22.2177 11.1016 24.1935 11.2573V14.5161C24.1935 17.1847 22.0234 19.3548 19.3548 19.3548ZM20.9556 20.7645L19.3548 23.4331L17.754 20.7653C18.2661 20.896 18.8024 20.9677 19.3548 20.9677C19.9073 20.9677 20.4435 20.896 20.9556 20.7645ZM12.9032 11.5145V14.2911C12.4234 14.0113 12.0968 13.4968 12.0968 12.9024C12.0968 12.3081 12.4234 11.7944 12.9032 11.5145ZM13.1 16.0677C13.5363 17.8258 14.6935 19.3024 16.2387 20.1613H16.129V20.3065L11.6065 21.2113C9.525 21.6274 7.86855 23.154 7.28548 25.196L6.18871 29.0323H23.3871V27.4194H13.9355L14.4911 25.1952L12.9274 24.8048L12.2742 27.4194H8.32742L8.83629 25.6387C9.25323 24.1806 10.4347 23.0903 11.9226 22.7927L16.5363 21.8702L19.3548 26.5669L22.1734 21.8694L25.6484 22.5645L25.9653 20.9831L22.5806 20.3073V20.1613H22.4347C23.9944 19.3056 25.171 17.8363 25.6105 16.0677C27.0976 15.7815 28.2258 14.4734 28.2258 12.9032V8.06452H45.1613V33.871H4.83871V8.06452H10.5597C10.5145 8.43387 10.4839 8.80807 10.4839 9.18952V12.9032C10.4839 14.4734 11.6121 15.7815 13.1 16.0677ZM18.5484 43.7742L4.70806 48.3871H2.93629L18.5484 42.0008V43.7742ZM29.8387 43.5484H20.1613V41.9355H29.8387V43.5484ZM47.0637 48.3871H45.2919L31.4516 43.7742V42.0008L47.0637 48.3871ZM2.41935 40.3226C1.97419 40.3226 1.6129 39.9613 1.6129 39.5161V5.64516C1.6129 5.2 1.97419 4.83871 2.41935 4.83871H11.5823C11.3065 5.34919 11.0766 5.88871 10.9008 6.45161H3.22581V35.4839H46.7742V6.45161H28.1387C28.0347 5.875 27.8274 5.33387 27.5435 4.83871H47.5806C48.0258 4.83871 48.3871 5.2 48.3871 5.64516V39.5161C48.3871 39.9613 48.0258 40.3226 47.5806 40.3226H2.41935Z" fill="#21313F"/>
<path d="M25.8065 37.0967H24.1936V38.7096H25.8065V37.0967Z" fill="#21313F"/>
<path d="M29.0323 37.0967H27.4194V38.7096H29.0323V37.0967Z" fill="#21313F"/>
<path d="M22.5807 37.0967H20.9678V38.7096H22.5807V37.0967Z" fill="#21313F"/>
<path d="M41.129 32.258H24.9999C23.6661 32.258 22.5806 31.1726 22.5806 29.8387V23.3871C22.5806 22.0532 23.6661 20.9677 24.9999 20.9677H28.654L33.0644 15.6758L37.4749 20.9677H41.129C42.4628 20.9677 43.5483 22.0532 43.5483 23.3871V29.8387C43.5483 31.1726 42.4628 32.258 41.129 32.258Z" fill="#FA7268"/>
<path d="M40.3225 24.1934H25.8064V25.8063H40.3225V24.1934Z" fill="#21313F"/>
<path d="M37.0967 27.4189H25.8064V29.0318H37.0967V27.4189Z" fill="#21313F"/>
<path d="M40.3226 27.4189H38.7097V29.0318H40.3226V27.4189Z" fill="#21313F"/>
</svg>
