<svg width="50" height="50" viewBox="0 0 50 50" fill="none" xmlns="http://www.w3.org/2000/svg">
<g clip-path="url(#clip0)">
<path d="M38 24H12V35H38V24Z" fill="#FA7268"/>
<path d="M44.3555 18.6034V14.5154C44.3555 8.7346 39.6522 4.03125 33.8714 4.03125H16.129C10.3482 4.03125 5.6448 8.7346 5.6448 14.5154V18.6034C2.44472 19.0204 -0.0924497 21.9285 0.00271409 25.2133C0.0825549 27.969 1.7084 30.3553 4.03185 31.2344V38.7096C4.03185 40.0435 5.11737 41.129 6.45127 41.129H6.57466L7.38114 45.9678H15.1983L16.0048 41.129H33.9939L34.8004 45.9678H42.6176L43.424 41.129H43.549C44.8829 41.129 45.9685 40.0435 45.9685 38.7096V31.2344C48.2919 30.3545 49.9178 27.9682 49.9976 25.2133C50.0928 21.9285 47.5556 19.0212 44.3555 18.6034ZM16.129 5.6442H33.8714C38.7626 5.6442 42.7426 9.62414 42.7426 14.5154V18.6002C41.9369 18.697 41.174 18.9437 40.474 19.3276C40.0207 18.8421 39.3868 18.5478 38.7102 18.5478H30.6455C29.3116 18.5478 28.226 19.6333 28.226 20.9672V29.0319C28.226 29.3158 28.2841 29.5851 28.3744 29.8384H21.6251C21.7162 29.5851 21.7743 29.3158 21.7743 29.0319V20.9672C21.7743 19.6333 20.6887 18.5478 19.3548 18.5478H11.2901C10.6127 18.5478 9.97798 18.8421 9.52555 19.3276C8.82553 18.9445 8.0618 18.6986 7.25775 18.601V14.5154C7.25775 9.62414 11.2377 5.6442 16.129 5.6442ZM37.0973 24.9995V29.8384H30.6455C30.2003 29.8384 29.839 29.4771 29.839 29.0319V20.9672C29.839 20.522 30.2003 20.1607 30.6455 20.1607H38.7102C38.8658 20.1607 39.0142 20.2099 39.1425 20.2914C39.1231 20.3091 39.103 20.3244 39.0836 20.3422C37.8029 21.5712 37.0973 23.2253 37.0973 24.9995ZM10.9167 20.343C10.8974 20.3244 10.8772 20.3099 10.8578 20.2914C10.9853 20.2099 11.1337 20.1607 11.2901 20.1607H19.3548C19.8 20.1607 20.1613 20.522 20.1613 20.9672V29.0319C20.1613 29.4771 19.8 29.8384 19.3548 29.8384H12.9031V24.9995C12.9031 23.2253 12.1974 21.5712 10.9167 20.343ZM5.6448 38.7096V30.0174L5.03591 29.8626C3.08747 29.3706 1.68098 27.4391 1.61566 25.1665C1.53985 22.5632 3.65926 20.2736 6.2432 20.1647C7.56985 20.1091 8.84005 20.5849 9.79975 21.5067C10.7611 22.4285 11.2901 23.6689 11.2901 24.9995V29.8384V34.6772V39.5161H6.45127C6.0061 39.5161 5.6448 39.1548 5.6448 38.7096ZM13.8329 44.3549H8.7465L8.20938 41.129H12.0966H12.9031H14.37L13.8329 44.3549ZM16.2749 39.5161H12.9031V34.6772H33.8714V33.0643H12.9031V31.4513H19.3548H30.6455H37.0973V33.0643H35.4843V34.6772H37.0973V39.5161H33.7254H16.2749ZM41.253 44.3549H36.1666L35.6295 41.129H37.0973H38.7102H41.7901L41.253 44.3549ZM44.9644 29.8626L44.3555 30.0174V38.7096C44.3555 39.1548 43.9942 39.5161 43.549 39.5161H38.7102V34.6772V29.8384V24.9995C38.7102 23.6689 39.2392 22.4285 40.2006 21.5067C41.1619 20.5849 42.4345 20.1083 43.7571 20.1647C46.341 20.2736 48.4605 22.564 48.3847 25.1665C48.3193 27.4391 46.9128 29.3706 44.9644 29.8626Z" fill="#21313F"/>
<path d="M44.3555 24.1934H42.7426V25.8063H44.3555V24.1934Z" fill="#21313F"/>
<path d="M7.25785 24.1934H5.6449V25.8063H7.25785V24.1934Z" fill="#21313F"/>
</g>
<defs>
<clipPath id="clip0">
<rect width="50" height="50" fill="white"/>
</clipPath>
</defs>
</svg>
