<svg width="50" height="50" viewBox="0 0 50 50" fill="none" xmlns="http://www.w3.org/2000/svg">
<path d="M33.0644 45.1621C30.8378 45.1621 29.0321 43.3565 29.0321 41.1299C29.0321 43.3565 27.2265 45.1621 24.9999 45.1621C22.7733 45.1621 20.9676 43.3565 20.9676 41.1299C20.9676 43.3565 19.162 45.1621 16.9354 45.1621C16.791 45.1621 16.6539 45.1347 16.5128 45.1194L16.4878 45.6379C18.4555 48.3702 21.637 50.0009 24.9999 50.0009C28.3644 50.0009 31.5483 48.3686 33.516 45.6331L33.4862 45.1194C33.3451 45.1347 33.2088 45.1621 33.0644 45.1621Z" fill="#FA7268"/>
<path d="M25 28.2262C23.1911 28.2262 21.7742 26.1004 21.7742 23.3875C21.7742 20.6746 23.1911 18.5488 25 18.5488C26.8088 18.5488 28.2258 20.6746 28.2258 23.3875C28.2258 26.1004 26.8088 28.2262 25 28.2262Z" fill="#FA7268"/>
<path d="M12.0968 28.2262C10.2879 28.2262 8.87097 26.1004 8.87097 23.3875C8.87097 20.6746 10.2879 18.5488 12.0968 18.5488C13.9056 18.5488 15.3226 20.6746 15.3226 23.3875C15.3226 26.1004 13.9056 28.2262 12.0968 28.2262Z" fill="#FA7268"/>
<path d="M37.9032 28.2262C36.0943 28.2262 34.6774 26.1004 34.6774 23.3875C34.6774 20.6746 36.0943 18.5488 37.9032 18.5488C39.712 18.5488 41.129 20.6746 41.129 23.3875C41.129 26.1004 39.712 28.2262 37.9032 28.2262Z" fill="#FA7268"/>
<path d="M45.9677 33.871H42.2694L40.754 32.3556C39.5879 31.1895 38.8879 29.6839 38.7411 28.0613C38.4742 28.1653 38.1944 28.2258 37.9032 28.2258C37.6347 28.2258 37.3766 28.1742 37.129 28.0855C37.2847 30.1298 38.1484 32.0315 39.6137 33.496L39.9887 33.871H34.4798L34.3016 33.2468C32.4839 26.8871 31.5379 20.3185 31.4653 13.7097H35.6323C35.5419 13.9629 35.4839 14.2323 35.4839 14.5161C35.4839 15.1379 35.7266 15.7 36.1129 16.129C35.7258 16.5581 35.4839 17.1202 35.4839 17.7419C35.4839 19.0758 36.5694 20.1613 37.9032 20.1613C39.2371 20.1613 40.3226 19.0758 40.3226 17.7419C40.3226 17.1202 40.0798 16.5581 39.6936 16.129C40.0806 15.7 40.3226 15.1379 40.3226 14.5161C40.3226 14.1976 40.2573 13.8952 40.1452 13.6161C41.1734 13.3371 41.9355 12.4056 41.9355 11.2903C41.9355 9.95645 40.85 8.87097 39.5161 8.87097H39.1468C37.779 6.61129 35.3121 4.79839 32.2581 3.67661V0H30.6452V3.15887C28.8815 2.68145 26.9726 2.41935 25 2.41935C23.029 2.41935 21.1194 2.68145 19.3548 3.15968V0H17.7419V3.67823C14.6887 4.80081 12.2202 6.61371 10.8532 8.87097H10.4839C9.15 8.87097 8.06452 9.95645 8.06452 11.2903C8.06452 12.4056 8.82661 13.3379 9.85484 13.6161C9.74274 13.8952 9.67742 14.1976 9.67742 14.5161C9.67742 15.1379 9.92016 15.7 10.3065 16.129C9.91935 16.5581 9.67742 17.1202 9.67742 17.7419C9.67742 19.0758 10.7629 20.1613 12.0968 20.1613C13.4306 20.1613 14.5161 19.0758 14.5161 17.7419C14.5161 17.1202 14.2734 16.5581 13.8871 16.129C14.2742 15.7 14.5161 15.1379 14.5161 14.5161C14.5161 14.2323 14.4581 13.9629 14.3677 13.7097H18.5347C18.4629 20.3185 17.5161 26.8871 15.6992 33.2468L15.5202 33.871H12.9032V35.4839H45.9677C47.3016 35.4839 48.3871 36.5694 48.3871 37.9032C48.3871 39.2371 47.3016 40.3226 45.9677 40.3226H4.03226C2.69839 40.3226 1.6129 39.2371 1.6129 37.9032C1.6129 36.5694 2.69839 35.4839 4.03226 35.4839H11.2903V33.871H10.0113L10.3863 33.496C11.8508 32.0315 12.7153 30.1298 12.871 28.0855C12.6234 28.1742 12.3653 28.2258 12.0968 28.2258C11.8056 28.2258 11.5258 28.1653 11.2589 28.0613C11.1121 29.6839 10.4113 31.1895 9.24597 32.3556L7.73065 33.871H4.03226C1.80887 33.871 0 35.6798 0 37.9032C0 40.1266 1.80887 41.9355 4.03226 41.9355H12.1694C12.5548 44.2202 14.5419 45.9677 16.9355 45.9677C18.6177 45.9677 20.1 45.104 20.9677 43.7984C21.8355 45.1048 23.3177 45.9677 25 45.9677C26.6823 45.9677 28.1645 45.104 29.0323 43.7984C29.9 45.1048 31.3823 45.9677 33.0645 45.9677C35.4573 45.9677 37.4444 44.2202 37.8306 41.9355H45.9677C48.1911 41.9355 50 40.1266 50 37.9032C50 35.6798 48.1911 33.871 45.9677 33.871ZM38.7097 14.5161C38.7097 14.9613 38.3484 15.3226 37.9032 15.3226C37.4581 15.3226 37.0968 14.9613 37.0968 14.5161C37.0968 14.071 37.4581 13.7097 37.9032 13.7097C38.3484 13.7097 38.7097 14.071 38.7097 14.5161ZM37.9032 18.5484C37.4581 18.5484 37.0968 18.1871 37.0968 17.7419C37.0968 17.2968 37.4581 16.9355 37.9032 16.9355C38.3484 16.9355 38.7097 17.2968 38.7097 17.7419C38.7097 18.1871 38.3484 18.5484 37.9032 18.5484ZM10.4839 10.4839H33.0645V8.87097H12.8073C15.1371 5.93306 19.8161 4.03226 25 4.03226C30.1911 4.03226 34.8661 5.93226 37.1944 8.87097H34.6774V10.4839H39.5161C39.9613 10.4839 40.3226 10.8452 40.3226 11.2903C40.3226 11.7355 39.9613 12.0968 39.5161 12.0968H10.4839C10.0387 12.0968 9.67742 11.7355 9.67742 11.2903C9.67742 10.8452 10.0387 10.4839 10.4839 10.4839ZM25.8065 17.7419C25.8065 18.1871 25.4452 18.5484 25 18.5484C24.5548 18.5484 24.1935 18.1871 24.1935 17.7419C24.1935 17.2968 24.5548 16.9355 25 16.9355C25.4452 16.9355 25.8065 17.2968 25.8065 17.7419ZM25.8065 14.5161C25.8065 14.9613 25.4452 15.3226 25 15.3226C24.5548 15.3226 24.1935 14.9613 24.1935 14.5161C24.1935 14.071 24.5548 13.7097 25 13.7097C25.4452 13.7097 25.8065 14.071 25.8065 14.5161ZM12.0968 18.5484C11.6516 18.5484 11.2903 18.1871 11.2903 17.7419C11.2903 17.2968 11.6516 16.9355 12.0968 16.9355C12.5419 16.9355 12.9032 17.2968 12.9032 17.7419C12.9032 18.1871 12.5419 18.5484 12.0968 18.5484ZM12.9032 14.5161C12.9032 14.9613 12.5419 15.3226 12.0968 15.3226C11.6516 15.3226 11.2903 14.9613 11.2903 14.5161C11.2903 14.071 11.6516 13.7097 12.0968 13.7097C12.5419 13.7097 12.9032 14.071 12.9032 14.5161ZM17.2508 33.6887C19.1081 27.1863 20.0758 20.4685 20.1476 13.7097H22.7298C22.6387 13.9629 22.5806 14.2323 22.5806 14.5161C22.5806 15.1379 22.8234 15.7 23.2097 16.129C22.8226 16.5581 22.5806 17.1202 22.5806 17.7419C22.5806 19.0758 23.6661 20.1613 25 20.1613C26.3339 20.1613 27.4194 19.0758 27.4194 17.7419C27.4194 17.1202 27.1766 16.5581 26.7903 16.129C27.1774 15.7 27.4194 15.1379 27.4194 14.5161C27.4194 14.2323 27.3613 13.9629 27.271 13.7097H29.8532C29.925 20.4685 30.8927 27.1863 32.75 33.6887L32.8016 33.871H17.1984L17.2508 33.6887ZM16.9355 44.3548C15.4363 44.3548 14.1847 43.3234 13.8242 41.9355H20.0468C19.6863 43.3234 18.4347 44.3548 16.9355 44.3548ZM25 44.3548C23.5008 44.3548 22.2492 43.3234 21.8887 41.9355H28.1113C27.7508 43.3234 26.4992 44.3548 25 44.3548ZM33.0645 44.3548C31.5653 44.3548 30.3137 43.3234 29.9532 41.9355H36.1758C35.8153 43.3234 34.5637 44.3548 33.0645 44.3548Z" fill="#21313F"/>
<path d="M25.8065 37.0967H24.1936V38.7096H25.8065V37.0967Z" fill="#21313F"/>
<path d="M16.9355 37.0967H15.3226V38.7096H16.9355V37.0967Z" fill="#21313F"/>
<path d="M8.87096 37.0967H7.25806V38.7096H8.87096V37.0967Z" fill="#21313F"/>
<path d="M41.9355 37.0967H40.3226V38.7096H41.9355V37.0967Z" fill="#21313F"/>
<path d="M33.871 37.0967H32.2581V38.7096H33.871V37.0967Z" fill="#21313F"/>
</svg>
