<svg width="50" height="50" viewBox="0 0 50 50" fill="none" xmlns="http://www.w3.org/2000/svg">
<path d="M25 43.5485C33.4624 43.5485 40.3225 36.6883 40.3225 28.2259C40.3225 19.7635 33.4624 12.9033 25 12.9033C16.5375 12.9033 9.67737 19.7635 9.67737 28.2259C9.67737 36.6883 16.5375 43.5485 25 43.5485Z" fill="#FA7268"/>
<path d="M41.9355 0H8.06449C5.8411 0 4.03223 1.80887 4.03223 4.03226V9.67742V11.2903V46.7742H7.25803V50H12.9032V46.7742H37.0967V50H42.7419V46.7742H45.9677V11.2903V9.67742V4.03226C45.9677 1.80887 44.1588 0 41.9355 0ZM11.2903 48.3871H8.87094V46.7742H11.2903V48.3871ZM41.129 48.3871H38.7096V46.7742H41.129V48.3871ZM44.3548 45.1613H42.7419H37.0967H12.9032H7.25803H5.64513V11.2903H44.3548V45.1613ZM5.64513 9.67742V4.03226C5.64513 2.69839 6.73061 1.6129 8.06449 1.6129H41.9355C43.2693 1.6129 44.3548 2.69839 44.3548 4.03226V9.67742H5.64513Z" fill="#21313F"/>
<path d="M25 38.7099C30.7806 38.7099 35.4839 34.0067 35.4839 28.2261C35.4839 22.4454 30.7806 17.7422 25 17.7422C19.2193 17.7422 14.5161 22.4454 14.5161 28.2261C14.5161 34.0067 19.2193 38.7099 25 38.7099ZM25 19.3551C29.8911 19.3551 33.871 23.3349 33.871 28.2261C33.871 33.1172 29.8911 37.097 25 37.097C20.1089 37.097 16.129 33.1172 16.129 28.2261C16.129 23.3349 20.1089 19.3551 25 19.3551Z" fill="#21313F"/>
<path d="M24.9999 22.5807V20.9678C22.3628 20.9678 19.9297 22.4008 18.6499 24.7089L20.0596 25.4912C21.0555 23.696 22.9483 22.5807 24.9999 22.5807Z" fill="#21313F"/>
<path d="M19.5331 26.8131L17.9702 26.4131C17.8194 27.0034 17.7419 27.6139 17.7419 28.226H19.3548C19.3548 27.7486 19.4145 27.2736 19.5331 26.8131Z" fill="#21313F"/>
<path d="M37.9032 26.6133H36.2903V30.6455H37.9032V26.6133Z" fill="#21313F"/>
<path d="M7.25806 8.0643H25V3.22559H7.25806V8.0643ZM14.5161 6.45139V4.83849H17.7419V6.45139H14.5161ZM23.3871 6.45139H19.3548V4.83849H23.3871V6.45139ZM8.87096 4.83849H12.9032V6.45139H8.87096V4.83849Z" fill="#21313F"/>
<path d="M29.8387 3.22559C28.5048 3.22559 27.4193 4.31107 27.4193 5.64494C27.4193 6.97881 28.5048 8.0643 29.8387 8.0643C31.1725 8.0643 32.258 6.97881 32.258 5.64494C32.258 4.31107 31.1725 3.22559 29.8387 3.22559ZM29.8387 6.45139C29.3935 6.45139 29.0322 6.0893 29.0322 5.64494C29.0322 5.20059 29.3935 4.83849 29.8387 4.83849C30.2838 4.83849 30.6451 5.20059 30.6451 5.64494C30.6451 6.0893 30.2838 6.45139 29.8387 6.45139Z" fill="#21313F"/>
<path d="M36.2903 3.22559C34.9565 3.22559 33.871 4.31107 33.871 5.64494C33.871 6.97881 34.9565 8.0643 36.2903 8.0643C37.6242 8.0643 38.7097 6.97881 38.7097 5.64494C38.7097 4.31107 37.6242 3.22559 36.2903 3.22559ZM36.2903 6.45139C35.8452 6.45139 35.4839 6.0893 35.4839 5.64494C35.4839 5.20059 35.8452 4.83849 36.2903 4.83849C36.7355 4.83849 37.0968 5.20059 37.0968 5.64494C37.0968 6.0893 36.7355 6.45139 36.2903 6.45139Z" fill="#21313F"/>
</svg>
