<svg width="50" height="50" viewBox="0 0 50 50" fill="none" xmlns="http://www.w3.org/2000/svg">
<path d="M40.3225 4.83887H9.67736C8.78623 4.83887 8.06445 5.56064 8.06445 6.45177V16.9356H18.5483C20.3298 16.9356 21.7741 18.38 21.7741 20.1614V20.9679H40.3225C41.2136 20.9679 41.9354 20.2461 41.9354 19.355V6.45177C41.9354 5.56064 41.2136 4.83887 40.3225 4.83887Z" fill="#FA7268"/>
<path d="M19.3549 19.3555H6.45166V30.6458H19.3549V19.3555Z" fill="#FA7268"/>
<path d="M44.3548 0H5.64516C2.53306 0 0 2.53226 0 5.64516V26.6129C0 28.8032 1.27984 30.771 3.22581 31.6976V45.9677C3.22581 48.1911 5.03468 50 7.25806 50H18.5484C20.7718 50 22.5806 48.1911 22.5806 45.9677V32.2581H44.3548C47.4669 32.2581 50 29.7258 50 26.6129V5.64516C50 2.53226 47.4669 0 44.3548 0ZM20.9677 45.9677C20.9677 47.3016 19.8823 48.3871 18.5484 48.3871H7.25806C5.92419 48.3871 4.83871 47.3016 4.83871 45.9677V20.1613C4.83871 18.8274 5.92419 17.7419 7.25806 17.7419H8.06452H18.5484C19.8823 17.7419 20.9677 18.8274 20.9677 20.1613V45.9677ZM41.129 8.06452H8.87097V6.45161C8.87097 6.00726 9.23226 5.64516 9.67742 5.64516H40.3226C40.7677 5.64516 41.129 6.00726 41.129 6.45161V8.06452ZM8.87097 9.67742H41.129V12.0968H8.87097V9.67742ZM8.87097 13.7097H41.129V16.129H39.5161V17.7419H41.129V19.3548C41.129 19.7992 40.7677 20.1613 40.3226 20.1613H22.5806C22.5806 19.25 22.2653 18.4177 21.7532 17.7419H37.9032V16.129H18.5484H8.87097V13.7097ZM48.3871 26.6129C48.3871 28.8363 46.5782 30.6452 44.3548 30.6452H22.5806V21.7742H40.3226C41.6565 21.7742 42.7419 20.6887 42.7419 19.3548V6.45161C42.7419 5.11774 41.6565 4.03226 40.3226 4.03226H9.67742C8.34355 4.03226 7.25806 5.11774 7.25806 6.45161V16.129C5.03468 16.129 3.22581 17.9379 3.22581 20.1613V29.8371C2.23065 29.0879 1.6129 27.9024 1.6129 26.6129V5.64516C1.6129 3.42177 3.42177 1.6129 5.64516 1.6129H44.3548C46.5782 1.6129 48.3871 3.42177 48.3871 5.64516V26.6129Z" fill="#21313F"/>
<path d="M40.3226 24.1934C38.9887 24.1934 37.9032 25.2788 37.9032 26.6127C37.9032 27.9466 38.9887 29.0321 40.3226 29.0321C41.6564 29.0321 42.7419 27.9466 42.7419 26.6127C42.7419 25.2788 41.6564 24.1934 40.3226 24.1934ZM40.3226 27.4192C39.8774 27.4192 39.5161 27.0571 39.5161 26.6127C39.5161 26.1684 39.8774 25.8063 40.3226 25.8063C40.7677 25.8063 41.129 26.1684 41.129 26.6127C41.129 27.0571 40.7677 27.4192 40.3226 27.4192Z" fill="#21313F"/>
<path d="M33.871 24.1934C32.5371 24.1934 31.4517 25.2788 31.4517 26.6127C31.4517 27.9466 32.5371 29.0321 33.871 29.0321C35.2049 29.0321 36.2904 27.9466 36.2904 26.6127C36.2904 25.2788 35.2049 24.1934 33.871 24.1934ZM33.871 27.4192C33.4259 27.4192 33.0646 27.0571 33.0646 26.6127C33.0646 26.1684 33.4259 25.8063 33.871 25.8063C34.3162 25.8063 34.6775 26.1684 34.6775 26.6127C34.6775 27.0571 34.3162 27.4192 33.871 27.4192Z" fill="#21313F"/>
<path d="M6.45166 37.0967V37.9032V46.7741H19.3549V37.9032V37.0967V33.0645H6.45166V37.0967ZM17.742 45.1612H8.06456V37.9032H17.742V45.1612ZM17.742 36.2903H13.7097V34.6774H17.742V36.2903ZM8.06456 34.6774H12.0968V36.2903H8.06456V34.6774Z" fill="#21313F"/>
</svg>
