<svg width="50" height="50" viewBox="0 0 50 50" fill="none" xmlns="http://www.w3.org/2000/svg">
<path d="M47.5807 6.45161C47.5807 4.67258 46.1339 3.2258 44.3549 3.2258H30.6452V1.6129C30.6452 0.723387 29.9219 0 29.0323 0H20.9678C20.0783 0 19.3549 0.723387 19.3549 1.6129V3.2258H5.64524C3.86621 3.2258 2.41943 4.67258 2.41943 6.45161C2.41943 7.95 3.45169 9.20241 4.83879 9.5629V13.3185C4.83879 17.9468 6.64121 22.2976 9.91379 25.5701L11.0541 24.4298C8.08637 21.4621 6.45169 17.5153 6.45169 13.3185V9.67741H8.06459V8.06451H5.64524C4.75572 8.06451 4.03234 7.34113 4.03234 6.45161C4.03234 5.56209 4.75572 4.83871 5.64524 4.83871H44.3549C45.2444 4.83871 45.9678 5.56209 45.9678 6.45161C45.9678 7.34113 45.2444 8.06451 44.3549 8.06451H35.484V9.67741H43.5485V13.3185C43.5485 17.5161 41.9138 21.4621 38.946 24.4298L40.0864 25.5701C43.359 22.2976 45.1614 17.946 45.1614 13.3185V9.5629C46.5485 9.20241 47.5807 7.95 47.5807 6.45161ZM20.9678 1.6129H29.0323V3.2258H20.9678V1.6129Z" fill="#21313F"/>
<path d="M15.3227 8.06445H9.67749V9.67736H15.3227V8.06445Z" fill="#21313F"/>
<path d="M25.0001 4.03223C16.5509 4.03223 9.67749 10.9056 9.67749 19.3548V27.4193H40.3227V19.3548C40.3227 10.9056 33.4493 4.03223 25.0001 4.03223Z" fill="#FA7268"/>
<path d="M38.7096 26.6127H37.0967V24.9997H35.4838V26.6127H14.5161V19.3546C14.5161 13.5739 19.2193 8.87072 24.9999 8.87072C30.7806 8.87072 35.4838 13.5739 35.4838 19.3546V23.3868H37.0967V19.3546C37.0967 12.6844 31.6701 7.25781 24.9999 7.25781C18.3298 7.25781 12.9032 12.6844 12.9032 19.3546V26.6127H11.2903C9.51123 26.6127 8.06445 28.0594 8.06445 29.8385C8.06445 31.0352 8.72655 32.0691 9.6959 32.6256C9.84107 36.7877 12.4136 40.3425 16.0475 41.8989L15.2378 49.9997H34.762L33.9524 41.8989C37.5862 40.3425 40.1588 36.7877 40.304 32.6256C41.2733 32.0691 41.9354 31.0352 41.9354 29.8385C41.9354 28.0594 40.4886 26.6127 38.7096 26.6127ZM32.9798 48.3868H17.0201L17.6169 42.4167C18.433 42.6215 19.2822 42.7417 20.1612 42.7417H29.8386C30.7177 42.7417 31.5669 42.6215 32.383 42.4167L32.9798 48.3868ZM29.8386 41.1288H20.1612C15.5411 41.1288 11.7354 37.5796 11.3265 33.0643H38.6733C38.2645 37.5796 34.4588 41.1288 29.8386 41.1288ZM38.7096 31.4514H11.2903C10.4007 31.4514 9.67736 30.728 9.67736 29.8385C9.67736 28.9489 10.4007 28.2256 11.2903 28.2256H38.7096C39.5991 28.2256 40.3225 28.9489 40.3225 29.8385C40.3225 30.728 39.5991 31.4514 38.7096 31.4514Z" fill="#21313F"/>
</svg>
