<svg width="40" height="40" viewBox="0 0 40 40" fill="none" xmlns="http://www.w3.org/2000/svg">
<rect width="40" height="40" rx="12" fill="#51D2B5"/>
<path fill-rule="evenodd" clip-rule="evenodd" d="M29.7567 12.1211C29.735 12.326 29.6323 12.5295 29.4676 12.6948L28.0402 14.4502C27.9427 14.5411 27.8196 14.5609 27.732 14.5609C27.6042 14.5609 27.4632 14.5187 27.3361 14.4436L27.1385 14.3257L23.4729 18.069L21.9988 16.7938L25.8422 13.0294L25.7249 12.8318C25.5721 12.5743 25.5702 12.2878 25.7184 12.1284L27.4514 10.7214L27.4737 10.701C27.6602 10.5146 27.8973 10.4072 28.1232 10.4072C28.2293 10.4072 28.3794 10.4316 28.496 10.5488L29.6191 11.6719C29.7271 11.7799 29.7758 11.9393 29.7567 12.1211Z" fill="white"/>
<path fill-rule="evenodd" clip-rule="evenodd" d="M19.5881 25.0939C19.5314 25.1637 19.4715 25.2322 19.4069 25.2975L14.4932 30.2106C13.4683 31.2355 11.8071 31.2355 10.7821 30.2106L9.95814 29.3866C8.93323 28.3617 8.93323 26.7005 9.95814 25.6755L14.7988 20.8342C15.1288 20.8066 15.4595 20.7637 15.7855 20.7012L19.5881 25.0939Z" fill="white"/>
<path fill-rule="evenodd" clip-rule="evenodd" d="M29.2489 29.1862C28.7351 29.7 27.9098 29.9839 27.1484 29.9839C26.5766 29.9839 26.0411 29.8238 25.6986 29.4813L16.3987 18.7355C15.6926 18.9727 14.8811 19.1169 14.0696 19.1169C12.8233 19.1169 11.5778 18.777 10.7142 17.9135C9.27634 16.4763 8.61041 14.6576 9.23418 12.8575L12.079 15.2373L14.97 14.9073L15.1452 12.1718L12.7654 9.32693C13.2732 9.15106 13.7949 9.06543 14.3146 9.06543C15.6359 9.06543 16.9441 9.61938 17.9762 10.6515C19.4023 12.0776 19.4002 14.545 18.7976 16.3366L21.3566 18.5511L22.2465 19.3211L29.5439 25.6359C30.343 26.4355 30.1474 28.2878 29.2489 29.1862Z" fill="white"/>
</svg>
