<svg width="40" height="40" viewBox="0 0 40 40" fill="none" xmlns="http://www.w3.org/2000/svg">
<rect width="40" height="40" rx="12" fill="#2F80ED"/>
<g clip-path="url(#clip0)" style="transform: translate(10px, 8px);">
<path d="M4.80157 1.98127H10.1609C10.4737 1.98127 10.7281 1.72683 10.7281 1.41408C10.7281 0.909187 10.8597 0.424828 11.1065 0H3.85596C4.1028 0.424734 4.23433 0.908906 4.23433 1.41319C4.23433 1.72683 4.48882 1.98127 4.80157 1.98127Z" fill="white"/>
<path d="M5.17188 11.5379V15.0623H9.79062V11.5379L7.48127 9.22852L5.17188 11.5379Z" fill="white"/>
<path d="M13.5485 0.000976562C12.7675 0.000976562 12.1344 0.63407 12.1344 1.41501C12.1344 2.50401 11.2491 3.38845 10.1609 3.38845H4.80159C3.71344 3.38845 2.82806 2.50316 2.82806 1.41501C2.82806 0.63407 2.19497 0.000976562 1.41403 0.000976562C0.633094 0.000976562 0 0.63407 0 1.41501V22.5869C0 23.3678 0.633094 24.0009 1.41403 24.0009H13.5485C14.3294 24.0009 14.9625 23.3678 14.9625 22.5869V1.41501C14.9625 0.63407 14.3294 0.000976562 13.5485 0.000976562ZM10.4937 20.9884H4.46873C4.08042 20.9884 3.76561 20.6736 3.76561 20.2853C3.76561 19.897 4.08042 19.5822 4.46873 19.5822H10.4937C10.882 19.5822 11.1968 19.897 11.1968 20.2853C11.1968 20.6736 10.882 20.9884 10.4937 20.9884ZM11.1968 15.7665C11.1968 16.1549 10.882 16.4697 10.4937 16.4697H4.46873C4.08042 16.4697 3.76561 16.1549 3.76561 15.7665V11.2478C3.76561 11.0613 3.83967 10.8825 3.97158 10.7506L6.98409 7.73812C7.25864 7.46352 7.70386 7.46352 7.97845 7.73812L10.991 10.7506C11.1228 10.8825 11.1969 11.0613 11.1969 11.2478V15.7665H11.1968Z" fill="white"/>
<path d="M18.0249 2.63574C17.6366 2.63574 17.3218 2.95055 17.3218 3.33887C17.3218 3.72718 17.6366 4.04199 18.0249 4.04199C19.0907 4.04199 19.9577 4.90904 19.9577 5.97479C19.9577 6.3631 20.2725 6.67791 20.6608 6.67791C21.0491 6.67791 21.3639 6.3631 21.3639 5.97479C21.364 4.13363 19.8661 2.63574 18.0249 2.63574Z" fill="white"/>
<path d="M18.0249 0C17.6366 0 17.3218 0.314812 17.3218 0.703125C17.3218 1.09144 17.6366 1.40625 18.0249 1.40625C20.5441 1.40625 22.5937 3.45581 22.5937 5.97502C22.5937 6.36333 22.9085 6.67814 23.2968 6.67814C23.6851 6.67814 23.9999 6.36333 23.9999 5.97502C23.9999 2.68036 21.3195 0 18.0249 0V0Z" fill="white"/>
<path d="M18.0249 6.6787C18.4132 6.6787 18.728 6.36391 18.728 5.97558C18.728 5.58726 18.4132 5.27246 18.0249 5.27246C17.6366 5.27246 17.3218 5.58726 17.3218 5.97558C17.3218 6.36391 17.6366 6.6787 18.0249 6.6787Z" fill="white"/>
</g>
<defs>
<clipPath id="clip0">
<rect width="24" height="24" fill="white"/>
</clipPath>
</defs>
</svg>
