<svg width="40" height="40" viewBox="0 0 40 40" fill="none" xmlns="http://www.w3.org/2000/svg">
<rect width="40" height="40" rx="12" fill="#F2C94C"/>
<path fill-rule="evenodd" clip-rule="evenodd" d="M30 18.8H29.9119L28.672 13.8439C28.4467 12.9945 27.6789 12.4023 26.8 12.4H24.74L24.528 11.1439C24.4275 10.4877 23.8641 10.002 23.2 10H16.8C16.1359 10.002 15.5725 10.4877 15.472 11.1439L15.26 12.4H13.2C12.3211 12.4023 11.5533 12.9945 11.328 13.8439L10.0881 18.8H10C8.50391 18.8 8 20.9961 8 22C8 23.332 9.10797 27.6 10.4 27.6V29.6C10.4 29.8208 10.5791 30 10.8 30H15.6C15.8209 30 16 29.8208 16 29.6V27.6H24V29.6C24 29.8208 24.1791 30 24.4 30H29.2C29.4209 30 29.6 29.8208 29.6 29.6V27.6C30.892 27.6 32 23.332 32 22C32 20.9961 31.4961 18.8 30 18.8ZM28.8 23.2C28.8 24.0836 28.0836 24.8 27.2 24.8C26.3164 24.8 25.6 24.0836 25.6 23.2C25.6 22.3164 26.3164 21.6 27.2 21.6C28.0836 21.6 28.8 22.3164 28.8 23.2ZM12.8 21.6C13.6836 21.6 14.4 22.3164 14.4 23.2C14.4 24.0836 13.6836 24.8 12.8 24.8C11.9164 24.8 11.2 24.0836 11.2 23.2C11.2 22.3164 11.9164 21.6 12.8 21.6ZM22.8 24.4H17.2C16.9791 24.4 16.8 24.2208 16.8 24C16.8 23.7791 16.9791 23.6 17.2 23.6H22.8C23.0209 23.6 23.2 23.7791 23.2 24C23.2 24.2208 23.0209 24.4 22.8 24.4ZM22.8 22.8H17.2C16.9791 22.8 16.8 22.6208 16.8 22.4C16.8 22.1791 16.9791 22 17.2 22H22.8C23.0209 22 23.2 22.1791 23.2 22.4C23.2 22.6208 23.0209 22.8 22.8 22.8ZM12 19.6C11.8769 19.6005 11.7603 19.5445 11.6841 19.448C11.6094 19.35 11.583 19.2236 11.6119 19.1039L11.6881 18.8L12.7 14.748C12.8106 14.308 13.2063 13.9995 13.66 14H26.34C26.7937 13.9995 27.1894 14.308 27.3 14.748L28.3119 18.8L28.3881 19.1039C28.417 19.2236 28.3906 19.35 28.3159 19.448C28.2397 19.5445 28.1231 19.6005 28 19.6H12Z" fill="white"/>
</svg>
