<svg width="40" height="40" viewBox="0 0 40 40" fill="none" xmlns="http://www.w3.org/2000/svg">
<rect width="40" height="40" rx="12" fill="#009AC9"/>
<path fill-rule="evenodd" clip-rule="evenodd" d="M11 23C12.6569 23 14 21.6569 14 20C14 18.3431 12.6569 17 11 17C9.34315 17 8 18.3431 8 20C8 21.6569 9.34315 23 11 23Z" fill="white"/>
<path fill-rule="evenodd" clip-rule="evenodd" d="M20 23C21.6569 23 23 21.6569 23 20C23 18.3431 21.6569 17 20 17C18.3431 17 17 18.3431 17 20C17 21.6569 18.3431 23 20 23Z" fill="white"/>
<path fill-rule="evenodd" clip-rule="evenodd" d="M29 23C30.6569 23 32 21.6569 32 20C32 18.3431 30.6569 17 29 17C27.3431 17 26 18.3431 26 20C26 21.6569 27.3431 23 29 23Z" fill="white"/>
</svg>
