<svg width="40" height="40" viewBox="0 0 40 40" fill="none" xmlns="http://www.w3.org/2000/svg">
<rect width="40" height="40" rx="12" fill="#BB6BD9"/>
<path fill-rule="evenodd" clip-rule="evenodd" d="M31.2969 8H29.8438C28.6806 8 27.7344 8.94622 27.7344 10.1094V15.125H26.3281V21.4531C26.3281 22.6163 25.3819 23.5625 24.2188 23.5625H19.2969V24.9688H18.5469C18.1589 24.9688 17.8438 24.6536 17.8438 24.2656V15.125C17.8438 13.5739 16.5824 12.3125 15.0312 12.3125C13.4801 12.3125 12.2188 13.5739 12.2188 15.125V25.0983C11.4021 25.3895 10.8125 26.1627 10.8125 27.0781V27.7812H15.0312V27.0781C15.0312 26.1627 14.4417 25.3895 13.625 25.0983V15.125C13.625 14.3498 14.256 13.7188 15.0312 13.7188C15.8065 13.7188 16.4375 14.3498 16.4375 15.125V24.2656C16.4375 25.4288 17.3837 26.375 18.5469 26.375H19.2969V29.8906C19.2969 31.0538 20.2431 32 21.4062 32H24.2367C23.7905 31.4106 23.5156 30.6851 23.5156 29.8906C23.5156 27.9522 25.0928 26.375 27.0312 26.375C27.8257 26.375 28.5512 26.6499 29.1406 27.0961V10.1094C29.1406 9.72144 29.4558 9.40625 29.8438 9.40625H31.2969C31.6855 9.40625 32 9.09177 32 8.70312C32 8.31448 31.6855 8 31.2969 8Z" fill="white"/>
<path fill-rule="evenodd" clip-rule="evenodd" d="M19.2969 21.4534V22.1565H24.2188C24.6067 22.1565 24.9219 21.8413 24.9219 21.4534V15.1963C21.7665 15.5513 19.2969 18.2046 19.2969 21.4534Z" fill="white"/>
<path fill-rule="evenodd" clip-rule="evenodd" d="M27.0312 32C28.1962 32 29.1406 31.0556 29.1406 29.8906C29.1406 28.7256 28.1962 27.7812 27.0312 27.7812C25.8663 27.7812 24.9219 28.7256 24.9219 29.8906C24.9219 31.0556 25.8663 32 27.0312 32Z" fill="white"/>
<path fill-rule="evenodd" clip-rule="evenodd" d="M15.7344 29.1875H10.1094C8.94439 29.1875 8 30.1319 8 31.2969C8 31.6852 8.31481 32 8.70312 32H17.1406C17.5289 32 17.8438 31.6852 17.8438 31.2969C17.8438 30.1319 16.8994 29.1875 15.7344 29.1875Z" fill="white"/>
</svg>
