<svg width="40" height="40" viewBox="0 0 40 40" fill="none" xmlns="http://www.w3.org/2000/svg">
<rect width="40" height="40" rx="12" fill="#F2994A"/>
<path d="M15.1912 9.01562C14.8355 9.01562 14.5471 9.304 14.5471 9.6597V13.1806H13.0872V9.6597C13.0872 9.304 12.7988 9.01562 12.4431 9.01562C12.0874 9.01562 11.799 9.304 11.799 9.6597V13.1806H10.2962V9.6597C10.2962 9.304 10.0078 9.01562 9.65213 9.01562C9.29643 9.01562 9.00806 9.304 9.00806 9.6597V13.8247C9.00806 14.1804 9.29643 14.4688 9.65213 14.4688H11.799V16.0347C11.0012 16.3042 10.425 17.0592 10.425 17.9468V28.939C10.425 29.4755 10.6316 29.9865 11.0066 30.3777C11.8024 31.2079 13.0836 31.2082 13.8797 30.3777C14.2547 29.9865 14.4612 29.4755 14.4612 28.939V17.9468C14.4612 17.0592 13.885 16.3042 13.0872 16.0347V14.4688H15.1912C15.5469 14.4688 15.8352 14.1804 15.8352 13.8247V9.6597C15.8352 9.304 15.5469 9.01562 15.1912 9.01562Z" fill="white"/>
<path d="M20.6443 24.249V22.6049C21.4421 22.3355 22.0184 21.5804 22.0184 20.6929V11.0318C22.0184 9.91898 21.1131 9.01367 20.0003 9.01367C18.8875 9.01367 17.9822 9.91898 17.9822 11.0318V20.6929C17.9822 21.5804 18.5584 22.3355 19.3562 22.6049V24.249C18.1746 24.5388 17.2952 25.6063 17.2952 26.876C17.2952 28.2068 18.3285 30.998 20.0003 30.998C20.7708 30.998 21.473 30.4232 22.0307 29.3357C22.4406 28.5367 22.7054 27.5711 22.7054 26.876C22.7054 25.6063 21.8259 24.5388 20.6443 24.249Z" fill="white"/>
<path d="M30.9922 22.3678C30.9922 21.6154 30.9922 10.1432 30.9922 9.6585C30.9922 9.322 30.7325 9.04217 30.3971 9.01628C27.1653 8.7705 24.165 11.3367 24.165 14.7867V21.7241C24.165 22.0798 24.4534 22.3682 24.8091 22.3682C25.6493 22.3682 24.6121 22.3678 30.9922 22.3678Z" fill="white"/>
<path d="M26.9133 23.6562V28.938C26.9133 29.9906 27.7385 30.9991 28.9744 30.9991C30.0873 30.9991 30.9925 30.0565 30.9925 28.938V23.6562H26.9133Z" fill="white"/>
</svg>
