<svg width="40" height="40" viewBox="0 0 40 40" fill="none" xmlns="http://www.w3.org/2000/svg">
<rect width="40" height="40" rx="12" fill="#FA7268"/>
<path d="M11.6249 25L10.7429 22.956H6.37494L5.49294 25H2.90294L7.50894 15.13H9.55294L14.1729 25H11.6249ZM7.20094 21.024H9.91694L8.55894 17.86L7.20094 21.024ZM22.7373 15.13H24.7253V25H22.4853V19.82L20.5813 23.362H18.9293L17.0393 19.904L17.0253 25H14.7853V15.13H16.8153L19.7833 20.744L22.7373 15.13ZM31.2325 25.126C30.2245 25.126 29.3472 24.9207 28.6005 24.51C27.8632 24.09 27.2938 23.502 26.8925 22.746C26.4912 21.9807 26.2905 21.0847 26.2905 20.058C26.2905 19.0313 26.4912 18.14 26.8925 17.384C27.2938 16.6187 27.8632 16.0307 28.6005 15.62C29.3472 15.2093 30.2245 15.004 31.2325 15.004C32.2405 15.004 33.1132 15.2093 33.8505 15.62C34.5972 16.0307 35.1665 16.6187 35.5585 17.384C35.9598 18.14 36.1605 19.0313 36.1605 20.058C36.1605 21.0847 35.9598 21.9807 35.5585 22.746C35.1572 23.502 34.5832 24.09 33.8365 24.51C33.0992 24.9207 32.2312 25.126 31.2325 25.126ZM31.2325 23.152C31.9792 23.152 32.5625 22.8907 32.9825 22.368C33.4025 21.836 33.6125 21.066 33.6125 20.058C33.6125 19.05 33.3978 18.2847 32.9685 17.762C32.5485 17.2393 31.9698 16.978 31.2325 16.978C30.4858 16.978 29.9025 17.2393 29.4825 17.762C29.0625 18.2753 28.8525 19.0407 28.8525 20.058C28.8525 21.0753 29.0625 21.8453 29.4825 22.368C29.9025 22.8907 30.4858 23.152 31.2325 23.152Z" fill="white"/>
</svg>
