<svg width="32" height="32" viewBox="0 0 32 32" fill="none" xmlns="http://www.w3.org/2000/svg">
<path d="M29.422 9.90389L22.506 8.31287L18.8825 2.29135L18.8596 2.25709C18.58 1.78045 18.1859 1.38117 17.7131 1.09523C16.1427 0.145563 14.0999 0.648752 13.1502 2.21903L9.49621 8.30906L2.60686 9.90389H2.57641L2.50028 9.92673C1.99985 10.0541 1.53606 10.2964 1.14582 10.6345C-0.239664 11.8347 -0.389916 13.9308 0.810296 15.3164L5.46156 20.6756L4.83733 27.7743C4.83343 27.8187 4.83343 27.8632 4.83733 27.9076C4.82782 28.1303 4.84057 28.3535 4.87539 28.5737C4.9185 28.8352 4.99263 29.0908 5.09616 29.3349L5.09977 29.3436C5.81174 31.0282 7.75446 31.8167 9.43911 31.1048L15.9859 28.3301L22.2663 30.9944C22.8318 31.2935 23.4707 31.4255 24.1085 31.3751C25.9346 31.2195 27.2939 29.6208 27.1535 27.7934V27.7629L26.5293 20.6718L31.0968 15.423C31.4993 14.9946 31.7811 14.4673 31.9135 13.8947C32.3276 12.1046 31.212 10.3178 29.422 9.90389Z" fill="#DEE0E2"/>
</svg>
