<?xml version="1.0" encoding="utf-8"?>
<!-- Generator: Adobe Illustrator 19.0.0, SVG Export Plug-In . SVG Version: 6.00 Build 0)  -->
<svg version="1.1" id="Layer_1" xmlns="http://www.w3.org/2000/svg" xmlns:xlink="http://www.w3.org/1999/xlink" x="0px" y="0px" width="32" height="32"
	 viewBox="-289 381 32 32" style="enable-background:new -289 381 32 32;" xml:space="preserve">
<style type="text/css">
	.st0{fill:#DEE0E2;}
	.st1{fill:#F2C94C;}
</style>
<g>
	<path class="st0" d="M-259.5,390.8l-6.9-1.6l-3.6-6l0,0c-0.3-0.5-0.7-0.9-1.1-1.2c-1.6-0.9-3.6-0.4-4.6,1.1l-3.7,6.1l-6.9,1.6l0,0
		h-0.1c-0.5,0.1-1,0.4-1.4,0.7c-1.4,1.2-1.5,3.3-0.3,4.7l4.7,5.4l-0.6,7.1v0.1c0,0.2,0,0.4,0,0.7c0,0.3,0.1,0.5,0.2,0.8l0,0
		c0.7,1.7,2.7,2.5,4.3,1.8l6.5-2.8l6.3,2.7c0.6,0.3,1.2,0.4,1.8,0.4c1.8-0.2,3.2-1.8,3-3.6l0,0l-0.6-7.1l4.6-5.2
		c0.4-0.4,0.7-1,0.8-1.5C-256.6,393-257.7,391.2-259.5,390.8z"/>
	<path class="st1" d="M-272.9,381.5c-1.1,0-2.2,0.5-2.8,1.6l-3.7,6.1l-6.9,1.6l0,0h-0.1c-0.5,0.1-1,0.4-1.4,0.7
		c-1.4,1.2-1.5,3.3-0.3,4.7l4.7,5.4l-0.6,7.1v0.1c0,0.2,0,0.4,0,0.7c0,0.3,0.1,0.5,0.2,0.8l0,0c0.7,1.7,2.7,2.5,4.3,1.8l6.5-2.8"/>
</g>
</svg>
