<svg width="113" height="86" viewBox="0 0 113 86" fill="none" xmlns="http://www.w3.org/2000/svg">
<path opacity="0.5" d="M107.674 48.9184C107.306 52.6531 106.858 56.3877 106.332 60.1224C105.543 65.5666 104.255 70.6689 104.728 76.1393C104.965 78.1908 105.254 80.4263 105.359 82.6618C105.386 83.0826 105.386 83.4771 105.386 83.8979H12.5452C12.2033 83.5034 11.8614 83.1089 11.5458 82.6618C7.83743 77.5858 7.62703 71.5368 9.20505 65.6981C10.9935 59.0441 12.8871 52.2849 19.6463 49.234C22.4605 47.9716 25.5113 47.1826 28.0887 45.5257C34.1904 41.6332 34.8742 34.1902 37.2413 27.9833C38.53 24.5643 40.3184 21.2241 43.1063 18.8834C56.914 7.17969 69.7486 27.8781 83.8982 26.9313C89.3424 26.5631 95.2863 22.0131 100.599 24.8273C107.7 28.5882 108.594 36.6624 108.068 43.8161C107.989 45.4731 107.832 47.1826 107.674 48.9184Z" fill="white"/>
<path d="M89.2899 52.7581C89.0795 53.1789 88.9217 53.6261 88.8165 54.0732C88.7113 54.5203 88.6324 54.9674 88.5798 55.4408C88.5535 55.7301 88.6061 56.1509 88.4483 56.4139C88.6587 56.598 88.948 56.7558 89.1847 56.9399C88.8165 56.9136 88.6587 56.861 88.5798 57.2555C88.4746 58.0445 88.5009 58.8072 88.422 59.5962C88.3957 59.9645 88.3694 60.3327 88.2642 60.7009C88.159 60.9639 87.9223 61.2795 87.9749 61.5951C88.0275 61.9633 89.1058 62.1474 89.3951 62.3052C89.0532 62.4104 88.4483 62.5156 88.1064 62.3578C88.2116 62.5682 88.4746 62.7523 88.6587 62.8838C88.3694 62.8312 88.0801 62.7523 87.8171 62.726C87.7382 62.9627 87.5804 63.1994 87.5015 63.4361C87.37 63.7517 87.2385 64.041 87.107 64.3566C86.9492 64.7774 86.3706 65.6716 86.5547 66.1451C86.7125 66.5922 87.7119 67.3286 88.1853 67.3549C87.633 67.4864 86.6336 67.1708 86.2654 66.7763C85.8446 67.539 85.6079 68.6436 85.5553 69.5115C85.5027 70.4583 86.0024 71.2473 86.7651 71.5103C87.1596 71.6418 87.6067 71.6418 88.0538 71.4314C88.1327 71.2736 88.2116 71.1158 88.2905 70.958C88.685 70.1953 89.0269 69.4063 89.2899 68.591C89.8423 66.9604 90.1842 65.2771 90.3683 63.5939C90.7365 60.1749 89.9475 56.8873 89.6845 53.4945C89.6845 53.4682 89.7108 53.4682 89.7108 53.4945C89.8949 55.3619 90.2894 57.1766 90.5524 59.0176C90.7628 60.6483 90.8154 62.3052 90.6313 63.9358C90.4472 65.6453 90.0527 67.3286 89.5003 68.9592C89.1584 69.9586 88.8165 71.0895 88.3168 72.0626C88.6061 72.7202 89.3951 73.1936 90.1053 73.2462C91.0521 73.3251 91.7622 72.7202 92.2093 71.9311C92.4197 71.5892 92.5775 71.1684 92.7616 70.8002C92.9194 70.4846 92.9194 70.0112 93.1561 69.7482C92.8931 69.5378 92.5775 69.4063 92.3145 69.2222C92.6038 69.117 92.9983 69.1696 93.3139 69.1696C93.3402 68.8803 93.5769 68.2754 93.5243 68.0124C93.4454 67.7494 92.8668 67.539 92.6301 67.4338C92.8931 67.3286 93.2087 67.3023 93.4717 67.3023C93.8925 66.6448 93.9188 65.5927 93.9977 64.8563C94.0503 64.304 93.9977 63.6991 94.0503 63.1468C93.6558 63.1205 93.235 63.0416 92.8142 63.0153C92.2882 62.989 91.7622 63.0153 91.2625 62.8312C91.6307 62.7523 91.9989 62.6997 92.3408 62.6471C92.8931 62.5945 93.3928 62.3315 93.9451 62.2526C93.8925 61.9896 93.9714 61.7529 93.9451 61.5162C93.9451 61.2795 93.7873 59.1754 93.5769 59.228C93.1035 59.2806 92.6038 59.228 92.1304 59.3069C92.3934 59.1491 92.709 58.9124 92.972 58.7546C92.709 58.7809 92.3145 58.7283 92.0778 58.7283C92.2882 58.5705 92.8931 58.1234 93.1561 58.2286C92.8668 57.8867 92.7616 57.4659 92.6301 57.0451C92.4986 56.6506 92.3145 56.3087 92.1041 55.9668C91.9463 55.7301 91.7359 55.4934 91.6307 55.2567C91.4203 55.3619 90.9995 55.1778 90.7628 55.1778C90.8943 54.9937 91.1573 54.8096 91.3414 54.6518C90.8154 53.6787 90.079 52.9159 90.0264 51.7324C90.0001 51.8902 89.3688 52.574 89.2899 52.7581Z" fill="#009AC9"/>
<path d="M89.6843 53.4157C89.9473 56.8085 90.7364 60.096 90.3682 63.5151C90.1841 65.2246 89.8421 66.8815 89.2898 68.5122C89.0005 69.3275 88.6586 70.1165 88.2904 70.8792C88.2115 71.037 88.1326 71.1948 88.0537 71.3526C88.1063 71.3263 88.1326 71.3263 88.1852 71.3C88.1589 71.563 88.2115 71.7997 88.3167 72.0101C88.8427 71.037 89.1846 69.9324 89.5002 68.9067C90.0525 67.276 90.4471 65.5928 90.6312 63.8833C90.8153 62.2264 90.7627 60.5957 90.5523 58.9651C90.2893 57.1241 89.8947 55.283 89.7106 53.442C89.7369 53.3894 89.6843 53.3894 89.6843 53.4157Z" fill="#2A519E"/>
<path d="M82.8989 79.3477C82.6885 79.5581 83.3986 80.0841 83.609 79.8737C84.0035 79.4792 88.0538 72.5096 88.3168 72.0099C88.2116 71.7995 88.1853 71.5628 88.1853 71.2998C88.1327 71.3261 88.1064 71.3524 88.0538 71.3524C87.7645 71.9573 83.346 78.8217 82.8989 79.3477Z" fill="#56548C"/>
<path d="M102.388 75.7714C102.125 76.0081 101.835 76.2185 101.546 76.4026C101.23 76.5867 100.941 76.7445 100.599 76.876C100.389 76.9549 100.073 77.0075 99.9153 77.1916C99.7312 77.0601 99.5471 76.9023 99.363 76.7708C99.4682 77.0338 99.5471 77.139 99.2578 77.2705C98.7055 77.5072 98.1269 77.665 97.6009 77.9017C97.3379 78.0069 97.0749 78.1121 96.8382 78.2699C96.6541 78.4014 96.4963 78.6381 96.2595 78.6907C95.9702 78.7433 95.602 77.9806 95.4179 77.8228C95.4179 78.0858 95.4705 78.5592 95.6809 78.7696C95.5231 78.7433 95.3127 78.5855 95.1812 78.4803C95.2864 78.6907 95.4179 78.8748 95.4968 79.0589C95.339 79.1641 95.2075 79.3219 95.0497 79.4534C94.8393 79.6112 94.6815 79.769 94.4711 79.9268C94.1818 80.1372 93.6821 80.7421 93.2876 80.7158C92.9194 80.6895 92.1567 80.1372 92.0515 79.7953C92.0778 80.2161 92.5249 80.9 92.8931 81.0578C92.446 81.5312 91.6833 81.952 91.0784 82.1887C90.3946 82.4517 89.7108 82.2413 89.3426 81.7416C89.1585 81.4786 89.0795 81.163 89.1059 80.7948C89.1848 80.6895 89.29 80.6106 89.3952 80.5054C89.8686 80.0583 90.3683 79.6375 90.8943 79.243C91.9463 78.4803 93.1035 77.8491 94.3133 77.3494C96.7067 76.3237 99.2841 76.1659 101.809 75.6136C101.835 75.6136 101.835 75.5873 101.809 75.5873C100.415 75.8503 98.9948 75.9818 97.6009 76.2185C96.3648 76.4289 95.1549 76.7708 93.9977 77.2705C92.7879 77.7965 91.657 78.454 90.5787 79.2167C89.9212 79.6901 89.1848 80.1898 88.5798 80.7684C88.0275 80.7158 87.5278 80.2424 87.3437 79.7427C87.0807 79.0589 87.37 78.4014 87.8171 77.9017C88.0275 77.665 88.2905 77.4546 88.5009 77.2442C88.7113 77.0601 89.027 76.9549 89.1848 76.7182C89.3952 76.8497 89.553 77.0601 89.7634 77.2179C89.7634 76.9812 89.6582 76.7182 89.5793 76.4815C89.7897 76.4026 90.1579 76.087 90.3683 76.087C90.5787 76.087 90.8417 76.4552 90.9995 76.613C90.9995 76.4026 90.9732 76.1659 90.8943 75.9555C91.2625 75.5084 92.0252 75.2454 92.5512 75.035C92.9457 74.8771 93.3928 74.7983 93.7873 74.6142C93.8925 74.9035 94.0503 75.1928 94.1555 75.4821C94.287 75.8503 94.3922 76.2448 94.6289 76.5867C94.6026 76.2974 94.5763 76.0344 94.5237 75.7451C94.4448 75.3243 94.5237 74.9035 94.4448 74.4827C94.6289 74.4563 94.7867 74.3511 94.9708 74.3248C95.1549 74.2722 96.7066 73.9303 96.733 74.0881C96.7856 74.43 96.9434 74.7982 96.996 75.1665C97.0486 74.9298 97.1538 74.6404 97.2064 74.43C97.2327 74.6404 97.3905 74.9035 97.4168 75.0613C97.4694 74.8772 97.6798 74.3248 97.522 74.167C97.8376 74.2985 98.1795 74.2985 98.4951 74.2985C98.8107 74.2985 99.1 74.3774 99.4156 74.43C99.626 74.4826 99.8364 74.5879 100.047 74.6142C100.02 74.7983 100.231 75.0613 100.283 75.2454C100.389 75.1139 100.468 74.8772 100.52 74.6931C101.336 74.8509 102.072 75.2191 102.94 75.0087C102.861 75.0613 102.519 75.6399 102.388 75.7714Z" fill="#009AC9"/>
<path d="M101.835 75.6134C99.3104 76.1657 96.733 76.3235 94.3397 77.3492C93.1299 77.8489 91.999 78.4801 90.9206 79.2428C90.3946 79.6373 89.8949 80.0581 89.4215 80.5052C89.3163 80.6104 89.2374 80.6893 89.1322 80.7945C89.1322 80.7682 89.1322 80.7156 89.1322 80.6893C88.9481 80.7682 88.764 80.7945 88.6062 80.7682C89.2111 80.1633 89.9475 79.6899 90.605 79.2165C91.657 78.4538 92.8143 77.7963 94.0241 77.2703C95.1813 76.7706 96.3911 76.4287 97.6272 76.2183C99.0211 75.9816 100.441 75.8764 101.835 75.5871C101.835 75.5608 101.835 75.5871 101.835 75.6134Z" fill="#0086AF"/>
<path d="M95.6546 63.5937C95.4179 63.8041 95.2075 64.0408 95.0234 64.3038C94.8393 64.5668 94.6815 64.8298 94.5237 65.0928C94.4448 65.2769 94.3659 65.54 94.2081 65.6715C94.3133 65.8556 94.4448 66.0134 94.55 66.1975C94.3133 66.0923 94.2344 66.0134 94.1029 66.2501C93.8399 66.7235 93.6558 67.2232 93.4191 67.6703C93.3139 67.8807 93.2087 68.1174 93.0509 68.3278C92.9194 68.4856 92.6827 68.6171 92.6301 68.8012C92.5775 69.0379 93.2087 69.4324 93.3402 69.6165C93.1035 69.5902 92.6827 69.5113 92.5248 69.3272C92.5511 69.485 92.6564 69.6691 92.7353 69.8006C92.5775 69.6954 92.4196 69.5639 92.2618 69.485C92.1566 69.6165 91.9988 69.7217 91.8673 69.8532C91.7095 70.011 91.5517 70.1688 91.3939 70.3266C91.1835 70.5633 90.6049 70.9841 90.6049 71.2997C90.6049 71.6153 91.0257 72.3518 91.315 72.4833C90.9468 72.4307 90.3945 71.9835 90.263 71.6153C89.7896 71.9835 89.3688 72.6148 89.1058 73.1408C88.8428 73.7194 88.948 74.3506 89.3688 74.6925C89.5792 74.8766 89.8685 74.9818 90.2104 74.9818C90.3156 74.9029 90.3945 74.824 90.4734 74.7451C90.9205 74.3506 91.315 73.9561 91.7095 73.509C92.4723 72.6148 93.1035 71.6679 93.6558 70.6422C94.7604 68.5908 95.1023 66.329 95.7861 64.146C95.7861 64.1197 95.8124 64.146 95.8124 64.146C95.4705 65.3558 95.2338 66.592 94.9182 67.8281C94.6289 68.9064 94.2344 69.9584 93.7084 70.9315C93.1561 71.9573 92.4723 72.9041 91.7095 73.7983C91.2361 74.3506 90.7364 74.9555 90.1841 75.4289C90.1841 75.9286 90.5786 76.402 90.9994 76.6124C91.578 76.9017 92.1829 76.6913 92.6564 76.3231C92.8668 76.1653 93.0772 75.9286 93.2876 75.7708C93.4717 75.613 93.5769 75.3237 93.8136 75.2185C93.7084 75.0081 93.5506 74.8503 93.4191 74.6662C93.6295 74.6662 93.8662 74.7977 94.0503 74.8766C94.1555 74.6925 94.4448 74.4032 94.4711 74.1928C94.4974 74.0087 94.1818 73.7457 94.0503 73.6142C94.2344 73.6142 94.4448 73.6668 94.6289 73.7457C95.0497 73.4564 95.339 72.7989 95.5757 72.3518C95.7335 72.0099 95.865 71.6153 96.0491 71.2997C95.8124 71.1682 95.5757 71.0104 95.3127 70.9052C94.9971 70.7737 94.6552 70.6422 94.3922 70.4055C94.6289 70.4581 94.8919 70.5107 95.1286 70.5633C95.4968 70.6685 95.865 70.6159 96.2332 70.7211C96.2595 70.5633 96.3647 70.4318 96.4173 70.274C96.4699 70.1162 96.917 68.7749 96.7592 68.7486C96.4436 68.6697 96.1543 68.5119 95.8387 68.433C96.0491 68.4067 96.3121 68.3278 96.4962 68.3015C96.3121 68.2489 96.0754 68.1174 95.9439 68.0648C96.128 68.0122 96.6014 67.907 96.7329 68.0385C96.654 67.7492 96.6803 67.4599 96.7066 67.1706C96.7329 66.9076 96.7066 66.6183 96.654 66.3553C96.6277 66.1712 96.5488 65.9608 96.5488 65.803C96.391 65.8293 96.1543 65.5926 96.0228 65.54C96.1543 65.4611 96.3647 65.4085 96.5225 65.3559C96.4436 64.6194 96.1806 63.9356 96.4436 63.1992C96.3384 63.2255 95.7598 63.5148 95.6546 63.5937Z" fill="#009AC9"/>
<path d="M95.76 64.1193C95.0762 66.3023 94.7343 68.5904 93.6297 70.6155C93.0774 71.6413 92.4462 72.6144 91.6835 73.4823C91.2889 73.9294 90.8944 74.3239 90.4473 74.7184C90.3684 74.7973 90.2632 74.8762 90.1843 74.9551C90.2106 74.9551 90.2369 74.9551 90.2895 74.9551C90.2106 75.1129 90.1843 75.2707 90.1843 75.4285C90.7629 74.9551 91.2626 74.3239 91.7098 73.7979C92.4725 72.9037 93.1563 71.9569 93.7086 70.9312C94.2346 69.9317 94.6291 68.906 94.9184 67.8277C95.2077 66.5916 95.4181 65.3292 95.76 64.1193C95.7863 64.093 95.76 64.093 95.76 64.1193Z" fill="#0086AF"/>
<path d="M84.9242 78.6108C84.74 78.6897 85.082 79.242 85.2661 79.1631C85.6343 79.0053 89.8686 75.6915 90.1842 75.4285C90.1842 75.2707 90.2105 75.1129 90.2894 74.9551C90.2631 74.9551 90.2368 74.9551 90.1842 74.9551C89.816 75.2707 85.345 78.4004 84.9242 78.6108Z" fill="#3458B2"/>
<path d="M89.6843 70.4059C89.6843 70.4059 92.8667 71.1686 94.997 70.0903C94.997 70.064 91.8936 69.3802 89.6843 70.4059Z" fill="#FFD776"/>
<path d="M89.6844 70.4056C89.6844 70.4056 90.5523 67.8282 89.4477 65.9346C89.4214 65.9346 88.7113 68.249 89.6844 70.4056Z" fill="#FFD776"/>
<path d="M90.7627 69.2218C90.7627 69.2218 93.419 69.5111 95.4442 68.538C95.4442 68.538 92.9982 67.9857 90.7627 69.2218Z" fill="#FFD776"/>
<path d="M90.7626 69.222C90.7626 69.222 91.5516 67.1969 90.4996 64.7246C90.4996 64.7246 90.1314 67.2758 90.7626 69.222Z" fill="#FFD776"/>
<path d="M91.8147 67.9603C91.8147 67.9603 94.4447 68.3022 96.1543 67.145C96.1543 67.145 94.1554 66.7768 91.8147 67.9603Z" fill="#FFD776"/>
<path d="M91.8146 67.9599C91.8146 67.9599 90.9204 65.3562 91.1571 63.3311C91.1571 63.3311 92.7351 65.8033 91.8146 67.9599Z" fill="#FFD776"/>
<path d="M92.7615 66.6975C92.7615 66.6975 95.6282 66.4345 97.4956 65.3036C97.5219 65.3036 94.8655 65.1721 92.7615 66.6975Z" fill="#FFD776"/>
<path d="M92.7615 66.6972C92.7615 66.6972 93.3664 64.5669 92.1565 62.0684C92.1565 62.0684 92.1039 65.1192 92.7615 66.6972Z" fill="#FFD776"/>
<path d="M93.6294 65.4083C93.6294 65.4083 96.0227 65.382 97.4693 64.1196C97.4956 64.0933 95.3389 64.067 93.6294 65.4083Z" fill="#FFD776"/>
<path d="M93.6294 65.4089C93.6294 65.4089 92.6826 63.489 92.6826 61.0693C92.7089 61.0693 93.8398 63.1997 93.6294 65.4089Z" fill="#FFD776"/>
<path d="M94.4446 64.0152C94.4446 64.0152 97.3377 63.7522 98.679 62.3057C98.6527 62.3057 96.2067 62.6739 94.4446 64.0152Z" fill="#FFD776"/>
<path d="M94.4446 64.0143C94.4446 64.0143 93.603 62.6467 93.1559 60.4111C93.1296 60.4374 94.4183 61.7787 94.4446 64.0143Z" fill="#FFD776"/>
<path d="M95.0496 62.8314C95.0496 62.8314 97.1799 62.6736 98.5738 61.3322C98.5738 61.3322 96.6802 61.2796 95.0496 62.8314Z" fill="#FFD776"/>
<path d="M95.0496 62.8311C95.0496 62.8311 93.9713 61.0953 93.3401 59.0176C93.3401 59.0176 95.1285 61.1216 95.0496 62.8311Z" fill="#FFD776"/>
<path d="M95.4968 61.8058C95.4968 61.8058 97.8902 61.2535 98.574 59.9385C98.574 59.9385 96.7329 60.4382 95.4968 61.8058Z" fill="#FFD776"/>
<path d="M95.4967 61.8056C95.4967 61.8056 94.4973 60.6221 93.9976 58.7021C93.9976 58.7021 95.3652 59.7016 95.4967 61.8056Z" fill="#FFD776"/>
<path d="M95.7073 61.2533C95.7073 61.2533 97.1012 60.2276 96.733 57.9395C96.733 57.9395 95.7073 59.1493 95.7073 61.2533Z" fill="#FFD776"/>
<path d="M88.1063 71.9313C89.7895 70.4848 91.2887 68.8542 92.6037 67.0657C93.2612 66.1715 93.8398 65.2247 94.3658 64.2516L94.5762 63.8834C94.6288 63.7519 94.7077 63.6467 94.7603 63.5152L94.9444 63.147L95.1285 62.7788C95.3653 62.2791 95.5757 61.7531 95.7335 61.227C95.7861 61.0692 95.7335 61.0429 95.6546 61.2007C95.4705 61.7268 95.2338 62.2265 94.997 62.6999L94.8129 63.0681L94.6288 63.4363C94.5762 63.5678 94.4973 63.673 94.4447 63.8045L94.2343 64.1727C93.682 65.1195 93.0771 66.04 92.4459 66.9342C91.1572 68.6963 89.6843 70.3533 88.0537 71.8524C87.9222 72.0102 87.9748 72.0628 88.1063 71.9313Z" fill="#FFD776"/>
<path d="M88.9216 75.561C88.9216 75.561 90.447 76.6393 91.8147 76.5078C91.7884 76.5078 90.3155 75.4821 88.9216 75.561Z" fill="#FFD776"/>
<path d="M88.9215 75.5602C88.9215 75.5602 89.9209 74.3767 89.7368 73.1406C89.7368 73.1406 88.8689 74.2189 88.9215 75.5602Z" fill="#FFD776"/>
<path d="M89.7368 75.1667C89.7368 75.1667 91.0781 75.8768 92.3669 75.7979C92.3669 75.7979 91.1833 74.9826 89.7368 75.1667Z" fill="#FFD776"/>
<path d="M89.7368 75.1666C89.7368 75.1666 90.5785 74.2724 90.5259 72.7207C90.5522 72.747 89.8157 74.0094 89.7368 75.1666Z" fill="#FFD776"/>
<path d="M90.5522 74.7192C90.5522 74.7192 91.8673 75.4556 93.0245 75.1926C93.0245 75.2189 92.0514 74.5877 90.5522 74.7192Z" fill="#FFD776"/>
<path d="M90.5522 74.719C90.5522 74.719 90.6312 73.141 91.1835 72.1152C91.1835 72.1415 91.4991 73.7722 90.5522 74.719Z" fill="#FFD776"/>
<path d="M91.3411 74.2453C91.3411 74.2453 92.9191 74.6924 94.1552 74.5083C94.1289 74.5083 92.7613 73.9034 91.3411 74.2453Z" fill="#FFD776"/>
<path d="M91.3411 74.2454C91.3411 74.2454 92.1038 73.246 91.9986 71.668C91.9986 71.668 91.3148 73.2723 91.3411 74.2454Z" fill="#FFD776"/>
<path d="M92.0513 73.7461C92.0513 73.7461 93.34 74.2458 94.3657 73.8776C94.3657 73.8776 93.2348 73.4042 92.0513 73.7461Z" fill="#FFD776"/>
<path d="M92.0513 73.7456C92.0513 73.7456 91.9461 72.5095 92.4721 71.2471C92.4721 71.2471 92.6299 72.641 92.0513 73.7456Z" fill="#FFD776"/>
<path d="M92.7876 73.1933C92.7876 73.1933 94.3656 73.6666 95.3913 73.167C95.3913 73.167 93.9974 72.8514 92.7876 73.1933Z" fill="#FFD776"/>
<path d="M92.7876 73.1936C92.7876 73.1936 92.6298 72.2994 92.8665 71.0107C92.8402 71.0107 93.261 71.9838 92.7876 73.1936Z" fill="#FFD776"/>
<path d="M93.3662 72.6678C93.3662 72.6678 94.5234 73.036 95.5491 72.6152C95.5491 72.6415 94.5497 72.1944 93.3662 72.6678Z" fill="#FFD776"/>
<path d="M93.3663 72.6678C93.3663 72.6678 93.1559 71.5105 93.2611 70.2744C93.2611 70.3007 93.7608 71.7998 93.3663 72.6678Z" fill="#FFD776"/>
<path d="M93.8135 72.2209C93.8135 72.2209 95.1811 72.4313 95.8386 71.8789C95.8386 71.8789 94.7603 71.7737 93.8135 72.2209Z" fill="#FFD776"/>
<path d="M93.8134 72.2206C93.8134 72.2206 93.5241 71.379 93.6819 70.248C93.6819 70.2743 94.1816 71.0897 93.8134 72.2206Z" fill="#FFD776"/>
<path d="M94.0239 71.9835C94.0239 71.9835 94.9707 71.7204 95.26 70.458C95.2863 70.458 94.471 70.8788 94.0239 71.9835Z" fill="#FFD776"/>
<path d="M87.7643 76.0607C88.9478 75.6399 90.1051 75.1139 91.1571 74.4301C91.6831 74.0882 92.2091 73.72 92.6825 73.3255L92.8666 73.1677C92.9192 73.1151 92.9718 73.0625 93.0507 73.0099L93.2348 72.8521L93.4189 72.6943C93.6556 72.4839 93.866 72.2472 94.0764 72.0105C94.129 71.9316 94.1027 71.9053 94.0501 71.9842C93.8397 72.2209 93.603 72.4313 93.3926 72.6417L93.2085 72.7995L93.0244 72.9573C92.9718 73.0099 92.8929 73.0625 92.8403 73.1151L92.6562 73.2729C92.1565 73.6674 91.6568 74.0356 91.1308 74.3512C90.0788 75.0087 88.9478 75.5873 87.7643 76.0344C87.6328 76.0607 87.6591 76.087 87.7643 76.0607Z" fill="#FFD776"/>
<path d="M28.8252 70.0377C28.8252 70.0377 25.827 70.7478 23.8281 69.7221C23.8281 69.7221 26.7475 69.0645 28.8252 70.0377Z" fill="#FFD776"/>
<path d="M28.8252 70.0372C28.8252 70.0372 28.0099 67.6175 29.0619 65.8291C29.0619 65.8291 29.7457 67.9857 28.8252 70.0372Z" fill="#FFD776"/>
<path d="M27.7996 68.9332C27.7996 68.9332 25.3011 69.2225 23.4075 68.2757C23.4075 68.2757 25.6956 67.7497 27.7996 68.9332Z" fill="#FFD776"/>
<path d="M27.7994 68.9326C27.7994 68.9326 27.063 67.0127 28.0624 64.6982C28.0624 64.6982 28.4043 67.0916 27.7994 68.9326Z" fill="#FFD776"/>
<path d="M26.8263 67.7497C26.8263 67.7497 24.3541 68.0916 22.7498 66.987C22.7235 66.987 24.6171 66.6188 26.8263 67.7497Z" fill="#FFD776"/>
<path d="M26.8265 67.7497C26.8265 67.7497 27.6681 65.2774 27.4577 63.3838C27.4314 63.3838 25.9586 65.6982 26.8265 67.7497Z" fill="#FFD776"/>
<path d="M25.9323 66.54C25.9323 66.54 23.2233 66.277 21.4612 65.2513C21.4612 65.2513 23.9334 65.1198 25.9323 66.54Z" fill="#FFD776"/>
<path d="M25.9322 66.5397C25.9322 66.5397 25.3799 64.5409 26.5108 62.1738C26.4845 62.1738 26.5371 65.0669 25.9322 66.5397Z" fill="#FFD776"/>
<path d="M25.117 65.3296C25.117 65.3296 22.8552 65.3033 21.4875 64.1198C21.4875 64.0935 23.5127 64.0672 25.117 65.3296Z" fill="#FFD776"/>
<path d="M25.1168 65.3295C25.1168 65.3295 26.011 63.5148 25.9847 61.2529C25.9847 61.2529 24.9064 63.2518 25.1168 65.3295Z" fill="#FFD776"/>
<path d="M24.3542 64.0413C24.3542 64.0413 21.6452 63.8046 20.3828 62.4369C20.3828 62.4106 22.6972 62.7525 24.3542 64.0413Z" fill="#FFD776"/>
<path d="M24.3542 64.0412C24.3542 64.0412 25.1433 62.7525 25.5904 60.6484C25.5641 60.6484 24.3542 61.9109 24.3542 64.0412Z" fill="#FFD776"/>
<path d="M23.7755 62.9107C23.7755 62.9107 21.7766 62.7792 20.4353 61.4905C20.4353 61.4905 22.2237 61.4379 23.7755 62.9107Z" fill="#FFD776"/>
<path d="M23.7756 62.9101C23.7756 62.9101 24.8014 61.2795 25.38 59.3333C25.38 59.307 23.6967 61.3058 23.7756 62.9101Z" fill="#FFD776"/>
<path d="M23.3547 61.9369C23.3547 61.9369 21.1192 61.4109 20.4617 60.1748C20.4617 60.1748 22.1975 60.6482 23.3547 61.9369Z" fill="#FFD776"/>
<path d="M23.3547 61.9369C23.3547 61.9369 24.3016 60.806 24.7487 59.0176C24.7487 59.0176 23.4862 59.9381 23.3547 61.9369Z" fill="#FFD776"/>
<path d="M23.1707 61.4374C23.1707 61.4374 21.8557 60.4643 22.1976 58.3076C22.1713 58.3076 23.1707 59.4385 23.1707 61.4374Z" fill="#FFD776"/>
<path d="M30.2982 71.4838C28.7201 70.1425 27.2999 68.5908 26.0638 66.9076C25.4589 66.066 24.9066 65.1717 24.3806 64.2775L24.1965 63.9356C24.1439 63.8304 24.0913 63.6989 24.0124 63.5937L23.8283 63.2518L23.6705 62.9099C23.4601 62.4365 23.2497 61.9631 23.0919 61.4634C23.0393 61.3056 23.0919 61.2793 23.1445 61.4371C23.3286 61.9105 23.539 62.3839 23.7757 62.8573L23.9598 63.1992L24.1439 63.5411C24.1965 63.6463 24.2754 63.7778 24.328 63.883L24.5121 64.2249C25.0381 65.1191 25.5904 65.9871 26.1953 66.8287C27.4051 68.4856 28.799 70.0373 30.3245 71.4575C30.4823 71.5627 30.4297 71.589 30.2982 71.4838Z" fill="#FFD776"/>
<path d="M28.0888 58.8604C28.2466 59.2023 28.3781 59.5442 28.4833 59.9125C28.5622 60.2807 28.6411 60.6489 28.6674 61.0171C28.6937 61.2538 28.6411 61.5957 28.7727 61.8061C28.5885 61.9639 28.3781 62.0954 28.1677 62.2269C28.4833 62.2269 28.6148 62.1743 28.6411 62.4899C28.7201 63.1211 28.6938 63.7523 28.7727 64.3835C28.799 64.6728 28.799 64.9884 28.9042 65.2777C28.9831 65.4881 29.1935 65.7512 29.1409 65.9879C29.0883 66.2772 28.2203 66.435 28.0099 66.5665C28.2992 66.6454 28.799 66.7506 29.062 66.6191C28.9831 66.7769 28.7727 66.9347 28.6148 67.0399C28.8516 67.0136 29.0883 66.9347 29.2987 66.9084C29.3513 67.0925 29.4828 67.2766 29.5617 67.487C29.6669 67.75 29.7721 67.9604 29.8773 68.2234C30.0088 68.5653 30.4559 69.3017 30.3244 69.6699C30.1929 70.0381 29.3776 70.643 29.0094 70.643C29.4565 70.7482 30.2718 70.5115 30.5611 70.1696C30.903 70.7745 31.1134 71.6688 31.1397 72.3789C31.1923 73.1416 30.7715 73.7728 30.1666 73.9832C29.851 74.0884 29.4828 74.0884 29.1146 73.9306C29.0357 73.7991 28.9831 73.6939 28.9305 73.5624C28.6148 72.9312 28.3518 72.3 28.1151 71.6424C27.668 70.3274 27.405 68.9598 27.2472 67.5922C26.9579 64.8306 27.5891 62.1743 27.7995 59.439C27.7995 59.4127 27.7732 59.4127 27.7732 59.439C27.6154 60.9382 27.2998 62.411 27.0894 63.9101C26.9053 65.2251 26.879 66.5665 27.0368 67.9078C27.1946 69.3017 27.5102 70.6693 27.9573 71.9844C28.2203 72.7997 28.5096 73.6939 28.9305 74.4829C28.6937 75.0352 28.0625 75.3771 27.4839 75.4297C26.7212 75.4823 26.1426 75.0089 25.7744 74.3777C25.6166 74.0884 25.4588 73.7465 25.3273 73.4572C25.1958 73.1942 25.1958 72.826 25.0117 72.6156C25.2221 72.4315 25.4851 72.3526 25.6955 72.1948C25.4588 72.1159 25.1432 72.1422 24.9065 72.1685C24.8802 71.9318 24.6961 71.4583 24.7487 71.2216C24.8013 71.0112 25.2747 70.8534 25.4851 70.7482C25.2747 70.6693 25.0117 70.643 24.8013 70.643C24.4594 70.117 24.4331 69.2491 24.3805 68.6705C24.3542 68.2234 24.3805 67.75 24.3279 67.3029C24.6435 67.2766 24.9854 67.1977 25.3273 67.1977C25.7481 67.1714 26.1952 67.1977 26.5897 67.0662C26.3004 67.0136 26.0111 66.961 25.6955 66.9084C25.2484 66.8558 24.8276 66.6454 24.3805 66.5928C24.4068 66.3824 24.3542 66.1983 24.3805 66.0142C24.3805 65.8038 24.512 64.1205 24.6698 64.1468C25.038 64.1994 25.4588 64.1468 25.8533 64.2257C25.6429 64.0942 25.3799 63.9101 25.1695 63.7786C25.3799 63.8049 25.7218 63.7523 25.8796 63.7523C25.6955 63.6208 25.2221 63.2789 25.0117 63.3578C25.2484 63.0948 25.3273 62.7266 25.4325 62.411C25.5377 62.0954 25.6955 61.8061 25.8533 61.5431C25.9848 61.359 26.1426 61.1749 26.2478 60.9645C26.4056 61.0434 26.7738 60.9119 26.9579 60.9119C26.8527 60.7541 26.6423 60.5963 26.4845 60.4911C26.9053 59.702 27.5102 59.0971 27.5628 58.124C27.5102 58.1766 28.0099 58.7026 28.0888 58.8604Z" fill="#009AC9"/>
<path d="M27.747 59.3867C27.5366 62.1219 26.8791 64.7782 27.1947 67.5398C27.3525 68.9074 27.6155 70.275 28.0626 71.59C28.2993 72.2475 28.5623 72.8788 28.8779 73.51C28.9305 73.6415 29.0094 73.773 29.062 73.8782C29.0357 73.8782 28.9831 73.8519 28.9568 73.8256C28.9831 74.036 28.9305 74.2201 28.8516 74.4042C28.4308 73.6152 28.1678 72.7209 27.8785 71.9056C27.4314 70.5906 27.1158 69.223 26.958 67.8291C26.8265 66.4878 26.8528 65.1727 27.0106 63.8314C27.221 62.3323 27.5366 60.8595 27.6944 59.3604C27.7207 59.3604 27.747 59.3604 27.747 59.3867Z" fill="#0086AF"/>
<path d="M33.2437 80.3741C33.4015 80.5582 32.8492 80.9527 32.6651 80.7949C32.3232 80.4793 29.062 74.851 28.8516 74.4302C28.9305 74.2724 28.9568 74.062 28.9568 73.8516C28.9831 73.8779 29.0357 73.8779 29.062 73.9042C29.325 74.4039 32.8755 79.9533 33.2437 80.3741Z" fill="#56548C"/>
<path d="M17.4634 77.4813C17.6738 77.6917 17.9105 77.8495 18.1472 78.0073C18.3839 78.1651 18.6469 78.2703 18.9099 78.3755C19.0677 78.4544 19.3307 78.4807 19.4622 78.6122C19.62 78.507 19.7515 78.3755 19.9093 78.2703C19.8304 78.4807 19.7778 78.5859 19.9882 78.6911C20.4353 78.9015 20.8824 79.0067 21.3295 79.2171C21.5399 79.296 21.7503 79.3749 21.9344 79.5064C22.0659 79.6116 22.2238 79.822 22.4079 79.8483C22.6446 79.8746 22.9339 79.2697 23.0917 79.1382C23.0917 79.3486 23.0391 79.7431 22.8813 79.9009C23.0128 79.8746 23.1706 79.7431 23.2758 79.6642C23.1969 79.822 23.0917 79.9798 23.0128 80.1377C23.1443 80.2166 23.2495 80.348 23.381 80.4533C23.5388 80.5848 23.6966 80.7163 23.8544 80.8478C24.0911 81.0319 24.5119 81.5053 24.8012 81.5053C25.0905 81.479 25.7217 81.0319 25.8006 80.7689C25.7743 81.1108 25.4324 81.6631 25.1168 81.7946C25.485 82.1891 26.0899 82.531 26.5896 82.7151C27.1419 82.9255 27.6942 82.7677 27.9835 82.3732C28.1413 82.1628 28.1939 81.8998 28.1676 81.5842C28.0887 81.5053 28.0098 81.4264 27.9309 81.3475C27.5364 80.9793 27.1419 80.6374 26.7211 80.3217C25.8532 79.7168 24.9327 79.1908 23.9596 78.7963C22.0133 77.9547 19.9356 77.8495 17.8842 77.3761C17.8579 77.3761 17.8842 77.3498 17.8842 77.3498C19.0151 77.5602 20.146 77.6654 21.3032 77.8495C22.3027 78.0073 23.2758 78.2966 24.2226 78.6911C25.1957 79.1119 26.1162 79.6379 26.9841 80.2692C27.5101 80.6374 28.115 81.0582 28.5885 81.5316C29.0356 81.479 29.4301 81.1108 29.5879 80.69C29.7983 80.1376 29.5879 79.6116 29.1934 79.2171C29.0093 79.033 28.7989 78.8489 28.6411 78.6911C28.4833 78.5333 28.2202 78.4544 28.0887 78.2703C27.9046 78.3755 27.7994 78.5596 27.6153 78.6648C27.6153 78.4807 27.6942 78.244 27.7731 78.0862C27.6153 78.0073 27.2997 77.7706 27.1156 77.7706C26.9315 77.7706 26.7211 78.0862 26.6159 78.1914C26.6159 78.0073 26.6422 77.8232 26.6948 77.6654C26.3792 77.2972 25.7743 77.0868 25.3535 76.929C25.0379 76.7975 24.6697 76.7186 24.3541 76.5871C24.2752 76.8238 24.1437 77.0605 24.0648 77.2972C23.9596 77.5865 23.8807 77.9284 23.6703 78.1914C23.6966 77.9547 23.7229 77.7443 23.7492 77.5076C23.8018 77.1657 23.7492 76.8238 23.8018 76.4819C23.644 76.4556 23.5125 76.3767 23.381 76.3504C23.2232 76.2978 21.987 76.0348 21.9607 76.1663C21.9081 76.4556 21.7766 76.7449 21.7503 77.0342C21.6977 76.8501 21.6188 76.6134 21.5662 76.4293C21.5399 76.5871 21.4347 76.8238 21.3821 76.9553C21.3295 76.7975 21.1717 76.3767 21.2769 76.2452C21.0139 76.3504 20.7509 76.3504 20.4879 76.3504C20.2512 76.3504 19.9882 76.403 19.7515 76.4556C19.5937 76.5082 19.4096 76.5871 19.2518 76.6134C19.2781 76.7449 19.094 76.9816 19.0414 77.1131C18.9625 77.0079 18.8836 76.8238 18.831 76.666C18.1735 76.7975 17.5686 77.0868 16.8848 76.929C17.0952 76.9027 17.3845 77.4024 17.4634 77.4813Z" fill="#009AC9"/>
<path d="M17.9367 77.3496C19.9881 77.7967 22.0659 77.9282 24.0121 78.7698C24.9852 79.1906 25.9057 79.6903 26.7737 80.2952C27.1945 80.6108 27.6153 80.9527 27.9835 81.321C28.0624 81.3999 28.1413 81.4788 28.2202 81.5577C28.2202 81.5314 28.2202 81.505 28.2202 81.4787C28.378 81.5313 28.5095 81.5577 28.6673 81.5314C28.1939 81.0579 27.589 80.6634 27.063 80.2689C26.195 79.664 25.2745 79.1117 24.3014 78.6909C23.3546 78.2964 22.3815 78.0071 21.3821 77.8493C20.1986 77.6389 19.0676 77.56 17.9367 77.3496C17.9104 77.3233 17.9104 77.3496 17.9367 77.3496Z" fill="#0086AF"/>
<path d="M22.9075 67.6446C23.0916 67.8024 23.2757 68.0128 23.4072 68.1969C23.565 68.4073 23.6965 68.6177 23.8017 68.8545C23.8806 68.986 23.9332 69.2227 24.0647 69.3279C23.9858 69.4594 23.8806 69.6172 23.8017 69.7487C23.9858 69.6698 24.0647 69.5909 24.1699 69.8013C24.3803 70.1695 24.5381 70.5903 24.7222 70.9585C24.8011 71.1426 24.9063 71.3267 25.0378 71.4845C25.143 71.616 25.3271 71.7212 25.3797 71.879C25.4323 72.0894 24.9063 72.405 24.8011 72.5365C24.9852 72.5102 25.3271 72.4576 25.4586 72.2998C25.4323 72.4313 25.3534 72.5628 25.2745 72.668C25.406 72.5891 25.5375 72.4839 25.669 72.405C25.7479 72.5102 25.8794 72.5891 25.9846 72.6943C26.1161 72.8258 26.2476 72.9573 26.3528 73.0888C26.5369 73.2729 26.984 73.6148 27.0103 73.8778C27.0103 74.1408 26.6684 74.7194 26.4317 74.8246C26.7473 74.772 27.1945 74.4301 27.2997 74.1408C27.6679 74.4301 28.0098 74.9561 28.2202 75.3769C28.4306 75.8503 28.3517 76.35 28.0098 76.6393C27.852 76.7972 27.6153 76.876 27.326 76.876C27.2471 76.8235 27.1945 76.7446 27.1156 76.692C26.7736 76.3763 26.4317 76.0607 26.1161 75.6925C25.5112 74.9824 24.9852 74.1934 24.5381 73.3781C23.6439 71.7212 23.3809 69.8802 22.8023 68.118C22.8023 68.0917 22.776 68.118 22.776 68.118C23.0653 69.0912 23.2494 70.1169 23.4861 71.09C23.7228 71.9579 24.0384 72.7995 24.4592 73.6148C24.9063 74.4564 25.4586 75.2191 26.0635 75.9292C26.4317 76.3764 26.8525 76.8761 27.2997 77.2443C27.2997 77.6388 26.984 78.0333 26.6421 78.2174C26.1687 78.4541 25.6953 78.2963 25.3008 77.9807C25.1167 77.8492 24.9589 77.6651 24.8011 77.5336C24.6696 77.4021 24.5644 77.1654 24.3803 77.0865C24.4592 76.9287 24.5907 76.7972 24.6959 76.6393C24.5381 76.6393 24.3277 76.7446 24.1962 76.8235C24.1173 76.692 23.8806 76.4289 23.8543 76.2711C23.828 76.1133 24.091 75.9029 24.1962 75.7977C24.0384 75.7977 23.8806 75.8503 23.7491 75.9029C23.4072 75.6662 23.1705 75.1402 22.9864 74.772C22.8549 74.4827 22.7497 74.1934 22.6182 73.9041C22.8286 73.7989 23.0127 73.6674 23.2231 73.5885C23.4861 73.4833 23.7754 73.3781 23.9858 73.1677C23.7754 73.194 23.5913 73.2466 23.4072 73.2992C23.1179 73.3781 22.8023 73.3518 22.513 73.4307C22.4867 73.2992 22.4078 73.194 22.3552 73.0625C22.3026 72.931 21.9607 71.8527 22.0659 71.8264C22.3026 71.7738 22.5656 71.616 22.8286 71.5634C22.6708 71.5371 22.4604 71.4845 22.2763 71.4582C22.4078 71.4319 22.6182 71.3004 22.7234 71.2478C22.5919 71.2215 22.1711 71.1163 22.0922 71.2215C22.1711 70.9848 22.1448 70.7481 22.1185 70.5114C22.0922 70.301 22.1185 70.0643 22.1711 69.8539C22.1974 69.6961 22.25 69.5383 22.2763 69.4068C22.4078 69.4331 22.5919 69.249 22.6971 69.1964C22.5919 69.1175 22.4341 69.0912 22.3026 69.0649C22.3815 68.46 22.5919 67.9339 22.3815 67.3027C22.3815 67.3553 22.8286 67.5657 22.9075 67.6446Z" fill="#009AC9"/>
<path d="M22.8286 68.0656C23.3809 69.8278 23.6702 71.6688 24.5644 73.3257C25.0115 74.141 25.5375 74.93 26.1424 75.6402C26.458 76.0084 26.7999 76.324 27.1418 76.6396C27.2207 76.6922 27.2733 76.7711 27.3522 76.8237C27.3259 76.8237 27.2996 76.8237 27.2733 76.8237C27.3259 76.9552 27.3522 77.0867 27.3522 77.1919C26.8788 76.7974 26.4843 76.2977 26.1161 75.8769C25.5112 75.1667 24.9589 74.3777 24.5118 73.5624C24.091 72.7734 23.7754 71.9318 23.5387 71.0376C23.2757 70.0382 23.1179 69.0387 22.8286 68.0656C22.8023 68.0393 22.8286 68.0393 22.8286 68.0656Z" fill="#0086AF"/>
<path d="M31.6128 79.7953C31.7706 79.8742 31.4813 80.295 31.3498 80.2424C31.0605 80.1109 27.6152 77.4282 27.3785 77.2178C27.3785 77.0863 27.3522 76.9548 27.2996 76.8496C27.3259 76.8496 27.3522 76.8496 27.3785 76.8496C27.6415 77.0863 31.2709 79.6111 31.6128 79.7953Z" fill="#3458B2"/>
<path d="M100.652 82.8196C102.046 81.978 102.677 80.6893 102.361 80.0318C102.019 79.3217 100.389 78.9535 98.6528 79.9003C98.7054 79.6373 99.5733 75.6133 98.6528 75.2714C97.9164 74.9821 96.4172 77.1913 96.0753 77.691C96.4172 74.798 96.3383 73.2726 95.8649 73.1148C95.523 73.0096 94.9444 73.6408 94.1554 75.0347C93.8661 74.0353 93.5768 73.5356 93.2875 73.5356C92.7352 73.5356 92.1829 75.4555 91.6569 79.3217C91.3939 77.9277 90.8415 75.4029 90.0788 75.4029C89.1583 75.4029 88.4219 79.2954 88.2115 80.4789C87.0017 79.2165 86.2653 78.6641 86.0023 78.8483C85.6604 79.0587 86.0549 80.4526 87.2121 82.9774C91.7095 82.9248 96.1805 82.8722 100.652 82.8196Z" fill="#0086AF"/>
<path d="M107.248 67.6631C108.45 66.4615 108.45 64.5131 107.248 63.3115C106.047 62.1098 104.098 62.1098 102.897 63.3115C101.695 64.5131 101.695 66.4615 102.897 67.6632C104.098 68.8648 106.047 68.8648 107.248 67.6631Z" fill="#FFD776"/>
<path d="M105.07 67.9863C106.45 67.9863 107.569 66.8677 107.569 65.4878C107.569 64.1079 106.45 62.9893 105.07 62.9893C103.69 62.9893 102.572 64.1079 102.572 65.4878C102.572 66.8677 103.69 67.9863 105.07 67.9863Z" fill="#FFC331"/>
<path d="M106.017 66.0401C106.017 66.2242 105.938 66.382 105.807 66.5135C105.675 66.645 105.465 66.7239 105.202 66.7502V67.2499H104.939V66.7765C104.781 66.7765 104.623 66.7765 104.491 66.7502C104.334 66.7239 104.228 66.6976 104.123 66.645V66.3294C104.228 66.382 104.386 66.4346 104.518 66.4609C104.676 66.4872 104.807 66.5135 104.939 66.5135V65.593C104.649 65.5141 104.439 65.4089 104.334 65.2774C104.228 65.1459 104.15 65.0144 104.15 64.804C104.15 64.6199 104.228 64.4621 104.36 64.3569C104.491 64.2517 104.702 64.1728 104.912 64.1465V63.752H105.175V64.1202C105.438 64.1202 105.675 64.1728 105.912 64.278L105.807 64.541C105.596 64.4621 105.386 64.4095 105.175 64.3832V65.3037C105.386 65.3826 105.57 65.4352 105.675 65.5141C105.78 65.593 105.859 65.6456 105.912 65.7508C105.991 65.8297 106.017 65.9349 106.017 66.0401ZM104.518 64.7777C104.518 64.8829 104.544 64.9618 104.623 65.0407C104.676 65.0933 104.807 65.1722 104.939 65.2248V64.4095C104.807 64.4358 104.702 64.4884 104.623 64.541C104.544 64.5936 104.518 64.6725 104.518 64.7777ZM105.675 66.0664C105.675 65.9612 105.649 65.8823 105.57 65.8297C105.517 65.7771 105.386 65.6982 105.202 65.6456V66.4609C105.517 66.4083 105.675 66.3031 105.675 66.0664Z" fill="white"/>
<path d="M108.147 47.7354V56.2304H93.3137V47.7354H108.147ZM107.437 55.6781V48.4718V48.2877H94.0501V55.494V55.6781H107.437Z" fill="#FFC331"/>
<path d="M107.437 48.4717V55.678H94.05V55.5202H94.2079H94.8654H106.595H107.279V54.889V49.1029V48.4717H107.437Z" fill="#FFC331"/>
<path d="M107.437 48.3145V48.4723H107.279H106.595H94.8654H94.2079V49.1035V54.8896V55.5208H94.05V48.3145H107.437Z" fill="#FFC331"/>
<path d="M107.279 54.8887V55.5199H106.622C106.595 55.178 106.911 54.8887 107.279 54.8887Z" fill="#FFC331"/>
<path d="M107.279 49.1029V54.889C106.911 54.889 106.622 55.1783 106.622 55.5202H94.8916C94.8916 55.1783 94.6023 54.889 94.2341 54.889V49.1029C94.6023 49.1029 94.8916 48.8136 94.8916 48.4717H106.622C106.595 48.8136 106.911 49.1029 107.279 49.1029ZM105.57 51.9959C105.57 51.5751 105.333 51.2332 105.07 51.2332C104.781 51.2332 104.57 51.5751 104.57 51.9959C104.57 52.4167 104.807 52.7587 105.07 52.7587C105.359 52.7587 105.57 52.4167 105.57 51.9959ZM103.939 51.9959C103.939 50.7072 102.492 49.6552 100.73 49.6552C98.9682 49.6552 97.5217 50.7072 97.5217 51.9959C97.5217 53.2847 98.9682 54.3367 100.73 54.3367C102.519 54.3367 103.939 53.2847 103.939 51.9959ZM96.9168 51.9959C96.9168 51.5751 96.6801 51.2332 96.4171 51.2332C96.1541 51.2332 95.9174 51.5751 95.9174 51.9959C95.9174 52.4167 96.1541 52.7587 96.4171 52.7587C96.6801 52.7587 96.9168 52.4167 96.9168 51.9959Z" fill="#FFD776"/>
<path d="M107.279 48.4717V49.1029C106.911 49.1029 106.622 48.8136 106.622 48.4717H107.279Z" fill="#FFC331"/>
<path d="M105.07 51.2334C105.359 51.2334 105.57 51.5753 105.57 51.9961C105.57 52.4169 105.333 52.7588 105.07 52.7588C104.781 52.7588 104.57 52.4169 104.57 51.9961C104.57 51.5753 104.781 51.2334 105.07 51.2334Z" fill="#FFC331"/>
<path d="M100.73 49.6553C102.493 49.6553 103.939 50.7073 103.939 51.996C103.939 53.2847 102.493 54.3368 100.73 54.3368C98.9683 54.3368 97.5217 53.2847 97.5217 51.996C97.5217 50.7073 98.9683 49.6553 100.73 49.6553Z" fill="#FFC331"/>
<path d="M96.3908 51.2334C96.6801 51.2334 96.8905 51.5753 96.8905 51.9961C96.8905 52.4169 96.6538 52.7588 96.3908 52.7588C96.1278 52.7588 95.8911 52.4169 95.8911 51.9961C95.8911 51.5753 96.1278 51.2334 96.3908 51.2334Z" fill="#FFC331"/>
<path d="M94.208 48.4717H94.8655C94.8655 48.8136 94.5762 49.1029 94.208 49.1029V48.4717Z" fill="#FFC331"/>
<path d="M94.8655 55.5199H94.208V54.8887C94.5762 54.8887 94.8655 55.178 94.8655 55.5199Z" fill="#FFC331"/>
<path d="M101.178 50.8386C101.493 50.9438 101.651 51.2068 101.651 51.5751V51.6277H101.257C101.257 51.4173 101.204 51.2857 101.099 51.2068L100.915 51.8644C101.414 51.9433 101.677 52.1274 101.677 52.4956V52.5219C101.677 52.969 101.335 53.232 100.757 53.232C100.704 53.232 100.625 53.232 100.573 53.232L100.468 53.6528H100.152L100.283 53.1794C99.9678 53.0479 99.7837 52.8112 99.7837 52.4693V52.443H100.178C100.178 52.6271 100.231 52.7586 100.362 52.8375L100.546 52.1274C100.02 52.0485 99.81 51.8381 99.81 51.4962V51.4698C99.81 51.049 100.178 50.786 100.731 50.786C100.783 50.786 100.836 50.786 100.888 50.786L100.994 50.3652H101.309L101.178 50.8386ZM100.625 51.8118L100.809 51.1016C100.783 51.1016 100.757 51.1016 100.757 51.1016H100.731C100.441 51.1016 100.231 51.2331 100.231 51.4436V51.4698C100.205 51.6277 100.31 51.7592 100.625 51.8118ZM101.283 52.5219C101.283 52.2852 101.151 52.18 100.862 52.1274L100.678 52.8901C100.704 52.8901 100.731 52.8901 100.783 52.8901H100.809C101.072 52.9164 101.283 52.7586 101.283 52.5219Z" fill="white"/>
<path d="M33.8486 82.8196C35.2425 81.978 35.8737 80.6893 35.5581 80.0318C35.2162 79.3217 33.5856 78.9535 31.8498 79.9003C31.9024 79.6373 32.7703 75.6133 31.8498 75.2714C31.1134 74.9821 29.6143 77.1913 29.2724 77.691C29.6143 74.798 29.5354 73.2726 29.0619 73.1148C28.72 73.0096 28.1414 73.6408 27.3524 75.0347C27.0631 74.0353 26.7738 73.5356 26.4845 73.5356C25.9322 73.5356 25.3799 75.4555 24.8539 79.3217C24.5909 77.9277 24.0386 75.4029 23.2759 75.4029C22.3553 75.4029 21.6189 79.2954 21.4085 80.4789C20.1987 79.2165 19.4623 78.6641 19.1993 78.8483C18.8574 79.0587 19.2519 80.4526 20.4091 82.9774C24.9065 82.9248 29.3776 82.8722 33.8486 82.8196Z" fill="#0086AF"/>
<path d="M22.706 41.2834C23.0984 39.6298 22.076 37.9712 20.4224 37.5788C18.7688 37.1864 17.1102 38.2088 16.7178 39.8624C16.3254 41.516 17.3478 43.1746 19.0014 43.567C20.655 43.9594 22.3136 42.937 22.706 41.2834Z" fill="#FFD776"/>
<path d="M19.699 43.0801C21.0789 43.0801 22.1975 41.9614 22.1975 40.5815C22.1975 39.2016 21.0789 38.083 19.699 38.083C18.3191 38.083 17.2004 39.2016 17.2004 40.5815C17.2004 41.9614 18.3191 43.0801 19.699 43.0801Z" fill="#FFC331"/>
<path d="M20.6458 41.1328C20.6458 41.317 20.5669 41.4748 20.4354 41.6063C20.3039 41.7378 20.0935 41.8167 19.8305 41.843V42.3427H19.5675V41.8693C19.4097 41.8693 19.2519 41.8693 19.1204 41.843C18.9626 41.8167 18.8574 41.7904 18.7522 41.7378V41.4222C18.8574 41.4748 19.0152 41.5274 19.1467 41.5537C19.3045 41.58 19.436 41.6063 19.5675 41.6063V40.6857C19.2782 40.6068 19.0678 40.5016 18.9626 40.3701C18.8574 40.2386 18.7785 40.1071 18.7785 39.8967C18.7785 39.7126 18.8574 39.5548 18.9889 39.4496C19.1204 39.3444 19.3308 39.2655 19.5412 39.2392V38.8447H19.8042V39.2129C20.0672 39.2129 20.3039 39.2655 20.5406 39.3707L20.4354 39.6337C20.225 39.5548 20.0146 39.5022 19.8042 39.4759V40.3964C20.0146 40.4753 20.1987 40.5279 20.3039 40.6068C20.4091 40.6857 20.488 40.7383 20.5406 40.8435C20.6195 40.8961 20.6458 41.0013 20.6458 41.1328ZM19.1467 39.8441C19.1467 39.9493 19.173 40.0282 19.2519 40.1071C19.3045 40.1597 19.436 40.2386 19.5675 40.2912V39.4759C19.436 39.5022 19.3308 39.5548 19.2519 39.6074C19.173 39.6863 19.1467 39.7652 19.1467 39.8441ZM20.3039 41.1592C20.3039 41.0539 20.2776 40.9751 20.1987 40.9225C20.1461 40.8698 20.0146 40.7909 19.8305 40.7383V41.5537C20.1461 41.5011 20.3039 41.3696 20.3039 41.1592Z" fill="white"/>
<path d="M90.9467 33.1914H28.0361V82.6362H90.9467V33.1914Z" fill="#FFC331"/>
<path d="M91.683 79.585H27.3259V82.6358H91.683V79.585Z" fill="#F9F8F7"/>
<path d="M92.367 30.0615H26.616V33.1913H92.367V30.0615Z" fill="#FFC331"/>
<path opacity="0.5" d="M92.367 32.166H26.616V33.1917H92.367V32.166Z" fill="#FFC331"/>
<path d="M94.2604 30.0617H24.7222V28.8782C24.7222 27.6684 25.7216 26.6689 26.9314 26.6689H92.0512C93.261 26.6689 94.2604 27.6684 94.2604 28.8782V30.0617Z" fill="#FFC331"/>
<path opacity="0.5" d="M94.2867 29.0361H24.7222V30.0618H94.2867V29.0361Z" fill="#FFC331"/>
<path d="M92.2617 35.4797V43.3961H25.5376V36.7158L28.115 34.0332H90.8678L92.2617 35.4797Z" fill="#E05A00"/>
<path opacity="0.5" d="M90.9467 43.3965V46.9733C90.9204 46.7892 90.9204 46.6051 90.9204 46.421C90.9204 48.8933 88.9216 50.8921 86.4494 50.8921H86.3968C83.9245 50.8921 81.9257 48.8933 81.9257 46.421C81.9257 48.8933 79.9268 50.8921 77.4546 50.8921H77.402C74.9298 50.8921 72.9309 48.8933 72.9309 46.421C72.9309 48.8933 70.9321 50.8921 68.4599 50.8921H68.4336C65.9613 50.8921 63.9625 48.8933 63.9625 46.421C63.9625 48.8933 61.9637 50.8921 59.4914 50.8921H59.4388C56.9666 50.8921 54.9678 48.8933 54.9678 46.421C54.9678 48.8933 52.9689 50.8921 50.4967 50.8921C48.0244 50.8921 46.0256 48.8933 46.0256 46.421C46.0256 48.8933 44.0268 50.8921 41.5545 50.8921H41.5019C39.0297 50.8921 37.0309 48.8933 37.0309 46.421C37.0309 48.8933 35.032 50.8921 32.5598 50.8921H32.5335C30.0613 50.8921 28.0624 48.8933 28.0624 46.421C28.0624 46.6051 28.0624 46.7892 28.0361 46.947V43.3965H90.9467Z" fill="#FFC331"/>
<path d="M42.0543 33.1914L37.0572 42.528H28.0625L35.0847 33.1914H42.0543Z" fill="#F9F8F7"/>
<path d="M55.9935 33.1914L54.9941 42.528H46.0256L49.0239 33.1914H55.9935Z" fill="#F9F8F7"/>
<path d="M69.9589 33.1914L72.9571 42.528H63.9887L62.9893 33.1914H69.9589Z" fill="#F9F8F7"/>
<path d="M83.8981 33.1914L90.9203 42.528H81.9518L76.9285 33.1914H83.8981Z" fill="#F9F8F7"/>
<path d="M35.0846 33.1914L28.0624 42.528H19.094L28.115 33.1914H35.0846Z" fill="#02B7EE"/>
<path d="M49.0238 33.1914L46.0256 42.528H37.0571L42.0542 33.1914H49.0238Z" fill="#02B7EE"/>
<path d="M62.9895 33.1914L63.9889 42.528H54.9941L55.9936 33.1914H62.9895Z" fill="#02B7EE"/>
<path d="M76.9286 33.1914L81.952 42.528H72.9572L69.959 33.1914H76.9286Z" fill="#02B7EE"/>
<path d="M90.8678 33.1914L99.8889 42.528H90.9204L83.8982 33.1914H90.8678Z" fill="#02B7EE"/>
<path d="M95.4178 50.0239H95.3915C92.9192 50.0239 90.9204 48.0251 90.9204 45.5529V42.5283H99.8888V45.5529C99.8888 47.9988 97.89 50.0239 95.4178 50.0239Z" fill="#009AC9"/>
<path d="M86.4493 50.0239H86.423C83.9507 50.0239 81.9519 48.0251 81.9519 45.5529V42.5283H90.9203V45.5529C90.9203 47.9988 88.9215 50.0239 86.4493 50.0239Z" fill="#E9E5D9"/>
<path d="M77.481 50.0239H77.4547C74.9825 50.0239 72.9836 48.0251 72.9836 45.5529V42.5283H81.9521V45.5529C81.9521 47.9988 79.9269 50.0239 77.481 50.0239Z" fill="#009AC9"/>
<path d="M68.4861 50.0239H68.4598C65.9876 50.0239 63.9888 48.0251 63.9888 45.5529V42.5283H72.9572V45.5529C72.9572 47.9988 70.9584 50.0239 68.4861 50.0239Z" fill="#E9E5D9"/>
<path d="M59.5176 50.0239H59.4913C57.0191 50.0239 55.0203 48.0251 55.0203 45.5529V42.5283H63.9887V45.5529C63.9887 47.9988 61.9899 50.0239 59.5176 50.0239Z" fill="#009AC9"/>
<path d="M50.523 50.0239H50.4967C48.0245 50.0239 46.0256 48.0251 46.0256 45.5529V42.5283H54.9941V45.5529C54.9941 47.9988 52.9953 50.0239 50.523 50.0239Z" fill="#E9E5D9"/>
<path d="M41.5545 50.0239H41.5282C39.056 50.0239 37.0571 48.0251 37.0571 45.5529V42.5283H46.0255V45.5529C46.0255 47.9988 44.0267 50.0239 41.5545 50.0239Z" fill="#009AC9"/>
<path d="M32.5862 50.0239H32.5599C30.0877 50.0239 28.0889 48.0251 28.0889 45.5529V42.5283H37.0573V45.5529C37.031 47.9988 35.0322 50.0239 32.5862 50.0239Z" fill="#E9E5D9"/>
<path d="M23.5914 50.0239H23.5651C21.0928 50.0239 19.094 48.0251 19.094 45.5529V42.5283H28.0624V45.5529C28.0624 47.9988 26.0636 50.0239 23.5914 50.0239Z" fill="#009AC9"/>
<path d="M49.9445 51.6016H34.1379V82.6624H49.9445V51.6016Z" fill="#0086AF"/>
<path d="M48.8924 52.8379H35.1899V82.6625H48.8924V52.8379Z" fill="#007CA2"/>
<path d="M48.6295 53.1006H35.1899V82.6359H48.6295V53.1006Z" fill="#007CA2"/>
<path d="M48.6294 53.1006H35.4792V82.6359H48.6294V53.1006Z" fill="#009AC9"/>
<path d="M38.7142 68.3811C38.7142 68.9597 38.2407 69.4331 37.6621 69.4331C37.0835 69.4331 36.6101 68.9597 36.6101 68.3811C36.6101 67.8025 37.0835 67.3291 37.6621 67.3291C38.2407 67.3291 38.7142 67.8025 38.7142 68.3811Z" fill="#82E3F9"/>
<path d="M39.0034 68.1185C39.0034 68.6971 38.53 69.1705 37.9514 69.1705C37.3728 69.1705 36.8994 68.6971 36.8994 68.1185C36.8994 67.5399 37.3728 67.0665 37.9514 67.0665C38.53 67.0402 39.0034 67.5136 39.0034 68.1185Z" fill="#F9FBFC"/>
<path d="M37.9251 69.0655C38.448 69.0655 38.8719 68.6416 38.8719 68.1187C38.8719 67.5958 38.448 67.1719 37.9251 67.1719C37.4022 67.1719 36.9783 67.5958 36.9783 68.1187C36.9783 68.6416 37.4022 69.0655 37.9251 69.0655Z" fill="#DCE8EF"/>
<path d="M37.9515 68.5396C38.3146 68.5396 38.609 68.2452 38.609 67.8821C38.609 67.519 38.3146 67.2246 37.9515 67.2246C37.5883 67.2246 37.2939 67.519 37.2939 67.8821C37.2939 68.2452 37.5883 68.5396 37.9515 68.5396Z" fill="#F9FBFC"/>
<path opacity="0.5" d="M86.1073 74.3777V51.9961H54.7572V74.3777H53.863V76.4292H87.0805V74.3777H86.1073Z" fill="#FFC331"/>
<path d="M86.6335 51.4443H55.2834V74.9569H86.6335V51.4443Z" fill="#0086AF"/>
<path d="M85.7657 52.2598H56.1777V74.2995H85.7657V52.2598Z" fill="#7FC2DD"/>
<path d="M85.5027 52.5488H56.1777V74.3256H85.5027V52.5488Z" fill="#82E3F9"/>
<path d="M87.633 73.8525H54.4155V75.9039H87.633V73.8525Z" fill="#0086AF"/>
<path d="M47.7615 53.9951H36.3208V66.33H47.7615V53.9951Z" fill="#82E3F9"/>
<path d="M42.4487 53.8633H41.6597V66.4612H42.4487V53.8633Z" fill="#009AC9"/>
<path d="M48.3401 59.7812H35.7422V60.5703H48.3401V59.7812Z" fill="#009AC9"/>
<path d="M47.7615 69.9072H36.3208V81.7161H47.7615V69.9072Z" stroke="#82E3F9" stroke-miterlimit="10"/>
<path d="M14.2022 52.653C16.5699 52.653 18.4892 50.7337 18.4892 48.3661C18.4892 45.9984 16.5699 44.0791 14.2022 44.0791C11.8346 44.0791 9.91528 45.9984 9.91528 48.3661C9.91528 50.7337 11.8346 52.653 14.2022 52.653Z" fill="#FFD776"/>
<path d="M14.2024 51.8378C16.1197 51.8378 17.674 50.2835 17.674 48.3662C17.674 46.4488 16.1197 44.8945 14.2024 44.8945C12.285 44.8945 10.7307 46.4488 10.7307 48.3662C10.7307 50.2835 12.285 51.8378 14.2024 51.8378Z" fill="#FFC331"/>
<path d="M15.5172 49.1549C15.5172 49.418 15.412 49.6284 15.2279 49.8125C15.0175 49.9966 14.7545 50.1018 14.3863 50.1281V50.8119H14.0181V50.1544C13.8077 50.1544 13.5973 50.1281 13.3869 50.1018C13.1765 50.0755 13.0187 50.0229 12.8872 49.9703V49.5232C13.045 49.6021 13.2291 49.6547 13.4395 49.7073C13.6499 49.7599 13.834 49.7862 14.0181 49.7862V48.4974C13.6236 48.3659 13.3343 48.2344 13.1765 48.0503C13.0187 47.8925 12.9398 47.6558 12.9398 47.3928C12.9398 47.1298 13.045 46.9194 13.2291 46.7616C13.4395 46.6038 13.6762 46.4986 14.0181 46.4723V45.9463H14.3863V46.4723C14.7545 46.4723 15.0964 46.5512 15.412 46.6827L15.2542 47.0772C14.9649 46.972 14.6756 46.8931 14.36 46.8668V48.1292C14.6756 48.2344 14.886 48.3133 15.0438 48.4185C15.2016 48.5237 15.3068 48.6289 15.3857 48.7341C15.4909 48.813 15.5172 48.9708 15.5172 49.1549ZM13.4395 47.3665C13.4395 47.5243 13.4921 47.6295 13.571 47.7347C13.6499 47.8136 13.8077 47.9188 14.0181 47.9977V46.8668C13.834 46.8931 13.6762 46.972 13.571 47.0509C13.4658 47.1298 13.4395 47.235 13.4395 47.3665ZM15.0175 49.1812C15.0175 49.0497 14.9649 48.9182 14.886 48.8393C14.8071 48.7604 14.623 48.6552 14.3863 48.5763V49.7073C14.8071 49.6547 15.0175 49.4706 15.0175 49.1812Z" fill="white"/>
<path d="M106.937 82.6357H0V85.0028H106.937V82.6357Z" fill="#009AC9"/>
<path d="M64.9094 60.8331C64.9094 60.8331 69.512 53.9424 70.4851 53.9424C71.5634 53.9424 76.5868 59.1762 76.5868 59.1762" stroke="white" stroke-width="0.5" stroke-miterlimit="10" stroke-linejoin="round"/>
<path d="M77.7966 64.3835L65.6984 66.2772C65.3828 66.3298 65.0935 66.1194 65.0409 65.8038L64.3308 61.359C64.2782 61.0434 64.4886 60.7541 64.8042 60.7015L76.9024 58.8079C77.218 58.7553 77.5073 58.9657 77.5599 59.2813L78.27 63.726C78.3489 64.0153 78.1122 64.3309 77.7966 64.3835Z" fill="#009AC9"/>
<path d="M68.2843 64.3663C68.0663 64.4006 67.8691 64.3849 67.6927 64.319C67.5181 64.2508 67.374 64.1394 67.2603 63.985C67.1463 63.8285 67.0712 63.636 67.0353 63.4076C66.9993 63.1792 67.0117 62.974 67.0724 62.7921C67.1328 62.6081 67.2357 62.4578 67.3812 62.3413C67.5288 62.2244 67.7116 62.1488 67.9296 62.1144C68.1476 62.0801 68.3438 62.096 68.518 62.1622C68.6944 62.228 68.8396 62.3392 68.9536 62.4957C69.0673 62.6502 69.1422 62.8416 69.1781 63.07C69.2141 63.2984 69.2019 63.5046 69.1415 63.6886C69.0808 63.8706 68.9768 64.021 68.8296 64.14C68.6841 64.2565 68.5023 64.332 68.2843 64.3663ZM68.2249 63.9894C68.4077 63.9606 68.5408 63.8737 68.6243 63.7286C68.71 63.5832 68.7336 63.389 68.6954 63.1461C68.6571 62.9031 68.5761 62.7265 68.4523 62.6162C68.3282 62.5038 68.1738 62.4622 67.989 62.4913C67.8042 62.5204 67.67 62.6075 67.5864 62.7526C67.5046 62.8953 67.4829 63.0881 67.5212 63.331C67.5594 63.574 67.6406 63.7516 67.7647 63.864C67.8888 63.9764 68.0422 64.0182 68.2249 63.9894Z" fill="#F9F8F7"/>
<path d="M69.3764 61.9153L70.3856 61.7563C70.6243 61.7187 70.8197 61.7496 70.9715 61.8491C71.1234 61.9486 71.2163 62.1063 71.2504 62.3223C71.2844 62.5382 71.2444 62.7169 71.1305 62.8583C71.0166 62.9996 70.8402 63.0891 70.6014 63.1267L70.0782 63.2091L70.2082 64.0345L69.7223 64.1111L69.3764 61.9153ZM70.4812 62.769C70.7242 62.7307 70.8291 62.6067 70.7961 62.397C70.7791 62.2891 70.7364 62.2139 70.668 62.1714C70.5996 62.129 70.5042 62.1174 70.3817 62.1367L69.9207 62.2094L70.0203 62.8416L70.4812 62.769Z" fill="#F9F8F7"/>
<path d="M71.8028 63.7833L71.4569 61.5875L72.9706 61.3491L73.03 61.726L71.9897 61.8898L72.0706 62.4037L73.0486 62.2497L73.108 62.6266L72.13 62.7806L72.2168 63.3319L73.2571 63.168L73.3165 63.5449L71.8028 63.7833Z" fill="#F9F8F7"/>
<path d="M74.7546 61.0681L75.2093 60.9964L75.5552 63.1923L75.1939 63.2492L73.8804 62.0229L74.1007 63.4214L73.6491 63.4925L73.3032 61.2967L73.6613 61.2403L74.9739 62.4603L74.7546 61.0681Z" fill="#F9F8F7"/>
<path d="M70.9322 54.3896C70.9322 54.6263 70.7481 54.8103 70.5114 54.8103C70.2747 54.8103 70.0906 54.6263 70.0906 54.3896C70.0906 54.1529 70.2747 53.9688 70.5114 53.9688C70.7481 53.9687 70.9322 54.1529 70.9322 54.3896Z" fill="#0086AF"/>
<path d="M70.8005 54.2581C70.8005 54.4159 70.669 54.5474 70.5112 54.5474C70.3534 54.5474 70.2219 54.4159 70.2219 54.2581C70.2219 54.1003 70.3534 53.9688 70.5112 53.9688C70.669 53.9687 70.8005 54.1003 70.8005 54.2581Z" fill="#009AC9"/>
<path d="M3.20865 82.61L2.49854 82.5837L7.25891 66.3301L7.89012 66.5142L3.20865 82.61Z" fill="#0086AF"/>
<path d="M16.2799 82.61H15.5698L20.3302 66.3301L20.9877 66.5142L16.2799 82.61Z" fill="#0086AF"/>
<path d="M23.1444 82.6887H22.5132L21.619 75.6928H8.88958L9.78379 82.6887H9.15258L6.20694 59.9389C6.18064 59.8073 6.28584 59.7021 6.41734 59.7021H19.962C20.0672 59.7021 20.1724 59.781 20.1724 59.8863L23.1444 82.6887Z" fill="#009AC9"/>
<path d="M21.4612 75.0349H8.83699L6.96966 60.596L6.94336 60.333H19.5676L21.4612 75.0349Z" fill="#E89F0F"/>
<path d="M21.1719 75.0357H8.83705L6.96973 60.623H19.3046L21.1719 75.0357Z" fill="#FFC331"/>
<g opacity="0.5">
<path opacity="0.5" d="M11.7299 64.9355C12.5189 64.9355 13.1764 65.409 13.3079 66.3295C13.4394 67.25 12.9134 67.7234 12.1507 67.7234C11.3617 67.7234 10.7042 67.25 10.5727 66.3295C10.4149 65.409 10.9409 64.9355 11.7299 64.9355ZM11.5195 66.3295C11.5721 66.724 11.7562 66.8818 11.9929 66.8818C12.2296 66.8818 12.3611 66.6977 12.3085 66.3295C12.2559 65.935 12.0718 65.7509 11.8351 65.7509C11.5984 65.7509 11.4669 65.935 11.5195 66.3295ZM14.5966 65.0144H15.9643L13.6235 70.8006H12.2559L14.5966 65.0144ZM16.0958 68.1179C16.8848 68.1179 17.5423 68.5913 17.6738 69.5118C17.8053 70.4323 17.2793 70.9058 16.5166 70.9058C15.7276 70.9058 15.07 70.4323 14.9385 69.5118C14.807 68.5913 15.3067 68.1179 16.0958 68.1179ZM15.8854 69.5118C15.938 69.9063 16.1221 70.0641 16.3588 70.0641C16.5955 70.0641 16.727 69.88 16.6744 69.5118C16.6218 69.1173 16.4377 68.9332 16.201 68.9332C15.9643 68.9595 15.8328 69.1436 15.8854 69.5118Z" fill="#FFC331"/>
</g>
<path d="M12.2821 64.6465C13.0711 64.6465 13.7287 65.1199 13.8602 66.0404C13.9917 66.9609 13.4657 67.4343 12.7029 67.4343C11.9139 67.4343 11.2564 66.9609 11.1249 66.0404C10.9671 65.1462 11.4931 64.6465 12.2821 64.6465ZM12.0717 66.0404C12.1243 66.4349 12.3084 66.5927 12.5451 66.5927C12.7818 66.5927 12.9133 66.4086 12.8607 66.0404C12.8081 65.6459 12.624 65.4618 12.3873 65.4618C12.1243 65.4881 12.0191 65.6459 12.0717 66.0404ZM15.1489 64.7517H16.5165L14.1758 70.5378H12.8081L15.1489 64.7517ZM16.648 67.8551C17.437 67.8551 18.0945 68.3285 18.226 69.249C18.3575 70.1696 17.8315 70.643 17.0688 70.643C16.2798 70.643 15.6223 70.1696 15.4908 69.249C15.333 68.3285 15.859 67.8551 16.648 67.8551ZM16.4376 69.249C16.4902 69.6435 16.6743 69.8014 16.911 69.8014C17.1477 69.8014 17.2792 69.6172 17.2266 69.249C17.174 68.8545 16.9899 68.6704 16.7532 68.6704C16.5165 68.6704 16.385 68.8545 16.4376 69.249Z" fill="white"/>
<path d="M87.3719 23.9474C88.2554 22.984 88.1907 21.4866 87.2272 20.6031C86.2638 19.7195 84.7664 19.7842 83.8828 20.7477C82.9993 21.7111 83.064 23.2085 84.0275 24.0921C84.9909 24.9757 86.4883 24.9109 87.3719 23.9474Z" fill="#F2EFE9"/>
<path d="M34.6183 24.6222C35.8271 24.1247 36.4037 22.7414 35.9062 21.5325C35.4086 20.3237 34.0253 19.7471 32.8165 20.2446C31.6076 20.7422 31.031 22.1255 31.5286 23.3343C32.0261 24.5432 33.4094 25.1198 34.6183 24.6222Z" fill="#F2EFE9"/>
<path d="M35.7949 13.7552C35.7949 14.3338 35.3215 14.8072 34.7429 14.8072C34.1643 14.8072 33.6909 14.3338 33.6909 13.7552C33.6909 13.1766 34.1643 12.7032 34.7429 12.7032C35.3215 12.6769 35.7949 13.1503 35.7949 13.7552Z" fill="#F2EFE9"/>
<path d="M6.23328 37.136C6.52379 37.136 6.75929 36.9005 6.75929 36.61C6.75929 36.3195 6.52379 36.084 6.23328 36.084C5.94278 36.084 5.70728 36.3195 5.70728 36.61C5.70728 36.9005 5.94278 37.136 6.23328 37.136Z" fill="#F2EFE9"/>
<path d="M65.2512 11.441C65.2512 11.7304 65.0145 11.9671 64.7252 11.9671C64.4359 11.9671 64.1992 11.7304 64.1992 11.441C64.1992 11.1517 64.4359 10.915 64.7252 10.915C65.0145 10.915 65.2512 11.1517 65.2512 11.441Z" fill="#F2EFE9"/>
<path d="M52.89 0.499708C52.89 0.789012 52.6533 0.999415 52.3903 0.999415C52.101 0.999415 51.8906 0.762712 51.8906 0.499708C51.8906 0.210403 52.1273 0 52.3903 0C52.6796 0 52.89 0.236704 52.89 0.499708Z" fill="#F2EFE9"/>
<path d="M112.881 44.3951C112.881 44.6845 112.645 44.9212 112.355 44.9212C112.066 44.9212 111.829 44.6845 111.829 44.3951C111.829 44.1058 112.066 43.8691 112.355 43.8691C112.645 43.8691 112.881 44.1058 112.881 44.3951Z" fill="#F2EFE9"/>
<path d="M109.489 75.4557C109.489 75.745 109.252 75.9817 108.963 75.9817C108.673 75.9817 108.437 75.745 108.437 75.4557C108.437 75.1664 108.673 74.9297 108.963 74.9297C109.252 74.9297 109.489 75.1664 109.489 75.4557Z" fill="#F2EFE9"/>
<path d="M89.8421 15.359C89.8421 15.6483 89.6054 15.885 89.316 15.885C89.0267 15.885 88.79 15.6483 88.79 15.359C88.79 15.0697 89.0267 14.833 89.316 14.833C89.6054 14.833 89.8421 15.0697 89.8421 15.359Z" fill="#F2EFE9"/>
<path d="M8.04787 57.5983C8.04787 57.8876 7.81116 58.1243 7.52186 58.1243C7.23255 58.1243 6.99585 57.8876 6.99585 57.5983C6.99585 57.309 7.23255 57.0723 7.52186 57.0723C7.81116 57.0723 8.04787 57.309 8.04787 57.5983Z" fill="#F2EFE9"/>
<path d="M18.8574 29.562C19.4384 29.562 19.9094 29.091 19.9094 28.51C19.9094 27.929 19.4384 27.458 18.8574 27.458C18.2764 27.458 17.8054 27.929 17.8054 28.51C17.8054 29.091 18.2764 29.562 18.8574 29.562Z" fill="#F2EFE9"/>
<path d="M3.47169 72.4839C4.05271 72.4839 4.52371 72.0129 4.52371 71.4319C4.52371 70.8509 4.05271 70.3799 3.47169 70.3799C2.89068 70.3799 2.41968 70.8509 2.41968 71.4319C2.41968 72.0129 2.89068 72.4839 3.47169 72.4839Z" fill="#F2EFE9"/>
<path d="M111.33 55.6519C111.33 56.1779 110.909 56.5987 110.383 56.5987C109.857 56.5987 109.436 56.1779 109.436 55.6519C109.436 55.1259 109.857 54.7051 110.383 54.7051C110.909 54.7051 111.33 55.1259 111.33 55.6519Z" fill="#F2EFE9"/>
<path d="M103.439 20.5929C103.439 25.511 98.4686 31.5338 98.4686 31.5338C98.4686 31.5338 93.5242 25.511 93.5242 20.5929C93.5242 17.8576 95.7597 15.6221 98.4949 15.6221C101.23 15.6221 103.439 17.8576 103.439 20.5929Z" fill="#009AC9"/>
<path d="M101.096 20.8218C101.216 19.3742 100.139 18.1038 98.6917 17.9842C97.2441 17.8645 95.9736 18.9411 95.854 20.3887C95.7344 21.8363 96.811 23.1067 98.2585 23.2263C99.7061 23.3459 100.977 22.2694 101.096 20.8218Z" fill="#F9FBFC"/>
<path d="M68.8282 24.7217H67.6973V26.6679H68.8282V24.7217Z" fill="#FFC331"/>
<path d="M68.8282 24.7217H67.6973V26.6679H68.8282V24.7217Z" fill="#FFC331"/>
<path d="M51.2857 24.7217H50.1548V26.6679H51.2857V24.7217Z" fill="#FFC331"/>
<path d="M51.312 24.7217H50.1548V26.6679H51.312V24.7217Z" fill="#FFC331"/>
<path d="M71.3004 24.7221H47.7089C47.104 24.7221 46.6306 24.2487 46.6306 23.6437V15.5695C46.6306 14.9646 47.104 14.4912 47.7089 14.4912H71.3004C71.9053 14.4912 72.3787 14.9646 72.3787 15.5695V23.6437C72.3787 24.2487 71.879 24.7221 71.3004 24.7221Z" fill="#FFC331"/>
<path d="M71.3004 15.2802C71.4582 15.2802 71.5897 15.4117 71.5897 15.5695V23.6437C71.5897 23.8015 71.4582 23.9331 71.3004 23.9331H47.7089C47.5511 23.9331 47.4196 23.8015 47.4196 23.6437V15.5695C47.4196 15.4117 47.5511 15.2802 47.7089 15.2802H71.3004ZM71.3004 14.4912H47.7089C47.104 14.4912 46.6306 14.9646 46.6306 15.5695V23.6437C46.6306 24.2487 47.104 24.7221 47.7089 24.7221H71.3004C71.9053 24.7221 72.3787 24.2487 72.3787 23.6437V15.5695C72.3787 14.9646 71.879 14.4912 71.3004 14.4912Z" fill="#FFC331"/>
<path d="M71.3004 24.7221H47.7089C47.104 24.7221 46.6306 24.2487 46.6306 23.6437V15.5695C46.6306 14.9646 47.104 14.4912 47.7089 14.4912H71.3004C71.9053 14.4912 72.3787 14.9646 72.3787 15.5695V23.6437C72.3787 24.2487 71.879 24.7221 71.3004 24.7221Z" stroke="#009AC9" stroke-miterlimit="10"/>
<path d="M50.5751 20.7934C50.4069 20.7934 50.245 20.7713 50.0895 20.7272C49.9339 20.6809 49.8047 20.6178 49.7017 20.538L49.8593 20.188C50.0737 20.3372 50.3144 20.4118 50.5814 20.4118C50.7201 20.4118 50.8263 20.3898 50.8998 20.3456C50.9755 20.2994 51.0134 20.2363 51.0134 20.1564C51.0134 20.085 50.9787 20.0293 50.9093 19.9893C50.842 19.9494 50.7212 19.9105 50.5467 19.8727C50.3512 19.8327 50.1946 19.7844 50.0769 19.7276C49.9613 19.6709 49.8761 19.6015 49.8215 19.5195C49.7689 19.4354 49.7427 19.3324 49.7427 19.2105C49.7427 19.076 49.7794 18.9562 49.853 18.8511C49.9287 18.746 50.0338 18.664 50.1683 18.6051C50.3029 18.5442 50.4584 18.5137 50.635 18.5137C50.7926 18.5137 50.944 18.5368 51.089 18.583C51.2362 18.6293 51.3528 18.6913 51.439 18.7691L51.2814 19.1191C51.0775 18.9698 50.8631 18.8952 50.6381 18.8952C50.5099 18.8952 50.409 18.9204 50.3354 18.9709C50.2619 19.0192 50.2251 19.0865 50.2251 19.1727C50.2251 19.2231 50.2387 19.2652 50.2661 19.2988C50.2955 19.3303 50.3428 19.3587 50.408 19.3839C50.4752 19.4092 50.5698 19.4354 50.6917 19.4628C50.9776 19.5258 51.1826 19.6067 51.3066 19.7055C51.4327 19.8043 51.4958 19.941 51.4958 20.1155C51.4958 20.3257 51.4148 20.4917 51.253 20.6136C51.0911 20.7335 50.8652 20.7934 50.5751 20.7934Z" fill="white"/>
<path d="M53.3573 18.542H53.8397V20.765H53.3573V19.8317H52.3325V20.765H51.8501V18.542H52.3325V19.4407H53.3573V18.542Z" fill="white"/>
<path d="M55.3043 20.7934C55.0835 20.7934 54.8912 20.7471 54.7272 20.6546C54.5654 20.56 54.4403 20.4276 54.352 20.2573C54.2637 20.085 54.2196 19.8832 54.2196 19.6519C54.2196 19.4207 54.2637 19.22 54.352 19.0497C54.4403 18.8773 54.5654 18.7449 54.7272 18.6524C54.8912 18.5599 55.0835 18.5137 55.3043 18.5137C55.525 18.5137 55.7163 18.5599 55.8781 18.6524C56.0421 18.7449 56.1682 18.8773 56.2565 19.0497C56.3448 19.22 56.3889 19.4207 56.3889 19.6519C56.3889 19.8832 56.3448 20.085 56.2565 20.2573C56.1682 20.4276 56.0421 20.56 55.8781 20.6546C55.7163 20.7471 55.525 20.7934 55.3043 20.7934ZM55.3043 20.4118C55.4892 20.4118 55.6343 20.3467 55.7394 20.2164C55.8466 20.086 55.9002 19.8979 55.9002 19.6519C55.9002 19.406 55.8476 19.2189 55.7425 19.0907C55.6374 18.9604 55.4913 18.8952 55.3043 18.8952C55.1172 18.8952 54.9711 18.9604 54.866 19.0907C54.763 19.2189 54.7115 19.406 54.7115 19.6519C54.7115 19.8979 54.764 20.086 54.8691 20.2164C54.9742 20.3467 55.1193 20.4118 55.3043 20.4118Z" fill="white"/>
<path d="M56.7645 18.542H57.7861C58.0278 18.542 58.216 18.603 58.3505 18.7249C58.485 18.8469 58.5523 19.0171 58.5523 19.2357C58.5523 19.4543 58.485 19.6246 58.3505 19.7465C58.216 19.8685 58.0278 19.9294 57.7861 19.9294H57.2564V20.765H56.7645V18.542ZM57.723 19.5574C57.969 19.5574 58.0919 19.4512 58.0919 19.2389C58.0919 19.1296 58.0615 19.0486 58.0005 18.9961C57.9395 18.9435 57.8471 18.9173 57.723 18.9173H57.2564V19.5574H57.723Z" fill="white"/>
<path d="M60.3778 18.542H60.8603V20.765H60.3778V19.8317H59.3531V20.765H58.8707V18.542H59.3531V19.4407H60.3778V18.542Z" fill="white"/>
<path d="M62.3248 20.7934C62.1041 20.7934 61.9118 20.7471 61.7478 20.6546C61.586 20.56 61.4609 20.4276 61.3726 20.2573C61.2843 20.085 61.2402 19.8832 61.2402 19.6519C61.2402 19.4207 61.2843 19.22 61.3726 19.0497C61.4609 18.8773 61.586 18.7449 61.7478 18.6524C61.9118 18.5599 62.1041 18.5137 62.3248 18.5137C62.5456 18.5137 62.7368 18.5599 62.8987 18.6524C63.0627 18.7449 63.1888 18.8773 63.2771 19.0497C63.3654 19.22 63.4095 19.4207 63.4095 19.6519C63.4095 19.8832 63.3654 20.085 63.2771 20.2573C63.1888 20.4276 63.0627 20.56 62.8987 20.6546C62.7368 20.7471 62.5456 20.7934 62.3248 20.7934ZM62.3248 20.4118C62.5098 20.4118 62.6549 20.3467 62.76 20.2164C62.8672 20.086 62.9208 19.8979 62.9208 19.6519C62.9208 19.406 62.8682 19.2189 62.7631 19.0907C62.658 18.9604 62.5119 18.8952 62.3248 18.8952C62.1378 18.8952 61.9917 18.9604 61.8866 19.0907C61.7836 19.2189 61.7321 19.406 61.7321 19.6519C61.7321 19.8979 61.7846 20.086 61.8897 20.2164C61.9948 20.3467 62.1399 20.4118 62.3248 20.4118Z" fill="white"/>
<path d="M64.7278 20.7934C64.4167 20.7934 64.1792 20.7135 64.0152 20.5537C63.8534 20.3919 63.7725 20.1564 63.7725 19.8474V18.542H64.2549V19.8695C64.2549 20.0461 64.2948 20.1806 64.3747 20.2731C64.4567 20.3656 64.5744 20.4118 64.7278 20.4118C64.8813 20.4118 64.999 20.3656 65.081 20.2731C65.163 20.1785 65.204 20.044 65.204 19.8695V18.542H65.6864V19.8474C65.6864 20.1543 65.6044 20.3887 65.4404 20.5506C65.2765 20.7124 65.039 20.7934 64.7278 20.7934Z" fill="white"/>
<path d="M66.8948 20.7934C66.7267 20.7934 66.5648 20.7713 66.4093 20.7272C66.2537 20.6809 66.1244 20.6178 66.0214 20.538L66.1791 20.188C66.3935 20.3372 66.6342 20.4118 66.9011 20.4118C67.0399 20.4118 67.146 20.3898 67.2196 20.3456C67.2953 20.2994 67.3331 20.2363 67.3331 20.1564C67.3331 20.085 67.2984 20.0293 67.2291 19.9893C67.1618 19.9494 67.0409 19.9105 66.8665 19.8727C66.671 19.8327 66.5144 19.7844 66.3967 19.7276C66.281 19.6709 66.1959 19.6015 66.1413 19.5195C66.0887 19.4354 66.0624 19.3324 66.0624 19.2105C66.0624 19.076 66.0992 18.9562 66.1728 18.8511C66.2485 18.746 66.3536 18.664 66.4881 18.6051C66.6226 18.5442 66.7782 18.5137 66.9548 18.5137C67.1124 18.5137 67.2638 18.5368 67.4088 18.583C67.5559 18.6293 67.6726 18.6913 67.7588 18.7691L67.6011 19.1191C67.3972 18.9698 67.1828 18.8952 66.9579 18.8952C66.8297 18.8952 66.7288 18.9204 66.6552 18.9709C66.5816 19.0192 66.5448 19.0865 66.5448 19.1727C66.5448 19.2231 66.5585 19.2652 66.5858 19.2988C66.6153 19.3303 66.6626 19.3587 66.7277 19.3839C66.795 19.4092 66.8896 19.4354 67.0115 19.4628C67.2974 19.5258 67.5023 19.6067 67.6264 19.7055C67.7525 19.8043 67.8155 19.941 67.8155 20.1155C67.8155 20.3257 67.7346 20.4917 67.5728 20.6136C67.4109 20.7335 67.1849 20.7934 66.8948 20.7934Z" fill="white"/>
<path d="M68.1699 20.765V18.542H69.7023V18.9236H68.6491V19.4438H69.6392V19.8254H68.6491V20.3835H69.7023V20.765H68.1699Z" fill="white"/>
<path d="M83.2933 21.1979C82.7147 21.1979 82.2413 21.6713 82.2413 22.2499C82.2413 22.8285 82.7147 23.302 83.2933 23.302C83.872 23.302 84.3454 22.8285 84.3454 22.2499C84.3454 21.6713 83.872 21.1979 83.2933 21.1979ZM80.8211 19.6725L81.7416 20.6456C82.1361 20.2511 82.6884 20.0144 83.2933 20.0144C83.8983 20.0144 84.4243 20.2511 84.8451 20.6456L85.7656 19.6725C85.1344 19.0676 84.2402 18.6731 83.2933 18.6731C82.3202 18.6731 81.4523 19.0676 80.8211 19.6725ZM83.2933 12.9922C80.8211 12.9922 78.5593 13.9653 76.9023 15.5696L77.8229 16.5427C79.2431 15.1751 81.163 14.3598 83.2933 14.3598C85.4237 14.3598 87.3436 15.2014 88.7638 16.5427L89.6843 15.5696C88.0274 13.9916 85.7656 12.9922 83.2933 12.9922ZM78.8749 17.6474L79.7954 18.6205C80.6896 17.7526 81.9257 17.2266 83.267 17.2266C84.6084 17.2266 85.8445 17.7526 86.7387 18.6205L87.6592 17.6474C86.502 16.5427 84.9503 15.8589 83.2407 15.8589C81.5838 15.8852 80.0321 16.5427 78.8749 17.6474Z" fill="#FFC331"/>
<path d="M16.6481 27.6957L16.3851 27.8535C16.1484 28.0113 15.8328 27.9587 15.675 27.722L13.9918 25.1709L13.4395 24.3555L14.36 23.7506L14.5441 23.6191L14.6756 23.8032L15.2542 24.6712L16.8059 27.0119C16.9374 27.2223 16.8848 27.5379 16.6481 27.6957Z" fill="#009AC9"/>
<path d="M25.0642 18.7001C25.2483 19.1209 25.1957 19.568 24.959 19.9362C24.8275 20.1729 24.5908 20.357 24.3278 20.4622H24.3015C24.2489 20.5148 24.1963 20.5148 24.1437 20.5411C24.1437 20.5411 24.1437 20.5411 24.1174 20.5411C24.0648 20.5674 24.0385 20.5674 23.9859 20.5674C23.9596 20.5674 23.9333 20.5674 23.907 20.5674C23.8544 20.5674 23.8281 20.5674 23.7755 20.5674C23.7229 20.5674 23.6703 20.5674 23.6177 20.5674C23.5651 20.5674 23.5125 20.5411 23.4599 20.5411H23.4336C23.381 20.5411 23.3284 20.5148 23.3021 20.4885C23.1969 20.4622 23.0917 20.4096 23.0128 20.3307C22.8024 20.1992 22.6183 19.9888 22.5394 19.7521C22.2501 19.0683 22.5657 18.2793 23.2495 17.99C23.5125 17.8848 23.7492 17.8585 24.0122 17.9111C24.0385 17.9111 24.0385 17.9111 24.0648 17.9111C24.17 17.9374 24.2489 17.9637 24.3541 18.0163C24.3804 18.0426 24.4067 18.0426 24.433 18.0689C24.4593 18.0689 24.4856 18.0952 24.4856 18.0952C24.4856 18.0952 24.5119 18.0952 24.5119 18.1215C24.5908 18.1741 24.6434 18.2267 24.696 18.2793C24.7223 18.3056 24.7223 18.3056 24.7486 18.3319C24.7749 18.3582 24.7749 18.3582 24.8012 18.3845C24.8275 18.4108 24.8275 18.4371 24.8538 18.4634C24.8801 18.4897 24.8801 18.516 24.9064 18.5423C24.9064 18.5686 24.9327 18.5686 24.9327 18.5949C25.0116 18.5949 25.0379 18.6475 25.0642 18.7001Z" fill="#112B46"/>
<path d="M25.0644 18.7001C25.2485 19.121 25.1959 19.5681 24.9592 19.9363C24.8277 20.173 24.591 20.3571 24.328 20.4623H24.3017C24.2491 20.5149 24.1965 20.5149 24.1439 20.5412C24.1439 20.5412 24.1439 20.5412 24.1176 20.5412C24.065 20.5675 24.0387 20.5675 23.9861 20.5675C23.9598 20.5675 23.9335 20.5675 23.9072 20.5675C23.8546 20.5675 23.8283 20.5675 23.7757 20.5675C23.7231 20.5675 23.6705 20.5675 23.6179 20.5675C23.5653 20.5675 23.5126 20.5412 23.46 20.5412H23.4337C23.3811 20.5412 23.3285 20.5149 23.3022 20.4886C23.197 20.4623 23.0918 20.4097 23.0129 20.3308C23.2496 20.3834 23.5127 20.3571 23.7757 20.2519C23.9072 20.1993 24.0124 20.1204 24.1176 20.0415C24.3806 19.8048 24.5647 19.4892 24.591 19.1473C24.6173 18.9368 24.591 18.7001 24.4858 18.4897C24.4069 18.2793 24.2491 18.0952 24.0913 17.9637C24.065 17.9374 24.0387 17.9374 24.0124 17.9111C24.0387 17.9111 24.0387 17.9111 24.065 17.9374C24.1702 17.9637 24.2491 17.99 24.3543 18.0426C24.3806 18.0689 24.4069 18.0689 24.4332 18.0952C24.4595 18.0952 24.4858 18.1215 24.4858 18.1215C24.4858 18.1215 24.5121 18.1215 24.5121 18.1478C24.591 18.2004 24.6436 18.253 24.6962 18.3056C24.7225 18.3319 24.7225 18.3319 24.7488 18.3582C24.7751 18.3845 24.7751 18.3845 24.8014 18.4108C24.8277 18.4371 24.8277 18.4634 24.854 18.4897C24.8803 18.516 24.8803 18.5423 24.9066 18.5686C24.9066 18.5949 24.9329 18.5949 24.9329 18.6212C25.0118 18.5949 25.0381 18.6475 25.0644 18.7001Z" fill="#112B46"/>
<path d="M15.7013 24.4337L15.2279 24.6178L13.9918 25.1438L13.7814 25.249L12.782 22.8819L12.4927 22.1718L14.4126 21.3828L15.4383 23.8025L15.7013 24.4337Z" fill="#009AC9"/>
<path d="M13.7814 25.249L13.6236 25.3279C13.3343 25.4594 12.9661 25.3016 12.8346 25.0123L12.0193 23.0398C11.8878 22.7505 12.0456 22.3823 12.3349 22.2508L12.4927 22.1719L12.782 22.882L13.7814 25.249Z" fill="#FFC331"/>
<path d="M25.4588 23.1189H25.4325L15.7013 24.4339L15.4383 23.8027L14.4126 21.3831L22.1712 15.334L23.2758 17.9903L24.1437 20.0418L24.3279 20.4626L25.4588 23.1189Z" fill="#FFC331"/>
<path opacity="0.5" d="M25.4587 23.1188L15.7012 24.4339L15.4382 23.7764C16.8585 23.6974 18.5417 23.0925 20.2249 22.1983C23.5125 20.4888 22.1711 15.3076 22.1711 15.3076L23.2758 17.964L24.1437 20.0417L24.3278 20.4625L25.4587 23.1188Z" fill="#FFC331"/>
<path d="M26.3004 23.1453C26.353 23.3031 26.3004 23.4872 26.1426 23.5398L25.9848 23.6187C25.827 23.6713 25.6429 23.6187 25.5903 23.4609L25.4588 23.1453L24.3542 20.4889L24.1701 20.0681L23.3022 17.9904L22.1975 15.3341L22.0397 14.9922C21.9871 14.8344 22.0397 14.6503 22.1975 14.5976L22.3553 14.5187C22.5132 14.4661 22.6973 14.5187 22.7499 14.6766L23.0392 15.3604L24.0912 17.8852L24.1175 17.9378L24.6172 19.1476L24.9328 19.9366L26.3004 23.1453Z" fill="#009AC9"/>
<path d="M29.8246 21.1723L27.3261 21.2512L30.1665 21.672L35.2162 22.4084C35.637 22.461 36.0052 22.1717 36.0315 21.7509C36.0578 21.3301 35.7159 20.9882 35.2951 21.0145L29.8246 21.1723ZM35.1899 14.5446C35.0321 14.15 34.585 13.9922 34.2168 14.2026L27.1946 17.8584L26.5634 18.174L27.2735 17.9373L34.7428 15.4914C35.1636 15.3599 35.3477 14.9128 35.1899 14.5446ZM29.5879 9.02147L24.8801 15.4388L30.6399 9.94198C30.9292 9.65268 30.9292 9.17927 30.6136 8.88996C30.298 8.62696 29.8246 8.67956 29.5879 9.02147Z" fill="#FFC331"/>
</svg>
