<svg width="14" height="14" viewBox="0 0 14 14" fill="none" xmlns="http://www.w3.org/2000/svg">
<path d="M6.34025 4.29873C6.30642 4.33169 6.16175 4.45614 6.04275 4.57207C5.29433 5.25173 4.06933 7.02474 3.69542 7.95273C3.63533 8.09366 3.50817 8.44997 3.5 8.64034C3.5 8.82276 3.542 8.99665 3.62717 9.16259C3.74617 9.36944 3.93342 9.53538 4.1545 9.6263C4.30792 9.68483 4.767 9.77576 4.77517 9.77576C5.27742 9.86668 6.0935 9.91669 6.99533 9.91669C7.85458 9.91669 8.63742 9.86668 9.14725 9.79223C9.15542 9.78371 9.72592 9.69279 9.92133 9.59334C10.2783 9.41092 10.5 9.05462 10.5 8.6733V8.64034C10.4912 8.39201 10.2696 7.86976 10.2614 7.86976C9.88692 6.99178 8.722 5.25968 7.94792 4.56355C7.94792 4.56355 7.749 4.36749 7.62475 4.28225C7.44625 4.14927 7.22517 4.08335 7.00408 4.08335C6.75733 4.08335 6.5275 4.1578 6.34025 4.29873Z" fill="#21313F"/>
</svg>
