<svg width="20" height="20" viewBox="0 0 20 20" fill="none" xmlns="http://www.w3.org/2000/svg">
<path fill-rule="evenodd" clip-rule="evenodd" d="M7.5 5.83366C7.5 4.45295 8.61928 3.33366 10 3.33366C11.3807 3.33366 12.5 4.45295 12.5 5.83366C12.5 7.21437 11.3807 8.33366 10 8.33366C8.61928 8.33366 7.5 7.21437 7.5 5.83366ZM10 1.66699C7.69881 1.66699 5.83333 3.53247 5.83333 5.83366C5.83333 8.13485 7.69881 10.0003 10 10.0003C12.3012 10.0003 14.1667 8.13485 14.1667 5.83366C14.1667 3.53247 12.3012 1.66699 10 1.66699ZM6.66667 11.667C5.5616 11.667 4.50179 12.106 3.72039 12.8874C2.93899 13.6688 2.5 14.7286 2.5 15.8337V17.5003C2.5 17.9606 2.8731 18.3337 3.33333 18.3337C3.79357 18.3337 4.16667 17.9606 4.16667 17.5003V15.8337C4.16667 15.1706 4.43006 14.5347 4.8989 14.0659C5.36774 13.5971 6.00363 13.3337 6.66667 13.3337H13.3333C13.9964 13.3337 14.6323 13.5971 15.1011 14.0659C15.5699 14.5347 15.8333 15.1706 15.8333 15.8337V17.5003C15.8333 17.9606 16.2064 18.3337 16.6667 18.3337C17.1269 18.3337 17.5 17.9606 17.5 17.5003V15.8337C17.5 14.7286 17.061 13.6688 16.2796 12.8874C15.4982 12.106 14.4384 11.667 13.3333 11.667H6.66667Z" fill="#21313F"/>
</svg>
