<svg width="288" height="207" viewBox="0 0 288 207" fill="none" xmlns="http://www.w3.org/2000/svg">
<g clip-path="url(#clip0)">
<path d="M187.151 77.6879V99.2042C187.151 102.946 190.308 106.103 194.202 106.103H271.348C275.241 106.103 278.398 102.946 278.398 99.053V80.8739L288.005 70.7842L194.226 70.4914C190.318 70.4768 187.151 73.6384 187.151 77.6879Z" fill="#F5F5F5"/>
<path d="M267.02 83.5233L197.017 83.2013L197.021 81.0496L267.03 81.3716L267.02 83.5233Z" fill="#E0E0E0"/>
<path d="M267.02 90.6027L197.017 90.2807L197.021 88.129L267.03 88.451L267.02 90.6027Z" fill="#E0E0E0"/>
<path d="M239.333 95.2121L239.322 97.3638L267.02 97.5L267.031 95.3484L239.333 95.2121Z" fill="#E0E0E0"/>
<path d="M55.668 187.353C66.4554 179.815 68.9046 165.827 68.4753 153.254C68.4021 151.156 68.6363 148.941 67.6361 147.101C66.6359 145.262 64.3086 144.003 62.4302 144.886C60.869 145.618 60.1908 147.433 59.3223 148.931C58.1611 150.926 56.434 152.576 54.3994 153.634C53.0626 154.327 51.4086 154.752 50.0913 154.025C48.2812 153.024 48.0665 150.526 48.0812 148.438C48.1055 144.545 48.1299 140.656 48.1543 136.768C48.169 134.679 48.1739 132.547 47.525 130.566C46.876 128.586 45.4416 126.746 43.4559 126.19C41.4701 125.634 39.016 126.78 38.5964 128.825C38.4208 129.674 38.5964 130.557 38.5379 131.425C38.4793 132.294 38.0744 133.25 37.2547 133.494C36.4204 133.738 35.5861 133.147 34.9616 132.538C32.8051 130.43 31.3463 127.712 29.9801 125.014C28.614 122.316 27.2869 119.55 25.3305 117.252C23.374 114.954 20.671 113.129 17.6802 112.963C14.6894 112.792 11.5034 114.641 10.7472 117.574C9.99095 120.516 11.7084 123.502 13.577 125.887C16.3483 129.425 19.6269 132.547 23.2813 135.138C23.94 135.606 24.6523 136.109 24.906 136.885C25.3597 138.275 24.0424 139.661 22.6665 140.115C21.1101 140.632 19.422 140.471 17.7924 140.661C16.1629 140.851 14.4016 141.569 13.7868 143.11C12.933 145.242 14.7187 147.482 16.4702 148.946C19.988 151.878 24.0034 154.195 28.2871 155.766C29.824 156.327 31.439 156.82 32.6782 157.898C33.9175 158.977 34.664 160.855 33.9175 162.324C33.171 163.797 31.2487 164.266 29.6386 163.968C28.0285 163.67 26.5892 162.797 25.0572 162.216C22.1884 161.133 18.4853 161.333 16.6459 163.812C15.4359 165.441 15.3334 167.71 15.9433 169.652C16.5532 171.594 17.7924 173.267 19.1098 174.814C23.7058 180.21 29.5947 184.552 36.2496 186.86C42.8899 189.148 49.0569 189.773 55.668 187.353Z" fill="#F5F5F5"/>
<path d="M55.8339 196.677C55.3801 191.695 54.2873 185.811 52.4235 179.468C50.5744 173.121 47.969 166.334 44.9977 159.328C44.2512 157.581 43.5096 155.849 42.7777 154.147C42.0459 152.449 41.3189 150.765 40.509 149.16C38.899 145.945 37.1084 142.979 35.3178 140.212C33.5272 137.446 31.7317 134.889 30.0338 132.508C28.3311 130.132 26.6966 127.941 25.1256 126.014C21.9933 122.14 19.1049 119.325 17.0411 117.471C16.0117 116.539 15.1871 115.847 14.626 115.383C14.3528 115.163 14.143 114.988 13.982 114.861C13.8356 114.744 13.7576 114.69 13.7527 114.695C13.7478 114.7 13.8161 114.768 13.9576 114.895C14.1137 115.032 14.3186 115.217 14.5772 115.446C15.1237 115.929 15.9287 116.642 16.9435 117.588C18.9732 119.476 21.8225 122.311 24.9158 126.195C26.4673 128.132 28.0823 130.322 29.7753 132.703C31.4634 135.089 33.2491 137.651 35.025 140.417C36.801 143.179 38.5818 146.14 40.1772 149.341C40.9823 150.936 41.6995 152.605 42.4313 154.308C43.1583 156.01 43.8999 157.737 44.6464 159.484C47.6128 166.485 50.2231 173.253 52.0868 179.576C53.9604 185.894 55.0777 191.744 55.5656 196.706" fill="#E0E0E0"/>
<path d="M40.4013 149.15C40.4257 149.155 40.4989 148.838 40.6062 148.258C40.7136 147.682 40.8453 146.843 40.9917 145.803C41.2844 143.725 41.5967 140.842 41.9236 137.66C42.2505 134.479 42.6017 131.606 42.9286 129.537C43.0896 128.503 43.2262 127.668 43.3287 127.088C43.4263 126.512 43.4702 126.185 43.4458 126.18C43.4214 126.175 43.3287 126.488 43.1823 127.054C43.036 127.619 42.8554 128.454 42.6603 129.483C42.2651 131.547 41.8699 134.426 41.5381 137.612C41.221 140.754 40.9331 143.593 40.7136 145.764C40.6062 146.745 40.5184 147.57 40.4452 148.233C40.3964 148.819 40.372 149.146 40.4013 149.15Z" fill="#E0E0E0"/>
<path d="M13.5571 144.135C13.5571 144.159 13.9377 144.208 14.6256 144.262C15.3136 144.325 16.3138 144.408 17.5384 144.55C19.9974 144.813 23.3785 145.301 27.0865 145.999C30.7946 146.706 34.1269 147.487 36.5176 148.121C37.7178 148.428 38.679 148.706 39.3474 148.892C40.0158 149.082 40.3866 149.175 40.3964 149.15C40.4062 149.126 40.0451 148.985 39.3913 148.75C38.7375 148.521 37.7813 148.204 36.5908 147.857C34.2099 147.155 30.8775 146.325 27.1597 145.618C23.4419 144.915 20.0364 144.471 17.5628 144.276C16.3284 144.169 15.3233 144.125 14.6305 144.11C13.9426 144.101 13.562 144.106 13.5571 144.135Z" fill="#E0E0E0"/>
<path d="M52.0913 178.976C52.1011 178.98 52.1645 178.868 52.2767 178.649C52.3987 178.385 52.5499 178.063 52.7353 177.678C53.1305 176.834 53.6672 175.594 54.3161 174.058C55.6091 170.984 57.2679 166.681 59.0292 161.904C60.7905 157.128 62.4055 152.815 63.635 149.716C64.2351 148.209 64.7327 146.974 65.1035 146.052C65.2597 145.652 65.3914 145.325 65.4988 145.052C65.5866 144.823 65.6256 144.701 65.611 144.691C65.5963 144.686 65.5378 144.798 65.4256 145.018C65.3036 145.281 65.1523 145.599 64.9669 145.989C64.5717 146.833 64.0351 148.072 63.3862 149.609C62.0932 152.683 60.4344 156.986 58.6731 161.763C56.9117 166.539 55.2968 170.847 54.0673 173.945C53.4623 175.448 52.9695 176.687 52.5987 177.609C52.4426 178.01 52.3109 178.341 52.2035 178.61C52.1206 178.849 52.0816 178.971 52.0913 178.976Z" fill="#E0E0E0"/>
<path d="M16.4264 167.481C16.4215 167.495 16.5435 167.544 16.7826 167.627C17.0607 167.72 17.4022 167.837 17.8169 167.973C18.7732 168.286 20.0661 168.7 21.6372 169.213C24.8622 170.257 29.2972 171.755 34.2005 173.414C39.1039 175.072 43.5584 176.531 46.8078 177.507C48.4325 177.995 49.7498 178.38 50.6671 178.624C51.0916 178.737 51.438 178.829 51.7258 178.902C51.9698 178.961 52.0966 178.985 52.1015 178.976C52.1064 178.961 51.9844 178.912 51.7453 178.829C51.4672 178.737 51.1257 178.624 50.711 178.483C49.7547 178.171 48.4618 177.756 46.8908 177.244C43.6658 176.199 39.2259 174.702 34.3274 173.043C29.424 171.384 24.9695 169.925 21.725 168.949C20.1003 168.457 18.783 168.076 17.8657 167.827C17.4412 167.715 17.0948 167.622 16.807 167.549C16.5581 167.49 16.4313 167.466 16.4264 167.481Z" fill="#E0E0E0"/>
<path d="M80.5602 55.43V72.1015C80.5602 75.1167 78.1159 77.5611 75.1006 77.5611H15.3234C12.3082 77.5611 9.86378 75.1167 9.86378 72.1015V58.0159L2.41846 50.1949L75.0811 49.9656C78.1061 49.9607 80.5602 52.4051 80.5602 55.43Z" fill="#E0E0E0"/>
<path d="M18.6753 60.07L72.9149 59.8163L72.91 58.1525L18.6655 58.4014L18.6753 60.07Z" fill="#FAFAFA"/>
<path d="M18.6753 65.554L72.9149 65.3003L72.91 63.6365L18.6655 63.8854L18.6753 65.554Z" fill="#FAFAFA"/>
<path d="M40.1296 69.127L18.667 69.2327L18.6752 70.9013L40.1378 70.7957L40.1296 69.127Z" fill="#FAFAFA"/>
<path d="M281.916 206.488C281.916 206.556 218.972 206.615 141.338 206.615C63.684 206.615 0.75 206.556 0.75 206.488C0.75 206.42 63.684 206.361 141.338 206.361C218.967 206.361 281.916 206.415 281.916 206.488Z" fill="#263238"/>
<path d="M231.989 86.192V200.853C231.989 203.966 229.467 206.488 226.354 206.488H56.9072C53.7944 206.488 51.272 203.966 51.272 200.853V86.192C51.272 83.0793 53.7944 80.5568 56.9072 80.5568H226.354C229.467 80.5568 231.989 83.0793 231.989 86.192Z" fill="#263238"/>
<path d="M63.6328 84.5264L63.6328 202.515H214.554V84.5264L63.6328 84.5264Z" fill="white"/>
<path d="M227.613 144.626C228.223 142.029 226.612 139.429 224.016 138.818C221.419 138.208 218.819 139.819 218.208 142.415C217.598 145.012 219.208 147.612 221.805 148.223C224.402 148.833 227.002 147.223 227.613 144.626Z" fill="#455A64"/>
<path d="M58.4682 125.151V161.894C58.4682 162.221 58.2047 162.49 57.8729 162.49H57.063C56.7361 162.49 56.4678 162.226 56.4678 161.894V125.151C56.4678 124.824 56.7312 124.555 57.063 124.555H57.8729C58.2047 124.56 58.4682 124.824 58.4682 125.151Z" fill="#455A64"/>
<path d="M106.441 153.771C110.143 148.147 108.585 140.586 102.96 136.883C97.3353 133.181 89.7744 134.74 86.0721 140.364C82.3699 145.989 83.9284 153.55 89.5531 157.252C95.1778 160.954 102.739 159.396 106.441 153.771Z" fill="#E8505B"/>
<path opacity="0.3" d="M106.441 153.771C110.143 148.147 108.585 140.586 102.96 136.883C97.3353 133.181 89.7744 134.74 86.0721 140.364C82.3699 145.989 83.9284 153.55 89.5531 157.252C95.1778 160.954 102.739 159.396 106.441 153.771Z" fill="white"/>
<path d="M92.0505 143.998C92.514 143.959 92.9336 144.471 92.9873 145.135C93.041 145.803 92.7141 146.374 92.2506 146.413C91.7871 146.452 91.3675 145.94 91.3138 145.277C91.2601 144.608 91.5919 144.032 92.0505 143.998Z" fill="#263238"/>
<path d="M99.8032 143.837C99.3397 143.818 98.9445 144.345 98.9153 145.013C98.886 145.682 99.2422 146.238 99.7057 146.257C100.169 146.277 100.564 145.75 100.594 145.081C100.618 144.413 100.267 143.857 99.8032 143.837Z" fill="#263238"/>
<path d="M101.135 149.482C101.135 149.624 98.8615 149.741 96.061 149.741C93.2555 149.741 90.9868 149.624 90.9868 149.482C90.9868 149.341 93.2604 149.224 96.061 149.224C98.8615 149.224 101.135 149.341 101.135 149.482Z" fill="#263238"/>
<path d="M92.9825 142.598C92.9532 142.744 92.3726 142.739 91.6944 142.847C91.0163 142.949 90.4649 143.13 90.3918 143.003C90.3186 142.886 90.826 142.456 91.6115 142.334C92.4019 142.208 93.0215 142.461 92.9825 142.598Z" fill="#263238"/>
<path d="M102.004 143.188C101.911 143.305 101.384 143.027 100.706 142.827C100.033 142.613 99.4423 142.549 99.4325 142.398C99.413 142.261 100.077 142.086 100.862 142.33C101.643 142.564 102.096 143.081 102.004 143.188Z" fill="#263238"/>
<path d="M197.017 148.039C198.115 141.146 193.417 134.669 186.525 133.571C179.632 132.474 173.155 137.171 172.057 144.063C170.959 150.956 175.657 157.433 182.549 158.531C189.442 159.629 195.919 154.931 197.017 148.039Z" fill="#E8505B"/>
<path opacity="0.3" d="M197.017 148.039C198.115 141.146 193.417 134.669 186.525 133.571C179.632 132.474 173.155 137.171 172.057 144.063C170.959 150.956 175.657 157.433 182.549 158.531C189.442 159.629 195.919 154.931 197.017 148.039Z" fill="black"/>
<path d="M180.165 142.871C180.643 142.832 181.077 143.359 181.136 144.052C181.194 144.745 180.853 145.335 180.37 145.374C179.891 145.413 179.457 144.886 179.399 144.193C179.345 143.505 179.686 142.91 180.165 142.871Z" fill="#263238"/>
<path d="M188.201 142.705C187.722 142.686 187.308 143.232 187.278 143.925C187.249 144.618 187.615 145.194 188.098 145.218C188.576 145.237 188.991 144.691 189.02 143.998C189.045 143.305 188.679 142.725 188.201 142.705Z" fill="#263238"/>
<path d="M189.576 148.56C189.523 148.628 189.001 148.258 188.098 147.794C187.196 147.34 185.864 146.838 184.336 146.862C182.809 146.891 181.482 147.414 180.565 147.843C179.648 148.287 179.106 148.628 179.057 148.56C179.023 148.511 179.492 148.062 180.394 147.516C181.292 146.989 182.678 146.374 184.332 146.34C185.986 146.311 187.396 146.916 188.284 147.467C189.167 148.038 189.616 148.516 189.576 148.56Z" fill="#263238"/>
<path d="M181.131 141.422C181.175 141.476 181.092 141.632 180.882 141.817C180.672 141.998 180.326 142.203 179.891 142.281C179.457 142.359 179.047 142.276 178.794 142.159C178.535 142.037 178.418 141.9 178.447 141.842C178.516 141.705 179.106 141.9 179.799 141.769C180.496 141.642 181.033 141.3 181.131 141.422Z" fill="#263238"/>
<path d="M190.479 142.032C190.498 142.095 190.362 142.217 190.084 142.31C189.811 142.393 189.376 142.422 188.947 142.271C188.518 142.125 188.2 141.861 188.02 141.651C187.835 141.437 187.766 141.271 187.815 141.222C187.922 141.11 188.435 141.544 189.118 141.783C189.796 142.027 190.43 141.886 190.479 142.032Z" fill="#263238"/>
<path d="M160.307 181.137L163.235 179.683L166.089 181.274L165.616 178.039L168.006 175.819L164.786 175.268L163.41 172.306L161.893 175.199L158.648 175.594L160.937 177.931L160.307 181.137Z" fill="#E0E0E0"/>
<path d="M160.363 181.137L163.291 179.683L166.145 181.274L165.672 178.039L168.062 175.819L164.842 175.268L163.466 172.306L161.949 175.199L158.705 175.594L160.993 177.931L160.363 181.137Z" fill="#E8505B"/>
<path d="M148.363 181.137L151.291 179.683L154.145 181.274L153.672 178.039L156.062 175.819L152.842 175.268L151.466 172.306L149.949 175.199L146.705 175.594L148.993 177.931L148.363 181.137Z" fill="#E8505B"/>
<path d="M136.42 181.137L139.347 179.683L142.201 181.274L141.728 178.039L144.119 175.819L140.898 175.268L139.523 172.306L138.005 175.199L134.761 175.594L137.049 177.931L136.42 181.137Z" fill="#E8505B"/>
<path d="M124.476 181.137L127.404 179.683L130.258 181.274L129.785 178.039L132.175 175.819L128.955 175.268L127.579 172.306L126.062 175.199L122.817 175.594L125.106 177.931L124.476 181.137Z" fill="#E8505B"/>
<path d="M112.532 181.137L115.46 179.683L118.314 181.274L117.841 178.039L120.231 175.819L117.011 175.268L115.635 172.306L114.118 175.199L110.874 175.594L113.162 177.931L112.532 181.137Z" fill="#E8505B"/>
<path d="M168.143 109.245C168.143 109.318 155.038 109.377 138.879 109.377C122.715 109.377 109.615 109.318 109.615 109.245C109.615 109.172 122.715 109.114 138.879 109.114C155.038 109.114 168.143 109.172 168.143 109.245Z" fill="#263238"/>
<path d="M153.755 105.727C153.755 105.801 147.28 105.859 139.303 105.859C131.316 105.859 124.847 105.801 124.847 105.727C124.847 105.654 131.316 105.596 139.303 105.596C147.28 105.601 153.755 105.659 153.755 105.727Z" fill="#263238"/>
<path d="M157.211 148.25C160.03 139.499 155.221 130.12 146.471 127.301C137.72 124.483 128.341 129.291 125.522 138.042C122.703 146.793 127.512 156.172 136.263 158.991C145.013 161.81 154.393 157.001 157.211 148.25Z" fill="url(#paint0_linear)"/>
<path d="M135.63 138.953C136.259 138.9 136.835 139.597 136.908 140.51C136.981 141.422 136.532 142.203 135.903 142.252C135.273 142.305 134.698 141.608 134.625 140.695C134.551 139.783 135 139.002 135.63 138.953Z" fill="#263238"/>
<path d="M146.217 138.734C145.582 138.709 145.041 139.427 145.002 140.339C144.963 141.251 145.446 142.012 146.08 142.037C146.714 142.061 147.256 141.344 147.295 140.432C147.329 139.519 146.851 138.758 146.217 138.734Z" fill="#263238"/>
<path d="M148.031 144.198C148.056 144.223 147.924 144.393 147.656 144.686C147.397 144.989 146.968 145.369 146.407 145.808C145.826 146.213 145.109 146.701 144.206 147.013C143.313 147.345 142.26 147.545 141.152 147.492C140.045 147.453 139.025 147.15 138.152 146.799C137.268 146.457 136.541 146.013 135.941 145.642C134.761 144.852 134.136 144.242 134.17 144.198C134.224 144.13 134.927 144.637 136.132 145.33C136.742 145.657 137.468 146.052 138.322 146.355C139.171 146.667 140.142 146.935 141.176 146.974C142.211 147.023 143.192 146.852 144.045 146.565C144.909 146.296 145.607 145.862 146.197 145.506C146.763 145.115 147.222 144.789 147.519 144.535C147.822 144.296 148.007 144.174 148.031 144.198Z" fill="#263238"/>
<path d="M136.386 135.206C136.356 135.353 135.561 135.299 134.615 135.455C133.668 135.597 132.927 135.889 132.853 135.758C132.78 135.641 133.483 135.099 134.537 134.938C135.586 134.772 136.42 135.075 136.386 135.206Z" fill="#263238"/>
<path d="M149.788 135.987C149.695 136.104 148.993 135.684 148.046 135.401C147.105 135.104 146.285 135.06 146.275 134.909C146.256 134.772 147.149 134.577 148.198 134.904C149.247 135.221 149.881 135.884 149.788 135.987Z" fill="#263238"/>
<path d="M134.439 142.998C134.502 142.988 134.61 143.159 134.624 143.471C134.644 143.784 134.541 144.228 134.263 144.623C133.985 145.018 133.595 145.257 133.297 145.345C132.995 145.433 132.799 145.389 132.785 145.325C132.76 145.179 133.4 144.969 133.839 144.325C134.307 143.701 134.297 143.027 134.439 142.998Z" fill="#263238"/>
<path d="M149.437 144.53C149.452 144.593 149.315 144.696 149.052 144.72C148.793 144.745 148.422 144.662 148.105 144.423C147.783 144.184 147.598 143.852 147.549 143.603C147.495 143.349 147.554 143.188 147.617 143.179C147.764 143.169 147.929 143.662 148.417 144.003C148.891 144.374 149.408 144.389 149.437 144.53Z" fill="#263238"/>
<path d="M161.732 142.998C161.732 142.998 161.717 142.886 161.702 142.661C161.688 142.432 161.668 142.105 161.639 141.681C161.624 141.466 161.61 141.222 161.595 140.959C161.566 140.695 161.512 140.407 161.463 140.095C161.414 139.783 161.361 139.446 161.302 139.09C161.258 138.729 161.127 138.363 161.034 137.963C160.668 136.368 159.921 134.479 158.746 132.474C157.555 130.484 155.843 128.4 153.506 126.634C153.213 126.414 152.915 126.195 152.618 125.97C152.305 125.766 151.974 125.58 151.652 125.375C151.32 125.185 151.003 124.956 150.647 124.795C150.295 124.624 149.939 124.453 149.578 124.282C149.398 124.195 149.217 124.112 149.036 124.024C148.846 123.955 148.656 123.887 148.466 123.814C148.085 123.672 147.7 123.536 147.309 123.394C146.914 123.263 146.504 123.18 146.099 123.072C145.689 122.98 145.285 122.833 144.855 122.789C144.006 122.667 143.143 122.492 142.255 122.487C141.811 122.472 141.362 122.428 140.913 122.433C140.464 122.458 140.01 122.482 139.552 122.502C139.322 122.516 139.093 122.516 138.864 122.545L138.176 122.653C137.717 122.731 137.254 122.785 136.79 122.877C135.883 123.126 134.941 123.307 134.048 123.682C133.126 123.98 132.258 124.434 131.365 124.863C130.931 125.097 130.516 125.37 130.086 125.629C129.877 125.766 129.652 125.878 129.452 126.029L128.847 126.483C128.013 127.059 127.281 127.776 126.515 128.464C126.169 128.844 125.822 129.23 125.471 129.615L125.208 129.903L124.973 130.215L124.505 130.845L124.032 131.479L123.617 132.157L123.202 132.84L122.992 133.182L122.817 133.543C122.588 134.026 122.353 134.509 122.119 134.992C121.934 135.499 121.748 136.007 121.563 136.514C120.894 138.578 120.533 140.768 120.504 142.998C120.533 145.228 120.894 147.423 121.563 149.487C121.748 149.995 121.934 150.502 122.119 151.009C122.353 151.492 122.588 151.98 122.817 152.458L122.992 152.82L123.202 153.161L123.617 153.844L124.032 154.522L124.505 155.157L124.973 155.786L125.208 156.098L125.471 156.386C125.822 156.772 126.169 157.157 126.515 157.538C127.281 158.23 128.013 158.948 128.847 159.518L129.452 159.972C129.652 160.123 129.877 160.24 130.086 160.372C130.516 160.626 130.931 160.899 131.365 161.138C132.258 161.568 133.126 162.021 134.048 162.319C134.941 162.695 135.883 162.875 136.79 163.124C137.249 163.222 137.717 163.275 138.176 163.348L138.864 163.456C139.093 163.485 139.322 163.485 139.552 163.5C140.01 163.524 140.464 163.548 140.913 163.568C141.362 163.573 141.811 163.534 142.255 163.514C143.148 163.509 144.006 163.334 144.855 163.212C145.285 163.168 145.689 163.021 146.099 162.929C146.504 162.817 146.919 162.734 147.309 162.602C147.7 162.46 148.085 162.319 148.466 162.182C148.656 162.114 148.846 162.046 149.036 161.972C149.217 161.885 149.398 161.802 149.578 161.714C149.939 161.543 150.295 161.372 150.647 161.202C151.003 161.041 151.32 160.811 151.652 160.621C151.978 160.421 152.305 160.231 152.618 160.026C152.92 159.801 153.213 159.582 153.506 159.362C155.843 157.596 157.555 155.513 158.746 153.522C159.926 151.522 160.673 149.634 161.034 148.033C161.127 147.633 161.263 147.267 161.302 146.906C161.361 146.545 161.414 146.213 161.463 145.901C161.512 145.589 161.566 145.301 161.595 145.038C161.61 144.774 161.624 144.53 161.639 144.315C161.668 143.891 161.688 143.564 161.702 143.335C161.717 143.115 161.732 142.998 161.732 142.998C161.732 142.998 161.736 143.11 161.727 143.335C161.717 143.564 161.707 143.891 161.688 144.32C161.678 144.54 161.668 144.779 161.658 145.047C161.634 145.316 161.58 145.604 161.541 145.916C161.497 146.228 161.444 146.57 161.395 146.931C161.356 147.297 161.224 147.662 161.136 148.067C160.785 149.677 160.048 151.58 158.872 153.605C157.687 155.62 155.969 157.728 153.623 159.518C153.33 159.738 153.027 159.962 152.725 160.192C152.413 160.401 152.081 160.592 151.749 160.797C151.413 160.987 151.095 161.221 150.739 161.387C150.383 161.558 150.027 161.733 149.661 161.909C149.48 161.997 149.295 162.085 149.115 162.173C148.924 162.241 148.734 162.314 148.539 162.382C148.153 162.524 147.763 162.665 147.368 162.812C146.973 162.943 146.553 163.031 146.143 163.143C145.729 163.241 145.319 163.387 144.884 163.431C144.026 163.558 143.157 163.734 142.255 163.744C141.806 163.758 141.357 163.807 140.898 163.797C140.445 163.773 139.986 163.753 139.522 163.729C139.293 163.714 139.059 163.714 138.83 163.685L138.137 163.578C137.673 163.5 137.205 163.446 136.737 163.353C135.819 163.104 134.868 162.919 133.96 162.543C133.029 162.246 132.145 161.787 131.243 161.353C130.804 161.114 130.379 160.841 129.945 160.582C129.73 160.445 129.506 160.328 129.301 160.177L128.686 159.718C127.842 159.138 127.101 158.416 126.325 157.713C125.974 157.328 125.622 156.937 125.266 156.547L124.998 156.254L124.759 155.937L124.281 155.298L123.802 154.659L123.383 153.976L122.963 153.288L122.753 152.942L122.578 152.576C122.344 152.088 122.109 151.6 121.87 151.107C121.685 150.595 121.495 150.082 121.304 149.565C120.626 147.477 120.26 145.257 120.231 142.998C120.26 140.739 120.626 138.519 121.304 136.431C121.495 135.914 121.68 135.402 121.87 134.889C122.109 134.396 122.344 133.909 122.578 133.421L122.758 133.055L122.968 132.708L123.388 132.02L123.807 131.337L124.285 130.698L124.764 130.059L125.003 129.742L125.271 129.449C125.627 129.059 125.978 128.673 126.33 128.283C127.105 127.585 127.847 126.858 128.691 126.278L129.306 125.819C129.511 125.668 129.735 125.551 129.95 125.414C130.384 125.156 130.809 124.878 131.248 124.643C132.15 124.209 133.029 123.751 133.96 123.453C134.868 123.077 135.819 122.892 136.737 122.643C137.2 122.545 137.673 122.492 138.137 122.419L138.83 122.311C139.059 122.282 139.293 122.282 139.522 122.267C139.986 122.243 140.445 122.223 140.898 122.199C141.352 122.194 141.806 122.238 142.255 122.253C143.157 122.262 144.026 122.438 144.884 122.565C145.319 122.609 145.729 122.76 146.143 122.853C146.553 122.965 146.968 123.053 147.368 123.185C147.763 123.331 148.148 123.472 148.539 123.614C148.734 123.687 148.924 123.755 149.115 123.824C149.3 123.912 149.48 123.999 149.661 124.087C150.022 124.263 150.383 124.438 150.739 124.609C151.1 124.775 151.417 125.004 151.749 125.2C152.076 125.405 152.408 125.595 152.725 125.805C153.027 126.029 153.325 126.253 153.623 126.478C155.969 128.269 157.692 130.376 158.872 132.391C160.048 134.416 160.785 136.319 161.136 137.929C161.224 138.329 161.356 138.7 161.395 139.066C161.449 139.427 161.497 139.763 161.541 140.081C161.585 140.393 161.639 140.681 161.658 140.949C161.668 141.217 161.678 141.456 161.688 141.676C161.702 142.1 161.717 142.432 161.727 142.661C161.736 142.886 161.732 142.998 161.732 142.998Z" fill="#E8505B"/>
<path d="M214.557 84.5283H63.6353V92.0566H214.557V84.5283Z" fill="#E0E0E0"/>
<path d="M68.5043 88.0851C68.5043 88.6462 68.0456 89.1048 67.4845 89.1048C66.9235 89.1048 66.4648 88.6462 66.4648 88.0851C66.4648 87.524 66.9235 87.0654 67.4845 87.0654C68.0456 87.0654 68.5043 87.524 68.5043 88.0851Z" fill="white"/>
<path d="M71.8905 88.0851C71.8905 88.6462 71.4319 89.1048 70.8708 89.1048C70.3097 89.1048 69.8511 88.6462 69.8511 88.0851C69.8511 87.524 70.3097 87.0654 70.8708 87.0654C71.4319 87.0654 71.8905 87.524 71.8905 88.0851Z" fill="white"/>
<path d="M75.2762 88.0851C75.2762 88.6462 74.8176 89.1048 74.2565 89.1048C73.6954 89.1048 73.2368 88.6462 73.2368 88.0851C73.2368 87.524 73.6954 87.0654 74.2565 87.0654C74.8176 87.0654 75.2762 87.524 75.2762 88.0851Z" fill="white"/>
<path d="M197.924 115.183C197.924 115.256 171.739 115.315 139.44 115.315C107.131 115.315 80.9507 115.256 80.9507 115.183C80.9507 115.11 107.131 115.051 139.44 115.051C171.739 115.051 197.924 115.11 197.924 115.183Z" fill="#E0E0E0"/>
<path d="M197.924 118.081C197.924 118.154 171.739 118.213 139.44 118.213C107.131 118.213 80.9507 118.154 80.9507 118.081C80.9507 118.008 107.131 117.949 139.44 117.949C171.739 117.949 197.924 118.008 197.924 118.081Z" fill="#E0E0E0"/>
<path d="M121.163 81.3522C121.163 81.3522 120.133 79.0151 119.938 78.5028C119.416 77.1026 116.035 67.7203 116.845 66.3005C120.587 59.7334 123.49 55.0593 130.872 55.0593L143.913 54.9715C143.913 54.9715 156.272 52.454 164.976 80.5569L121.163 81.3522Z" fill="#455A64"/>
<path d="M93.6503 83.7087L110.722 80.0299L130.794 69.4718L130.872 55.0642C127.862 54.2347 122.095 56.3229 111.722 61.6069L96.3093 69.5645C91.0303 72.287 89.7227 79.2493 93.6503 83.7087Z" fill="#455A64"/>
<path d="M132.083 111.597C131.834 110.787 132.004 110.265 133.185 110.66C135.791 111.534 138.118 111.251 138.689 110.743C139.26 110.236 138.733 109.27 137.889 109.353C137.205 109.421 136.025 109.187 135.147 108.972C134.42 108.796 133.727 108.509 133.102 108.108C132.561 107.762 132.087 107.435 131.673 107.138C131.673 107.138 129.272 105.401 128.516 104.005L120.275 107.538L121.602 111.665C121.602 111.665 122.032 114.095 124.388 114.861C126.745 115.627 130.492 115.339 130.492 115.339C131.18 114.89 133.829 118.725 134.634 120.077C135.425 121.413 136.396 121.599 136.703 120.769C136.913 120.203 134.561 116.003 133.737 114.68C133.278 113.973 132.38 112.573 132.083 111.597Z" fill="white"/>
<path d="M126.496 115.359C126.491 115.388 126.291 115.378 126.013 115.242C125.735 115.105 125.389 114.817 125.154 114.397C124.92 113.978 124.857 113.534 124.886 113.222C124.915 112.909 125.013 112.739 125.042 112.748C125.115 112.758 124.94 113.505 125.384 114.271C125.798 115.046 126.53 115.29 126.496 115.359Z" fill="#995037"/>
<path d="M129.106 115.456C129.096 115.485 128.911 115.466 128.647 115.324C128.384 115.188 128.062 114.9 127.842 114.5C127.623 114.095 127.564 113.67 127.589 113.373C127.613 113.075 127.701 112.909 127.73 112.919C127.803 112.929 127.657 113.641 128.067 114.378C128.457 115.124 129.135 115.388 129.106 115.456Z" fill="#995037"/>
<path d="M93.1675 83.1476C93.1675 83.1476 119.324 113.212 119.294 112.714C119.265 112.217 131.019 103.43 131.019 103.43L105.37 72.8822L93.1675 83.1476Z" fill="#455A64"/>
<path d="M109.034 77.2391C109.039 77.2342 109.102 77.2928 109.219 77.4148C109.351 77.5611 109.512 77.7416 109.707 77.9563C110.146 78.4637 110.741 79.1517 111.464 79.986C112.937 81.7083 114.962 84.0941 117.187 86.7434C119.411 89.3927 121.412 91.8029 122.856 93.5544C123.554 94.4131 124.125 95.1157 124.549 95.6378C124.73 95.8671 124.881 96.0573 124.998 96.2135C125.1 96.3452 125.149 96.4184 125.139 96.4233C125.134 96.4281 125.071 96.3696 124.954 96.2476C124.822 96.1013 124.661 95.9207 124.466 95.7061C124.027 95.1986 123.432 94.5107 122.71 93.6764C121.236 91.9541 119.207 89.5683 116.982 86.9141C114.757 84.2648 112.757 81.8546 111.312 80.1031C110.615 79.2444 110.044 78.5418 109.619 78.0198C109.439 77.7904 109.288 77.6002 109.17 77.444C109.078 77.3172 109.024 77.2489 109.034 77.2391Z" fill="#263238"/>
<path d="M155.306 80.7033C155.253 80.6886 155.594 79.986 155.618 78.7761C155.628 78.1759 155.545 77.4538 155.282 76.7122C155.018 75.9658 154.555 75.2193 153.911 74.5606C153.277 73.8922 152.593 73.3165 152.047 72.7115C151.491 72.1114 151.091 71.4722 150.876 70.8867C150.657 70.3013 150.622 69.7841 150.661 69.4377C150.705 69.0913 150.788 68.9156 150.798 68.9205C150.857 68.9156 150.569 69.6963 151.047 70.8233C151.276 71.3746 151.676 71.9796 152.223 72.5554C152.769 73.136 153.452 73.7068 154.101 74.3899C154.76 75.0631 155.253 75.8584 155.511 76.6439C155.775 77.4246 155.843 78.1759 155.809 78.7956C155.775 79.4152 155.648 79.9031 155.536 80.23C155.418 80.5471 155.321 80.713 155.306 80.7033Z" fill="#263238"/>
<path d="M120.026 57.572C120.021 57.5622 120.153 57.5037 120.407 57.3915C120.661 57.2841 121.041 57.1378 121.539 56.9767C122.041 56.8255 122.666 56.6694 123.412 56.5962C124.154 56.5328 125.027 56.5425 125.935 56.8304C126.842 57.1036 127.759 57.6696 128.516 58.4892C129.277 59.3138 129.799 60.4359 130.067 61.6508C130.331 62.8657 130.467 64.183 130.316 65.5394C130.16 66.886 129.716 68.2765 128.872 69.4572C128.023 70.6428 126.881 71.5161 125.744 72.2333C124.598 72.9554 123.446 73.5458 122.354 74.1215C120.173 75.268 118.206 76.2975 116.543 77.1709C114.903 78.0198 113.566 78.7126 112.615 79.2054C112.166 79.4298 111.81 79.6103 111.542 79.747C111.293 79.8689 111.161 79.9275 111.161 79.9177C111.161 79.908 111.278 79.8348 111.517 79.6982C111.776 79.5518 112.127 79.3566 112.566 79.1127C113.508 78.6004 114.83 77.8832 116.455 77.005C118.109 76.1219 120.065 75.0729 122.236 73.9068C123.324 73.3262 124.481 72.731 125.608 72.0138C126.735 71.3063 127.842 70.4476 128.662 69.3059C129.477 68.1643 129.911 66.8177 130.067 65.5052C130.218 64.1879 130.087 62.8901 129.838 61.6996C129.579 60.5091 129.087 59.4309 128.36 58.6307C127.637 57.8306 126.759 57.2744 125.881 57.0011C125.008 56.7133 124.154 56.684 123.427 56.7377C122.695 56.7962 122.071 56.9377 121.568 57.0695C121.07 57.2109 120.685 57.3427 120.426 57.4354C120.168 57.533 120.031 57.5817 120.026 57.572Z" fill="#263238"/>
<path d="M111.907 79.9958C111.824 80.0202 111.605 78.2735 110.449 76.5122C109.312 74.7314 107.809 73.819 107.863 73.7556C107.877 73.7312 108.268 73.9214 108.824 74.3508C109.38 74.7801 110.078 75.473 110.663 76.3707C111.249 77.2733 111.595 78.1954 111.756 78.8785C111.927 79.5567 111.937 79.9909 111.907 79.9958Z" fill="#263238"/>
<path d="M150.359 76.7317C150.359 76.7317 150.173 76.8098 149.803 76.883C149.432 76.9561 148.871 77.0244 148.153 76.9561C147.441 76.8878 146.563 76.6634 145.675 76.1413C144.792 75.6242 143.919 74.7606 143.387 73.5701C142.86 72.3943 142.635 70.8964 143.07 69.4181C143.294 68.6814 143.733 67.9593 144.45 67.5055C144.802 67.2811 145.26 67.1591 145.694 67.2518C146.138 67.3299 146.519 67.6275 146.782 67.9739C147.773 69.4279 147.939 71.399 147.363 73.1798C147.065 74.0678 146.578 74.9167 145.885 75.5998C145.197 76.2877 144.304 76.7854 143.343 77.0391C141.42 77.5514 139.283 77.0879 137.908 75.7754C136.537 74.4581 136 72.5163 136.278 70.8184C136.405 69.9646 136.766 69.1693 137.273 68.5204C137.537 68.2032 137.859 67.9251 138.249 67.7739C138.635 67.6129 139.079 67.6275 139.449 67.7885C140.186 68.1154 140.64 68.8424 140.723 69.5596C140.806 70.2866 140.596 70.9696 140.328 71.5551C139.757 72.7163 139 73.6287 138.249 74.3264C137.498 75.0192 136.751 75.5071 136.117 75.834C135.478 76.1657 134.956 76.3609 134.595 76.4682C134.414 76.5268 134.273 76.5561 134.18 76.5853C134.087 76.6097 134.039 76.6195 134.039 76.6146C134.039 76.6097 134.082 76.5902 134.175 76.5609C134.268 76.5268 134.404 76.4878 134.58 76.4243C134.931 76.2975 135.449 76.0926 136.073 75.751C136.698 75.4095 137.42 74.9167 138.152 74.2239C138.879 73.5311 139.615 72.6236 140.162 71.4819C140.42 70.9111 140.611 70.2622 140.523 69.5889C140.445 68.9351 140.015 68.2716 139.366 67.9886C139.044 67.852 138.669 67.8422 138.332 67.9837C137.995 68.1154 137.698 68.3691 137.454 68.6667C136.981 69.2766 136.639 70.0377 136.517 70.8525C136.254 72.4772 136.785 74.341 138.088 75.5851C139.391 76.8293 141.44 77.2733 143.284 76.7854C144.206 76.5414 145.055 76.073 145.709 75.4144C146.368 74.7606 146.841 73.9458 147.129 73.0969C147.407 72.2382 147.509 71.3404 147.417 70.4768C147.373 70.0475 147.285 69.623 147.148 69.223C147.022 68.818 146.841 68.4374 146.597 68.1154C146.353 67.7934 146.026 67.5446 145.651 67.4763C145.28 67.3982 144.889 67.4958 144.572 67.6958C143.923 68.1008 143.489 68.7887 143.279 69.4767C142.85 70.8964 143.055 72.3455 143.557 73.4921C144.065 74.6484 144.899 75.4973 145.753 76.0145C146.612 76.5365 147.466 76.7707 148.168 76.8537C149.583 77.0098 150.354 76.6829 150.359 76.7317Z" fill="#FAFAFA"/>
<path d="M152.33 47.4579C151.779 46.7846 151.374 45.9844 151.164 45.1404C151.096 44.8623 151.047 44.5646 151.135 44.2914C151.223 44.0182 151.481 43.7791 151.764 43.8084C152.057 43.8377 152.257 44.1109 152.413 44.3597C152.872 45.0867 153.316 45.8332 153.618 46.6431C153.701 46.8675 153.774 47.0968 153.76 47.3359C153.745 47.575 153.633 47.8189 153.418 47.9263C153.189 48.0482 152.896 47.9799 152.686 47.8287C152.476 47.6774 152.325 47.453 152.184 47.2383" fill="#995037"/>
<path d="M153.584 46.9114C153.154 46.0088 152.725 45.1111 152.296 44.2084C152.169 43.9401 152.037 43.662 152.027 43.3693C152.018 43.0716 152.164 42.7496 152.442 42.6472C152.686 42.5594 152.964 42.6569 153.154 42.8326C153.345 43.0033 153.467 43.2424 153.589 43.4717C153.794 43.8669 153.994 44.2621 154.198 44.6573C154.364 44.9793 154.53 45.3062 154.599 45.6624C154.667 46.0185 154.623 46.4137 154.399 46.6967C154.174 46.9797 153.74 47.1114 153.428 46.926" fill="#995037"/>
<path d="M147.851 55.274C147.851 55.274 146.055 52.9467 145.894 51.7172C145.733 50.4877 147.236 48.3117 150.461 47.8238C152.193 47.5603 153.208 47.0773 153.774 46.687C154.184 46.404 154.34 45.8868 154.15 45.4282C153.725 44.3987 152.964 42.491 153.023 42.2373C153.174 41.5787 153.603 41.5933 154.716 43.2229C155.833 44.8525 157.116 46.5113 156.867 47.2627C156.619 48.014 152.686 50.3413 152.686 50.3413L153.759 52.0734L147.851 55.274Z" fill="white"/>
<path d="M158.517 79.1957L146.139 54.9471L154.106 50.4828L170.851 77.0294C170.851 77.0294 171.734 78.7273 172.968 80.713H158.931" fill="#455A64"/>
<path d="M153.979 50.4779C153.984 50.4828 153.935 50.5169 153.842 50.5755C153.73 50.6438 153.594 50.7267 153.423 50.8292C153.028 51.0585 152.491 51.3708 151.818 51.7611C150.403 52.5661 148.427 53.6932 146.06 55.0398L146.104 54.8934C147.309 57.3475 148.871 60.1871 150.451 63.2755C152.798 67.8422 154.828 72.0186 156.257 75.0631C156.975 76.5853 157.536 77.8246 157.921 78.6784C158.102 79.0931 158.248 79.42 158.355 79.6688C158.453 79.8982 158.497 80.0201 158.492 80.0201C158.482 80.025 158.419 79.9079 158.307 79.6884C158.185 79.4444 158.029 79.1224 157.828 78.7175C157.404 77.8441 156.814 76.6292 156.092 75.1363C154.623 72.1113 152.569 67.9495 150.222 63.3877C148.646 60.3042 147.095 57.4597 145.909 54.991L145.86 54.8934L145.953 54.8446C148.339 53.5322 150.329 52.4295 151.754 51.644C152.437 51.2732 152.989 50.9804 153.389 50.7658C153.564 50.6731 153.706 50.5999 153.823 50.5413C153.925 50.4974 153.974 50.473 153.979 50.4779Z" fill="#263238"/>
<path d="M121.163 81.3521C121.104 81.3862 120.412 80.1958 119.836 78.6101C119.26 77.0196 119.031 75.6681 119.099 75.6534C119.172 75.6388 119.509 76.9513 120.085 78.5223C120.646 80.0933 121.231 81.3179 121.163 81.3521Z" fill="#263238"/>
<path d="M148.422 45.599C150.369 46.365 152.784 45.7063 154.072 44.0524C155.36 42.4033 155.414 39.9004 154.194 38.1927C156.99 37.4853 158.732 34.2603 158.166 31.4353C157.6 28.6104 155.072 26.4002 152.257 25.7903C151.179 25.5562 150.037 25.5318 148.988 25.8733C147.939 26.2148 146.998 26.9564 146.549 27.9664" fill="#263238"/>
<path d="M148.032 39.2807C148.042 39.31 147.666 39.3783 147.076 39.6856C146.5 39.9881 145.69 40.6126 145.207 41.6958C144.973 42.2325 144.817 42.8765 144.856 43.5644C144.895 44.2475 145.09 44.9842 145.519 45.6282C145.724 45.9551 145.992 46.2527 146.3 46.5162C146.602 46.7797 146.958 47.0041 147.344 47.1651C148.11 47.5066 149.017 47.5896 149.886 47.3993C150.749 47.1944 151.53 46.726 152.072 46.082C152.35 45.7697 152.569 45.4136 152.73 45.0428C152.896 44.6768 153.003 44.2914 153.047 43.906C153.155 43.14 153.008 42.3935 152.75 41.7592C152.486 41.1201 152.067 40.6126 151.623 40.2321C150.715 39.4661 149.72 39.2563 149.066 39.2319C148.403 39.2075 148.037 39.31 148.032 39.2807C148.032 39.2709 148.12 39.2465 148.295 39.2075C148.466 39.1636 148.729 39.1294 149.071 39.1294C149.739 39.1245 150.779 39.3051 151.74 40.0906C152.213 40.4809 152.662 41.0078 152.95 41.6763C153.233 42.3398 153.394 43.1253 153.286 43.9401C153.243 44.3451 153.13 44.7549 152.96 45.1452C152.794 45.5404 152.559 45.9161 152.267 46.2527C151.691 46.9358 150.866 47.4383 149.944 47.6579C149.022 47.8628 148.056 47.7701 147.246 47.4042C146.836 47.2285 146.461 46.9943 146.144 46.7114C145.817 46.4333 145.539 46.1161 145.324 45.7648C144.875 45.0818 144.675 44.3012 144.646 43.5791C144.616 42.8521 144.792 42.1837 145.046 41.6275C145.573 40.5053 146.431 39.8857 147.036 39.6027C147.344 39.4563 147.598 39.3734 147.768 39.3392C147.939 39.2856 148.032 39.2709 148.032 39.2807Z" fill="#E8505B"/>
<path d="M150.144 31.5914C152.164 31.4792 154.023 29.9472 154.521 27.9858C155.018 26.0245 154.121 23.7899 152.398 22.7263C153.228 20.3893 152.413 17.5692 150.461 16.0372C148.51 14.5052 145.573 14.3881 143.504 15.7493C141.923 12.9781 138.537 11.3534 135.385 11.8608C132.234 12.3682 129.526 14.9638 128.887 18.0913C126.052 16.9203 122.529 17.6717 120.417 19.9062C118.309 22.1359 117.753 25.6976 119.08 28.464C115.996 28.7323 113.43 31.7768 113.693 34.8652C113.957 37.9487 116.997 40.5199 120.085 40.2613C119.456 42.3105 120.246 44.7159 121.968 45.9941C123.69 47.2724 126.223 47.3261 127.999 46.1259C129.131 47.9555 131.37 49.0435 133.507 48.7947C135.649 48.5507 137.581 46.9846 138.269 44.9452" fill="#263238"/>
<path d="M144.275 54.4787C144.377 52.1027 144.504 49.951 144.504 49.951C144.504 49.951 149.813 49.2826 150.042 43.8621C150.271 38.4415 149.73 25.9611 149.73 25.9611L139.957 21.2675L129.443 29.7374L131.092 54.63C131.331 58.216 134.395 60.9531 137.986 60.7873C141.396 60.6311 144.129 57.894 144.275 54.4787Z" fill="white"/>
<path d="M149.471 35.2458C149.388 35.3385 148.881 34.9091 148.154 34.8847C147.427 34.8457 146.885 35.2263 146.807 35.1287C146.768 35.0848 146.856 34.9189 147.09 34.7481C147.32 34.5774 147.715 34.4164 148.169 34.4359C148.622 34.4554 149.003 34.6506 149.217 34.8408C149.442 35.0311 149.515 35.2068 149.471 35.2458Z" fill="#263238"/>
<path d="M141.416 35.2458C141.328 35.3385 140.826 34.9091 140.099 34.8847C139.372 34.8457 138.83 35.2263 138.752 35.1287C138.713 35.0848 138.801 34.9189 139.04 34.7481C139.269 34.5774 139.664 34.4164 140.118 34.4359C140.572 34.4554 140.952 34.6506 141.167 34.8408C141.382 35.0311 141.455 35.2068 141.416 35.2458Z" fill="#263238"/>
<path d="M144.143 40.7102C144.138 40.6663 144.592 40.598 145.329 40.5297C145.514 40.5151 145.69 40.4858 145.724 40.3492C145.768 40.2077 145.695 39.9881 145.607 39.7539C145.441 39.266 145.265 38.7537 145.08 38.2171C144.348 36.0313 143.826 34.2309 143.909 34.2017C143.992 34.1724 144.651 35.9239 145.378 38.1097C145.553 38.6513 145.719 39.1636 145.88 39.6564C145.948 39.8857 146.066 40.1443 145.963 40.4419C145.909 40.5882 145.773 40.6907 145.651 40.72C145.529 40.7541 145.426 40.7541 145.334 40.7541C144.607 40.7688 144.148 40.7541 144.143 40.7102Z" fill="#263238"/>
<path d="M144.504 49.951C144.504 49.951 140.952 50.0535 137.474 47.6481C137.474 47.6481 139.128 51.5952 144.412 51.2781L144.504 49.951Z" fill="#995037"/>
<path d="M136.961 21.57C135.229 23.9656 135.268 27.4979 137.059 29.8545C137.849 30.8937 139.04 31.7329 140.342 31.689C141.645 31.6402 142.904 30.4058 142.626 29.1324C142.118 30.7278 143.475 32.616 145.143 32.6453C146.817 32.6745 148.236 30.8352 147.788 29.2251C147.919 29.8057 148.061 30.396 148.393 30.8888C148.724 31.3816 149.3 31.7524 149.89 31.6743C150.71 31.567 151.183 30.6888 151.369 29.8886C151.93 27.4882 151.042 24.8535 149.281 23.1312C147.519 21.409 144.968 20.5893 142.509 20.7552C140.05 20.9211 137.703 22.0286 135.859 23.6631" fill="#263238"/>
<path d="M137.649 23.4825C138.283 25.0292 138.757 26.6734 138.742 28.3469C138.727 30.0204 138.171 31.7329 136.986 32.9136C135.8 34.0943 133.931 34.6359 132.375 34.0211C132.746 35.4848 132.614 37.1437 131.702 38.3488C130.789 39.5539 129.008 40.1296 127.681 39.4027C126.486 38.7489 125.964 37.2949 125.803 35.9386C125.403 32.6599 126.564 29.2251 128.872 26.8588C131.175 24.4925 134.58 23.2435 137.869 23.5606" fill="#263238"/>
<path d="M130.946 36.3972C130.224 35.9532 129.238 36.3192 128.662 36.9437C127.76 37.9292 127.604 39.5198 128.297 40.6614C128.989 41.8031 130.473 42.4032 131.765 42.0568" fill="white"/>
<path d="M130.78 40.437C130.78 40.4662 130.541 40.5004 130.165 40.3979C129.809 40.3004 129.263 40.0125 129.053 39.4026C128.95 39.1099 128.97 38.7879 129.082 38.539C129.194 38.2902 129.37 38.1146 129.531 38.0072C129.863 37.7877 130.121 37.7926 130.121 37.8218C130.131 37.8609 129.907 37.9243 129.643 38.1536C129.38 38.3683 129.116 38.8269 129.297 39.3246C129.463 39.8173 129.907 40.0954 130.229 40.2321C130.555 40.3638 130.785 40.3931 130.78 40.437Z" fill="#995037"/>
<path d="M141.86 32.9819C141.792 33.1917 141.001 33.1137 140.055 33.1576C139.113 33.1868 138.328 33.3235 138.245 33.1185C138.157 32.9283 138.928 32.416 140.025 32.3818C141.128 32.333 141.933 32.7868 141.86 32.9819Z" fill="#263238"/>
<path d="M149.457 32.8307C149.374 32.9039 149.213 32.8551 149.022 32.8112C148.827 32.7624 148.647 32.738 148.359 32.7673C148.076 32.7965 147.764 32.8453 147.524 32.8405C147.285 32.8405 147.119 32.7868 147.09 32.6843C147.061 32.5819 147.168 32.4453 147.368 32.3135C147.573 32.1818 147.871 32.0354 148.29 31.9915C148.71 31.933 149.169 32.133 149.339 32.3574C149.52 32.5819 149.53 32.7673 149.457 32.8307Z" fill="#263238"/>
<path d="M142.884 42.1008C143.294 41.8568 143.806 41.7446 144.255 41.9056C144.704 42.0715 145.041 42.5594 144.933 43.0229C144.875 43.2766 144.699 43.4913 144.494 43.6474C144.177 43.8865 143.758 44.0084 143.362 43.9255C142.972 43.8425 142.621 43.5449 142.523 43.1595C142.421 42.7741 142.606 42.3203 142.962 42.1447" fill="#995037"/>
<path d="M145.543 42.6765C145.558 42.7057 145.373 42.8277 145.021 42.9058C144.675 42.9838 144.158 42.9838 143.645 42.7692C143.133 42.5545 142.772 42.1886 142.582 41.8861C142.387 41.5836 142.348 41.364 142.377 41.3543C142.411 41.3396 142.513 41.525 142.728 41.7739C142.943 42.0227 143.284 42.3349 143.743 42.5252C144.202 42.7155 144.665 42.7448 144.992 42.7155C145.324 42.7009 145.529 42.6374 145.543 42.6765Z" fill="#263238"/>
<path d="M134.541 45.2623C134.512 45.2623 134.531 44.8866 134.361 44.2426C134.195 43.6132 133.765 42.6862 132.814 41.9739C132.346 41.6275 131.75 41.3299 131.072 41.2128C130.394 41.1006 129.633 41.1249 128.911 41.4031C128.545 41.5299 128.194 41.7251 127.872 41.9641C127.545 42.2032 127.252 42.4959 127.008 42.8375C126.505 43.5108 126.222 44.3743 126.213 45.2623C126.222 46.1503 126.505 47.0139 127.008 47.6872C127.252 48.0287 127.55 48.3214 127.872 48.5605C128.194 48.8045 128.545 48.9947 128.911 49.1216C129.633 49.3997 130.394 49.4241 131.072 49.3119C131.75 49.1948 132.346 48.902 132.814 48.5508C133.765 47.8384 134.19 46.9114 134.361 46.282C134.531 45.638 134.512 45.2623 134.541 45.2623C134.551 45.2623 134.556 45.355 134.556 45.5355C134.561 45.7112 134.536 45.9795 134.458 46.3113C134.317 46.9651 133.902 47.936 132.926 48.702C132.443 49.0728 131.828 49.3948 131.111 49.5266C130.404 49.6534 129.599 49.6388 128.828 49.3509C128.442 49.2192 128.067 49.0191 127.725 48.7654C127.379 48.5166 127.062 48.2043 126.803 47.8433C126.266 47.131 125.959 46.2137 125.954 45.2672C125.964 44.3207 126.266 43.4034 126.803 42.6911C127.062 42.3301 127.379 42.0178 127.725 41.769C128.067 41.5153 128.442 41.3152 128.828 41.1835C129.599 40.8956 130.399 40.881 131.111 41.0079C131.824 41.1396 132.443 41.4616 132.926 41.8324C133.902 42.5984 134.317 43.5693 134.458 44.2231C134.531 44.5549 134.556 44.8183 134.556 44.9989C134.556 45.1696 134.551 45.2623 134.541 45.2623Z" fill="#E8505B"/>
<path d="M149.451 21.0089C149.451 21.004 149.5 21.0138 149.588 21.043C149.671 21.0772 149.798 21.1357 149.93 21.2626C150.188 21.4968 150.481 22.014 150.364 22.6873C150.257 23.3654 149.573 24.0143 148.676 24.1851C147.763 24.3754 146.739 24.0339 145.817 23.502L144.812 22.9214L145.919 23.2825C146.3 23.4045 146.573 23.7606 146.666 24.1363C146.768 24.5169 146.724 24.9413 146.509 25.3024C146.29 25.6634 145.919 25.8976 145.519 26.005C145.119 26.1123 144.685 26.0928 144.285 25.9757C143.294 25.6683 142.65 24.8633 142.162 24.1412L141.455 23.1068L142.353 23.9802C142.865 24.4778 142.977 25.2194 142.836 25.8244C142.699 26.4441 142.27 26.9612 141.752 27.2003C140.708 27.698 139.591 27.3857 138.976 26.8637C138.332 26.3367 138.059 25.7122 137.927 25.2975C137.859 25.0877 137.83 24.917 137.81 24.8047C137.796 24.6876 137.791 24.6291 137.8 24.6291C137.82 24.6242 137.854 24.8633 138.01 25.2682C138.166 25.6634 138.459 26.2587 139.079 26.7368C139.669 27.215 140.718 27.4735 141.655 27.01C142.118 26.7856 142.484 26.3319 142.606 25.7757C142.728 25.2292 142.616 24.5803 142.182 24.1656L142.372 24.0046C142.855 24.712 143.48 25.4634 144.363 25.7317C145.075 25.9513 145.939 25.7659 146.3 25.1755C146.656 24.5998 146.441 23.707 145.851 23.5118L145.948 23.2923C146.846 23.8192 147.812 24.1461 148.651 23.9851C149.486 23.8436 150.12 23.263 150.237 22.658C150.364 22.0481 150.115 21.5553 149.891 21.3211C149.642 21.0674 149.442 21.0284 149.451 21.0089Z" fill="#455A64"/>
<path d="M136.454 29.7228C136.459 29.7277 136.434 29.7569 136.39 29.8155C136.347 29.874 136.268 29.957 136.161 30.0594C135.946 30.2546 135.595 30.5229 135.073 30.7083C134.556 30.8889 133.848 30.9816 133.102 30.7425C132.365 30.5083 131.594 29.9472 131.165 29.069L131.37 29.0397C131.194 30.1716 130.267 31.3133 128.926 31.6256C127.599 31.9281 125.998 31.2255 125.374 29.835C124.822 28.586 125.183 27.1125 126.057 26.2685L126.228 26.4539C125.632 26.9515 124.881 27.1906 124.173 27.1955C123.466 27.2101 122.788 27.0101 122.246 26.6685C121.705 26.327 121.3 25.8342 121.095 25.3122C120.88 24.795 120.822 24.2681 120.856 23.8046C120.924 22.8678 121.329 22.1945 121.656 21.8237C121.997 21.448 122.251 21.3309 122.251 21.3309C122.266 21.3504 122.032 21.4968 121.719 21.8774C121.417 22.2579 121.051 22.9166 121.012 23.8143C120.992 24.2583 121.061 24.756 121.27 25.239C121.475 25.722 121.856 26.1709 122.363 26.4831C122.876 26.7954 123.51 26.971 124.173 26.9564C124.832 26.9466 125.525 26.7173 126.067 26.2587L126.237 26.4441C125.442 27.215 125.11 28.586 125.618 29.7228C126.179 30.9913 127.667 31.6549 128.877 31.3768C130.106 31.1035 130.989 30.0448 131.16 29.0007L131.219 28.6592L131.365 28.9714C131.751 29.796 132.468 30.3375 133.161 30.5717C133.863 30.8157 134.536 30.7425 135.039 30.5864C135.551 30.4302 135.903 30.1863 136.127 30.0058C136.342 29.8301 136.439 29.713 136.454 29.7228Z" fill="#455A64"/>
<path d="M126.774 38.4025C126.779 38.4122 126.647 38.5244 126.354 38.6513C126.062 38.7781 125.598 38.9099 125.003 38.8611C124.422 38.8172 123.69 38.5635 123.139 37.9536C122.598 37.3584 122.237 36.4265 122.407 35.4507L122.632 35.5483C122.178 36.1435 121.558 36.6899 120.797 37.0461C120.231 37.3096 119.617 37.4462 119.021 37.4267C118.426 37.4023 117.86 37.2461 117.387 36.9778C116.416 36.4606 115.869 35.4897 115.83 34.67C115.767 33.8406 116.065 33.1966 116.333 32.8404C116.474 32.6599 116.601 32.5379 116.699 32.4696C116.796 32.4013 116.85 32.3672 116.855 32.372C116.875 32.3916 116.665 32.5379 116.421 32.899C116.187 33.26 115.938 33.8796 116.021 34.6554C116.079 35.4214 116.592 36.2947 117.509 36.7729C118.402 37.2705 119.626 37.334 120.7 36.8168C121.412 36.485 122.007 35.9678 122.441 35.4068L122.759 34.9969L122.666 35.5043C122.505 36.3874 122.822 37.2559 123.315 37.817C123.812 38.3927 124.481 38.6464 125.032 38.7098C125.593 38.7781 126.042 38.6757 126.335 38.5781C126.618 38.4756 126.764 38.3829 126.774 38.4025Z" fill="#455A64"/>
<path d="M154.403 27.8346C154.428 27.8249 154.55 28.1664 154.511 28.7372C154.477 29.2983 154.233 30.0985 153.623 30.7376C153.008 31.3768 152.223 31.6549 151.661 31.7183C151.095 31.7817 150.749 31.6793 150.754 31.65C150.759 31.6061 151.1 31.6451 151.632 31.5378C152.154 31.4353 152.871 31.1474 153.437 30.562C153.998 29.9716 154.252 29.2446 154.335 28.7177C154.413 28.181 154.36 27.8395 154.403 27.8346Z" fill="#455A64"/>
<path d="M157.39 32.9429C157.404 32.938 157.468 33.0649 157.512 33.3137C157.551 33.5625 157.57 33.9431 157.409 34.3822C157.258 34.8067 156.877 35.3287 156.228 35.4702C155.916 35.5385 155.57 35.519 155.243 35.3873C154.916 35.2604 154.609 34.9969 154.467 34.631L154.711 34.5481C154.75 34.6993 154.779 34.8603 154.77 35.0262C154.745 35.841 154.199 36.5241 153.545 36.7631C153.218 36.8851 152.867 36.8851 152.574 36.8022C152.277 36.7192 152.033 36.568 151.842 36.3972C151.452 36.0557 151.296 35.6507 151.252 35.3726C151.208 35.0945 151.252 34.9384 151.267 34.9384C151.291 34.9384 151.281 35.0945 151.354 35.3482C151.423 35.6019 151.598 35.963 151.964 36.2508C152.316 36.5436 152.901 36.7534 153.462 36.5289C154.013 36.3143 154.496 35.6995 154.511 35.0116C154.516 34.8701 154.492 34.7335 154.462 34.6066L154.706 34.5237C154.94 35.114 155.658 35.3385 156.185 35.2262C156.731 35.1287 157.087 34.6896 157.248 34.3041C157.414 33.9089 157.429 33.5479 157.419 33.3088C157.404 33.0795 157.37 32.9478 157.39 32.9429Z" fill="#455A64"/>
<path d="M142.513 40.1882C142.548 40.1931 142.567 40.3004 142.523 40.4663C142.479 40.6322 142.362 40.8468 142.162 41.0127C141.962 41.1786 141.728 41.2567 141.557 41.2664C141.386 41.2762 141.284 41.2372 141.289 41.203C141.289 41.1298 141.664 41.0957 141.996 40.8078C142.333 40.5395 142.44 40.1784 142.513 40.1882Z" fill="#263238"/>
<path d="M258.804 180.122C257.584 181.864 255.218 181.283 254.12 180.225C253.022 179.161 252.559 177.624 252.134 176.156C251.168 172.804 250.197 169.286 250.915 165.871C251.129 164.851 251.51 163.831 252.227 163.075C252.944 162.319 254.047 161.865 255.057 162.133C256.252 162.451 256.994 163.617 257.53 164.729C259.106 167.998 259.941 171.623 259.955 175.253C259.955 176.946 259.76 178.727 258.804 180.122Z" fill="white"/>
<g opacity="0.2">
<path opacity="0.2" d="M258.804 180.122C257.584 181.864 255.218 181.283 254.12 180.225C253.022 179.161 252.559 177.624 252.134 176.156C251.168 172.804 250.197 169.286 250.915 165.871C251.129 164.851 251.51 163.831 252.227 163.075C252.944 162.319 254.047 161.865 255.057 162.133C256.252 162.451 256.994 163.617 257.53 164.729C259.106 167.998 259.941 171.623 259.955 175.253C259.955 176.946 259.76 178.727 258.804 180.122Z" fill="black"/>
</g>
<path d="M254.237 188.934C252.247 187.904 249.9 187.772 247.69 188.138C246.504 188.334 245.265 188.69 244.455 189.583C243.645 190.475 243.494 192.046 244.421 192.812C244.972 193.271 245.743 193.339 246.46 193.33C248.192 193.31 250.115 193.003 251.495 194.047C252.286 194.642 252.808 195.628 253.754 195.92C254.676 196.208 255.721 195.662 256.208 194.827C256.696 193.993 256.716 192.954 256.486 192.012C256.486 192.017 256.243 189.968 254.237 188.934Z" fill="white"/>
<path d="M262.146 182.62C260.824 181.049 260.575 178.761 261.161 176.795C261.751 174.828 263.078 173.155 264.61 171.789C266.406 170.189 268.518 168.94 270.787 168.144C271.68 167.832 272.622 167.583 273.563 167.671C274.505 167.759 275.456 168.242 275.895 169.081C276.544 170.32 275.92 171.823 275.246 173.053C274.061 175.214 272.7 177.283 271.187 179.234C269.972 180.8 268.577 182.347 266.723 183.059C264.869 183.767 262.942 183.684 261.961 182.401" fill="white"/>
<path d="M258.882 206.366C258.858 206.366 258.823 206.088 258.77 205.576C258.716 205 258.643 204.278 258.56 203.419C258.458 202.512 258.326 201.434 258.077 200.253C257.823 199.082 257.433 197.808 256.926 196.52C256.403 195.237 255.764 194.071 255.018 193.139C254.276 192.203 253.418 191.524 252.608 191.134C251.803 190.734 251.076 190.573 250.578 190.5C250.075 190.446 249.792 190.407 249.792 190.388C249.792 190.363 250.075 190.363 250.593 190.373C251.105 190.407 251.861 190.539 252.71 190.924C253.564 191.305 254.476 191.993 255.252 192.944C256.033 193.896 256.696 195.086 257.228 196.394C257.74 197.706 258.131 198.989 258.37 200.189C258.609 201.385 258.721 202.478 258.789 203.395C258.858 204.312 258.882 205.054 258.897 205.566C258.911 206.078 258.906 206.366 258.882 206.366Z" fill="#263238"/>
<path d="M258.736 204.707C258.726 204.707 258.716 204.581 258.716 204.341C258.716 204.068 258.716 203.717 258.721 203.292C258.726 202.38 258.721 201.063 258.672 199.438C258.589 196.184 258.311 191.695 257.77 186.758C257.223 181.82 256.501 177.38 255.842 174.189C255.686 173.389 255.53 172.672 255.384 172.043C255.242 171.413 255.125 170.867 255.008 170.428C254.91 170.013 254.828 169.676 254.764 169.408C254.71 169.174 254.691 169.047 254.701 169.047C254.71 169.042 254.754 169.164 254.828 169.393C254.906 169.657 255.008 169.989 255.13 170.398C255.267 170.833 255.403 171.374 255.559 172.004C255.725 172.628 255.896 173.345 256.067 174.145C256.784 177.327 257.545 181.776 258.092 186.723C258.633 191.671 258.877 196.174 258.901 199.433C258.921 201.063 258.887 202.385 258.843 203.292C258.819 203.717 258.794 204.063 258.779 204.341C258.76 204.581 258.745 204.707 258.736 204.707Z" fill="#263238"/>
<path d="M258.716 196.018C258.692 196.018 258.697 195.628 258.726 194.92C258.765 194.218 258.863 193.198 259.063 191.954C259.273 190.71 259.565 189.231 260.029 187.631C260.468 186.021 261.073 184.284 261.839 182.513C263.342 178.956 265.376 176.043 267.152 174.243C267.567 173.765 268.03 173.418 268.401 173.082C268.591 172.921 268.762 172.76 268.933 172.628C269.109 172.506 269.27 172.399 269.416 172.296C270.001 171.896 270.328 171.686 270.338 171.706C270.392 171.779 269.03 172.579 267.313 174.404C265.605 176.224 263.625 179.117 262.136 182.645C261.375 184.396 260.77 186.118 260.317 187.714C259.843 189.304 259.526 190.763 259.287 191.998C259.063 193.232 258.931 194.237 258.853 194.935C258.785 195.632 258.736 196.018 258.716 196.018Z" fill="#263238"/>
<path d="M87.3468 0.00482473C87.3468 0.00970371 87.2297 0.0243406 87.0101 0.0487356C86.7662 0.0682515 86.4393 0.0975254 86.0148 0.131678C85.5757 0.146315 85.0439 0.243895 84.4145 0.365869C84.1023 0.434175 83.7559 0.463449 83.4046 0.570786C83.0484 0.673245 82.6727 0.780583 82.2775 0.897678C80.7065 1.41485 78.8134 2.22476 76.9204 3.62991C75.0274 5.0253 73.1441 7.01104 71.6853 9.59202C70.9193 10.8606 70.3679 12.3243 69.8751 13.8563C69.4799 15.4175 69.1287 17.0764 69.1238 18.8182C69.0555 19.6866 69.1531 20.5697 69.2019 21.4675C69.2311 21.9163 69.3336 22.3603 69.3921 22.8092C69.4604 23.2629 69.5287 23.7167 69.6654 24.1607C70.0557 25.9756 70.8168 27.7467 71.7731 29.4446C73.6856 32.8501 76.8618 35.7678 80.765 37.4315C82.7166 38.2658 84.8731 38.7049 87.0589 38.7683C89.2496 38.8805 91.4842 38.5049 93.6016 37.7486L94.2408 37.5047L94.3237 37.4705L94.4018 37.5095C97.5634 39.0708 100.666 40.6028 103.672 42.086L103.399 42.3251C102.379 39.2806 101.393 36.3288 100.442 33.499L100.408 33.3917L100.486 33.3087C102.784 30.9571 104.37 28.1126 105.233 25.2096C106.102 22.2969 106.219 19.3402 105.838 16.6373C105.458 13.9246 104.54 11.4704 103.335 9.40662C102.13 7.33793 100.637 5.65956 99.1149 4.35688C97.5731 3.06395 95.9777 2.19061 94.553 1.52707C93.0942 0.93671 91.7915 0.561029 90.7133 0.365869C90.1717 0.278048 89.6936 0.204863 89.2789 0.136557C88.8641 0.112162 88.5129 0.0926464 88.2201 0.0731305C87.9469 0.0536145 87.7322 0.0389776 87.5712 0.0292196C87.4248 0.0194617 87.3468 0.0145827 87.3468 0.00482473C87.3468 -5.42554e-05 87.42 -0.00493324 87.5663 -5.42554e-05C87.7273 0.00482473 87.942 0.00482473 88.2152 0.00970371C88.508 0.0194617 88.8641 0.0292196 89.2789 0.0389776C89.6984 0.0975254 90.1863 0.160952 90.7279 0.239016C91.8159 0.414659 93.1332 0.775704 94.6165 1.3563C96.0655 2.01009 97.6853 2.87367 99.2564 4.17635C100.813 5.48392 102.33 7.17205 103.569 9.26513C104.804 11.3533 105.75 13.8416 106.15 16.5934C106.55 19.3402 106.438 22.3457 105.565 25.3121C104.696 28.2688 103.086 31.1718 100.749 33.5771L100.793 33.3868C101.745 36.2166 102.735 39.1635 103.76 42.208L103.911 42.652L103.491 42.4422C100.486 40.959 97.3828 39.4319 94.2164 37.8706L94.3774 37.8755L93.7236 38.1243C91.5622 38.8952 89.274 39.2806 87.0345 39.1635C84.8 39.0952 82.5995 38.6464 80.604 37.7877C76.6179 36.08 73.3831 33.099 71.4413 29.6251C70.4704 27.8931 69.7044 26.0879 69.3141 24.2436C69.1823 23.7899 69.1091 23.3264 69.0408 22.8677C68.9774 22.4091 68.8798 21.9554 68.8506 21.5016C68.8067 20.5892 68.7091 19.6915 68.7823 18.8084C68.7969 17.0373 69.1579 15.3541 69.5678 13.7684C70.0752 12.212 70.6411 10.7337 71.4267 9.45053C72.9196 6.84028 74.8468 4.84477 76.774 3.44939C78.7061 2.04424 80.6235 1.24409 82.219 0.74643C82.6239 0.634213 83.0045 0.531755 83.3607 0.434175C83.7168 0.331716 84.0681 0.307322 84.3804 0.243895C85.0146 0.136557 85.5513 0.0487356 85.9953 0.0487356C86.4198 0.0292196 86.7515 0.0145827 86.9955 0.00482473C87.2346 -5.42554e-05 87.3468 -5.42554e-05 87.3468 0.00482473Z" fill="#263238"/>
<path d="M91.709 17.0227L90.3575 17.0373L87.3618 12.9634L87.3325 10.2653C87.3325 10.2653 85.2443 10.1629 85.5273 13.6904C85.8152 17.2179 85.5371 16.3201 85.5371 16.3201C85.5371 16.3201 81.1021 16.3884 80.741 16.7788C80.4776 17.0617 80.4044 21.4675 80.3849 23.8533C80.3751 25.0535 81.1265 26.1659 82.2486 26.4391C82.4096 26.4782 82.5706 26.4977 82.7268 26.4977C83.8343 26.4831 89.4695 25.5219 89.4695 25.5219L91.8017 25.4975L91.709 17.0227Z" fill="white"/>
<path d="M95.5678 16.2421L94.8409 25.4877L92.5282 25.5121L92.4258 16.4616L95.5678 16.2421Z" fill="white"/>
</g>
<defs>
<linearGradient id="paint0_linear" x1="125.522" y1="138.042" x2="157.211" y2="148.25" gradientUnits="userSpaceOnUse">
<stop stop-color="#FFC144"/>
<stop offset="1" stop-color="#EE9A1C"/>
</linearGradient>
<clipPath id="clip0">
<rect width="287.25" height="206.615" fill="white" transform="translate(0.75)"/>
</clipPath>
</defs>
</svg>
