<svg width="16" height="16" viewBox="0 0 16 16" fill="none" xmlns="http://www.w3.org/2000/svg">
<path d="M15.2643 8.00057L15.9663 6.16969C16.0433 5.9677 15.9833 5.73872 15.8143 5.60173L14.2924 4.36781L13.9844 2.43094C13.9504 2.21696 13.7824 2.04997 13.5684 2.01597L11.6316 1.70799L10.3987 0.185095C10.2627 0.0161068 10.0287 -0.0438892 9.8317 0.0331056L7.99983 0.736058L6.16895 0.0341056C5.96596 -0.0438892 5.73898 0.0181066 5.60199 0.186095L4.36807 1.70899L2.4312 2.01697C2.21822 2.05097 2.05023 2.21896 2.01623 2.43194L1.70825 4.36881L0.185355 5.60273C0.0173667 5.73872 -0.0436292 5.9677 0.0333656 6.16969L0.735318 8.00057L0.0333656 9.83144C-0.0446291 10.0334 0.0173667 10.2624 0.185355 10.3984L1.70825 11.6313L2.01623 13.5682C2.05023 13.7822 2.21722 13.9502 2.4312 13.9842L4.36807 14.2921L5.60199 15.814C5.73898 15.984 5.96796 16.044 6.16995 15.966L7.99983 15.2651L9.8307 15.967C9.8887 15.989 9.9487 16 10.0097 16C10.1567 16 10.3017 15.935 10.3987 15.814L11.6316 14.2921L13.5684 13.9842C13.7824 13.9502 13.9504 13.7822 13.9844 13.5682L14.2924 11.6313L15.8143 10.3984C15.9833 10.2614 16.0433 10.0334 15.9663 9.83144L15.2643 8.00057Z" fill="#FFC144"/>
</svg>
