<svg width="22" height="22" viewBox="0 0 22 22" fill="none" xmlns="http://www.w3.org/2000/svg">
<path d="M3.61534 3.62977C-0.50833 7.69367 -0.50833 14.3063 3.61534 18.3702C7.739 22.4341 14.4489 22.4341 18.5726 18.3702C22.6962 14.3063 22.6962 7.69367 18.5726 3.62977C14.4489 -0.434135 7.739 -0.434135 3.61534 3.62977ZM15.6962 10.1985C15.8047 10.1957 15.9128 10.2145 16.0139 10.2535C16.115 10.2925 16.2071 10.3511 16.2849 10.4258C16.3626 10.5005 16.4244 10.5898 16.4666 10.6884C16.5088 10.787 16.5306 10.893 16.5306 11C16.5306 11.107 16.5088 11.213 16.4666 11.3116C16.4244 11.4102 16.3626 11.4995 16.2849 11.5742C16.2071 11.6489 16.115 11.7075 16.0139 11.7465C15.9128 11.7855 15.8047 11.8043 15.6962 11.8015L11.9076 11.8019L11.9073 15.5355C11.9018 15.7445 11.8138 15.9432 11.6618 16.0892C11.5099 16.2351 11.3061 16.3168 11.094 16.3168C10.8818 16.3168 10.678 16.2351 10.5261 16.0892C10.3742 15.9432 10.2861 15.7445 10.2807 15.5355L10.2803 11.8019L6.49173 11.8015C6.27963 11.7962 6.07805 11.7094 5.92996 11.5596C5.78187 11.4099 5.69899 11.2091 5.69899 11C5.69899 10.7909 5.78187 10.5901 5.92996 10.4404C6.07805 10.2906 6.27963 10.2038 6.49173 10.1985L10.2803 10.1981L10.2807 6.46447C10.2861 6.25545 10.3742 6.05679 10.5261 5.91085C10.678 5.7649 10.8818 5.68322 11.094 5.68322C11.3061 5.68322 11.5099 5.7649 11.6618 5.91085C11.8138 6.05679 11.9018 6.25545 11.9073 6.46447L11.9076 10.1981L15.6962 10.1985Z" fill="#01AEEF"/>
</svg>
