<svg width="20" height="20" viewBox="0 0 20 20" fill="none" xmlns="http://www.w3.org/2000/svg">
<g clip-path="url(#clip0)">
<path d="M11.0417 15H5.625C5.28 15 5 14.72 5 14.375V0.625C5 0.28 5.28 0 5.625 0H11.0417C11.3867 0 11.6667 0.28 11.6667 0.625V14.375C11.6667 14.72 11.3867 15 11.0417 15Z" fill="url(#paint0_linear)"/>
<path d="M19.3753 15H13.542C13.197 15 12.917 14.72 12.917 14.375V9.375C12.917 9.03 13.197 8.75 13.542 8.75H19.3753C19.7203 8.75 20.0003 9.03 20.0003 9.375V14.375C20.0003 14.72 19.7203 15 19.3753 15Z" fill="url(#paint1_linear)"/>
<path d="M18.542 7.50001H14.792C14.447 7.50001 14.167 7.22001 14.167 6.87501V3.95834C14.167 3.61334 14.447 3.33334 14.792 3.33334H18.542C18.887 3.33334 19.167 3.61334 19.167 3.95834V6.87501C19.167 7.22001 18.887 7.50001 18.542 7.50001Z" fill="url(#paint2_linear)"/>
<path d="M19.1083 17.5L4.58333 17.4975C3.205 17.4975 2.08333 16.3758 2.08333 14.9975V6.66667H0.833333C0.3725 6.66667 0 6.29333 0 5.83333C0 5.37333 0.3725 5 0.833333 5H2.08333C3.0025 5 3.75 5.7475 3.75 6.66667V14.9975C3.75 15.4567 4.12333 15.8308 4.58333 15.8308L19.1083 15.8333C19.5692 15.8333 19.9417 16.2067 19.9417 16.6667C19.9417 17.1267 19.5675 17.5 19.1083 17.5Z" fill="url(#paint3_linear)"/>
<path d="M7.49968 19.375C8.07498 19.375 8.54135 18.9086 8.54135 18.3333C8.54135 17.758 8.07498 17.2917 7.49968 17.2917C6.92438 17.2917 6.45801 17.758 6.45801 18.3333C6.45801 18.9086 6.92438 19.375 7.49968 19.375Z" fill="url(#paint4_linear)"/>
<path d="M7.49968 20C6.58051 20 5.83301 19.2525 5.83301 18.3333C5.83301 17.4142 6.58051 16.6667 7.49968 16.6667C8.41885 16.6667 9.16635 17.4142 9.16635 18.3333C9.16635 19.2525 8.41885 20 7.49968 20ZM7.49968 17.9167C7.27051 17.9167 7.08301 18.1033 7.08301 18.3333C7.08301 18.5633 7.27051 18.75 7.49968 18.75C7.72885 18.75 7.91635 18.5633 7.91635 18.3333C7.91635 18.1033 7.72885 17.9167 7.49968 17.9167Z" fill="url(#paint5_linear)"/>
<path d="M15.8337 19.375C16.4089 19.375 16.8753 18.9086 16.8753 18.3333C16.8753 17.758 16.4089 17.2917 15.8337 17.2917C15.2584 17.2917 14.792 17.758 14.792 18.3333C14.792 18.9086 15.2584 19.375 15.8337 19.375Z" fill="url(#paint6_linear)"/>
<path d="M15.8337 20C14.9145 20 14.167 19.2525 14.167 18.3333C14.167 17.4142 14.9145 16.6667 15.8337 16.6667C16.7528 16.6667 17.5003 17.4142 17.5003 18.3333C17.5003 19.2525 16.7528 20 15.8337 20ZM15.8337 17.9167C15.6045 17.9167 15.417 18.1033 15.417 18.3333C15.417 18.5633 15.6045 18.75 15.8337 18.75C16.0628 18.75 16.2503 18.5633 16.2503 18.3333C16.2503 18.1033 16.0628 17.9167 15.8337 17.9167Z" fill="url(#paint7_linear)"/>
</g>
<defs>
<linearGradient id="paint0_linear" x1="8.33333" y1="0" x2="8.33333" y2="15" gradientUnits="userSpaceOnUse">
<stop stop-color="#807c7c"/>
<stop offset="1" stop-color="#c7c3c3"/>
</linearGradient>
<linearGradient id="paint1_linear" x1="16.4587" y1="8.75" x2="16.4587" y2="15" gradientUnits="userSpaceOnUse">
<stop stop-color="#807c7c"/>
<stop offset="1" stop-color="#c7c3c3"/>
</linearGradient>
<linearGradient id="paint2_linear" x1="16.667" y1="3.33334" x2="16.667" y2="7.50001" gradientUnits="userSpaceOnUse">
<stop stop-color="#807c7c"/>
<stop offset="1" stop-color="#c7c3c3"/>
</linearGradient>
<linearGradient id="paint3_linear" x1="9.97083" y1="5" x2="9.97083" y2="17.5" gradientUnits="userSpaceOnUse">
<stop stop-color="#807c7c"/>
<stop offset="1" stop-color="#c7c3c3"/>
</linearGradient>
<linearGradient id="paint4_linear" x1="7.49968" y1="17.2917" x2="7.49968" y2="19.375" gradientUnits="userSpaceOnUse">
<stop stop-color="#807c7c"/>
<stop offset="1" stop-color="#c7c3c3"/>
</linearGradient>
<linearGradient id="paint5_linear" x1="7.49968" y1="16.6667" x2="7.49968" y2="20" gradientUnits="userSpaceOnUse">
<stop stop-color="#807c7c"/>
<stop offset="1" stop-color="#c7c3c3"/>
</linearGradient>
<linearGradient id="paint6_linear" x1="15.8337" y1="17.2917" x2="15.8337" y2="19.375" gradientUnits="userSpaceOnUse">
<stop stop-color="#807c7c"/>
<stop offset="1" stop-color="#c7c3c3"/>
</linearGradient>
<linearGradient id="paint7_linear" x1="15.8337" y1="16.6667" x2="15.8337" y2="20" gradientUnits="userSpaceOnUse">
<stop stop-color="#807c7c"/>
<stop offset="1" stop-color="#c7c3c3"/>
</linearGradient>
<clipPath id="clip0">
<rect width="20" height="20" fill="white"/>
</clipPath>
</defs>
</svg>
