<svg width="24" height="24" viewBox="0 0 24 24" fill="none" xmlns="http://www.w3.org/2000/svg">
<path fill-rule="evenodd" clip-rule="evenodd" d="M22 16.19L22 7.809C22 4.72 20.22 3 17.17 3L6.84 3C3.74 3 2 4.72 2 7.809L2 16.19C2 19.23 3.74 21 6.84 21L17.17 21C20.22 21 22 19.23 22 16.19ZM17.34 15.92L17.35 15.92L17.35 12.931C17.35 12.5 17 12.15 16.571 12.15C16.13 12.15 15.78 12.5 15.78 12.931L15.78 15.92C15.78 16.351 16.13 16.7 16.56 16.7C16.99 16.7 17.34 16.351 17.34 15.92ZM11.26 15.92L11.26 8.08C11.26 7.65 11.61 7.3 12.04 7.3C12.47 7.3 12.821 7.65 12.821 8.08L12.821 15.92C12.821 16.351 12.47 16.7 12.04 16.7C11.61 16.7 11.26 16.351 11.26 15.92ZM6.69 15.92L6.69 8.08C6.73 7.681 7.071 7.38 7.47 7.38C7.88 7.38 8.22 7.681 8.26 8.08L8.26 15.92C8.29 16.22 8.15 16.51 7.89 16.67C7.64 16.83 7.31 16.83 7.05 16.67C6.8 16.51 6.65 16.22 6.69 15.92Z" fill="url(#paint0_linear)"/>
<defs>
<linearGradient id="paint0_linear" x1="22" y1="12" x2="2" y2="12" gradientUnits="userSpaceOnUse">
<stop stop-color="#EA7A6E"/>
<stop offset="1" stop-color="#E23A28"/>
</linearGradient>
</defs>
</svg>
