<svg width="20" height="20" viewBox="0 0 20 20" fill="none" xmlns="http://www.w3.org/2000/svg">
<g clip-path="url(#clip0)">
<path d="M18.934 8.10159L3.0277 0.404558C1.97995 -0.10326 0.718946 0.334436 0.211086 1.38219C-0.047867 1.91644 -0.0695253 2.53511 0.151423 3.0862L2.63629 9.29622H20C19.8172 8.77234 19.4337 8.34259 18.934 8.10159Z" fill="url(#paint0_linear)"/>
<path d="M2.6369 10.7017L0.152041 16.9131C-0.279149 17.9975 0.25041 19.2262 1.33485 19.6574C1.58038 19.7551 1.84209 19.8058 2.10632 19.8069C2.42559 19.8069 2.74075 19.7349 3.02828 19.5961L18.9346 11.8963C19.4343 11.6552 19.8178 11.2255 20.0006 10.7017H2.6369Z" fill="url(#paint1_linear)"/>
</g>
<defs>
<linearGradient id="paint0_linear" x1="10" y1="0.192993" x2="10" y2="9.29622" gradientUnits="userSpaceOnUse">
<stop stop-color="#807c7c"/>
<stop offset="1" stop-color="#c7c3c3"/>
</linearGradient>
<linearGradient id="paint1_linear" x1="10.0013" y1="10.7017" x2="10.0013" y2="19.8069" gradientUnits="userSpaceOnUse">
<stop stop-color="#807c7c"/>
<stop offset="1" stop-color="#c7c3c3"/>
</linearGradient>
<clipPath id="clip0">
<rect width="20" height="20" fill="white"/>
</clipPath>
</defs>
</svg>
