<svg width="24" height="24" viewBox="0 0 24 24" fill="none" xmlns="http://www.w3.org/2000/svg">
<g clip-path="url(#clip0)">
<path d="M23.8631 8.76325C23.7457 8.62006 23.5705 8.53648 23.3868 8.53648H21.051C20.4745 7.01613 19.7236 5.5265 18.87 4.9642C15.9171 3.02166 8.08491 3.02166 5.13208 4.9642C4.27787 5.52711 3.52999 7.01859 2.95048 8.53648H0.614639C0.42905 8.53648 0.254522 8.62006 0.138376 8.76325C0.0216142 8.90582 -0.0250904 9.09448 0.0130107 9.27577L0.358993 10.9522C0.417988 11.238 0.669947 11.442 0.960622 11.442H1.65259C0.984588 12.2126 0.660729 13.183 0.656428 14.1539C0.652126 15.3535 1.1075 16.4375 1.94019 17.2045C1.94941 17.2125 1.95862 17.218 1.96723 17.226V19.5717C1.96723 20.0799 2.38019 20.4935 2.88903 20.4935H5.04358C5.55242 20.4935 5.96538 20.0799 5.96538 19.5717V18.629H18.0354V19.5717C18.0354 20.0799 18.4484 20.4935 18.9572 20.4935H21.1118C21.6194 20.4935 22.0336 20.0799 22.0336 19.5717V17.2721C22.9173 16.4627 23.3395 15.3492 23.345 14.2375C23.3487 13.2334 23.0101 12.2274 22.3028 11.4408H23.0408C23.3327 11.4408 23.5847 11.2367 23.6424 10.9504L23.989 9.27454C24.0247 9.09448 23.9798 8.90705 23.8631 8.76325ZM6.14421 6.50361C8.49788 4.95437 15.5029 4.95437 17.8554 6.50361C18.3126 6.8035 18.9007 8.01597 19.4396 9.50069H4.56117C5.09889 8.01659 5.687 6.80473 6.14421 6.50361ZM3.38742 14.385C3.38742 13.3833 4.19983 12.5721 5.2009 12.5721C6.20321 12.5721 7.01439 13.3833 7.01439 14.385C7.01439 15.3867 6.20321 16.1985 5.2009 16.1985C4.19983 16.1985 3.38742 15.3867 3.38742 14.385ZM18.8239 16.1985C17.8228 16.1985 17.0104 15.3867 17.0104 14.385C17.0104 13.3833 17.8228 12.5721 18.8239 12.5721C19.8262 12.5721 20.6374 13.3833 20.6374 14.385C20.6374 15.3867 19.825 16.1985 18.8239 16.1985Z" fill="url(#paint0_linear)"/>
</g>
<defs>
<linearGradient id="paint0_linear" x1="12.0005" y1="3.50729" x2="12.0005" y2="20.4935" gradientUnits="userSpaceOnUse">
<stop stop-color="#E64037"/>
<stop offset="1" stop-color="#E23A28"/>
</linearGradient>
<clipPath id="clip0">
<rect width="24.0006" height="24" fill="white"/>
</clipPath>
</defs>
</svg>
